<?xml version="1.0" encoding="utf-8"?>
<!-- Generator: Adobe Illustrator 24.1.0, SVG Export Plug-In . SVG Version: 6.00 Build 0)  -->
<svg version="1.1" id="Layer_1" xmlns="http://www.w3.org/2000/svg" xmlns:xlink="http://www.w3.org/1999/xlink" x="0px" y="0px"
	 viewBox="0 0 1497 1056.1" style="enable-background:new 0 0 1497 1056.1;" xml:space="preserve">
<style type="text/css">
	.st0{fill:#FFFFFF;}
	.st1{fill:#262626;}
	.st2{clip-path:url(#SVGID_2_);fill:#772B58;stroke:#FFFFFF;stroke-width:0.24;}
	.st3{clip-path:url(#SVGID_4_);fill:#772B58;stroke:#FFFFFF;stroke-width:0.24;}
	.st4{clip-path:url(#SVGID_6_);fill:#772B58;stroke:#FFFFFF;stroke-width:0.24;}
	.st5{clip-path:url(#SVGID_8_);fill:#772B58;stroke:#FFFFFF;stroke-width:0.24;}
	.st6{clip-path:url(#SVGID_10_);fill:#DB6E59;stroke:#FFFFFF;stroke-width:0.24;}
	.st7{clip-path:url(#SVGID_12_);fill:#DB6E59;stroke:#FFFFFF;stroke-width:0.24;}
	.st8{clip-path:url(#SVGID_14_);fill:#DB6E59;stroke:#FFFFFF;stroke-width:0.24;}
	.st9{clip-path:url(#SVGID_16_);fill:#DB6E59;stroke:#FFFFFF;stroke-width:0.24;}
	.st10{clip-path:url(#SVGID_18_);fill:none;stroke:#424242;stroke-linecap:round;stroke-linejoin:round;}
	.st11{clip-path:url(#SVGID_20_);fill:none;stroke:#424242;stroke-linecap:round;stroke-linejoin:round;}
	.st12{clip-path:url(#SVGID_22_);fill:none;stroke:#424242;stroke-linecap:round;stroke-linejoin:round;}
	.st13{clip-path:url(#SVGID_24_);fill:none;stroke:#424242;stroke-linecap:round;stroke-linejoin:round;}
	.st14{clip-path:url(#SVGID_26_);fill:none;stroke:#424242;stroke-linecap:round;stroke-linejoin:round;}
	.st15{clip-path:url(#SVGID_28_);fill:none;stroke:#424242;stroke-linecap:round;stroke-linejoin:round;}
	.st16{clip-path:url(#SVGID_30_);fill:none;stroke:#424242;stroke-linecap:round;stroke-linejoin:round;}
	.st17{clip-path:url(#SVGID_32_);fill:none;stroke:#424242;stroke-linecap:round;stroke-linejoin:round;}
	.st18{fill:none;stroke:#262626;stroke-width:3;stroke-linecap:square;}
	.st19{fill:#772B58;stroke:#FFFFFF;stroke-width:0.24;}
	.st20{fill:#DB6E59;stroke:#FFFFFF;stroke-width:0.24;}
	.st21{clip-path:url(#SVGID_34_);fill:none;stroke:#841E5A;stroke-width:6;stroke-linecap:round;stroke-linejoin:round;}
	.st22{clip-path:url(#SVGID_36_);fill:none;stroke:#841E5A;stroke-linecap:round;stroke-linejoin:round;}
	.st23{clip-path:url(#SVGID_38_);fill:none;stroke:#841E5A;stroke-linecap:round;stroke-linejoin:round;}
	.st24{clip-path:url(#SVGID_40_);fill:none;stroke:#841E5A;stroke-linecap:round;stroke-linejoin:round;}
	.st25{clip-path:url(#SVGID_42_);fill:none;stroke:#841E5A;stroke-linecap:round;stroke-linejoin:round;}
	.st26{clip-path:url(#SVGID_44_);fill:none;stroke:#841E5A;stroke-linecap:round;stroke-linejoin:round;}
	.st27{clip-path:url(#SVGID_46_);fill:none;stroke:#F06043;stroke-width:6;stroke-linecap:round;stroke-linejoin:round;}
	.st28{clip-path:url(#SVGID_48_);fill:none;stroke:#F06043;stroke-linecap:round;stroke-linejoin:round;}
	.st29{clip-path:url(#SVGID_50_);fill:none;stroke:#F06043;stroke-linecap:round;stroke-linejoin:round;}
	.st30{clip-path:url(#SVGID_52_);fill:none;stroke:#F06043;stroke-linecap:round;stroke-linejoin:round;}
	.st31{clip-path:url(#SVGID_54_);fill:none;stroke:#F06043;stroke-linecap:round;stroke-linejoin:round;}
	.st32{clip-path:url(#SVGID_56_);fill:none;stroke:#F06043;stroke-linecap:round;stroke-linejoin:round;}
	.st33{fill:none;stroke:#841E5A;stroke-width:6;stroke-linecap:round;stroke-linejoin:round;}
	.st34{fill:none;stroke:#F06043;stroke-width:6;stroke-linecap:round;stroke-linejoin:round;}
	.st35{font-family:'MyriadPro-Regular';}
	.st36{font-size:40px;}
</style>
<g id="patch_1">
	<path class="st0" d="M0,1056.1h1497V0H0V1056.1z"/>
</g>
<path class="st0" d="M139.8,957.1h613.6V93.6H139.8V957.1z"/>
<g id="matplotlib.axis_2">
	<g id="ytick_1">
		<g id="text_6">
			<g transform="translate(52.88125 971.440425)scale(0.4 -0.4)">
				<g>
					<path id="ArialMT-30" class="st1" d="M4.2,35.3c0,8.5,0.9,15.3,2.6,20.4c1.7,5.2,4.3,9.1,7.7,11.9c3.4,2.8,7.8,4.2,13,4.2
						c3.8,0,7.2-0.8,10.1-2.3c2.9-1.5,5.3-3.8,7.2-6.7c1.9-2.9,3.4-6.5,4.5-10.6c1.1-4.2,1.6-9.8,1.6-16.9c0-8.4-0.9-15.2-2.6-20.3
						c-1.7-5.2-4.3-9.1-7.7-12c-3.4-2.8-7.8-4.2-13-4.2c-6.9,0-12.3,2.5-16.2,7.4C6.5,12.2,4.2,21.9,4.2,35.3z M13.2,35.3
						c0-11.7,1.4-19.6,4.1-23.5C20.1,7.9,23.5,6,27.5,6c4,0,7.4,2,10.2,5.9s4.1,11.7,4.1,23.4c0,11.8-1.4,19.6-4.1,23.5
						c-2.8,3.9-6.2,5.8-10.3,5.8c-4,0-7.3-1.7-9.7-5.1C14.7,55.1,13.2,47.1,13.2,35.3z"/>
				</g>
				<g>
					<path id="ArialMT-2e" class="st1" d="M64.7,0v10h10V0H64.7z"/>
				</g>
				<g>
					<path id="ArialMT-39" class="st1" d="M88.9,16.5l8.5,0.8c0.7-4,2.1-6.8,4.1-8.6c2-1.8,4.6-2.7,7.8-2.7c2.7,0,5.1,0.6,7.1,1.9
						c2,1.2,3.7,2.9,5,5c1.3,2.1,2.4,4.9,3.3,8.4c0.9,3.5,1.3,7.1,1.3,10.8c0,0.4,0,1,0,1.7c-1.8-2.8-4.2-5.1-7.2-6.8
						c-3-1.7-6.3-2.6-9.9-2.6c-5.9,0-10.9,2.1-15,6.4c-4.1,4.3-6.1,10-6.1,17c0,7.3,2.1,13.1,6.4,17.5s9.6,6.6,16.1,6.6
						c4.7,0,8.9-1.3,12.8-3.8c3.9-2.5,6.8-6.1,8.8-10.7c2-4.6,3-11.3,3-20.1c0-9.1-1-16.4-3-21.8c-2-5.4-4.9-9.5-8.9-12.4
						c-3.9-2.8-8.5-4.2-13.8-4.2c-5.6,0-10.2,1.6-13.7,4.7C91.7,6.6,89.6,10.9,88.9,16.5z M124.9,48.1c0,5.1-1.3,9.1-4,12
						c-2.7,3-5.9,4.4-9.7,4.4c-3.9,0-7.3-1.6-10.2-4.8c-2.9-3.2-4.3-7.3-4.3-12.4c0-4.6,1.4-8.3,4.1-11.1c2.8-2.8,6.1-4.3,10.2-4.3
						c4.1,0,7.4,1.4,10,4.3C123.5,39.2,124.9,43.1,124.9,48.1z"/>
				</g>
				<g>
					<path id="ArialMT-30_1_" class="st1" d="M143.2,35.3c0,8.5,0.9,15.3,2.6,20.4c1.7,5.2,4.3,9.1,7.8,11.9c3.4,2.8,7.8,4.2,13,4.2
						c3.8,0,7.2-0.8,10.1-2.3c2.9-1.5,5.3-3.8,7.2-6.7c1.9-2.9,3.4-6.5,4.5-10.6c1.1-4.2,1.6-9.8,1.6-16.9c0-8.4-0.9-15.2-2.6-20.3
						c-1.7-5.2-4.3-9.1-7.7-12c-3.4-2.8-7.8-4.2-13-4.2c-6.9,0-12.3,2.5-16.2,7.4C145.5,12.2,143.2,21.9,143.2,35.3z M152.2,35.3
						c0-11.7,1.4-19.6,4.1-23.5c2.8-3.9,6.1-5.8,10.2-5.8c4,0,7.4,2,10.2,5.9s4.1,11.7,4.1,23.4c0,11.8-1.4,19.6-4.1,23.5
						c-2.8,3.9-6.2,5.8-10.3,5.8c-4,0-7.3-1.7-9.7-5.1C153.7,55.1,152.2,47.1,152.2,35.3z"/>
				</g>
			</g>
		</g>
	</g>
	<g id="ytick_2">
		<g id="text_7">
			<g transform="translate(52.88125 798.726825)scale(0.4 -0.4)">
				<g>
					<path id="ArialMT-30_2_" class="st1" d="M4.2,35.3c0,8.5,0.9,15.3,2.6,20.4c1.7,5.2,4.3,9.1,7.7,11.9c3.4,2.8,7.8,4.2,13,4.2
						c3.8,0,7.2-0.8,10.1-2.3c2.9-1.5,5.3-3.8,7.2-6.7c1.9-2.9,3.4-6.5,4.5-10.6c1.1-4.2,1.6-9.8,1.6-16.9c0-8.4-0.9-15.2-2.6-20.3
						c-1.7-5.2-4.3-9.1-7.7-12c-3.4-2.8-7.8-4.2-13-4.2c-6.9,0-12.3,2.5-16.2,7.4C6.5,12.2,4.2,21.9,4.2,35.3z M13.2,35.3
						c0-11.7,1.4-19.6,4.1-23.5C20.1,7.9,23.5,6,27.5,6c4,0,7.4,2,10.2,5.9s4.1,11.7,4.1,23.4c0,11.8-1.4,19.6-4.1,23.5
						c-2.8,3.9-6.2,5.8-10.3,5.8c-4,0-7.3-1.7-9.7-5.1C14.7,55.1,13.2,47.1,13.2,35.3z"/>
				</g>
				<g>
					<path id="ArialMT-2e_1_" class="st1" d="M64.7,0v10h10V0H64.7z"/>
				</g>
				<g>
					<path id="ArialMT-39_1_" class="st1" d="M88.9,16.5l8.5,0.8c0.7-4,2.1-6.8,4.1-8.6c2-1.8,4.6-2.7,7.8-2.7
						c2.7,0,5.1,0.6,7.1,1.9c2,1.2,3.7,2.9,5,5c1.3,2.1,2.4,4.9,3.3,8.4c0.9,3.5,1.3,7.1,1.3,10.8c0,0.4,0,1,0,1.7
						c-1.8-2.8-4.2-5.1-7.2-6.8c-3-1.7-6.3-2.6-9.9-2.6c-5.9,0-10.9,2.1-15,6.4c-4.1,4.3-6.1,10-6.1,17c0,7.3,2.1,13.1,6.4,17.5
						s9.6,6.6,16.1,6.6c4.7,0,8.9-1.3,12.8-3.8c3.9-2.5,6.8-6.1,8.8-10.7c2-4.6,3-11.3,3-20.1c0-9.1-1-16.4-3-21.8
						c-2-5.4-4.9-9.5-8.9-12.4c-3.9-2.8-8.5-4.2-13.8-4.2c-5.6,0-10.2,1.6-13.7,4.7C91.7,6.6,89.6,10.9,88.9,16.5z M124.9,48.1
						c0,5.1-1.3,9.1-4,12c-2.7,3-5.9,4.4-9.7,4.4c-3.9,0-7.3-1.6-10.2-4.8c-2.9-3.2-4.3-7.3-4.3-12.4c0-4.6,1.4-8.3,4.1-11.1
						c2.8-2.8,6.1-4.3,10.2-4.3c4.1,0,7.4,1.4,10,4.3C123.5,39.2,124.9,43.1,124.9,48.1z"/>
				</g>
				<g>
					<path id="ArialMT-32" class="st1" d="M189.4,8.5V0H142c-0.1,2.1,0.3,4.2,1,6.1c1.2,3.2,3.1,6.4,5.8,9.5
						c2.7,3.1,6.5,6.7,11.5,10.8c7.8,6.4,13,11.4,15.8,15.2c2.7,3.7,4.1,7.3,4.1,10.6c0,3.5-1.2,6.4-3.8,8.8
						c-2.5,2.4-5.7,3.6-9.7,3.6c-4.2,0-7.6-1.3-10.2-3.8c-2.5-2.5-3.8-6-3.9-10.5l-9,0.9c0.6,6.7,2.9,11.9,7,15.4
						c4,3.5,9.5,5.3,16.3,5.3c6.9,0,12.3-1.9,16.3-5.7c4-3.8,6-8.5,6-14.2c0-2.9-0.6-5.7-1.8-8.5c-1.2-2.8-3.1-5.7-5.8-8.7
						s-7.2-7.3-13.5-12.6c-5.3-4.4-8.7-7.4-10.2-9c-1.5-1.6-2.7-3.2-3.7-4.8H189.4z"/>
				</g>
			</g>
		</g>
	</g>
	<g id="ytick_3">
		<g id="text_8">
			<g transform="translate(52.88125 626.013225)scale(0.4 -0.4)">
				<g>
					<path id="ArialMT-30_3_" class="st1" d="M4.2,35.3c0,8.5,0.9,15.3,2.6,20.4c1.7,5.2,4.3,9.1,7.7,11.9c3.4,2.8,7.8,4.2,13,4.2
						c3.8,0,7.2-0.8,10.1-2.3c2.9-1.5,5.3-3.8,7.2-6.7c1.9-2.9,3.4-6.5,4.5-10.6c1.1-4.2,1.6-9.8,1.6-16.9c0-8.4-0.9-15.2-2.6-20.3
						c-1.7-5.2-4.3-9.1-7.7-12c-3.4-2.8-7.8-4.2-13-4.2c-6.9,0-12.3,2.5-16.2,7.4C6.5,12.2,4.2,21.9,4.2,35.3z M13.2,35.3
						c0-11.7,1.4-19.6,4.1-23.5C20.1,7.9,23.5,6,27.5,6c4,0,7.4,2,10.2,5.9s4.1,11.7,4.1,23.4c0,11.8-1.4,19.6-4.1,23.5
						c-2.8,3.9-6.2,5.8-10.3,5.8c-4,0-7.3-1.7-9.7-5.1C14.7,55.1,13.2,47.1,13.2,35.3z"/>
				</g>
				<g>
					<path id="ArialMT-2e_2_" class="st1" d="M64.7,0v10h10V0H64.7z"/>
				</g>
				<g>
					<path id="ArialMT-39_2_" class="st1" d="M88.9,16.5l8.5,0.8c0.7-4,2.1-6.8,4.1-8.6c2-1.8,4.6-2.7,7.8-2.7
						c2.7,0,5.1,0.6,7.1,1.9c2,1.2,3.7,2.9,5,5c1.3,2.1,2.4,4.9,3.3,8.4c0.9,3.5,1.3,7.1,1.3,10.8c0,0.4,0,1,0,1.7
						c-1.8-2.8-4.2-5.1-7.2-6.8c-3-1.7-6.3-2.6-9.9-2.6c-5.9,0-10.9,2.1-15,6.4c-4.1,4.3-6.1,10-6.1,17c0,7.3,2.1,13.1,6.4,17.5
						s9.6,6.6,16.1,6.6c4.7,0,8.9-1.3,12.8-3.8c3.9-2.5,6.8-6.1,8.8-10.7c2-4.6,3-11.3,3-20.1c0-9.1-1-16.4-3-21.8
						c-2-5.4-4.9-9.5-8.9-12.4c-3.9-2.8-8.5-4.2-13.8-4.2c-5.6,0-10.2,1.6-13.7,4.7C91.7,6.6,89.6,10.9,88.9,16.5z M124.9,48.1
						c0,5.1-1.3,9.1-4,12c-2.7,3-5.9,4.4-9.7,4.4c-3.9,0-7.3-1.6-10.2-4.8c-2.9-3.2-4.3-7.3-4.3-12.4c0-4.6,1.4-8.3,4.1-11.1
						c2.8-2.8,6.1-4.3,10.2-4.3c4.1,0,7.4,1.4,10,4.3C123.5,39.2,124.9,43.1,124.9,48.1z"/>
				</g>
				<g>
					<path id="ArialMT-34" class="st1" d="M171.3,0v17.1h-31.1v8.1L173,71.6h7.2V25.2h9.7v-8.1h-9.7V0H171.3z M171.3,25.2v32.3
						l-22.4-32.3H171.3z"/>
				</g>
			</g>
		</g>
	</g>
	<g id="ytick_4">
		<g id="text_9">
			<g transform="translate(52.88125 453.299625)scale(0.4 -0.4)">
				<g>
					<path id="ArialMT-30_4_" class="st1" d="M4.2,35.3c0,8.5,0.9,15.3,2.6,20.4c1.7,5.2,4.3,9.1,7.7,11.9c3.4,2.8,7.8,4.2,13,4.2
						c3.8,0,7.2-0.8,10.1-2.3c2.9-1.5,5.3-3.8,7.2-6.7c1.9-2.9,3.4-6.5,4.5-10.6c1.1-4.2,1.6-9.8,1.6-16.9c0-8.4-0.9-15.2-2.6-20.3
						c-1.7-5.2-4.3-9.1-7.7-12c-3.4-2.8-7.8-4.2-13-4.2c-6.9,0-12.3,2.5-16.2,7.4C6.5,12.2,4.2,21.9,4.2,35.3z M13.2,35.3
						c0-11.7,1.4-19.6,4.1-23.5C20.1,7.9,23.5,6,27.5,6c4,0,7.4,2,10.2,5.9s4.1,11.7,4.1,23.4c0,11.8-1.4,19.6-4.1,23.5
						c-2.8,3.9-6.2,5.8-10.3,5.8c-4,0-7.3-1.7-9.7-5.1C14.7,55.1,13.2,47.1,13.2,35.3z"/>
				</g>
				<g>
					<path id="ArialMT-2e_3_" class="st1" d="M64.7,0v10h10V0H64.7z"/>
				</g>
				<g>
					<path id="ArialMT-39_3_" class="st1" d="M88.9,16.5l8.5,0.8c0.7-4,2.1-6.8,4.1-8.6c2-1.8,4.6-2.7,7.8-2.7
						c2.7,0,5.1,0.6,7.1,1.9c2,1.2,3.7,2.9,5,5c1.3,2.1,2.4,4.9,3.3,8.4c0.9,3.5,1.3,7.1,1.3,10.8c0,0.4,0,1,0,1.7
						c-1.8-2.8-4.2-5.1-7.2-6.8c-3-1.7-6.3-2.6-9.9-2.6c-5.9,0-10.9,2.1-15,6.4c-4.1,4.3-6.1,10-6.1,17c0,7.3,2.1,13.1,6.4,17.5
						c4.3,4.4,9.6,6.6,16.1,6.6c4.7,0,8.9-1.3,12.8-3.8c3.9-2.5,6.8-6.1,8.8-10.7c2-4.6,3-11.3,3-20.1c0-9.1-1-16.4-3-21.8
						c-2-5.4-4.9-9.5-8.9-12.4c-3.9-2.8-8.5-4.2-13.8-4.2c-5.6,0-10.2,1.6-13.7,4.7C91.7,6.6,89.6,10.9,88.9,16.5z M124.9,48.1
						c0,5.1-1.3,9.1-4,12c-2.7,3-5.9,4.4-9.7,4.4c-3.9,0-7.3-1.6-10.2-4.8c-2.9-3.2-4.3-7.3-4.3-12.4c0-4.6,1.4-8.3,4.1-11.1
						c2.8-2.8,6.1-4.3,10.2-4.3c4.1,0,7.4,1.4,10,4.3C123.5,39.2,124.9,43.1,124.9,48.1z"/>
				</g>
				<g>
					<path id="ArialMT-36" class="st1" d="M188.8,54l-8.7-0.7c-0.8,3.4-1.9,6-3.3,7.5c-2.4,2.5-5.3,3.8-8.8,3.8
						c-2.8,0-5.3-0.8-7.4-2.3c-2.8-2-4.9-5-6.5-8.8c-1.6-3.9-2.4-9.4-2.5-16.5c2.1,3.2,4.7,5.6,7.8,7.2s6.3,2.3,9.6,2.3
						c5.9,0,10.8-2.2,15-6.5c4.1-4.3,6.2-9.9,6.2-16.7c0-4.5-1-8.7-2.9-12.5s-4.6-6.8-8-8.9s-7.2-3.1-11.5-3.1
						c-7.3,0-13.3,2.7-17.9,8.1c-4.6,5.4-6.9,14.3-6.9,26.6c0,13.8,2.6,23.9,7.7,30.2c4.5,5.5,10.5,8.2,18,8.2
						c5.6,0,10.2-1.6,13.8-4.7C185.9,64,188.1,59.6,188.8,54z M152.9,23.2c0-3,0.6-5.9,1.9-8.7c1.3-2.8,3.1-4.9,5.4-6.3
						c2.3-1.4,4.7-2.2,7.3-2.2c3.7,0,6.9,1.5,9.6,4.5c2.7,3,4,7.1,4,12.2c0,4.9-1.3,8.8-4,11.7c-2.6,2.9-6,4.3-10,4.3
						c-4,0-7.3-1.4-10.1-4.3C154.3,31.5,152.9,27.8,152.9,23.2z"/>
				</g>
			</g>
		</g>
	</g>
	<g id="ytick_5">
		<g id="text_10">
			<g transform="translate(52.88125 280.586025)scale(0.4 -0.4)">
				<g>
					<path id="ArialMT-30_5_" class="st1" d="M4.2,35.3c0,8.5,0.9,15.3,2.6,20.4c1.7,5.2,4.3,9.1,7.7,11.9c3.4,2.8,7.8,4.2,13,4.2
						c3.8,0,7.2-0.8,10.1-2.3c2.9-1.5,5.3-3.8,7.2-6.7c1.9-2.9,3.4-6.5,4.5-10.6c1.1-4.2,1.6-9.8,1.6-16.9c0-8.4-0.9-15.2-2.6-20.3
						c-1.7-5.2-4.3-9.1-7.7-12c-3.4-2.8-7.8-4.2-13-4.2c-6.9,0-12.3,2.5-16.2,7.4C6.5,12.2,4.2,21.9,4.2,35.3z M13.2,35.3
						c0-11.8,1.4-19.6,4.1-23.5C20.1,7.9,23.5,6,27.5,6c4,0,7.4,2,10.2,5.9s4.1,11.7,4.1,23.4c0,11.8-1.4,19.6-4.1,23.5
						c-2.8,3.9-6.2,5.8-10.3,5.8c-4,0-7.3-1.7-9.7-5.1C14.7,55.1,13.2,47.1,13.2,35.3z"/>
				</g>
				<g>
					<path id="ArialMT-2e_4_" class="st1" d="M64.7,0v10h10V0H64.7z"/>
				</g>
				<g>
					<path id="ArialMT-39_4_" class="st1" d="M88.9,16.5l8.5,0.8c0.7-4,2.1-6.8,4.1-8.6c2-1.8,4.6-2.7,7.8-2.7
						c2.7,0,5.1,0.6,7.1,1.9c2,1.2,3.7,2.9,5,5c1.3,2.1,2.4,4.9,3.3,8.4c0.9,3.5,1.3,7.1,1.3,10.8c0,0.4,0,1,0,1.8
						c-1.8-2.8-4.2-5.1-7.2-6.8c-3-1.7-6.3-2.6-9.9-2.6c-5.9,0-10.9,2.1-15,6.4c-4.1,4.3-6.1,10-6.1,17c0,7.3,2.1,13.1,6.4,17.5
						s9.6,6.6,16.1,6.6c4.7,0,8.9-1.3,12.8-3.8c3.9-2.5,6.8-6.1,8.8-10.7c2-4.6,3-11.3,3-20.1c0-9.1-1-16.4-3-21.8
						c-2-5.4-4.9-9.5-8.9-12.4c-3.9-2.8-8.5-4.2-13.8-4.2c-5.6,0-10.2,1.6-13.7,4.7C91.7,6.6,89.6,10.9,88.9,16.5z M124.9,48.1
						c0,5.1-1.3,9.1-4,12c-2.7,3-5.9,4.4-9.7,4.4c-3.9,0-7.3-1.6-10.2-4.8c-2.9-3.2-4.3-7.3-4.3-12.4c0-4.6,1.4-8.3,4.1-11.1
						c2.8-2.8,6.1-4.3,10.2-4.3c4.1,0,7.4,1.4,10,4.3C123.5,39.2,124.9,43.1,124.9,48.1z"/>
				</g>
				<g>
					<path id="ArialMT-38" class="st1" d="M156.7,38.8c-3.6,1.3-6.3,3.2-8.1,5.7c-1.8,2.5-2.6,5.4-2.6,8.9c0,5.2,1.9,9.6,5.6,13.1
						c3.8,3.6,8.7,5.3,14.9,5.3c6.2,0,11.3-1.8,15.1-5.5c3.8-3.6,5.7-8,5.7-13.2c0-3.3-0.9-6.2-2.6-8.7c-1.7-2.4-4.4-4.3-7.9-5.7
						c4.4-1.4,7.7-3.7,10-6.9c2.3-3.2,3.4-7,3.4-11.4c0-6.1-2.2-11.3-6.5-15.4c-4.3-4.2-10-6.2-17.1-6.2S153.9,0.9,149.6,5
						c-4.3,4.2-6.5,9.4-6.5,15.7c0,4.7,1.2,8.6,3.5,11.7C149,35.5,152.3,37.7,156.7,38.8z M154.9,53.7c0-3.4,1.1-6.2,3.3-8.3
						c2.2-2.1,5-3.2,8.5-3.2c3.4,0,6.2,1.1,8.3,3.2c2.2,2.1,3.2,4.8,3.2,7.8c0,3.2-1.1,5.9-3.4,8.1c-2.2,2.2-5,3.3-8.3,3.3
						c-3.4,0-6.1-1.1-8.4-3.2C156,59.3,154.9,56.7,154.9,53.7z M152.1,20.7c0-2.5,0.6-4.9,1.8-7.3s3-4.2,5.3-5.5
						c2.3-1.3,4.9-1.9,7.6-1.9c4.2,0,7.7,1.3,10.4,4c2.7,2.7,4.1,6.1,4.1,10.3c0,4.2-1.4,7.7-4.2,10.5s-6.3,4.2-10.6,4.2
						c-4.1,0-7.6-1.4-10.3-4.1C153.5,28.2,152.1,24.8,152.1,20.7z"/>
				</g>
			</g>
		</g>
	</g>
	<g id="ytick_6">
		<g id="text_11">
			<g transform="translate(52.88125 107.872425)scale(0.4 -0.4)">
				<g>
					<path id="ArialMT-31" class="st1" d="M37.2,0h-8.8v56c-2.1-2-4.9-4-8.3-6s-6.5-3.5-9.3-4.5v8.5c4.9,2.3,9.2,5.1,12.9,8.4
						c3.7,3.3,6.3,6.5,7.8,9.6h5.7V0z"/>
				</g>
				<g>
					<path id="ArialMT-2e_5_" class="st1" d="M64.7,0v10h10V0H64.7z"/>
				</g>
				<g>
					<path id="ArialMT-30_6_" class="st1" d="M87.6,35.3c0,8.5,0.9,15.3,2.6,20.4c1.7,5.2,4.3,9.1,7.8,11.9c3.4,2.8,7.8,4.2,13,4.2
						c3.8,0,7.2-0.8,10.1-2.3c2.9-1.5,5.3-3.8,7.2-6.7c1.9-2.9,3.4-6.5,4.5-10.6c1.1-4.2,1.6-9.8,1.6-16.9c0-8.4-0.9-15.2-2.6-20.3
						c-1.7-5.2-4.3-9.1-7.7-12c-3.4-2.8-7.8-4.2-13-4.2c-6.9,0-12.3,2.5-16.2,7.4C89.9,12.2,87.6,21.9,87.6,35.3z M96.6,35.3
						c0-11.8,1.4-19.6,4.1-23.5c2.8-3.9,6.1-5.8,10.2-5.8c4,0,7.4,2,10.2,5.9s4.1,11.7,4.1,23.4c0,11.8-1.4,19.6-4.1,23.5
						c-2.8,3.9-6.2,5.8-10.3,5.8c-4,0-7.3-1.7-9.7-5.1C98.1,55.1,96.6,47.1,96.6,35.3z"/>
				</g>
				<g>
					<path id="ArialMT-30_7_" class="st1" d="M143.2,35.3c0,8.5,0.9,15.3,2.6,20.4c1.7,5.2,4.3,9.1,7.8,11.9c3.4,2.8,7.8,4.2,13,4.2
						c3.8,0,7.2-0.8,10.1-2.3c2.9-1.5,5.3-3.8,7.2-6.7c1.9-2.9,3.4-6.5,4.5-10.6c1.1-4.2,1.6-9.8,1.6-16.9c0-8.4-0.9-15.2-2.6-20.3
						c-1.7-5.2-4.3-9.1-7.7-12c-3.4-2.8-7.8-4.2-13-4.2c-6.9,0-12.3,2.5-16.2,7.4C145.5,12.2,143.2,21.9,143.2,35.3z M152.2,35.3
						c0-11.8,1.4-19.6,4.1-23.5c2.8-3.9,6.1-5.8,10.2-5.8c4,0,7.4,2,10.2,5.9s4.1,11.7,4.1,23.4c0,11.8-1.4,19.6-4.1,23.5
						c-2.8,3.9-6.2,5.8-10.3,5.8c-4,0-7.3-1.7-9.7-5.1C153.7,55.1,152.2,47.1,152.2,35.3z"/>
				</g>
			</g>
		</g>
	</g>
	<g id="text_12">
		<g transform="translate(39.410156 617.865019)rotate(-90)scale(0.45 -0.45)">
			<g>
				<path id="ArialMT-41" class="st1" d="M-0.1,0l27.5,71.6h10.2L66.8,0H56.1l-8.4,21.7H17.8L9.9,0H-0.1z M20.5,29.4h24.3l-7.5,19.8
					c-2.3,6-4,11-5.1,14.8c-0.9-4.6-2.2-9.2-3.9-13.7L20.5,29.4z"/>
			</g>
			<g>
				<path id="ArialMT-63_6_" class="st1" d="M107.1,19l8.6-1.1c-0.9-6-3.4-10.6-7.3-14c-3.9-3.4-8.7-5-14.3-5
					c-7.1,0-12.8,2.3-17.1,7c-4.3,4.6-6.5,11.3-6.5,20c0,5.6,0.9,10.5,2.8,14.7c1.9,4.2,4.7,7.4,8.5,9.5C85.6,52,89.8,53,94.2,53
					c5.6,0,10.2-1.4,13.8-4.3c3.6-2.8,5.9-6.9,6.9-12.1l-8.5-1.3c-0.8,3.5-2.3,6.1-4.3,7.9c-2.1,1.8-4.6,2.6-7.5,2.6
					c-4.4,0-8-1.6-10.8-4.8c-2.8-3.2-4.1-8.2-4.1-15c0-7,1.3-12,4-15.2c2.7-3.2,6.2-4.7,10.5-4.7c3.4,0,6.3,1.1,8.6,3.2
					S106.5,14.6,107.1,19z"/>
			</g>
			<g>
				<path id="ArialMT-63_7_" class="st1" d="M157.1,19l8.6-1.1c-0.9-6-3.4-10.6-7.3-14c-3.9-3.4-8.7-5-14.3-5
					c-7.1,0-12.8,2.3-17.1,7c-4.3,4.6-6.5,11.3-6.5,20c0,5.6,0.9,10.5,2.8,14.7c1.9,4.2,4.7,7.4,8.5,9.5c3.8,2.1,7.9,3.2,12.4,3.2
					c5.6,0,10.2-1.4,13.8-4.3c3.6-2.8,5.9-6.9,6.9-12.1l-8.5-1.3c-0.8,3.5-2.3,6.1-4.3,7.9c-2.1,1.8-4.6,2.6-7.5,2.6
					c-4.4,0-8-1.6-10.8-4.8c-2.8-3.2-4.1-8.2-4.1-15c0-7,1.3-12,4-15.2c2.7-3.2,6.2-4.7,10.5-4.7c3.4,0,6.3,1.1,8.6,3.2
					S156.5,14.6,157.1,19z"/>
			</g>
			<g>
				<path id="ArialMT-75" class="st1" d="M207.3,0v7.6c-4-5.9-9.5-8.8-16.5-8.8c-3.1,0-5.9,0.6-8.6,1.7c-2.6,1.2-4.6,2.7-5.9,4.4
					c-1.3,1.8-2.2,4-2.7,6.5c-0.4,1.7-0.5,4.5-0.5,8.2v32.1h8.8V23.1c0-4.6,0.2-7.7,0.5-9.3c0.6-2.3,1.7-4.1,3.5-5.4
					c1.8-1.3,4-2,6.6-2c2.6,0,5.1,0.7,7.4,2s3.9,3.2,4.9,5.5c1,2.3,1.5,5.7,1.5,10.1v27.8h8.8V0H207.3z"/>
			</g>
			<g>
				<path id="ArialMT-72_1_" class="st1" d="M228.8,0v51.9h7.9V44c2,3.7,3.9,6.1,5.6,7.3c1.7,1.2,3.6,1.8,5.6,1.8c3,0,6-0.9,9-2.8
					l-3-8.2c-2.1,1.3-4.3,1.9-6.4,1.9c-1.9,0-3.7-0.6-5.2-1.7s-2.6-2.8-3.3-4.8c-1-3.1-1.5-6.5-1.5-10.3V0H228.8z"/>
			</g>
			<g>
				<path id="ArialMT-61" class="st1" d="M296.1,6.4c-3.3-2.8-6.4-4.7-9.4-5.9c-3-1.1-6.2-1.7-9.7-1.7c-5.7,0-10.1,1.4-13.1,4.2
					s-4.6,6.3-4.6,10.7c0,2.5,0.6,4.9,1.7,7c1.2,2.1,2.7,3.8,4.5,5.1s4,2.2,6.3,2.9c1.7,0.5,4.3,0.9,7.8,1.3
					c7.1,0.8,12.3,1.8,15.7,3c0,1.2,0,2,0,2.3c0,3.6-0.8,6.1-2.5,7.6c-2.2,2-5.6,3-10,3c-4.1,0-7.2-0.7-9.2-2.2s-3.4-4-4.4-7.7
					l-8.6,1.2c0.8,3.7,2.1,6.6,3.9,8.9c1.8,2.3,4.4,4,7.8,5.2c3.4,1.2,7.3,1.8,11.8,1.8c4.4,0,8-0.5,10.8-1.6c2.8-1,4.8-2.4,6.1-3.9
					c1.3-1.6,2.2-3.6,2.7-6c0.3-1.5,0.4-4.2,0.4-8.1V21.7c0-8.2,0.2-13.3,0.6-15.5c0.4-2.2,1.1-4.2,2.2-6.2h-9.2
					C296.9,1.8,296.3,4,296.1,6.4z M295.3,26c-3.2-1.3-8-2.4-14.4-3.3c-3.6-0.5-6.2-1.1-7.7-1.8c-1.5-0.6-2.6-1.6-3.5-2.8
					c-0.8-1.2-1.2-2.6-1.2-4.2c0-2.3,0.9-4.3,2.7-5.9c1.8-1.6,4.4-2.3,7.8-2.3c3.4,0,6.4,0.7,9,2.2c2.6,1.5,4.6,3.5,5.8,6.1
					c0.9,2,1.4,4.9,1.4,8.8V26z"/>
			</g>
			<g>
				<path id="ArialMT-63_8_" class="st1" d="M351.7,19l8.6-1.1c-0.9-6-3.4-10.6-7.3-14c-3.9-3.4-8.7-5-14.3-5
					c-7.1,0-12.8,2.3-17.1,7c-4.3,4.6-6.5,11.3-6.5,20c0,5.6,0.9,10.5,2.8,14.7c1.9,4.2,4.7,7.4,8.5,9.5c3.8,2.1,7.9,3.2,12.4,3.2
					c5.6,0,10.2-1.4,13.8-4.3c3.6-2.8,5.9-6.9,6.9-12.1l-8.5-1.3c-0.8,3.5-2.3,6.1-4.3,7.9c-2.1,1.8-4.6,2.6-7.5,2.6
					c-4.4,0-8-1.6-10.8-4.8c-2.8-3.2-4.1-8.2-4.1-15c0-7,1.3-12,4-15.2c2.7-3.2,6.2-4.7,10.5-4.7c3.4,0,6.3,1.1,8.6,3.2
					S351,14.6,351.7,19z"/>
			</g>
			<g>
				<path id="ArialMT-79" class="st1" d="M367.4-20l-1,8.2c1.9-0.5,3.6-0.8,5-0.8c2,0,3.5,0.3,4.7,1c1.2,0.6,2.1,1.6,2.9,2.7
					c0.6,0.9,1.4,3.1,2.7,6.5c0.2,0.5,0.4,1.2,0.8,2.2l-19.7,52h9.5l10.8-30c1.4-3.8,2.7-7.8,3.8-12c1,4,2.2,8,3.6,11.8l11.1,30.2
					h8.8L390.6-0.9c-2.1-5.7-3.8-9.6-4.9-11.8c-1.6-2.9-3.4-5-5.4-6.4c-2-1.4-4.4-2-7.2-2C371.4-21,369.5-20.7,367.4-20z"/>
			</g>
		</g>
	</g>
</g>
<g id="patch_3">
	<g>
		<defs>
			<rect id="SVGID_1_" x="139.8" y="93.6" width="613.6" height="863.6"/>
		</defs>
		<clipPath id="SVGID_2_">
			<use xlink:href="#SVGID_1_"  style="overflow:visible;"/>
		</clipPath>
		<path class="st2" d="M155.2,8729.2h61.4v-8404h-61.4V8729.2z"/>
	</g>
</g>
<g id="patch_4">
	<g>
		<defs>
			<rect id="SVGID_3_" x="139.8" y="93.6" width="613.6" height="863.6"/>
		</defs>
		<clipPath id="SVGID_4_">
			<use xlink:href="#SVGID_3_"  style="overflow:visible;"/>
		</clipPath>
		<path class="st3" d="M308.6,8729.2h61.4V451.5h-61.4V8729.2z"/>
	</g>
</g>
<g id="patch_5">
	<g>
		<defs>
			<rect id="SVGID_5_" x="139.8" y="93.6" width="613.6" height="863.6"/>
		</defs>
		<clipPath id="SVGID_6_">
			<use xlink:href="#SVGID_5_"  style="overflow:visible;"/>
		</clipPath>
		<path class="st4" d="M462,8729.2h61.4V275.2H462V8729.2z"/>
	</g>
</g>
<g id="patch_6">
	<g>
		<defs>
			<rect id="SVGID_7_" x="139.8" y="93.6" width="613.6" height="863.6"/>
		</defs>
		<clipPath id="SVGID_8_">
			<use xlink:href="#SVGID_7_"  style="overflow:visible;"/>
		</clipPath>
		<path class="st5" d="M615.4,8729.2h61.4V362.6h-61.4V8729.2z"/>
	</g>
</g>
<g id="patch_7">
	<g>
		<defs>
			<rect id="SVGID_9_" x="139.8" y="93.6" width="613.6" height="863.6"/>
		</defs>
		<clipPath id="SVGID_10_">
			<use xlink:href="#SVGID_9_"  style="overflow:visible;"/>
		</clipPath>
		<path class="st6" d="M216.5,8729.2h61.4V375.4h-61.4V8729.2z"/>
	</g>
</g>
<g id="patch_8">
	<g>
		<defs>
			<rect id="SVGID_11_" x="139.8" y="93.6" width="613.6" height="863.6"/>
		</defs>
		<clipPath id="SVGID_12_">
			<use xlink:href="#SVGID_11_"  style="overflow:visible;"/>
		</clipPath>
		<path class="st7" d="M369.9,8729.2h61.4V439.9h-61.4V8729.2z"/>
	</g>
</g>
<g id="patch_9">
	<g>
		<defs>
			<rect id="SVGID_13_" x="139.8" y="93.6" width="613.6" height="863.6"/>
		</defs>
		<clipPath id="SVGID_14_">
			<use xlink:href="#SVGID_13_"  style="overflow:visible;"/>
		</clipPath>
		<path class="st8" d="M523.3,8729.2h61.4V278.5h-61.4V8729.2z"/>
	</g>
</g>
<g id="patch_10">
	<g>
		<defs>
			<rect id="SVGID_15_" x="139.8" y="93.6" width="613.6" height="863.6"/>
		</defs>
		<clipPath id="SVGID_16_">
			<use xlink:href="#SVGID_15_"  style="overflow:visible;"/>
		</clipPath>
		<path class="st9" d="M676.8,8729.2h61.4v-8429h-61.4V8729.2z"/>
	</g>
</g>
<g id="line2d_1">
	<g>
		<defs>
			<rect id="SVGID_17_" x="139.8" y="93.6" width="613.6" height="863.6"/>
		</defs>
		<clipPath id="SVGID_18_">
			<use xlink:href="#SVGID_17_"  style="overflow:visible;"/>
		</clipPath>
		<path class="st10" d="M185.8,417.9v-176"/>
	</g>
</g>
<g id="line2d_2">
	<g>
		<defs>
			<rect id="SVGID_19_" x="139.8" y="93.6" width="613.6" height="863.6"/>
		</defs>
		<clipPath id="SVGID_20_">
			<use xlink:href="#SVGID_19_"  style="overflow:visible;"/>
		</clipPath>
		<path class="st11" d="M339.3,561.6V350.5"/>
	</g>
</g>
<g id="line2d_3">
	<g>
		<defs>
			<rect id="SVGID_21_" x="139.8" y="93.6" width="613.6" height="863.6"/>
		</defs>
		<clipPath id="SVGID_22_">
			<use xlink:href="#SVGID_21_"  style="overflow:visible;"/>
		</clipPath>
		<path class="st12" d="M492.7,356.9V202.5"/>
	</g>
</g>
<g id="line2d_4">
	<g>
		<defs>
			<rect id="SVGID_23_" x="139.8" y="93.6" width="613.6" height="863.6"/>
		</defs>
		<clipPath id="SVGID_24_">
			<use xlink:href="#SVGID_23_"  style="overflow:visible;"/>
		</clipPath>
		<path class="st13" d="M646.1,452.3V272.9"/>
	</g>
</g>
<g id="line2d_5">
	<g>
		<defs>
			<rect id="SVGID_25_" x="139.8" y="93.6" width="613.6" height="863.6"/>
		</defs>
		<clipPath id="SVGID_26_">
			<use xlink:href="#SVGID_25_"  style="overflow:visible;"/>
		</clipPath>
		<path class="st14" d="M247.2,477.1V273.9"/>
	</g>
</g>
<g id="line2d_6">
	<g>
		<defs>
			<rect id="SVGID_27_" x="139.8" y="93.6" width="613.6" height="863.6"/>
		</defs>
		<clipPath id="SVGID_28_">
			<use xlink:href="#SVGID_27_"  style="overflow:visible;"/>
		</clipPath>
		<path class="st15" d="M400.6,562.8V328.2"/>
	</g>
</g>
<g id="line2d_7">
	<g>
		<defs>
			<rect id="SVGID_29_" x="139.8" y="93.6" width="613.6" height="863.6"/>
		</defs>
		<clipPath id="SVGID_30_">
			<use xlink:href="#SVGID_29_"  style="overflow:visible;"/>
		</clipPath>
		<path class="st16" d="M554,376.3v-174"/>
	</g>
</g>
<g id="line2d_8">
	<g>
		<defs>
			<rect id="SVGID_31_" x="139.8" y="93.6" width="613.6" height="863.6"/>
		</defs>
		<clipPath id="SVGID_32_">
			<use xlink:href="#SVGID_31_"  style="overflow:visible;"/>
		</clipPath>
		<path class="st17" d="M707.4,398.1V213.2"/>
	</g>
</g>
<g id="patch_11">
	<path class="st18" d="M139.8,957.1V93.6"/>
</g>
<g id="patch_12">
	<path class="st18" d="M139.8,957.1h613.6"/>
</g>
<g id="text_13">
	<g transform="translate(78.461364 50.146875)scale(0.6 -0.6)">
		<g>
			<path id="ArialMT-41_1_" class="st1" d="M-118.8-28.5l37.1,96.6h13.8l39.6-96.6h-14.6L-54.2,0.8h-40.4l-10.6-29.3H-118.8z
				 M-90.9,11.2h32.8L-68.2,38c-3.1,8.1-5.4,14.8-6.9,20c-1.2-6.2-3-12.4-5.2-18.5L-90.9,11.2z"/>
		</g>
	</g>
</g>
<g id="legend_1">
	<g id="patch_13">
		<path class="st19" d="M163.6,119.7h90V88.2h-90V119.7z"/>
	</g>
	<g id="text_14">
		<g transform="translate(681.461364 142.030238)scale(0.3 -0.3)">
			<g>
				<path id="ArialMT-43_4_" class="st1" d="M-1218,112.2l14.2-3.6c-3-11.7-8.3-20.6-16.1-26.7s-17.2-9.2-28.4-9.2
					c-11.6,0-21,2.4-28.2,7.1c-7.2,4.7-12.8,11.5-16.5,20.5s-5.7,18.5-5.7,28.8c0,11.2,2.1,20.9,6.4,29.2c4.3,8.3,10.4,14.6,18.2,19
					c7.9,4.3,16.6,6.5,26,6.5c10.8,0,19.8-2.7,27.1-8.2c7.3-5.5,12.4-13.2,15.3-23.1l-14-3.3c-2.5,7.8-6.1,13.5-10.9,17.1
					c-4.7,3.6-10.7,5.4-17.9,5.4c-8.2,0-15.1-2-20.7-6c-5.5-4-9.4-9.3-11.7-15.9c-2.2-6.7-3.4-13.5-3.4-20.6c0-9.1,1.3-17.1,4-23.9
					c2.7-6.8,6.8-11.9,12.4-15.3c5.6-3.4,11.7-5,18.3-5c8,0,14.7,2.3,20.2,6.9C-1223.7,96.4-1220,103.2-1218,112.2z"/>
			</g>
			<g>
				<path id="ArialMT-4f" class="st1" d="M-1190.6,126.9c0,17.8,4.8,31.8,14.3,41.9c9.6,10.1,21.9,15.1,37.1,15.1
					c9.9,0,18.9-2.4,26.8-7.1c8-4.7,14-11.3,18.2-19.8c4.2-8.5,6.3-18.1,6.3-28.8c0-10.9-2.2-20.6-6.6-29.2
					c-4.4-8.6-10.6-15.1-18.7-19.5c-8-4.4-16.7-6.6-26.1-6.6c-10.1,0-19.1,2.4-27.1,7.3c-8,4.9-14,11.6-18.1,20
					C-1188.6,108.5-1190.6,117.5-1190.6,126.9z M-1176,126.7c0-12.9,3.5-23.1,10.4-30.6c7-7.4,15.7-11.2,26.2-11.2
					c10.7,0,19.5,3.8,26.4,11.3c6.9,7.5,10.4,18.2,10.4,32c0,8.7-1.5,16.4-4.4,22.9s-7.3,11.6-13,15.2c-5.7,3.6-12.1,5.4-19.1,5.4
					c-10,0-18.7-3.5-26-10.4C-1172.4,154.4-1176,142.8-1176,126.7z"/>
			</g>
		</g>
	</g>
	<g id="patch_14">
		<path class="st20" d="M163.6,183.3h90v-31.5h-90V183.3z"/>
	</g>
	<g id="text_15">
		<g transform="translate(681.461364 184.466175)scale(0.3 -0.3)">
			<g>
				<path id="ArialMT-43_5_" class="st1" d="M-1218,41.5l14.2-3.6c-3-11.7-8.3-20.6-16.1-26.7s-17.2-9.2-28.4-9.2
					c-11.6,0-21,2.4-28.2,7.1c-7.2,4.7-12.8,11.5-16.5,20.5s-5.7,18.5-5.7,28.8c0,11.2,2.1,20.9,6.4,29.3c4.3,8.3,10.4,14.6,18.2,19
					c7.9,4.3,16.6,6.5,26,6.5c10.8,0,19.8-2.7,27.1-8.2c7.3-5.5,12.4-13.2,15.3-23.1l-14-3.3c-2.5,7.8-6.1,13.5-10.9,17.1
					c-4.7,3.6-10.7,5.4-17.9,5.4c-8.2,0-15.1-2-20.7-6c-5.5-4-9.4-9.3-11.7-15.9c-2.2-6.7-3.4-13.5-3.4-20.6c0-9.1,1.3-17.1,4-23.9
					s6.8-11.9,12.4-15.3c5.6-3.4,11.7-5,18.3-5c8,0,14.7,2.3,20.2,6.9C-1223.7,25.7-1220,32.5-1218,41.5z"/>
			</g>
			<g>
				<path id="ArialMT-44" class="st1" d="M-1186.3,3.9v107.4h37c8.3,0,14.7-0.5,19.1-1.5c6.1-1.4,11.4-4,15.7-7.7
					c5.7-4.8,9.9-10.9,12.7-18.4c2.8-7.4,4.2-15.9,4.2-25.5c0-8.2-1-15.4-2.9-21.7c-1.9-6.3-4.3-11.5-7.3-15.7
					c-3-4.1-6.2-7.4-9.8-9.8c-3.5-2.4-7.8-4.1-12.8-5.4s-10.8-1.8-17.2-1.8H-1186.3z M-1172.1,16.5h22.9c7.1,0,12.6,0.7,16.7,2
					s7.2,3.2,9.6,5.6c3.4,3.4,6,7.9,7.9,13.6s2.8,12.6,2.8,20.7c0,11.2-1.8,19.9-5.5,25.9c-3.7,6-8.2,10.1-13.4,12.1
					c-3.8,1.5-9.9,2.2-18.4,2.2h-22.6V16.5z"/>
			</g>
		</g>
	</g>
</g>
<g id="patch_15">
	<path class="st0" d="M876.2,957.1h613.6V93.6H876.2V957.1z"/>
</g>
<g id="matplotlib.axis_3">
	<g id="xtick_5">
		<g id="text_16">
			<g transform="translate(892.959323 994.85605)scale(0.4 -0.4)">
				<g>
					<path id="ArialMT-31_1_" class="st1" d="M37.2,0h-8.8v56c-2.1-2-4.9-4-8.3-6s-6.5-3.5-9.3-4.5v8.5c4.9,2.3,9.2,5.1,12.9,8.4
						c3.7,3.3,6.3,6.5,7.8,9.6h5.7V0z"/>
				</g>
			</g>
		</g>
	</g>
	<g id="xtick_6">
		<g id="text_17">
			<g transform="translate(1032.422133 994.85605)scale(0.4 -0.4)">
				<g>
					<path id="ArialMT-32_1_" class="st1" d="M50.3,8.5V0H3C3,2.1,3.3,4.2,4,6.1c1.2,3.2,3.1,6.4,5.8,9.5c2.7,3.1,6.5,6.7,11.5,10.8
						c7.8,6.4,13,11.4,15.8,15.2c2.7,3.7,4.1,7.3,4.1,10.6c0,3.5-1.2,6.4-3.8,8.8c-2.5,2.4-5.7,3.6-9.7,3.6c-4.2,0-7.6-1.3-10.2-3.8
						c-2.5-2.5-3.8-6-3.9-10.5l-9,0.9c0.6,6.7,2.9,11.9,7,15.4c4,3.5,9.5,5.3,16.3,5.3c6.9,0,12.3-1.9,16.3-5.7c4-3.8,6-8.5,6-14.2
						c0-2.9-0.6-5.7-1.8-8.5c-1.2-2.8-3.1-5.7-5.8-8.7s-7.2-7.3-13.5-12.6c-5.3-4.4-8.7-7.4-10.2-9c-1.5-1.6-2.7-3.2-3.7-4.8H50.3z"
						/>
				</g>
			</g>
		</g>
	</g>
	<g id="xtick_7">
		<g id="text_18">
			<g transform="translate(1171.884943 994.85605)scale(0.4 -0.4)">
				<g>
					<path id="ArialMT-33" class="st1" d="M4.2,18.9l8.8,1.2c1-5,2.7-8.6,5.2-10.8S23.5,6,27,6c4.1,0,7.6,1.4,10.5,4.3
						c2.9,2.9,4.3,6.4,4.3,10.7c0,4-1.3,7.4-4,10c-2.6,2.6-6,3.9-10.1,3.9c-1.7,0-3.7-0.3-6.2-1l1,7.7c0.6-0.1,1.1-0.1,1.4-0.1
						c3.8,0,7.1,1,10.1,2.9c3,2,4.5,5,4.5,9c0,3.2-1.1,5.9-3.3,8c-2.2,2.1-5,3.2-8.4,3.2c-3.4,0-6.3-1.1-8.5-3.2
						c-2.3-2.1-3.7-5.4-4.4-9.7l-8.8,1.6c1.1,5.9,3.5,10.4,7.3,13.7c3.8,3.2,8.6,4.9,14.2,4.9c3.9,0,7.5-0.8,10.8-2.5
						c3.3-1.7,5.8-4,7.5-6.9c1.8-2.9,2.6-6,2.6-9.2c0-3.1-0.8-5.9-2.5-8.4c-1.7-2.5-4.1-4.6-7.4-6.1c4.2-1,7.5-3,9.9-6.1
						c2.3-3.1,3.5-6.9,3.5-11.5c0-6.2-2.3-11.5-6.8-15.9C39.7,0.9,33.9-1.3,27-1.3c-6.3,0-11.5,1.9-15.7,5.6
						C7.2,8.1,4.8,12.9,4.2,18.9z"/>
				</g>
			</g>
		</g>
	</g>
	<g id="xtick_8">
		<g id="text_19">
			<g transform="translate(1311.347753 994.85605)scale(0.4 -0.4)">
				<g>
					<path id="ArialMT-34_1_" class="st1" d="M32.3,0v17.1H1.3v8.1l32.7,46.4h7.2V25.2h9.7v-8.1h-9.7V0H32.3z M32.3,25.2v32.3
						L9.9,25.2H32.3z"/>
				</g>
			</g>
		</g>
	</g>
	<g id="xtick_9">
		<g id="text_20">
			<g transform="translate(1450.810563 994.85605)scale(0.4 -0.4)">
				<g>
					<path id="ArialMT-35" class="st1" d="M4.2,18.8l9.2,0.8c0.7-4.5,2.3-7.9,4.8-10.1c2.5-2.3,5.5-3.4,9-3.4
						c4.2,0,7.8,1.6,10.7,4.8c2.9,3.2,4.4,7.4,4.4,12.7c0,5-1.4,9-4.2,11.9c-2.8,2.9-6.5,4.4-11.1,4.4c-2.8,0-5.4-0.6-7.7-1.9
						c-2.3-1.3-4.1-2.9-5.4-5l-8.2,1.1l6.9,36.8h35.6v-8.4H19.7L15.8,43c4.3,3,8.8,4.5,13.5,4.5c6.2,0,11.5-2.2,15.8-6.5
						c4.3-4.3,6.5-9.9,6.5-16.7c0-6.5-1.9-12.1-5.7-16.8c-4.6-5.8-10.9-8.7-18.8-8.7c-6.5,0-11.8,1.8-16,5.5
						C7.1,7.9,4.7,12.7,4.2,18.8z"/>
				</g>
			</g>
		</g>
	</g>
	<g id="text_21">
		<g transform="translate(1116.737287 1039.016206)scale(0.45 -0.45)">
			<g>
				<path id="ArialMT-42" class="st1" d="M7.3,0v71.6h26.9c5.5,0,9.9-0.7,13.2-2.2c3.3-1.4,5.9-3.7,7.8-6.7c1.9-3,2.8-6.2,2.8-9.5
					c0-3.1-0.8-5.9-2.5-8.6c-1.7-2.7-4.2-4.9-7.5-6.5c4.3-1.3,7.6-3.4,10-6.5c2.3-3.1,3.5-6.7,3.5-10.8c0-3.4-0.7-6.5-2.1-9.4
					c-1.4-2.9-3.2-5.1-5.2-6.7S49.3,2,46.2,1.2C43,0.4,39.2,0,34.6,0H7.3z M16.8,41.5h15.5c4.2,0,7.2,0.3,9,0.8
					c2.4,0.7,4.2,1.9,5.4,3.6c1.2,1.7,1.8,3.8,1.8,6.3c0,2.4-0.6,4.5-1.7,6.3c-1.1,1.8-2.8,3.1-4.9,3.7c-2.1,0.7-5.7,1-10.9,1H16.8
					V41.5z M16.8,8.5h17.8c3.1,0,5.2,0.1,6.4,0.3c2.2,0.4,4,1,5.5,1.9c1.5,0.9,2.7,2.2,3.6,4c0.9,1.7,1.4,3.7,1.4,6c0,2.7-0.7,5-2,7
					c-1.4,2-3.3,3.4-5.7,4.2c-2.4,0.8-5.9,1.2-10.5,1.2H16.8V8.5z"/>
			</g>
			<g>
				<path id="ArialMT-6c_7_" class="st1" d="M73.1,0v71.6h8.8V0H73.1z"/>
			</g>
			<g>
				<path id="ArialMT-6f_14_" class="st1" d="M92.2,25.9c0,9.6,2.7,16.7,8,21.3c4.5,3.8,9.9,5.8,16.3,5.8c7.1,0,12.9-2.3,17.5-7
					c4.5-4.7,6.8-11.1,6.8-19.4c0-6.7-1-11.9-3-15.7c-2-3.8-4.9-6.8-8.8-8.9c-3.8-2.1-8-3.2-12.5-3.2c-7.3,0-13.1,2.3-17.6,7
					C94.5,10.5,92.2,17.2,92.2,25.9z M101.3,25.9c0-6.6,1.4-11.6,4.3-14.9c2.9-3.3,6.5-5,10.9-5c4.4,0,8,1.7,10.9,5
					c2.9,3.3,4.3,8.4,4.3,15.2c0,6.4-1.5,11.3-4.4,14.6c-2.9,3.3-6.5,5-10.9,5c-4.4,0-8-1.6-10.9-4.9
					C102.7,37.5,101.3,32.6,101.3,25.9z"/>
			</g>
			<g>
				<path id="ArialMT-63_9_" class="st1" d="M185,19l8.6-1.1c-0.9-6-3.4-10.6-7.3-14c-3.9-3.4-8.7-5-14.3-5c-7.1,0-12.8,2.3-17.1,7
					c-4.3,4.6-6.5,11.3-6.5,20c0,5.6,0.9,10.5,2.8,14.7c1.9,4.2,4.7,7.4,8.5,9.5c3.8,2.1,7.9,3.2,12.4,3.2c5.6,0,10.2-1.4,13.8-4.3
					c3.6-2.8,5.9-6.9,6.9-12.1l-8.5-1.3c-0.8,3.5-2.3,6.1-4.3,7.9c-2.1,1.8-4.6,2.6-7.5,2.6c-4.4,0-8-1.6-10.8-4.8
					c-2.8-3.2-4.1-8.2-4.1-15c0-7,1.3-12,4-15.2c2.7-3.2,6.2-4.7,10.5-4.7c3.4,0,6.3,1.1,8.6,3.2S184.3,14.6,185,19z"/>
			</g>
			<g>
				<path id="ArialMT-6b" class="st1" d="M201.2,0v71.6h8.8V30.8l20.8,21.1h11.4l-19.8-19.2L244.1,0h-10.8l-17.1,26.5l-6.2-6V0
					H201.2z"/>
			</g>
			<g>
				<path id="ArialMT-73" class="st1" d="M247.6,15.5l8.7,1.4c0.5-3.5,1.8-6.1,4.1-8c2.2-1.9,5.3-2.8,9.4-2.8c4,0,7,0.8,9,2.5
					c2,1.6,2.9,3.6,2.9,5.8c0,2-0.9,3.5-2.6,4.7c-1.2,0.8-4.2,1.8-9,3c-6.4,1.6-10.9,3-13.4,4.2c-2.5,1.2-4.4,2.8-5.7,4.9
					c-1.3,2.1-1.9,4.4-1.9,7c0,2.3,0.5,4.4,1.6,6.4c1.1,2,2.5,3.6,4.3,4.9c1.4,1,3.2,1.8,5.6,2.5c2.4,0.7,4.9,1.1,7.6,1.1
					c4.1,0,7.6-0.6,10.7-1.8c3.1-1.2,5.4-2.8,6.8-4.8c1.5-2,2.5-4.7,3-8l-8.6-1.2c-0.4,2.7-1.5,4.7-3.4,6.2
					c-1.9,1.5-4.5,2.2-7.9,2.2c-4,0-6.9-0.7-8.6-2c-1.7-1.3-2.6-2.9-2.6-4.7c0-1.1,0.4-2.2,1.1-3.1c0.7-0.9,1.8-1.7,3.4-2.3
					c0.9-0.3,3.5-1.1,7.8-2.2c6.2-1.7,10.6-3,13-4.1c2.5-1.1,4.4-2.6,5.8-4.6c1.4-2,2.1-4.5,2.1-7.5c0-2.9-0.9-5.7-2.6-8.3
					c-1.7-2.6-4.2-4.6-7.4-6c-3.2-1.4-6.9-2.1-10.9-2.1c-6.7,0-11.9,1.4-15.4,4.2S248.6,10,247.6,15.5z"/>
			</g>
		</g>
	</g>
</g>
<g id="matplotlib.axis_4">
	<g id="ytick_7">
		<g id="text_22">
			<g transform="translate(800.357386 864.404519)scale(0.4 -0.4)">
				<g>
					<path id="ArialMT-37" class="st1" d="M4.7,62.2v8.5h46.3v-6.8C46.5,59,42,52.5,37.5,44.5c-4.5-8-7.9-16.3-10.4-24.8
						c-1.8-6-2.9-12.5-3.4-19.7h-9c0.1,5.6,1.2,12.4,3.3,20.4c2.1,8,5.2,15.7,9.1,23.1s8.2,13.6,12.6,18.7H4.7z"/>
				</g>
				<g>
					<path id="ArialMT-30_8_" class="st1" d="M59.8,35.3c0,8.5,0.9,15.3,2.6,20.4c1.7,5.2,4.3,9.1,7.8,11.9c3.4,2.8,7.8,4.2,13,4.2
						c3.8,0,7.2-0.8,10.1-2.3c2.9-1.5,5.3-3.8,7.2-6.7c1.9-2.9,3.4-6.5,4.5-10.6c1.1-4.2,1.6-9.8,1.6-16.9c0-8.4-0.9-15.2-2.6-20.3
						c-1.7-5.2-4.3-9.1-7.7-12c-3.4-2.8-7.8-4.2-13-4.2c-6.9,0-12.3,2.5-16.2,7.4C62.1,12.2,59.8,21.9,59.8,35.3z M68.8,35.3
						c0-11.8,1.4-19.6,4.1-23.5C75.7,7.9,79.1,6,83.1,6c4,0,7.4,2,10.2,5.9s4.1,11.7,4.1,23.4c0,11.8-1.4,19.6-4.1,23.5
						c-2.8,3.9-6.2,5.8-10.3,5.8c-4,0-7.3-1.7-9.7-5.1C70.3,55.1,68.8,47.1,68.8,35.3z"/>
				</g>
				<g>
					<path id="ArialMT-30_9_" class="st1" d="M115.4,35.3c0,8.5,0.9,15.3,2.6,20.4c1.7,5.2,4.3,9.1,7.8,11.9c3.4,2.8,7.8,4.2,13,4.2
						c3.8,0,7.2-0.8,10.1-2.3c2.9-1.5,5.3-3.8,7.2-6.7c1.9-2.9,3.4-6.5,4.5-10.6c1.1-4.2,1.6-9.8,1.6-16.9c0-8.4-0.9-15.2-2.6-20.3
						c-1.7-5.2-4.3-9.1-7.7-12c-3.4-2.8-7.8-4.2-13-4.2c-6.9,0-12.3,2.5-16.2,7.4C117.7,12.2,115.4,21.9,115.4,35.3z M124.4,35.3
						c0-11.8,1.4-19.6,4.1-23.5c2.8-3.9,6.1-5.8,10.2-5.8c4,0,7.4,2,10.2,5.9s4.1,11.7,4.1,23.4c0,11.8-1.4,19.6-4.1,23.5
						c-2.8,3.9-6.2,5.8-10.3,5.8c-4,0-7.3-1.7-9.7-5.1C125.9,55.1,124.4,47.1,124.4,35.3z"/>
				</g>
			</g>
		</g>
	</g>
	<g id="ytick_8">
		<g id="text_23">
			<g transform="translate(800.357386 727.857107)scale(0.4 -0.4)">
				<g>
					<path id="ArialMT-37_1_" class="st1" d="M4.7,62.2v8.5h46.3v-6.8C46.5,59,42,52.5,37.5,44.5c-4.5-8-7.9-16.3-10.4-24.8
						c-1.8-6-2.9-12.5-3.4-19.7h-9c0.1,5.6,1.2,12.4,3.3,20.4c2.1,8,5.2,15.7,9.1,23.1s8.2,13.6,12.6,18.7H4.7z"/>
				</g>
				<g>
					<path id="ArialMT-35_1_" class="st1" d="M59.8,18.8l9.2,0.8c0.7-4.5,2.3-7.9,4.8-10.1c2.5-2.3,5.5-3.4,9-3.4
						c4.2,0,7.8,1.6,10.7,4.8c2.9,3.2,4.4,7.4,4.4,12.7c0,5-1.4,9-4.2,11.9c-2.8,2.9-6.5,4.4-11.1,4.4c-2.8,0-5.4-0.6-7.7-1.9
						c-2.3-1.3-4.1-2.9-5.4-5l-8.2,1.1l6.9,36.8h35.6v-8.4H75.3L71.4,43c4.3,3,8.8,4.5,13.5,4.5c6.2,0,11.5-2.2,15.8-6.5
						c4.3-4.3,6.5-9.9,6.5-16.7c0-6.5-1.9-12.1-5.7-16.8C97,1.7,90.7-1.2,82.8-1.2c-6.5,0-11.8,1.8-16,5.5
						C62.7,7.9,60.4,12.7,59.8,18.8z"/>
				</g>
				<g>
					<path id="ArialMT-30_10_" class="st1" d="M115.4,35.3c0,8.5,0.9,15.3,2.6,20.4c1.7,5.2,4.3,9.1,7.8,11.9
						c3.4,2.8,7.8,4.2,13,4.2c3.8,0,7.2-0.8,10.1-2.3c2.9-1.5,5.3-3.8,7.2-6.7c1.9-2.9,3.4-6.5,4.5-10.6c1.1-4.2,1.6-9.8,1.6-16.9
						c0-8.4-0.9-15.2-2.6-20.3c-1.7-5.2-4.3-9.1-7.7-12c-3.4-2.8-7.8-4.2-13-4.2c-6.9,0-12.3,2.5-16.2,7.4
						C117.7,12.2,115.4,21.9,115.4,35.3z M124.4,35.3c0-11.7,1.4-19.6,4.1-23.5c2.8-3.9,6.1-5.8,10.2-5.8c4,0,7.4,2,10.2,5.9
						s4.1,11.7,4.1,23.4c0,11.8-1.4,19.6-4.1,23.5c-2.8,3.9-6.2,5.8-10.3,5.8c-4,0-7.3-1.7-9.7-5.1
						C125.9,55.1,124.4,47.1,124.4,35.3z"/>
				</g>
			</g>
		</g>
	</g>
	<g id="ytick_9">
		<g id="text_24">
			<g transform="translate(800.357386 591.309694)scale(0.4 -0.4)">
				<g>
					<path id="ArialMT-38_1_" class="st1" d="M17.7,38.8c-3.6,1.3-6.3,3.2-8.1,5.7C7.8,47,6.9,50,6.9,53.4c0,5.2,1.9,9.6,5.6,13.1
						c3.8,3.6,8.7,5.3,14.9,5.3c6.2,0,11.3-1.8,15.1-5.5c3.8-3.6,5.7-8,5.7-13.2c0-3.3-0.9-6.2-2.6-8.7c-1.7-2.4-4.4-4.3-7.9-5.7
						c4.4-1.4,7.7-3.7,10-6.9c2.3-3.2,3.4-7,3.4-11.4c0-6.1-2.2-11.3-6.5-15.4c-4.3-4.2-10-6.2-17.1-6.2S14.9,0.9,10.5,5
						C6.2,9.2,4,14.5,4,20.7c0,4.7,1.2,8.6,3.5,11.7C10,35.5,13.3,37.7,17.7,38.8z M15.9,53.7c0-3.4,1.1-6.2,3.3-8.3
						c2.2-2.1,5-3.2,8.5-3.2c3.4,0,6.2,1.1,8.3,3.2c2.2,2.1,3.2,4.8,3.2,7.8c0,3.2-1.1,5.9-3.4,8.1c-2.2,2.2-5,3.3-8.3,3.3
						c-3.4,0-6.1-1.1-8.4-3.2C17,59.3,15.9,56.7,15.9,53.7z M13.1,20.7c0-2.5,0.6-4.9,1.8-7.3s3-4.2,5.3-5.5C22.5,6.6,25,6,27.7,6
						c4.2,0,7.7,1.3,10.4,4c2.7,2.7,4.1,6.1,4.1,10.3c0,4.2-1.4,7.7-4.2,10.5S31.7,35,27.4,35c-4.1,0-7.6-1.4-10.3-4.1
						C14.4,28.2,13.1,24.8,13.1,20.7z"/>
				</g>
				<g>
					<path id="ArialMT-30_11_" class="st1" d="M59.8,35.3c0,8.5,0.9,15.3,2.6,20.4c1.7,5.2,4.3,9.1,7.8,11.9c3.4,2.8,7.8,4.2,13,4.2
						c3.8,0,7.2-0.8,10.1-2.3c2.9-1.5,5.3-3.8,7.2-6.7c1.9-2.9,3.4-6.5,4.5-10.6c1.1-4.2,1.6-9.8,1.6-16.9c0-8.4-0.9-15.2-2.6-20.3
						c-1.7-5.2-4.3-9.1-7.7-12c-3.4-2.8-7.8-4.2-13-4.2c-6.9,0-12.3,2.5-16.2,7.4C62.1,12.2,59.8,21.9,59.8,35.3z M68.8,35.3
						c0-11.8,1.4-19.6,4.1-23.5C75.7,7.9,79.1,6,83.1,6c4,0,7.4,2,10.2,5.9s4.1,11.7,4.1,23.4c0,11.8-1.4,19.6-4.1,23.5
						c-2.8,3.9-6.2,5.8-10.3,5.8c-4,0-7.3-1.7-9.7-5.1C70.3,55.1,68.8,47.1,68.8,35.3z"/>
				</g>
				<g>
					<path id="ArialMT-30_12_" class="st1" d="M115.4,35.3c0,8.5,0.9,15.3,2.6,20.4c1.7,5.2,4.3,9.1,7.8,11.9
						c3.4,2.8,7.8,4.2,13,4.2c3.8,0,7.2-0.8,10.1-2.3c2.9-1.5,5.3-3.8,7.2-6.7c1.9-2.9,3.4-6.5,4.5-10.6c1.1-4.2,1.6-9.8,1.6-16.9
						c0-8.4-0.9-15.2-2.6-20.3c-1.7-5.2-4.3-9.1-7.7-12c-3.4-2.8-7.8-4.2-13-4.2c-6.9,0-12.3,2.5-16.2,7.4
						C117.7,12.2,115.4,21.9,115.4,35.3z M124.4,35.3c0-11.8,1.4-19.6,4.1-23.5c2.8-3.9,6.1-5.8,10.2-5.8c4,0,7.4,2,10.2,5.9
						s4.1,11.7,4.1,23.4c0,11.8-1.4,19.6-4.1,23.5c-2.8,3.9-6.2,5.8-10.3,5.8c-4,0-7.3-1.7-9.7-5.1
						C125.9,55.1,124.4,47.1,124.4,35.3z"/>
				</g>
			</g>
		</g>
	</g>
	<g id="ytick_10">
		<g id="text_25">
			<g transform="translate(800.357386 454.762281)scale(0.4 -0.4)">
				<g>
					<path id="ArialMT-38_2_" class="st1" d="M17.7,38.8c-3.6,1.3-6.3,3.2-8.1,5.7C7.8,47,6.9,50,6.9,53.4c0,5.2,1.9,9.6,5.6,13.1
						c3.8,3.6,8.7,5.3,14.9,5.3c6.2,0,11.3-1.8,15.1-5.5c3.8-3.6,5.7-8,5.7-13.2c0-3.3-0.9-6.2-2.6-8.7c-1.7-2.4-4.4-4.3-7.9-5.7
						c4.4-1.4,7.7-3.7,10-6.9c2.3-3.2,3.4-7,3.4-11.4c0-6.1-2.2-11.3-6.5-15.4c-4.3-4.2-10-6.2-17.1-6.2S14.9,0.9,10.5,5
						C6.2,9.2,4,14.5,4,20.7c0,4.7,1.2,8.6,3.5,11.7C10,35.5,13.3,37.7,17.7,38.8z M15.9,53.7c0-3.4,1.1-6.2,3.3-8.3
						c2.2-2.1,5-3.2,8.5-3.2c3.4,0,6.2,1.1,8.3,3.2c2.2,2.1,3.2,4.8,3.2,7.8c0,3.2-1.1,5.9-3.4,8.1c-2.2,2.2-5,3.3-8.3,3.3
						c-3.4,0-6.1-1.1-8.4-3.2C17,59.3,15.9,56.7,15.9,53.7z M13.1,20.7c0-2.5,0.6-4.9,1.8-7.3s3-4.2,5.3-5.5C22.5,6.6,25,6,27.7,6
						c4.2,0,7.7,1.3,10.4,4c2.7,2.7,4.1,6.1,4.1,10.3c0,4.2-1.4,7.7-4.2,10.5S31.7,35,27.4,35c-4.1,0-7.6-1.4-10.3-4.1
						C14.4,28.2,13.1,24.8,13.1,20.7z"/>
				</g>
				<g>
					<path id="ArialMT-35_2_" class="st1" d="M59.8,18.8l9.2,0.8c0.7-4.5,2.3-7.9,4.8-10.1c2.5-2.3,5.5-3.4,9-3.4
						c4.2,0,7.8,1.6,10.7,4.8c2.9,3.2,4.4,7.4,4.4,12.7c0,5-1.4,9-4.2,11.9c-2.8,2.9-6.5,4.4-11.1,4.4c-2.8,0-5.4-0.6-7.7-1.9
						c-2.3-1.3-4.1-2.9-5.4-5l-8.2,1.1l6.9,36.8h35.6v-8.4H75.3L71.4,43c4.3,3,8.8,4.5,13.5,4.5c6.2,0,11.5-2.2,15.8-6.5
						c4.3-4.3,6.5-9.9,6.5-16.7c0-6.5-1.9-12.1-5.7-16.8C97,1.7,90.7-1.2,82.8-1.2c-6.5,0-11.8,1.8-16,5.5
						C62.7,7.9,60.4,12.7,59.8,18.8z"/>
				</g>
				<g>
					<path id="ArialMT-30_13_" class="st1" d="M115.4,35.3c0,8.5,0.9,15.3,2.6,20.4c1.7,5.2,4.3,9.1,7.8,11.9
						c3.4,2.8,7.8,4.2,13,4.2c3.8,0,7.2-0.8,10.1-2.3c2.9-1.5,5.3-3.8,7.2-6.7c1.9-2.9,3.4-6.5,4.5-10.6c1.1-4.2,1.6-9.8,1.6-16.9
						c0-8.4-0.9-15.2-2.6-20.3c-1.7-5.2-4.3-9.1-7.7-12c-3.4-2.8-7.8-4.2-13-4.2c-6.9,0-12.3,2.5-16.2,7.4
						C117.7,12.2,115.4,21.9,115.4,35.3z M124.4,35.3c0-11.8,1.4-19.6,4.1-23.5c2.8-3.9,6.1-5.8,10.2-5.8c4,0,7.4,2,10.2,5.9
						s4.1,11.7,4.1,23.4c0,11.8-1.4,19.6-4.1,23.5c-2.8,3.9-6.2,5.8-10.3,5.8c-4,0-7.3-1.7-9.7-5.1
						C125.9,55.1,124.4,47.1,124.4,35.3z"/>
				</g>
			</g>
		</g>
	</g>
	<g id="ytick_11">
		<g id="text_26">
			<g transform="translate(800.357386 318.214869)scale(0.4 -0.4)">
				<g>
					<path id="ArialMT-39_5_" class="st1" d="M5.5,16.5l8.5,0.8c0.7-4,2.1-6.8,4.1-8.6S22.6,6,25.8,6c2.7,0,5.1,0.6,7.1,1.9
						c2,1.2,3.7,2.9,5,5c1.3,2.1,2.4,4.9,3.3,8.4c0.9,3.5,1.3,7.1,1.3,10.8c0,0.4,0,1,0,1.8c-1.8-2.8-4.2-5.1-7.2-6.8
						c-3-1.7-6.3-2.6-9.9-2.6c-5.9,0-10.9,2.1-15,6.4c-4.1,4.3-6.1,10-6.1,17c0,7.3,2.1,13.1,6.4,17.5s9.6,6.6,16.1,6.6
						c4.7,0,8.9-1.3,12.8-3.8c3.9-2.5,6.8-6.1,8.8-10.7c2-4.6,3-11.3,3-20.1c0-9.1-1-16.4-3-21.8c-2-5.4-4.9-9.5-8.9-12.4
						c-3.9-2.8-8.5-4.2-13.8-4.2c-5.6,0-10.2,1.6-13.7,4.7C8.3,6.6,6.2,10.9,5.5,16.5z M41.5,48.1c0,5.1-1.3,9.1-4,12
						c-2.7,3-5.9,4.4-9.7,4.4c-3.9,0-7.3-1.6-10.2-4.8s-4.3-7.3-4.3-12.4c0-4.6,1.4-8.3,4.1-11.1c2.8-2.8,6.1-4.3,10.2-4.3
						c4.1,0,7.4,1.4,10,4.3C40.1,39.2,41.5,43.1,41.5,48.1z"/>
				</g>
				<g>
					<path id="ArialMT-30_14_" class="st1" d="M59.8,35.3c0,8.5,0.9,15.3,2.6,20.4c1.7,5.2,4.3,9.1,7.8,11.9c3.4,2.8,7.8,4.2,13,4.2
						c3.8,0,7.2-0.8,10.1-2.3c2.9-1.5,5.3-3.8,7.2-6.7c1.9-2.9,3.4-6.5,4.5-10.6c1.1-4.2,1.6-9.8,1.6-16.9c0-8.4-0.9-15.2-2.6-20.3
						c-1.7-5.2-4.3-9.1-7.7-12c-3.4-2.8-7.8-4.2-13-4.2c-6.9,0-12.3,2.5-16.2,7.4C62.1,12.2,59.8,21.9,59.8,35.3z M68.8,35.3
						c0-11.8,1.4-19.6,4.1-23.5C75.7,7.9,79.1,6,83.1,6c4,0,7.4,2,10.2,5.9s4.1,11.7,4.1,23.4c0,11.8-1.4,19.6-4.1,23.5
						c-2.8,3.9-6.2,5.8-10.3,5.8c-4,0-7.3-1.7-9.7-5.1C70.3,55.1,68.8,47.1,68.8,35.3z"/>
				</g>
				<g>
					<path id="ArialMT-30_15_" class="st1" d="M115.4,35.3c0,8.5,0.9,15.3,2.6,20.4c1.7,5.2,4.3,9.1,7.8,11.9
						c3.4,2.8,7.8,4.2,13,4.2c3.8,0,7.2-0.8,10.1-2.3c2.9-1.5,5.3-3.8,7.2-6.7c1.9-2.9,3.4-6.5,4.5-10.6c1.1-4.2,1.6-9.8,1.6-16.9
						c0-8.4-0.9-15.2-2.6-20.3c-1.7-5.2-4.3-9.1-7.7-12c-3.4-2.8-7.8-4.2-13-4.2c-6.9,0-12.3,2.5-16.2,7.4
						C117.7,12.2,115.4,21.9,115.4,35.3z M124.4,35.3c0-11.8,1.4-19.6,4.1-23.5c2.8-3.9,6.1-5.8,10.2-5.8c4,0,7.4,2,10.2,5.9
						s4.1,11.7,4.1,23.4c0,11.8-1.4,19.6-4.1,23.5c-2.8,3.9-6.2,5.8-10.3,5.8c-4,0-7.3-1.7-9.7-5.1
						C125.9,55.1,124.4,47.1,124.4,35.3z"/>
				</g>
			</g>
		</g>
	</g>
	<g id="ytick_12">
		<g id="text_27">
			<g transform="translate(800.357386 181.667456)scale(0.4 -0.4)">
				<g>
					<path id="ArialMT-39_6_" class="st1" d="M5.5,16.5l8.5,0.8c0.7-4,2.1-6.8,4.1-8.6S22.6,6,25.8,6c2.7,0,5.1,0.6,7.1,1.9
						c2,1.2,3.7,2.9,5,5c1.3,2.1,2.4,4.9,3.3,8.4c0.9,3.5,1.3,7.1,1.3,10.8c0,0.4,0,1,0,1.8c-1.8-2.8-4.2-5.1-7.2-6.8
						c-3-1.7-6.3-2.6-9.9-2.6c-5.9,0-10.9,2.1-15,6.4c-4.1,4.3-6.1,10-6.1,17c0,7.3,2.1,13.1,6.4,17.5s9.6,6.6,16.1,6.6
						c4.7,0,8.9-1.3,12.8-3.8c3.9-2.5,6.8-6.1,8.8-10.7c2-4.6,3-11.3,3-20.1c0-9.1-1-16.4-3-21.8c-2-5.4-4.9-9.5-8.9-12.4
						c-3.9-2.8-8.5-4.2-13.8-4.2c-5.6,0-10.2,1.6-13.7,4.7C8.3,6.6,6.2,10.9,5.5,16.5z M41.5,48.1c0,5.1-1.3,9.1-4,12
						c-2.7,3-5.9,4.4-9.7,4.4c-3.9,0-7.3-1.6-10.2-4.8s-4.3-7.3-4.3-12.4c0-4.6,1.4-8.3,4.1-11.1c2.8-2.8,6.1-4.3,10.2-4.3
						c4.1,0,7.4,1.4,10,4.3C40.1,39.2,41.5,43.1,41.5,48.1z"/>
				</g>
				<g>
					<path id="ArialMT-35_3_" class="st1" d="M59.8,18.8l9.2,0.8c0.7-4.5,2.3-7.9,4.8-10.1c2.5-2.3,5.5-3.4,9-3.4
						c4.2,0,7.8,1.6,10.7,4.8c2.9,3.2,4.4,7.4,4.4,12.7c0,5-1.4,9-4.2,11.9c-2.8,2.9-6.5,4.4-11.1,4.4c-2.8,0-5.4-0.6-7.7-1.9
						c-2.3-1.3-4.1-2.9-5.4-5l-8.2,1.1l6.9,36.8h35.6v-8.4H75.3L71.4,43c4.3,3,8.8,4.5,13.5,4.5c6.2,0,11.5-2.2,15.8-6.5
						c4.3-4.3,6.5-9.9,6.5-16.7c0-6.5-1.9-12.1-5.7-16.8C97,1.7,90.7-1.2,82.8-1.2c-6.5,0-11.8,1.8-16,5.5
						C62.7,7.9,60.4,12.7,59.8,18.8z"/>
				</g>
				<g>
					<path id="ArialMT-30_16_" class="st1" d="M115.4,35.3c0,8.5,0.9,15.3,2.6,20.4c1.7,5.2,4.3,9.1,7.8,11.9
						c3.4,2.8,7.8,4.2,13,4.2c3.8,0,7.2-0.8,10.1-2.3c2.9-1.5,5.3-3.8,7.2-6.7c1.9-2.9,3.4-6.5,4.5-10.6c1.1-4.2,1.6-9.8,1.6-16.9
						c0-8.4-0.9-15.2-2.6-20.3c-1.7-5.2-4.3-9.1-7.7-12c-3.4-2.8-7.8-4.2-13-4.2c-6.9,0-12.3,2.5-16.2,7.4
						C117.7,12.2,115.4,21.9,115.4,35.3z M124.4,35.3c0-11.8,1.4-19.6,4.1-23.5c2.8-3.9,6.1-5.8,10.2-5.8c4,0,7.4,2,10.2,5.9
						s4.1,11.7,4.1,23.4c0,11.8-1.4,19.6-4.1,23.5c-2.8,3.9-6.2,5.8-10.3,5.8c-4,0-7.3-1.7-9.7-5.1
						C125.9,55.1,124.4,47.1,124.4,35.3z"/>
				</g>
			</g>
		</g>
	</g>
	<g id="text_28">
		<g transform="translate(786.886293 668.300175)rotate(-90)scale(0.45 -0.45)">
			<g>
				<path id="ArialMT-4d" class="st1" d="M7.4,0v71.6h14.3l16.9-50.7c1.6-4.7,2.7-8.3,3.4-10.6c0.8,2.6,2.1,6.4,3.8,11.5L63,71.6
					h12.8V0h-9.1v59.9L45.8,0h-8.5L16.5,60.9V0H7.4z"/>
			</g>
			<g>
				<path id="ArialMT-65_5_" class="st1" d="M125.4,16.7l9.1-1.1c-1.4-5.3-4.1-9.4-8-12.4c-3.9-2.9-8.8-4.4-14.8-4.4
					c-7.6,0-13.6,2.3-18,7C89.2,10.5,87,17.1,87,25.5c0,8.7,2.2,15.5,6.7,20.3c4.5,4.8,10.3,7.2,17.5,7.2c6.9,0,12.6-2.4,17-7.1
					c4.4-4.7,6.6-11.4,6.6-19.9c0-0.5,0-1.3,0-2.3H96.1c0.3-5.7,1.9-10.1,4.8-13.1c2.9-3,6.5-4.5,10.8-4.5c3.2,0,6,0.8,8.2,2.5
					C122.3,10.3,124.1,13,125.4,16.7z M96.5,30.9h29c-0.4,4.4-1.5,7.6-3.3,9.8c-2.8,3.4-6.4,5.1-10.9,5.1c-4,0-7.4-1.3-10.2-4
					S96.8,35.4,96.5,30.9z"/>
			</g>
			<g>
				<path id="ArialMT-61_1_" class="st1" d="M179.4,6.4c-3.3-2.8-6.4-4.7-9.4-5.9c-3-1.1-6.2-1.7-9.7-1.7c-5.7,0-10.1,1.4-13.1,4.2
					s-4.6,6.3-4.6,10.7c0,2.5,0.6,4.9,1.7,7c1.2,2.1,2.7,3.8,4.5,5.1s4,2.2,6.3,2.9c1.7,0.5,4.3,0.9,7.8,1.3
					c7.1,0.8,12.3,1.8,15.7,3c0,1.2,0,2,0,2.3c0,3.6-0.8,6.1-2.5,7.6c-2.2,2-5.6,3-10,3c-4.1,0-7.2-0.7-9.2-2.2s-3.4-4-4.4-7.7
					l-8.6,1.2c0.8,3.7,2.1,6.6,3.9,8.9c1.8,2.3,4.4,4,7.8,5.2c3.4,1.2,7.3,1.8,11.8,1.8c4.4,0,8-0.5,10.8-1.6c2.8-1,4.8-2.4,6.1-3.9
					c1.3-1.6,2.2-3.6,2.7-6c0.3-1.5,0.4-4.2,0.4-8.1V21.7c0-8.2,0.2-13.3,0.6-15.5c0.4-2.2,1.1-4.2,2.2-6.2h-9.2
					C180.2,1.8,179.6,4,179.4,6.4z M178.6,26c-3.2-1.3-8-2.4-14.4-3.3c-3.6-0.5-6.2-1.1-7.7-1.8c-1.5-0.6-2.6-1.6-3.5-2.8
					c-0.8-1.2-1.2-2.6-1.2-4.2c0-2.3,0.9-4.3,2.7-5.9c1.8-1.6,4.4-2.3,7.8-2.3c3.4,0,6.4,0.7,9,2.2c2.6,1.5,4.6,3.5,5.8,6.1
					c0.9,2,1.4,4.9,1.4,8.8V26z"/>
			</g>
			<g>
				<path id="ArialMT-6e_4_" class="st1" d="M201.1,0v51.9h7.9v-7.4c3.8,5.7,9.3,8.5,16.5,8.5c3.1,0,6-0.6,8.6-1.7s4.6-2.6,5.9-4.4
					c1.3-1.8,2.2-4,2.7-6.5c0.3-1.6,0.5-4.5,0.5-8.5V0h-8.8v31.5c0,3.6-0.3,6.3-1,8c-0.7,1.8-1.9,3.2-3.6,4.2
					c-1.7,1.1-3.8,1.6-6.1,1.6c-3.8,0-7-1.2-9.7-3.6s-4.1-6.9-4.1-13.5V0H201.1z"/>
			</g>
			<g>
				<path id="ArialMT-20_8_" class="st1" d="M250.1,0"/>
			</g>
			<g>
				<path id="ArialMT-52_4_" class="st1" d="M285.8,0v71.6h31.7c6.4,0,11.2-0.6,14.5-1.9c3.3-1.3,6-3.6,8-6.8c2-3.2,3-6.8,3-10.8
					c0-5.1-1.6-9.4-4.9-12.8c-3.3-3.5-8.4-5.7-15.2-6.6c2.5-1.2,4.4-2.4,5.7-3.6c2.8-2.5,5.4-5.7,7.9-9.5L348.9,0H337l-9.5,14.9
					c-2.8,4.3-5.1,7.6-6.8,9.9c-1.8,2.3-3.4,3.9-4.8,4.8c-1.4,0.9-2.9,1.6-4.3,1.9c-1.1,0.2-2.8,0.3-5.3,0.3h-11V0H285.8z M295.3,40
					h20.4c4.3,0,7.7,0.4,10.1,1.3c2.4,0.9,4.3,2.3,5.6,4.3c1.3,2,1.9,4.1,1.9,6.4c0,3.4-1.2,6.2-3.7,8.3c-2.5,2.2-6.3,3.3-11.7,3.3
					h-22.7V40z"/>
			</g>
			<g>
				<path id="ArialMT-54_4_" class="st1" d="M374.3,0v63.1h-23.6v8.4h56.7v-8.4h-23.7V0H374.3z"/>
			</g>
			<g>
				<path id="ArialMT-20_9_" class="st1" d="M407.7,0"/>
			</g>
			<g>
				<path id="ArialMT-28" class="st1" d="M458.9-21c-4.9,6.1-9,13.3-12.3,21.5c-3.3,8.2-5,16.7-5,25.5c0,7.8,1.2,15.2,3.8,22.3
					c2.9,8.2,7.5,16.4,13.6,24.6h6.3c-3.9-6.8-6.5-11.6-7.8-14.5c-2-4.5-3.6-9.2-4.7-14.1c-1.4-6.1-2.1-12.2-2.1-18.4
					c0-15.7,4.9-31.3,14.6-46.9H458.9z"/>
			</g>
			<g>
				<path id="ArialMT-6d" class="st1" d="M475.4,0v51.9h7.9v-7.3c1.6,2.5,3.8,4.6,6.5,6.1c2.7,1.6,5.8,2.3,9.2,2.3
					c3.8,0,7-0.8,9.5-2.4c2.5-1.6,4.2-3.8,5.2-6.7c4.1,6.1,9.4,9.1,16,9.1c5.1,0,9.1-1.4,11.9-4.3c2.8-2.8,4.2-7.2,4.2-13.2V0h-8.8
					v32.7c0,3.5-0.3,6-0.9,7.6c-0.6,1.6-1.6,2.8-3.1,3.7c-1.5,0.9-3.2,1.4-5.3,1.4c-3.6,0-6.7-1.2-9.1-3.6
					c-2.4-2.4-3.6-6.3-3.6-11.6V0h-8.8v33.7c0,3.9-0.7,6.8-2.2,8.8c-1.4,2-3.8,2.9-7,2.9c-2.5,0-4.8-0.7-6.9-2
					c-2.1-1.3-3.6-3.2-4.6-5.7c-0.9-2.5-1.4-6.1-1.4-10.8V0H475.4z"/>
			</g>
			<g>
				<path id="ArialMT-73_1_" class="st1" d="M555.2,15.5l8.7,1.4c0.5-3.5,1.8-6.1,4.1-8c2.2-1.9,5.3-2.8,9.4-2.8c4,0,7,0.8,9,2.5
					c2,1.6,2.9,3.6,2.9,5.8c0,2-0.9,3.5-2.6,4.7c-1.2,0.8-4.2,1.8-9,3c-6.4,1.6-10.9,3-13.4,4.2c-2.5,1.2-4.4,2.8-5.7,4.9
					c-1.3,2.1-1.9,4.4-1.9,7c0,2.3,0.5,4.4,1.6,6.4c1.1,2,2.5,3.6,4.3,4.9c1.4,1,3.2,1.8,5.6,2.5c2.4,0.7,4.9,1.1,7.6,1.1
					c4.1,0,7.6-0.6,10.7-1.8c3.1-1.2,5.4-2.8,6.8-4.8c1.5-2,2.5-4.7,3-8l-8.6-1.2c-0.4,2.7-1.5,4.7-3.4,6.2
					c-1.9,1.5-4.5,2.2-7.9,2.2c-4,0-6.9-0.7-8.6-2c-1.7-1.3-2.6-2.9-2.6-4.7c0-1.1,0.4-2.2,1.1-3.1c0.7-0.9,1.8-1.7,3.4-2.3
					c0.9-0.3,3.5-1.1,7.8-2.2c6.2-1.7,10.6-3,13-4.1c2.5-1.1,4.4-2.6,5.8-4.6c1.4-2,2.1-4.5,2.1-7.5c0-2.9-0.9-5.7-2.6-8.3
					c-1.7-2.6-4.2-4.6-7.4-6c-3.2-1.4-6.9-2.1-10.9-2.1c-6.7,0-11.9,1.4-15.4,4.2S556.2,10,555.2,15.5z"/>
			</g>
			<g>
				<path id="ArialMT-29" class="st1" d="M614.5-21h-6.3c9.7,15.6,14.6,31.3,14.6,46.9c0,6.1-0.7,12.2-2.1,18.2
					c-1.1,4.9-2.7,9.6-4.6,14.1c-1.3,2.9-3.9,7.8-7.9,14.6h6.3c6.1-8.2,10.6-16.4,13.6-24.6c2.5-7.1,3.8-14.5,3.8-22.3
					c0-8.8-1.7-17.3-5.1-25.5C623.4-7.8,619.3-14.9,614.5-21z"/>
			</g>
		</g>
	</g>
</g>
<g id="line2d_9">
	<g>
		<defs>
			<rect id="SVGID_33_" x="876.2" y="93.6" width="613.6" height="863.6"/>
		</defs>
		<clipPath id="SVGID_34_">
			<use xlink:href="#SVGID_33_"  style="overflow:visible;"/>
		</clipPath>
		<path class="st21" d="M904.1,764.1l139.5,70.1l139.5,10.3l139.5,25.2l139.5,12.7"/>
	</g>
</g>
<g id="LineCollection_1">
	<g>
		<defs>
			<rect id="SVGID_35_" x="876.2" y="93.6" width="613.6" height="863.6"/>
		</defs>
		<clipPath id="SVGID_36_">
			<use xlink:href="#SVGID_35_"  style="overflow:visible;"/>
		</clipPath>
		<path class="st22" d="M904.1,805.1v-82.5"/>
	</g>
	<g>
		<defs>
			<rect id="SVGID_37_" x="876.2" y="93.6" width="613.6" height="863.6"/>
		</defs>
		<clipPath id="SVGID_38_">
			<use xlink:href="#SVGID_37_"  style="overflow:visible;"/>
		</clipPath>
		<path class="st23" d="M1043.5,871.6v-74.1"/>
	</g>
	<g>
		<defs>
			<rect id="SVGID_39_" x="876.2" y="93.6" width="613.6" height="863.6"/>
		</defs>
		<clipPath id="SVGID_40_">
			<use xlink:href="#SVGID_39_"  style="overflow:visible;"/>
		</clipPath>
		<path class="st24" d="M1183,880.4v-70.9"/>
	</g>
	<g>
		<defs>
			<rect id="SVGID_41_" x="876.2" y="93.6" width="613.6" height="863.6"/>
		</defs>
		<clipPath id="SVGID_42_">
			<use xlink:href="#SVGID_41_"  style="overflow:visible;"/>
		</clipPath>
		<path class="st25" d="M1322.5,903.8v-71.4"/>
	</g>
	<g>
		<defs>
			<rect id="SVGID_43_" x="876.2" y="93.6" width="613.6" height="863.6"/>
		</defs>
		<clipPath id="SVGID_44_">
			<use xlink:href="#SVGID_43_"  style="overflow:visible;"/>
		</clipPath>
		<path class="st26" d="M1461.9,917.9v-71.3"/>
	</g>
</g>
<g id="line2d_10">
	<g>
		<defs>
			<rect id="SVGID_45_" x="876.2" y="93.6" width="613.6" height="863.6"/>
		</defs>
		<clipPath id="SVGID_46_">
			<use xlink:href="#SVGID_45_"  style="overflow:visible;"/>
		</clipPath>
		<path class="st27" d="M904.1,184l139.5,51.2L1183,230l139.5,35l139.5,46.7"/>
	</g>
</g>
<g id="LineCollection_2">
	<g>
		<defs>
			<rect id="SVGID_47_" x="876.2" y="93.6" width="613.6" height="863.6"/>
		</defs>
		<clipPath id="SVGID_48_">
			<use xlink:href="#SVGID_47_"  style="overflow:visible;"/>
		</clipPath>
		<path class="st28" d="M904.1,229.9v-97.1"/>
	</g>
	<g>
		<defs>
			<rect id="SVGID_49_" x="876.2" y="93.6" width="613.6" height="863.6"/>
		</defs>
		<clipPath id="SVGID_50_">
			<use xlink:href="#SVGID_49_"  style="overflow:visible;"/>
		</clipPath>
		<path class="st29" d="M1043.5,281.8v-93.3"/>
	</g>
	<g>
		<defs>
			<rect id="SVGID_51_" x="876.2" y="93.6" width="613.6" height="863.6"/>
		</defs>
		<clipPath id="SVGID_52_">
			<use xlink:href="#SVGID_51_"  style="overflow:visible;"/>
		</clipPath>
		<path class="st30" d="M1183,276.6v-92.2"/>
	</g>
	<g>
		<defs>
			<rect id="SVGID_53_" x="876.2" y="93.6" width="613.6" height="863.6"/>
		</defs>
		<clipPath id="SVGID_54_">
			<use xlink:href="#SVGID_53_"  style="overflow:visible;"/>
		</clipPath>
		<path class="st31" d="M1322.5,307.6V216"/>
	</g>
	<g>
		<defs>
			<rect id="SVGID_55_" x="876.2" y="93.6" width="613.6" height="863.6"/>
		</defs>
		<clipPath id="SVGID_56_">
			<use xlink:href="#SVGID_55_"  style="overflow:visible;"/>
		</clipPath>
		<path class="st32" d="M1461.9,363.7V262"/>
	</g>
</g>
<g id="line2d_11">
</g>
<g id="line2d_12">
</g>
<g id="line2d_13">
</g>
<g id="line2d_14">
</g>
<g id="patch_16">
	<path class="st18" d="M876.2,957.1V93.6"/>
</g>
<g id="patch_17">
	<path class="st18" d="M876.2,957.1h613.6"/>
</g>
<g id="text_29">
	<g transform="translate(814.825 50.146875)scale(0.6 -0.6)">
		<g>
			<path id="ArialMT-42_1_" class="st1" d="M-91.3-29.9v96.6h36.3c7.4,0,13.3-1,17.8-2.9c4.5-2,7.9-5,10.5-9
				c2.5-4.1,3.8-8.3,3.8-12.8c0-4.1-1.1-8-3.4-11.7c-2.2-3.6-5.6-6.6-10.1-8.8c5.8-1.7,10.3-4.6,13.5-8.8c3.1-4.1,4.7-9,4.7-14.6
				c0-4.5-1-8.7-2.9-12.6c-1.9-3.9-4.3-6.9-7.1-9s-6.3-3.7-10.6-4.8c-4.2-1.1-9.4-1.6-15.6-1.6H-91.3z M-78.6,26.1h20.9
				c5.7,0,9.7,0.4,12.2,1.1c3.2,1,5.7,2.6,7.3,4.8c1.6,2.3,2.5,5.1,2.5,8.5c0,3.2-0.8,6-2.3,8.5c-1.5,2.4-3.7,4.1-6.6,5
				c-2.9,0.9-7.7,1.4-14.7,1.4h-19.3V26.1z M-78.6-18.5h24.1c4.1,0,7,0.2,8.7,0.5c3,0.5,5.4,1.4,7.4,2.6c2,1.2,3.6,3,4.9,5.4
				c1.3,2.3,1.9,5.1,1.9,8.1c0,3.6-0.9,6.7-2.8,9.4c-1.8,2.7-4.4,4.5-7.7,5.6c-3.3,1.1-8,1.6-14.2,1.6h-22.3V-18.5z"/>
		</g>
	</g>
</g>
<g id="legend_2">
	<g id="line2d_15">
		<path class="st33" d="M1286.4,90.5h45h45"/>
	</g>
	<g id="text_30">
		<g transform="translate(1417.825 142.030238)scale(0.3 -0.3)">
			<g>
				<path id="ArialMT-43_6_" class="st1" d="M70.2,157l14.2-3.6c-3-11.7-8.3-20.6-16.1-26.7c-7.7-6.1-17.2-9.2-28.4-9.2
					c-11.6,0-21,2.4-28.2,7.1C4.5,129.4-1,136.2-4.8,145.1s-5.7,18.5-5.7,28.8c0,11.2,2.1,20.9,6.4,29.2c4.3,8.3,10.4,14.6,18.2,19
					c7.9,4.3,16.6,6.5,26,6.5c10.8,0,19.8-2.7,27.1-8.2c7.3-5.5,12.4-13.2,15.3-23.1l-14-3.3c-2.5,7.8-6.1,13.5-10.9,17.1
					c-4.7,3.6-10.7,5.4-17.9,5.4c-8.2,0-15.1-2-20.7-6c-5.5-4-9.4-9.3-11.7-15.9C5.3,187.9,4.2,181,4.2,174c0-9.1,1.3-17.1,4-23.9
					s6.8-11.9,12.4-15.3c5.6-3.4,11.7-5,18.3-5c8,0,14.7,2.3,20.2,6.9C64.5,141.2,68.3,148,70.2,157z"/>
			</g>
			<g>
				<path id="ArialMT-4f_1_" class="st1" d="M97.6,171.7c0,17.8,4.8,31.8,14.3,41.9c9.6,10.1,21.9,15.1,37.1,15.1
					c9.9,0,18.9-2.4,26.8-7.1c8-4.7,14-11.3,18.2-19.8c4.2-8.5,6.3-18.1,6.3-28.8c0-10.9-2.2-20.6-6.6-29.2
					c-4.4-8.6-10.6-15.1-18.7-19.5c-8-4.4-16.7-6.6-26.1-6.6c-10.1,0-19.1,2.4-27.1,7.3c-8,4.9-14,11.6-18.1,20
					C99.7,153.3,97.6,162.3,97.6,171.7z M112.3,171.5c0-12.9,3.5-23.1,10.4-30.6c7-7.4,15.7-11.2,26.2-11.2
					c10.7,0,19.5,3.8,26.4,11.3c6.9,7.5,10.4,18.2,10.4,32c0,8.7-1.5,16.4-4.4,22.9s-7.3,11.6-13,15.2c-5.7,3.6-12.1,5.4-19.1,5.4
					c-10,0-18.7-3.5-26-10.4C115.9,199.2,112.3,187.6,112.3,171.5z"/>
			</g>
		</g>
	</g>
	<g id="line2d_16">
		<path class="st34" d="M1286.4,154.1h45h45"/>
	</g>
	<g id="text_31">
		<g transform="translate(1417.825 184.466175)scale(0.3 -0.3)">
			<g>
				<path id="ArialMT-43_7_" class="st1" d="M70.2,86.3l14.2-3.6c-3-11.7-8.3-20.6-16.1-26.7S51.2,46.9,40,46.9
					c-11.6,0-21,2.4-28.2,7.1C4.5,58.6-1,65.5-4.8,74.4s-5.7,18.5-5.7,28.8c0,11.2,2.1,20.9,6.4,29.2c4.3,8.3,10.4,14.6,18.2,19
					c7.9,4.3,16.6,6.5,26,6.5c10.8,0,19.8-2.7,27.1-8.2c7.3-5.5,12.4-13.2,15.3-23.1l-14-3.3c-2.5,7.8-6.1,13.5-10.9,17.1
					c-4.7,3.6-10.7,5.4-17.9,5.4c-8.2,0-15.1-2-20.7-6c-5.5-4-9.4-9.3-11.7-15.9c-2.2-6.7-3.4-13.5-3.4-20.6c0-9.1,1.3-17.1,4-23.9
					s6.8-11.9,12.4-15.3c5.6-3.4,11.7-5,18.3-5c8,0,14.7,2.3,20.2,6.9C64.5,70.5,68.3,77.3,70.2,86.3z"/>
			</g>
			<g>
				<path id="ArialMT-44_1_" class="st1" d="M101.9,48.7V156h37c8.3,0,14.7-0.5,19.1-1.5c6.1-1.4,11.4-4,15.7-7.7
					c5.7-4.8,9.9-10.9,12.7-18.4c2.8-7.4,4.2-15.9,4.2-25.5c0-8.2-1-15.4-2.9-21.7c-1.9-6.3-4.3-11.5-7.3-15.7
					c-3-4.1-6.2-7.4-9.8-9.7c-3.5-2.4-7.8-4.1-12.8-5.4s-10.8-1.8-17.2-1.8H101.9z M116.1,61.4h22.9c7.1,0,12.6,0.7,16.7,2
					c4,1.3,7.2,3.2,9.6,5.6c3.4,3.4,6,7.9,7.9,13.6c1.9,5.7,2.8,12.6,2.8,20.7c0,11.2-1.8,19.9-5.5,25.9s-8.2,10.1-13.4,12.1
					c-3.8,1.5-9.9,2.2-18.4,2.2h-22.6V61.4z"/>
			</g>
		</g>
	</g>
</g>
<text transform="matrix(1 0 0 1 203.9254 1039.6787)" class="st35 st36">low cloze</text>
<text transform="matrix(1 0 0 1 290.6777 994.8561)" class="st35 st36">dynamic</text>
<text transform="matrix(1 0 0 1 163.6019 994.8561)" class="st35 st36">static</text>
<text transform="matrix(1 0 0 1 527.1506 1040.84)" class="st35 st36">high cloze</text>
<text transform="matrix(1 0 0 1 613.903 996.0173)" class="st35 st36">dynamic</text>
<text transform="matrix(1 0 0 1 486.8271 996.0173)" class="st35 st36">static</text>
</svg>
