<?xml version="1.0" encoding="utf-8"?>
<!-- Generator: Adobe Illustrator 24.1.0, SVG Export Plug-In . SVG Version: 6.00 Build 0)  -->
<svg version="1.1" id="Layer_1" xmlns="http://www.w3.org/2000/svg" xmlns:xlink="http://www.w3.org/1999/xlink" x="0px" y="0px"
	 viewBox="0 0 1497 997.9" style="enable-background:new 0 0 1497 997.9;" xml:space="preserve">
<style type="text/css">
	.st0{fill:#FFFFFF;}
	.st1{fill:#262626;}
	.st2{clip-path:url(#SVGID_2_);fill:#772B58;stroke:#FFFFFF;stroke-width:0.24;}
	.st3{clip-path:url(#SVGID_4_);fill:#772B58;stroke:#FFFFFF;stroke-width:0.24;}
	.st4{clip-path:url(#SVGID_6_);fill:#772B58;stroke:#FFFFFF;stroke-width:0.24;}
	.st5{clip-path:url(#SVGID_8_);fill:#772B58;stroke:#FFFFFF;stroke-width:0.24;}
	.st6{clip-path:url(#SVGID_10_);fill:#DB6E59;stroke:#FFFFFF;stroke-width:0.24;}
	.st7{clip-path:url(#SVGID_12_);fill:#DB6E59;stroke:#FFFFFF;stroke-width:0.24;}
	.st8{clip-path:url(#SVGID_14_);fill:#DB6E59;stroke:#FFFFFF;stroke-width:0.24;}
	.st9{clip-path:url(#SVGID_16_);fill:#DB6E59;stroke:#FFFFFF;stroke-width:0.24;}
	.st10{clip-path:url(#SVGID_18_);fill:none;stroke:#424242;stroke-linecap:round;stroke-linejoin:round;}
	.st11{clip-path:url(#SVGID_20_);fill:none;stroke:#424242;stroke-linecap:round;stroke-linejoin:round;}
	.st12{clip-path:url(#SVGID_22_);fill:none;stroke:#424242;stroke-linecap:round;stroke-linejoin:round;}
	.st13{clip-path:url(#SVGID_24_);fill:none;stroke:#424242;stroke-linecap:round;stroke-linejoin:round;}
	.st14{clip-path:url(#SVGID_26_);fill:none;stroke:#424242;stroke-linecap:round;stroke-linejoin:round;}
	.st15{clip-path:url(#SVGID_28_);fill:none;stroke:#424242;stroke-linecap:round;stroke-linejoin:round;}
	.st16{clip-path:url(#SVGID_30_);fill:none;stroke:#424242;stroke-linecap:round;stroke-linejoin:round;}
	.st17{clip-path:url(#SVGID_32_);fill:none;stroke:#424242;stroke-linecap:round;stroke-linejoin:round;}
	.st18{fill:none;stroke:#262626;stroke-width:5;stroke-linecap:square;}
	.st19{fill:#772B58;stroke:#FFFFFF;stroke-width:0.24;}
	.st20{fill:#DB6E59;stroke:#FFFFFF;stroke-width:0.24;}
	.st21{clip-path:url(#SVGID_34_);fill:none;stroke:#841E5A;stroke-width:6;stroke-linecap:round;stroke-linejoin:round;}
	.st22{clip-path:url(#SVGID_36_);fill:none;stroke:#841E5A;stroke-linecap:round;stroke-linejoin:round;}
	.st23{clip-path:url(#SVGID_38_);fill:none;stroke:#841E5A;stroke-linecap:round;stroke-linejoin:round;}
	.st24{clip-path:url(#SVGID_40_);fill:none;stroke:#841E5A;stroke-linecap:round;stroke-linejoin:round;}
	.st25{clip-path:url(#SVGID_42_);fill:none;stroke:#841E5A;stroke-linecap:round;stroke-linejoin:round;}
	.st26{clip-path:url(#SVGID_44_);fill:none;stroke:#841E5A;stroke-linecap:round;stroke-linejoin:round;}
	.st27{clip-path:url(#SVGID_46_);fill:none;stroke:#F06043;stroke-width:6;stroke-linecap:round;stroke-linejoin:round;}
	.st28{clip-path:url(#SVGID_48_);fill:none;stroke:#F06043;stroke-linecap:round;stroke-linejoin:round;}
	.st29{clip-path:url(#SVGID_50_);fill:none;stroke:#F06043;stroke-linecap:round;stroke-linejoin:round;}
	.st30{clip-path:url(#SVGID_52_);fill:none;stroke:#F06043;stroke-linecap:round;stroke-linejoin:round;}
	.st31{clip-path:url(#SVGID_54_);fill:none;stroke:#F06043;stroke-linecap:round;stroke-linejoin:round;}
	.st32{clip-path:url(#SVGID_56_);fill:none;stroke:#F06043;stroke-linecap:round;stroke-linejoin:round;}
	.st33{fill:none;stroke:#841E5A;stroke-width:6;stroke-linecap:round;stroke-linejoin:round;}
	.st34{fill:none;stroke:#F06043;stroke-width:6;stroke-linecap:round;stroke-linejoin:round;}
	.st35{font-family:'MyriadPro-Regular';}
	.st36{font-size:45px;}
	.st37{font-size:40px;}
</style>
<g id="patch_2">
	<path class="st0" d="M139.8,898.9h613.6V35.3H139.8V898.9z"/>
</g>
<g id="matplotlib.axis_2">
	<g id="ytick_1">
		<g id="text_6">
			<g transform="translate(52.88125 971.440425)scale(0.4 -0.4)">
				<g>
					<path id="ArialMT-30" class="st1" d="M4.2,181c0,8.5,0.9,15.3,2.6,20.4c1.7,5.2,4.3,9.1,7.7,11.9c3.4,2.8,7.8,4.2,13,4.2
						c3.8,0,7.2-0.8,10.1-2.3c2.9-1.5,5.3-3.8,7.2-6.7c1.9-2.9,3.4-6.5,4.5-10.6c1.1-4.2,1.6-9.8,1.6-16.9c0-8.4-0.9-15.2-2.6-20.3
						c-1.7-5.2-4.3-9.1-7.7-12c-3.4-2.8-7.8-4.2-13-4.2c-6.9,0-12.3,2.5-16.2,7.4C6.5,157.8,4.2,167.5,4.2,181z M13.2,181
						c0-11.8,1.4-19.6,4.1-23.5c2.8-3.9,6.1-5.8,10.2-5.8c4,0,7.4,2,10.2,5.9s4.1,11.7,4.1,23.4c0,11.8-1.4,19.6-4.1,23.5
						c-2.8,3.9-6.2,5.8-10.3,5.8c-4,0-7.3-1.7-9.7-5.1C14.7,200.8,13.2,192.7,13.2,181z"/>
				</g>
				<g>
					<path id="ArialMT-2e" class="st1" d="M64.7,145.7v10h10v-10H64.7z"/>
				</g>
				<g>
					<path id="ArialMT-39" class="st1" d="M88.9,162.2l8.5,0.8c0.7-4,2.1-6.8,4.1-8.6c2-1.8,4.6-2.7,7.8-2.7c2.7,0,5.1,0.6,7.1,1.9
						c2,1.2,3.7,2.9,5,5c1.3,2.1,2.4,4.9,3.3,8.4c0.9,3.5,1.3,7.1,1.3,10.8c0,0.4,0,1,0,1.8c-1.8-2.8-4.2-5.1-7.2-6.8
						c-3-1.7-6.3-2.6-9.9-2.6c-5.9,0-10.9,2.1-15,6.4c-4.1,4.3-6.1,10-6.1,17c0,7.3,2.1,13.1,6.4,17.5s9.6,6.6,16.1,6.6
						c4.7,0,8.9-1.3,12.8-3.8c3.9-2.5,6.8-6.1,8.8-10.7c2-4.6,3-11.3,3-20.1c0-9.1-1-16.4-3-21.8c-2-5.4-4.9-9.5-8.9-12.4
						c-3.9-2.8-8.5-4.2-13.8-4.2c-5.6,0-10.2,1.6-13.7,4.7C91.7,152.2,89.6,156.6,88.9,162.2z M124.9,193.8c0,5.1-1.3,9.1-4,12
						c-2.7,3-5.9,4.4-9.7,4.4c-3.9,0-7.3-1.6-10.2-4.8c-2.9-3.2-4.3-7.3-4.3-12.4c0-4.6,1.4-8.3,4.1-11.1c2.8-2.8,6.1-4.3,10.2-4.3
						c4.1,0,7.4,1.4,10,4.3C123.5,184.8,124.9,188.8,124.9,193.8z"/>
				</g>
				<g>
					<path id="ArialMT-30_1_" class="st1" d="M143.2,181c0,8.5,0.9,15.3,2.6,20.4c1.7,5.2,4.3,9.1,7.8,11.9c3.4,2.8,7.8,4.2,13,4.2
						c3.8,0,7.2-0.8,10.1-2.3c2.9-1.5,5.3-3.8,7.2-6.7c1.9-2.9,3.4-6.5,4.5-10.6c1.1-4.2,1.6-9.8,1.6-16.9c0-8.4-0.9-15.2-2.6-20.3
						c-1.7-5.2-4.3-9.1-7.7-12c-3.4-2.8-7.8-4.2-13-4.2c-6.9,0-12.3,2.5-16.2,7.4C145.5,157.8,143.2,167.5,143.2,181z M152.2,181
						c0-11.8,1.4-19.6,4.1-23.5c2.8-3.9,6.1-5.8,10.2-5.8c4,0,7.4,2,10.2,5.9s4.1,11.7,4.1,23.4c0,11.8-1.4,19.6-4.1,23.5
						c-2.8,3.9-6.2,5.8-10.3,5.8c-4,0-7.3-1.7-9.7-5.1C153.7,200.8,152.2,192.7,152.2,181z"/>
				</g>
			</g>
		</g>
	</g>
	<g id="ytick_2">
		<g id="text_7">
			<g transform="translate(52.88125 798.726825)scale(0.4 -0.4)">
				<g>
					<path id="ArialMT-30_2_" class="st1" d="M4.2,181c0,8.5,0.9,15.3,2.6,20.4c1.7,5.2,4.3,9.1,7.7,11.9c3.4,2.8,7.8,4.2,13,4.2
						c3.8,0,7.2-0.8,10.1-2.3c2.9-1.5,5.3-3.8,7.2-6.7c1.9-2.9,3.4-6.5,4.5-10.6c1.1-4.2,1.6-9.8,1.6-16.9c0-8.4-0.9-15.2-2.6-20.3
						c-1.7-5.2-4.3-9.1-7.7-12c-3.4-2.8-7.8-4.2-13-4.2c-6.9,0-12.3,2.5-16.2,7.4C6.5,157.8,4.2,167.5,4.2,181z M13.2,181
						c0-11.8,1.4-19.6,4.1-23.5c2.8-3.9,6.1-5.8,10.2-5.8c4,0,7.4,2,10.2,5.9s4.1,11.7,4.1,23.4c0,11.8-1.4,19.6-4.1,23.5
						c-2.8,3.9-6.2,5.8-10.3,5.8c-4,0-7.3-1.7-9.7-5.1C14.7,200.8,13.2,192.7,13.2,181z"/>
				</g>
				<g>
					<path id="ArialMT-2e_1_" class="st1" d="M64.7,145.7v10h10v-10H64.7z"/>
				</g>
				<g>
					<path id="ArialMT-39_1_" class="st1" d="M88.9,162.2l8.5,0.8c0.7-4,2.1-6.8,4.1-8.6c2-1.8,4.6-2.7,7.8-2.7
						c2.7,0,5.1,0.6,7.1,1.9c2,1.2,3.7,2.9,5,5c1.3,2.1,2.4,4.9,3.3,8.4c0.9,3.5,1.3,7.1,1.3,10.8c0,0.4,0,1,0,1.8
						c-1.8-2.8-4.2-5.1-7.2-6.8c-3-1.7-6.3-2.6-9.9-2.6c-5.9,0-10.9,2.1-15,6.4c-4.1,4.3-6.1,10-6.1,17c0,7.3,2.1,13.1,6.4,17.5
						s9.6,6.6,16.1,6.6c4.7,0,8.9-1.3,12.8-3.8c3.9-2.5,6.8-6.1,8.8-10.7c2-4.6,3-11.3,3-20.1c0-9.1-1-16.4-3-21.8
						c-2-5.4-4.9-9.5-8.9-12.4c-3.9-2.8-8.5-4.2-13.8-4.2c-5.6,0-10.2,1.6-13.7,4.7C91.7,152.2,89.6,156.6,88.9,162.2z M124.9,193.8
						c0,5.1-1.3,9.1-4,12c-2.7,3-5.9,4.4-9.7,4.4c-3.9,0-7.3-1.6-10.2-4.8c-2.9-3.2-4.3-7.3-4.3-12.4c0-4.6,1.4-8.3,4.1-11.1
						c2.8-2.8,6.1-4.3,10.2-4.3c4.1,0,7.4,1.4,10,4.3C123.5,184.8,124.9,188.8,124.9,193.8z"/>
				</g>
				<g>
					<path id="ArialMT-32" class="st1" d="M189.4,154.1v-8.5H142c-0.1,2.1,0.3,4.2,1,6.1c1.2,3.2,3.1,6.4,5.8,9.5
						c2.7,3.1,6.5,6.7,11.5,10.8c7.8,6.4,13,11.4,15.8,15.2c2.7,3.7,4.1,7.3,4.1,10.6c0,3.5-1.2,6.4-3.8,8.8
						c-2.5,2.4-5.7,3.6-9.7,3.6c-4.2,0-7.6-1.3-10.2-3.8c-2.5-2.5-3.8-6-3.9-10.5l-9,0.9c0.6,6.7,2.9,11.9,7,15.4
						c4,3.5,9.5,5.3,16.3,5.3c6.9,0,12.3-1.9,16.3-5.7c4-3.8,6-8.5,6-14.2c0-2.9-0.6-5.7-1.8-8.5c-1.2-2.8-3.1-5.7-5.8-8.7
						s-7.2-7.3-13.5-12.6c-5.3-4.4-8.7-7.4-10.2-9c-1.5-1.6-2.7-3.2-3.7-4.8H189.4z"/>
				</g>
			</g>
		</g>
	</g>
	<g id="ytick_3">
		<g id="text_8">
			<g transform="translate(52.88125 626.013225)scale(0.4 -0.4)">
				<g>
					<path id="ArialMT-30_3_" class="st1" d="M4.2,181c0,8.5,0.9,15.3,2.6,20.4c1.7,5.2,4.3,9.1,7.7,11.9c3.4,2.8,7.8,4.2,13,4.2
						c3.8,0,7.2-0.8,10.1-2.3c2.9-1.5,5.3-3.8,7.2-6.7c1.9-2.9,3.4-6.5,4.5-10.6c1.1-4.2,1.6-9.8,1.6-16.9c0-8.4-0.9-15.2-2.6-20.3
						c-1.7-5.2-4.3-9.1-7.7-12c-3.4-2.8-7.8-4.2-13-4.2c-6.9,0-12.3,2.5-16.2,7.4C6.5,157.8,4.2,167.5,4.2,181z M13.2,181
						c0-11.8,1.4-19.6,4.1-23.5c2.8-3.9,6.1-5.8,10.2-5.8c4,0,7.4,2,10.2,5.9s4.1,11.7,4.1,23.4c0,11.8-1.4,19.6-4.1,23.5
						c-2.8,3.9-6.2,5.8-10.3,5.8c-4,0-7.3-1.7-9.7-5.1C14.7,200.8,13.2,192.7,13.2,181z"/>
				</g>
				<g>
					<path id="ArialMT-2e_2_" class="st1" d="M64.7,145.7v10h10v-10H64.7z"/>
				</g>
				<g>
					<path id="ArialMT-39_2_" class="st1" d="M88.9,162.2l8.5,0.8c0.7-4,2.1-6.8,4.1-8.6c2-1.8,4.6-2.7,7.8-2.7
						c2.7,0,5.1,0.6,7.1,1.9c2,1.2,3.7,2.9,5,5c1.3,2.1,2.4,4.9,3.3,8.4c0.9,3.5,1.3,7.1,1.3,10.8c0,0.4,0,1,0,1.8
						c-1.8-2.8-4.2-5.1-7.2-6.8c-3-1.7-6.3-2.6-9.9-2.6c-5.9,0-10.9,2.1-15,6.4c-4.1,4.3-6.1,10-6.1,17c0,7.3,2.1,13.1,6.4,17.5
						s9.6,6.6,16.1,6.6c4.7,0,8.9-1.3,12.8-3.8c3.9-2.5,6.8-6.1,8.8-10.7c2-4.6,3-11.3,3-20.1c0-9.1-1-16.4-3-21.8
						c-2-5.4-4.9-9.5-8.9-12.4c-3.9-2.8-8.5-4.2-13.8-4.2c-5.6,0-10.2,1.6-13.7,4.7C91.7,152.2,89.6,156.6,88.9,162.2z M124.9,193.8
						c0,5.1-1.3,9.1-4,12c-2.7,3-5.9,4.4-9.7,4.4c-3.9,0-7.3-1.6-10.2-4.8c-2.9-3.2-4.3-7.3-4.3-12.4c0-4.6,1.4-8.3,4.1-11.1
						c2.8-2.8,6.1-4.3,10.2-4.3c4.1,0,7.4,1.4,10,4.3C123.5,184.8,124.9,188.8,124.9,193.8z"/>
				</g>
				<g>
					<path id="ArialMT-34" class="st1" d="M171.3,145.7v17.1h-31.1v8.1l32.7,46.4h7.2v-46.4h9.7v-8.1h-9.7v-17.1H171.3z
						 M171.3,170.9v32.3l-22.4-32.3H171.3z"/>
				</g>
			</g>
		</g>
	</g>
	<g id="ytick_4">
		<g id="text_9">
			<g transform="translate(52.88125 453.299625)scale(0.4 -0.4)">
				<g>
					<path id="ArialMT-30_4_" class="st1" d="M4.2,181c0,8.5,0.9,15.3,2.6,20.4c1.7,5.2,4.3,9.1,7.7,11.9c3.4,2.8,7.8,4.2,13,4.2
						c3.8,0,7.2-0.8,10.1-2.3c2.9-1.5,5.3-3.8,7.2-6.7c1.9-2.9,3.4-6.5,4.5-10.6c1.1-4.2,1.6-9.8,1.6-16.9c0-8.4-0.9-15.2-2.6-20.3
						c-1.7-5.2-4.3-9.1-7.7-12c-3.4-2.8-7.8-4.2-13-4.2c-6.9,0-12.3,2.5-16.2,7.4C6.5,157.8,4.2,167.5,4.2,181z M13.2,181
						c0-11.8,1.4-19.6,4.1-23.5c2.8-3.9,6.1-5.8,10.2-5.8c4,0,7.4,2,10.2,5.9s4.1,11.7,4.1,23.4c0,11.8-1.4,19.6-4.1,23.5
						c-2.8,3.9-6.2,5.8-10.3,5.8c-4,0-7.3-1.7-9.7-5.1C14.7,200.8,13.2,192.7,13.2,181z"/>
				</g>
				<g>
					<path id="ArialMT-2e_3_" class="st1" d="M64.7,145.7v10h10v-10H64.7z"/>
				</g>
				<g>
					<path id="ArialMT-39_3_" class="st1" d="M88.9,162.2l8.5,0.8c0.7-4,2.1-6.8,4.1-8.6c2-1.8,4.6-2.7,7.8-2.7
						c2.7,0,5.1,0.6,7.1,1.9c2,1.2,3.7,2.9,5,5c1.3,2.1,2.4,4.9,3.3,8.4c0.9,3.5,1.3,7.1,1.3,10.8c0,0.4,0,1,0,1.8
						c-1.8-2.8-4.2-5.1-7.2-6.8c-3-1.7-6.3-2.6-9.9-2.6c-5.9,0-10.9,2.1-15,6.4c-4.1,4.3-6.1,10-6.1,17c0,7.3,2.1,13.1,6.4,17.5
						s9.6,6.6,16.1,6.6c4.7,0,8.9-1.3,12.8-3.8c3.9-2.5,6.8-6.1,8.8-10.7c2-4.6,3-11.3,3-20.1c0-9.1-1-16.4-3-21.8
						c-2-5.4-4.9-9.5-8.9-12.4c-3.9-2.8-8.5-4.2-13.8-4.2c-5.6,0-10.2,1.6-13.7,4.7C91.7,152.2,89.6,156.6,88.9,162.2z M124.9,193.8
						c0,5.1-1.3,9.1-4,12c-2.7,3-5.9,4.4-9.7,4.4c-3.9,0-7.3-1.6-10.2-4.8c-2.9-3.2-4.3-7.3-4.3-12.4c0-4.6,1.4-8.3,4.1-11.1
						c2.8-2.8,6.1-4.3,10.2-4.3c4.1,0,7.4,1.4,10,4.3C123.5,184.8,124.9,188.8,124.9,193.8z"/>
				</g>
				<g>
					<path id="ArialMT-36" class="st1" d="M188.8,199.7L180,199c-0.8,3.4-1.9,6-3.3,7.5c-2.4,2.5-5.3,3.8-8.8,3.8
						c-2.8,0-5.3-0.8-7.4-2.3c-2.8-2-4.9-5-6.5-8.8c-1.6-3.9-2.4-9.4-2.5-16.5c2.1,3.2,4.7,5.6,7.8,7.2s6.3,2.3,9.6,2.3
						c5.9,0,10.8-2.2,15-6.5c4.1-4.3,6.2-9.9,6.2-16.7c0-4.5-1-8.7-2.9-12.5c-1.9-3.9-4.6-6.8-8-8.9c-3.4-2.1-7.2-3.1-11.5-3.1
						c-7.3,0-13.3,2.7-17.9,8.1c-4.6,5.4-6.9,14.3-6.9,26.6c0,13.8,2.6,23.9,7.7,30.2c4.5,5.5,10.5,8.2,18,8.2
						c5.6,0,10.2-1.6,13.8-4.7C185.9,209.6,188.1,205.3,188.8,199.7z M152.9,168.8c0-3,0.6-5.9,1.9-8.7c1.3-2.8,3.1-4.9,5.4-6.3
						c2.3-1.4,4.7-2.2,7.3-2.2c3.7,0,6.9,1.5,9.6,4.5c2.7,3,4,7.1,4,12.2c0,4.9-1.3,8.8-4,11.7c-2.6,2.9-6,4.3-10,4.3
						c-4,0-7.3-1.4-10.1-4.3C154.3,177.2,152.9,173.5,152.9,168.8z"/>
				</g>
			</g>
		</g>
	</g>
	<g id="ytick_5">
		<g id="text_10">
			<g transform="translate(52.88125 280.586025)scale(0.4 -0.4)">
				<g>
					<path id="ArialMT-30_5_" class="st1" d="M4.2,181c0,8.5,0.9,15.3,2.6,20.4c1.7,5.2,4.3,9.1,7.7,11.9c3.4,2.8,7.8,4.2,13,4.2
						c3.8,0,7.2-0.8,10.1-2.3c2.9-1.5,5.3-3.8,7.2-6.7c1.9-2.9,3.4-6.5,4.5-10.6c1.1-4.2,1.6-9.8,1.6-16.9c0-8.4-0.9-15.2-2.6-20.3
						c-1.7-5.2-4.3-9.1-7.7-12c-3.4-2.8-7.8-4.2-13-4.2c-6.9,0-12.3,2.5-16.2,7.4C6.5,157.8,4.2,167.5,4.2,181z M13.2,181
						c0-11.8,1.4-19.6,4.1-23.5c2.8-3.9,6.1-5.8,10.2-5.8c4,0,7.4,2,10.2,5.9s4.1,11.7,4.1,23.4c0,11.8-1.4,19.6-4.1,23.5
						c-2.8,3.9-6.2,5.8-10.3,5.8c-4,0-7.3-1.7-9.7-5.1C14.7,200.8,13.2,192.7,13.2,181z"/>
				</g>
				<g>
					<path id="ArialMT-2e_4_" class="st1" d="M64.7,145.7v10h10v-10H64.7z"/>
				</g>
				<g>
					<path id="ArialMT-39_4_" class="st1" d="M88.9,162.2l8.5,0.8c0.7-4,2.1-6.8,4.1-8.6c2-1.8,4.6-2.7,7.8-2.7
						c2.7,0,5.1,0.6,7.1,1.9c2,1.2,3.7,2.9,5,5c1.3,2.1,2.4,4.9,3.3,8.4c0.9,3.5,1.3,7.1,1.3,10.8c0,0.4,0,1,0,1.8
						c-1.8-2.8-4.2-5.1-7.2-6.8c-3-1.7-6.3-2.6-9.9-2.6c-5.9,0-10.9,2.1-15,6.4c-4.1,4.3-6.1,10-6.1,17c0,7.3,2.1,13.1,6.4,17.5
						s9.6,6.6,16.1,6.6c4.7,0,8.9-1.3,12.8-3.8c3.9-2.5,6.8-6.1,8.8-10.7c2-4.6,3-11.3,3-20.1c0-9.1-1-16.4-3-21.8
						c-2-5.4-4.9-9.5-8.9-12.4c-3.9-2.8-8.5-4.2-13.8-4.2c-5.6,0-10.2,1.6-13.7,4.7C91.7,152.2,89.6,156.6,88.9,162.2z M124.9,193.8
						c0,5.1-1.3,9.1-4,12c-2.7,3-5.9,4.4-9.7,4.4c-3.9,0-7.3-1.6-10.2-4.8c-2.9-3.2-4.3-7.3-4.3-12.4c0-4.6,1.4-8.3,4.1-11.1
						c2.8-2.8,6.1-4.3,10.2-4.3c4.1,0,7.4,1.4,10,4.3C123.5,184.8,124.9,188.8,124.9,193.8z"/>
				</g>
				<g>
					<path id="ArialMT-38" class="st1" d="M156.7,184.5c-3.6,1.3-6.3,3.2-8.1,5.7c-1.8,2.5-2.6,5.4-2.6,8.9c0,5.2,1.9,9.6,5.6,13.1
						c3.8,3.6,8.7,5.3,14.9,5.3c6.2,0,11.3-1.8,15.1-5.5c3.8-3.6,5.7-8,5.7-13.2c0-3.3-0.9-6.2-2.6-8.7c-1.7-2.4-4.4-4.3-7.9-5.7
						c4.4-1.4,7.7-3.7,10-6.9c2.3-3.2,3.4-7,3.4-11.4c0-6.1-2.2-11.3-6.5-15.4c-4.3-4.2-10-6.2-17.1-6.2s-12.8,2.1-17.1,6.3
						c-4.3,4.2-6.5,9.4-6.5,15.7c0,4.7,1.2,8.6,3.5,11.7C149,181.2,152.3,183.3,156.7,184.5z M154.9,199.4c0-3.4,1.1-6.2,3.3-8.3
						c2.2-2.1,5-3.2,8.5-3.2c3.4,0,6.2,1.1,8.3,3.2c2.2,2.1,3.2,4.8,3.2,7.8c0,3.2-1.1,5.9-3.4,8.1c-2.2,2.2-5,3.3-8.3,3.3
						c-3.4,0-6.1-1.1-8.4-3.2C156,204.9,154.9,202.4,154.9,199.4z M152.1,166.3c0-2.5,0.6-4.9,1.8-7.3s3-4.2,5.3-5.5
						c2.3-1.3,4.9-1.9,7.6-1.9c4.2,0,7.7,1.3,10.4,4c2.7,2.7,4.1,6.1,4.1,10.3c0,4.2-1.4,7.7-4.2,10.5c-2.8,2.8-6.3,4.2-10.6,4.2
						c-4.1,0-7.6-1.4-10.3-4.1C153.5,173.8,152.1,170.4,152.1,166.3z"/>
				</g>
			</g>
		</g>
	</g>
	<g id="ytick_6">
		<g id="text_11">
			<g transform="translate(52.88125 107.872425)scale(0.4 -0.4)">
				<g>
					<path id="ArialMT-31" class="st1" d="M37.2,145.7h-8.8v56c-2.1-2-4.9-4-8.3-6c-3.4-2-6.5-3.5-9.3-4.5v8.5
						c4.9,2.3,9.2,5.1,12.9,8.4c3.7,3.3,6.3,6.5,7.8,9.6h5.7V145.7z"/>
				</g>
				<g>
					<path id="ArialMT-2e_5_" class="st1" d="M64.7,145.7v10h10v-10H64.7z"/>
				</g>
				<g>
					<path id="ArialMT-30_6_" class="st1" d="M87.6,181c0,8.5,0.9,15.3,2.6,20.4c1.7,5.2,4.3,9.1,7.8,11.9c3.4,2.8,7.8,4.2,13,4.2
						c3.8,0,7.2-0.8,10.1-2.3c2.9-1.5,5.3-3.8,7.2-6.7c1.9-2.9,3.4-6.5,4.5-10.6c1.1-4.2,1.6-9.8,1.6-16.9c0-8.4-0.9-15.2-2.6-20.3
						c-1.7-5.2-4.3-9.1-7.7-12c-3.4-2.8-7.8-4.2-13-4.2c-6.9,0-12.3,2.5-16.2,7.4C89.9,157.8,87.6,167.5,87.6,181z M96.6,181
						c0-11.8,1.4-19.6,4.1-23.5c2.8-3.9,6.1-5.8,10.2-5.8c4,0,7.4,2,10.2,5.9s4.1,11.7,4.1,23.4c0,11.8-1.4,19.6-4.1,23.5
						c-2.8,3.9-6.2,5.8-10.3,5.8c-4,0-7.3-1.7-9.7-5.1C98.1,200.8,96.6,192.7,96.6,181z"/>
				</g>
				<g>
					<path id="ArialMT-30_7_" class="st1" d="M143.2,181c0,8.5,0.9,15.3,2.6,20.4c1.7,5.2,4.3,9.1,7.8,11.9c3.4,2.8,7.8,4.2,13,4.2
						c3.8,0,7.2-0.8,10.1-2.3c2.9-1.5,5.3-3.8,7.2-6.7c1.9-2.9,3.4-6.5,4.5-10.6c1.1-4.2,1.6-9.8,1.6-16.9c0-8.4-0.9-15.2-2.6-20.3
						c-1.7-5.2-4.3-9.1-7.7-12c-3.4-2.8-7.8-4.2-13-4.2c-6.9,0-12.3,2.5-16.2,7.4C145.5,157.8,143.2,167.5,143.2,181z M152.2,181
						c0-11.8,1.4-19.6,4.1-23.5c2.8-3.9,6.1-5.8,10.2-5.8c4,0,7.4,2,10.2,5.9s4.1,11.7,4.1,23.4c0,11.8-1.4,19.6-4.1,23.5
						c-2.8,3.9-6.2,5.8-10.3,5.8c-4,0-7.3-1.7-9.7-5.1C153.7,200.8,152.2,192.7,152.2,181z"/>
				</g>
			</g>
		</g>
	</g>
	<g id="text_12">
		<g transform="translate(39.410156 617.865019)rotate(-90)scale(0.45 -0.45)">
			<g>
				<path id="ArialMT-41" class="st1" d="M129.3,0l27.5,71.6H167L196.3,0h-10.8l-8.4,21.7h-29.9L139.4,0H129.3z M150,29.4h24.3
					l-7.5,19.8c-2.3,6-4,11-5.1,14.8c-0.9-4.6-2.2-9.2-3.9-13.7L150,29.4z"/>
			</g>
			<g>
				<path id="ArialMT-63_6_" class="st1" d="M236.6,19l8.6-1.1c-0.9-6-3.4-10.6-7.3-14c-3.9-3.4-8.7-5-14.3-5
					c-7.1,0-12.8,2.3-17.1,7c-4.3,4.6-6.5,11.3-6.5,20c0,5.6,0.9,10.5,2.8,14.7c1.9,4.2,4.7,7.4,8.5,9.5c3.8,2.1,7.9,3.2,12.4,3.2
					c5.6,0,10.2-1.4,13.8-4.3c3.6-2.8,5.9-6.9,6.9-12.1l-8.5-1.3c-0.8,3.5-2.3,6.1-4.3,7.9c-2.1,1.8-4.6,2.6-7.5,2.6
					c-4.4,0-8-1.6-10.8-4.8c-2.8-3.2-4.1-8.2-4.1-15c0-7,1.3-12,4-15.2c2.7-3.2,6.2-4.7,10.5-4.7c3.4,0,6.3,1.1,8.6,3.2
					S236,14.6,236.6,19z"/>
			</g>
			<g>
				<path id="ArialMT-63_7_" class="st1" d="M286.6,19l8.6-1.1c-0.9-6-3.4-10.6-7.3-14c-3.9-3.4-8.7-5-14.3-5
					c-7.1,0-12.8,2.3-17.1,7c-4.3,4.6-6.5,11.3-6.5,20c0,5.6,0.9,10.5,2.8,14.7c1.9,4.2,4.7,7.4,8.5,9.5c3.8,2.1,7.9,3.2,12.4,3.2
					c5.6,0,10.2-1.4,13.8-4.3c3.6-2.8,5.9-6.9,6.9-12.1l-8.5-1.3c-0.8,3.5-2.3,6.1-4.3,7.9c-2.1,1.8-4.6,2.6-7.5,2.6
					c-4.4,0-8-1.6-10.8-4.8c-2.8-3.2-4.1-8.2-4.1-15c0-7,1.3-12,4-15.2c2.7-3.2,6.2-4.7,10.5-4.7c3.4,0,6.3,1.1,8.6,3.2
					S286,14.6,286.6,19z"/>
			</g>
			<g>
				<path id="ArialMT-75" class="st1" d="M336.7,0v7.6c-4-5.9-9.5-8.8-16.5-8.8c-3.1,0-5.9,0.6-8.6,1.7c-2.6,1.2-4.6,2.7-5.9,4.4
					c-1.3,1.8-2.2,4-2.7,6.5c-0.4,1.7-0.5,4.5-0.5,8.2v32.1h8.8V23.1c0-4.6,0.2-7.7,0.5-9.3c0.6-2.3,1.7-4.1,3.5-5.4s4-2,6.6-2
					s5.1,0.7,7.4,2s3.9,3.2,4.9,5.5c1,2.3,1.5,5.7,1.5,10.1v27.8h8.8V0H336.7z"/>
			</g>
			<g>
				<path id="ArialMT-72_1_" class="st1" d="M358.3,0v51.9h7.9V44c2,3.7,3.9,6.1,5.6,7.3c1.7,1.2,3.6,1.8,5.6,1.8c3,0,6-0.9,9-2.8
					l-3-8.2c-2.1,1.3-4.3,1.9-6.4,1.9c-1.9,0-3.7-0.6-5.2-1.7s-2.6-2.8-3.3-4.8c-1-3.1-1.5-6.5-1.5-10.3V0H358.3z"/>
			</g>
			<g>
				<path id="ArialMT-61" class="st1" d="M425.5,6.4c-3.3-2.8-6.4-4.7-9.4-5.9c-3-1.1-6.2-1.7-9.7-1.7c-5.7,0-10.1,1.4-13.1,4.2
					s-4.6,6.3-4.6,10.7c0,2.5,0.6,4.9,1.7,7c1.2,2.1,2.7,3.8,4.5,5.1s4,2.2,6.3,2.9c1.7,0.5,4.3,0.9,7.8,1.3
					c7.1,0.8,12.3,1.8,15.7,3c0,1.2,0,2,0,2.3c0,3.6-0.8,6.1-2.5,7.6c-2.2,2-5.6,3-10,3c-4.1,0-7.2-0.7-9.2-2.2s-3.4-4-4.4-7.7
					l-8.6,1.2c0.8,3.7,2.1,6.6,3.9,8.9s4.4,4,7.8,5.2c3.4,1.2,7.3,1.8,11.8,1.8c4.4,0,8-0.5,10.8-1.6c2.8-1,4.8-2.4,6.1-3.9
					c1.3-1.6,2.2-3.6,2.7-6c0.3-1.5,0.4-4.2,0.4-8.1V21.7c0-8.2,0.2-13.3,0.6-15.5c0.4-2.2,1.1-4.2,2.2-6.2h-9.2
					C426.4,1.8,425.8,4,425.5,6.4z M424.8,26c-3.2-1.3-8-2.4-14.4-3.3c-3.6-0.5-6.2-1.1-7.7-1.8c-1.5-0.6-2.6-1.6-3.5-2.8
					c-0.8-1.2-1.2-2.6-1.2-4.2c0-2.3,0.9-4.3,2.7-5.9c1.8-1.6,4.4-2.3,7.8-2.3c3.4,0,6.4,0.7,9,2.2s4.6,3.5,5.8,6.1
					c0.9,2,1.4,4.9,1.4,8.8V26z"/>
			</g>
			<g>
				<path id="ArialMT-63_8_" class="st1" d="M481.1,19l8.6-1.1c-0.9-6-3.4-10.6-7.3-14c-3.9-3.4-8.7-5-14.3-5
					c-7.1,0-12.8,2.3-17.1,7c-4.3,4.6-6.5,11.3-6.5,20c0,5.6,0.9,10.5,2.8,14.7c1.9,4.2,4.7,7.4,8.5,9.5c3.8,2.1,7.9,3.2,12.4,3.2
					c5.6,0,10.2-1.4,13.8-4.3c3.6-2.8,5.9-6.9,6.9-12.1l-8.5-1.3c-0.8,3.5-2.3,6.1-4.3,7.9c-2.1,1.8-4.6,2.6-7.5,2.6
					c-4.4,0-8-1.6-10.8-4.8c-2.8-3.2-4.1-8.2-4.1-15c0-7,1.3-12,4-15.2c2.7-3.2,6.2-4.7,10.5-4.7c3.4,0,6.3,1.1,8.6,3.2
					S480.5,14.6,481.1,19z"/>
			</g>
			<g>
				<path id="ArialMT-79" class="st1" d="M496.9-20l-1,8.2c1.9-0.5,3.6-0.8,5-0.8c2,0,3.5,0.3,4.7,1c1.2,0.6,2.1,1.6,2.9,2.7
					c0.6,0.9,1.4,3.1,2.7,6.5c0.2,0.5,0.4,1.2,0.8,2.2l-19.7,52h9.5l10.8-30c1.4-3.8,2.7-7.8,3.8-12c1,4,2.2,8,3.6,11.8L531,51.9
					h8.8L520.1-0.9c-2.1-5.7-3.8-9.6-4.9-11.8c-1.6-2.9-3.4-5-5.4-6.4c-2-1.4-4.4-2-7.2-2C500.9-21,499-20.7,496.9-20z"/>
			</g>
		</g>
	</g>
</g>
<g id="patch_3">
	<g>
		<defs>
			<rect id="SVGID_1_" x="139.8" y="35.3" width="613.6" height="863.6"/>
		</defs>
		<clipPath id="SVGID_2_">
			<use xlink:href="#SVGID_1_"  style="overflow:visible;"/>
		</clipPath>
		<path class="st2" d="M155.2,8671h61.4V305.6h-61.4V8671z"/>
	</g>
</g>
<g id="patch_4">
	<g>
		<defs>
			<rect id="SVGID_3_" x="139.8" y="35.3" width="613.6" height="863.6"/>
		</defs>
		<clipPath id="SVGID_4_">
			<use xlink:href="#SVGID_3_"  style="overflow:visible;"/>
		</clipPath>
		<path class="st3" d="M308.6,8671h61.4V379.5h-61.4V8671z"/>
	</g>
</g>
<g id="patch_5">
	<g>
		<defs>
			<rect id="SVGID_5_" x="139.8" y="35.3" width="613.6" height="863.6"/>
		</defs>
		<clipPath id="SVGID_6_">
			<use xlink:href="#SVGID_5_"  style="overflow:visible;"/>
		</clipPath>
		<path class="st4" d="M462,8671h61.4V303H462V8671z"/>
	</g>
</g>
<g id="patch_6">
	<g>
		<defs>
			<rect id="SVGID_7_" x="139.8" y="35.3" width="613.6" height="863.6"/>
		</defs>
		<clipPath id="SVGID_8_">
			<use xlink:href="#SVGID_7_"  style="overflow:visible;"/>
		</clipPath>
		<path class="st5" d="M615.4,8671h61.4V424.4h-61.4V8671z"/>
	</g>
</g>
<g id="patch_7">
	<g>
		<defs>
			<rect id="SVGID_9_" x="139.8" y="35.3" width="613.6" height="863.6"/>
		</defs>
		<clipPath id="SVGID_10_">
			<use xlink:href="#SVGID_9_"  style="overflow:visible;"/>
		</clipPath>
		<path class="st6" d="M216.5,8671h61.4V277.2h-61.4V8671z"/>
	</g>
</g>
<g id="patch_8">
	<g>
		<defs>
			<rect id="SVGID_11_" x="139.8" y="35.3" width="613.6" height="863.6"/>
		</defs>
		<clipPath id="SVGID_12_">
			<use xlink:href="#SVGID_11_"  style="overflow:visible;"/>
		</clipPath>
		<path class="st7" d="M369.9,8671h61.4V276.3h-61.4V8671z"/>
	</g>
</g>
<g id="patch_9">
	<g>
		<defs>
			<rect id="SVGID_13_" x="139.8" y="35.3" width="613.6" height="863.6"/>
		</defs>
		<clipPath id="SVGID_14_">
			<use xlink:href="#SVGID_13_"  style="overflow:visible;"/>
		</clipPath>
		<path class="st8" d="M523.3,8671h61.4V381.4h-61.4V8671z"/>
	</g>
</g>
<g id="patch_10">
	<g>
		<defs>
			<rect id="SVGID_15_" x="139.8" y="35.3" width="613.6" height="863.6"/>
		</defs>
		<clipPath id="SVGID_16_">
			<use xlink:href="#SVGID_15_"  style="overflow:visible;"/>
		</clipPath>
		<path class="st9" d="M676.8,8671h61.4V420h-61.4V8671z"/>
	</g>
</g>
<g id="line2d_1">
	<g>
		<defs>
			<rect id="SVGID_17_" x="139.8" y="35.3" width="613.6" height="863.6"/>
		</defs>
		<clipPath id="SVGID_18_">
			<use xlink:href="#SVGID_17_"  style="overflow:visible;"/>
		</clipPath>
		<path class="st10" d="M185.8,387.3V223.8"/>
	</g>
</g>
<g id="line2d_2">
	<g>
		<defs>
			<rect id="SVGID_19_" x="139.8" y="35.3" width="613.6" height="863.6"/>
		</defs>
		<clipPath id="SVGID_20_">
			<use xlink:href="#SVGID_19_"  style="overflow:visible;"/>
		</clipPath>
		<path class="st11" d="M339.3,471.7V293.4"/>
	</g>
</g>
<g id="line2d_3">
	<g>
		<defs>
			<rect id="SVGID_21_" x="139.8" y="35.3" width="613.6" height="863.6"/>
		</defs>
		<clipPath id="SVGID_22_">
			<use xlink:href="#SVGID_21_"  style="overflow:visible;"/>
		</clipPath>
		<path class="st12" d="M492.7,379.6V226.5"/>
	</g>
</g>
<g id="line2d_4">
	<g>
		<defs>
			<rect id="SVGID_23_" x="139.8" y="35.3" width="613.6" height="863.6"/>
		</defs>
		<clipPath id="SVGID_24_">
			<use xlink:href="#SVGID_23_"  style="overflow:visible;"/>
		</clipPath>
		<path class="st13" d="M646.1,524.8V330.3"/>
	</g>
</g>
<g id="line2d_5">
	<g>
		<defs>
			<rect id="SVGID_25_" x="139.8" y="35.3" width="613.6" height="863.6"/>
		</defs>
		<clipPath id="SVGID_26_">
			<use xlink:href="#SVGID_25_"  style="overflow:visible;"/>
		</clipPath>
		<path class="st14" d="M247.2,373.9V196.6"/>
	</g>
</g>
<g id="line2d_6">
	<g>
		<defs>
			<rect id="SVGID_27_" x="139.8" y="35.3" width="613.6" height="863.6"/>
		</defs>
		<clipPath id="SVGID_28_">
			<use xlink:href="#SVGID_27_"  style="overflow:visible;"/>
		</clipPath>
		<path class="st15" d="M400.6,364.7V196"/>
	</g>
</g>
<g id="line2d_7">
	<g>
		<defs>
			<rect id="SVGID_29_" x="139.8" y="35.3" width="613.6" height="863.6"/>
		</defs>
		<clipPath id="SVGID_30_">
			<use xlink:href="#SVGID_29_"  style="overflow:visible;"/>
		</clipPath>
		<path class="st16" d="M554,488.5V290.7"/>
	</g>
</g>
<g id="line2d_8">
	<g>
		<defs>
			<rect id="SVGID_31_" x="139.8" y="35.3" width="613.6" height="863.6"/>
		</defs>
		<clipPath id="SVGID_32_">
			<use xlink:href="#SVGID_31_"  style="overflow:visible;"/>
		</clipPath>
		<path class="st17" d="M707.4,518.4V313.6"/>
	</g>
</g>
<g id="patch_11">
	<path class="st18" d="M139.8,898.9V35.3"/>
</g>
<g id="patch_12">
	<path class="st18" d="M139.8,898.9h613.6"/>
</g>
<g id="text_13">
	<g transform="translate(78.461364 50.146875)scale(0.6 -0.6)">
		<g>
			<path id="ArialMT-41_1_" class="st1" d="M-118.8-28.1L-83,64.9h13.3l38.1-93.1h-14L-56.6,0.1h-38.9l-10.2-28.2H-118.8z
				 M-91.9,10.1h31.5l-9.7,25.8c-3,7.8-5.2,14.3-6.6,19.3c-1.2-6-2.9-11.9-5-17.8L-91.9,10.1z"/>
		</g>
	</g>
</g>
<g id="legend_1">
	<g id="patch_13">
		<path class="st19" d="M157.1,70.8h78V43.5h-78V70.8z"/>
	</g>
	<g id="text_14">
		<g transform="translate(681.461364 142.030238)scale(0.3 -0.3)">
			<g>
				<path id="ArialMT-43_4_" class="st1" d="M-1307.3,270l12.3-3.1c-2.6-10.1-7.2-17.8-13.9-23.1c-6.7-5.3-14.9-8-24.6-8
					c-10,0-18.2,2-24.5,6.1c-6.3,4.1-11.1,10-14.3,17.8c-3.3,7.7-4.9,16.1-4.9,24.9c0,9.7,1.8,18.1,5.5,25.4
					c3.7,7.2,9,12.7,15.8,16.4c6.8,3.8,14.4,5.6,22.6,5.6c9.3,0,17.1-2.4,23.5-7.1c6.4-4.7,10.8-11.4,13.3-20l-12.1-2.9
					c-2.2,6.8-5.3,11.7-9.4,14.8c-4.1,3.1-9.3,4.7-15.5,4.7c-7.2,0-13.1-1.7-17.9-5.2c-4.8-3.4-8.2-8-10.1-13.8
					c-1.9-5.8-2.9-11.7-2.9-17.9c0-7.9,1.2-14.8,3.5-20.7c2.3-5.9,5.9-10.3,10.7-13.2c4.9-2.9,10.1-4.4,15.8-4.4
					c6.9,0,12.7,2,17.5,6C-1312.2,256.3-1309,262.2-1307.3,270z"/>
			</g>
			<g>
				<path id="ArialMT-4f" class="st1" d="M-1283.6,282.7c0,15.5,4.1,27.5,12.4,36.3c8.3,8.7,19,13.1,32.1,13.1
					c8.6,0,16.3-2.1,23.2-6.2c6.9-4.1,12.1-9.8,15.8-17.2c3.6-7.3,5.4-15.7,5.4-25c0-9.4-1.9-17.9-5.7-25.3
					c-3.8-7.4-9.2-13.1-16.2-16.9c-7-3.8-14.5-5.7-22.6-5.7c-8.8,0-16.6,2.1-23.5,6.3c-6.9,4.2-12.1,10-15.7,17.3
					C-1281.8,266.8-1283.6,274.5-1283.6,282.7z M-1270.9,282.5c0-11.2,3-20,9-26.5c6-6.4,13.6-9.7,22.7-9.7c9.3,0,16.9,3.3,22.9,9.8
					c6,6.5,9,15.8,9,27.7c0,7.6-1.3,14.2-3.8,19.8c-2.6,5.6-6.3,10-11.3,13.1c-4.9,3.1-10.5,4.7-16.6,4.7c-8.7,0-16.2-3-22.5-9
					C-1267.7,306.5-1270.9,296.5-1270.9,282.5z"/>
			</g>
		</g>
	</g>
	<g id="patch_14">
		<path class="st20" d="M157.1,126h78V98.7h-78V126z"/>
	</g>
	<g id="text_15">
		<g transform="translate(681.461364 184.466175)scale(0.3 -0.3)">
			<g>
				<path id="ArialMT-43_5_" class="st1" d="M-1307.3,227.5l12.3-3.1c-2.6-10.1-7.2-17.8-13.9-23.1s-14.9-8-24.6-8
					c-10,0-18.2,2-24.5,6.1c-6.3,4.1-11.1,10-14.3,17.8c-3.3,7.7-4.9,16.1-4.9,24.9c0,9.7,1.8,18.1,5.5,25.3
					c3.7,7.2,9,12.7,15.8,16.4c6.8,3.8,14.4,5.6,22.6,5.6c9.3,0,17.1-2.4,23.5-7.1c6.4-4.7,10.8-11.4,13.3-20l-12.1-2.9
					c-2.2,6.8-5.3,11.7-9.4,14.8c-4.1,3.1-9.3,4.7-15.5,4.7c-7.2,0-13.1-1.7-17.9-5.2c-4.8-3.4-8.2-8-10.1-13.8
					c-1.9-5.8-2.9-11.7-2.9-17.9c0-7.9,1.2-14.8,3.5-20.7c2.3-5.9,5.9-10.3,10.7-13.2c4.9-2.9,10.1-4.4,15.8-4.4
					c6.9,0,12.7,2,17.5,6C-1312.2,213.8-1309,219.7-1307.3,227.5z"/>
			</g>
			<g>
				<path id="ArialMT-44" class="st1" d="M-1279.8,194.9V288h32.1c7.2,0,12.8-0.4,16.6-1.3c5.3-1.2,9.9-3.5,13.6-6.7
					c4.9-4.2,8.6-9.5,11-15.9c2.4-6.4,3.7-13.8,3.7-22.1c0-7.1-0.8-13.3-2.5-18.8c-1.6-5.5-3.8-10-6.3-13.6
					c-2.6-3.6-5.4-6.4-8.5-8.4c-3.1-2-6.8-3.6-11.1-4.7c-4.3-1.1-9.3-1.6-14.9-1.6H-1279.8z M-1267.5,205.9h19.9
					c6.1,0,10.9,0.6,14.4,1.7c3.5,1.1,6.3,2.7,8.3,4.8c2.9,2.9,5.2,6.8,6.8,11.8s2.4,10.9,2.4,17.9c0,9.7-1.6,17.2-4.8,22.4
					s-7.1,8.7-11.6,10.5c-3.3,1.3-8.6,1.9-15.9,1.9h-19.6V205.9z"/>
			</g>
		</g>
	</g>
</g>
<g id="patch_15">
	<path class="st0" d="M876.2,898.9h613.6V35.3H876.2V898.9z"/>
</g>
<g id="matplotlib.axis_3">
	<g id="xtick_5">
		<g id="text_16">
			<g transform="translate(892.959323 994.85605)scale(0.4 -0.4)">
				<g>
					<path id="ArialMT-31_1_" class="st1" d="M37.2,145.7h-8.8v56c-2.1-2-4.9-4-8.3-6c-3.4-2-6.5-3.5-9.3-4.5v8.5
						c4.9,2.3,9.2,5.1,12.9,8.4c3.7,3.3,6.3,6.5,7.8,9.6h5.7V145.7z"/>
				</g>
			</g>
		</g>
	</g>
	<g id="xtick_6">
		<g id="text_17">
			<g transform="translate(1032.422133 994.85605)scale(0.4 -0.4)">
				<g>
					<path id="ArialMT-32_1_" class="st1" d="M50.3,154.1v-8.5H3c-0.1,2.1,0.3,4.2,1,6.1c1.2,3.2,3.1,6.4,5.8,9.5
						c2.7,3.1,6.5,6.7,11.5,10.8c7.8,6.4,13,11.4,15.8,15.2c2.7,3.7,4.1,7.3,4.1,10.6c0,3.5-1.2,6.4-3.8,8.8
						c-2.5,2.4-5.7,3.6-9.7,3.6c-4.2,0-7.6-1.3-10.2-3.8c-2.5-2.5-3.8-6-3.9-10.5l-9,0.9c0.6,6.7,2.9,11.9,7,15.4
						c4,3.5,9.5,5.3,16.3,5.3c6.9,0,12.3-1.9,16.3-5.7c4-3.8,6-8.5,6-14.2c0-2.9-0.6-5.7-1.8-8.5c-1.2-2.8-3.1-5.7-5.8-8.7
						s-7.2-7.3-13.5-12.6c-5.3-4.4-8.7-7.4-10.2-9c-1.5-1.6-2.7-3.2-3.7-4.8H50.3z"/>
				</g>
			</g>
		</g>
	</g>
	<g id="xtick_7">
		<g id="text_18">
			<g transform="translate(1171.884943 994.85605)scale(0.4 -0.4)">
				<g>
					<path id="ArialMT-33" class="st1" d="M4.2,164.5l8.8,1.2c1-5,2.7-8.6,5.2-10.8c2.4-2.2,5.4-3.3,8.9-3.3c4.1,0,7.6,1.4,10.5,4.3
						c2.9,2.9,4.3,6.4,4.3,10.7c0,4-1.3,7.4-4,10c-2.6,2.6-6,3.9-10.1,3.9c-1.7,0-3.7-0.3-6.2-1l1,7.7c0.6-0.1,1.1-0.1,1.4-0.1
						c3.8,0,7.1,1,10.1,2.9c3,2,4.5,5,4.5,9c0,3.2-1.1,5.9-3.3,8c-2.2,2.1-5,3.2-8.4,3.2c-3.4,0-6.3-1.1-8.5-3.2
						c-2.3-2.1-3.7-5.4-4.4-9.7L5.1,199c1.1,5.9,3.5,10.4,7.3,13.7c3.8,3.2,8.6,4.9,14.2,4.9c3.9,0,7.5-0.8,10.8-2.5
						c3.3-1.7,5.8-4,7.5-6.9c1.8-2.9,2.6-6,2.6-9.2c0-3.1-0.8-5.9-2.5-8.4c-1.7-2.5-4.1-4.6-7.4-6.1c4.2-1,7.5-3,9.9-6.1
						c2.3-3.1,3.5-6.9,3.5-11.5c0-6.2-2.3-11.5-6.8-15.9c-4.6-4.3-10.3-6.5-17.3-6.5c-6.3,0-11.5,1.9-15.7,5.6
						C7.2,153.8,4.8,158.6,4.2,164.5z"/>
				</g>
			</g>
		</g>
	</g>
	<g id="xtick_8">
		<g id="text_19">
			<g transform="translate(1311.347753 994.85605)scale(0.4 -0.4)">
				<g>
					<path id="ArialMT-34_1_" class="st1" d="M32.3,145.7v17.1H1.3v8.1l32.7,46.4h7.2v-46.4h9.7v-8.1h-9.7v-17.1H32.3z M32.3,170.9
						v32.3L9.9,170.9H32.3z"/>
				</g>
			</g>
		</g>
	</g>
	<g id="xtick_9">
		<g id="text_20">
			<g transform="translate(1450.810563 994.85605)scale(0.4 -0.4)">
				<g>
					<path id="ArialMT-35" class="st1" d="M4.2,164.4l9.2,0.8c0.7-4.5,2.3-7.9,4.8-10.1c2.5-2.3,5.5-3.4,9-3.4
						c4.2,0,7.8,1.6,10.7,4.8c2.9,3.2,4.4,7.4,4.4,12.7c0,5-1.4,9-4.2,11.9c-2.8,2.9-6.5,4.4-11.1,4.4c-2.8,0-5.4-0.6-7.7-1.9
						c-2.3-1.3-4.1-2.9-5.4-5l-8.2,1.1l6.9,36.8h35.6v-8.4H19.7l-3.8-19.2c4.3,3,8.8,4.5,13.5,4.5c6.2,0,11.5-2.2,15.8-6.5
						c4.3-4.3,6.5-9.9,6.5-16.7c0-6.5-1.9-12.1-5.7-16.8c-4.6-5.8-10.9-8.7-18.8-8.7c-6.5,0-11.8,1.8-16,5.5
						C7.1,153.6,4.7,158.4,4.2,164.4z"/>
				</g>
			</g>
		</g>
	</g>
	<g id="text_21">
		<g transform="translate(1116.737287 1039.016206)scale(0.45 -0.45)">
			<g>
				<path id="ArialMT-42" class="st1" d="M7.3,129.5v71.6h26.9c5.5,0,9.9-0.7,13.2-2.2c3.3-1.4,5.9-3.7,7.8-6.7
					c1.9-3,2.8-6.2,2.8-9.5c0-3.1-0.8-5.9-2.5-8.6c-1.7-2.7-4.2-4.9-7.5-6.5c4.3-1.3,7.6-3.4,10-6.5c2.3-3.1,3.5-6.7,3.5-10.8
					c0-3.4-0.7-6.5-2.1-9.4c-1.4-2.9-3.2-5.1-5.2-6.7s-4.7-2.7-7.8-3.5c-3.1-0.8-7-1.2-11.5-1.2H7.3z M16.8,171h15.5
					c4.2,0,7.2,0.3,9,0.8c2.4,0.7,4.2,1.9,5.4,3.6c1.2,1.7,1.8,3.8,1.8,6.3c0,2.4-0.6,4.5-1.7,6.3c-1.1,1.8-2.8,3.1-4.9,3.7
					c-2.1,0.7-5.7,1-10.9,1H16.8V171z M16.8,137.9h17.8c3.1,0,5.2,0.1,6.4,0.3c2.2,0.4,4,1,5.5,1.9c1.5,0.9,2.7,2.2,3.6,4
					c0.9,1.7,1.4,3.8,1.4,6c0,2.7-0.7,5-2,7c-1.4,2-3.3,3.4-5.7,4.2c-2.4,0.8-5.9,1.2-10.5,1.2H16.8V137.9z"/>
			</g>
			<g>
				<path id="ArialMT-6c_7_" class="st1" d="M73.1,129.5v71.6h8.8v-71.6H73.1z"/>
			</g>
			<g>
				<path id="ArialMT-6f_14_" class="st1" d="M92.2,155.4c0,9.6,2.7,16.7,8,21.3c4.5,3.8,9.9,5.8,16.3,5.8c7.1,0,12.9-2.3,17.5-7
					c4.5-4.7,6.8-11.1,6.8-19.4c0-6.7-1-11.9-3-15.8c-2-3.8-4.9-6.8-8.8-8.9c-3.8-2.1-8-3.2-12.5-3.2c-7.3,0-13.1,2.3-17.6,7
					C94.5,139.9,92.2,146.6,92.2,155.4z M101.3,155.4c0-6.6,1.4-11.6,4.3-14.9c2.9-3.3,6.5-5,10.9-5c4.4,0,8,1.7,10.9,5
					c2.9,3.3,4.3,8.4,4.3,15.2c0,6.4-1.5,11.3-4.4,14.6c-2.9,3.3-6.5,5-10.9,5c-4.4,0-8-1.6-10.9-4.9
					C102.7,167,101.3,162,101.3,155.4z"/>
			</g>
			<g>
				<path id="ArialMT-63_9_" class="st1" d="M185,148.5l8.6-1.1c-0.9-6-3.4-10.6-7.3-14c-3.9-3.4-8.7-5-14.3-5
					c-7.1,0-12.8,2.3-17.1,7c-4.3,4.6-6.5,11.3-6.5,20c0,5.6,0.9,10.5,2.8,14.7c1.9,4.2,4.7,7.4,8.5,9.5c3.8,2.1,7.9,3.2,12.4,3.2
					c5.6,0,10.2-1.4,13.8-4.3c3.6-2.8,5.9-6.9,6.9-12.1l-8.5-1.3c-0.8,3.5-2.3,6.1-4.3,7.9c-2.1,1.8-4.6,2.6-7.5,2.6
					c-4.4,0-8-1.6-10.8-4.8c-2.8-3.2-4.1-8.2-4.1-15c0-7,1.3-12,4-15.2c2.7-3.2,6.2-4.7,10.5-4.7c3.4,0,6.3,1.1,8.6,3.2
					C182.9,140.8,184.3,144.1,185,148.5z"/>
			</g>
			<g>
				<path id="ArialMT-6b" class="st1" d="M201.2,129.5v71.6h8.8v-40.8l20.8,21.1h11.4l-19.8-19.2l21.8-32.6h-10.8L216.2,156l-6.2-6
					v-20.6H201.2z"/>
			</g>
			<g>
				<path id="ArialMT-73" class="st1" d="M247.6,145l8.7,1.4c0.5-3.5,1.8-6.1,4.1-8c2.2-1.9,5.3-2.8,9.4-2.8c4,0,7,0.8,9,2.5
					c2,1.6,2.9,3.6,2.9,5.8c0,2-0.9,3.5-2.6,4.7c-1.2,0.8-4.2,1.8-9,3c-6.4,1.6-10.9,3-13.4,4.2c-2.5,1.2-4.4,2.8-5.7,4.9
					c-1.3,2.1-1.9,4.4-1.9,7c0,2.3,0.5,4.4,1.6,6.4c1.1,2,2.5,3.6,4.3,4.9c1.4,1,3.2,1.8,5.6,2.5c2.4,0.7,4.9,1.1,7.6,1.1
					c4.1,0,7.6-0.6,10.7-1.8c3.1-1.2,5.4-2.8,6.8-4.8c1.5-2,2.5-4.7,3-8l-8.6-1.2c-0.4,2.7-1.5,4.7-3.4,6.2
					c-1.9,1.5-4.5,2.2-7.9,2.2c-4,0-6.9-0.7-8.6-2c-1.7-1.3-2.6-2.9-2.6-4.7c0-1.1,0.4-2.2,1.1-3.1c0.7-0.9,1.8-1.7,3.4-2.3
					c0.9-0.3,3.5-1.1,7.8-2.2c6.2-1.7,10.6-3,13-4.1c2.5-1.1,4.4-2.6,5.8-4.6c1.4-2,2.1-4.5,2.1-7.5c0-2.9-0.9-5.7-2.6-8.3
					c-1.7-2.6-4.2-4.6-7.4-6c-3.2-1.4-6.9-2.1-10.9-2.1c-6.7,0-11.9,1.4-15.4,4.2C250.8,135.3,248.6,139.5,247.6,145z"/>
			</g>
		</g>
	</g>
</g>
<g id="matplotlib.axis_4">
	<g id="ytick_7">
		<g id="text_22">
			<g transform="translate(800.357386 861.271909)scale(0.4 -0.4)">
				<g>
					<path id="ArialMT-37" class="st1" d="M4.7,207.9v8.5h46.3v-6.8c-4.6-4.8-9.1-11.3-13.6-19.3c-4.5-8-7.9-16.3-10.4-24.8
						c-1.8-6-2.9-12.5-3.4-19.7h-9c0.1,5.6,1.2,12.4,3.3,20.4c2.1,8,5.2,15.7,9.1,23.1s8.2,13.6,12.6,18.7H4.7z"/>
				</g>
				<g>
					<path id="ArialMT-30_8_" class="st1" d="M59.8,181c0,8.5,0.9,15.3,2.6,20.4c1.7,5.2,4.3,9.1,7.8,11.9c3.4,2.8,7.8,4.2,13,4.2
						c3.8,0,7.2-0.8,10.1-2.3c2.9-1.5,5.3-3.8,7.2-6.7c1.9-2.9,3.4-6.5,4.5-10.6c1.1-4.2,1.6-9.8,1.6-16.9c0-8.4-0.9-15.2-2.6-20.3
						c-1.7-5.2-4.3-9.1-7.7-12c-3.4-2.8-7.8-4.2-13-4.2c-6.9,0-12.3,2.5-16.2,7.4C62.1,157.8,59.8,167.5,59.8,181z M68.8,181
						c0-11.8,1.4-19.6,4.1-23.5c2.8-3.9,6.1-5.8,10.2-5.8c4,0,7.4,2,10.2,5.9s4.1,11.7,4.1,23.4c0,11.8-1.4,19.6-4.1,23.5
						c-2.8,3.9-6.2,5.8-10.3,5.8c-4,0-7.3-1.7-9.7-5.1C70.3,200.8,68.8,192.7,68.8,181z"/>
				</g>
				<g>
					<path id="ArialMT-30_9_" class="st1" d="M115.4,181c0,8.5,0.9,15.3,2.6,20.4c1.7,5.2,4.3,9.1,7.8,11.9c3.4,2.8,7.8,4.2,13,4.2
						c3.8,0,7.2-0.8,10.1-2.3c2.9-1.5,5.3-3.8,7.2-6.7c1.9-2.9,3.4-6.5,4.5-10.6c1.1-4.2,1.6-9.8,1.6-16.9c0-8.4-0.9-15.2-2.6-20.3
						c-1.7-5.2-4.3-9.1-7.7-12c-3.4-2.8-7.8-4.2-13-4.2c-6.9,0-12.3,2.5-16.2,7.4C117.7,157.8,115.4,167.5,115.4,181z M124.4,181
						c0-11.8,1.4-19.6,4.1-23.5c2.8-3.9,6.1-5.8,10.2-5.8c4,0,7.4,2,10.2,5.9s4.1,11.7,4.1,23.4c0,11.8-1.4,19.6-4.1,23.5
						c-2.8,3.9-6.2,5.8-10.3,5.8c-4,0-7.3-1.7-9.7-5.1C125.9,200.8,124.4,192.7,124.4,181z"/>
				</g>
			</g>
		</g>
	</g>
	<g id="ytick_8">
		<g id="text_23">
			<g transform="translate(800.357386 718.036968)scale(0.4 -0.4)">
				<g>
					<path id="ArialMT-37_1_" class="st1" d="M4.7,207.9v8.5h46.3v-6.8c-4.6-4.8-9.1-11.3-13.6-19.3c-4.5-8-7.9-16.3-10.4-24.8
						c-1.8-6-2.9-12.5-3.4-19.7h-9c0.1,5.6,1.2,12.4,3.3,20.4c2.1,8,5.2,15.7,9.1,23.1s8.2,13.6,12.6,18.7H4.7z"/>
				</g>
				<g>
					<path id="ArialMT-35_1_" class="st1" d="M59.8,164.4l9.2,0.8c0.7-4.5,2.3-7.9,4.8-10.1c2.5-2.3,5.5-3.4,9-3.4
						c4.2,0,7.8,1.6,10.7,4.8c2.9,3.2,4.4,7.4,4.4,12.7c0,5-1.4,9-4.2,11.9c-2.8,2.9-6.5,4.4-11.1,4.4c-2.8,0-5.4-0.6-7.7-1.9
						c-2.3-1.3-4.1-2.9-5.4-5l-8.2,1.1l6.9,36.8h35.6v-8.4H75.3l-3.8-19.2c4.3,3,8.8,4.5,13.5,4.5c6.2,0,11.5-2.2,15.8-6.5
						c4.3-4.3,6.5-9.9,6.5-16.7c0-6.5-1.9-12.1-5.7-16.8c-4.6-5.8-10.9-8.7-18.8-8.7c-6.5,0-11.8,1.8-16,5.5
						C62.7,153.6,60.4,158.4,59.8,164.4z"/>
				</g>
				<g>
					<path id="ArialMT-30_10_" class="st1" d="M115.4,181c0,8.5,0.9,15.3,2.6,20.4c1.7,5.2,4.3,9.1,7.8,11.9c3.4,2.8,7.8,4.2,13,4.2
						c3.8,0,7.2-0.8,10.1-2.3c2.9-1.5,5.3-3.8,7.2-6.7c1.9-2.9,3.4-6.5,4.5-10.6c1.1-4.2,1.6-9.8,1.6-16.9c0-8.4-0.9-15.2-2.6-20.3
						c-1.7-5.2-4.3-9.1-7.7-12c-3.4-2.8-7.8-4.2-13-4.2c-6.9,0-12.3,2.5-16.2,7.4C117.7,157.8,115.4,167.5,115.4,181z M124.4,181
						c0-11.8,1.4-19.6,4.1-23.5c2.8-3.9,6.1-5.8,10.2-5.8c4,0,7.4,2,10.2,5.9s4.1,11.7,4.1,23.4c0,11.8-1.4,19.6-4.1,23.5
						c-2.8,3.9-6.2,5.8-10.3,5.8c-4,0-7.3-1.7-9.7-5.1C125.9,200.8,124.4,192.7,124.4,181z"/>
				</g>
			</g>
		</g>
	</g>
	<g id="ytick_9">
		<g id="text_24">
			<g transform="translate(800.357386 574.802027)scale(0.4 -0.4)">
				<g>
					<path id="ArialMT-38_1_" class="st1" d="M17.7,184.5c-3.6,1.3-6.3,3.2-8.1,5.7c-1.8,2.5-2.6,5.4-2.6,8.9
						c0,5.2,1.9,9.6,5.6,13.1c3.8,3.6,8.7,5.3,14.9,5.3c6.2,0,11.3-1.8,15.1-5.5c3.8-3.6,5.7-8,5.7-13.2c0-3.3-0.9-6.2-2.6-8.7
						c-1.7-2.4-4.4-4.3-7.9-5.7c4.4-1.4,7.7-3.7,10-6.9c2.3-3.2,3.4-7,3.4-11.4c0-6.1-2.2-11.3-6.5-15.4c-4.3-4.2-10-6.2-17.1-6.2
						s-12.8,2.1-17.1,6.3c-4.3,4.2-6.5,9.4-6.5,15.7c0,4.7,1.2,8.6,3.5,11.7C10,181.2,13.3,183.3,17.7,184.5z M15.9,199.4
						c0-3.4,1.1-6.2,3.3-8.3c2.2-2.1,5-3.2,8.5-3.2c3.4,0,6.2,1.1,8.3,3.2c2.2,2.1,3.2,4.8,3.2,7.8c0,3.2-1.1,5.9-3.4,8.1
						c-2.2,2.2-5,3.3-8.3,3.3c-3.4,0-6.1-1.1-8.4-3.2C17,204.9,15.9,202.4,15.9,199.4z M13.1,166.3c0-2.5,0.6-4.9,1.8-7.3
						s3-4.2,5.3-5.5c2.3-1.3,4.9-1.9,7.6-1.9c4.2,0,7.7,1.3,10.4,4c2.7,2.7,4.1,6.1,4.1,10.3c0,4.2-1.4,7.7-4.2,10.5
						c-2.8,2.8-6.3,4.2-10.6,4.2c-4.1,0-7.6-1.4-10.3-4.1C14.4,173.8,13.1,170.4,13.1,166.3z"/>
				</g>
				<g>
					<path id="ArialMT-30_11_" class="st1" d="M59.8,181c0,8.5,0.9,15.3,2.6,20.4c1.7,5.2,4.3,9.1,7.8,11.9c3.4,2.8,7.8,4.2,13,4.2
						c3.8,0,7.2-0.8,10.1-2.3c2.9-1.5,5.3-3.8,7.2-6.7c1.9-2.9,3.4-6.5,4.5-10.6c1.1-4.2,1.6-9.8,1.6-16.9c0-8.4-0.9-15.2-2.6-20.3
						c-1.7-5.2-4.3-9.1-7.7-12c-3.4-2.8-7.8-4.2-13-4.2c-6.9,0-12.3,2.5-16.2,7.4C62.1,157.8,59.8,167.5,59.8,181z M68.8,181
						c0-11.8,1.4-19.6,4.1-23.5c2.8-3.9,6.1-5.8,10.2-5.8c4,0,7.4,2,10.2,5.9s4.1,11.7,4.1,23.4c0,11.8-1.4,19.6-4.1,23.5
						c-2.8,3.9-6.2,5.8-10.3,5.8c-4,0-7.3-1.7-9.7-5.1C70.3,200.8,68.8,192.7,68.8,181z"/>
				</g>
				<g>
					<path id="ArialMT-30_12_" class="st1" d="M115.4,181c0,8.5,0.9,15.3,2.6,20.4c1.7,5.2,4.3,9.1,7.8,11.9c3.4,2.8,7.8,4.2,13,4.2
						c3.8,0,7.2-0.8,10.1-2.3c2.9-1.5,5.3-3.8,7.2-6.7c1.9-2.9,3.4-6.5,4.5-10.6c1.1-4.2,1.6-9.8,1.6-16.9c0-8.4-0.9-15.2-2.6-20.3
						c-1.7-5.2-4.3-9.1-7.7-12c-3.4-2.8-7.8-4.2-13-4.2c-6.9,0-12.3,2.5-16.2,7.4C117.7,157.8,115.4,167.5,115.4,181z M124.4,181
						c0-11.8,1.4-19.6,4.1-23.5c2.8-3.9,6.1-5.8,10.2-5.8c4,0,7.4,2,10.2,5.9s4.1,11.7,4.1,23.4c0,11.8-1.4,19.6-4.1,23.5
						c-2.8,3.9-6.2,5.8-10.3,5.8c-4,0-7.3-1.7-9.7-5.1C125.9,200.8,124.4,192.7,124.4,181z"/>
				</g>
			</g>
		</g>
	</g>
	<g id="ytick_10">
		<g id="text_25">
			<g transform="translate(800.357386 431.567087)scale(0.4 -0.4)">
				<g>
					<path id="ArialMT-38_2_" class="st1" d="M17.7,184.5c-3.6,1.3-6.3,3.2-8.1,5.7c-1.8,2.5-2.6,5.4-2.6,8.9
						c0,5.2,1.9,9.6,5.6,13.1c3.8,3.6,8.7,5.3,14.9,5.3c6.2,0,11.3-1.8,15.1-5.5c3.8-3.6,5.7-8,5.7-13.2c0-3.3-0.9-6.2-2.6-8.7
						c-1.7-2.4-4.4-4.3-7.9-5.7c4.4-1.4,7.7-3.7,10-6.9c2.3-3.2,3.4-7,3.4-11.4c0-6.1-2.2-11.3-6.5-15.4c-4.3-4.2-10-6.2-17.1-6.2
						s-12.8,2.1-17.1,6.3c-4.3,4.2-6.5,9.4-6.5,15.7c0,4.7,1.2,8.6,3.5,11.7C10,181.2,13.3,183.3,17.7,184.5z M15.9,199.4
						c0-3.4,1.1-6.2,3.3-8.3c2.2-2.1,5-3.2,8.5-3.2c3.4,0,6.2,1.1,8.3,3.2c2.2,2.1,3.2,4.8,3.2,7.8c0,3.2-1.1,5.9-3.4,8.1
						c-2.2,2.2-5,3.3-8.3,3.3c-3.4,0-6.1-1.1-8.4-3.2C17,204.9,15.9,202.4,15.9,199.4z M13.1,166.3c0-2.5,0.6-4.9,1.8-7.3
						s3-4.2,5.3-5.5c2.3-1.3,4.9-1.9,7.6-1.9c4.2,0,7.7,1.3,10.4,4c2.7,2.7,4.1,6.1,4.1,10.3c0,4.2-1.4,7.7-4.2,10.5
						c-2.8,2.8-6.3,4.2-10.6,4.2c-4.1,0-7.6-1.4-10.3-4.1C14.4,173.8,13.1,170.4,13.1,166.3z"/>
				</g>
				<g>
					<path id="ArialMT-35_2_" class="st1" d="M59.8,164.4l9.2,0.8c0.7-4.5,2.3-7.9,4.8-10.1c2.5-2.3,5.5-3.4,9-3.4
						c4.2,0,7.8,1.6,10.7,4.8c2.9,3.2,4.4,7.4,4.4,12.7c0,5-1.4,9-4.2,11.9c-2.8,2.9-6.5,4.4-11.1,4.4c-2.8,0-5.4-0.6-7.7-1.9
						c-2.3-1.3-4.1-2.9-5.4-5l-8.2,1.1l6.9,36.8h35.6v-8.4H75.3l-3.8-19.2c4.3,3,8.8,4.5,13.5,4.5c6.2,0,11.5-2.2,15.8-6.5
						c4.3-4.3,6.5-9.9,6.5-16.7c0-6.5-1.9-12.1-5.7-16.8c-4.6-5.8-10.9-8.7-18.8-8.7c-6.5,0-11.8,1.8-16,5.5
						C62.7,153.6,60.4,158.4,59.8,164.4z"/>
				</g>
				<g>
					<path id="ArialMT-30_13_" class="st1" d="M115.4,181c0,8.5,0.9,15.3,2.6,20.4c1.7,5.2,4.3,9.1,7.8,11.9c3.4,2.8,7.8,4.2,13,4.2
						c3.8,0,7.2-0.8,10.1-2.3c2.9-1.5,5.3-3.8,7.2-6.7c1.9-2.9,3.4-6.5,4.5-10.6c1.1-4.2,1.6-9.8,1.6-16.9c0-8.4-0.9-15.2-2.6-20.3
						c-1.7-5.2-4.3-9.1-7.7-12c-3.4-2.8-7.8-4.2-13-4.2c-6.9,0-12.3,2.5-16.2,7.4C117.7,157.8,115.4,167.5,115.4,181z M124.4,181
						c0-11.8,1.4-19.6,4.1-23.5c2.8-3.9,6.1-5.8,10.2-5.8c4,0,7.4,2,10.2,5.9s4.1,11.7,4.1,23.4c0,11.8-1.4,19.6-4.1,23.5
						c-2.8,3.9-6.2,5.8-10.3,5.8c-4,0-7.3-1.7-9.7-5.1C125.9,200.8,124.4,192.7,124.4,181z"/>
				</g>
			</g>
		</g>
	</g>
	<g id="ytick_11">
		<g id="text_26">
			<g transform="translate(800.357386 288.332146)scale(0.4 -0.4)">
				<g>
					<path id="ArialMT-39_5_" class="st1" d="M5.5,162.2l8.5,0.8c0.7-4,2.1-6.8,4.1-8.6c2-1.8,4.6-2.7,7.8-2.7
						c2.7,0,5.1,0.6,7.1,1.9c2,1.2,3.7,2.9,5,5c1.3,2.1,2.4,4.9,3.3,8.4c0.9,3.5,1.3,7.1,1.3,10.8c0,0.4,0,1,0,1.8
						c-1.8-2.8-4.2-5.1-7.2-6.8c-3-1.7-6.3-2.6-9.9-2.6c-5.9,0-10.9,2.1-15,6.4c-4.1,4.3-6.1,10-6.1,17c0,7.3,2.1,13.1,6.4,17.5
						c4.3,4.4,9.6,6.6,16.1,6.6c4.7,0,8.9-1.3,12.8-3.8c3.9-2.5,6.8-6.1,8.8-10.7c2-4.6,3-11.3,3-20.1c0-9.1-1-16.4-3-21.8
						c-2-5.4-4.9-9.5-8.9-12.4c-3.9-2.8-8.5-4.2-13.8-4.2c-5.6,0-10.2,1.6-13.7,4.7C8.3,152.2,6.2,156.6,5.5,162.2z M41.5,193.8
						c0,5.1-1.3,9.1-4,12c-2.7,3-5.9,4.4-9.7,4.4c-3.9,0-7.3-1.6-10.2-4.8s-4.3-7.3-4.3-12.4c0-4.6,1.4-8.3,4.1-11.1
						c2.8-2.8,6.1-4.3,10.2-4.3c4.1,0,7.4,1.4,10,4.3C40.1,184.8,41.5,188.8,41.5,193.8z"/>
				</g>
				<g>
					<path id="ArialMT-30_14_" class="st1" d="M59.8,181c0,8.5,0.9,15.3,2.6,20.4c1.7,5.2,4.3,9.1,7.8,11.9c3.4,2.8,7.8,4.2,13,4.2
						c3.8,0,7.2-0.8,10.1-2.3c2.9-1.5,5.3-3.8,7.2-6.7c1.9-2.9,3.4-6.5,4.5-10.6c1.1-4.2,1.6-9.8,1.6-16.9c0-8.4-0.9-15.2-2.6-20.3
						c-1.7-5.2-4.3-9.1-7.7-12c-3.4-2.8-7.8-4.2-13-4.2c-6.9,0-12.3,2.5-16.2,7.4C62.1,157.8,59.8,167.5,59.8,181z M68.8,181
						c0-11.8,1.4-19.6,4.1-23.5c2.8-3.9,6.1-5.8,10.2-5.8c4,0,7.4,2,10.2,5.9s4.1,11.7,4.1,23.4c0,11.8-1.4,19.6-4.1,23.5
						c-2.8,3.9-6.2,5.8-10.3,5.8c-4,0-7.3-1.7-9.7-5.1C70.3,200.8,68.8,192.7,68.8,181z"/>
				</g>
				<g>
					<path id="ArialMT-30_15_" class="st1" d="M115.4,181c0,8.5,0.9,15.3,2.6,20.4c1.7,5.2,4.3,9.1,7.8,11.9c3.4,2.8,7.8,4.2,13,4.2
						c3.8,0,7.2-0.8,10.1-2.3c2.9-1.5,5.3-3.8,7.2-6.7c1.9-2.9,3.4-6.5,4.5-10.6c1.1-4.2,1.6-9.8,1.6-16.9c0-8.4-0.9-15.2-2.6-20.3
						c-1.7-5.2-4.3-9.1-7.7-12c-3.4-2.8-7.8-4.2-13-4.2c-6.9,0-12.3,2.5-16.2,7.4C117.7,157.8,115.4,167.5,115.4,181z M124.4,181
						c0-11.8,1.4-19.6,4.1-23.5c2.8-3.9,6.1-5.8,10.2-5.8c4,0,7.4,2,10.2,5.9s4.1,11.7,4.1,23.4c0,11.8-1.4,19.6-4.1,23.5
						c-2.8,3.9-6.2,5.8-10.3,5.8c-4,0-7.3-1.7-9.7-5.1C125.9,200.8,124.4,192.7,124.4,181z"/>
				</g>
			</g>
		</g>
	</g>
	<g id="ytick_12">
		<g id="text_27">
			<g transform="translate(800.357386 145.097205)scale(0.4 -0.4)">
				<g>
					<path id="ArialMT-39_6_" class="st1" d="M5.5,162.2l8.5,0.8c0.7-4,2.1-6.8,4.1-8.6c2-1.8,4.6-2.7,7.8-2.7
						c2.7,0,5.1,0.6,7.1,1.9c2,1.2,3.7,2.9,5,5c1.3,2.1,2.4,4.9,3.3,8.4c0.9,3.5,1.3,7.1,1.3,10.8c0,0.4,0,1,0,1.8
						c-1.8-2.8-4.2-5.1-7.2-6.8c-3-1.7-6.3-2.6-9.9-2.6c-5.9,0-10.9,2.1-15,6.4c-4.1,4.3-6.1,10-6.1,17c0,7.3,2.1,13.1,6.4,17.5
						c4.3,4.4,9.6,6.6,16.1,6.6c4.7,0,8.9-1.3,12.8-3.8c3.9-2.5,6.8-6.1,8.8-10.7c2-4.6,3-11.3,3-20.1c0-9.1-1-16.4-3-21.8
						c-2-5.4-4.9-9.5-8.9-12.4c-3.9-2.8-8.5-4.2-13.8-4.2c-5.6,0-10.2,1.6-13.7,4.7C8.3,152.2,6.2,156.6,5.5,162.2z M41.5,193.8
						c0,5.1-1.3,9.1-4,12c-2.7,3-5.9,4.4-9.7,4.4c-3.9,0-7.3-1.6-10.2-4.8s-4.3-7.3-4.3-12.4c0-4.6,1.4-8.3,4.1-11.1
						c2.8-2.8,6.1-4.3,10.2-4.3c4.1,0,7.4,1.4,10,4.3C40.1,184.8,41.5,188.8,41.5,193.8z"/>
				</g>
				<g>
					<path id="ArialMT-35_3_" class="st1" d="M59.8,164.4l9.2,0.8c0.7-4.5,2.3-7.9,4.8-10.1c2.5-2.3,5.5-3.4,9-3.4
						c4.2,0,7.8,1.6,10.7,4.8c2.9,3.2,4.4,7.4,4.4,12.7c0,5-1.4,9-4.2,11.9c-2.8,2.9-6.5,4.4-11.1,4.4c-2.8,0-5.4-0.6-7.7-1.9
						c-2.3-1.3-4.1-2.9-5.4-5l-8.2,1.1l6.9,36.8h35.6v-8.4H75.3l-3.8-19.2c4.3,3,8.8,4.5,13.5,4.5c6.2,0,11.5-2.2,15.8-6.5
						c4.3-4.3,6.5-9.9,6.5-16.7c0-6.5-1.9-12.1-5.7-16.8c-4.6-5.8-10.9-8.7-18.8-8.7c-6.5,0-11.8,1.8-16,5.5
						C62.7,153.6,60.4,158.4,59.8,164.4z"/>
				</g>
				<g>
					<path id="ArialMT-30_16_" class="st1" d="M115.4,181c0,8.5,0.9,15.3,2.6,20.4c1.7,5.2,4.3,9.1,7.8,11.9c3.4,2.8,7.8,4.2,13,4.2
						c3.8,0,7.2-0.8,10.1-2.3c2.9-1.5,5.3-3.8,7.2-6.7c1.9-2.9,3.4-6.5,4.5-10.6c1.1-4.2,1.6-9.8,1.6-16.9c0-8.4-0.9-15.2-2.6-20.3
						c-1.7-5.2-4.3-9.1-7.7-12c-3.4-2.8-7.8-4.2-13-4.2c-6.9,0-12.3,2.5-16.2,7.4C117.7,157.8,115.4,167.5,115.4,181z M124.4,181
						c0-11.8,1.4-19.6,4.1-23.5c2.8-3.9,6.1-5.8,10.2-5.8c4,0,7.4,2,10.2,5.9s4.1,11.7,4.1,23.4c0,11.8-1.4,19.6-4.1,23.5
						c-2.8,3.9-6.2,5.8-10.3,5.8c-4,0-7.3-1.7-9.7-5.1C125.9,200.8,124.4,192.7,124.4,181z"/>
				</g>
			</g>
		</g>
	</g>
	<g id="text_28">
		<g transform="translate(786.886293 668.300175)rotate(-90)scale(0.45 -0.45)">
			<g>
				<path id="ArialMT-4d" class="st1" d="M136.9,0v71.6h14.3l16.9-50.7c1.6-4.7,2.7-8.3,3.4-10.6c0.8,2.6,2.1,6.4,3.8,11.5
					l17.1,49.8h12.8V0h-9.1v59.9L175.3,0h-8.5L146,60.9V0H136.9z"/>
			</g>
			<g>
				<path id="ArialMT-65_5_" class="st1" d="M254.9,16.7l9.1-1.1c-1.4-5.3-4.1-9.4-8-12.4c-3.9-2.9-8.8-4.4-14.8-4.4
					c-7.6,0-13.6,2.3-18,7c-4.4,4.7-6.7,11.2-6.7,19.7c0,8.7,2.2,15.5,6.7,20.3c4.5,4.8,10.3,7.2,17.5,7.2c6.9,0,12.6-2.4,17-7.1
					c4.4-4.7,6.6-11.4,6.6-19.9c0-0.5,0-1.3,0-2.3h-38.7c0.3-5.7,1.9-10.1,4.8-13.1c2.9-3,6.5-4.5,10.8-4.5c3.2,0,6,0.8,8.2,2.5
					C251.7,10.3,253.5,13,254.9,16.7z M226,30.9h29c-0.4,4.4-1.5,7.6-3.3,9.8c-2.8,3.4-6.4,5.1-10.9,5.1c-4,0-7.4-1.3-10.2-4
					S226.3,35.4,226,30.9z"/>
			</g>
			<g>
				<path id="ArialMT-61_1_" class="st1" d="M308.8,6.4c-3.3-2.8-6.4-4.7-9.4-5.9c-3-1.1-6.2-1.7-9.7-1.7c-5.7,0-10.1,1.4-13.1,4.2
					S272,9.3,272,13.7c0,2.5,0.6,4.9,1.7,7c1.2,2.1,2.7,3.8,4.5,5.1s4,2.2,6.3,2.9c1.7,0.5,4.3,0.9,7.8,1.3c7.1,0.8,12.3,1.8,15.7,3
					c0,1.2,0,2,0,2.3c0,3.6-0.8,6.1-2.5,7.6c-2.2,2-5.6,3-10,3c-4.1,0-7.2-0.7-9.2-2.2s-3.4-4-4.4-7.7l-8.6,1.2
					c0.8,3.7,2.1,6.6,3.9,8.9c1.8,2.3,4.4,4,7.8,5.2c3.4,1.2,7.3,1.8,11.8,1.8c4.4,0,8-0.5,10.8-1.6c2.8-1,4.8-2.4,6.1-3.9
					c1.3-1.6,2.2-3.6,2.7-6c0.3-1.5,0.4-4.2,0.4-8.1V21.7c0-8.2,0.2-13.3,0.6-15.5c0.4-2.2,1.1-4.2,2.2-6.2h-9.2
					C309.7,1.8,309.1,4,308.8,6.4z M308.1,26c-3.2-1.3-8-2.4-14.4-3.3c-3.6-0.5-6.2-1.1-7.7-1.8c-1.5-0.6-2.6-1.6-3.5-2.8
					c-0.8-1.2-1.2-2.6-1.2-4.2c0-2.3,0.9-4.3,2.7-5.9c1.8-1.6,4.4-2.3,7.8-2.3c3.4,0,6.4,0.7,9,2.2c2.6,1.5,4.6,3.5,5.8,6.1
					c0.9,2,1.4,4.9,1.4,8.8V26z"/>
			</g>
			<g>
				<path id="ArialMT-6e_4_" class="st1" d="M330.6,0v51.9h7.9v-7.4c3.8,5.7,9.3,8.5,16.5,8.5c3.1,0,6-0.6,8.6-1.7s4.6-2.6,5.9-4.4
					s2.2-4,2.7-6.5c0.3-1.6,0.5-4.5,0.5-8.5V0h-8.8v31.5c0,3.6-0.3,6.3-1,8c-0.7,1.8-1.9,3.2-3.6,4.2c-1.7,1.1-3.8,1.6-6.1,1.6
					c-3.8,0-7-1.2-9.7-3.6s-4.1-6.9-4.1-13.5V0H330.6z"/>
			</g>
			<g>
				<path id="ArialMT-20_8_" class="st1" d="M379.6,0"/>
			</g>
			<g>
				<path id="ArialMT-52_4_" class="st1" d="M415.3,0v71.6H447c6.4,0,11.2-0.6,14.5-1.9c3.3-1.3,6-3.6,8-6.8c2-3.2,3-6.8,3-10.8
					c0-5.1-1.6-9.4-4.9-12.8c-3.3-3.5-8.4-5.7-15.2-6.6c2.5-1.2,4.4-2.4,5.7-3.6c2.8-2.5,5.4-5.7,7.9-9.5L478.4,0h-11.9L457,14.9
					c-2.8,4.3-5.1,7.6-6.8,9.9c-1.8,2.3-3.4,3.9-4.8,4.8c-1.4,0.9-2.9,1.6-4.3,1.9c-1.1,0.2-2.8,0.3-5.3,0.3h-11V0H415.3z M424.7,40
					h20.4c4.3,0,7.7,0.4,10.1,1.3c2.4,0.9,4.3,2.3,5.6,4.3s1.9,4.1,1.9,6.4c0,3.4-1.2,6.2-3.7,8.3c-2.5,2.2-6.3,3.3-11.7,3.3h-22.7
					V40z"/>
			</g>
			<g>
				<path id="ArialMT-54_4_" class="st1" d="M503.8,0v63.1h-23.6v8.4h56.7v-8.4h-23.7V0H503.8z"/>
			</g>
			<g>
				<path id="ArialMT-20_9_" class="st1" d="M537.2,0"/>
			</g>
			<g>
				<path id="ArialMT-28" class="st1" d="M588.4-21c-4.9,6.1-9,13.3-12.3,21.5c-3.3,8.2-5,16.7-5,25.5c0,7.8,1.2,15.2,3.8,22.3
					c2.9,8.2,7.5,16.4,13.6,24.6h6.3c-3.9-6.8-6.5-11.6-7.8-14.5c-2-4.5-3.6-9.2-4.7-14.1c-1.4-6.1-2.1-12.2-2.1-18.4
					c0-15.7,4.9-31.3,14.6-46.9H588.4z"/>
			</g>
			<g>
				<path id="ArialMT-6d" class="st1" d="M604.9,0v51.9h7.9v-7.3c1.6,2.5,3.8,4.6,6.5,6.1c2.7,1.6,5.8,2.3,9.2,2.3
					c3.8,0,7-0.8,9.5-2.4s4.2-3.8,5.2-6.7c4.1,6.1,9.4,9.1,16,9.1c5.1,0,9.1-1.4,11.9-4.3c2.8-2.8,4.2-7.2,4.2-13.2V0h-8.8v32.7
					c0,3.5-0.3,6-0.9,7.6c-0.6,1.6-1.6,2.8-3.1,3.7c-1.5,0.9-3.2,1.4-5.3,1.4c-3.6,0-6.7-1.2-9.1-3.6c-2.4-2.4-3.6-6.3-3.6-11.6V0
					h-8.8v33.7c0,3.9-0.7,6.8-2.2,8.8c-1.4,2-3.8,2.9-7,2.9c-2.5,0-4.8-0.7-6.9-2c-2.1-1.3-3.6-3.2-4.6-5.7
					c-0.9-2.5-1.4-6.1-1.4-10.8V0H604.9z"/>
			</g>
			<g>
				<path id="ArialMT-73_1_" class="st1" d="M684.7,15.5l8.7,1.4c0.5-3.5,1.8-6.1,4.1-8s5.3-2.8,9.4-2.8c4,0,7,0.8,9,2.5
					c2,1.6,2.9,3.6,2.9,5.8c0,2-0.9,3.5-2.6,4.7c-1.2,0.8-4.2,1.8-9,3c-6.4,1.6-10.9,3-13.4,4.2s-4.4,2.8-5.7,4.9
					c-1.3,2.1-1.9,4.4-1.9,7c0,2.3,0.5,4.4,1.6,6.4c1.1,2,2.5,3.6,4.3,4.9c1.4,1,3.2,1.8,5.6,2.5c2.4,0.7,4.9,1.1,7.6,1.1
					c4.1,0,7.6-0.6,10.7-1.8c3.1-1.2,5.4-2.8,6.8-4.8c1.5-2,2.5-4.7,3-8l-8.6-1.2c-0.4,2.7-1.5,4.7-3.4,6.2
					c-1.9,1.5-4.5,2.2-7.9,2.2c-4,0-6.9-0.7-8.6-2s-2.6-2.9-2.6-4.7c0-1.1,0.4-2.2,1.1-3.1c0.7-0.9,1.8-1.7,3.4-2.3
					c0.9-0.3,3.5-1.1,7.8-2.2c6.2-1.7,10.6-3,13-4.1c2.5-1.1,4.4-2.6,5.8-4.6c1.4-2,2.1-4.5,2.1-7.5c0-2.9-0.9-5.7-2.6-8.3
					c-1.7-2.6-4.2-4.6-7.4-6c-3.2-1.4-6.9-2.1-10.9-2.1c-6.7,0-11.9,1.4-15.4,4.2S685.6,10,684.7,15.5z"/>
			</g>
			<g>
				<path id="ArialMT-29" class="st1" d="M743.9-21h-6.3c9.7,15.6,14.6,31.3,14.6,46.9c0,6.1-0.7,12.2-2.1,18.2
					c-1.1,4.9-2.7,9.6-4.6,14.1c-1.3,2.9-3.9,7.8-7.9,14.6h6.3c6.1-8.2,10.6-16.4,13.6-24.6c2.5-7.1,3.8-14.5,3.8-22.3
					c0-8.8-1.7-17.3-5.1-25.5C752.8-7.8,748.8-14.9,743.9-21z"/>
			</g>
		</g>
	</g>
</g>
<g id="line2d_9">
	<g>
		<defs>
			<rect id="SVGID_33_" x="876.2" y="35.3" width="613.6" height="863.6"/>
		</defs>
		<clipPath id="SVGID_34_">
			<use xlink:href="#SVGID_33_"  style="overflow:visible;"/>
		</clipPath>
		<path class="st21" d="M904.1,698.5l139.5,73.6l139.5,10.8l139.5,26.4l139.5,13.3"/>
	</g>
</g>
<g id="LineCollection_1">
	<g>
		<defs>
			<rect id="SVGID_35_" x="876.2" y="35.3" width="613.6" height="863.6"/>
		</defs>
		<clipPath id="SVGID_36_">
			<use xlink:href="#SVGID_35_"  style="overflow:visible;"/>
		</clipPath>
		<path class="st22" d="M904.1,738v-80.9"/>
	</g>
	<g>
		<defs>
			<rect id="SVGID_37_" x="876.2" y="35.3" width="613.6" height="863.6"/>
		</defs>
		<clipPath id="SVGID_38_">
			<use xlink:href="#SVGID_37_"  style="overflow:visible;"/>
		</clipPath>
		<path class="st23" d="M1043.5,809.9v-77.7"/>
	</g>
	<g>
		<defs>
			<rect id="SVGID_39_" x="876.2" y="35.3" width="613.6" height="863.6"/>
		</defs>
		<clipPath id="SVGID_40_">
			<use xlink:href="#SVGID_39_"  style="overflow:visible;"/>
		</clipPath>
		<path class="st24" d="M1183,822.7v-78.6"/>
	</g>
	<g>
		<defs>
			<rect id="SVGID_41_" x="876.2" y="35.3" width="613.6" height="863.6"/>
		</defs>
		<clipPath id="SVGID_42_">
			<use xlink:href="#SVGID_41_"  style="overflow:visible;"/>
		</clipPath>
		<path class="st25" d="M1322.5,848.1v-76.3"/>
	</g>
	<g>
		<defs>
			<rect id="SVGID_43_" x="876.2" y="35.3" width="613.6" height="863.6"/>
		</defs>
		<clipPath id="SVGID_44_">
			<use xlink:href="#SVGID_43_"  style="overflow:visible;"/>
		</clipPath>
		<path class="st26" d="M1461.9,859.6v-75.4"/>
	</g>
</g>
<g id="line2d_10">
	<g>
		<defs>
			<rect id="SVGID_45_" x="876.2" y="35.3" width="613.6" height="863.6"/>
		</defs>
		<clipPath id="SVGID_46_">
			<use xlink:href="#SVGID_45_"  style="overflow:visible;"/>
		</clipPath>
		<path class="st27" d="M904.1,122.7l139.5,45.7l139.5-3l139.5,47.5l139.5,60.6"/>
	</g>
</g>
<g id="LineCollection_2">
	<g>
		<defs>
			<rect id="SVGID_47_" x="876.2" y="35.3" width="613.6" height="863.6"/>
		</defs>
		<clipPath id="SVGID_48_">
			<use xlink:href="#SVGID_47_"  style="overflow:visible;"/>
		</clipPath>
		<path class="st28" d="M904.1,173.3V74.5"/>
	</g>
	<g>
		<defs>
			<rect id="SVGID_49_" x="876.2" y="35.3" width="613.6" height="863.6"/>
		</defs>
		<clipPath id="SVGID_50_">
			<use xlink:href="#SVGID_49_"  style="overflow:visible;"/>
		</clipPath>
		<path class="st29" d="M1043.5,216.1v-95.4"/>
	</g>
	<g>
		<defs>
			<rect id="SVGID_51_" x="876.2" y="35.3" width="613.6" height="863.6"/>
		</defs>
		<clipPath id="SVGID_52_">
			<use xlink:href="#SVGID_51_"  style="overflow:visible;"/>
		</clipPath>
		<path class="st30" d="M1183,214.6v-96"/>
	</g>
	<g>
		<defs>
			<rect id="SVGID_53_" x="876.2" y="35.3" width="613.6" height="863.6"/>
		</defs>
		<clipPath id="SVGID_54_">
			<use xlink:href="#SVGID_53_"  style="overflow:visible;"/>
		</clipPath>
		<path class="st31" d="M1322.5,259v-92.8"/>
	</g>
	<g>
		<defs>
			<rect id="SVGID_55_" x="876.2" y="35.3" width="613.6" height="863.6"/>
		</defs>
		<clipPath id="SVGID_56_">
			<use xlink:href="#SVGID_55_"  style="overflow:visible;"/>
		</clipPath>
		<path class="st32" d="M1461.9,324.6V223.3"/>
	</g>
</g>
<g id="line2d_11">
</g>
<g id="line2d_12">
</g>
<g id="line2d_13">
</g>
<g id="line2d_14">
</g>
<g id="patch_16">
	<path class="st18" d="M876.2,898.9V35.3"/>
</g>
<g id="patch_17">
	<path class="st18" d="M876.2,898.9h613.6"/>
</g>
<g id="text_29">
	<g transform="translate(814.825 50.146875)scale(0.6 -0.6)">
		<g>
			<path id="ArialMT-42_1_" class="st1" d="M-108.5-28.1v93.1h34.9c7.1,0,12.8-0.9,17.1-2.8c4.3-1.9,7.7-4.8,10.1-8.7
				c2.4-3.9,3.7-8,3.7-12.3c0-4-1.1-7.7-3.2-11.2c-2.2-3.5-5.4-6.3-9.8-8.5c5.6-1.7,9.9-4.5,13-8.4c3-4,4.5-8.7,4.5-14.1
				c0-4.4-0.9-8.4-2.8-12.2c-1.8-3.7-4.1-6.6-6.8-8.7s-6.1-3.6-10.2-4.6c-4.1-1-9.1-1.5-15-1.5H-108.5z M-96.2,25.8h20.1
				c5.5,0,9.4,0.4,11.7,1.1c3.1,0.9,5.5,2.5,7.1,4.6c1.6,2.2,2.4,4.9,2.4,8.1c0,3.1-0.7,5.8-2.2,8.1c-1.5,2.4-3.6,4-6.4,4.8
				c-2.7,0.9-7.5,1.3-14.1,1.3h-18.6V25.8z M-96.2-17.1h23.2c4,0,6.8,0.1,8.4,0.4c2.8,0.5,5.2,1.3,7.1,2.5c1.9,1.2,3.5,2.9,4.7,5.2
				c1.2,2.3,1.8,4.9,1.8,7.8c0,3.5-0.9,6.5-2.7,9c-1.8,2.6-4.2,4.4-7.4,5.4c-3.2,1-7.7,1.6-13.6,1.6h-21.5V-17.1z"/>
		</g>
	</g>
</g>
<g id="legend_2">
	<g id="line2d_15">
		<path class="st33" d="M1318.6,57.5h39h39"/>
	</g>
	<g id="text_30">
		<g transform="translate(1417.825 142.030238)scale(0.3 -0.3)">
			<g>
				<path id="ArialMT-43_6_" class="st1" d="M109.6,269l12.3-3.1c-2.6-10.1-7.2-17.8-13.9-23.1s-14.9-8-24.6-8
					c-10,0-18.2,2-24.5,6.1c-6.3,4.1-11.1,10-14.3,17.8c-3.3,7.7-4.9,16.1-4.9,24.9c0,9.7,1.8,18.1,5.5,25.4
					c3.7,7.2,9,12.7,15.8,16.4c6.8,3.8,14.4,5.6,22.6,5.6c9.3,0,17.1-2.4,23.5-7.1c6.4-4.7,10.8-11.4,13.3-20l-12.1-2.9
					c-2.2,6.8-5.3,11.7-9.4,14.8c-4.1,3.1-9.3,4.7-15.5,4.7c-7.1,0-13.1-1.7-17.9-5.2c-4.8-3.4-8.2-8-10.1-13.8
					c-1.9-5.8-2.9-11.7-2.9-17.9c0-7.9,1.2-14.8,3.5-20.7c2.3-5.9,5.9-10.3,10.7-13.2c4.9-2.9,10.1-4.4,15.8-4.4
					c6.9,0,12.7,2,17.5,6C104.7,255.2,108,261.1,109.6,269z"/>
			</g>
			<g>
				<path id="ArialMT-4f_1_" class="st1" d="M133.4,281.7c0,15.5,4.1,27.5,12.4,36.3c8.3,8.7,19,13.1,32.1,13.1
					c8.6,0,16.3-2.1,23.2-6.2c6.9-4.1,12.1-9.8,15.8-17.2c3.6-7.3,5.4-15.7,5.4-25c0-9.4-1.9-17.9-5.7-25.3
					c-3.8-7.4-9.2-13.1-16.2-16.9c-7-3.8-14.5-5.7-22.6-5.7c-8.8,0-16.6,2.1-23.5,6.3c-6.9,4.2-12.1,10-15.7,17.3
					C135.1,265.8,133.4,273.5,133.4,281.7z M146.1,281.5c0-11.2,3-20,9-26.5c6-6.4,13.6-9.7,22.7-9.7c9.3,0,16.9,3.3,22.9,9.8
					c6,6.5,9,15.8,9,27.7c0,7.6-1.3,14.2-3.8,19.8c-2.6,5.6-6.3,10-11.3,13.1c-4.9,3.1-10.5,4.7-16.6,4.7c-8.7,0-16.2-3-22.5-9
					C149.2,305.5,146.1,295.5,146.1,281.5z"/>
			</g>
		</g>
	</g>
	<g id="line2d_16">
		<path class="st34" d="M1318.6,112.6h39h39"/>
	</g>
	<g id="text_31">
		<g transform="translate(1417.825 184.466175)scale(0.3 -0.3)">
			<g>
				<path id="ArialMT-43_7_" class="st1" d="M109.6,226.5l12.3-3.1c-2.6-10.1-7.2-17.8-13.9-23.1s-14.9-8-24.6-8
					c-10,0-18.2,2-24.5,6.1c-6.3,4.1-11.1,10-14.3,17.8s-4.9,16.1-4.9,24.9c0,9.7,1.8,18.1,5.5,25.4c3.7,7.2,9,12.7,15.8,16.4
					c6.8,3.8,14.4,5.6,22.6,5.6c9.3,0,17.1-2.4,23.5-7.1c6.4-4.7,10.8-11.4,13.3-20l-12.1-2.9c-2.2,6.8-5.3,11.7-9.4,14.8
					c-4.1,3.1-9.3,4.7-15.5,4.7c-7.1,0-13.1-1.7-17.9-5.2c-4.8-3.4-8.2-8-10.1-13.8c-1.9-5.8-2.9-11.7-2.9-17.9
					c0-7.9,1.2-14.8,3.5-20.7c2.3-5.9,5.9-10.3,10.7-13.2c4.9-2.9,10.1-4.4,15.8-4.4c6.9,0,12.7,2,17.5,6
					C104.7,212.8,108,218.7,109.6,226.5z"/>
			</g>
			<g>
				<path id="ArialMT-44_1_" class="st1" d="M137.1,193.9V287h32.1c7.2,0,12.8-0.4,16.6-1.3c5.3-1.2,9.9-3.5,13.6-6.7
					c4.9-4.2,8.6-9.5,11-15.9c2.4-6.4,3.7-13.8,3.7-22.1c0-7.1-0.8-13.3-2.5-18.8c-1.6-5.5-3.8-10-6.3-13.6
					c-2.6-3.6-5.4-6.4-8.5-8.4c-3.1-2-6.8-3.6-11.1-4.7c-4.3-1.1-9.3-1.6-14.9-1.6H137.1z M149.4,204.9h19.9
					c6.1,0,10.9,0.6,14.4,1.7s6.3,2.7,8.3,4.8c2.9,2.9,5.2,6.8,6.8,11.8s2.4,10.9,2.4,17.9c0,9.7-1.6,17.2-4.8,22.4
					s-7.1,8.7-11.6,10.5c-3.3,1.3-8.6,1.9-15.9,1.9h-19.6V204.9z"/>
			</g>
		</g>
	</g>
</g>
<text transform="matrix(1 0 0 1 197.6205 981.2809)" class="st35 st36">high cloze</text>
<text transform="matrix(1 0 0 1 517.1353 981.2813)" class="st35 st36">low cloze</text>
<text transform="matrix(1 0 0 1 157.146 932.1124)" class="st35 st37">static</text>
<text transform="matrix(1 0 0 1 288.2876 932.1121)" class="st35 st37">dynamic</text>
<text transform="matrix(1 0 0 1 482.2573 932.1126)" class="st35 st37">static</text>
<text transform="matrix(1 0 0 1 613.3988 932.1124)" class="st35 st37">dynamic</text>
</svg>
