<?xml version="1.0" encoding="utf-8"?>
<!-- Generator: Adobe Illustrator 24.1.0, SVG Export Plug-In . SVG Version: 6.00 Build 0)  -->
<svg version="1.1" id="Layer_1" xmlns="http://www.w3.org/2000/svg" xmlns:xlink="http://www.w3.org/1999/xlink" x="0px" y="0px"
	 viewBox="0 0 1508.7 1032.2" style="enable-background:new 0 0 1508.7 1032.2;" xml:space="preserve">
<style type="text/css">
	.st0{fill:#262626;}
	.st1{clip-path:url(#SVGID_2_);fill:#772B58;stroke:#FFFFFF;stroke-width:0.24;}
	.st2{clip-path:url(#SVGID_4_);fill:#772B58;stroke:#FFFFFF;stroke-width:0.24;}
	.st3{clip-path:url(#SVGID_6_);fill:#DB6E59;stroke:#FFFFFF;stroke-width:0.24;}
	.st4{clip-path:url(#SVGID_8_);fill:#DB6E59;stroke:#FFFFFF;stroke-width:0.24;}
	.st5{clip-path:url(#SVGID_10_);fill:none;stroke:#424242;stroke-linecap:round;stroke-linejoin:round;}
	.st6{clip-path:url(#SVGID_12_);fill:none;stroke:#424242;stroke-linecap:round;stroke-linejoin:round;}
	.st7{clip-path:url(#SVGID_14_);fill:none;stroke:#424242;stroke-linecap:round;stroke-linejoin:round;}
	.st8{clip-path:url(#SVGID_16_);fill:none;stroke:#424242;stroke-linecap:round;stroke-linejoin:round;}
	.st9{fill:none;stroke:#262626;stroke-width:3;stroke-linecap:square;}
	.st10{fill:#772B58;stroke:#FFFFFF;stroke-width:0.24;}
	.st11{fill:#DB6E59;stroke:#FFFFFF;stroke-width:0.24;}
	.st12{clip-path:url(#SVGID_18_);fill:#772B58;stroke:#FFFFFF;stroke-width:0.24;}
	.st13{clip-path:url(#SVGID_20_);fill:#772B58;stroke:#FFFFFF;stroke-width:0.24;}
	.st14{clip-path:url(#SVGID_22_);fill:#DB6E59;stroke:#FFFFFF;stroke-width:0.24;}
	.st15{clip-path:url(#SVGID_24_);fill:#DB6E59;stroke:#FFFFFF;stroke-width:0.24;}
	.st16{clip-path:url(#SVGID_26_);fill:none;stroke:#424242;stroke-linecap:round;stroke-linejoin:round;}
	.st17{clip-path:url(#SVGID_28_);fill:none;stroke:#424242;stroke-linecap:round;stroke-linejoin:round;}
	.st18{clip-path:url(#SVGID_30_);fill:none;stroke:#424242;stroke-linecap:round;stroke-linejoin:round;}
	.st19{clip-path:url(#SVGID_32_);fill:none;stroke:#424242;stroke-linecap:round;stroke-linejoin:round;}
	.st20{clip-path:url(#SVGID_34_);fill:#772B58;stroke:#FFFFFF;stroke-width:0.24;}
	.st21{clip-path:url(#SVGID_36_);fill:#DB6E59;stroke:#FFFFFF;stroke-width:0.24;}
	.st22{clip-path:url(#SVGID_38_);fill:none;stroke:#424242;stroke-linecap:round;stroke-linejoin:round;}
	.st23{clip-path:url(#SVGID_40_);fill:none;stroke:#424242;stroke-linecap:round;stroke-linejoin:round;}
	.st24{fill:none;stroke:#262626;stroke-width:0.8;stroke-linecap:square;}
	.st25{clip-path:url(#SVGID_42_);}
	.st26{fill:#404040;}
	.st27{clip-path:url(#SVGID_44_);}
	.st28{clip-path:url(#SVGID_46_);}
	.st29{clip-path:url(#SVGID_48_);}
	.st30{clip-path:url(#SVGID_50_);}
	.st31{clip-path:url(#SVGID_52_);}
	.st32{clip-path:url(#SVGID_54_);}
	.st33{clip-path:url(#SVGID_56_);}
	.st34{clip-path:url(#SVGID_58_);}
	.st35{clip-path:url(#SVGID_60_);}
	.st36{clip-path:url(#SVGID_62_);}
	.st37{clip-path:url(#SVGID_64_);}
	.st38{clip-path:url(#SVGID_66_);}
	.st39{clip-path:url(#SVGID_68_);}
	.st40{clip-path:url(#SVGID_70_);}
	.st41{clip-path:url(#SVGID_72_);}
	.st42{clip-path:url(#SVGID_74_);}
	.st43{clip-path:url(#SVGID_76_);}
	.st44{clip-path:url(#SVGID_78_);}
	.st45{clip-path:url(#SVGID_80_);}
	.st46{clip-path:url(#SVGID_82_);}
	.st47{clip-path:url(#SVGID_84_);}
	.st48{clip-path:url(#SVGID_86_);}
	.st49{clip-path:url(#SVGID_88_);}
	.st50{clip-path:url(#SVGID_90_);}
	.st51{clip-path:url(#SVGID_92_);}
	.st52{clip-path:url(#SVGID_94_);}
	.st53{clip-path:url(#SVGID_96_);}
	.st54{clip-path:url(#SVGID_98_);}
	.st55{clip-path:url(#SVGID_100_);}
	.st56{clip-path:url(#SVGID_103_);}
	.st57{fill:#404040;stroke:#262626;stroke-width:3;}
	.st58{fill:none;stroke:#262626;stroke-width:3;}
	.st59{clip-path:url(#SVGID_105_);fill:#772B58;stroke:#FFFFFF;stroke-width:0.24;}
	.st60{clip-path:url(#SVGID_107_);fill:#DB6E59;stroke:#FFFFFF;stroke-width:0.24;}
	.st61{clip-path:url(#SVGID_109_);fill:none;stroke:#424242;stroke-linecap:round;stroke-linejoin:round;}
	.st62{clip-path:url(#SVGID_111_);fill:none;stroke:#424242;stroke-linecap:round;stroke-linejoin:round;}
	.st63{clip-path:url(#SVGID_113_);}
	.st64{clip-path:url(#SVGID_115_);}
	.st65{clip-path:url(#SVGID_117_);}
	.st66{clip-path:url(#SVGID_119_);}
	.st67{clip-path:url(#SVGID_121_);}
	.st68{clip-path:url(#SVGID_123_);}
	.st69{clip-path:url(#SVGID_125_);}
	.st70{clip-path:url(#SVGID_127_);}
	.st71{clip-path:url(#SVGID_129_);}
	.st72{clip-path:url(#SVGID_131_);}
	.st73{clip-path:url(#SVGID_133_);}
	.st74{clip-path:url(#SVGID_135_);}
	.st75{clip-path:url(#SVGID_137_);}
	.st76{clip-path:url(#SVGID_139_);}
	.st77{clip-path:url(#SVGID_141_);}
	.st78{clip-path:url(#SVGID_143_);}
	.st79{clip-path:url(#SVGID_145_);}
	.st80{clip-path:url(#SVGID_147_);}
	.st81{clip-path:url(#SVGID_149_);}
	.st82{clip-path:url(#SVGID_151_);}
	.st83{clip-path:url(#SVGID_153_);}
	.st84{clip-path:url(#SVGID_155_);}
	.st85{clip-path:url(#SVGID_157_);}
	.st86{clip-path:url(#SVGID_159_);}
	.st87{clip-path:url(#SVGID_161_);}
	.st88{clip-path:url(#SVGID_163_);}
	.st89{clip-path:url(#SVGID_165_);}
	.st90{clip-path:url(#SVGID_167_);}
	.st91{clip-path:url(#SVGID_169_);}
	.st92{clip-path:url(#SVGID_171_);}
	.st93{clip-path:url(#SVGID_173_);}
	.st94{clip-path:url(#SVGID_176_);}
	.st95{clip-path:url(#SVGID_178_);}
	.st96{font-family:'ArialMT';}
	.st97{font-size:40px;}
	.st98{fill:none;stroke:#FFFFFF;stroke-width:5;}
	.st99{fill:none;stroke:#FFFFFF;stroke-width:6;}
	.st100{font-family:'MyriadPro-Regular';}
</style>
<g id="text_3">
	<g transform="translate(405.799432 577.438815)scale(0.45 -0.45)">
		<g>
			<path id="ArialMT-63_2_" class="st0" d="M40.4,127.8l8.6-1.1c-0.9-6-3.4-10.6-7.3-14s-8.7-5-14.3-5c-7.1,0-12.8,2.3-17.1,7
				c-4.3,4.6-6.5,11.3-6.5,20c0,5.6,0.9,10.5,2.8,14.7s4.7,7.4,8.5,9.5s7.9,3.2,12.4,3.2c5.6,0,10.2-1.4,13.8-4.3
				c3.6-2.8,5.9-6.9,6.9-12.1l-8.5-1.3c-0.8,3.5-2.3,6.1-4.3,7.9c-2.1,1.8-4.6,2.6-7.5,2.6c-4.4,0-8-1.6-10.8-4.8s-4.1-8.2-4.1-15
				c0-7,1.3-12,4-15.2s6.2-4.7,10.5-4.7c3.4,0,6.3,1.1,8.6,3.2S39.8,123.4,40.4,127.8z"/>
		</g>
		<g>
			<path id="ArialMT-6c_3_" class="st0" d="M56.4,108.8v71.6h8.8v-71.6C65.2,108.8,56.4,108.8,56.4,108.8z"/>
		</g>
		<g>
			<path id="ArialMT-6f_3_" class="st0" d="M75.5,134.8c0,9.6,2.7,16.7,8,21.3c4.5,3.8,9.9,5.8,16.3,5.8c7.1,0,12.9-2.3,17.5-7
				c4.5-4.7,6.8-11.1,6.8-19.4c0-6.7-1-11.9-3-15.8c-2-3.8-4.9-6.8-8.8-8.9c-3.8-2.1-8-3.2-12.5-3.2c-7.3,0-13.1,2.3-17.6,7
				C77.8,119.3,75.5,126,75.5,134.8z M84.6,134.8c0-6.6,1.4-11.6,4.3-14.9s6.5-5,10.9-5s8,1.7,10.9,5s4.3,8.4,4.3,15.2
				c0,6.4-1.5,11.3-4.4,14.6s-6.5,5-10.9,5s-8-1.6-10.9-4.9C86,146.4,84.6,141.4,84.6,134.8z"/>
		</g>
		<g>
			<path id="ArialMT-7a_2_" class="st0" d="M129.8,108.8v7.1l33,37.9c-3.8-0.2-7.1-0.3-9.9-0.3h-21.1v7.1h42.4v-5.8L146.1,122
				l-5.4-6c3.9,0.3,7.6,0.4,11.1,0.4h24v-7.6H129.8z"/>
		</g>
		<g>
			<path id="ArialMT-65_2_" class="st0" d="M219.9,125.5l9.1-1.1c-1.4-5.3-4.1-9.4-8-12.4c-3.9-2.9-8.8-4.4-14.8-4.4
				c-7.6,0-13.6,2.3-18,7s-6.7,11.2-6.7,19.7c0,8.7,2.2,15.5,6.7,20.3s10.3,7.2,17.5,7.2c6.9,0,12.6-2.4,17-7.1
				c4.4-4.7,6.6-11.4,6.6-19.9c0-0.5,0-1.3,0-2.3h-38.7c0.3-5.7,1.9-10.1,4.8-13.1c2.9-3,6.5-4.5,10.8-4.5c3.2,0,6,0.8,8.2,2.5
				C216.8,119.1,218.6,121.8,219.9,125.5z M191.1,139.7h29c-0.4,4.4-1.5,7.6-3.3,9.8c-2.8,3.4-6.4,5.1-10.9,5.1c-4,0-7.4-1.3-10.2-4
				C192.9,147.9,191.4,144.3,191.1,139.7z"/>
		</g>
	</g>
</g>
<g id="ytick_1">
	<g id="text_4">
		<g transform="translate(75.673438 434.301414)scale(0.4 -0.4)">
			<g>
				<path id="ArialMT-36" class="st0" d="M49.8,176.5l-8.7-0.7c-0.8,3.4-1.9,6-3.3,7.5c-2.4,2.5-5.3,3.8-8.8,3.8
					c-2.8,0-5.3-0.8-7.4-2.3c-2.8-2-4.9-5-6.5-8.8c-1.6-3.9-2.4-9.4-2.5-16.5c2.1,3.2,4.7,5.6,7.8,7.2s6.3,2.3,9.6,2.3
					c5.9,0,10.8-2.2,15-6.5c4.1-4.3,6.2-9.9,6.2-16.7c0-4.5-1-8.7-2.9-12.5c-1.9-3.9-4.6-6.8-8-8.9s-7.2-3.1-11.5-3.1
					c-7.3,0-13.3,2.7-17.9,8.1C6.3,134.8,4,143.7,4,156c0,13.8,2.6,23.9,7.7,30.2c4.5,5.5,10.5,8.2,18,8.2c5.6,0,10.2-1.6,13.8-4.7
					C46.9,186.4,49,182.1,49.8,176.5z M13.9,145.6c0-3,0.6-5.9,1.9-8.7s3.1-4.9,5.4-6.3c2.3-1.4,4.7-2.2,7.3-2.2
					c3.7,0,6.9,1.5,9.6,4.5c2.7,3,4,7.1,4,12.2c0,4.9-1.3,8.8-4,11.7c-2.6,2.9-6,4.3-10,4.3s-7.3-1.4-10.1-4.3
					C15.3,154,13.9,150.3,13.9,145.6z"/>
			</g>
			<g>
				<path id="ArialMT-30" class="st0" d="M59.8,157.7c0,8.5,0.9,15.3,2.6,20.4c1.7,5.2,4.3,9.1,7.8,11.9c3.4,2.8,7.8,4.2,13,4.2
					c3.8,0,7.2-0.8,10.1-2.3s5.3-3.8,7.2-6.7c1.9-2.9,3.4-6.5,4.5-10.6c1.1-4.2,1.6-9.8,1.6-16.9c0-8.4-0.9-15.2-2.6-20.3
					c-1.7-5.2-4.3-9.1-7.7-12c-3.4-2.8-7.8-4.2-13-4.2c-6.9,0-12.3,2.5-16.2,7.4C62.1,134.6,59.8,144.3,59.8,157.7z M68.8,157.7
					c0-11.8,1.4-19.6,4.1-23.5c2.8-3.9,6.1-5.8,10.2-5.8c4,0,7.4,2,10.2,5.9s4.1,11.7,4.1,23.4c0,11.8-1.4,19.6-4.1,23.5
					c-2.8,3.9-6.2,5.8-10.3,5.8c-4,0-7.3-1.7-9.7-5.1C70.3,177.6,68.8,169.5,68.8,157.7z"/>
			</g>
			<g>
				<path id="ArialMT-30_1_" class="st0" d="M115.4,157.7c0,8.5,0.9,15.3,2.6,20.4c1.7,5.2,4.3,9.1,7.8,11.9c3.4,2.8,7.8,4.2,13,4.2
					c3.8,0,7.2-0.8,10.1-2.3c2.9-1.5,5.3-3.8,7.2-6.7s3.4-6.5,4.5-10.6c1.1-4.2,1.6-9.8,1.6-16.9c0-8.4-0.9-15.2-2.6-20.3
					c-1.7-5.2-4.3-9.1-7.7-12c-3.4-2.8-7.8-4.2-13-4.2c-6.9,0-12.3,2.5-16.2,7.4C117.7,134.6,115.4,144.3,115.4,157.7z M124.4,157.7
					c0-11.8,1.4-19.6,4.1-23.5c2.8-3.9,6.1-5.8,10.2-5.8c4,0,7.4,2,10.2,5.9s4.1,11.7,4.1,23.4c0,11.8-1.4,19.6-4.1,23.5
					c-2.8,3.9-6.2,5.8-10.3,5.8c-4,0-7.3-1.7-9.7-5.1C125.9,177.6,124.4,169.5,124.4,157.7z"/>
			</g>
		</g>
	</g>
</g>
<g id="ytick_2">
	<g id="text_5">
		<g transform="translate(75.673438 284.115675)scale(0.4 -0.4)">
			<g>
				<path id="ArialMT-38" class="st0" d="M17.7,161.3c-3.6,1.3-6.3,3.2-8.1,5.7S7,172.4,7,175.9c0,5.2,1.9,9.6,5.6,13.1
					c3.8,3.6,8.7,5.3,14.9,5.3s11.3-1.8,15.1-5.5c3.8-3.6,5.7-8,5.7-13.2c0-3.3-0.9-6.2-2.6-8.7c-1.7-2.4-4.4-4.3-7.9-5.7
					c4.4-1.4,7.7-3.7,10-6.9s3.4-7,3.4-11.4c0-6.1-2.2-11.3-6.5-15.4c-4.3-4.2-10-6.2-17.1-6.2s-12.8,2.1-17.1,6.3S4,137,4,143.3
					c0,4.7,1.2,8.6,3.5,11.7C10,158,13.3,160.1,17.7,161.3z M15.9,176.2c0-3.4,1.1-6.2,3.3-8.3s5-3.2,8.5-3.2c3.4,0,6.2,1.1,8.3,3.2
					c2.2,2.1,3.2,4.8,3.2,7.8c0,3.2-1.1,5.9-3.4,8.1c-2.2,2.2-5,3.3-8.3,3.3c-3.4,0-6.1-1.1-8.4-3.2C17,181.7,15.9,179.1,15.9,176.2
					z M13.1,143.1c0-2.5,0.6-4.9,1.8-7.3s3-4.2,5.3-5.5s4.9-1.9,7.6-1.9c4.2,0,7.7,1.3,10.4,4s4.1,6.1,4.1,10.3s-1.4,7.7-4.2,10.5
					s-6.3,4.2-10.6,4.2c-4.1,0-7.6-1.4-10.3-4.1C14.4,150.6,13.1,147.2,13.1,143.1z"/>
			</g>
			<g>
				<path id="ArialMT-30_2_" class="st0" d="M59.8,157.7c0,8.5,0.9,15.3,2.6,20.4c1.7,5.2,4.3,9.1,7.8,11.9c3.4,2.8,7.8,4.2,13,4.2
					c3.8,0,7.2-0.8,10.1-2.3s5.3-3.8,7.2-6.7c1.9-2.9,3.4-6.5,4.5-10.6c1.1-4.2,1.6-9.8,1.6-16.9c0-8.4-0.9-15.2-2.6-20.3
					c-1.7-5.2-4.3-9.1-7.7-12c-3.4-2.8-7.8-4.2-13-4.2c-6.9,0-12.3,2.5-16.2,7.4C62.1,134.6,59.8,144.3,59.8,157.7z M68.8,157.7
					c0-11.8,1.4-19.6,4.1-23.5c2.8-3.9,6.1-5.8,10.2-5.8c4,0,7.4,2,10.2,5.9s4.1,11.7,4.1,23.4c0,11.8-1.4,19.6-4.1,23.5
					c-2.8,3.9-6.2,5.8-10.3,5.8c-4,0-7.3-1.7-9.7-5.1C70.3,177.6,68.8,169.5,68.8,157.7z"/>
			</g>
			<g>
				<path id="ArialMT-30_3_" class="st0" d="M115.4,157.7c0,8.5,0.9,15.3,2.6,20.4c1.7,5.2,4.3,9.1,7.8,11.9c3.4,2.8,7.8,4.2,13,4.2
					c3.8,0,7.2-0.8,10.1-2.3c2.9-1.5,5.3-3.8,7.2-6.7s3.4-6.5,4.5-10.6c1.1-4.2,1.6-9.8,1.6-16.9c0-8.4-0.9-15.2-2.6-20.3
					c-1.7-5.2-4.3-9.1-7.7-12c-3.4-2.8-7.8-4.2-13-4.2c-6.9,0-12.3,2.5-16.2,7.4C117.7,134.6,115.4,144.3,115.4,157.7z M124.4,157.7
					c0-11.8,1.4-19.6,4.1-23.5c2.8-3.9,6.1-5.8,10.2-5.8c4,0,7.4,2,10.2,5.9s4.1,11.7,4.1,23.4c0,11.8-1.4,19.6-4.1,23.5
					c-2.8,3.9-6.2,5.8-10.3,5.8c-4,0-7.3-1.7-9.7-5.1C125.9,177.6,124.4,169.5,124.4,157.7z"/>
			</g>
		</g>
	</g>
</g>
<g id="ytick_3">
	<g id="text_6">
		<g transform="translate(53.429688 133.929935)scale(0.4 -0.4)">
			<g>
				<path id="ArialMT-31" class="st0" d="M37.2,122.4h-8.8v56c-2.1-2-4.9-4-8.3-6s-6.5-3.5-9.3-4.5v8.5c4.9,2.3,9.2,5.1,12.9,8.4
					c3.7,3.3,6.3,6.5,7.8,9.6h5.7V122.4z"/>
			</g>
			<g>
				<path id="ArialMT-30_4_" class="st0" d="M59.8,157.7c0,8.5,0.9,15.3,2.6,20.4c1.7,5.2,4.3,9.1,7.8,11.9c3.4,2.8,7.8,4.2,13,4.2
					c3.8,0,7.2-0.8,10.1-2.3s5.3-3.8,7.2-6.7c1.9-2.9,3.4-6.5,4.5-10.6c1.1-4.2,1.6-9.8,1.6-16.9c0-8.4-0.9-15.2-2.6-20.3
					c-1.7-5.2-4.3-9.1-7.7-12c-3.4-2.8-7.8-4.2-13-4.2c-6.9,0-12.3,2.5-16.2,7.4C62.1,134.6,59.8,144.3,59.8,157.7z M68.8,157.7
					c0-11.8,1.4-19.6,4.1-23.5c2.8-3.9,6.1-5.8,10.2-5.8c4,0,7.4,2,10.2,5.9s4.1,11.7,4.1,23.4c0,11.8-1.4,19.6-4.1,23.5
					c-2.8,3.9-6.2,5.8-10.3,5.8c-4,0-7.3-1.7-9.7-5.1C70.3,177.6,68.8,169.5,68.8,157.7z"/>
			</g>
			<g>
				<path id="ArialMT-30_5_" class="st0" d="M115.4,157.7c0,8.5,0.9,15.3,2.6,20.4c1.7,5.2,4.3,9.1,7.8,11.9c3.4,2.8,7.8,4.2,13,4.2
					c3.8,0,7.2-0.8,10.1-2.3c2.9-1.5,5.3-3.8,7.2-6.7s3.4-6.5,4.5-10.6c1.1-4.2,1.6-9.8,1.6-16.9c0-8.4-0.9-15.2-2.6-20.3
					c-1.7-5.2-4.3-9.1-7.7-12c-3.4-2.8-7.8-4.2-13-4.2c-6.9,0-12.3,2.5-16.2,7.4C117.7,134.6,115.4,144.3,115.4,157.7z M124.4,157.7
					c0-11.8,1.4-19.6,4.1-23.5c2.8-3.9,6.1-5.8,10.2-5.8c4,0,7.4,2,10.2,5.9s4.1,11.7,4.1,23.4c0,11.8-1.4,19.6-4.1,23.5
					c-2.8,3.9-6.2,5.8-10.3,5.8c-4,0-7.3-1.7-9.7-5.1C125.9,177.6,124.4,169.5,124.4,157.7z"/>
			</g>
			<g>
				<path id="ArialMT-30_6_" class="st0" d="M171,157.7c0,8.5,0.9,15.3,2.6,20.4c1.7,5.2,4.3,9.1,7.8,11.9c3.4,2.8,7.8,4.2,13,4.2
					c3.8,0,7.2-0.8,10.1-2.3c2.9-1.5,5.3-3.8,7.2-6.7s3.4-6.5,4.5-10.6c1.1-4.2,1.6-9.8,1.6-16.9c0-8.4-0.9-15.2-2.6-20.3
					c-1.7-5.2-4.3-9.1-7.7-12c-3.4-2.8-7.8-4.2-13-4.2c-6.9,0-12.3,2.5-16.2,7.4C173.4,134.6,171,144.3,171,157.7z M180,157.7
					c0-11.8,1.4-19.6,4.1-23.5c2.8-3.9,6.1-5.8,10.2-5.8c4,0,7.4,2,10.2,5.9s4.1,11.7,4.1,23.4c0,11.8-1.4,19.6-4.1,23.5
					c-2.8,3.9-6.2,5.8-10.3,5.8c-4,0-7.3-1.7-9.7-5.1C181.5,177.6,180,169.5,180,157.7z"/>
			</g>
		</g>
	</g>
</g>
<g id="text_7">
	<g transform="translate(39.958594 450.305859)rotate(-90)scale(0.45 -0.45)">
		<g>
			<path id="ArialMT-4d" class="st0" d="M116.3,0v71.6h14.3l16.9-50.7c1.6-4.7,2.7-8.3,3.4-10.6c0.8,2.6,2.1,6.4,3.8,11.5l17.1,49.8
				h12.8V0h-9.1v59.9L154.6,0h-8.5l-20.7,60.9V0H116.3z"/>
		</g>
		<g>
			<path id="ArialMT-65_3_" class="st0" d="M234.2,16.7l9.1-1.1c-1.4-5.3-4.1-9.4-8-12.4c-3.9-2.9-8.8-4.4-14.8-4.4
				c-7.6,0-13.6,2.3-18,7s-6.7,11.2-6.7,19.7c0,8.7,2.2,15.5,6.7,20.3C207,50.6,212.9,53,220,53c6.9,0,12.6-2.4,17-7.1
				c4.4-4.7,6.6-11.4,6.6-19.9c0-0.5,0-1.3,0-2.3h-38.7c0.3-5.7,1.9-10.1,4.8-13.1c2.9-3,6.5-4.5,10.8-4.5c3.2,0,6,0.8,8.2,2.5
				C231.1,10.3,232.9,13,234.2,16.7z M205.4,30.9h29c-0.4,4.4-1.5,7.6-3.3,9.8c-2.8,3.4-6.4,5.1-10.9,5.1c-4,0-7.4-1.3-10.2-4
				S205.7,35.4,205.4,30.9z"/>
		</g>
		<g>
			<path id="ArialMT-61" class="st0" d="M288.2,6.4c-3.3-2.8-6.4-4.7-9.4-5.9c-3-1.1-6.2-1.7-9.7-1.7C263.4-1.2,259,0.2,256,3
				c-3.1,2.8-4.6,6.3-4.6,10.7c0,2.5,0.6,4.9,1.7,7c1.2,2.1,2.7,3.8,4.5,5.1c1.9,1.3,4,2.2,6.3,2.9c1.7,0.5,4.3,0.9,7.8,1.3
				c7.1,0.8,12.3,1.8,15.7,3c0,1.2,0,2,0,2.3c0,3.6-0.8,6.1-2.5,7.6c-2.2,2-5.6,3-10,3c-4.1,0-7.2-0.7-9.2-2.2s-3.4-4-4.4-7.7
				l-8.6,1.2c0.8,3.7,2.1,6.6,3.9,8.9c1.8,2.3,4.4,4,7.8,5.2s7.3,1.8,11.8,1.8c4.4,0,8-0.5,10.8-1.6c2.8-1,4.8-2.4,6.1-3.9
				c1.3-1.6,2.2-3.6,2.7-6c0.3-1.5,0.4-4.2,0.4-8.1V21.7c0-8.2,0.2-13.3,0.6-15.5S297.9,2,299,0h-9.2C289,1.8,288.4,4,288.2,6.4z
				 M287.5,26c-3.2-1.3-8-2.4-14.4-3.3c-3.6-0.5-6.2-1.1-7.7-1.8c-1.5-0.6-2.6-1.6-3.5-2.8c-0.8-1.2-1.2-2.6-1.2-4.2
				c0-2.3,0.9-4.3,2.7-5.9c1.8-1.6,4.4-2.3,7.8-2.3s6.4,0.7,9,2.2s4.6,3.5,5.8,6.1c0.9,2,1.4,4.9,1.4,8.8V26H287.5z"/>
		</g>
		<g>
			<path id="ArialMT-6e" class="st0" d="M310,0v51.9h7.9v-7.4c3.8,5.7,9.3,8.5,16.5,8.5c3.1,0,6-0.6,8.6-1.7s4.6-2.6,5.9-4.4
				c1.3-1.8,2.2-4,2.7-6.5c0.3-1.6,0.5-4.5,0.5-8.5V0h-8.8v31.5c0,3.6-0.3,6.3-1,8c-0.7,1.8-1.9,3.2-3.6,4.2
				c-1.7,1.1-3.8,1.6-6.1,1.6c-3.8,0-7-1.2-9.7-3.6s-4.1-6.9-4.1-13.5V0H310z"/>
		</g>
		<g>
			<path id="ArialMT-20_2_" class="st0" d="M359,0"/>
		</g>
		<g>
			<path id="ArialMT-52" class="st0" d="M394.6,0v71.6h31.7c6.4,0,11.2-0.6,14.5-1.9s6-3.6,8-6.8c2-3.2,3-6.8,3-10.8
				c0-5.1-1.6-9.4-4.9-12.8c-3.3-3.5-8.4-5.7-15.2-6.6c2.5-1.2,4.4-2.4,5.7-3.6c2.8-2.5,5.4-5.7,7.9-9.5L457.7,0h-11.9l-9.5,14.9
				c-2.8,4.3-5.1,7.6-6.8,9.9c-1.8,2.3-3.4,3.9-4.8,4.8s-2.9,1.6-4.3,1.9c-1.1,0.2-2.8,0.3-5.3,0.3h-11V0H394.6z M404.1,40h20.4
				c4.3,0,7.7,0.4,10.1,1.3c2.4,0.9,4.3,2.3,5.6,4.3c1.3,2,1.9,4.1,1.9,6.4c0,3.4-1.2,6.2-3.7,8.3c-2.5,2.2-6.3,3.3-11.7,3.3H404V40
				H404.1z"/>
		</g>
		<g>
			<path id="ArialMT-54" class="st0" d="M483.2,0v63.1h-23.6v8.4h56.7v-8.4h-23.7V0H483.2z"/>
		</g>
		<g>
			<path id="ArialMT-20_3_" class="st0" d="M516.6,0"/>
		</g>
		<g>
			<path id="ArialMT-28" class="st0" d="M567.7-21c-4.9,6.1-9,13.3-12.3,21.5s-5,16.7-5,25.5c0,7.8,1.2,15.2,3.8,22.3
				c2.9,8.2,7.5,16.4,13.6,24.6h6.3c-3.9-6.8-6.5-11.6-7.8-14.5c-2-4.5-3.6-9.2-4.7-14.1c-1.4-6.1-2.1-12.2-2.1-18.4
				c0-15.7,4.9-31.3,14.6-46.9C574.1-21,567.7-21,567.7-21z"/>
		</g>
		<g>
			<path id="ArialMT-6d" class="st0" d="M584.2,0v51.9h7.9v-7.3c1.6,2.5,3.8,4.6,6.5,6.1c2.7,1.6,5.8,2.3,9.2,2.3
				c3.8,0,7-0.8,9.5-2.4s4.2-3.8,5.2-6.7c4.1,6.1,9.4,9.1,16,9.1c5.1,0,9.1-1.4,11.9-4.3c2.8-2.8,4.2-7.2,4.2-13.2V0h-8.8v32.7
				c0,3.5-0.3,6-0.9,7.6c-0.6,1.6-1.6,2.8-3.1,3.7s-3.2,1.4-5.3,1.4c-3.6,0-6.7-1.2-9.1-3.6c-2.4-2.4-3.6-6.3-3.6-11.6V0H615v33.7
				c0,3.9-0.7,6.8-2.2,8.8c-1.4,2-3.8,2.9-7,2.9c-2.5,0-4.8-0.7-6.9-2c-2.1-1.3-3.6-3.2-4.6-5.7c-0.9-2.5-1.4-6.1-1.4-10.8V0H584.2z
				"/>
		</g>
		<g>
			<path id="ArialMT-73" class="st0" d="M664,15.5l8.7,1.4c0.5-3.5,1.8-6.1,4.1-8s5.3-2.8,9.4-2.8c4,0,7,0.8,9,2.5
				c2,1.6,2.9,3.6,2.9,5.8c0,2-0.9,3.5-2.6,4.7c-1.2,0.8-4.2,1.8-9,3c-6.4,1.6-10.9,3-13.4,4.2s-4.4,2.8-5.7,4.9s-1.9,4.4-1.9,7
				c0,2.3,0.5,4.4,1.6,6.4s2.5,3.6,4.3,4.9c1.4,1,3.2,1.8,5.6,2.5c2.4,0.7,4.9,1.1,7.6,1.1c4.1,0,7.6-0.6,10.7-1.8
				c3.1-1.2,5.4-2.8,6.8-4.8c1.5-2,2.5-4.7,3-8l-8.6-1.2c-0.4,2.7-1.5,4.7-3.4,6.2s-4.5,2.2-7.9,2.2c-4,0-6.9-0.7-8.6-2
				S674,40.8,674,39c0-1.1,0.4-2.2,1.1-3.1c0.7-0.9,1.8-1.7,3.4-2.3c0.9-0.3,3.5-1.1,7.8-2.2c6.2-1.7,10.6-3,13-4.1
				c2.5-1.1,4.4-2.6,5.8-4.6c1.4-2,2.1-4.5,2.1-7.5c0-2.9-0.9-5.7-2.6-8.3c-1.7-2.6-4.2-4.6-7.4-6s-6.9-2.1-10.9-2.1
				c-6.7,0-11.9,1.4-15.4,4.2S665,10,664,15.5z"/>
		</g>
		<g>
			<path id="ArialMT-29" class="st0" d="M723.3-21H717c9.7,15.6,14.6,31.3,14.6,46.9c0,6.1-0.7,12.2-2.1,18.2
				c-1.1,4.9-2.7,9.6-4.6,14.1c-1.3,2.9-3.9,7.8-7.9,14.6h6.3c6.1-8.2,10.6-16.4,13.6-24.6c2.5-7.1,3.8-14.5,3.8-22.3
				c0-8.8-1.7-17.3-5.1-25.5S728.1-14.9,723.3-21z"/>
		</g>
	</g>
</g>
<g id="patch_3">
	<g>
		<g>
			<defs>
				<rect id="SVGID_1_" x="151.5" y="70.6" width="613.6" height="375.5"/>
			</defs>
			<clipPath id="SVGID_2_">
				<use xlink:href="#SVGID_1_"  style="overflow:visible;"/>
			</clipPath>
			<path class="st1" d="M182.2,821.6h122.7v-502H182.2V821.6z"/>
		</g>
	</g>
</g>
<g id="patch_4">
	<g>
		<g>
			<defs>
				<rect id="SVGID_3_" x="151.5" y="70.6" width="613.6" height="375.5"/>
			</defs>
			<clipPath id="SVGID_4_">
				<use xlink:href="#SVGID_3_"  style="overflow:visible;"/>
			</clipPath>
			<path class="st2" d="M489,821.6h122.7V263.3H489V821.6z"/>
		</g>
	</g>
</g>
<g id="patch_5">
	<g>
		<g>
			<defs>
				<rect id="SVGID_5_" x="151.5" y="70.6" width="613.6" height="375.5"/>
			</defs>
			<clipPath id="SVGID_6_">
				<use xlink:href="#SVGID_5_"  style="overflow:visible;"/>
			</clipPath>
			<path class="st3" d="M304.9,821.6h122.7V157.2H304.9V821.6z"/>
		</g>
	</g>
</g>
<g id="patch_6">
	<g>
		<g>
			<defs>
				<rect id="SVGID_7_" x="151.5" y="70.6" width="613.6" height="375.5"/>
			</defs>
			<clipPath id="SVGID_8_">
				<use xlink:href="#SVGID_7_"  style="overflow:visible;"/>
			</clipPath>
			<path class="st4" d="M611.7,821.6h122.7V99.5H611.7V821.6z"/>
		</g>
	</g>
</g>
<g id="line2d_1">
	<g>
		<g>
			<defs>
				<rect id="SVGID_9_" x="151.5" y="70.6" width="613.6" height="375.5"/>
			</defs>
			<clipPath id="SVGID_10_">
				<use xlink:href="#SVGID_9_"  style="overflow:visible;"/>
			</clipPath>
			<path class="st5" d="M243.6,347.4v-56.5"/>
		</g>
	</g>
</g>
<g id="line2d_2">
	<g>
		<g>
			<defs>
				<rect id="SVGID_11_" x="151.5" y="70.6" width="613.6" height="375.5"/>
			</defs>
			<clipPath id="SVGID_12_">
				<use xlink:href="#SVGID_11_"  style="overflow:visible;"/>
			</clipPath>
			<path class="st6" d="M550.4,290.7v-56.9"/>
		</g>
	</g>
</g>
<g id="line2d_3">
	<g>
		<g>
			<defs>
				<rect id="SVGID_13_" x="151.5" y="70.6" width="613.6" height="375.5"/>
			</defs>
			<clipPath id="SVGID_14_">
				<use xlink:href="#SVGID_13_"  style="overflow:visible;"/>
			</clipPath>
			<path class="st7" d="M366.3,192.7V122"/>
		</g>
	</g>
</g>
<g id="line2d_4">
	<g>
		<g>
			<defs>
				<rect id="SVGID_15_" x="151.5" y="70.6" width="613.6" height="375.5"/>
			</defs>
			<clipPath id="SVGID_16_">
				<use xlink:href="#SVGID_15_"  style="overflow:visible;"/>
			</clipPath>
			<path class="st8" d="M673.1,131.5V64.8"/>
		</g>
	</g>
</g>
<path class="st9" d="M151.5,446.1V70.6"/>
<g id="patch_8">
	<path class="st9" d="M151.5,446.1h613.6"/>
</g>
<g id="text_8">
	<g transform="translate(90.141051 125.014751)scale(0.6 -0.6)">
		<g>
			<path id="ArialMT-41" class="st0" d="M-135,114.8l27.5,71.6h10.2l29.3-71.6h-10.8l-8.4,21.7h-29.9l-7.9-21.7H-135z M-114.3,144.2
				H-90l-7.5,19.8c-2.3,6-4,11-5.1,14.8c-0.9-4.6-2.2-9.2-3.9-13.7L-114.3,144.2z"/>
		</g>
	</g>
</g>
<g id="legend_1">
	<g id="patch_9">
		<path class="st10" d="M161.7,97.9h60v-21h-60V97.9z"/>
	</g>
	<g id="text_9">
		<g transform="translate(262.504688 168.087748)scale(0.3 -0.3)">
			<g>
				<path id="ArialMT-43" class="st0" d="M2.7,259.1l9.5-2.4c-2-7.8-5.6-13.7-10.7-17.8c-5.2-4.1-11.5-6.1-18.9-6.1
					c-7.7,0-14,1.6-18.8,4.7c-4.8,3.1-8.5,7.7-11,13.7s-3.8,12.4-3.8,19.2c0,7.5,1.4,14,4.3,19.5c2.9,5.6,6.9,9.8,12.2,12.6
					c5.3,2.9,11,4.3,17.4,4.3c7.2,0,13.2-1.8,18.1-5.5c4.9-3.6,8.3-8.8,10.2-15.4l-9.3-2.2c-1.7,5.2-4.1,9-7.2,11.4
					c-3.2,2.4-7.1,3.6-11.9,3.6c-5.5,0-10.1-1.3-13.8-4c-3.7-2.6-6.3-6.2-7.8-10.6s-2.2-9-2.2-13.7c0-6.1,0.9-11.4,2.7-15.9
					c1.8-4.5,4.5-7.9,8.3-10.2c3.8-2.2,7.8-3.4,12.2-3.4c5.3,0,9.8,1.5,13.5,4.6C-1.1,248.5,1.4,253.1,2.7,259.1z"/>
			</g>
			<g>
				<path id="ArialMT-4f" class="st0" d="M20.9,268.8c0,11.9,3.2,21.2,9.6,27.9c6.4,6.7,14.6,10.1,24.7,10.1
					c6.6,0,12.6-1.6,17.9-4.8c5.3-3.2,9.3-7.6,12.1-13.2c2.8-5.6,4.2-12.1,4.2-19.2c0-7.2-1.5-13.7-4.4-19.5
					c-2.9-5.7-7.1-10.1-12.5-13s-11.2-4.4-17.4-4.4c-6.7,0-12.8,1.6-18.1,4.9c-5.3,3.3-9.3,7.7-12.1,13.3
					C22.3,256.6,20.9,262.6,20.9,268.8z M30.7,268.7c0-8.6,2.3-15.4,7-20.4c4.6-5,10.5-7.4,17.5-7.4c7.1,0,13,2.5,17.6,7.5
					c4.6,5,6.9,12.1,6.9,21.3c0,5.8-1,10.9-3,15.2s-4.9,7.7-8.7,10.1c-3.8,2.4-8,3.6-12.8,3.6c-6.7,0-12.5-2.3-17.3-6.9
					C33.1,287.2,30.7,279.5,30.7,268.7z"/>
			</g>
		</g>
	</g>
	<g id="patch_10">
		<path class="st11" d="M161.7,140.3h60v-21h-60V140.3z"/>
	</g>
	<g id="text_10">
		<g transform="translate(262.504688 210.523685)scale(0.3 -0.3)">
			<g>
				<path id="ArialMT-43_1_" class="st0" d="M2.7,259.1l9.5-2.4c-2-7.8-5.6-13.7-10.7-17.8c-5.2-4.1-11.5-6.1-18.9-6.1
					c-7.7,0-14,1.6-18.8,4.7c-4.8,3.1-8.5,7.7-11,13.7s-3.8,12.4-3.8,19.2c0,7.5,1.4,14,4.3,19.5c2.9,5.6,6.9,9.8,12.2,12.6
					c5.3,2.9,11,4.3,17.4,4.3c7.2,0,13.2-1.8,18.1-5.5c4.9-3.6,8.3-8.8,10.2-15.4l-9.3-2.2c-1.7,5.2-4.1,9-7.2,11.4
					c-3.2,2.4-7.1,3.6-11.9,3.6c-5.5,0-10.1-1.3-13.8-4c-3.7-2.6-6.3-6.2-7.8-10.6s-2.2-9-2.2-13.7c0-6.1,0.9-11.4,2.7-15.9
					c1.8-4.5,4.5-7.9,8.3-10.2c3.8-2.2,7.8-3.4,12.2-3.4c5.3,0,9.8,1.5,13.5,4.6C-1.1,248.5,1.4,253.1,2.7,259.1z"/>
			</g>
			<g>
				<path id="ArialMT-44" class="st0" d="M23.8,234v71.6h24.7c5.6,0,9.8-0.3,12.8-1c4.1-0.9,7.6-2.7,10.5-5.1
					c3.8-3.2,6.6-7.3,8.5-12.2c1.9-5,2.8-10.6,2.8-17c0-5.4-0.6-10.3-1.9-14.5s-2.9-7.7-4.9-10.4c-2-2.8-4.2-4.9-6.5-6.5
					c-2.4-1.6-5.2-2.8-8.5-3.6c-3.3-0.8-7.2-1.2-11.5-1.2L23.8,234L23.8,234z M33.3,242.4h15.3c4.7,0,8.4,0.4,11.1,1.3
					s4.8,2.1,6.4,3.7c2.2,2.2,4,5.3,5.2,9c1.2,3.8,1.9,8.4,1.9,13.8c0,7.5-1.2,13.2-3.7,17.3c-2.5,4-5.4,6.7-9,8.1
					c-2.5,1-6.6,1.5-12.2,1.5h-15V242.4z"/>
			</g>
		</g>
	</g>
</g>
<g id="text_13">
	<g transform="translate(399.963494 1065.073717)scale(0.45 -0.45)">
		<g>
			<path id="ArialMT-43_4_" class="st0" d="M58.8,133.9l9.5-2.4c-2-7.8-5.6-13.7-10.7-17.8s-11.5-6.1-18.9-6.1
				c-7.7,0-14,1.6-18.8,4.7s-8.5,7.7-11,13.7C6.4,132,5,138.3,5,145.2c0,7.5,1.4,14,4.3,19.5c2.9,5.6,6.9,9.8,12.2,12.6
				c5.3,2.9,11,4.3,17.4,4.3c7.2,0,13.2-1.8,18.1-5.5c4.9-3.6,8.3-8.8,10.2-15.4l-9.3-2.2c-1.7,5.2-4.1,9-7.2,11.4
				c-3.2,2.4-7.1,3.6-11.9,3.6c-5.5,0-10.1-1.3-13.8-4c-3.7-2.6-6.3-6.2-7.8-10.6c-1.5-4.4-2.2-9-2.2-13.7c0-6.1,0.9-11.4,2.7-15.9
				c1.8-4.5,4.5-7.9,8.3-10.2c3.8-2.2,7.8-3.4,12.2-3.4c5.3,0,9.8,1.5,13.5,4.6C55,123.4,57.5,127.9,58.8,133.9z"/>
		</g>
		<g>
			<path id="ArialMT-6f_7_" class="st0" d="M75.5,134.8c0,9.6,2.7,16.7,8,21.3c4.5,3.8,9.9,5.8,16.3,5.8c7.1,0,12.9-2.3,17.5-7
				c4.5-4.7,6.8-11.1,6.8-19.4c0-6.7-1-11.9-3-15.7c-2-3.8-4.9-6.8-8.8-8.9c-3.8-2.1-8-3.2-12.5-3.2c-7.3,0-13.1,2.3-17.6,7
				C77.8,119.3,75.5,126,75.5,134.8z M84.6,134.8c0-6.6,1.4-11.6,4.3-14.9s6.5-5,10.9-5s8,1.7,10.9,5s4.3,8.4,4.3,15.2
				c0,6.4-1.5,11.3-4.4,14.6s-6.5,5-10.9,5s-8-1.6-10.9-4.9C86,146.4,84.6,141.4,84.6,134.8z"/>
		</g>
		<g>
			<path id="ArialMT-52_3_" class="st0" d="M135.7,108.8v71.6h31.7c6.4,0,11.2-0.6,14.5-1.9c3.3-1.3,6-3.6,8-6.8s3-6.8,3-10.8
				c0-5.1-1.6-9.4-4.9-12.8c-3.3-3.5-8.4-5.7-15.2-6.6c2.5-1.2,4.4-2.4,5.7-3.6c2.8-2.5,5.4-5.7,7.9-9.5l12.5-19.5H187l-9.5,14.9
				c-2.8,4.3-5.1,7.6-6.8,9.9c-1.8,2.3-3.4,3.9-4.8,4.8c-1.4,0.9-2.9,1.6-4.3,1.9c-1.1,0.2-2.8,0.3-5.3,0.3h-11v-31.8L135.7,108.8
				L135.7,108.8z M145.2,148.8h20.4c4.3,0,7.7,0.4,10.1,1.3c2.4,0.9,4.3,2.3,5.6,4.3s1.9,4.1,1.9,6.4c0,3.4-1.2,6.2-3.7,8.3
				c-2.5,2.2-6.3,3.3-11.7,3.3h-22.7L145.2,148.8L145.2,148.8z"/>
		</g>
		<g>
			<path id="ArialMT-54_3_" class="st0" d="M224.2,108.8V172h-23.6v8.4h56.7V172h-23.7v-63.1L224.2,108.8L224.2,108.8z"/>
		</g>
	</g>
</g>
<g id="ytick_4">
	<g id="text_14">
		<g transform="translate(75.673438 922.405066)scale(0.4 -0.4)">
			<g>
				<path id="ArialMT-36_1_" class="st0" d="M49.8,176.5l-8.7-0.7c-0.8,3.4-1.9,6-3.3,7.5c-2.4,2.5-5.3,3.8-8.8,3.8
					c-2.8,0-5.3-0.8-7.4-2.3c-2.8-2-4.9-5-6.5-8.8c-1.6-3.9-2.4-9.4-2.5-16.5c2.1,3.2,4.7,5.6,7.8,7.2s6.3,2.3,9.6,2.3
					c5.9,0,10.8-2.2,15-6.5c4.1-4.3,6.2-9.9,6.2-16.7c0-4.5-1-8.7-2.9-12.5c-1.9-3.9-4.6-6.8-8-8.9s-7.2-3.1-11.5-3.1
					c-7.3,0-13.3,2.7-17.9,8.1C6.3,134.8,4,143.7,4,156c0,13.8,2.6,23.9,7.7,30.2c4.5,5.5,10.5,8.2,18,8.2c5.6,0,10.2-1.6,13.8-4.7
					C46.9,186.4,49,182.1,49.8,176.5z M13.9,145.6c0-3,0.6-5.9,1.9-8.7s3.1-4.9,5.4-6.3c2.3-1.4,4.7-2.2,7.3-2.2
					c3.7,0,6.9,1.5,9.6,4.5c2.7,3,4,7.1,4,12.2c0,4.9-1.3,8.8-4,11.7c-2.6,2.9-6,4.3-10,4.3s-7.3-1.4-10.1-4.3
					C15.3,154,13.9,150.3,13.9,145.6z"/>
			</g>
			<g>
				<path id="ArialMT-30_7_" class="st0" d="M59.8,157.7c0,8.5,0.9,15.3,2.6,20.4c1.7,5.2,4.3,9.1,7.8,11.9c3.4,2.8,7.8,4.2,13,4.2
					c3.8,0,7.2-0.8,10.1-2.3s5.3-3.8,7.2-6.7c1.9-2.9,3.4-6.5,4.5-10.6c1.1-4.2,1.6-9.8,1.6-16.9c0-8.4-0.9-15.2-2.6-20.3
					c-1.7-5.2-4.3-9.1-7.7-12c-3.4-2.8-7.8-4.2-13-4.2c-6.9,0-12.3,2.5-16.2,7.4C62.1,134.6,59.8,144.3,59.8,157.7z M68.8,157.7
					c0-11.8,1.4-19.6,4.1-23.5c2.8-3.9,6.1-5.8,10.2-5.8c4,0,7.4,2,10.2,5.9s4.1,11.7,4.1,23.4c0,11.8-1.4,19.6-4.1,23.5
					c-2.8,3.9-6.2,5.8-10.3,5.8c-4,0-7.3-1.7-9.7-5.1C70.3,177.6,68.8,169.5,68.8,157.7z"/>
			</g>
			<g>
				<path id="ArialMT-30_8_" class="st0" d="M115.4,157.7c0,8.5,0.9,15.3,2.6,20.4c1.7,5.2,4.3,9.1,7.8,11.9c3.4,2.8,7.8,4.2,13,4.2
					c3.8,0,7.2-0.8,10.1-2.3c2.9-1.5,5.3-3.8,7.2-6.7s3.4-6.5,4.5-10.6c1.1-4.2,1.6-9.8,1.6-16.9c0-8.4-0.9-15.2-2.6-20.3
					c-1.7-5.2-4.3-9.1-7.7-12c-3.4-2.8-7.8-4.2-13-4.2c-6.9,0-12.3,2.5-16.2,7.4C117.7,134.6,115.4,144.3,115.4,157.7z M124.4,157.7
					c0-11.8,1.4-19.6,4.1-23.5c2.8-3.9,6.1-5.8,10.2-5.8c4,0,7.4,2,10.2,5.9s4.1,11.7,4.1,23.4c0,11.8-1.4,19.6-4.1,23.5
					c-2.8,3.9-6.2,5.8-10.3,5.8c-4,0-7.3-1.7-9.7-5.1C125.9,177.6,124.4,169.5,124.4,157.7z"/>
			</g>
		</g>
	</g>
</g>
<g id="ytick_5">
	<g id="text_15">
		<g transform="translate(75.673438 772.219327)scale(0.4 -0.4)">
			<g>
				<path id="ArialMT-38_1_" class="st0" d="M17.7,161.3c-3.6,1.3-6.3,3.2-8.1,5.7S7,172.4,7,175.9c0,5.2,1.9,9.6,5.6,13.1
					c3.8,3.6,8.7,5.3,14.9,5.3s11.3-1.8,15.1-5.5c3.8-3.6,5.7-8,5.7-13.2c0-3.3-0.9-6.2-2.6-8.7c-1.7-2.4-4.4-4.3-7.9-5.7
					c4.4-1.4,7.7-3.7,10-6.9s3.4-7,3.4-11.4c0-6.1-2.2-11.3-6.5-15.4c-4.3-4.2-10-6.2-17.1-6.2s-12.8,2.1-17.1,6.3S4,137,4,143.3
					c0,4.7,1.2,8.6,3.5,11.7C10,158,13.3,160.1,17.7,161.3z M15.9,176.2c0-3.4,1.1-6.2,3.3-8.3s5-3.2,8.5-3.2c3.4,0,6.2,1.1,8.3,3.2
					c2.2,2.1,3.2,4.8,3.2,7.8c0,3.2-1.1,5.9-3.4,8.1c-2.2,2.2-5,3.3-8.3,3.3c-3.4,0-6.1-1.1-8.4-3.2C17,181.7,15.9,179.1,15.9,176.2
					z M13.1,143.1c0-2.5,0.6-4.9,1.8-7.3s3-4.2,5.3-5.5s4.9-1.9,7.6-1.9c4.2,0,7.7,1.3,10.4,4s4.1,6.1,4.1,10.3s-1.4,7.7-4.2,10.5
					s-6.3,4.2-10.6,4.2c-4.1,0-7.6-1.4-10.3-4.1C14.4,150.6,13.1,147.2,13.1,143.1z"/>
			</g>
			<g>
				<path id="ArialMT-30_9_" class="st0" d="M59.8,157.7c0,8.5,0.9,15.3,2.6,20.4c1.7,5.2,4.3,9.1,7.8,11.9c3.4,2.8,7.8,4.2,13,4.2
					c3.8,0,7.2-0.8,10.1-2.3s5.3-3.8,7.2-6.7c1.9-2.9,3.4-6.5,4.5-10.6c1.1-4.2,1.6-9.8,1.6-16.9c0-8.4-0.9-15.2-2.6-20.3
					c-1.7-5.2-4.3-9.1-7.7-12c-3.4-2.8-7.8-4.2-13-4.2c-6.9,0-12.3,2.5-16.2,7.4C62.1,134.6,59.8,144.3,59.8,157.7z M68.8,157.7
					c0-11.8,1.4-19.6,4.1-23.5c2.8-3.9,6.1-5.8,10.2-5.8c4,0,7.4,2,10.2,5.9s4.1,11.7,4.1,23.4c0,11.8-1.4,19.6-4.1,23.5
					c-2.8,3.9-6.2,5.8-10.3,5.8c-4,0-7.3-1.7-9.7-5.1C70.3,177.6,68.8,169.5,68.8,157.7z"/>
			</g>
			<g>
				<path id="ArialMT-30_10_" class="st0" d="M115.4,157.7c0,8.5,0.9,15.3,2.6,20.4c1.7,5.2,4.3,9.1,7.8,11.9
					c3.4,2.8,7.8,4.2,13,4.2c3.8,0,7.2-0.8,10.1-2.3c2.9-1.5,5.3-3.8,7.2-6.7s3.4-6.5,4.5-10.6c1.1-4.2,1.6-9.8,1.6-16.9
					c0-8.4-0.9-15.2-2.6-20.3c-1.7-5.2-4.3-9.1-7.7-12c-3.4-2.8-7.8-4.2-13-4.2c-6.9,0-12.3,2.5-16.2,7.4
					C117.7,134.6,115.4,144.3,115.4,157.7z M124.4,157.7c0-11.8,1.4-19.6,4.1-23.5c2.8-3.9,6.1-5.8,10.2-5.8c4,0,7.4,2,10.2,5.9
					s4.1,11.7,4.1,23.4c0,11.8-1.4,19.6-4.1,23.5c-2.8,3.9-6.2,5.8-10.3,5.8c-4,0-7.3-1.7-9.7-5.1
					C125.9,177.6,124.4,169.5,124.4,157.7z"/>
			</g>
		</g>
	</g>
</g>
<g id="ytick_6">
	<g id="text_16">
		<g transform="translate(53.429688 622.033588)scale(0.4 -0.4)">
			<g>
				<path id="ArialMT-31_1_" class="st0" d="M37.2,122.4h-8.8v56c-2.1-2-4.9-4-8.3-6s-6.5-3.5-9.3-4.5v8.5c4.9,2.3,9.2,5.1,12.9,8.4
					c3.7,3.3,6.3,6.5,7.8,9.6h5.7V122.4z"/>
			</g>
			<g>
				<path id="ArialMT-30_11_" class="st0" d="M59.8,157.7c0,8.5,0.9,15.3,2.6,20.4c1.7,5.2,4.3,9.1,7.8,11.9c3.4,2.8,7.8,4.2,13,4.2
					c3.8,0,7.2-0.8,10.1-2.3s5.3-3.8,7.2-6.7c1.9-2.9,3.4-6.5,4.5-10.6c1.1-4.2,1.6-9.8,1.6-16.9c0-8.4-0.9-15.2-2.6-20.3
					c-1.7-5.2-4.3-9.1-7.7-12c-3.4-2.8-7.8-4.2-13-4.2c-6.9,0-12.3,2.5-16.2,7.4C62.1,134.6,59.8,144.3,59.8,157.7z M68.8,157.7
					c0-11.8,1.4-19.6,4.1-23.5c2.8-3.9,6.1-5.8,10.2-5.8c4,0,7.4,2,10.2,5.9s4.1,11.7,4.1,23.4c0,11.8-1.4,19.6-4.1,23.5
					c-2.8,3.9-6.2,5.8-10.3,5.8c-4,0-7.3-1.7-9.7-5.1C70.3,177.6,68.8,169.5,68.8,157.7z"/>
			</g>
			<g>
				<path id="ArialMT-30_12_" class="st0" d="M115.4,157.7c0,8.5,0.9,15.3,2.6,20.4c1.7,5.2,4.3,9.1,7.8,11.9
					c3.4,2.8,7.8,4.2,13,4.2c3.8,0,7.2-0.8,10.1-2.3c2.9-1.5,5.3-3.8,7.2-6.7s3.4-6.5,4.5-10.6c1.1-4.2,1.6-9.8,1.6-16.9
					c0-8.4-0.9-15.2-2.6-20.3c-1.7-5.2-4.3-9.1-7.7-12c-3.4-2.8-7.8-4.2-13-4.2c-6.9,0-12.3,2.5-16.2,7.4
					C117.7,134.6,115.4,144.3,115.4,157.7z M124.4,157.7c0-11.8,1.4-19.6,4.1-23.5c2.8-3.9,6.1-5.8,10.2-5.8c4,0,7.4,2,10.2,5.9
					s4.1,11.7,4.1,23.4c0,11.8-1.4,19.6-4.1,23.5c-2.8,3.9-6.2,5.8-10.3,5.8c-4,0-7.3-1.7-9.7-5.1
					C125.9,177.6,124.4,169.5,124.4,157.7z"/>
			</g>
			<g>
				<path id="ArialMT-30_13_" class="st0" d="M171,157.7c0,8.5,0.9,15.3,2.6,20.4c1.7,5.2,4.3,9.1,7.8,11.9c3.4,2.8,7.8,4.2,13,4.2
					c3.8,0,7.2-0.8,10.1-2.3c2.9-1.5,5.3-3.8,7.2-6.7s3.4-6.5,4.5-10.6c1.1-4.2,1.6-9.8,1.6-16.9c0-8.4-0.9-15.2-2.6-20.3
					c-1.7-5.2-4.3-9.1-7.7-12c-3.4-2.8-7.8-4.2-13-4.2c-6.9,0-12.3,2.5-16.2,7.4C173.4,134.6,171,144.3,171,157.7z M180,157.7
					c0-11.8,1.4-19.6,4.1-23.5c2.8-3.9,6.1-5.8,10.2-5.8c4,0,7.4,2,10.2,5.9s4.1,11.7,4.1,23.4c0,11.8-1.4,19.6-4.1,23.5
					c-2.8,3.9-6.2,5.8-10.3,5.8c-4,0-7.3-1.7-9.7-5.1C181.5,177.6,180,169.5,180,157.7z"/>
			</g>
		</g>
	</g>
</g>
<g id="text_17">
	<g transform="translate(39.958594 938.409512)rotate(-90)scale(0.45 -0.45)">
		<g>
			<path id="ArialMT-4d_1_" class="st0" d="M116.3,0v71.6h14.3l16.9-50.7c1.6-4.7,2.7-8.3,3.4-10.6c0.8,2.6,2.1,6.4,3.8,11.5
				l17.1,49.8h12.8V0h-9.1v59.9L154.6,0h-8.5l-20.7,60.9V0H116.3z"/>
		</g>
		<g>
			<path id="ArialMT-65_4_" class="st0" d="M234.2,16.7l9.1-1.1c-1.4-5.3-4.1-9.4-8-12.4c-3.9-2.9-8.8-4.4-14.8-4.4
				c-7.6,0-13.6,2.3-18,7s-6.7,11.2-6.7,19.7c0,8.7,2.2,15.5,6.7,20.3C207,50.6,212.9,53,220,53c6.9,0,12.6-2.4,17-7.1
				c4.4-4.7,6.6-11.4,6.6-19.9c0-0.5,0-1.3,0-2.3h-38.7c0.3-5.7,1.9-10.1,4.8-13.1c2.9-3,6.5-4.5,10.8-4.5c3.2,0,6,0.8,8.2,2.5
				C231.1,10.3,232.9,13,234.2,16.7z M205.4,30.9h29c-0.4,4.4-1.5,7.6-3.3,9.8c-2.8,3.4-6.4,5.1-10.9,5.1c-4,0-7.4-1.3-10.2-4
				S205.7,35.4,205.4,30.9z"/>
		</g>
		<g>
			<path id="ArialMT-61_1_" class="st0" d="M288.2,6.4c-3.3-2.8-6.4-4.7-9.4-5.9c-3-1.1-6.2-1.7-9.7-1.7C263.4-1.2,259,0.2,256,3
				c-3.1,2.8-4.6,6.3-4.6,10.7c0,2.5,0.6,4.9,1.7,7c1.2,2.1,2.7,3.8,4.5,5.1c1.9,1.3,4,2.2,6.3,2.9c1.7,0.5,4.3,0.9,7.8,1.3
				c7.1,0.8,12.3,1.8,15.7,3c0,1.2,0,2,0,2.3c0,3.6-0.8,6.1-2.5,7.6c-2.2,2-5.6,3-10,3c-4.1,0-7.2-0.7-9.2-2.2s-3.4-4-4.4-7.7
				l-8.6,1.2c0.8,3.7,2.1,6.6,3.9,8.9c1.8,2.3,4.4,4,7.8,5.2s7.3,1.8,11.8,1.8c4.4,0,8-0.5,10.8-1.6c2.8-1,4.8-2.4,6.1-3.9
				c1.3-1.6,2.2-3.6,2.7-6c0.3-1.5,0.4-4.2,0.4-8.1V21.7c0-8.2,0.2-13.3,0.6-15.5S297.9,2,299,0h-9.2C289,1.8,288.4,4,288.2,6.4z
				 M287.5,26c-3.2-1.3-8-2.4-14.4-3.3c-3.6-0.5-6.2-1.1-7.7-1.8c-1.5-0.6-2.6-1.6-3.5-2.8c-0.8-1.2-1.2-2.6-1.2-4.2
				c0-2.3,0.9-4.3,2.7-5.9c1.8-1.6,4.4-2.3,7.8-2.3s6.4,0.7,9,2.2s4.6,3.5,5.8,6.1c0.9,2,1.4,4.9,1.4,8.8V26H287.5z"/>
		</g>
		<g>
			<path id="ArialMT-6e_3_" class="st0" d="M310,0v51.9h7.9v-7.4c3.8,5.7,9.3,8.5,16.5,8.5c3.1,0,6-0.6,8.6-1.7s4.6-2.6,5.9-4.4
				c1.3-1.8,2.2-4,2.7-6.5c0.3-1.6,0.5-4.5,0.5-8.5V0h-8.8v31.5c0,3.6-0.3,6.3-1,8c-0.7,1.8-1.9,3.2-3.6,4.2
				c-1.7,1.1-3.8,1.6-6.1,1.6c-3.8,0-7-1.2-9.7-3.6s-4.1-6.9-4.1-13.5V0H310z"/>
		</g>
		<g>
			<path id="ArialMT-20_4_" class="st0" d="M359,0"/>
		</g>
		<g>
			<path id="ArialMT-52_4_" class="st0" d="M394.6,0v71.6h31.7c6.4,0,11.2-0.6,14.5-1.9s6-3.6,8-6.8c2-3.2,3-6.8,3-10.8
				c0-5.1-1.6-9.4-4.9-12.8c-3.3-3.5-8.4-5.7-15.2-6.6c2.5-1.2,4.4-2.4,5.7-3.6c2.8-2.5,5.4-5.7,7.9-9.5L457.7,0h-11.9l-9.5,14.9
				c-2.8,4.3-5.1,7.6-6.8,9.9c-1.8,2.3-3.4,3.9-4.8,4.8s-2.9,1.6-4.3,1.9c-1.1,0.2-2.8,0.3-5.3,0.3h-11V0H394.6z M404.1,40h20.4
				c4.3,0,7.7,0.4,10.1,1.3c2.4,0.9,4.3,2.3,5.6,4.3c1.3,2,1.9,4.1,1.9,6.4c0,3.4-1.2,6.2-3.7,8.3c-2.5,2.2-6.3,3.3-11.7,3.3H404V40
				H404.1z"/>
		</g>
		<g>
			<path id="ArialMT-54_4_" class="st0" d="M483.2,0v63.1h-23.6v8.4h56.7v-8.4h-23.7V0H483.2z"/>
		</g>
		<g>
			<path id="ArialMT-20_5_" class="st0" d="M516.6,0"/>
		</g>
		<g>
			<path id="ArialMT-28_1_" class="st0" d="M567.7-21c-4.9,6.1-9,13.3-12.3,21.5s-5,16.7-5,25.5c0,7.8,1.2,15.2,3.8,22.3
				c2.9,8.2,7.5,16.4,13.6,24.6h6.3c-3.9-6.8-6.5-11.6-7.8-14.5c-2-4.5-3.6-9.2-4.7-14.1c-1.4-6.1-2.1-12.2-2.1-18.4
				c0-15.7,4.9-31.3,14.6-46.9C574.1-21,567.7-21,567.7-21z"/>
		</g>
		<g>
			<path id="ArialMT-6d_1_" class="st0" d="M584.2,0v51.9h7.9v-7.3c1.6,2.5,3.8,4.6,6.5,6.1c2.7,1.6,5.8,2.3,9.2,2.3
				c3.8,0,7-0.8,9.5-2.4s4.2-3.8,5.2-6.7c4.1,6.1,9.4,9.1,16,9.1c5.1,0,9.1-1.4,11.9-4.3c2.8-2.8,4.2-7.2,4.2-13.2V0h-8.8v32.7
				c0,3.5-0.3,6-0.9,7.6c-0.6,1.6-1.6,2.8-3.1,3.7s-3.2,1.4-5.3,1.4c-3.6,0-6.7-1.2-9.1-3.6c-2.4-2.4-3.6-6.3-3.6-11.6V0H615v33.7
				c0,3.9-0.7,6.8-2.2,8.8c-1.4,2-3.8,2.9-7,2.9c-2.5,0-4.8-0.7-6.9-2c-2.1-1.3-3.6-3.2-4.6-5.7c-0.9-2.5-1.4-6.1-1.4-10.8V0H584.2z
				"/>
		</g>
		<g>
			<path id="ArialMT-73_1_" class="st0" d="M664,15.5l8.7,1.4c0.5-3.5,1.8-6.1,4.1-8s5.3-2.8,9.4-2.8c4,0,7,0.8,9,2.5
				c2,1.6,2.9,3.6,2.9,5.8c0,2-0.9,3.5-2.6,4.7c-1.2,0.8-4.2,1.8-9,3c-6.4,1.6-10.9,3-13.4,4.2s-4.4,2.8-5.7,4.9s-1.9,4.4-1.9,7
				c0,2.3,0.5,4.4,1.6,6.4s2.5,3.6,4.3,4.9c1.4,1,3.2,1.8,5.6,2.5c2.4,0.7,4.9,1.1,7.6,1.1c4.1,0,7.6-0.6,10.7-1.8
				c3.1-1.2,5.4-2.8,6.8-4.8c1.5-2,2.5-4.7,3-8l-8.6-1.2c-0.4,2.7-1.5,4.7-3.4,6.2s-4.5,2.2-7.9,2.2c-4,0-6.9-0.7-8.6-2
				S674,40.8,674,39c0-1.1,0.4-2.2,1.1-3.1c0.7-0.9,1.8-1.7,3.4-2.3c0.9-0.3,3.5-1.1,7.8-2.2c6.2-1.7,10.6-3,13-4.1
				c2.5-1.1,4.4-2.6,5.8-4.6c1.4-2,2.1-4.5,2.1-7.5c0-2.9-0.9-5.7-2.6-8.3c-1.7-2.6-4.2-4.6-7.4-6s-6.9-2.1-10.9-2.1
				c-6.7,0-11.9,1.4-15.4,4.2S665,10,664,15.5z"/>
		</g>
		<g>
			<path id="ArialMT-29_1_" class="st0" d="M723.3-21H717c9.7,15.6,14.6,31.3,14.6,46.9c0,6.1-0.7,12.2-2.1,18.2
				c-1.1,4.9-2.7,9.6-4.6,14.1c-1.3,2.9-3.9,7.8-7.9,14.6h6.3c6.1-8.2,10.6-16.4,13.6-24.6c2.5-7.1,3.8-14.5,3.8-22.3
				c0-8.8-1.7-17.3-5.1-25.5S728.1-14.9,723.3-21z"/>
		</g>
	</g>
</g>
<g id="patch_12">
	<g>
		<g>
			<defs>
				<rect id="SVGID_17_" x="151.5" y="558.7" width="613.6" height="375.5"/>
			</defs>
			<clipPath id="SVGID_18_">
				<use xlink:href="#SVGID_17_"  style="overflow:visible;"/>
			</clipPath>
			<path class="st12" d="M182.2,1309.7h122.7V778.6H182.2V1309.7z"/>
		</g>
	</g>
</g>
<g id="patch_13">
	<g>
		<g>
			<defs>
				<rect id="SVGID_19_" x="151.5" y="558.7" width="613.6" height="375.5"/>
			</defs>
			<clipPath id="SVGID_20_">
				<use xlink:href="#SVGID_19_"  style="overflow:visible;"/>
			</clipPath>
			<path class="st13" d="M489,1309.7h122.7V780.5H489V1309.7z"/>
		</g>
	</g>
</g>
<g id="patch_14">
	<g>
		<g>
			<defs>
				<rect id="SVGID_21_" x="151.5" y="558.7" width="613.6" height="375.5"/>
			</defs>
			<clipPath id="SVGID_22_">
				<use xlink:href="#SVGID_21_"  style="overflow:visible;"/>
			</clipPath>
			<path class="st14" d="M304.9,1309.7h122.7V620.2H304.9V1309.7z"/>
		</g>
	</g>
</g>
<g id="patch_15">
	<g>
		<g>
			<defs>
				<rect id="SVGID_23_" x="151.5" y="558.7" width="613.6" height="375.5"/>
			</defs>
			<clipPath id="SVGID_24_">
				<use xlink:href="#SVGID_23_"  style="overflow:visible;"/>
			</clipPath>
			<path class="st15" d="M611.7,1309.7h122.7v-697H611.7V1309.7z"/>
		</g>
	</g>
</g>
<g id="line2d_5">
	<g>
		<g>
			<defs>
				<rect id="SVGID_25_" x="151.5" y="558.7" width="613.6" height="375.5"/>
			</defs>
			<clipPath id="SVGID_26_">
				<use xlink:href="#SVGID_25_"  style="overflow:visible;"/>
			</clipPath>
			<path class="st16" d="M243.6,804.7V747"/>
		</g>
	</g>
</g>
<g id="line2d_6">
	<g>
		<g>
			<defs>
				<rect id="SVGID_27_" x="151.5" y="558.7" width="613.6" height="375.5"/>
			</defs>
			<clipPath id="SVGID_28_">
				<use xlink:href="#SVGID_27_"  style="overflow:visible;"/>
			</clipPath>
			<path class="st17" d="M550.4,809.2v-60.6"/>
		</g>
	</g>
</g>
<g id="line2d_7">
	<g>
		<g>
			<defs>
				<rect id="SVGID_29_" x="151.5" y="558.7" width="613.6" height="375.5"/>
			</defs>
			<clipPath id="SVGID_30_">
				<use xlink:href="#SVGID_29_"  style="overflow:visible;"/>
			</clipPath>
			<path class="st18" d="M366.3,655.1v-69"/>
		</g>
	</g>
</g>
<g id="line2d_8">
	<g>
		<g>
			<defs>
				<rect id="SVGID_31_" x="151.5" y="558.7" width="613.6" height="375.5"/>
			</defs>
			<clipPath id="SVGID_32_">
				<use xlink:href="#SVGID_31_"  style="overflow:visible;"/>
			</clipPath>
			<path class="st19" d="M673.1,649.1v-70.7"/>
		</g>
	</g>
</g>
<g id="patch_16">
	<path class="st9" d="M151.5,934.2V558.7"/>
</g>
<g id="patch_17">
	<path class="st9" d="M151.5,934.2h613.6"/>
</g>
<g id="text_18">
	<g transform="translate(90.141051 613.118403)scale(0.6 -0.6)">
		<g>
			<path id="ArialMT-42" class="st0" d="M1145.5,925.6v71.6h26.9c5.5,0,9.9-0.7,13.2-2.2c3.3-1.4,5.9-3.7,7.8-6.7s2.8-6.2,2.8-9.5
				c0-3.1-0.8-5.9-2.5-8.6c-1.7-2.7-4.2-4.9-7.5-6.5c4.3-1.3,7.6-3.4,10-6.5c2.3-3.1,3.5-6.7,3.5-10.8c0-3.4-0.7-6.5-2.1-9.4
				s-3.2-5.1-5.2-6.7s-4.7-2.7-7.8-3.5c-3.1-0.8-7-1.2-11.5-1.2L1145.5,925.6L1145.5,925.6z M1155,967.1h15.5c4.2,0,7.2,0.3,9,0.8
				c2.4,0.7,4.2,1.9,5.4,3.6c1.2,1.7,1.8,3.8,1.8,6.3c0,2.4-0.6,4.5-1.7,6.3s-2.8,3.1-4.9,3.7c-2.1,0.7-5.7,1-10.9,1h-14.3
				L1155,967.1L1155,967.1z M1155,934h17.8c3.1,0,5.2,0.1,6.4,0.3c2.2,0.4,4,1,5.5,1.9s2.7,2.2,3.6,4c0.9,1.7,1.4,3.8,1.4,6
				c0,2.7-0.7,5-2,7c-1.4,2-3.3,3.4-5.7,4.2c-2.4,0.8-5.9,1.2-10.5,1.2H1155L1155,934L1155,934z"/>
		</g>
	</g>
</g>
<g id="matplotlib.axis_5">
	<g id="xtick_5">
		<g id="text_21">
			<g transform="translate(1011.277415 532.809908)scale(0.4 -0.4)">
				<g>
					<path id="ArialMT-43_7_" class="st0" d="M58.8,147.5l9.5-2.4c-2-7.8-5.6-13.7-10.7-17.8s-11.5-6.1-18.9-6.1
						c-7.7,0-14,1.6-18.8,4.7s-8.5,7.7-11,13.7S5.1,152,5.1,158.8c0,7.5,1.4,14,4.3,19.5c2.9,5.6,6.9,9.8,12.2,12.6
						c5.3,2.9,11,4.3,17.4,4.3c7.2,0,13.2-1.8,18.1-5.5c4.9-3.6,8.3-8.8,10.2-15.4l-9.3-2.2c-1.7,5.2-4.1,9-7.2,11.4
						c-3.2,2.4-7.1,3.6-11.9,3.6c-5.5,0-10.1-1.3-13.8-4c-3.7-2.6-6.3-6.2-7.8-10.6c-1.5-4.4-2.2-9-2.2-13.7
						c0-6.1,0.9-11.4,2.7-15.9s4.5-7.9,8.3-10.2c3.8-2.2,7.8-3.4,12.2-3.4c5.3,0,9.8,1.5,13.5,4.6C55,137,57.5,141.5,58.8,147.5z"/>
				</g>
				<g>
					<path id="ArialMT-4f_2_" class="st0" d="M77,157.3c0,11.9,3.2,21.2,9.6,27.9s14.6,10.1,24.7,10.1c6.6,0,12.6-1.6,17.9-4.8
						c5.3-3.2,9.3-7.6,12.1-13.2c2.8-5.6,4.2-12.1,4.2-19.2c0-7.2-1.5-13.7-4.4-19.5c-2.9-5.7-7.1-10.1-12.5-13
						c-5.4-2.9-11.2-4.4-17.4-4.4c-6.7,0-12.8,1.6-18.1,4.9c-5.3,3.3-9.3,7.7-12.1,13.3C78.4,145.1,77,151,77,157.3z M86.8,157.2
						c0-8.6,2.3-15.4,7-20.4c4.6-5,10.5-7.4,17.5-7.4c7.1,0,13,2.5,17.6,7.5s6.9,12.1,6.9,21.3c0,5.8-1,10.9-3,15.2
						s-4.9,7.7-8.7,10.1c-3.8,2.4-8,3.6-12.8,3.6c-6.7,0-12.5-2.3-17.3-6.9C89.2,175.6,86.8,167.9,86.8,157.2z"/>
				</g>
			</g>
		</g>
	</g>
	<g id="xtick_6">
		<g id="text_22">
			<g transform="translate(1319.208097 532.809908)scale(0.4 -0.4)">
				<g>
					<path id="ArialMT-43_8_" class="st0" d="M58.8,147.5l9.5-2.4c-2-7.8-5.6-13.7-10.7-17.8s-11.5-6.1-18.9-6.1
						c-7.7,0-14,1.6-18.8,4.7s-8.5,7.7-11,13.7S5.1,152,5.1,158.8c0,7.5,1.4,14,4.3,19.5c2.9,5.6,6.9,9.8,12.2,12.6
						c5.3,2.9,11,4.3,17.4,4.3c7.2,0,13.2-1.8,18.1-5.5c4.9-3.6,8.3-8.8,10.2-15.4l-9.3-2.2c-1.7,5.2-4.1,9-7.2,11.4
						c-3.2,2.4-7.1,3.6-11.9,3.6c-5.5,0-10.1-1.3-13.8-4c-3.7-2.6-6.3-6.2-7.8-10.6c-1.5-4.4-2.2-9-2.2-13.7
						c0-6.1,0.9-11.4,2.7-15.9s4.5-7.9,8.3-10.2c3.8-2.2,7.8-3.4,12.2-3.4c5.3,0,9.8,1.5,13.5,4.6C55,137,57.5,141.5,58.8,147.5z"/>
				</g>
				<g>
					<path id="ArialMT-44_2_" class="st0" d="M79.9,122.4V194h24.7c5.6,0,9.8-0.3,12.8-1c4.1-0.9,7.6-2.7,10.5-5.1
						c3.8-3.2,6.6-7.3,8.5-12.2c1.9-5,2.8-10.6,2.8-17c0-5.4-0.6-10.3-1.9-14.5c-1.3-4.2-2.9-7.7-4.9-10.4c-2-2.8-4.2-4.9-6.5-6.5
						c-2.4-1.6-5.2-2.8-8.5-3.6c-3.3-0.8-7.2-1.2-11.5-1.2h-26V122.4z M89.4,130.9h15.3c4.7,0,8.4,0.4,11.1,1.3s4.8,2.1,6.4,3.7
						c2.2,2.2,4,5.3,5.2,9c1.2,3.8,1.9,8.4,1.9,13.8c0,7.5-1.2,13.2-3.7,17.3c-2.5,4-5.4,6.7-9,8.1c-2.5,1-6.6,1.5-12.2,1.5h-15
						C89.4,185.6,89.4,130.9,89.4,130.9z"/>
				</g>
			</g>
		</g>
	</g>
</g>
<g id="ytick_7">
	<g id="text_23">
		<g transform="translate(856.524574 476.986912)scale(0.4 -0.4)">
			<g>
				<path id="ArialMT-30_14_" class="st0" d="M4.2,157.7c0,8.5,0.9,15.3,2.6,20.4c1.7,5.2,4.3,9.1,7.8,11.9c3.4,2.8,7.8,4.2,13,4.2
					c3.8,0,7.2-0.8,10.1-2.3s5.3-3.8,7.2-6.7s3.4-6.5,4.5-10.6c1.1-4.2,1.6-9.8,1.6-16.9c0-8.4-0.9-15.2-2.6-20.3
					c-1.7-5.2-4.3-9.1-7.7-12c-3.4-2.8-7.8-4.2-13-4.2c-6.9,0-12.3,2.5-16.2,7.4C6.5,134.6,4.2,144.3,4.2,157.7z M13.2,157.7
					c0-11.8,1.4-19.6,4.1-23.5c2.8-3.9,6.1-5.8,10.2-5.8c4,0,7.4,2,10.2,5.9s4.1,11.7,4.1,23.4c0,11.8-1.4,19.6-4.1,23.5
					c-2.8,3.9-6.2,5.8-10.3,5.8c-4,0-7.3-1.7-9.7-5.1C14.7,177.6,13.2,169.5,13.2,157.7z"/>
			</g>
		</g>
	</g>
</g>
<g id="ytick_8">
	<g id="text_24">
		<g transform="translate(834.280824 382.729441)scale(0.4 -0.4)">
			<g>
				<path id="ArialMT-35" class="st0" d="M4.2,141.2l9.2,0.8c0.7-4.5,2.3-7.9,4.8-10.1c2.5-2.3,5.5-3.4,9-3.4
					c4.2,0,7.8,1.6,10.7,4.8s4.4,7.4,4.4,12.7c0,5-1.4,9-4.2,11.9s-6.5,4.4-11.1,4.4c-2.8,0-5.4-0.6-7.7-1.9c-2.3-1.3-4.1-2.9-5.4-5
					l-8.2,1.1l6.9,36.8h35.6v-8.4H19.7l-3.8-19.2c4.3,3,8.8,4.5,13.5,4.5c6.2,0,11.5-2.2,15.8-6.5s6.5-9.9,6.5-16.7
					c0-6.5-1.9-12.1-5.7-16.8c-4.6-5.8-10.9-8.7-18.8-8.7c-6.5,0-11.8,1.8-16,5.5C7.1,130.3,4.7,135.2,4.2,141.2z"/>
			</g>
			<g>
				<path id="ArialMT-30_15_" class="st0" d="M59.8,157.7c0,8.5,0.9,15.3,2.6,20.4c1.7,5.2,4.3,9.1,7.8,11.9c3.4,2.8,7.8,4.2,13,4.2
					c3.8,0,7.2-0.8,10.1-2.3s5.3-3.8,7.2-6.7c1.9-2.9,3.4-6.5,4.5-10.6c1.1-4.2,1.6-9.8,1.6-16.9c0-8.4-0.9-15.2-2.6-20.3
					c-1.7-5.2-4.3-9.1-7.7-12c-3.4-2.8-7.8-4.2-13-4.2c-6.9,0-12.3,2.5-16.2,7.4C62.1,134.6,59.8,144.3,59.8,157.7z M68.8,157.7
					c0-11.8,1.4-19.6,4.1-23.5c2.8-3.9,6.1-5.8,10.2-5.8c4,0,7.4,2,10.2,5.9s4.1,11.7,4.1,23.4c0,11.8-1.4,19.6-4.1,23.5
					c-2.8,3.9-6.2,5.8-10.3,5.8c-4,0-7.3-1.7-9.7-5.1C70.3,177.6,68.8,169.5,68.8,157.7z"/>
			</g>
		</g>
	</g>
</g>
<g id="ytick_9">
	<g id="text_25">
		<g transform="translate(812.037074 288.471971)scale(0.4 -0.4)">
			<g>
				<path id="ArialMT-31_2_" class="st0" d="M37.2,122.4h-8.8v56c-2.1-2-4.9-4-8.3-6s-6.5-3.5-9.3-4.5v8.5c4.9,2.3,9.2,5.1,12.9,8.4
					c3.7,3.3,6.3,6.5,7.8,9.6h5.7V122.4z"/>
			</g>
			<g>
				<path id="ArialMT-30_16_" class="st0" d="M59.8,157.7c0,8.5,0.9,15.3,2.6,20.4c1.7,5.2,4.3,9.1,7.8,11.9c3.4,2.8,7.8,4.2,13,4.2
					c3.8,0,7.2-0.8,10.1-2.3s5.3-3.8,7.2-6.7c1.9-2.9,3.4-6.5,4.5-10.6c1.1-4.2,1.6-9.8,1.6-16.9c0-8.4-0.9-15.2-2.6-20.3
					c-1.7-5.2-4.3-9.1-7.7-12c-3.4-2.8-7.8-4.2-13-4.2c-6.9,0-12.3,2.5-16.2,7.4C62.1,134.6,59.8,144.3,59.8,157.7z M68.8,157.7
					c0-11.8,1.4-19.6,4.1-23.5c2.8-3.9,6.1-5.8,10.2-5.8c4,0,7.4,2,10.2,5.9s4.1,11.7,4.1,23.4c0,11.8-1.4,19.6-4.1,23.5
					c-2.8,3.9-6.2,5.8-10.3,5.8c-4,0-7.3-1.7-9.7-5.1C70.3,177.6,68.8,169.5,68.8,157.7z"/>
			</g>
			<g>
				<path id="ArialMT-30_17_" class="st0" d="M115.4,157.7c0,8.5,0.9,15.3,2.6,20.4c1.7,5.2,4.3,9.1,7.8,11.9
					c3.4,2.8,7.8,4.2,13,4.2c3.8,0,7.2-0.8,10.1-2.3c2.9-1.5,5.3-3.8,7.2-6.7s3.4-6.5,4.5-10.6c1.1-4.2,1.6-9.8,1.6-16.9
					c0-8.4-0.9-15.2-2.6-20.3c-1.7-5.2-4.3-9.1-7.7-12c-3.4-2.8-7.8-4.2-13-4.2c-6.9,0-12.3,2.5-16.2,7.4
					C117.7,134.6,115.4,144.3,115.4,157.7z M124.4,157.7c0-11.8,1.4-19.6,4.1-23.5c2.8-3.9,6.1-5.8,10.2-5.8c4,0,7.4,2,10.2,5.9
					s4.1,11.7,4.1,23.4c0,11.8-1.4,19.6-4.1,23.5c-2.8,3.9-6.2,5.8-10.3,5.8c-4,0-7.3-1.7-9.7-5.1
					C125.9,177.6,124.4,169.5,124.4,157.7z"/>
			</g>
		</g>
	</g>
</g>
<g id="ytick_10">
	<g id="text_26">
		<g transform="translate(812.037074 194.2145)scale(0.4 -0.4)">
			<g>
				<path id="ArialMT-31_3_" class="st0" d="M37.2,122.4h-8.8v56c-2.1-2-4.9-4-8.3-6s-6.5-3.5-9.3-4.5v8.5c4.9,2.3,9.2,5.1,12.9,8.4
					c3.7,3.3,6.3,6.5,7.8,9.6h5.7V122.4z"/>
			</g>
			<g>
				<path id="ArialMT-35_1_" class="st0" d="M59.8,141.2L69,142c0.7-4.5,2.3-7.9,4.8-10.1c2.5-2.3,5.5-3.4,9-3.4
					c4.2,0,7.8,1.6,10.7,4.8c2.9,3.2,4.4,7.4,4.4,12.7c0,5-1.4,9-4.2,11.9c-2.8,2.9-6.5,4.4-11.1,4.4c-2.8,0-5.4-0.6-7.7-1.9
					c-2.3-1.3-4.1-2.9-5.4-5l-8.2,1.1l6.9,36.8h35.6v-8.4H75.3l-3.8-19.2c4.3,3,8.8,4.5,13.5,4.5c6.2,0,11.5-2.2,15.8-6.5
					s6.5-9.9,6.5-16.7c0-6.5-1.9-12.1-5.7-16.8c-4.6-5.8-10.9-8.7-18.8-8.7c-6.5,0-11.8,1.8-16,5.5
					C62.7,130.3,60.4,135.2,59.8,141.2z"/>
			</g>
			<g>
				<path id="ArialMT-30_18_" class="st0" d="M115.4,157.7c0,8.5,0.9,15.3,2.6,20.4c1.7,5.2,4.3,9.1,7.8,11.9
					c3.4,2.8,7.8,4.2,13,4.2c3.8,0,7.2-0.8,10.1-2.3c2.9-1.5,5.3-3.8,7.2-6.7s3.4-6.5,4.5-10.6c1.1-4.2,1.6-9.8,1.6-16.9
					c0-8.4-0.9-15.2-2.6-20.3c-1.7-5.2-4.3-9.1-7.7-12c-3.4-2.8-7.8-4.2-13-4.2c-6.9,0-12.3,2.5-16.2,7.4
					C117.7,134.6,115.4,144.3,115.4,157.7z M124.4,157.7c0-11.8,1.4-19.6,4.1-23.5c2.8-3.9,6.1-5.8,10.2-5.8c4,0,7.4,2,10.2,5.9
					s4.1,11.7,4.1,23.4c0,11.8-1.4,19.6-4.1,23.5c-2.8,3.9-6.2,5.8-10.3,5.8c-4,0-7.3-1.7-9.7-5.1
					C125.9,177.6,124.4,169.5,124.4,157.7z"/>
			</g>
		</g>
	</g>
</g>
<g id="patch_21">
	<g>
		<g>
			<defs>
				<rect id="SVGID_33_" x="887.9" y="70.6" width="613.6" height="375.5"/>
			</defs>
			<clipPath id="SVGID_34_">
				<use xlink:href="#SVGID_33_"  style="overflow:visible;"/>
			</clipPath>
			<path class="st20" d="M918.6,413.7H1164V272.5H918.6V413.7z"/>
		</g>
	</g>
</g>
<g id="patch_22">
	<g>
		<g>
			<defs>
				<rect id="SVGID_35_" x="887.9" y="70.6" width="613.6" height="375.5"/>
			</defs>
			<clipPath id="SVGID_36_">
				<use xlink:href="#SVGID_35_"  style="overflow:visible;"/>
			</clipPath>
			<path class="st21" d="M1225.4,413.7h245.5v-145h-245.5V413.7z"/>
		</g>
	</g>
</g>
<g id="line2d_9">
	<g>
		<g>
			<defs>
				<rect id="SVGID_37_" x="887.9" y="70.6" width="613.6" height="375.5"/>
			</defs>
			<clipPath id="SVGID_38_">
				<use xlink:href="#SVGID_37_"  style="overflow:visible;"/>
			</clipPath>
			<path class="st22" d="M1041.3,304.5v-68.9"/>
		</g>
	</g>
</g>
<g id="line2d_10">
	<g>
		<g>
			<defs>
				<rect id="SVGID_39_" x="887.9" y="70.6" width="613.6" height="375.5"/>
			</defs>
			<clipPath id="SVGID_40_">
				<use xlink:href="#SVGID_39_"  style="overflow:visible;"/>
			</clipPath>
			<path class="st23" d="M1348.1,300.8v-63"/>
		</g>
	</g>
</g>
<g id="patch_23">
	<path class="st24" d="M887.9,446.1V70.6"/>
</g>
<g id="patch_24">
	<path class="st24" d="M887.9,446.1h613.6"/>
</g>
<g id="PathCollection_1">
	<g>
		<g>
			<defs>
				<rect id="SVGID_41_" x="887.9" y="70.6" width="613.6" height="375.5"/>
			</defs>
			<clipPath id="SVGID_42_">
				<use xlink:href="#SVGID_41_"  style="overflow:visible;"/>
			</clipPath>
			<g class="st25">
				<g>
					<path id="C0_0_e969287bfd" class="st26" d="M1041.3,434c1.3,0,2.6-0.5,3.5-1.5c0.9-0.9,1.5-2.2,1.5-3.5s-0.5-2.6-1.5-3.5
						c-0.9-0.9-2.2-1.5-3.5-1.5s-2.6,0.5-3.5,1.5c-0.9,0.9-1.5,2.2-1.5,3.5s0.5,2.6,1.5,3.5C1038.7,433.5,1040,434,1041.3,434z"/>
				</g>
			</g>
		</g>
	</g>
	<g>
		<g>
			<defs>
				<rect id="SVGID_43_" x="887.9" y="70.6" width="613.6" height="375.5"/>
			</defs>
			<clipPath id="SVGID_44_">
				<use xlink:href="#SVGID_43_"  style="overflow:visible;"/>
			</clipPath>
			<g class="st27">
				<g>
					<path id="C0_0_e969287bfd_1_" class="st26" d="M1041.3,363.5c1.3,0,2.6-0.5,3.5-1.5c0.9-0.9,1.5-2.2,1.5-3.5s-0.5-2.6-1.5-3.5
						c-0.9-0.9-2.2-1.5-3.5-1.5s-2.6,0.5-3.5,1.5c-0.9,0.9-1.5,2.2-1.5,3.5s0.5,2.6,1.5,3.5C1038.7,362.9,1040,363.5,1041.3,363.5z"
						/>
				</g>
			</g>
		</g>
	</g>
	<g>
		<g>
			<defs>
				<rect id="SVGID_45_" x="887.9" y="70.6" width="613.6" height="375.5"/>
			</defs>
			<clipPath id="SVGID_46_">
				<use xlink:href="#SVGID_45_"  style="overflow:visible;"/>
			</clipPath>
			<g class="st28">
				<g>
					<path id="C0_0_e969287bfd_2_" class="st26" d="M1016.6,354.9c1.3,0,2.6-0.5,3.5-1.5c0.9-0.9,1.5-2.2,1.5-3.5s-0.5-2.6-1.5-3.5
						c-0.9-0.9-2.2-1.5-3.5-1.5s-2.6,0.5-3.5,1.5c-0.9,0.9-1.5,2.2-1.5,3.5s0.5,2.6,1.5,3.5C1014,354.4,1015.3,354.9,1016.6,354.9z"
						/>
				</g>
			</g>
		</g>
	</g>
	<g>
		<g>
			<defs>
				<rect id="SVGID_47_" x="887.9" y="70.6" width="613.6" height="375.5"/>
			</defs>
			<clipPath id="SVGID_48_">
				<use xlink:href="#SVGID_47_"  style="overflow:visible;"/>
			</clipPath>
			<g class="st29">
				<g>
					<path id="C0_0_e969287bfd_3_" class="st26" d="M1062.5,334.4c1.3,0,2.6-0.5,3.5-1.5c0.9-0.9,1.5-2.2,1.5-3.5s-0.5-2.6-1.5-3.5
						c-0.9-0.9-2.2-1.5-3.5-1.5s-2.6,0.5-3.5,1.5c-0.9,0.9-1.5,2.2-1.5,3.5s0.5,2.6,1.5,3.5C1059.9,333.9,1061.2,334.4,1062.5,334.4
						z"/>
				</g>
			</g>
		</g>
	</g>
	<g>
		<g>
			<defs>
				<rect id="SVGID_49_" x="887.9" y="70.6" width="613.6" height="375.5"/>
			</defs>
			<clipPath id="SVGID_50_">
				<use xlink:href="#SVGID_49_"  style="overflow:visible;"/>
			</clipPath>
			<g class="st30">
				<g>
					<path id="C0_0_e969287bfd_4_" class="st26" d="M1087.4,330.8c1.3,0,2.6-0.5,3.5-1.5c0.9-0.9,1.5-2.2,1.5-3.5s-0.5-2.6-1.5-3.5
						c-0.9-0.9-2.2-1.5-3.5-1.5s-2.6,0.5-3.5,1.5c-0.9,0.9-1.5,2.2-1.5,3.5s0.5,2.6,1.5,3.5C1084.8,330.3,1086.1,330.8,1087.4,330.8
						z"/>
				</g>
			</g>
		</g>
	</g>
	<g>
		<g>
			<defs>
				<rect id="SVGID_51_" x="887.9" y="70.6" width="613.6" height="375.5"/>
			</defs>
			<clipPath id="SVGID_52_">
				<use xlink:href="#SVGID_51_"  style="overflow:visible;"/>
			</clipPath>
			<g class="st31">
				<g>
					<path id="C0_0_e969287bfd_5_" class="st26" d="M994.6,329c1.3,0,2.6-0.5,3.5-1.5c0.9-0.9,1.5-2.2,1.5-3.5s-0.5-2.6-1.5-3.5
						c-0.9-0.9-2.2-1.5-3.5-1.5s-2.6,0.5-3.5,1.5c-0.9,0.9-1.5,2.2-1.5,3.5s0.5,2.6,1.5,3.5C992,328.5,993.3,329,994.6,329z"/>
				</g>
			</g>
		</g>
	</g>
	<g>
		<g>
			<defs>
				<rect id="SVGID_53_" x="887.9" y="70.6" width="613.6" height="375.5"/>
			</defs>
			<clipPath id="SVGID_54_">
				<use xlink:href="#SVGID_53_"  style="overflow:visible;"/>
			</clipPath>
			<g class="st32">
				<g>
					<path id="C0_0_e969287bfd_6_" class="st26" d="M1112,322.3c1.3,0,2.6-0.5,3.5-1.5c0.9-0.9,1.5-2.2,1.5-3.5s-0.5-2.6-1.5-3.5
						c-0.9-0.9-2.2-1.5-3.5-1.5s-2.6,0.5-3.5,1.5c-0.9,0.9-1.5,2.2-1.5,3.5s0.5,2.6,1.5,3.5C1109.5,321.7,1110.7,322.3,1112,322.3z"
						/>
				</g>
			</g>
		</g>
	</g>
	<g>
		<g>
			<defs>
				<rect id="SVGID_55_" x="887.9" y="70.6" width="613.6" height="375.5"/>
			</defs>
			<clipPath id="SVGID_56_">
				<use xlink:href="#SVGID_55_"  style="overflow:visible;"/>
			</clipPath>
			<g class="st33">
				<g>
					<path id="C0_0_e969287bfd_7_" class="st26" d="M1041.3,289.4c1.3,0,2.6-0.5,3.5-1.5c0.9-0.9,1.5-2.2,1.5-3.5s-0.5-2.6-1.5-3.5
						c-0.9-0.9-2.2-1.5-3.5-1.5s-2.6,0.5-3.5,1.5c-0.9,0.9-1.5,2.2-1.5,3.5s0.5,2.6,1.5,3.5C1038.7,288.8,1040,289.4,1041.3,289.4z"
						/>
				</g>
			</g>
		</g>
	</g>
	<g>
		<g>
			<defs>
				<rect id="SVGID_57_" x="887.9" y="70.6" width="613.6" height="375.5"/>
			</defs>
			<clipPath id="SVGID_58_">
				<use xlink:href="#SVGID_57_"  style="overflow:visible;"/>
			</clipPath>
			<g class="st34">
				<g>
					<path id="C0_0_e969287bfd_8_" class="st26" d="M1017.2,275.1c1.3,0,2.6-0.5,3.5-1.5c0.9-0.9,1.5-2.2,1.5-3.5s-0.5-2.6-1.5-3.5
						c-0.9-0.9-2.2-1.5-3.5-1.5s-2.6,0.5-3.5,1.5c-0.9,0.9-1.5,2.2-1.5,3.5s0.5,2.6,1.5,3.5C1014.6,274.6,1015.9,275.1,1017.2,275.1
						z"/>
				</g>
			</g>
		</g>
	</g>
	<g>
		<g>
			<defs>
				<rect id="SVGID_59_" x="887.9" y="70.6" width="613.6" height="375.5"/>
			</defs>
			<clipPath id="SVGID_60_">
				<use xlink:href="#SVGID_59_"  style="overflow:visible;"/>
			</clipPath>
			<g class="st35">
				<g>
					<path id="C0_0_e969287bfd_9_" class="st26" d="M1063.4,263.6c1.3,0,2.6-0.5,3.5-1.5c0.9-0.9,1.5-2.2,1.5-3.5s-0.5-2.6-1.5-3.5
						s-2.2-1.5-3.5-1.5s-2.6,0.5-3.5,1.5s-1.5,2.2-1.5,3.5s0.5,2.6,1.5,3.5C1060.8,263.1,1062,263.6,1063.4,263.6z"/>
				</g>
			</g>
		</g>
	</g>
	<g>
		<g>
			<defs>
				<rect id="SVGID_61_" x="887.9" y="70.6" width="613.6" height="375.5"/>
			</defs>
			<clipPath id="SVGID_62_">
				<use xlink:href="#SVGID_61_"  style="overflow:visible;"/>
			</clipPath>
			<g class="st36">
				<g>
					<path id="C0_0_e969287bfd_10_" class="st26" d="M1088.3,260.2c1.3,0,2.6-0.5,3.5-1.5c0.9-0.9,1.5-2.2,1.5-3.5
						c0-1.3-0.5-2.6-1.5-3.5s-2.2-1.5-3.5-1.5s-2.6,0.5-3.5,1.5s-1.5,2.2-1.5,3.5c0,1.3,0.5,2.6,1.5,3.5
						C1085.7,259.7,1086.9,260.2,1088.3,260.2z"/>
				</g>
			</g>
		</g>
	</g>
	<g>
		<g>
			<defs>
				<rect id="SVGID_63_" x="887.9" y="70.6" width="613.6" height="375.5"/>
			</defs>
			<clipPath id="SVGID_64_">
				<use xlink:href="#SVGID_63_"  style="overflow:visible;"/>
			</clipPath>
			<g class="st37">
				<g>
					<path id="C0_0_e969287bfd_11_" class="st26" d="M994.1,254.1c1.3,0,2.6-0.5,3.5-1.5s1.5-2.2,1.5-3.5s-0.5-2.6-1.5-3.5
						s-2.2-1.5-3.5-1.5s-2.6,0.5-3.5,1.5s-1.5,2.2-1.5,3.5s0.5,2.6,1.5,3.5S992.8,254.1,994.1,254.1z"/>
				</g>
			</g>
		</g>
	</g>
	<g>
		<g>
			<defs>
				<rect id="SVGID_65_" x="887.9" y="70.6" width="613.6" height="375.5"/>
			</defs>
			<clipPath id="SVGID_66_">
				<use xlink:href="#SVGID_65_"  style="overflow:visible;"/>
			</clipPath>
			<g class="st38">
				<g>
					<path id="C0_0_e969287bfd_12_" class="st26" d="M1111.8,241.8c1.3,0,2.6-0.5,3.5-1.5s1.5-2.2,1.5-3.5s-0.5-2.6-1.5-3.5
						s-2.2-1.5-3.5-1.5s-2.6,0.5-3.5,1.5s-1.5,2.2-1.5,3.5s0.5,2.6,1.5,3.5S1110.5,241.8,1111.8,241.8z"/>
				</g>
			</g>
		</g>
	</g>
	<g>
		<g>
			<defs>
				<rect id="SVGID_67_" x="887.9" y="70.6" width="613.6" height="375.5"/>
			</defs>
			<clipPath id="SVGID_68_">
				<use xlink:href="#SVGID_67_"  style="overflow:visible;"/>
			</clipPath>
			<g class="st39">
				<g>
					<path id="C0_0_e969287bfd_13_" class="st26" d="M970.4,237c1.3,0,2.6-0.5,3.5-1.5s1.5-2.2,1.5-3.5s-0.5-2.6-1.5-3.5
						s-2.2-1.5-3.5-1.5s-2.6,0.5-3.5,1.5s-1.5,2.2-1.5,3.5s0.5,2.6,1.5,3.5S969.1,237,970.4,237z"/>
				</g>
			</g>
		</g>
	</g>
	<g>
		<g>
			<defs>
				<rect id="SVGID_69_" x="887.9" y="70.6" width="613.6" height="375.5"/>
			</defs>
			<clipPath id="SVGID_70_">
				<use xlink:href="#SVGID_69_"  style="overflow:visible;"/>
			</clipPath>
			<g class="st40">
				<g>
					<path id="C0_0_e969287bfd_14_" class="st26" d="M1041.3,232.4c1.3,0,2.6-0.5,3.5-1.5s1.5-2.2,1.5-3.5s-0.5-2.6-1.5-3.5
						s-2.2-1.5-3.5-1.5s-2.6,0.5-3.5,1.5s-1.5,2.2-1.5,3.5s0.5,2.6,1.5,3.5S1040,232.4,1041.3,232.4z"/>
				</g>
			</g>
		</g>
	</g>
	<g>
		<g>
			<defs>
				<rect id="SVGID_71_" x="887.9" y="70.6" width="613.6" height="375.5"/>
			</defs>
			<clipPath id="SVGID_72_">
				<use xlink:href="#SVGID_71_"  style="overflow:visible;"/>
			</clipPath>
			<g class="st41">
				<g>
					<path id="C0_0_e969287bfd_15_" class="st26" d="M1062.4,202.9c1.3,0,2.6-0.5,3.5-1.5s1.5-2.2,1.5-3.5s-0.5-2.6-1.5-3.5
						s-2.2-1.5-3.5-1.5s-2.6,0.5-3.5,1.5s-1.5,2.2-1.5,3.5s0.5,2.6,1.5,3.5S1061.1,202.9,1062.4,202.9z"/>
				</g>
			</g>
		</g>
	</g>
	<g>
		<g>
			<defs>
				<rect id="SVGID_73_" x="887.9" y="70.6" width="613.6" height="375.5"/>
			</defs>
			<clipPath id="SVGID_74_">
				<use xlink:href="#SVGID_73_"  style="overflow:visible;"/>
			</clipPath>
			<g class="st42">
				<g>
					<path id="C0_0_e969287bfd_16_" class="st26" d="M1041.3,176c1.3,0,2.6-0.5,3.5-1.5s1.5-2.2,1.5-3.5s-0.5-2.6-1.5-3.5
						s-2.2-1.5-3.5-1.5s-2.6,0.5-3.5,1.5s-1.5,2.2-1.5,3.5s0.5,2.6,1.5,3.5S1040,176,1041.3,176z"/>
				</g>
			</g>
		</g>
	</g>
	<g>
		<g>
			<defs>
				<rect id="SVGID_75_" x="887.9" y="70.6" width="613.6" height="375.5"/>
			</defs>
			<clipPath id="SVGID_76_">
				<use xlink:href="#SVGID_75_"  style="overflow:visible;"/>
			</clipPath>
			<g class="st43">
				<g>
					<path id="C0_0_e969287bfd_17_" class="st26" d="M1041.3,92.7c1.3,0,2.6-0.5,3.5-1.5c0.9-0.9,1.5-2.2,1.5-3.5s-0.5-2.6-1.5-3.5
						c-0.9-0.9-2.2-1.5-3.5-1.5s-2.6,0.5-3.5,1.5c-0.9,0.9-1.5,2.2-1.5,3.5s0.5,2.6,1.5,3.5C1038.7,92.2,1040,92.7,1041.3,92.7z"/>
				</g>
			</g>
		</g>
	</g>
</g>
<g>
	<g>
		<defs>
			<rect id="SVGID_77_" x="887.9" y="70.6" width="613.6" height="375.5"/>
		</defs>
		<clipPath id="SVGID_78_">
			<use xlink:href="#SVGID_77_"  style="overflow:visible;"/>
		</clipPath>
		<g class="st44">
			<g>
				<path id="C1_0_5f5eee7eba" class="st26" d="M1348.1,374.2c1.3,0,2.6-0.5,3.5-1.5c0.9-0.9,1.5-2.2,1.5-3.5s-0.5-2.6-1.5-3.5
					c-0.9-0.9-2.2-1.5-3.5-1.5s-2.6,0.5-3.5,1.5c-0.9,0.9-1.5,2.2-1.5,3.5s0.5,2.6,1.5,3.5C1345.5,373.7,1346.8,374.2,1348.1,374.2z
					"/>
			</g>
		</g>
	</g>
</g>
<g>
	<g>
		<defs>
			<rect id="SVGID_79_" x="887.9" y="70.6" width="613.6" height="375.5"/>
		</defs>
		<clipPath id="SVGID_80_">
			<use xlink:href="#SVGID_79_"  style="overflow:visible;"/>
		</clipPath>
		<g class="st45">
			<g>
				<path id="C1_0_5f5eee7eba_1_" class="st26" d="M1326.8,345.4c1.3,0,2.6-0.5,3.5-1.5c0.9-0.9,1.5-2.2,1.5-3.5s-0.5-2.6-1.5-3.5
					c-0.9-0.9-2.2-1.5-3.5-1.5s-2.6,0.5-3.5,1.5c-0.9,0.9-1.5,2.2-1.5,3.5s0.5,2.6,1.5,3.5C1324.2,344.9,1325.4,345.4,1326.8,345.4z
					"/>
			</g>
		</g>
	</g>
</g>
<g>
	<g>
		<defs>
			<rect id="SVGID_81_" x="887.9" y="70.6" width="613.6" height="375.5"/>
		</defs>
		<clipPath id="SVGID_82_">
			<use xlink:href="#SVGID_81_"  style="overflow:visible;"/>
		</clipPath>
		<g class="st46">
			<g>
				<path id="C1_0_5f5eee7eba_2_" class="st26" d="M1367.3,338.8c1.3,0,2.6-0.5,3.5-1.5c0.9-0.9,1.5-2.2,1.5-3.5s-0.5-2.6-1.5-3.5
					c-0.9-0.9-2.2-1.5-3.5-1.5s-2.6,0.5-3.5,1.5c-0.9,0.9-1.5,2.2-1.5,3.5s0.5,2.6,1.5,3.5C1364.7,338.3,1366,338.8,1367.3,338.8z"
					/>
			</g>
		</g>
	</g>
</g>
<g>
	<g>
		<defs>
			<rect id="SVGID_83_" x="887.9" y="70.6" width="613.6" height="375.5"/>
		</defs>
		<clipPath id="SVGID_84_">
			<use xlink:href="#SVGID_83_"  style="overflow:visible;"/>
		</clipPath>
		<g class="st47">
			<g>
				<path id="C1_0_5f5eee7eba_3_" class="st26" d="M1392.3,338.1c1.3,0,2.6-0.5,3.5-1.5c0.9-0.9,1.5-2.2,1.5-3.5s-0.5-2.6-1.5-3.5
					c-0.9-0.9-2.2-1.5-3.5-1.5s-2.6,0.5-3.5,1.5c-0.9,0.9-1.5,2.2-1.5,3.5s0.5,2.6,1.5,3.5C1389.7,337.6,1390.9,338.1,1392.3,338.1z
					"/>
			</g>
		</g>
	</g>
</g>
<g>
	<g>
		<defs>
			<rect id="SVGID_85_" x="887.9" y="70.6" width="613.6" height="375.5"/>
		</defs>
		<clipPath id="SVGID_86_">
			<use xlink:href="#SVGID_85_"  style="overflow:visible;"/>
		</clipPath>
		<g class="st48">
			<g>
				<path id="C1_0_5f5eee7eba_4_" class="st26" d="M1303.3,326.8c1.3,0,2.6-0.5,3.5-1.5c0.9-0.9,1.5-2.2,1.5-3.5s-0.5-2.6-1.5-3.5
					c-0.9-0.9-2.2-1.5-3.5-1.5s-2.6,0.5-3.5,1.5c-0.9,0.9-1.5,2.2-1.5,3.5s0.5,2.6,1.5,3.5C1300.7,326.3,1301.9,326.8,1303.3,326.8z
					"/>
			</g>
		</g>
	</g>
</g>
<g>
	<g>
		<defs>
			<rect id="SVGID_87_" x="887.9" y="70.6" width="613.6" height="375.5"/>
		</defs>
		<clipPath id="SVGID_88_">
			<use xlink:href="#SVGID_87_"  style="overflow:visible;"/>
		</clipPath>
		<g class="st49">
			<g>
				<path id="C1_0_5f5eee7eba_5_" class="st26" d="M1415.1,315.6c1.3,0,2.6-0.5,3.5-1.5c0.9-0.9,1.5-2.2,1.5-3.5s-0.5-2.6-1.5-3.5
					c-0.9-0.9-2.2-1.5-3.5-1.5s-2.6,0.5-3.5,1.5c-0.9,0.9-1.5,2.2-1.5,3.5s0.5,2.6,1.5,3.5C1412.5,315.1,1413.7,315.6,1415.1,315.6z
					"/>
			</g>
		</g>
	</g>
</g>
<g>
	<g>
		<defs>
			<rect id="SVGID_89_" x="887.9" y="70.6" width="613.6" height="375.5"/>
		</defs>
		<clipPath id="SVGID_90_">
			<use xlink:href="#SVGID_89_"  style="overflow:visible;"/>
		</clipPath>
		<g class="st50">
			<g>
				<path id="C1_0_5f5eee7eba_6_" class="st26" d="M1348.1,273.9c1.3,0,2.6-0.5,3.5-1.5c0.9-0.9,1.5-2.2,1.5-3.5s-0.5-2.6-1.5-3.5
					c-0.9-0.9-2.2-1.5-3.5-1.5s-2.6,0.5-3.5,1.5c-0.9,0.9-1.5,2.2-1.5,3.5s0.5,2.6,1.5,3.5C1345.5,273.4,1346.8,273.9,1348.1,273.9z
					"/>
			</g>
		</g>
	</g>
</g>
<g>
	<g>
		<defs>
			<rect id="SVGID_91_" x="887.9" y="70.6" width="613.6" height="375.5"/>
		</defs>
		<clipPath id="SVGID_92_">
			<use xlink:href="#SVGID_91_"  style="overflow:visible;"/>
		</clipPath>
		<g class="st51">
			<g>
				<path id="C1_0_5f5eee7eba_7_" class="st26" d="M1372.4,261.2c1.3,0,2.6-0.5,3.5-1.5c0.9-0.9,1.5-2.2,1.5-3.5s-0.5-2.6-1.5-3.5
					s-2.2-1.5-3.5-1.5s-2.6,0.5-3.5,1.5s-1.5,2.2-1.5,3.5c0,1.3,0.5,2.6,1.5,3.5C1369.8,260.7,1371,261.2,1372.4,261.2z"/>
			</g>
		</g>
	</g>
</g>
<g>
	<g>
		<defs>
			<rect id="SVGID_93_" x="887.9" y="70.6" width="613.6" height="375.5"/>
		</defs>
		<clipPath id="SVGID_94_">
			<use xlink:href="#SVGID_93_"  style="overflow:visible;"/>
		</clipPath>
		<g class="st52">
			<g>
				<path id="C1_0_5f5eee7eba_8_" class="st26" d="M1323.9,260.6c1.3,0,2.6-0.5,3.5-1.5c0.9-0.9,1.5-2.2,1.5-3.5
					c0-1.3-0.5-2.6-1.5-3.5s-2.2-1.5-3.5-1.5s-2.6,0.5-3.5,1.5s-1.5,2.2-1.5,3.5c0,1.3,0.5,2.6,1.5,3.5
					C1321.3,260.1,1322.6,260.6,1323.9,260.6z"/>
			</g>
		</g>
	</g>
</g>
<g>
	<g>
		<defs>
			<rect id="SVGID_95_" x="887.9" y="70.6" width="613.6" height="375.5"/>
		</defs>
		<clipPath id="SVGID_96_">
			<use xlink:href="#SVGID_95_"  style="overflow:visible;"/>
		</clipPath>
		<g class="st53">
			<g>
				<path id="C1_0_5f5eee7eba_9_" class="st26" d="M1299.1,255.3c1.3,0,2.6-0.5,3.5-1.5s1.5-2.2,1.5-3.5s-0.5-2.6-1.5-3.5
					s-2.2-1.5-3.5-1.5s-2.6,0.5-3.5,1.5s-1.5,2.2-1.5,3.5s0.5,2.6,1.5,3.5S1297.7,255.3,1299.1,255.3z"/>
			</g>
		</g>
	</g>
</g>
<g>
	<g>
		<defs>
			<rect id="SVGID_97_" x="887.9" y="70.6" width="613.6" height="375.5"/>
		</defs>
		<clipPath id="SVGID_98_">
			<use xlink:href="#SVGID_97_"  style="overflow:visible;"/>
		</clipPath>
		<g class="st54">
			<g>
				<path id="C1_0_5f5eee7eba_10_" class="st26" d="M1395.4,239.8c1.3,0,2.6-0.5,3.5-1.5s1.5-2.2,1.5-3.5s-0.5-2.6-1.5-3.5
					s-2.2-1.5-3.5-1.5s-2.6,0.5-3.5,1.5s-1.5,2.2-1.5,3.5s0.5,2.6,1.5,3.5S1394,239.8,1395.4,239.8z"/>
			</g>
		</g>
	</g>
</g>
<g>
	<g>
		<defs>
			<rect id="SVGID_99_" x="887.9" y="70.6" width="613.6" height="375.5"/>
		</defs>
		<clipPath id="SVGID_100_">
			<use xlink:href="#SVGID_99_"  style="overflow:visible;"/>
		</clipPath>
		<g class="st55">
			<g>
				<path id="C1_0_5f5eee7eba_11_" class="st26" d="M1348.1,215.4c1.3,0,2.6-0.5,3.5-1.5s1.5-2.2,1.5-3.5s-0.5-2.6-1.5-3.5
					s-2.2-1.5-3.5-1.5s-2.6,0.5-3.5,1.5s-1.5,2.2-1.5,3.5s0.5,2.6,1.5,3.5S1346.8,215.4,1348.1,215.4z"/>
			</g>
		</g>
	</g>
</g>
<g>
	<g>
		<defs>
			<rect id="SVGID_102_" x="887.9" y="70.6" width="613.6" height="375.5"/>
		</defs>
		<clipPath id="SVGID_103_">
			<use xlink:href="#SVGID_102_"  style="overflow:visible;"/>
		</clipPath>
		<g class="st56">
			<g>
				<path id="C1_0_5f5eee7eba_12_" class="st57" d="M1283.3,212.3c6.5,0.1,6.5-10.1,0-10C1276.8,202.2,1276.8,212.4,1283.3,212.3z"
					/>
			</g>
		</g>
	</g>
	<g>
		<rect id="SVGID_101_" x="887.9" y="70.6" class="st58" width="613.6" height="375.5"/>
	</g>
</g>
<g>
	<g>
		<path id="C1_0_5f5eee7eba_13_" class="st26" d="M1371.8,198c1.3,0,2.6-0.5,3.5-1.5s1.5-2.2,1.5-3.5s-0.5-2.6-1.5-3.5
			s-2.2-1.5-3.5-1.5s-2.6,0.5-3.5,1.5s-1.5,2.2-1.5,3.5s0.5,2.6,1.5,3.5S1370.4,198,1371.8,198z"/>
	</g>
</g>
<g>
	<g>
		<path id="C1_0_5f5eee7eba_14_" class="st26" d="M1348.1,150.1c1.3,0,2.6-0.5,3.5-1.5s1.5-2.2,1.5-3.5s-0.5-2.6-1.5-3.5
			s-2.2-1.5-3.5-1.5s-2.6,0.5-3.5,1.5s-1.5,2.2-1.5,3.5s0.5,2.6,1.5,3.5S1346.8,150.1,1348.1,150.1z"/>
	</g>
</g>
<g id="text_28">
	<g transform="translate(826.504688 125.014751)scale(0.6 -0.6)">
		<g>
			<path id="ArialMT-43_9_" class="st0" d="M-1305.8-677.1l9.5-2.4c-2-7.8-5.6-13.7-10.7-17.8s-11.5-6.1-18.9-6.1
				c-7.7,0-14,1.6-18.8,4.7c-4.8,3.1-8.5,7.7-11,13.7s-3.8,12.4-3.8,19.2c0,7.5,1.4,14,4.3,19.5c2.9,5.6,6.9,9.8,12.2,12.6
				c5.3,2.9,11,4.3,17.4,4.3c7.2,0,13.2-1.8,18.1-5.5c4.9-3.6,8.3-8.8,10.2-15.4l-9.3-2.2c-1.7,5.2-4.1,9-7.2,11.4
				c-3.2,2.4-7.1,3.6-11.9,3.6c-5.5,0-10.1-1.3-13.8-4c-3.7-2.6-6.3-6.2-7.8-10.6c-1.5-4.4-2.2-9-2.2-13.7c0-6.1,0.9-11.4,2.7-15.9
				c1.8-4.5,4.5-7.9,8.3-10.2c3.8-2.2,7.8-3.4,12.2-3.4c5.3,0,9.8,1.5,13.5,4.6C-1309.6-687.7-1307.1-683.2-1305.8-677.1z"/>
		</g>
	</g>
</g>
<g id="matplotlib.axis_7">
	<g id="xtick_7">
		<g id="text_29">
			<g transform="translate(1011.277415 1020.91356)scale(0.4 -0.4)">
				<g>
					<path id="ArialMT-43_10_" class="st0" d="M58.8,147.5l9.5-2.4c-2-7.8-5.6-13.7-10.7-17.8c-5.2-4.1-11.5-6.1-18.9-6.1
						c-7.7,0-14,1.6-18.8,4.7s-8.5,7.7-11,13.7S5.1,152,5.1,158.8c0,7.5,1.4,14,4.3,19.5c2.9,5.6,6.9,9.8,12.2,12.6
						c5.3,2.9,11,4.3,17.4,4.3c7.2,0,13.2-1.8,18.1-5.5c4.9-3.6,8.3-8.8,10.2-15.4l-9.3-2.2c-1.7,5.2-4.1,9-7.2,11.4
						c-3.2,2.4-7.1,3.6-11.9,3.6c-5.5,0-10.1-1.3-13.8-4c-3.7-2.6-6.3-6.2-7.8-10.6c-1.5-4.4-2.2-9-2.2-13.7
						c0-6.1,0.9-11.4,2.7-15.9s4.5-7.9,8.3-10.2c3.8-2.2,7.8-3.4,12.2-3.4c5.3,0,9.8,1.5,13.5,4.6C55,137,57.5,141.5,58.8,147.5z"/>
				</g>
				<g>
					<path id="ArialMT-4f_3_" class="st0" d="M77,157.3c0,11.9,3.2,21.2,9.6,27.9s14.6,10.1,24.7,10.1c6.6,0,12.6-1.6,17.9-4.8
						c5.3-3.2,9.3-7.6,12.1-13.2c2.8-5.6,4.2-12.1,4.2-19.2c0-7.2-1.5-13.7-4.4-19.5c-2.9-5.7-7.1-10.1-12.5-13
						c-5.4-2.9-11.2-4.4-17.4-4.4c-6.7,0-12.8,1.6-18.1,4.9c-5.3,3.3-9.3,7.7-12.1,13.3C78.4,145.1,77,151,77,157.3z M86.8,157.2
						c0-8.6,2.3-15.4,7-20.4c4.6-5,10.5-7.4,17.5-7.4c7.1,0,13,2.5,17.6,7.5s6.9,12.1,6.9,21.3c0,5.8-1,10.9-3,15.2
						s-4.9,7.7-8.7,10.1c-3.8,2.4-8,3.6-12.8,3.6c-6.7,0-12.5-2.3-17.3-6.9C89.2,175.6,86.8,167.9,86.8,157.2z"/>
				</g>
			</g>
		</g>
	</g>
	<g id="xtick_8">
		<g id="text_30">
			<g transform="translate(1319.208097 1020.91356)scale(0.4 -0.4)">
				<g>
					<path id="ArialMT-43_11_" class="st0" d="M58.8,147.5l9.5-2.4c-2-7.8-5.6-13.7-10.7-17.8c-5.2-4.1-11.5-6.1-18.9-6.1
						c-7.7,0-14,1.6-18.8,4.7s-8.5,7.7-11,13.7S5.1,152,5.1,158.8c0,7.5,1.4,14,4.3,19.5c2.9,5.6,6.9,9.8,12.2,12.6
						c5.3,2.9,11,4.3,17.4,4.3c7.2,0,13.2-1.8,18.1-5.5c4.9-3.6,8.3-8.8,10.2-15.4l-9.3-2.2c-1.7,5.2-4.1,9-7.2,11.4
						c-3.2,2.4-7.1,3.6-11.9,3.6c-5.5,0-10.1-1.3-13.8-4c-3.7-2.6-6.3-6.2-7.8-10.6c-1.5-4.4-2.2-9-2.2-13.7
						c0-6.1,0.9-11.4,2.7-15.9s4.5-7.9,8.3-10.2c3.8-2.2,7.8-3.4,12.2-3.4c5.3,0,9.8,1.5,13.5,4.6C55,137,57.5,141.5,58.8,147.5z"/>
				</g>
				<g>
					<path id="ArialMT-44_3_" class="st0" d="M79.9,122.4V194h24.7c5.6,0,9.8-0.3,12.8-1c4.1-0.9,7.6-2.7,10.5-5.1
						c3.8-3.2,6.6-7.3,8.5-12.2c1.9-5,2.8-10.6,2.8-17c0-5.4-0.6-10.3-1.9-14.5c-1.3-4.2-2.9-7.7-4.9-10.4c-2-2.8-4.2-4.9-6.5-6.5
						c-2.4-1.6-5.2-2.8-8.5-3.6c-3.3-0.8-7.2-1.2-11.5-1.2h-26V122.4z M89.4,130.9h15.3c4.7,0,8.4,0.4,11.1,1.3s4.8,2.1,6.4,3.7
						c2.2,2.2,4,5.3,5.2,9c1.2,3.8,1.9,8.4,1.9,13.8c0,7.5-1.2,13.2-3.7,17.3c-2.5,4-5.4,6.7-9,8.1c-2.5,1-6.6,1.5-12.2,1.5h-15
						C89.4,185.6,89.4,130.9,89.4,130.9z"/>
				</g>
			</g>
		</g>
	</g>
</g>
<g id="ytick_11">
	<g id="text_31">
		<g transform="translate(810.918324 991.990155)scale(0.4 -0.4)">
			<g>
				<path id="ArialMT-2212" class="st0" d="M52.8,153.6H5.6v8.2h47.3L52.8,153.6L52.8,153.6z"/>
			</g>
			<g>
				<path id="ArialMT-35_2_" class="st0" d="M62.6,141.2l9.2,0.8c0.7-4.5,2.3-7.9,4.8-10.1c2.5-2.3,5.5-3.4,9-3.4
					c4.2,0,7.8,1.6,10.7,4.8c2.9,3.2,4.4,7.4,4.4,12.7c0,5-1.4,9-4.2,11.9c-2.8,2.9-6.5,4.4-11.1,4.4c-2.8,0-5.4-0.6-7.7-1.9
					c-2.3-1.3-4.1-2.9-5.4-5l-8.2,1.1L71,193h35.6v-8.4H78.1l-3.8-19.2c4.3,3,8.8,4.5,13.5,4.5c6.2,0,11.5-2.2,15.8-6.5
					s6.5-9.9,6.5-16.7c0-6.5-1.9-12.1-5.7-16.8c-4.6-5.8-10.9-8.7-18.8-8.7c-6.5,0-11.8,1.8-16,5.5
					C65.5,130.3,63.1,135.2,62.6,141.2z"/>
			</g>
			<g>
				<path id="ArialMT-30_19_" class="st0" d="M118.2,157.7c0,8.5,0.9,15.3,2.6,20.4c1.7,5.2,4.3,9.1,7.8,11.9
					c3.4,2.8,7.8,4.2,13,4.2c3.8,0,7.2-0.8,10.1-2.3c2.9-1.5,5.3-3.8,7.2-6.7s3.4-6.5,4.5-10.6c1.1-4.2,1.6-9.8,1.6-16.9
					c0-8.4-0.9-15.2-2.6-20.3c-1.7-5.2-4.3-9.1-7.7-12c-3.4-2.8-7.8-4.2-13-4.2c-6.9,0-12.3,2.5-16.2,7.4
					C120.5,134.6,118.2,144.3,118.2,157.7z M127.2,157.7c0-11.8,1.4-19.6,4.1-23.5c2.8-3.9,6.1-5.8,10.2-5.8c4,0,7.4,2,10.2,5.9
					s4.1,11.7,4.1,23.4c0,11.8-1.4,19.6-4.1,23.5c-2.8,3.9-6.2,5.8-10.3,5.8c-4,0-7.3-1.7-9.7-5.1
					C128.7,177.6,127.2,169.5,127.2,157.7z"/>
			</g>
		</g>
	</g>
</g>
<g id="ytick_12">
	<g id="text_32">
		<g transform="translate(856.524574 815.08529)scale(0.4 -0.4)">
			<g>
				<path id="ArialMT-30_20_" class="st0" d="M4.2,157.7c0,8.5,0.9,15.3,2.6,20.4c1.7,5.2,4.3,9.1,7.8,11.9c3.4,2.8,7.8,4.2,13,4.2
					c3.8,0,7.2-0.8,10.1-2.3s5.3-3.8,7.2-6.7s3.4-6.5,4.5-10.6c1.1-4.2,1.6-9.8,1.6-16.9c0-8.4-0.9-15.2-2.6-20.3
					c-1.7-5.2-4.3-9.1-7.7-12c-3.4-2.8-7.8-4.2-13-4.2c-6.9,0-12.3,2.5-16.2,7.4C6.5,134.6,4.2,144.3,4.2,157.7z M13.2,157.7
					c0-11.8,1.4-19.6,4.1-23.5c2.8-3.9,6.1-5.8,10.2-5.8c4,0,7.4,2,10.2,5.9s4.1,11.7,4.1,23.4c0,11.8-1.4,19.6-4.1,23.5
					c-2.8,3.9-6.2,5.8-10.3,5.8c-4,0-7.3-1.7-9.7-5.1C14.7,177.6,13.2,169.5,13.2,157.7z"/>
			</g>
		</g>
	</g>
</g>
<g id="ytick_13">
	<g id="text_33">
		<g transform="translate(834.280824 638.180424)scale(0.4 -0.4)">
			<g>
				<path id="ArialMT-35_3_" class="st0" d="M4.2,141.2l9.2,0.8c0.7-4.5,2.3-7.9,4.8-10.1c2.5-2.3,5.5-3.4,9-3.4
					c4.2,0,7.8,1.6,10.7,4.8s4.4,7.4,4.4,12.7c0,5-1.4,9-4.2,11.9s-6.5,4.4-11.1,4.4c-2.8,0-5.4-0.6-7.7-1.9c-2.3-1.3-4.1-2.9-5.4-5
					l-8.2,1.1l6.9,36.8h35.6v-8.4H19.7l-3.8-19.2c4.3,3,8.8,4.5,13.5,4.5c6.2,0,11.5-2.2,15.8-6.5s6.5-9.9,6.5-16.7
					c0-6.5-1.9-12.1-5.7-16.8c-4.6-5.8-10.9-8.7-18.8-8.7c-6.5,0-11.8,1.8-16,5.5C7.1,130.3,4.7,135.2,4.2,141.2z"/>
			</g>
			<g>
				<path id="ArialMT-30_21_" class="st0" d="M59.8,157.7c0,8.5,0.9,15.3,2.6,20.4c1.7,5.2,4.3,9.1,7.8,11.9c3.4,2.8,7.8,4.2,13,4.2
					c3.8,0,7.2-0.8,10.1-2.3s5.3-3.8,7.2-6.7c1.9-2.9,3.4-6.5,4.5-10.6c1.1-4.2,1.6-9.8,1.6-16.9c0-8.4-0.9-15.2-2.6-20.3
					c-1.7-5.2-4.3-9.1-7.7-12c-3.4-2.8-7.8-4.2-13-4.2c-6.9,0-12.3,2.5-16.2,7.4C62.1,134.6,59.8,144.3,59.8,157.7z M68.8,157.7
					c0-11.8,1.4-19.6,4.1-23.5c2.8-3.9,6.1-5.8,10.2-5.8c4,0,7.4,2,10.2,5.9s4.1,11.7,4.1,23.4c0,11.8-1.4,19.6-4.1,23.5
					c-2.8,3.9-6.2,5.8-10.3,5.8c-4,0-7.3-1.7-9.7-5.1C70.3,177.6,68.8,169.5,68.8,157.7z"/>
			</g>
		</g>
	</g>
</g>
<g id="patch_26">
	<g>
		<g>
			<defs>
				<rect id="SVGID_104_" x="887.9" y="558.7" width="613.6" height="375.5"/>
			</defs>
			<clipPath id="SVGID_105_">
				<use xlink:href="#SVGID_104_"  style="overflow:visible;"/>
			</clipPath>
			<path class="st59" d="M918.6,751.8H1164v8.7H918.6V751.8z"/>
		</g>
	</g>
</g>
<g id="patch_27">
	<g>
		<g>
			<defs>
				<rect id="SVGID_106_" x="887.9" y="558.7" width="613.6" height="375.5"/>
			</defs>
			<clipPath id="SVGID_107_">
				<use xlink:href="#SVGID_106_"  style="overflow:visible;"/>
			</clipPath>
			<path class="st60" d="M1225.4,751.8h245.5v-35.6h-245.5V751.8z"/>
		</g>
	</g>
</g>
<g id="line2d_11">
	<g>
		<g>
			<defs>
				<rect id="SVGID_108_" x="887.9" y="558.7" width="613.6" height="375.5"/>
			</defs>
			<clipPath id="SVGID_109_">
				<use xlink:href="#SVGID_108_"  style="overflow:visible;"/>
			</clipPath>
			<path class="st61" d="M1041.3,794.6v-71.8"/>
		</g>
	</g>
</g>
<g id="line2d_12">
	<g>
		<g>
			<defs>
				<rect id="SVGID_110_" x="887.9" y="558.7" width="613.6" height="375.5"/>
			</defs>
			<clipPath id="SVGID_111_">
				<use xlink:href="#SVGID_110_"  style="overflow:visible;"/>
			</clipPath>
			<path class="st62" d="M1348.1,746.1v-63"/>
		</g>
	</g>
</g>
<g id="patch_28">
	<path class="st24" d="M887.9,934.2V558.7"/>
</g>
<g id="patch_29">
	<path class="st24" d="M887.9,934.2h613.6"/>
</g>
<g id="PathCollection_3">
	<g>
		<g>
			<defs>
				<rect id="SVGID_112_" x="887.9" y="558.7" width="613.6" height="375.5"/>
			</defs>
			<clipPath id="SVGID_113_">
				<use xlink:href="#SVGID_112_"  style="overflow:visible;"/>
			</clipPath>
			<g class="st63">
				<g>
					<path id="C2_0_8a49c29b9d" class="st26" d="M1041.3,922.1c1.3,0,2.6-0.5,3.5-1.5c0.9-0.9,1.5-2.2,1.5-3.5s-0.5-2.6-1.5-3.5
						s-2.2-1.5-3.5-1.5s-2.6,0.5-3.5,1.5s-1.5,2.2-1.5,3.5s0.5,2.6,1.5,3.5C1038.7,921.6,1040,922.1,1041.3,922.1z"/>
				</g>
			</g>
		</g>
	</g>
	<g>
		<g>
			<defs>
				<rect id="SVGID_114_" x="887.9" y="558.7" width="613.6" height="375.5"/>
			</defs>
			<clipPath id="SVGID_115_">
				<use xlink:href="#SVGID_114_"  style="overflow:visible;"/>
			</clipPath>
			<g class="st64">
				<g>
					<path id="C2_0_8a49c29b9d_1_" class="st26" d="M1037.9,882.6c1.3,0,2.6-0.5,3.5-1.5c0.9-0.9,1.5-2.2,1.5-3.5s-0.5-2.6-1.5-3.5
						s-2.2-1.5-3.5-1.5s-2.6,0.5-3.5,1.5s-1.5,2.2-1.5,3.5s0.5,2.6,1.5,3.5C1035.3,882,1036.6,882.6,1037.9,882.6z"/>
				</g>
			</g>
		</g>
	</g>
	<g>
		<g>
			<defs>
				<rect id="SVGID_116_" x="887.9" y="558.7" width="613.6" height="375.5"/>
			</defs>
			<clipPath id="SVGID_117_">
				<use xlink:href="#SVGID_116_"  style="overflow:visible;"/>
			</clipPath>
			<g class="st65">
				<g>
					<path id="C2_0_8a49c29b9d_2_" class="st26" d="M1041.3,841.5c1.3,0,2.6-0.5,3.5-1.5c0.9-0.9,1.5-2.2,1.5-3.5s-0.5-2.6-1.5-3.5
						s-2.2-1.5-3.5-1.5s-2.6,0.5-3.5,1.5s-1.5,2.2-1.5,3.5s0.5,2.6,1.5,3.5C1038.7,840.9,1040,841.5,1041.3,841.5z"/>
				</g>
			</g>
		</g>
	</g>
	<g>
		<g>
			<defs>
				<rect id="SVGID_118_" x="887.9" y="558.7" width="613.6" height="375.5"/>
			</defs>
			<clipPath id="SVGID_119_">
				<use xlink:href="#SVGID_118_"  style="overflow:visible;"/>
			</clipPath>
			<g class="st66">
				<g>
					<path id="C2_0_8a49c29b9d_3_" class="st26" d="M1010.6,830.3c1.3,0,2.6-0.5,3.5-1.5c0.9-0.9,1.5-2.2,1.5-3.5s-0.5-2.6-1.5-3.5
						s-2.2-1.5-3.5-1.5s-2.6,0.5-3.5,1.5s-1.5,2.2-1.5,3.5s0.5,2.6,1.5,3.5C1008,829.8,1009.3,830.3,1010.6,830.3z"/>
				</g>
			</g>
		</g>
	</g>
	<g>
		<g>
			<defs>
				<rect id="SVGID_120_" x="887.9" y="558.7" width="613.6" height="375.5"/>
			</defs>
			<clipPath id="SVGID_121_">
				<use xlink:href="#SVGID_120_"  style="overflow:visible;"/>
			</clipPath>
			<g class="st67">
				<g>
					<path id="C2_0_8a49c29b9d_4_" class="st26" d="M1041.3,801.5c1.3,0,2.6-0.5,3.5-1.5c0.9-0.9,1.5-2.2,1.5-3.5s-0.5-2.6-1.5-3.5
						s-2.2-1.5-3.5-1.5s-2.6,0.5-3.5,1.5s-1.5,2.2-1.5,3.5s0.5,2.6,1.5,3.5C1038.7,801,1040,801.5,1041.3,801.5z"/>
				</g>
			</g>
		</g>
	</g>
	<g>
		<g>
			<defs>
				<rect id="SVGID_122_" x="887.9" y="558.7" width="613.6" height="375.5"/>
			</defs>
			<clipPath id="SVGID_123_">
				<use xlink:href="#SVGID_122_"  style="overflow:visible;"/>
			</clipPath>
			<g class="st68">
				<g>
					<path id="C2_0_8a49c29b9d_5_" class="st26" d="M1073.2,800.9c1.3,0,2.6-0.5,3.5-1.5c0.9-0.9,1.5-2.2,1.5-3.5s-0.5-2.6-1.5-3.5
						s-2.2-1.5-3.5-1.5s-2.6,0.5-3.5,1.5s-1.5,2.2-1.5,3.5s0.5,2.6,1.5,3.5C1070.6,800.3,1071.9,800.9,1073.2,800.9z"/>
				</g>
			</g>
		</g>
	</g>
	<g>
		<g>
			<defs>
				<rect id="SVGID_124_" x="887.9" y="558.7" width="613.6" height="375.5"/>
			</defs>
			<clipPath id="SVGID_125_">
				<use xlink:href="#SVGID_124_"  style="overflow:visible;"/>
			</clipPath>
			<g class="st69">
				<g>
					<path id="C2_0_8a49c29b9d_6_" class="st26" d="M994.8,795.7c1.3,0,2.6-0.5,3.5-1.5c0.9-0.9,1.5-2.2,1.5-3.5s-0.5-2.6-1.5-3.5
						s-2.2-1.5-3.5-1.5s-2.6,0.5-3.5,1.5s-1.5,2.2-1.5,3.5s0.5,2.6,1.5,3.5C992.2,795.2,993.5,795.7,994.8,795.7z"/>
				</g>
			</g>
		</g>
	</g>
	<g>
		<g>
			<defs>
				<rect id="SVGID_126_" x="887.9" y="558.7" width="613.6" height="375.5"/>
			</defs>
			<clipPath id="SVGID_127_">
				<use xlink:href="#SVGID_126_"  style="overflow:visible;"/>
			</clipPath>
			<g class="st70">
				<g>
					<path id="C2_0_8a49c29b9d_7_" class="st26" d="M1104.2,791.5c1.3,0,2.6-0.5,3.5-1.5c0.9-0.9,1.5-2.2,1.5-3.5s-0.5-2.6-1.5-3.5
						s-2.2-1.5-3.5-1.5s-2.6,0.5-3.5,1.5s-1.5,2.2-1.5,3.5s0.5,2.6,1.5,3.5C1101.6,790.9,1102.9,791.5,1104.2,791.5z"/>
				</g>
			</g>
		</g>
	</g>
	<g>
		<g>
			<defs>
				<rect id="SVGID_128_" x="887.9" y="558.7" width="613.6" height="375.5"/>
			</defs>
			<clipPath id="SVGID_129_">
				<use xlink:href="#SVGID_128_"  style="overflow:visible;"/>
			</clipPath>
			<g class="st71">
				<g>
					<path id="C2_0_8a49c29b9d_8_" class="st26" d="M1034.4,762.6c1.3,0,2.6-0.5,3.5-1.5c0.9-0.9,1.5-2.2,1.5-3.5s-0.5-2.6-1.5-3.5
						s-2.2-1.5-3.5-1.5s-2.6,0.5-3.5,1.5s-1.5,2.2-1.5,3.5s0.5,2.6,1.5,3.5C1031.8,762.1,1033.1,762.6,1034.4,762.6z"/>
				</g>
			</g>
		</g>
	</g>
	<g>
		<g>
			<defs>
				<rect id="SVGID_130_" x="887.9" y="558.7" width="613.6" height="375.5"/>
			</defs>
			<clipPath id="SVGID_131_">
				<use xlink:href="#SVGID_130_"  style="overflow:visible;"/>
			</clipPath>
			<g class="st72">
				<g>
					<path id="C2_0_8a49c29b9d_9_" class="st26" d="M1065.7,754.5c1.3,0,2.6-0.5,3.5-1.5c0.9-0.9,1.5-2.2,1.5-3.5s-0.5-2.6-1.5-3.5
						s-2.2-1.5-3.5-1.5s-2.6,0.5-3.5,1.5s-1.5,2.2-1.5,3.5s0.5,2.6,1.5,3.5C1063.1,754,1064.4,754.5,1065.7,754.5z"/>
				</g>
			</g>
		</g>
	</g>
	<g>
		<g>
			<defs>
				<rect id="SVGID_132_" x="887.9" y="558.7" width="613.6" height="375.5"/>
			</defs>
			<clipPath id="SVGID_133_">
				<use xlink:href="#SVGID_132_"  style="overflow:visible;"/>
			</clipPath>
			<g class="st73">
				<g>
					<path id="C2_0_8a49c29b9d_10_" class="st26" d="M1006.6,743.2c1.3,0,2.6-0.5,3.5-1.5c0.9-0.9,1.5-2.2,1.5-3.5s-0.5-2.6-1.5-3.5
						s-2.2-1.5-3.5-1.5s-2.6,0.5-3.5,1.5s-1.5,2.2-1.5,3.5s0.5,2.6,1.5,3.5C1004,742.7,1005.2,743.2,1006.6,743.2z"/>
				</g>
			</g>
		</g>
	</g>
	<g>
		<g>
			<defs>
				<rect id="SVGID_134_" x="887.9" y="558.7" width="613.6" height="375.5"/>
			</defs>
			<clipPath id="SVGID_135_">
				<use xlink:href="#SVGID_134_"  style="overflow:visible;"/>
			</clipPath>
			<g class="st74">
				<g>
					<path id="C2_0_8a49c29b9d_11_" class="st26" d="M1095.1,738.9c1.3,0,2.6-0.5,3.5-1.5c0.9-0.9,1.5-2.2,1.5-3.5s-0.5-2.6-1.5-3.5
						s-2.2-1.5-3.5-1.5s-2.6,0.5-3.5,1.5s-1.5,2.2-1.5,3.5s0.5,2.6,1.5,3.5C1092.5,738.4,1093.7,738.9,1095.1,738.9z"/>
				</g>
			</g>
		</g>
	</g>
	<g>
		<g>
			<defs>
				<rect id="SVGID_136_" x="887.9" y="558.7" width="613.6" height="375.5"/>
			</defs>
			<clipPath id="SVGID_137_">
				<use xlink:href="#SVGID_136_"  style="overflow:visible;"/>
			</clipPath>
			<g class="st75">
				<g>
					<path id="C2_0_8a49c29b9d_12_" class="st26" d="M975,736.9c1.3,0,2.6-0.5,3.5-1.5c0.9-0.9,1.5-2.2,1.5-3.5s-0.5-2.6-1.5-3.5
						s-2.2-1.5-3.5-1.5s-2.6,0.5-3.5,1.5s-1.5,2.2-1.5,3.5s0.5,2.6,1.5,3.5C972.4,736.3,973.7,736.9,975,736.9z"/>
				</g>
			</g>
		</g>
	</g>
	<g>
		<g>
			<defs>
				<rect id="SVGID_138_" x="887.9" y="558.7" width="613.6" height="375.5"/>
			</defs>
			<clipPath id="SVGID_139_">
				<use xlink:href="#SVGID_138_"  style="overflow:visible;"/>
			</clipPath>
			<g class="st76">
				<g>
					<path id="C2_0_8a49c29b9d_13_" class="st26" d="M1041.3,723.8c1.3,0,2.6-0.5,3.5-1.5c0.9-0.9,1.5-2.2,1.5-3.5s-0.5-2.6-1.5-3.5
						s-2.2-1.5-3.5-1.5s-2.6,0.5-3.5,1.5s-1.5,2.2-1.5,3.5s0.5,2.6,1.5,3.5C1038.7,723.3,1040,723.8,1041.3,723.8z"/>
				</g>
			</g>
		</g>
	</g>
	<g>
		<g>
			<defs>
				<rect id="SVGID_140_" x="887.9" y="558.7" width="613.6" height="375.5"/>
			</defs>
			<clipPath id="SVGID_141_">
				<use xlink:href="#SVGID_140_"  style="overflow:visible;"/>
			</clipPath>
			<g class="st77">
				<g>
					<path id="C2_0_8a49c29b9d_14_" class="st26" d="M1123.9,721.8c1.3,0,2.6-0.5,3.5-1.5c0.9-0.9,1.5-2.2,1.5-3.5s-0.5-2.6-1.5-3.5
						s-2.2-1.5-3.5-1.5s-2.6,0.5-3.5,1.5s-1.5,2.2-1.5,3.5s0.5,2.6,1.5,3.5C1121.3,721.3,1122.6,721.8,1123.9,721.8z"/>
				</g>
			</g>
		</g>
	</g>
	<g>
		<g>
			<defs>
				<rect id="SVGID_142_" x="887.9" y="558.7" width="613.6" height="375.5"/>
			</defs>
			<clipPath id="SVGID_143_">
				<use xlink:href="#SVGID_142_"  style="overflow:visible;"/>
			</clipPath>
			<g class="st78">
				<g>
					<path id="C2_0_8a49c29b9d_15_" class="st26" d="M1071.4,712.1c1.3,0,2.6-0.5,3.5-1.5c0.9-0.9,1.5-2.2,1.5-3.5s-0.5-2.6-1.5-3.5
						s-2.2-1.5-3.5-1.5s-2.6,0.5-3.5,1.5s-1.5,2.2-1.5,3.5s0.5,2.6,1.5,3.5C1068.8,711.6,1070.1,712.1,1071.4,712.1z"/>
				</g>
			</g>
		</g>
	</g>
	<g>
		<g>
			<defs>
				<rect id="SVGID_144_" x="887.9" y="558.7" width="613.6" height="375.5"/>
			</defs>
			<clipPath id="SVGID_145_">
				<use xlink:href="#SVGID_144_"  style="overflow:visible;"/>
			</clipPath>
			<g class="st79">
				<g>
					<path id="C2_0_8a49c29b9d_16_" class="st26" d="M1041.3,638.9c1.3,0,2.6-0.5,3.5-1.5c0.9-0.9,1.5-2.2,1.5-3.5s-0.5-2.6-1.5-3.5
						s-2.2-1.5-3.5-1.5s-2.6,0.5-3.5,1.5s-1.5,2.2-1.5,3.5s0.5,2.6,1.5,3.5C1038.7,638.4,1040,638.9,1041.3,638.9z"/>
				</g>
			</g>
		</g>
	</g>
	<g>
		<g>
			<defs>
				<rect id="SVGID_146_" x="887.9" y="558.7" width="613.6" height="375.5"/>
			</defs>
			<clipPath id="SVGID_147_">
				<use xlink:href="#SVGID_146_"  style="overflow:visible;"/>
			</clipPath>
			<g class="st80">
				<g>
					<path id="C2_0_8a49c29b9d_17_" class="st26" d="M1041.3,580.8c1.3,0,2.6-0.5,3.5-1.5c0.9-0.9,1.5-2.2,1.5-3.5s-0.5-2.6-1.5-3.5
						s-2.2-1.5-3.5-1.5s-2.6,0.5-3.5,1.5s-1.5,2.2-1.5,3.5s0.5,2.6,1.5,3.5C1038.7,580.3,1040,580.8,1041.3,580.8z"/>
				</g>
			</g>
		</g>
	</g>
</g>
<g>
	<g>
		<defs>
			<rect id="SVGID_148_" x="887.9" y="558.7" width="613.6" height="375.5"/>
		</defs>
		<clipPath id="SVGID_149_">
			<use xlink:href="#SVGID_148_"  style="overflow:visible;"/>
		</clipPath>
		<g class="st81">
			<g>
				<path id="C3_0_96a002e01d" class="st26" d="M1348.1,828.1c1.3,0,2.6-0.5,3.5-1.5c0.9-0.9,1.5-2.2,1.5-3.5s-0.5-2.6-1.5-3.5
					s-2.2-1.5-3.5-1.5s-2.6,0.5-3.5,1.5s-1.5,2.2-1.5,3.5s0.5,2.6,1.5,3.5C1345.5,827.6,1346.8,828.1,1348.1,828.1z"/>
			</g>
		</g>
	</g>
</g>
<g>
	<g>
		<defs>
			<rect id="SVGID_150_" x="887.9" y="558.7" width="613.6" height="375.5"/>
		</defs>
		<clipPath id="SVGID_151_">
			<use xlink:href="#SVGID_150_"  style="overflow:visible;"/>
		</clipPath>
		<g class="st82">
			<g>
				<path id="C3_0_96a002e01d_1_" class="st26" d="M1325.1,800.5c1.3,0,2.6-0.5,3.5-1.5c0.9-0.9,1.5-2.2,1.5-3.5s-0.5-2.6-1.5-3.5
					s-2.2-1.5-3.5-1.5s-2.6,0.5-3.5,1.5s-1.5,2.2-1.5,3.5s0.5,2.6,1.5,3.5C1322.5,799.9,1323.8,800.5,1325.1,800.5z"/>
			</g>
		</g>
	</g>
</g>
<g>
	<g>
		<defs>
			<rect id="SVGID_152_" x="887.9" y="558.7" width="613.6" height="375.5"/>
		</defs>
		<clipPath id="SVGID_153_">
			<use xlink:href="#SVGID_152_"  style="overflow:visible;"/>
		</clipPath>
		<g class="st83">
			<g>
				<path id="C3_0_96a002e01d_2_" class="st26" d="M1350.4,776.1c1.3,0,2.6-0.5,3.5-1.5c0.9-0.9,1.5-2.2,1.5-3.5s-0.5-2.6-1.5-3.5
					s-2.2-1.5-3.5-1.5s-2.6,0.5-3.5,1.5s-1.5,2.2-1.5,3.5s0.5,2.6,1.5,3.5C1347.8,775.6,1349.1,776.1,1350.4,776.1z"/>
			</g>
		</g>
	</g>
</g>
<g>
	<g>
		<defs>
			<rect id="SVGID_154_" x="887.9" y="558.7" width="613.6" height="375.5"/>
		</defs>
		<clipPath id="SVGID_155_">
			<use xlink:href="#SVGID_154_"  style="overflow:visible;"/>
		</clipPath>
		<g class="st84">
			<g>
				<path id="C3_0_96a002e01d_3_" class="st26" d="M1381.9,769.7c1.3,0,2.6-0.5,3.5-1.5c0.9-0.9,1.5-2.2,1.5-3.5s-0.5-2.6-1.5-3.5
					s-2.2-1.5-3.5-1.5s-2.6,0.5-3.5,1.5s-1.5,2.2-1.5,3.5s0.5,2.6,1.5,3.5C1379.3,769.2,1380.6,769.7,1381.9,769.7z"/>
			</g>
		</g>
	</g>
</g>
<g>
	<g>
		<defs>
			<rect id="SVGID_156_" x="887.9" y="558.7" width="613.6" height="375.5"/>
		</defs>
		<clipPath id="SVGID_157_">
			<use xlink:href="#SVGID_156_"  style="overflow:visible;"/>
		</clipPath>
		<g class="st85">
			<g>
				<path id="C3_0_96a002e01d_4_" class="st26" d="M1316.1,762.3c1.3,0,2.6-0.5,3.5-1.5c0.9-0.9,1.5-2.2,1.5-3.5s-0.5-2.6-1.5-3.5
					s-2.2-1.5-3.5-1.5s-2.6,0.5-3.5,1.5s-1.5,2.2-1.5,3.5s0.5,2.6,1.5,3.5C1313.5,761.8,1314.8,762.3,1316.1,762.3z"/>
			</g>
		</g>
	</g>
</g>
<g>
	<g>
		<defs>
			<rect id="SVGID_158_" x="887.9" y="558.7" width="613.6" height="375.5"/>
		</defs>
		<clipPath id="SVGID_159_">
			<use xlink:href="#SVGID_158_"  style="overflow:visible;"/>
		</clipPath>
		<g class="st86">
			<g>
				<path id="C3_0_96a002e01d_5_" class="st26" d="M1408,746.8c1.3,0,2.6-0.5,3.5-1.5c0.9-0.9,1.5-2.2,1.5-3.5s-0.5-2.6-1.5-3.5
					s-2.2-1.5-3.5-1.5s-2.6,0.5-3.5,1.5s-1.5,2.2-1.5,3.5s0.5,2.6,1.5,3.5C1405.4,746.3,1406.7,746.8,1408,746.8z"/>
			</g>
		</g>
	</g>
</g>
<g>
	<g>
		<defs>
			<rect id="SVGID_160_" x="887.9" y="558.7" width="613.6" height="375.5"/>
		</defs>
		<clipPath id="SVGID_161_">
			<use xlink:href="#SVGID_160_"  style="overflow:visible;"/>
		</clipPath>
		<g class="st87">
			<g>
				<path id="C3_0_96a002e01d_6_" class="st26" d="M1288.9,741.6c1.3,0,2.6-0.5,3.5-1.5c0.9-0.9,1.5-2.2,1.5-3.5s-0.5-2.6-1.5-3.5
					s-2.2-1.5-3.5-1.5s-2.6,0.5-3.5,1.5s-1.5,2.2-1.5,3.5s0.5,2.6,1.5,3.5C1286.3,741.1,1287.5,741.6,1288.9,741.6z"/>
			</g>
		</g>
	</g>
</g>
<g>
	<g>
		<defs>
			<rect id="SVGID_162_" x="887.9" y="558.7" width="613.6" height="375.5"/>
		</defs>
		<clipPath id="SVGID_163_">
			<use xlink:href="#SVGID_162_"  style="overflow:visible;"/>
		</clipPath>
		<g class="st88">
			<g>
				<path id="C3_0_96a002e01d_7_" class="st26" d="M1348.1,734.7c1.3,0,2.6-0.5,3.5-1.5c0.9-0.9,1.5-2.2,1.5-3.5s-0.5-2.6-1.5-3.5
					s-2.2-1.5-3.5-1.5s-2.6,0.5-3.5,1.5s-1.5,2.2-1.5,3.5s0.5,2.6,1.5,3.5C1345.5,734.2,1346.8,734.7,1348.1,734.7z"/>
			</g>
		</g>
	</g>
</g>
<g>
	<g>
		<defs>
			<rect id="SVGID_164_" x="887.9" y="558.7" width="613.6" height="375.5"/>
		</defs>
		<clipPath id="SVGID_165_">
			<use xlink:href="#SVGID_164_"  style="overflow:visible;"/>
		</clipPath>
		<g class="st89">
			<g>
				<path id="C3_0_96a002e01d_8_" class="st26" d="M1438.2,733.9c1.3,0,2.6-0.5,3.5-1.5c0.9-0.9,1.5-2.2,1.5-3.5s-0.5-2.6-1.5-3.5
					s-2.2-1.5-3.5-1.5s-2.6,0.5-3.5,1.5s-1.5,2.2-1.5,3.5s0.5,2.6,1.5,3.5C1435.6,733.4,1436.9,733.9,1438.2,733.9z"/>
			</g>
		</g>
	</g>
</g>
<g>
	<g>
		<defs>
			<rect id="SVGID_166_" x="887.9" y="558.7" width="613.6" height="375.5"/>
		</defs>
		<clipPath id="SVGID_167_">
			<use xlink:href="#SVGID_166_"  style="overflow:visible;"/>
		</clipPath>
		<g class="st90">
			<g>
				<path id="C3_0_96a002e01d_9_" class="st26" d="M1348.1,691c1.3,0,2.6-0.5,3.5-1.5c0.9-0.9,1.5-2.2,1.5-3.5s-0.5-2.6-1.5-3.5
					s-2.2-1.5-3.5-1.5s-2.6,0.5-3.5,1.5s-1.5,2.2-1.5,3.5s0.5,2.6,1.5,3.5C1345.5,690.5,1346.8,691,1348.1,691z"/>
			</g>
		</g>
	</g>
</g>
<g>
	<g>
		<defs>
			<rect id="SVGID_168_" x="887.9" y="558.7" width="613.6" height="375.5"/>
		</defs>
		<clipPath id="SVGID_169_">
			<use xlink:href="#SVGID_168_"  style="overflow:visible;"/>
		</clipPath>
		<g class="st91">
			<g>
				<path id="C3_0_96a002e01d_10_" class="st26" d="M1316.5,685c1.3,0,2.6-0.5,3.5-1.5c0.9-0.9,1.5-2.2,1.5-3.5s-0.5-2.6-1.5-3.5
					s-2.2-1.5-3.5-1.5s-2.6,0.5-3.5,1.5s-1.5,2.2-1.5,3.5s0.5,2.6,1.5,3.5C1313.9,684.5,1315.2,685,1316.5,685z"/>
			</g>
		</g>
	</g>
</g>
<g>
	<g>
		<defs>
			<rect id="SVGID_170_" x="887.9" y="558.7" width="613.6" height="375.5"/>
		</defs>
		<clipPath id="SVGID_171_">
			<use xlink:href="#SVGID_170_"  style="overflow:visible;"/>
		</clipPath>
		<g class="st92">
			<g>
				<path id="C3_0_96a002e01d_11_" class="st26" d="M1374.8,669.2c1.3,0,2.6-0.5,3.5-1.5c0.9-0.9,1.5-2.2,1.5-3.5s-0.5-2.6-1.5-3.5
					s-2.2-1.5-3.5-1.5s-2.6,0.5-3.5,1.5s-1.5,2.2-1.5,3.5s0.5,2.6,1.5,3.5C1372.2,668.7,1373.5,669.2,1374.8,669.2z"/>
			</g>
		</g>
	</g>
</g>
<g>
	<g>
		<defs>
			<rect id="SVGID_172_" x="887.9" y="558.7" width="613.6" height="375.5"/>
		</defs>
		<clipPath id="SVGID_173_">
			<use xlink:href="#SVGID_172_"  style="overflow:visible;"/>
		</clipPath>
		<g class="st93">
			<g>
				<path id="C3_0_96a002e01d_12_" class="st26" d="M1348.1,647.3c1.3,0,2.6-0.5,3.5-1.5c0.9-0.9,1.5-2.2,1.5-3.5s-0.5-2.6-1.5-3.5
					s-2.2-1.5-3.5-1.5s-2.6,0.5-3.5,1.5s-1.5,2.2-1.5,3.5s0.5,2.6,1.5,3.5C1345.5,646.7,1346.8,647.3,1348.1,647.3z"/>
			</g>
		</g>
	</g>
</g>
<g>
	<g>
		<defs>
			<rect id="SVGID_174_" x="887.9" y="558.7" width="613.6" height="375.5"/>
		</defs>
		<clipPath id="SVGID_176_">
			<use xlink:href="#SVGID_174_"  style="overflow:visible;"/>
		</clipPath>
		<g class="st94">
			<g>
				<path id="C3_0_96a002e01d_13_" class="st26" d="M1326.5,618c1.3,0,2.6-0.5,3.5-1.5c0.9-0.9,1.5-2.2,1.5-3.5s-0.5-2.6-1.5-3.5
					s-2.2-1.5-3.5-1.5s-2.6,0.5-3.5,1.5s-1.5,2.2-1.5,3.5s0.5,2.6,1.5,3.5C1323.9,617.4,1325.2,618,1326.5,618z"/>
			</g>
		</g>
	</g>
</g>
<g>
	<g>
		<defs>
			<rect id="SVGID_177_" x="887.9" y="558.7" width="613.6" height="375.5"/>
		</defs>
		<clipPath id="SVGID_178_">
			<use xlink:href="#SVGID_177_"  style="overflow:visible;"/>
		</clipPath>
		<g class="st95">
			<g>
				<path id="C3_0_96a002e01d_14_" class="st57" d="M1365.9,614.2c1.3,0,2.6-0.5,3.5-1.5c0.9-0.9,1.5-2.2,1.5-3.5s-0.5-2.6-1.5-3.5
					s-2.2-1.5-3.5-1.5s-2.6,0.5-3.5,1.5s-1.5,2.2-1.5,3.5s0.5,2.6,1.5,3.5C1363.3,613.7,1364.6,614.2,1365.9,614.2z"/>
			</g>
		</g>
	</g>
	<g>
		<rect id="SVGID_175_" x="887.9" y="558.7" class="st58" width="613.6" height="375.5"/>
	</g>
</g>
<g id="text_35">
	<g transform="translate(826.504688 613.118403)scale(0.6 -0.6)">
		<g>
			<path id="ArialMT-44_4_" class="st0" d="M-76.1,111.1v71.6h24.7c5.6,0,9.8-0.3,12.7-1c4.1-0.9,7.6-2.7,10.5-5.1
				c3.8-3.2,6.6-7.3,8.5-12.2c1.9-5,2.8-10.6,2.8-17c0-5.4-0.6-10.3-1.9-14.5c-1.3-4.2-2.9-7.7-4.9-10.4c-2-2.8-4.2-4.9-6.5-6.5
				c-2.4-1.6-5.2-2.8-8.5-3.6c-3.3-0.8-7.2-1.2-11.5-1.2L-76.1,111.1L-76.1,111.1z M-66.6,119.5h15.3c4.7,0,8.4,0.4,11.1,1.3
				s4.8,2.1,6.4,3.7c2.2,2.2,4,5.3,5.2,9s1.9,8.4,1.9,13.8c0,7.5-1.2,13.2-3.7,17.3s-5.4,6.7-9,8.1c-2.5,1-6.6,1.5-12.2,1.5h-15
				C-66.6,174.2-66.6,119.5-66.6,119.5z"/>
		</g>
	</g>
</g>
<text transform="matrix(1 0 0 1 234.3919 972.4257)" class="st96 st97">dynamic</text>
<text transform="matrix(1 0 0 1 560.7304 972.4257)" class="st96 st97">static</text>
<text transform="matrix(1 0 0 1 217.2504 484.322)" class="st96 st97">high cloze</text>
<text transform="matrix(1 0 0 1 544.6617 487.156)" class="st96 st97">low cloze</text>
<line class="st98" x1="1502.1" y1="72.8" x2="1500.7" y2="961.8"/>
<line class="st99" x1="873.2" y1="69.7" x2="1508.7" y2="70.5"/>
<line class="st98" x1="882.6" y1="558.3" x2="1501.5" y2="559.2"/>
<text transform="matrix(4.489659e-11 -1 1 4.489659e-11 803.9612 428.5073)" class="st100 st97">low - high cloze (RT)</text>
<text transform="matrix(4.489659e-11 -1 1 4.489659e-11 809.9613 917.1909)" class="st100 st97">static - dynamic (RT)</text>
</svg>
