<?xml version="1.0" encoding="utf-8"?>
<!-- Generator: Adobe Illustrator 24.1.0, SVG Export Plug-In . SVG Version: 6.00 Build 0)  -->
<svg version="1.1" id="Layer_1" xmlns="http://www.w3.org/2000/svg" xmlns:xlink="http://www.w3.org/1999/xlink" x="0px" y="0px"
	 viewBox="0 0 1508.7 987.6" style="enable-background:new 0 0 1508.7 987.6;" xml:space="preserve">
<style type="text/css">
	.st0{fill:#FFFFFF;}
	.st1{fill:#262626;}
	.st2{clip-path:url(#SVGID_2_);fill:#772B58;stroke:#FFFFFF;stroke-width:0.24;}
	.st3{clip-path:url(#SVGID_4_);fill:#772B58;stroke:#FFFFFF;stroke-width:0.24;}
	.st4{clip-path:url(#SVGID_6_);fill:#DB6E59;stroke:#FFFFFF;stroke-width:0.24;}
	.st5{clip-path:url(#SVGID_8_);fill:#DB6E59;stroke:#FFFFFF;stroke-width:0.24;}
	.st6{clip-path:url(#SVGID_10_);fill:none;stroke:#424242;stroke-linecap:round;stroke-linejoin:round;}
	.st7{clip-path:url(#SVGID_12_);fill:none;stroke:#424242;stroke-linecap:round;stroke-linejoin:round;}
	.st8{clip-path:url(#SVGID_14_);fill:none;stroke:#424242;stroke-linecap:round;stroke-linejoin:round;}
	.st9{clip-path:url(#SVGID_16_);fill:none;stroke:#424242;stroke-linecap:round;stroke-linejoin:round;}
	.st10{fill:none;stroke:#262626;stroke-width:5;stroke-linecap:square;}
	.st11{fill:#772B58;stroke:#FFFFFF;stroke-width:0.24;}
	.st12{fill:#DB6E59;stroke:#FFFFFF;stroke-width:0.24;}
	.st13{clip-path:url(#SVGID_18_);fill:#772B58;stroke:#FFFFFF;stroke-width:0.24;}
	.st14{clip-path:url(#SVGID_20_);fill:#772B58;stroke:#FFFFFF;stroke-width:0.24;}
	.st15{clip-path:url(#SVGID_22_);fill:#DB6E59;stroke:#FFFFFF;stroke-width:0.24;}
	.st16{clip-path:url(#SVGID_24_);fill:#DB6E59;stroke:#FFFFFF;stroke-width:0.24;}
	.st17{clip-path:url(#SVGID_26_);fill:none;stroke:#424242;stroke-linecap:round;stroke-linejoin:round;}
	.st18{clip-path:url(#SVGID_28_);fill:none;stroke:#424242;stroke-linecap:round;stroke-linejoin:round;}
	.st19{clip-path:url(#SVGID_30_);fill:none;stroke:#424242;stroke-linecap:round;stroke-linejoin:round;}
	.st20{clip-path:url(#SVGID_32_);fill:none;stroke:#424242;stroke-linecap:round;stroke-linejoin:round;}
	.st21{clip-path:url(#SVGID_34_);fill:#772B58;stroke:#FFFFFF;stroke-width:0.24;}
	.st22{clip-path:url(#SVGID_36_);fill:#DB6E59;stroke:#FFFFFF;stroke-width:0.24;}
	.st23{clip-path:url(#SVGID_38_);fill:none;stroke:#424242;stroke-linecap:round;stroke-linejoin:round;}
	.st24{clip-path:url(#SVGID_40_);fill:none;stroke:#424242;stroke-linecap:round;stroke-linejoin:round;}
	.st25{fill:none;stroke:#262626;stroke-width:0.8;stroke-linecap:square;}
	.st26{clip-path:url(#SVGID_42_);}
	.st27{fill:#404040;}
	.st28{clip-path:url(#SVGID_44_);}
	.st29{clip-path:url(#SVGID_46_);}
	.st30{clip-path:url(#SVGID_48_);}
	.st31{clip-path:url(#SVGID_50_);}
	.st32{clip-path:url(#SVGID_52_);}
	.st33{clip-path:url(#SVGID_54_);}
	.st34{clip-path:url(#SVGID_56_);}
	.st35{clip-path:url(#SVGID_58_);}
	.st36{clip-path:url(#SVGID_60_);}
	.st37{clip-path:url(#SVGID_62_);}
	.st38{clip-path:url(#SVGID_64_);}
	.st39{clip-path:url(#SVGID_66_);}
	.st40{clip-path:url(#SVGID_68_);}
	.st41{clip-path:url(#SVGID_70_);}
	.st42{clip-path:url(#SVGID_72_);}
	.st43{clip-path:url(#SVGID_74_);}
	.st44{clip-path:url(#SVGID_76_);}
	.st45{clip-path:url(#SVGID_78_);}
	.st46{clip-path:url(#SVGID_80_);}
	.st47{clip-path:url(#SVGID_82_);}
	.st48{clip-path:url(#SVGID_84_);}
	.st49{clip-path:url(#SVGID_86_);}
	.st50{clip-path:url(#SVGID_88_);}
	.st51{clip-path:url(#SVGID_90_);}
	.st52{clip-path:url(#SVGID_92_);}
	.st53{clip-path:url(#SVGID_94_);}
	.st54{clip-path:url(#SVGID_96_);}
	.st55{clip-path:url(#SVGID_98_);}
	.st56{clip-path:url(#SVGID_100_);}
	.st57{clip-path:url(#SVGID_102_);}
	.st58{fill:none;stroke:#262626;stroke-width:5;}
	.st59{clip-path:url(#SVGID_104_);fill:#772B58;stroke:#FFFFFF;stroke-width:0.24;}
	.st60{clip-path:url(#SVGID_106_);fill:#DB6E59;stroke:#FFFFFF;stroke-width:0.24;}
	.st61{clip-path:url(#SVGID_108_);fill:none;stroke:#424242;stroke-linecap:round;stroke-linejoin:round;}
	.st62{clip-path:url(#SVGID_110_);fill:none;stroke:#424242;stroke-linecap:round;stroke-linejoin:round;}
	.st63{clip-path:url(#SVGID_112_);}
	.st64{clip-path:url(#SVGID_114_);}
	.st65{clip-path:url(#SVGID_116_);}
	.st66{clip-path:url(#SVGID_118_);}
	.st67{clip-path:url(#SVGID_120_);}
	.st68{clip-path:url(#SVGID_122_);}
	.st69{clip-path:url(#SVGID_124_);}
	.st70{clip-path:url(#SVGID_126_);}
	.st71{clip-path:url(#SVGID_128_);}
	.st72{clip-path:url(#SVGID_130_);}
	.st73{clip-path:url(#SVGID_132_);}
	.st74{clip-path:url(#SVGID_134_);}
	.st75{clip-path:url(#SVGID_136_);}
	.st76{clip-path:url(#SVGID_138_);}
	.st77{clip-path:url(#SVGID_140_);}
	.st78{clip-path:url(#SVGID_142_);}
	.st79{clip-path:url(#SVGID_144_);}
	.st80{clip-path:url(#SVGID_146_);}
	.st81{clip-path:url(#SVGID_148_);}
	.st82{clip-path:url(#SVGID_150_);}
	.st83{clip-path:url(#SVGID_152_);}
	.st84{clip-path:url(#SVGID_154_);}
	.st85{clip-path:url(#SVGID_156_);}
	.st86{clip-path:url(#SVGID_158_);}
	.st87{clip-path:url(#SVGID_160_);}
	.st88{clip-path:url(#SVGID_162_);}
	.st89{clip-path:url(#SVGID_164_);}
	.st90{clip-path:url(#SVGID_166_);}
	.st91{clip-path:url(#SVGID_168_);}
	.st92{clip-path:url(#SVGID_170_);}
	.st93{clip-path:url(#SVGID_172_);}
	.st94{font-family:'ArialMT';}
	.st95{font-size:50px;}
	.st96{font-size:40px;}
	.st97{fill:none;stroke:#FFFFFF;stroke-width:6;}
</style>
<g id="patch_2">
	<path class="st0" d="M151.5,401.5h613.6V26H151.5V401.5z"/>
</g>
<g id="matplotlib.axis_1">
	<g id="xtick_1">
		<g id="text_1">
			<g transform="translate(214.860653 532.809908)scale(0.4 -0.4)">
				<g>
					<path id="ArialMT-68" class="st1" d="M6.6,233.9v71.6h8.8v-25.7c4.1,4.8,9.3,7.1,15.5,7.1c3.8,0,7.2-0.8,10-2.3
						c2.8-1.5,4.9-3.6,6.1-6.3s1.8-6.5,1.8-11.6v-32.9H40v32.9c0,4.4-1,7.6-2.9,9.6s-4.6,3-8.1,3c-2.6,0-5.1-0.7-7.4-2
						s-3.9-3.2-4.9-5.5s-1.5-5.5-1.5-9.6v-28.4L6.6,233.9L6.6,233.9z"/>
				</g>
				<g>
					<path id="ArialMT-69" class="st1" d="M62.3,295.4v10.1h8.8v-10.1H62.3z M62.3,233.9v51.9h8.8v-51.9H62.3z"/>
				</g>
				<g>
					<path id="ArialMT-67" class="st1" d="M82.8,229.6l8.5-1.3c0.4-2.6,1.3-4.6,3-5.8c2.2-1.6,5.2-2.4,8.9-2.4
						c4.1,0,7.2,0.8,9.4,2.4c2.2,1.6,3.7,3.9,4.5,6.8c0.5,1.8,0.7,5.6,0.6,11.3c-3.8-4.5-8.6-6.8-14.3-6.8c-7.1,0-12.7,2.6-16.6,7.7
						s-5.9,11.3-5.9,18.5c0,4.9,0.9,9.5,2.7,13.7c1.8,4.2,4.4,7.4,7.8,9.7c3.4,2.3,7.4,3.4,12,3.4c6.1,0,11.2-2.5,15.1-7.4v6.2h8.1
						V241c0-8.1-0.8-13.8-2.5-17.2c-1.6-3.4-4.2-6-7.8-8c-3.6-2-7.9-2.9-13.2-2.9c-6.2,0-11.2,1.4-15,4.2S82.7,224,82.8,229.6z
						 M90.1,260.8c0-6.8,1.3-11.8,4-14.9c2.7-3.1,6.1-4.7,10.2-4.7c4,0,7.4,1.6,10.1,4.7c2.7,3.1,4.1,8,4.1,14.6
						c0,6.3-1.4,11.1-4.2,14.3c-2.8,3.2-6.2,4.8-10.2,4.8c-3.9,0-7.2-1.6-10-4.8C91.4,271.7,90.1,267,90.1,260.8z"/>
				</g>
				<g>
					<path id="ArialMT-68_1_" class="st1" d="M140,233.9v71.6h8.8v-25.7c4.1,4.8,9.3,7.1,15.5,7.1c3.8,0,7.2-0.8,10-2.3
						s4.9-3.6,6.1-6.3s1.8-6.5,1.8-11.6v-32.9h-8.8v32.9c0,4.4-1,7.6-2.9,9.6s-4.6,3-8.1,3c-2.6,0-5.1-0.7-7.4-2
						c-2.3-1.3-3.9-3.2-4.9-5.5s-1.5-5.5-1.5-9.6v-28.4L140,233.9L140,233.9z"/>
				</g>
				<g>
					<path id="ArialMT-20" class="st1" d="M189.1,233.9"/>
				</g>
				<g>
					<path id="ArialMT-63" class="st1" d="M257.3,252.9l8.6-1.1c-0.9-6-3.4-10.6-7.3-14s-8.7-5-14.3-5c-7.1,0-12.8,2.3-17.1,7
						c-4.3,4.6-6.5,11.3-6.5,20c0,5.6,0.9,10.5,2.8,14.7c1.9,4.2,4.7,7.4,8.5,9.5s7.9,3.2,12.4,3.2c5.6,0,10.2-1.4,13.8-4.3
						c3.6-2.8,5.9-6.9,6.9-12.1l-8.5-1.3c-0.8,3.5-2.3,6.1-4.3,7.9c-2.1,1.8-4.6,2.6-7.5,2.6c-4.4,0-8-1.6-10.8-4.8
						c-2.8-3.2-4.1-8.2-4.1-15c0-7,1.3-12,4-15.2s6.2-4.7,10.5-4.7c3.4,0,6.3,1.1,8.6,3.2S256.7,248.5,257.3,252.9z"/>
				</g>
				<g>
					<path id="ArialMT-6c" class="st1" d="M273.2,233.9v71.6h8.8v-71.6H273.2z"/>
				</g>
				<g>
					<path id="ArialMT-6f" class="st1" d="M292.4,259.9c0,9.6,2.7,16.7,8,21.3c4.5,3.8,9.9,5.8,16.3,5.8c7.1,0,12.9-2.3,17.5-7
						c4.5-4.7,6.8-11.1,6.8-19.4c0-6.7-1-11.9-3-15.8c-2-3.8-4.9-6.8-8.8-8.9c-3.8-2.1-8-3.2-12.5-3.2c-7.3,0-13.1,2.3-17.6,7
						C294.6,244.4,292.4,251.1,292.4,259.9z M301.4,259.9c0-6.6,1.4-11.6,4.3-14.9s6.5-5,10.9-5s8,1.7,10.9,5s4.3,8.4,4.3,15.2
						c0,6.4-1.5,11.3-4.4,14.6c-2.9,3.3-6.5,5-10.9,5s-8-1.6-10.9-4.9C302.9,271.5,301.4,266.5,301.4,259.9z"/>
				</g>
				<g>
					<path id="ArialMT-7a" class="st1" d="M346.6,233.9v7.1l33,37.9c-3.8-0.2-7.1-0.3-9.9-0.3h-21.1v7.1H391V280l-28.1-32.9l-5.4-6
						c3.9,0.3,7.6,0.4,11.1,0.4h24v-7.6H346.6z"/>
				</g>
				<g>
					<path id="ArialMT-65" class="st1" d="M436.8,250.6l9.1-1.1c-1.4-5.3-4.1-9.4-8-12.4c-3.9-2.9-8.8-4.4-14.8-4.4
						c-7.6,0-13.6,2.3-18,7s-6.7,11.2-6.7,19.7c0,8.7,2.2,15.5,6.7,20.3s10.3,7.2,17.5,7.2c6.9,0,12.6-2.4,17-7.1s6.6-11.4,6.6-19.9
						c0-0.5,0-1.3,0-2.3h-38.7c0.3-5.7,1.9-10.1,4.8-13.1s6.5-4.5,10.8-4.5c3.2,0,6,0.8,8.2,2.5
						C433.6,244.2,435.4,246.9,436.8,250.6z M407.9,264.8h29c-0.4,4.4-1.5,7.6-3.3,9.8c-2.8,3.4-6.4,5.1-10.9,5.1
						c-4,0-7.4-1.3-10.2-4S408.2,269.4,407.9,264.8z"/>
				</g>
			</g>
		</g>
	</g>
	<g id="xtick_2">
		<g id="text_2">
			<g transform="translate(529.478835 532.809908)scale(0.4 -0.4)">
				<g>
					<path id="ArialMT-6c_1_" class="st1" d="M6.4,233.9v71.6h8.8v-71.6H6.4z"/>
				</g>
				<g>
					<path id="ArialMT-6f_1_" class="st1" d="M25.5,259.9c0,9.6,2.7,16.7,8,21.3c4.5,3.8,9.9,5.8,16.3,5.8c7.1,0,12.9-2.3,17.5-7
						c4.5-4.7,6.8-11.1,6.8-19.4c0-6.7-1-11.9-3-15.8c-2-3.8-4.9-6.8-8.8-8.9c-3.8-2.1-8-3.2-12.5-3.2c-7.3,0-13.1,2.3-17.6,7
						C27.8,244.4,25.5,251.1,25.5,259.9z M34.6,259.9c0-6.6,1.4-11.6,4.3-14.9c2.9-3.3,6.5-5,10.9-5s8,1.7,10.9,5s4.3,8.4,4.3,15.2
						c0,6.4-1.5,11.3-4.4,14.6s-6.5,5-10.9,5s-8-1.6-10.9-4.9C36,271.5,34.6,266.5,34.6,259.9z"/>
				</g>
				<g>
					<path id="ArialMT-77" class="st1" d="M94,233.9l-15.9,51.9h9.1l8.2-29.9l3.1-11.1c0.1,0.6,1,4.1,2.7,10.7l8.2,30.4h9l7.8-30.1
						l2.6-9.9l3,10l8.9,30h8.5L133,234h-9.1l-8.2,31.1l-2,8.8L103.2,234H94V233.9z"/>
				</g>
				<g>
					<path id="ArialMT-20_1_" class="st1" d="M150,233.9"/>
				</g>
				<g>
					<path id="ArialMT-63_1_" class="st1" d="M218.3,252.9l8.6-1.1c-0.9-6-3.4-10.6-7.3-14c-3.9-3.4-8.7-5-14.3-5
						c-7.1,0-12.8,2.3-17.1,7c-4.3,4.6-6.5,11.3-6.5,20c0,5.6,0.9,10.5,2.8,14.7c1.9,4.2,4.7,7.4,8.5,9.5s7.9,3.2,12.4,3.2
						c5.6,0,10.2-1.4,13.8-4.3c3.6-2.8,5.9-6.9,6.9-12.1l-8.5-1.3c-0.8,3.5-2.3,6.1-4.3,7.9c-2.1,1.8-4.6,2.6-7.5,2.6
						c-4.4,0-8-1.6-10.8-4.8c-2.8-3.2-4.1-8.2-4.1-15c0-7,1.3-12,4-15.2s6.2-4.7,10.5-4.7c3.4,0,6.3,1.1,8.6,3.2
						S217.6,248.5,218.3,252.9z"/>
				</g>
				<g>
					<path id="ArialMT-6c_2_" class="st1" d="M234.2,233.9v71.6h8.8v-71.6H234.2z"/>
				</g>
				<g>
					<path id="ArialMT-6f_2_" class="st1" d="M253.4,259.9c0,9.6,2.7,16.7,8,21.3c4.5,3.8,9.9,5.8,16.3,5.8c7.1,0,12.9-2.3,17.5-7
						c4.5-4.7,6.8-11.1,6.8-19.4c0-6.7-1-11.9-3-15.8c-2-3.8-4.9-6.8-8.8-8.9c-3.8-2.1-8-3.2-12.5-3.2c-7.3,0-13.1,2.3-17.6,7
						C255.6,244.4,253.4,251.1,253.4,259.9z M262.4,259.9c0-6.6,1.4-11.6,4.3-14.9s6.5-5,10.9-5s8,1.7,10.9,5s4.3,8.4,4.3,15.2
						c0,6.4-1.5,11.3-4.4,14.6c-2.9,3.3-6.5,5-10.9,5s-8-1.6-10.9-4.9C263.9,271.5,262.4,266.5,262.4,259.9z"/>
				</g>
				<g>
					<path id="ArialMT-7a_1_" class="st1" d="M307.6,233.9v7.1l33,37.9c-3.8-0.2-7.1-0.3-9.9-0.3h-21.1v7.1H352V280l-28.1-32.9
						l-5.4-6c3.9,0.3,7.6,0.4,11.1,0.4h24v-7.6H307.6z"/>
				</g>
				<g>
					<path id="ArialMT-65_1_" class="st1" d="M397.8,250.6l9.1-1.1c-1.4-5.3-4.1-9.4-8-12.4c-3.9-2.9-8.8-4.4-14.8-4.4
						c-7.6,0-13.6,2.3-18,7s-6.7,11.2-6.7,19.7c0,8.7,2.2,15.5,6.7,20.3s10.3,7.2,17.5,7.2c6.9,0,12.6-2.4,17-7.1s6.6-11.4,6.6-19.9
						c0-0.5,0-1.3,0-2.3h-38.7c0.3-5.7,1.9-10.1,4.8-13.1s6.5-4.5,10.8-4.5c3.2,0,6,0.8,8.2,2.5
						C394.6,244.2,396.4,246.9,397.8,250.6z M368.9,264.8h29c-0.4,4.4-1.5,7.6-3.3,9.8c-2.8,3.4-6.4,5.1-10.9,5.1
						c-4,0-7.4-1.3-10.2-4S369.2,269.4,368.9,264.8z"/>
				</g>
			</g>
		</g>
	</g>
	<g id="text_3">
		<g transform="translate(405.799432 577.438815)scale(0.45 -0.45)">
			<g>
				<path id="ArialMT-63_2_" class="st1" d="M40.4,226.9l8.6-1.1c-0.9-6-3.4-10.6-7.3-14s-8.7-5-14.3-5c-7.1,0-12.8,2.3-17.1,7
					c-4.3,4.6-6.5,11.3-6.5,20c0,5.6,0.9,10.5,2.8,14.7s4.7,7.4,8.5,9.5c3.8,2.1,7.9,3.2,12.4,3.2c5.6,0,10.2-1.4,13.8-4.3
					c3.6-2.8,5.9-6.9,6.9-12.1l-8.5-1.3c-0.8,3.5-2.3,6.1-4.3,7.9c-2.1,1.8-4.6,2.6-7.5,2.6c-4.4,0-8-1.6-10.8-4.8s-4.1-8.2-4.1-15
					c0-7,1.3-12,4-15.2s6.2-4.7,10.5-4.7c3.4,0,6.3,1.1,8.6,3.2C38.3,219.3,39.8,222.5,40.4,226.9z"/>
			</g>
			<g>
				<path id="ArialMT-6c_3_" class="st1" d="M56.4,207.9v71.6h8.8v-71.6H56.4z"/>
			</g>
			<g>
				<path id="ArialMT-6f_3_" class="st1" d="M75.5,233.9c0,9.6,2.7,16.7,8,21.3c4.5,3.8,9.9,5.8,16.3,5.8c7.1,0,12.9-2.3,17.5-7
					c4.5-4.7,6.8-11.1,6.8-19.4c0-6.7-1-11.9-3-15.8c-2-3.8-4.9-6.8-8.8-8.9c-3.8-2.1-8-3.2-12.5-3.2c-7.3,0-13.1,2.3-17.6,7
					C77.8,218.4,75.5,225.1,75.5,233.9z M84.6,233.9c0-6.6,1.4-11.6,4.3-14.9c2.9-3.3,6.5-5,10.9-5s8,1.7,10.9,5s4.3,8.4,4.3,15.2
					c0,6.4-1.5,11.3-4.4,14.6s-6.5,5-10.9,5s-8-1.6-10.9-4.9C86,245.5,84.6,240.5,84.6,233.9z"/>
			</g>
			<g>
				<path id="ArialMT-7a_2_" class="st1" d="M129.8,207.9v7.1l33,37.9c-3.8-0.2-7.1-0.3-9.9-0.3h-21.1v7.1h42.4V254l-28.1-32.9
					l-5.4-6c3.9,0.3,7.6,0.4,11.1,0.4h24v-7.6H129.8z"/>
			</g>
			<g>
				<path id="ArialMT-65_2_" class="st1" d="M219.9,224.6l9.1-1.1c-1.4-5.3-4.1-9.4-8-12.4c-3.9-2.9-8.8-4.4-14.8-4.4
					c-7.6,0-13.6,2.3-18,7s-6.7,11.2-6.7,19.7c0,8.7,2.2,15.5,6.7,20.3c4.5,4.8,10.3,7.2,17.5,7.2c6.9,0,12.6-2.4,17-7.1
					c4.4-4.7,6.6-11.4,6.6-19.9c0-0.5,0-1.3,0-2.3h-38.7c0.3-5.7,1.9-10.1,4.8-13.1c2.9-3,6.5-4.5,10.8-4.5c3.2,0,6,0.8,8.2,2.5
					C216.8,218.2,218.6,220.9,219.9,224.6z M191.1,238.8h29c-0.4,4.4-1.5,7.6-3.3,9.8c-2.8,3.4-6.4,5.1-10.9,5.1
					c-4,0-7.4-1.3-10.2-4C192.9,247,191.4,243.4,191.1,238.8z"/>
			</g>
		</g>
	</g>
</g>
<g id="matplotlib.axis_2">
	<g id="ytick_1">
		<g id="text_4">
			<g transform="translate(75.673438 434.301414)scale(0.4 -0.4)">
				<g>
					<path id="ArialMT-36" class="st1" d="M49.8,288l-8.7-0.7c-0.8,3.4-1.9,6-3.3,7.5c-2.4,2.5-5.3,3.8-8.8,3.8
						c-2.8,0-5.3-0.8-7.4-2.3c-2.8-2-4.9-5-6.5-8.8c-1.6-3.9-2.4-9.4-2.5-16.5c2.1,3.2,4.7,5.6,7.8,7.2s6.3,2.3,9.6,2.3
						c5.9,0,10.8-2.2,15-6.5c4.1-4.3,6.2-9.9,6.2-16.7c0-4.5-1-8.7-2.9-12.5c-1.9-3.9-4.6-6.8-8-8.9c-3.4-2.1-7.2-3.1-11.5-3.1
						c-7.3,0-13.3,2.7-17.9,8.1C6.3,246.3,4,255.2,4,267.5c0,13.8,2.6,23.9,7.7,30.2c4.5,5.5,10.5,8.2,18,8.2
						c5.6,0,10.2-1.6,13.8-4.7C46.9,297.9,49,293.6,49.8,288z M13.9,257.1c0-3,0.6-5.9,1.9-8.7s3.1-4.9,5.4-6.3
						c2.3-1.4,4.7-2.2,7.3-2.2c3.7,0,6.9,1.5,9.6,4.5c2.7,3,4,7.1,4,12.2c0,4.9-1.3,8.8-4,11.7c-2.6,2.9-6,4.3-10,4.3
						s-7.3-1.4-10.1-4.3C15.3,265.5,13.9,261.7,13.9,257.1z"/>
				</g>
				<g>
					<path id="ArialMT-30" class="st1" d="M59.8,269.2c0,8.5,0.9,15.3,2.6,20.4c1.7,5.2,4.3,9.1,7.8,11.9c3.4,2.8,7.8,4.2,13,4.2
						c3.8,0,7.2-0.8,10.1-2.3s5.3-3.8,7.2-6.7c1.9-2.9,3.4-6.5,4.5-10.6c1.1-4.2,1.6-9.8,1.6-16.9c0-8.4-0.9-15.2-2.6-20.3
						c-1.7-5.2-4.3-9.1-7.7-12c-3.4-2.8-7.8-4.2-13-4.2c-6.9,0-12.3,2.5-16.2,7.4C62.1,246.1,59.8,255.8,59.8,269.2z M68.8,269.2
						c0-11.8,1.4-19.6,4.1-23.5c2.8-3.9,6.1-5.8,10.2-5.8c4,0,7.4,2,10.2,5.9s4.1,11.7,4.1,23.4c0,11.8-1.4,19.6-4.1,23.5
						c-2.8,3.9-6.2,5.8-10.3,5.8c-4,0-7.3-1.7-9.7-5.1C70.3,289,68.8,281,68.8,269.2z"/>
				</g>
				<g>
					<path id="ArialMT-30_1_" class="st1" d="M115.4,269.2c0,8.5,0.9,15.3,2.6,20.4c1.7,5.2,4.3,9.1,7.8,11.9
						c3.4,2.8,7.8,4.2,13,4.2c3.8,0,7.2-0.8,10.1-2.3c2.9-1.5,5.3-3.8,7.2-6.7c1.9-2.9,3.4-6.5,4.5-10.6c1.1-4.2,1.6-9.8,1.6-16.9
						c0-8.4-0.9-15.2-2.6-20.3c-1.7-5.2-4.3-9.1-7.7-12c-3.4-2.8-7.8-4.2-13-4.2c-6.9,0-12.3,2.5-16.2,7.4
						C117.7,246.1,115.4,255.8,115.4,269.2z M124.4,269.2c0-11.8,1.4-19.6,4.1-23.5c2.8-3.9,6.1-5.8,10.2-5.8c4,0,7.4,2,10.2,5.9
						s4.1,11.7,4.1,23.4c0,11.8-1.4,19.6-4.1,23.5c-2.8,3.9-6.2,5.8-10.3,5.8c-4,0-7.3-1.7-9.7-5.1C125.9,289,124.4,281,124.4,269.2
						z"/>
				</g>
			</g>
		</g>
	</g>
	<g id="ytick_2">
		<g id="text_5">
			<g transform="translate(75.673438 284.115675)scale(0.4 -0.4)">
				<g>
					<path id="ArialMT-38" class="st1" d="M17.7,272.7c-3.6,1.3-6.3,3.2-8.1,5.7S7,283.8,7,287.3c0,5.2,1.9,9.6,5.6,13.1
						c3.8,3.6,8.7,5.3,14.9,5.3s11.3-1.8,15.1-5.5c3.8-3.6,5.7-8,5.7-13.2c0-3.3-0.9-6.2-2.6-8.7c-1.7-2.4-4.4-4.3-7.9-5.7
						c4.4-1.4,7.7-3.7,10-6.9c2.3-3.2,3.4-7,3.4-11.4c0-6.1-2.2-11.3-6.5-15.4c-4.3-4.2-10-6.2-17.1-6.2s-12.8,2.1-17.1,6.3
						S4,248.4,4,254.7c0,4.7,1.2,8.6,3.5,11.7C10,269.5,13.3,271.6,17.7,272.7z M15.9,287.6c0-3.4,1.1-6.2,3.3-8.3
						c2.2-2.1,5-3.2,8.5-3.2c3.4,0,6.2,1.1,8.3,3.2c2.2,2.1,3.2,4.8,3.2,7.8c0,3.2-1.1,5.9-3.4,8.1c-2.2,2.2-5,3.3-8.3,3.3
						c-3.4,0-6.1-1.1-8.4-3.2C17,293.2,15.9,290.6,15.9,287.6z M13.1,254.6c0-2.5,0.6-4.9,1.8-7.3s3-4.2,5.3-5.5s4.9-1.9,7.6-1.9
						c4.2,0,7.7,1.3,10.4,4s4.1,6.1,4.1,10.3c0,4.2-1.4,7.7-4.2,10.5s-6.3,4.2-10.6,4.2c-4.1,0-7.6-1.4-10.3-4.1
						C14.4,262.1,13.1,258.7,13.1,254.6z"/>
				</g>
				<g>
					<path id="ArialMT-30_2_" class="st1" d="M59.8,269.2c0,8.5,0.9,15.3,2.6,20.4c1.7,5.2,4.3,9.1,7.8,11.9c3.4,2.8,7.8,4.2,13,4.2
						c3.8,0,7.2-0.8,10.1-2.3s5.3-3.8,7.2-6.7c1.9-2.9,3.4-6.5,4.5-10.6c1.1-4.2,1.6-9.8,1.6-16.9c0-8.4-0.9-15.2-2.6-20.3
						c-1.7-5.2-4.3-9.1-7.7-12c-3.4-2.8-7.8-4.2-13-4.2c-6.9,0-12.3,2.5-16.2,7.4C62.1,246.1,59.8,255.8,59.8,269.2z M68.8,269.2
						c0-11.8,1.4-19.6,4.1-23.5c2.8-3.9,6.1-5.8,10.2-5.8c4,0,7.4,2,10.2,5.9s4.1,11.7,4.1,23.4c0,11.8-1.4,19.6-4.1,23.5
						c-2.8,3.9-6.2,5.8-10.3,5.8c-4,0-7.3-1.7-9.7-5.1C70.3,289,68.8,281,68.8,269.2z"/>
				</g>
				<g>
					<path id="ArialMT-30_3_" class="st1" d="M115.4,269.2c0,8.5,0.9,15.3,2.6,20.4c1.7,5.2,4.3,9.1,7.8,11.9
						c3.4,2.8,7.8,4.2,13,4.2c3.8,0,7.2-0.8,10.1-2.3c2.9-1.5,5.3-3.8,7.2-6.7c1.9-2.9,3.4-6.5,4.5-10.6c1.1-4.2,1.6-9.8,1.6-16.9
						c0-8.4-0.9-15.2-2.6-20.3c-1.7-5.2-4.3-9.1-7.7-12c-3.4-2.8-7.8-4.2-13-4.2c-6.9,0-12.3,2.5-16.2,7.4
						C117.7,246.1,115.4,255.8,115.4,269.2z M124.4,269.2c0-11.8,1.4-19.6,4.1-23.5c2.8-3.9,6.1-5.8,10.2-5.8c4,0,7.4,2,10.2,5.9
						s4.1,11.7,4.1,23.4c0,11.8-1.4,19.6-4.1,23.5c-2.8,3.9-6.2,5.8-10.3,5.8c-4,0-7.3-1.7-9.7-5.1C125.9,289,124.4,281,124.4,269.2
						z"/>
				</g>
			</g>
		</g>
	</g>
	<g id="ytick_3">
		<g id="text_6">
			<g transform="translate(53.429688 133.929935)scale(0.4 -0.4)">
				<g>
					<path id="ArialMT-31" class="st1" d="M37.2,233.9h-8.8v56c-2.1-2-4.9-4-8.3-6s-6.5-3.5-9.3-4.5v8.5c4.9,2.3,9.2,5.1,12.9,8.4
						s6.3,6.5,7.8,9.6h5.7V233.9z"/>
				</g>
				<g>
					<path id="ArialMT-30_4_" class="st1" d="M59.8,269.2c0,8.5,0.9,15.3,2.6,20.4c1.7,5.2,4.3,9.1,7.8,11.9c3.4,2.8,7.8,4.2,13,4.2
						c3.8,0,7.2-0.8,10.1-2.3s5.3-3.8,7.2-6.7c1.9-2.9,3.4-6.5,4.5-10.6c1.1-4.2,1.6-9.8,1.6-16.9c0-8.4-0.9-15.2-2.6-20.3
						c-1.7-5.2-4.3-9.1-7.7-12c-3.4-2.8-7.8-4.2-13-4.2c-6.9,0-12.3,2.5-16.2,7.4C62.1,246.1,59.8,255.8,59.8,269.2z M68.8,269.2
						c0-11.8,1.4-19.6,4.1-23.5c2.8-3.9,6.1-5.8,10.2-5.8c4,0,7.4,2,10.2,5.9s4.1,11.7,4.1,23.4c0,11.8-1.4,19.6-4.1,23.5
						c-2.8,3.9-6.2,5.8-10.3,5.8c-4,0-7.3-1.7-9.7-5.1C70.3,289,68.8,281,68.8,269.2z"/>
				</g>
				<g>
					<path id="ArialMT-30_5_" class="st1" d="M115.4,269.2c0,8.5,0.9,15.3,2.6,20.4c1.7,5.2,4.3,9.1,7.8,11.9
						c3.4,2.8,7.8,4.2,13,4.2c3.8,0,7.2-0.8,10.1-2.3c2.9-1.5,5.3-3.8,7.2-6.7c1.9-2.9,3.4-6.5,4.5-10.6c1.1-4.2,1.6-9.8,1.6-16.9
						c0-8.4-0.9-15.2-2.6-20.3c-1.7-5.2-4.3-9.1-7.7-12c-3.4-2.8-7.8-4.2-13-4.2c-6.9,0-12.3,2.5-16.2,7.4
						C117.7,246.1,115.4,255.8,115.4,269.2z M124.4,269.2c0-11.8,1.4-19.6,4.1-23.5c2.8-3.9,6.1-5.8,10.2-5.8c4,0,7.4,2,10.2,5.9
						s4.1,11.7,4.1,23.4c0,11.8-1.4,19.6-4.1,23.5c-2.8,3.9-6.2,5.8-10.3,5.8c-4,0-7.3-1.7-9.7-5.1C125.9,289,124.4,281,124.4,269.2
						z"/>
				</g>
				<g>
					<path id="ArialMT-30_6_" class="st1" d="M171,269.2c0,8.5,0.9,15.3,2.6,20.4c1.7,5.2,4.3,9.1,7.8,11.9c3.4,2.8,7.8,4.2,13,4.2
						c3.8,0,7.2-0.8,10.1-2.3c2.9-1.5,5.3-3.8,7.2-6.7c1.9-2.9,3.4-6.5,4.5-10.6c1.1-4.2,1.6-9.8,1.6-16.9c0-8.4-0.9-15.2-2.6-20.3
						c-1.7-5.2-4.3-9.1-7.7-12c-3.4-2.8-7.8-4.2-13-4.2c-6.9,0-12.3,2.5-16.2,7.4C173.4,246.1,171,255.8,171,269.2z M180,269.2
						c0-11.8,1.4-19.6,4.1-23.5c2.8-3.9,6.1-5.8,10.2-5.8c4,0,7.4,2,10.2,5.9s4.1,11.7,4.1,23.4c0,11.8-1.4,19.6-4.1,23.5
						c-2.8,3.9-6.2,5.8-10.3,5.8c-4,0-7.3-1.7-9.7-5.1C181.5,289,180,281,180,269.2z"/>
				</g>
			</g>
		</g>
	</g>
	<g id="text_7">
		<g transform="translate(39.958594 450.305859)rotate(-90)scale(0.45 -0.45)">
			<g>
				<path id="ArialMT-4d" class="st1" d="M215.4,0v71.6h14.3l16.9-50.7c1.6-4.7,2.7-8.3,3.4-10.6c0.8,2.6,2.1,6.4,3.8,11.5
					l17.1,49.8h12.8V0h-9.1v59.9L253.7,0h-8.5l-20.7,60.9V0H215.4z"/>
			</g>
			<g>
				<path id="ArialMT-65_3_" class="st1" d="M333.3,16.7l9.1-1.1c-1.4-5.3-4.1-9.4-8-12.4c-3.9-2.9-8.8-4.4-14.8-4.4
					c-7.6,0-13.6,2.3-18,7s-6.7,11.2-6.7,19.7c0,8.7,2.2,15.5,6.7,20.3c4.5,4.8,10.3,7.2,17.5,7.2c6.9,0,12.6-2.4,17-7.1
					c4.4-4.7,6.6-11.4,6.6-19.9c0-0.5,0-1.3,0-2.3H304c0.3-5.7,1.9-10.1,4.8-13.1s6.5-4.5,10.8-4.5c3.2,0,6,0.8,8.2,2.5
					C330.2,10.3,332,13,333.3,16.7z M304.5,30.9h29c-0.4,4.4-1.5,7.6-3.3,9.8c-2.8,3.4-6.4,5.1-10.9,5.1c-4,0-7.4-1.3-10.2-4
					S304.8,35.4,304.5,30.9z"/>
			</g>
			<g>
				<path id="ArialMT-61" class="st1" d="M387.3,6.4c-3.3-2.8-6.4-4.7-9.4-5.9c-3-1.1-6.2-1.7-9.7-1.7c-5.7,0-10.1,1.4-13.1,4.2
					s-4.6,6.3-4.6,10.7c0,2.5,0.6,4.9,1.7,7c1.2,2.1,2.7,3.8,4.5,5.1s4,2.2,6.3,2.9c1.7,0.5,4.3,0.9,7.8,1.3
					c7.1,0.8,12.3,1.8,15.7,3c0,1.2,0,2,0,2.3c0,3.6-0.8,6.1-2.5,7.6c-2.2,2-5.6,3-10,3c-4.1,0-7.2-0.7-9.2-2.2s-3.4-4-4.4-7.7
					l-8.6,1.2c0.8,3.7,2.1,6.6,3.9,8.9c1.8,2.3,4.4,4,7.8,5.2s7.3,1.8,11.8,1.8c4.4,0,8-0.5,10.8-1.6c2.8-1,4.8-2.4,6.1-3.9
					c1.3-1.6,2.2-3.6,2.7-6c0.3-1.5,0.4-4.2,0.4-8.1V21.7c0-8.2,0.2-13.3,0.6-15.5S397,2,398.1,0H389C388.1,1.8,387.6,4,387.3,6.4z
					 M386.6,26c-3.2-1.3-8-2.4-14.4-3.3c-3.6-0.5-6.2-1.1-7.7-1.8c-1.5-0.6-2.6-1.6-3.5-2.8c-0.8-1.2-1.2-2.6-1.2-4.2
					c0-2.3,0.9-4.3,2.7-5.9c1.8-1.6,4.4-2.3,7.8-2.3s6.4,0.7,9,2.2s4.6,3.5,5.8,6.1c0.9,2,1.4,4.9,1.4,8.8V26H386.6z"/>
			</g>
			<g>
				<path id="ArialMT-6e" class="st1" d="M409.1,0v51.9h7.9v-7.4c3.8,5.7,9.3,8.5,16.5,8.5c3.1,0,6-0.6,8.6-1.7s4.6-2.6,5.9-4.4
					c1.3-1.8,2.2-4,2.7-6.5c0.3-1.6,0.5-4.5,0.5-8.5V0h-8.8v31.5c0,3.6-0.3,6.3-1,8c-0.7,1.8-1.9,3.2-3.6,4.2
					c-1.7,1.1-3.8,1.6-6.1,1.6c-3.8,0-7-1.2-9.7-3.6s-4.1-6.9-4.1-13.5V0H409.1z"/>
			</g>
			<g>
				<path id="ArialMT-20_2_" class="st1" d="M458.1,0"/>
			</g>
			<g>
				<path id="ArialMT-52" class="st1" d="M493.7,0v71.6h31.7c6.4,0,11.2-0.6,14.5-1.9s6-3.6,8-6.8c2-3.2,3-6.8,3-10.8
					c0-5.1-1.6-9.4-4.9-12.8c-3.3-3.5-8.4-5.7-15.2-6.6c2.5-1.2,4.4-2.4,5.7-3.6c2.8-2.5,5.4-5.7,7.9-9.5L556.8,0h-11.9l-9.5,14.9
					c-2.8,4.3-5.1,7.6-6.8,9.9c-1.8,2.3-3.4,3.9-4.8,4.8c-1.4,0.9-2.9,1.6-4.3,1.9c-1.1,0.2-2.8,0.3-5.3,0.3h-11V0H493.7z M503.2,40
					h20.4c4.3,0,7.7,0.4,10.1,1.3c2.4,0.9,4.3,2.3,5.6,4.3s1.9,4.1,1.9,6.4c0,3.4-1.2,6.2-3.7,8.3c-2.5,2.2-6.3,3.3-11.7,3.3h-22.7
					V40H503.2z"/>
			</g>
			<g>
				<path id="ArialMT-54" class="st1" d="M582.3,0v63.1h-23.6v8.4h56.7v-8.4h-23.7V0H582.3z"/>
			</g>
			<g>
				<path id="ArialMT-20_3_" class="st1" d="M615.7,0"/>
			</g>
			<g>
				<path id="ArialMT-28" class="st1" d="M666.8-21c-4.9,6.1-9,13.3-12.3,21.5s-5,16.7-5,25.5c0,7.8,1.2,15.2,3.8,22.3
					c2.9,8.2,7.5,16.4,13.6,24.6h6.3c-3.9-6.8-6.5-11.6-7.8-14.5c-2-4.5-3.6-9.2-4.7-14.1c-1.4-6.1-2.1-12.2-2.1-18.4
					c0-15.7,4.9-31.3,14.6-46.9C673.2-21,666.8-21,666.8-21z"/>
			</g>
			<g>
				<path id="ArialMT-6d" class="st1" d="M683.3,0v51.9h7.9v-7.3c1.6,2.5,3.8,4.6,6.5,6.1c2.7,1.6,5.8,2.3,9.2,2.3
					c3.8,0,7-0.8,9.5-2.4c2.5-1.6,4.2-3.8,5.2-6.7c4.1,6.1,9.4,9.1,16,9.1c5.1,0,9.1-1.4,11.9-4.3c2.8-2.8,4.2-7.2,4.2-13.2V0h-8.8
					v32.7c0,3.5-0.3,6-0.9,7.6c-0.6,1.6-1.6,2.8-3.1,3.7s-3.2,1.4-5.3,1.4c-3.6,0-6.7-1.2-9.1-3.6c-2.4-2.4-3.6-6.3-3.6-11.6V0h-8.8
					v33.7c0,3.9-0.7,6.8-2.2,8.8c-1.4,2-3.8,2.9-7,2.9c-2.5,0-4.8-0.7-6.9-2c-2.1-1.3-3.6-3.2-4.6-5.7c-0.9-2.5-1.4-6.1-1.4-10.8V0
					H683.3z"/>
			</g>
			<g>
				<path id="ArialMT-73" class="st1" d="M763.1,15.5l8.7,1.4c0.5-3.5,1.8-6.1,4.1-8c2.2-1.9,5.3-2.8,9.4-2.8c4,0,7,0.8,9,2.5
					c2,1.6,2.9,3.6,2.9,5.8c0,2-0.9,3.5-2.6,4.7c-1.2,0.8-4.2,1.8-9,3c-6.4,1.6-10.9,3-13.4,4.2s-4.4,2.8-5.7,4.9s-1.9,4.4-1.9,7
					c0,2.3,0.5,4.4,1.6,6.4s2.5,3.6,4.3,4.9c1.4,1,3.2,1.8,5.6,2.5c2.4,0.7,4.9,1.1,7.6,1.1c4.1,0,7.6-0.6,10.7-1.8
					c3.1-1.2,5.4-2.8,6.8-4.8c1.5-2,2.5-4.7,3-8l-8.6-1.2c-0.4,2.7-1.5,4.7-3.4,6.2s-4.5,2.2-7.9,2.2c-4,0-6.9-0.7-8.6-2
					c-1.7-1.3-2.6-2.9-2.6-4.7c0-1.1,0.4-2.2,1.1-3.1c0.7-0.9,1.8-1.7,3.4-2.3c0.9-0.3,3.5-1.1,7.8-2.2c6.2-1.7,10.6-3,13-4.1
					c2.5-1.1,4.4-2.6,5.8-4.6c1.4-2,2.1-4.5,2.1-7.5c0-2.9-0.9-5.7-2.6-8.3c-1.7-2.6-4.2-4.6-7.4-6s-6.9-2.1-10.9-2.1
					c-6.7,0-11.9,1.4-15.4,4.2S764.1,10,763.1,15.5z"/>
			</g>
			<g>
				<path id="ArialMT-29" class="st1" d="M822.4-21h-6.3c9.7,15.6,14.6,31.3,14.6,46.9c0,6.1-0.7,12.2-2.1,18.2
					c-1.1,4.9-2.7,9.6-4.6,14.1c-1.3,2.9-3.9,7.8-7.9,14.6h6.3c6.1-8.2,10.6-16.4,13.6-24.6c2.5-7.1,3.8-14.5,3.8-22.3
					c0-8.8-1.7-17.3-5.1-25.5C831.3-7.8,827.2-14.9,822.4-21z"/>
			</g>
		</g>
	</g>
</g>
<g id="patch_3">
	<g>
		<g>
			<defs>
				<rect id="SVGID_1_" x="151.5" y="26" width="613.6" height="375.5"/>
			</defs>
			<clipPath id="SVGID_2_">
				<use xlink:href="#SVGID_1_"  style="overflow:visible;"/>
			</clipPath>
			<path class="st2" d="M182.2,777h122.7V275H182.2V777z"/>
		</g>
	</g>
</g>
<g id="patch_4">
	<g>
		<g>
			<defs>
				<rect id="SVGID_3_" x="151.5" y="26" width="613.6" height="375.5"/>
			</defs>
			<clipPath id="SVGID_4_">
				<use xlink:href="#SVGID_3_"  style="overflow:visible;"/>
			</clipPath>
			<path class="st3" d="M489,777h122.7V218.7H489V777z"/>
		</g>
	</g>
</g>
<g id="patch_5">
	<g>
		<g>
			<defs>
				<rect id="SVGID_5_" x="151.5" y="26" width="613.6" height="375.5"/>
			</defs>
			<clipPath id="SVGID_6_">
				<use xlink:href="#SVGID_5_"  style="overflow:visible;"/>
			</clipPath>
			<path class="st4" d="M304.9,777h122.7V122.1H304.9V777z"/>
		</g>
	</g>
</g>
<g id="patch_6">
	<g>
		<g>
			<defs>
				<rect id="SVGID_7_" x="151.5" y="26" width="613.6" height="375.5"/>
			</defs>
			<clipPath id="SVGID_8_">
				<use xlink:href="#SVGID_7_"  style="overflow:visible;"/>
			</clipPath>
			<path class="st5" d="M611.7,777h122.7V62.8H611.7V777z"/>
		</g>
	</g>
</g>
<g id="line2d_1">
	<g>
		<g>
			<defs>
				<rect id="SVGID_9_" x="151.5" y="26" width="613.6" height="375.5"/>
			</defs>
			<clipPath id="SVGID_10_">
				<use xlink:href="#SVGID_9_"  style="overflow:visible;"/>
			</clipPath>
			<path class="st6" d="M243.6,299.3v-51.8"/>
		</g>
	</g>
</g>
<g id="line2d_2">
	<g>
		<g>
			<defs>
				<rect id="SVGID_11_" x="151.5" y="26" width="613.6" height="375.5"/>
			</defs>
			<clipPath id="SVGID_12_">
				<use xlink:href="#SVGID_11_"  style="overflow:visible;"/>
			</clipPath>
			<path class="st7" d="M550.4,243.9V188"/>
		</g>
	</g>
</g>
<g id="line2d_3">
	<g>
		<g>
			<defs>
				<rect id="SVGID_13_" x="151.5" y="26" width="613.6" height="375.5"/>
			</defs>
			<clipPath id="SVGID_14_">
				<use xlink:href="#SVGID_13_"  style="overflow:visible;"/>
			</clipPath>
			<path class="st8" d="M366.3,155.9v-70"/>
		</g>
	</g>
</g>
<g id="line2d_4">
	<g>
		<g>
			<defs>
				<rect id="SVGID_15_" x="151.5" y="26" width="613.6" height="375.5"/>
			</defs>
			<clipPath id="SVGID_16_">
				<use xlink:href="#SVGID_15_"  style="overflow:visible;"/>
			</clipPath>
			<path class="st9" d="M673.1,98.4V30.1"/>
		</g>
	</g>
</g>
<g id="patch_7">
	<path class="st10" d="M151.5,401.5V26"/>
</g>
<g id="patch_8">
	<path class="st10" d="M151.5,401.5h613.6"/>
</g>
<g id="text_8">
	<g transform="translate(90.141051 125.014751)scale(0.6 -0.6)">
		<g>
			<path id="ArialMT-41" class="st1" d="M-136.5,129.3l27.5,71.6h10.2l29.3-71.6h-10.8l-8.4,21.7h-29.9l-7.9-21.7
				C-126.5,129.3-136.5,129.3-136.5,129.3z M-115.9,158.7h24.3l-7.5,19.8c-2.3,6-4,11-5.1,14.8c-0.9-4.6-2.2-9.2-3.9-13.7
				L-115.9,158.7z"/>
		</g>
	</g>
</g>
<g id="legend_1">
	<g id="patch_9">
		<path class="st11" d="M178.5,74.5h60v-21h-60V74.5z"/>
	</g>
	<g id="text_9">
		<g transform="translate(262.504688 168.087748)scale(0.3 -0.3)">
			<g>
				<path id="ArialMT-43" class="st1" d="M58.8,337l9.5-2.4c-2-7.8-5.6-13.7-10.7-17.8c-5.2-4.1-11.5-6.1-18.9-6.1
					c-7.7,0-14,1.6-18.8,4.7s-8.5,7.7-11,13.7C6.2,335,5,341.4,5,348.2c0,7.5,1.4,14,4.3,19.5c2.9,5.6,6.9,9.8,12.2,12.6
					c5.3,2.9,11,4.3,17.4,4.3c7.2,0,13.2-1.8,18.1-5.5c4.9-3.6,8.3-8.8,10.2-15.4l-9.3-2.2c-1.7,5.2-4.1,9-7.2,11.4
					c-3.2,2.4-7.1,3.6-11.9,3.6c-5.5,0-10.1-1.3-13.8-4c-3.7-2.6-6.3-6.2-7.8-10.6s-2.2-9-2.2-13.7c0-6.1,0.9-11.4,2.7-15.9
					s4.5-7.9,8.3-10.2c3.8-2.2,7.8-3.4,12.2-3.4c5.3,0,9.8,1.5,13.5,4.6C55,326.4,57.5,331,58.8,337z"/>
			</g>
			<g>
				<path id="ArialMT-4f" class="st1" d="M77,346.8c0,11.9,3.2,21.2,9.6,27.9c6.4,6.7,14.6,10.1,24.7,10.1c6.6,0,12.6-1.6,17.9-4.8
					c5.3-3.2,9.3-7.6,12.1-13.2s4.2-12.1,4.2-19.2c0-7.2-1.5-13.7-4.4-19.5c-2.9-5.7-7.1-10.1-12.5-13s-11.2-4.4-17.4-4.4
					c-6.7,0-12.8,1.6-18.1,4.9c-5.3,3.3-9.3,7.7-12.1,13.3C78.4,334.5,77,340.5,77,346.8z M86.8,346.6c0-8.6,2.3-15.4,7-20.4
					c4.6-5,10.5-7.4,17.5-7.4c7.1,0,13,2.5,17.6,7.5c4.6,5,6.9,12.1,6.9,21.3c0,5.8-1,10.9-3,15.2s-4.9,7.7-8.7,10.1
					c-3.8,2.4-8,3.6-12.8,3.6c-6.7,0-12.5-2.3-17.3-6.9C89.2,365.1,86.8,357.4,86.8,346.6z"/>
			</g>
		</g>
	</g>
	<g id="patch_10">
		<path class="st12" d="M178.5,117h60V96h-60V117z"/>
	</g>
	<g id="text_10">
		<g transform="translate(262.504688 210.523685)scale(0.3 -0.3)">
			<g>
				<path id="ArialMT-43_1_" class="st1" d="M58.8,337l9.5-2.4c-2-7.8-5.6-13.7-10.7-17.8c-5.2-4.1-11.5-6.1-18.9-6.1
					c-7.7,0-14,1.6-18.8,4.7s-8.5,7.7-11,13.7C6.2,335,5,341.4,5,348.2c0,7.5,1.4,14,4.3,19.5c2.9,5.6,6.9,9.8,12.2,12.6
					c5.3,2.9,11,4.3,17.4,4.3c7.2,0,13.2-1.8,18.1-5.5c4.9-3.6,8.3-8.8,10.2-15.4l-9.3-2.2c-1.7,5.2-4.1,9-7.2,11.4
					c-3.2,2.4-7.1,3.6-11.9,3.6c-5.5,0-10.1-1.3-13.8-4c-3.7-2.6-6.3-6.2-7.8-10.6s-2.2-9-2.2-13.7c0-6.1,0.9-11.4,2.7-15.9
					s4.5-7.9,8.3-10.2c3.8-2.2,7.8-3.4,12.2-3.4c5.3,0,9.8,1.5,13.5,4.6C55,326.4,57.5,331,58.8,337z"/>
			</g>
			<g>
				<path id="ArialMT-44" class="st1" d="M79.9,311.9v71.6h24.7c5.6,0,9.8-0.3,12.8-1c4.1-0.9,7.6-2.7,10.5-5.1
					c3.8-3.2,6.6-7.3,8.5-12.2c1.9-5,2.8-10.6,2.8-17c0-5.4-0.6-10.3-1.9-14.5c-1.3-4.2-2.9-7.7-4.9-10.4c-2-2.8-4.2-4.9-6.5-6.5
					c-2.4-1.6-5.2-2.8-8.5-3.6c-3.3-0.8-7.2-1.2-11.5-1.2L79.9,311.9L79.9,311.9z M89.4,320.4h15.3c4.7,0,8.4,0.4,11.1,1.3
					s4.8,2.1,6.4,3.7c2.2,2.2,4,5.3,5.2,9c1.2,3.8,1.9,8.4,1.9,13.8c0,7.5-1.2,13.2-3.7,17.3c-2.5,4-5.4,6.7-9,8.1
					c-2.5,1-6.6,1.5-12.2,1.5h-15C89.4,375.1,89.4,320.4,89.4,320.4z"/>
			</g>
		</g>
	</g>
</g>
<g id="patch_11">
	<path class="st0" d="M151.5,889.6h613.6V514.1H151.5V889.6z"/>
</g>
<g id="text_13">
	<g transform="translate(399.963494 1065.073717)scale(0.45 -0.45)">
		<g>
			<path id="ArialMT-43_4_" class="st1" d="M58.8,233l9.5-2.4c-2-7.8-5.6-13.7-10.7-17.8c-5.2-4.1-11.5-6.1-18.9-6.1
				c-7.7,0-14,1.6-18.8,4.7c-4.8,3.1-8.5,7.7-11,13.7C6.2,231,5,237.4,5,244.3c0,7.5,1.4,14,4.3,19.5c2.9,5.6,6.9,9.8,12.2,12.6
				c5.3,2.9,11,4.3,17.4,4.3c7.2,0,13.2-1.8,18.1-5.5c4.9-3.6,8.3-8.8,10.2-15.4l-9.3-2.2c-1.7,5.2-4.1,9-7.2,11.4
				c-3.2,2.4-7.1,3.6-11.9,3.6c-5.5,0-10.1-1.3-13.8-4c-3.7-2.6-6.3-6.2-7.8-10.6c-1.5-4.4-2.2-9-2.2-13.7c0-6.1,0.9-11.4,2.7-15.9
				s4.5-7.9,8.3-10.2c3.8-2.2,7.8-3.4,12.2-3.4c5.3,0,9.8,1.5,13.5,4.6C55,222.5,57.5,227,58.8,233z"/>
		</g>
		<g>
			<path id="ArialMT-6f_7_" class="st1" d="M75.5,233.9c0,9.6,2.7,16.7,8,21.3c4.5,3.8,9.9,5.8,16.3,5.8c7.1,0,12.9-2.3,17.5-7
				c4.5-4.7,6.8-11.1,6.8-19.4c0-6.7-1-11.9-3-15.8c-2-3.8-4.9-6.8-8.8-8.9c-3.8-2.1-8-3.2-12.5-3.2c-7.3,0-13.1,2.3-17.6,7
				C77.8,218.4,75.5,225.1,75.5,233.9z M84.6,233.9c0-6.6,1.4-11.6,4.3-14.9c2.9-3.3,6.5-5,10.9-5s8,1.7,10.9,5s4.3,8.4,4.3,15.2
				c0,6.4-1.5,11.3-4.4,14.6c-2.9,3.3-6.5,5-10.9,5s-8-1.6-10.9-4.9C86,245.5,84.6,240.5,84.6,233.9z"/>
		</g>
		<g>
			<path id="ArialMT-52_3_" class="st1" d="M135.7,207.9v71.6h31.7c6.4,0,11.2-0.6,14.5-1.9s6-3.6,8-6.8c2-3.2,3-6.8,3-10.8
				c0-5.1-1.6-9.4-4.9-12.8c-3.3-3.5-8.4-5.7-15.2-6.6c2.5-1.2,4.4-2.4,5.7-3.6c2.8-2.5,5.4-5.7,7.9-9.5l12.5-19.5H187l-9.5,14.9
				c-2.8,4.3-5.1,7.6-6.8,9.9c-1.8,2.3-3.4,3.9-4.8,4.8c-1.4,0.9-2.9,1.6-4.3,1.9c-1.1,0.2-2.8,0.3-5.3,0.3h-11V208h-9.6V207.9z
				 M145.2,247.9h20.4c4.3,0,7.7,0.4,10.1,1.3c2.4,0.9,4.3,2.3,5.6,4.3s1.9,4.1,1.9,6.4c0,3.4-1.2,6.2-3.7,8.3
				c-2.5,2.2-6.3,3.3-11.7,3.3h-22.7L145.2,247.9L145.2,247.9z"/>
		</g>
		<g>
			<path id="ArialMT-54_3_" class="st1" d="M224.2,207.9V271h-23.6v8.4h56.7V271h-23.7v-63.1H224.2z"/>
		</g>
	</g>
</g>
<g id="matplotlib.axis_4">
	<g id="ytick_4">
		<g id="text_14">
			<g transform="translate(75.673438 922.405066)scale(0.4 -0.4)">
				<g>
					<path id="ArialMT-36_1_" class="st1" d="M49.8,288l-8.7-0.7c-0.8,3.4-1.9,6-3.3,7.5c-2.4,2.5-5.3,3.8-8.8,3.8
						c-2.8,0-5.3-0.8-7.4-2.3c-2.8-2-4.9-5-6.5-8.8c-1.6-3.9-2.4-9.4-2.5-16.5c2.1,3.2,4.7,5.6,7.8,7.2s6.3,2.3,9.6,2.3
						c5.9,0,10.8-2.2,15-6.5c4.1-4.3,6.2-9.9,6.2-16.7c0-4.5-1-8.7-2.9-12.5c-1.9-3.9-4.6-6.8-8-8.9c-3.4-2.1-7.2-3.1-11.5-3.1
						c-7.3,0-13.3,2.7-17.9,8.1C6.3,246.3,4,255.2,4,267.5c0,13.8,2.6,23.9,7.7,30.2c4.5,5.5,10.5,8.2,18,8.2
						c5.6,0,10.2-1.6,13.8-4.7C46.9,297.9,49,293.6,49.8,288z M13.9,257.1c0-3,0.6-5.9,1.9-8.7s3.1-4.9,5.4-6.3
						c2.3-1.4,4.7-2.2,7.3-2.2c3.7,0,6.9,1.5,9.6,4.5c2.7,3,4,7.1,4,12.2c0,4.9-1.3,8.8-4,11.7c-2.6,2.9-6,4.3-10,4.3
						s-7.3-1.4-10.1-4.3C15.3,265.5,13.9,261.7,13.9,257.1z"/>
				</g>
				<g>
					<path id="ArialMT-30_7_" class="st1" d="M59.8,269.2c0,8.5,0.9,15.3,2.6,20.4c1.7,5.2,4.3,9.1,7.8,11.9c3.4,2.8,7.8,4.2,13,4.2
						c3.8,0,7.2-0.8,10.1-2.3s5.3-3.8,7.2-6.7c1.9-2.9,3.4-6.5,4.5-10.6c1.1-4.2,1.6-9.8,1.6-16.9c0-8.4-0.9-15.2-2.6-20.3
						c-1.7-5.2-4.3-9.1-7.7-12c-3.4-2.8-7.8-4.2-13-4.2c-6.9,0-12.3,2.5-16.2,7.4C62.1,246.1,59.8,255.8,59.8,269.2z M68.8,269.2
						c0-11.8,1.4-19.6,4.1-23.5c2.8-3.9,6.1-5.8,10.2-5.8c4,0,7.4,2,10.2,5.9s4.1,11.7,4.1,23.4c0,11.8-1.4,19.6-4.1,23.5
						c-2.8,3.9-6.2,5.8-10.3,5.8c-4,0-7.3-1.7-9.7-5.1C70.3,289,68.8,281,68.8,269.2z"/>
				</g>
				<g>
					<path id="ArialMT-30_8_" class="st1" d="M115.4,269.2c0,8.5,0.9,15.3,2.6,20.4c1.7,5.2,4.3,9.1,7.8,11.9
						c3.4,2.8,7.8,4.2,13,4.2c3.8,0,7.2-0.8,10.1-2.3c2.9-1.5,5.3-3.8,7.2-6.7c1.9-2.9,3.4-6.5,4.5-10.6c1.1-4.2,1.6-9.8,1.6-16.9
						c0-8.4-0.9-15.2-2.6-20.3c-1.7-5.2-4.3-9.1-7.7-12c-3.4-2.8-7.8-4.2-13-4.2c-6.9,0-12.3,2.5-16.2,7.4
						C117.7,246.1,115.4,255.8,115.4,269.2z M124.4,269.2c0-11.8,1.4-19.6,4.1-23.5c2.8-3.9,6.1-5.8,10.2-5.8c4,0,7.4,2,10.2,5.9
						s4.1,11.7,4.1,23.4c0,11.8-1.4,19.6-4.1,23.5c-2.8,3.9-6.2,5.8-10.3,5.8c-4,0-7.3-1.7-9.7-5.1C125.9,289,124.4,281,124.4,269.2
						z"/>
				</g>
			</g>
		</g>
	</g>
	<g id="ytick_5">
		<g id="text_15">
			<g transform="translate(75.673438 772.219327)scale(0.4 -0.4)">
				<g>
					<path id="ArialMT-38_1_" class="st1" d="M17.7,272.7c-3.6,1.3-6.3,3.2-8.1,5.7S7,283.8,7,287.3c0,5.2,1.9,9.6,5.6,13.1
						c3.8,3.6,8.7,5.3,14.9,5.3s11.3-1.8,15.1-5.5c3.8-3.6,5.7-8,5.7-13.2c0-3.3-0.9-6.2-2.6-8.7c-1.7-2.4-4.4-4.3-7.9-5.7
						c4.4-1.4,7.7-3.7,10-6.9c2.3-3.2,3.4-7,3.4-11.4c0-6.1-2.2-11.3-6.5-15.4c-4.3-4.2-10-6.2-17.1-6.2s-12.8,2.1-17.1,6.3
						S4,248.4,4,254.7c0,4.7,1.2,8.6,3.5,11.7C10,269.5,13.3,271.6,17.7,272.7z M15.9,287.6c0-3.4,1.1-6.2,3.3-8.3
						c2.2-2.1,5-3.2,8.5-3.2c3.4,0,6.2,1.1,8.3,3.2c2.2,2.1,3.2,4.8,3.2,7.8c0,3.2-1.1,5.9-3.4,8.1c-2.2,2.2-5,3.3-8.3,3.3
						c-3.4,0-6.1-1.1-8.4-3.2C17,293.2,15.9,290.6,15.9,287.6z M13.1,254.6c0-2.5,0.6-4.9,1.8-7.3s3-4.2,5.3-5.5s4.9-1.9,7.6-1.9
						c4.2,0,7.7,1.3,10.4,4s4.1,6.1,4.1,10.3c0,4.2-1.4,7.7-4.2,10.5s-6.3,4.2-10.6,4.2c-4.1,0-7.6-1.4-10.3-4.1
						C14.4,262.1,13.1,258.7,13.1,254.6z"/>
				</g>
				<g>
					<path id="ArialMT-30_9_" class="st1" d="M59.8,269.2c0,8.5,0.9,15.3,2.6,20.4c1.7,5.2,4.3,9.1,7.8,11.9c3.4,2.8,7.8,4.2,13,4.2
						c3.8,0,7.2-0.8,10.1-2.3s5.3-3.8,7.2-6.7c1.9-2.9,3.4-6.5,4.5-10.6c1.1-4.2,1.6-9.8,1.6-16.9c0-8.4-0.9-15.2-2.6-20.3
						c-1.7-5.2-4.3-9.1-7.7-12c-3.4-2.8-7.8-4.2-13-4.2c-6.9,0-12.3,2.5-16.2,7.4C62.1,246.1,59.8,255.8,59.8,269.2z M68.8,269.2
						c0-11.8,1.4-19.6,4.1-23.5c2.8-3.9,6.1-5.8,10.2-5.8c4,0,7.4,2,10.2,5.9s4.1,11.7,4.1,23.4c0,11.8-1.4,19.6-4.1,23.5
						c-2.8,3.9-6.2,5.8-10.3,5.8c-4,0-7.3-1.7-9.7-5.1C70.3,289,68.8,281,68.8,269.2z"/>
				</g>
				<g>
					<path id="ArialMT-30_10_" class="st1" d="M115.4,269.2c0,8.5,0.9,15.3,2.6,20.4c1.7,5.2,4.3,9.1,7.8,11.9
						c3.4,2.8,7.8,4.2,13,4.2c3.8,0,7.2-0.8,10.1-2.3c2.9-1.5,5.3-3.8,7.2-6.7c1.9-2.9,3.4-6.5,4.5-10.6c1.1-4.2,1.6-9.8,1.6-16.9
						c0-8.4-0.9-15.2-2.6-20.3c-1.7-5.2-4.3-9.1-7.7-12c-3.4-2.8-7.8-4.2-13-4.2c-6.9,0-12.3,2.5-16.2,7.4
						C117.7,246.1,115.4,255.8,115.4,269.2z M124.4,269.2c0-11.8,1.4-19.6,4.1-23.5c2.8-3.9,6.1-5.8,10.2-5.8c4,0,7.4,2,10.2,5.9
						s4.1,11.7,4.1,23.4c0,11.8-1.4,19.6-4.1,23.5c-2.8,3.9-6.2,5.8-10.3,5.8c-4,0-7.3-1.7-9.7-5.1C125.9,289,124.4,281,124.4,269.2
						z"/>
				</g>
			</g>
		</g>
	</g>
	<g id="ytick_6">
		<g id="text_16">
			<g transform="translate(53.429688 622.033588)scale(0.4 -0.4)">
				<g>
					<path id="ArialMT-31_1_" class="st1" d="M37.2,233.9h-8.8v56c-2.1-2-4.9-4-8.3-6s-6.5-3.5-9.3-4.5v8.5
						c4.9,2.3,9.2,5.1,12.9,8.4s6.3,6.5,7.8,9.6h5.7V233.9z"/>
				</g>
				<g>
					<path id="ArialMT-30_11_" class="st1" d="M59.8,269.2c0,8.5,0.9,15.3,2.6,20.4c1.7,5.2,4.3,9.1,7.8,11.9
						c3.4,2.8,7.8,4.2,13,4.2c3.8,0,7.2-0.8,10.1-2.3s5.3-3.8,7.2-6.7c1.9-2.9,3.4-6.5,4.5-10.6c1.1-4.2,1.6-9.8,1.6-16.9
						c0-8.4-0.9-15.2-2.6-20.3c-1.7-5.2-4.3-9.1-7.7-12c-3.4-2.8-7.8-4.2-13-4.2c-6.9,0-12.3,2.5-16.2,7.4
						C62.1,246.1,59.8,255.8,59.8,269.2z M68.8,269.2c0-11.8,1.4-19.6,4.1-23.5c2.8-3.9,6.1-5.8,10.2-5.8c4,0,7.4,2,10.2,5.9
						s4.1,11.7,4.1,23.4c0,11.8-1.4,19.6-4.1,23.5c-2.8,3.9-6.2,5.8-10.3,5.8c-4,0-7.3-1.7-9.7-5.1C70.3,289,68.8,281,68.8,269.2z"
						/>
				</g>
				<g>
					<path id="ArialMT-30_12_" class="st1" d="M115.4,269.2c0,8.5,0.9,15.3,2.6,20.4c1.7,5.2,4.3,9.1,7.8,11.9
						c3.4,2.8,7.8,4.2,13,4.2c3.8,0,7.2-0.8,10.1-2.3c2.9-1.5,5.3-3.8,7.2-6.7c1.9-2.9,3.4-6.5,4.5-10.6c1.1-4.2,1.6-9.8,1.6-16.9
						c0-8.4-0.9-15.2-2.6-20.3c-1.7-5.2-4.3-9.1-7.7-12c-3.4-2.8-7.8-4.2-13-4.2c-6.9,0-12.3,2.5-16.2,7.4
						C117.7,246.1,115.4,255.8,115.4,269.2z M124.4,269.2c0-11.8,1.4-19.6,4.1-23.5c2.8-3.9,6.1-5.8,10.2-5.8c4,0,7.4,2,10.2,5.9
						s4.1,11.7,4.1,23.4c0,11.8-1.4,19.6-4.1,23.5c-2.8,3.9-6.2,5.8-10.3,5.8c-4,0-7.3-1.7-9.7-5.1C125.9,289,124.4,281,124.4,269.2
						z"/>
				</g>
				<g>
					<path id="ArialMT-30_13_" class="st1" d="M171,269.2c0,8.5,0.9,15.3,2.6,20.4c1.7,5.2,4.3,9.1,7.8,11.9c3.4,2.8,7.8,4.2,13,4.2
						c3.8,0,7.2-0.8,10.1-2.3c2.9-1.5,5.3-3.8,7.2-6.7c1.9-2.9,3.4-6.5,4.5-10.6c1.1-4.2,1.6-9.8,1.6-16.9c0-8.4-0.9-15.2-2.6-20.3
						c-1.7-5.2-4.3-9.1-7.7-12c-3.4-2.8-7.8-4.2-13-4.2c-6.9,0-12.3,2.5-16.2,7.4C173.4,246.1,171,255.8,171,269.2z M180,269.2
						c0-11.8,1.4-19.6,4.1-23.5c2.8-3.9,6.1-5.8,10.2-5.8c4,0,7.4,2,10.2,5.9s4.1,11.7,4.1,23.4c0,11.8-1.4,19.6-4.1,23.5
						c-2.8,3.9-6.2,5.8-10.3,5.8c-4,0-7.3-1.7-9.7-5.1C181.5,289,180,281,180,269.2z"/>
				</g>
			</g>
		</g>
	</g>
	<g id="text_17">
		<g transform="translate(39.958594 938.409512)rotate(-90)scale(0.45 -0.45)">
			<g>
				<path id="ArialMT-4d_1_" class="st1" d="M215.4,0v71.6h14.3l16.9-50.7c1.6-4.7,2.7-8.3,3.4-10.6c0.8,2.6,2.1,6.4,3.8,11.5
					l17.1,49.8h12.8V0h-9.1v59.9L253.7,0h-8.5l-20.7,60.9V0H215.4z"/>
			</g>
			<g>
				<path id="ArialMT-65_4_" class="st1" d="M333.3,16.7l9.1-1.1c-1.4-5.3-4.1-9.4-8-12.4c-3.9-2.9-8.8-4.4-14.8-4.4
					c-7.6,0-13.6,2.3-18,7s-6.7,11.2-6.7,19.7c0,8.7,2.2,15.5,6.7,20.3c4.5,4.8,10.3,7.2,17.5,7.2c6.9,0,12.6-2.4,17-7.1
					c4.4-4.7,6.6-11.4,6.6-19.9c0-0.5,0-1.3,0-2.3H304c0.3-5.7,1.9-10.1,4.8-13.1s6.5-4.5,10.8-4.5c3.2,0,6,0.8,8.2,2.5
					C330.2,10.3,332,13,333.3,16.7z M304.5,30.9h29c-0.4,4.4-1.5,7.6-3.3,9.8c-2.8,3.4-6.4,5.1-10.9,5.1c-4,0-7.4-1.3-10.2-4
					S304.8,35.4,304.5,30.9z"/>
			</g>
			<g>
				<path id="ArialMT-61_1_" class="st1" d="M387.3,6.4c-3.3-2.8-6.4-4.7-9.4-5.9c-3-1.1-6.2-1.7-9.7-1.7c-5.7,0-10.1,1.4-13.1,4.2
					s-4.6,6.3-4.6,10.7c0,2.5,0.6,4.9,1.7,7c1.2,2.1,2.7,3.8,4.5,5.1s4,2.2,6.3,2.9c1.7,0.5,4.3,0.9,7.8,1.3
					c7.1,0.8,12.3,1.8,15.7,3c0,1.2,0,2,0,2.3c0,3.6-0.8,6.1-2.5,7.6c-2.2,2-5.6,3-10,3c-4.1,0-7.2-0.7-9.2-2.2s-3.4-4-4.4-7.7
					l-8.6,1.2c0.8,3.7,2.1,6.6,3.9,8.9c1.8,2.3,4.4,4,7.8,5.2s7.3,1.8,11.8,1.8c4.4,0,8-0.5,10.8-1.6c2.8-1,4.8-2.4,6.1-3.9
					c1.3-1.6,2.2-3.6,2.7-6c0.3-1.5,0.4-4.2,0.4-8.1V21.7c0-8.2,0.2-13.3,0.6-15.5S397,2,398.1,0H389C388.1,1.8,387.6,4,387.3,6.4z
					 M386.6,26c-3.2-1.3-8-2.4-14.4-3.3c-3.6-0.5-6.2-1.1-7.7-1.8c-1.5-0.6-2.6-1.6-3.5-2.8c-0.8-1.2-1.2-2.6-1.2-4.2
					c0-2.3,0.9-4.3,2.7-5.9c1.8-1.6,4.4-2.3,7.8-2.3s6.4,0.7,9,2.2s4.6,3.5,5.8,6.1c0.9,2,1.4,4.9,1.4,8.8V26H386.6z"/>
			</g>
			<g>
				<path id="ArialMT-6e_3_" class="st1" d="M409.1,0v51.9h7.9v-7.4c3.8,5.7,9.3,8.5,16.5,8.5c3.1,0,6-0.6,8.6-1.7s4.6-2.6,5.9-4.4
					c1.3-1.8,2.2-4,2.7-6.5c0.3-1.6,0.5-4.5,0.5-8.5V0h-8.8v31.5c0,3.6-0.3,6.3-1,8c-0.7,1.8-1.9,3.2-3.6,4.2
					c-1.7,1.1-3.8,1.6-6.1,1.6c-3.8,0-7-1.2-9.7-3.6s-4.1-6.9-4.1-13.5V0H409.1z"/>
			</g>
			<g>
				<path id="ArialMT-20_4_" class="st1" d="M458.1,0"/>
			</g>
			<g>
				<path id="ArialMT-52_4_" class="st1" d="M493.7,0v71.6h31.7c6.4,0,11.2-0.6,14.5-1.9s6-3.6,8-6.8c2-3.2,3-6.8,3-10.8
					c0-5.1-1.6-9.4-4.9-12.8c-3.3-3.5-8.4-5.7-15.2-6.6c2.5-1.2,4.4-2.4,5.7-3.6c2.8-2.5,5.4-5.7,7.9-9.5L556.8,0h-11.9l-9.5,14.9
					c-2.8,4.3-5.1,7.6-6.8,9.9c-1.8,2.3-3.4,3.9-4.8,4.8c-1.4,0.9-2.9,1.6-4.3,1.9c-1.1,0.2-2.8,0.3-5.3,0.3h-11V0H493.7z M503.2,40
					h20.4c4.3,0,7.7,0.4,10.1,1.3c2.4,0.9,4.3,2.3,5.6,4.3s1.9,4.1,1.9,6.4c0,3.4-1.2,6.2-3.7,8.3c-2.5,2.2-6.3,3.3-11.7,3.3h-22.7
					V40H503.2z"/>
			</g>
			<g>
				<path id="ArialMT-54_4_" class="st1" d="M582.3,0v63.1h-23.6v8.4h56.7v-8.4h-23.7V0H582.3z"/>
			</g>
			<g>
				<path id="ArialMT-20_5_" class="st1" d="M615.7,0"/>
			</g>
			<g>
				<path id="ArialMT-28_1_" class="st1" d="M666.8-21c-4.9,6.1-9,13.3-12.3,21.5s-5,16.7-5,25.5c0,7.8,1.2,15.2,3.8,22.3
					c2.9,8.2,7.5,16.4,13.6,24.6h6.3c-3.9-6.8-6.5-11.6-7.8-14.5c-2-4.5-3.6-9.2-4.7-14.1c-1.4-6.1-2.1-12.2-2.1-18.4
					c0-15.7,4.9-31.3,14.6-46.9C673.2-21,666.8-21,666.8-21z"/>
			</g>
			<g>
				<path id="ArialMT-6d_1_" class="st1" d="M683.3,0v51.9h7.9v-7.3c1.6,2.5,3.8,4.6,6.5,6.1c2.7,1.6,5.8,2.3,9.2,2.3
					c3.8,0,7-0.8,9.5-2.4c2.5-1.6,4.2-3.8,5.2-6.7c4.1,6.1,9.4,9.1,16,9.1c5.1,0,9.1-1.4,11.9-4.3c2.8-2.8,4.2-7.2,4.2-13.2V0h-8.8
					v32.7c0,3.5-0.3,6-0.9,7.6c-0.6,1.6-1.6,2.8-3.1,3.7s-3.2,1.4-5.3,1.4c-3.6,0-6.7-1.2-9.1-3.6c-2.4-2.4-3.6-6.3-3.6-11.6V0h-8.8
					v33.7c0,3.9-0.7,6.8-2.2,8.8c-1.4,2-3.8,2.9-7,2.9c-2.5,0-4.8-0.7-6.9-2c-2.1-1.3-3.6-3.2-4.6-5.7c-0.9-2.5-1.4-6.1-1.4-10.8V0
					H683.3z"/>
			</g>
			<g>
				<path id="ArialMT-73_1_" class="st1" d="M763.1,15.5l8.7,1.4c0.5-3.5,1.8-6.1,4.1-8c2.2-1.9,5.3-2.8,9.4-2.8c4,0,7,0.8,9,2.5
					c2,1.6,2.9,3.6,2.9,5.8c0,2-0.9,3.5-2.6,4.7c-1.2,0.8-4.2,1.8-9,3c-6.4,1.6-10.9,3-13.4,4.2s-4.4,2.8-5.7,4.9s-1.9,4.4-1.9,7
					c0,2.3,0.5,4.4,1.6,6.4s2.5,3.6,4.3,4.9c1.4,1,3.2,1.8,5.6,2.5c2.4,0.7,4.9,1.1,7.6,1.1c4.1,0,7.6-0.6,10.7-1.8
					c3.1-1.2,5.4-2.8,6.8-4.8c1.5-2,2.5-4.7,3-8l-8.6-1.2c-0.4,2.7-1.5,4.7-3.4,6.2s-4.5,2.2-7.9,2.2c-4,0-6.9-0.7-8.6-2
					c-1.7-1.3-2.6-2.9-2.6-4.7c0-1.1,0.4-2.2,1.1-3.1c0.7-0.9,1.8-1.7,3.4-2.3c0.9-0.3,3.5-1.1,7.8-2.2c6.2-1.7,10.6-3,13-4.1
					c2.5-1.1,4.4-2.6,5.8-4.6c1.4-2,2.1-4.5,2.1-7.5c0-2.9-0.9-5.7-2.6-8.3c-1.7-2.6-4.2-4.6-7.4-6s-6.9-2.1-10.9-2.1
					c-6.7,0-11.9,1.4-15.4,4.2S764.1,10,763.1,15.5z"/>
			</g>
			<g>
				<path id="ArialMT-29_1_" class="st1" d="M822.4-21h-6.3c9.7,15.6,14.6,31.3,14.6,46.9c0,6.1-0.7,12.2-2.1,18.2
					c-1.1,4.9-2.7,9.6-4.6,14.1c-1.3,2.9-3.9,7.8-7.9,14.6h6.3c6.1-8.2,10.6-16.4,13.6-24.6c2.5-7.1,3.8-14.5,3.8-22.3
					c0-8.8-1.7-17.3-5.1-25.5C831.3-7.8,827.2-14.9,822.4-21z"/>
			</g>
		</g>
	</g>
</g>
<g id="patch_12">
	<g>
		<g>
			<defs>
				<rect id="SVGID_17_" x="151.5" y="514.1" width="613.6" height="375.5"/>
			</defs>
			<clipPath id="SVGID_18_">
				<use xlink:href="#SVGID_17_"  style="overflow:visible;"/>
			</clipPath>
			<path class="st13" d="M182.2,1265.1h122.7V734H182.2V1265.1z"/>
		</g>
	</g>
</g>
<g id="patch_13">
	<g>
		<g>
			<defs>
				<rect id="SVGID_19_" x="151.5" y="514.1" width="613.6" height="375.5"/>
			</defs>
			<clipPath id="SVGID_20_">
				<use xlink:href="#SVGID_19_"  style="overflow:visible;"/>
			</clipPath>
			<path class="st14" d="M489,1265.1h122.7V735.9H489V1265.1z"/>
		</g>
	</g>
</g>
<g id="patch_14">
	<g>
		<g>
			<defs>
				<rect id="SVGID_21_" x="151.5" y="514.1" width="613.6" height="375.5"/>
			</defs>
			<clipPath id="SVGID_22_">
				<use xlink:href="#SVGID_21_"  style="overflow:visible;"/>
			</clipPath>
			<path class="st15" d="M304.9,1265.1h122.7v-681H304.9V1265.1z"/>
		</g>
	</g>
</g>
<g id="patch_15">
	<g>
		<g>
			<defs>
				<rect id="SVGID_23_" x="151.5" y="514.1" width="613.6" height="375.5"/>
			</defs>
			<clipPath id="SVGID_24_">
				<use xlink:href="#SVGID_23_"  style="overflow:visible;"/>
			</clipPath>
			<path class="st16" d="M611.7,1265.1h122.7V577H611.7V1265.1z"/>
		</g>
	</g>
</g>
<g id="line2d_5">
	<g>
		<g>
			<defs>
				<rect id="SVGID_25_" x="151.5" y="514.1" width="613.6" height="375.5"/>
			</defs>
			<clipPath id="SVGID_26_">
				<use xlink:href="#SVGID_25_"  style="overflow:visible;"/>
			</clipPath>
			<path class="st17" d="M243.6,762.2v-56.9"/>
		</g>
	</g>
</g>
<g id="line2d_6">
	<g>
		<g>
			<defs>
				<rect id="SVGID_27_" x="151.5" y="514.1" width="613.6" height="375.5"/>
			</defs>
			<clipPath id="SVGID_28_">
				<use xlink:href="#SVGID_27_"  style="overflow:visible;"/>
			</clipPath>
			<path class="st18" d="M550.4,765.7v-61"/>
		</g>
	</g>
</g>
<g id="line2d_7">
	<g>
		<g>
			<defs>
				<rect id="SVGID_29_" x="151.5" y="514.1" width="613.6" height="375.5"/>
			</defs>
			<clipPath id="SVGID_30_">
				<use xlink:href="#SVGID_29_"  style="overflow:visible;"/>
			</clipPath>
			<path class="st19" d="M366.3,620.4v-68.2"/>
		</g>
	</g>
</g>
<g id="line2d_8">
	<g>
		<g>
			<defs>
				<rect id="SVGID_31_" x="151.5" y="514.1" width="613.6" height="375.5"/>
			</defs>
			<clipPath id="SVGID_32_">
				<use xlink:href="#SVGID_31_"  style="overflow:visible;"/>
			</clipPath>
			<path class="st20" d="M673.1,611.9V538"/>
		</g>
	</g>
</g>
<g id="patch_16">
	<path class="st10" d="M151.5,889.6V514.1"/>
</g>
<g id="patch_17">
	<path class="st10" d="M151.5,889.6h613.6"/>
</g>
<g id="text_18">
	<g transform="translate(90.141051 613.118403)scale(0.6 -0.6)">
		<g>
			<path id="ArialMT-42" class="st1" d="M1152.5,939.6v71.6h26.9c5.5,0,9.9-0.7,13.2-2.2c3.3-1.4,5.9-3.7,7.8-6.7
				c1.9-3,2.8-6.2,2.8-9.5c0-3.1-0.8-5.9-2.5-8.6c-1.7-2.7-4.2-4.9-7.5-6.5c4.3-1.3,7.6-3.4,10-6.5c2.3-3.1,3.5-6.7,3.5-10.8
				c0-3.4-0.7-6.5-2.1-9.4c-1.4-2.9-3.2-5.1-5.2-6.7c-2.1-1.6-4.7-2.7-7.8-3.5s-7-1.2-11.5-1.2H1152.5z M1162,981.1h15.5
				c4.2,0,7.2,0.3,9,0.8c2.4,0.7,4.2,1.9,5.4,3.6c1.2,1.7,1.8,3.8,1.8,6.3c0,2.4-0.6,4.5-1.7,6.3c-1.1,1.8-2.8,3.1-4.9,3.7
				c-2.1,0.7-5.7,1-10.9,1h-14.3L1162,981.1L1162,981.1z M1162,948h17.8c3.1,0,5.2,0.1,6.4,0.3c2.2,0.4,4,1,5.5,1.9
				c1.5,0.9,2.7,2.2,3.6,4c0.9,1.7,1.4,3.8,1.4,6c0,2.7-0.7,5-2,7c-1.4,2-3.3,3.4-5.7,4.2c-2.4,0.8-5.9,1.2-10.5,1.2H1162V948z"/>
		</g>
	</g>
</g>
<g id="patch_20">
	<path class="st0" d="M887.9,401.5h613.6V26H887.9V401.5z"/>
</g>
<g id="matplotlib.axis_5">
	<g id="xtick_5">
		<g id="text_21">
			<g transform="translate(1011.277415 532.809908)scale(0.4 -0.4)">
				<g>
					<path id="ArialMT-43_7_" class="st1" d="M58.8,259l9.5-2.4c-2-7.8-5.6-13.7-10.7-17.8s-11.5-6.1-18.9-6.1
						c-7.7,0-14,1.6-18.8,4.7c-4.8,3.1-8.5,7.7-11,13.7C6.2,257,5,263.4,5,270.3c0,7.5,1.4,14,4.3,19.5c2.9,5.6,6.9,9.8,12.2,12.6
						c5.3,2.9,11,4.3,17.4,4.3c7.2,0,13.2-1.8,18.1-5.5c4.9-3.6,8.3-8.8,10.2-15.4l-9.3-2.2c-1.7,5.2-4.1,9-7.2,11.4
						c-3.2,2.4-7.1,3.6-11.9,3.6c-5.5,0-10.1-1.3-13.8-4c-3.7-2.6-6.3-6.2-7.8-10.6s-2.2-9-2.2-13.7c0-6.1,0.9-11.4,2.7-15.9
						s4.5-7.9,8.3-10.2c3.8-2.2,7.8-3.4,12.2-3.4c5.3,0,9.8,1.5,13.5,4.6C55,248.5,57.5,253,58.8,259z"/>
				</g>
				<g>
					<path id="ArialMT-4f_2_" class="st1" d="M77,268.8c0,11.9,3.2,21.2,9.6,27.9c6.4,6.7,14.6,10.1,24.7,10.1
						c6.6,0,12.6-1.6,17.9-4.8c5.3-3.2,9.3-7.6,12.1-13.2s4.2-12.1,4.2-19.2c0-7.2-1.5-13.7-4.4-19.5c-2.9-5.7-7.1-10.1-12.5-13
						c-5.4-2.9-11.2-4.4-17.4-4.4c-6.7,0-12.8,1.6-18.1,4.9c-5.3,3.3-9.3,7.7-12.1,13.3C78.4,256.6,77,262.5,77,268.8z M86.8,268.6
						c0-8.6,2.3-15.4,7-20.4c4.6-5,10.5-7.4,17.5-7.4c7.1,0,13,2.5,17.6,7.5s6.9,12.1,6.9,21.3c0,5.8-1,10.9-3,15.2
						s-4.9,7.7-8.7,10.1c-3.8,2.4-8,3.6-12.8,3.6c-6.7,0-12.5-2.3-17.3-6.9C89.2,287.1,86.8,279.4,86.8,268.6z"/>
				</g>
			</g>
		</g>
	</g>
	<g id="xtick_6">
		<g id="text_22">
			<g transform="translate(1319.208097 532.809908)scale(0.4 -0.4)">
				<g>
					<path id="ArialMT-43_8_" class="st1" d="M58.8,259l9.5-2.4c-2-7.8-5.6-13.7-10.7-17.8s-11.5-6.1-18.9-6.1
						c-7.7,0-14,1.6-18.8,4.7c-4.8,3.1-8.5,7.7-11,13.7C6.2,257,5,263.4,5,270.3c0,7.5,1.4,14,4.3,19.5c2.9,5.6,6.9,9.8,12.2,12.6
						c5.3,2.9,11,4.3,17.4,4.3c7.2,0,13.2-1.8,18.1-5.5c4.9-3.6,8.3-8.8,10.2-15.4l-9.3-2.2c-1.7,5.2-4.1,9-7.2,11.4
						c-3.2,2.4-7.1,3.6-11.9,3.6c-5.5,0-10.1-1.3-13.8-4c-3.7-2.6-6.3-6.2-7.8-10.6s-2.2-9-2.2-13.7c0-6.1,0.9-11.4,2.7-15.9
						s4.5-7.9,8.3-10.2c3.8-2.2,7.8-3.4,12.2-3.4c5.3,0,9.8,1.5,13.5,4.6C55,248.5,57.5,253,58.8,259z"/>
				</g>
				<g>
					<path id="ArialMT-44_2_" class="st1" d="M79.9,233.9v71.6h24.7c5.6,0,9.8-0.3,12.8-1c4.1-0.9,7.6-2.7,10.5-5.1
						c3.8-3.2,6.6-7.3,8.5-12.2c1.9-5,2.8-10.6,2.8-17c0-5.4-0.6-10.3-1.9-14.5c-1.3-4.2-2.9-7.7-4.9-10.4c-2-2.8-4.2-4.9-6.5-6.5
						c-2.4-1.6-5.2-2.8-8.5-3.6s-7.2-1.2-11.5-1.2L79.9,233.9L79.9,233.9z M89.4,242.4h15.3c4.7,0,8.4,0.4,11.1,1.3s4.8,2.1,6.4,3.7
						c2.2,2.2,4,5.3,5.2,9c1.2,3.8,1.9,8.4,1.9,13.8c0,7.5-1.2,13.2-3.7,17.3s-5.4,6.7-9,8.1c-2.5,1-6.6,1.5-12.2,1.5h-15
						C89.4,297.1,89.4,242.4,89.4,242.4z"/>
				</g>
			</g>
		</g>
	</g>
</g>
<g id="ytick_7">
	<g id="text_23">
		<g transform="translate(856.524574 476.986912)scale(0.4 -0.4)">
			<g>
				<path id="ArialMT-30_14_" class="st1" d="M4.2,269.2c0,8.5,0.9,15.3,2.6,20.4c1.7,5.2,4.3,9.1,7.8,11.9c3.4,2.8,7.8,4.2,13,4.2
					c3.8,0,7.2-0.8,10.1-2.3s5.3-3.8,7.2-6.7c1.9-2.9,3.4-6.5,4.5-10.6c1.1-4.2,1.6-9.8,1.6-16.9c0-8.4-0.9-15.2-2.6-20.3
					c-1.7-5.2-4.3-9.1-7.7-12c-3.4-2.8-7.8-4.2-13-4.2c-6.9,0-12.3,2.5-16.2,7.4C6.5,246.1,4.2,255.8,4.2,269.2z M13.2,269.2
					c0-11.8,1.4-19.6,4.1-23.5c2.8-3.9,6.1-5.8,10.2-5.8c4,0,7.4,2,10.2,5.9s4.1,11.7,4.1,23.4c0,11.8-1.4,19.6-4.1,23.5
					c-2.8,3.9-6.2,5.8-10.3,5.8c-4,0-7.3-1.7-9.7-5.1C14.7,289,13.2,281,13.2,269.2z"/>
			</g>
		</g>
	</g>
</g>
<g id="ytick_8">
	<g id="text_24">
		<g transform="translate(834.280824 382.729441)scale(0.4 -0.4)">
			<g>
				<path id="ArialMT-35" class="st1" d="M4.2,252.7l9.2,0.8c0.7-4.5,2.3-7.9,4.8-10.1c2.5-2.3,5.5-3.4,9-3.4
					c4.2,0,7.8,1.6,10.7,4.8s4.4,7.4,4.4,12.7c0,5-1.4,9-4.2,11.9s-6.5,4.4-11.1,4.4c-2.8,0-5.4-0.6-7.7-1.9s-4.1-2.9-5.4-5L5.7,268
					l6.9,36.8h35.6v-8.4H19.7l-3.8-19.2c4.3,3,8.8,4.5,13.5,4.5c6.2,0,11.5-2.2,15.8-6.5s6.5-9.9,6.5-16.7c0-6.5-1.9-12.1-5.7-16.8
					c-4.6-5.8-10.9-8.7-18.8-8.7c-6.5,0-11.8,1.8-16,5.5C7.1,241.8,4.7,246.7,4.2,252.7z"/>
			</g>
			<g>
				<path id="ArialMT-30_15_" class="st1" d="M59.8,269.2c0,8.5,0.9,15.3,2.6,20.4c1.7,5.2,4.3,9.1,7.8,11.9c3.4,2.8,7.8,4.2,13,4.2
					c3.8,0,7.2-0.8,10.1-2.3s5.3-3.8,7.2-6.7c1.9-2.9,3.4-6.5,4.5-10.6c1.1-4.2,1.6-9.8,1.6-16.9c0-8.4-0.9-15.2-2.6-20.3
					c-1.7-5.2-4.3-9.1-7.7-12c-3.4-2.8-7.8-4.2-13-4.2c-6.9,0-12.3,2.5-16.2,7.4C62.1,246.1,59.8,255.8,59.8,269.2z M68.8,269.2
					c0-11.8,1.4-19.6,4.1-23.5c2.8-3.9,6.1-5.8,10.2-5.8c4,0,7.4,2,10.2,5.9s4.1,11.7,4.1,23.4c0,11.8-1.4,19.6-4.1,23.5
					c-2.8,3.9-6.2,5.8-10.3,5.8c-4,0-7.3-1.7-9.7-5.1C70.3,289,68.8,281,68.8,269.2z"/>
			</g>
		</g>
	</g>
</g>
<g id="ytick_9">
	<g id="text_25">
		<g transform="translate(812.037074 288.471971)scale(0.4 -0.4)">
			<g>
				<path id="ArialMT-31_2_" class="st1" d="M37.2,233.9h-8.8v56c-2.1-2-4.9-4-8.3-6s-6.5-3.5-9.3-4.5v8.5c4.9,2.3,9.2,5.1,12.9,8.4
					s6.3,6.5,7.8,9.6h5.7V233.9z"/>
			</g>
			<g>
				<path id="ArialMT-30_16_" class="st1" d="M59.8,269.2c0,8.5,0.9,15.3,2.6,20.4c1.7,5.2,4.3,9.1,7.8,11.9c3.4,2.8,7.8,4.2,13,4.2
					c3.8,0,7.2-0.8,10.1-2.3s5.3-3.8,7.2-6.7c1.9-2.9,3.4-6.5,4.5-10.6c1.1-4.2,1.6-9.8,1.6-16.9c0-8.4-0.9-15.2-2.6-20.3
					c-1.7-5.2-4.3-9.1-7.7-12c-3.4-2.8-7.8-4.2-13-4.2c-6.9,0-12.3,2.5-16.2,7.4C62.1,246.1,59.8,255.8,59.8,269.2z M68.8,269.2
					c0-11.8,1.4-19.6,4.1-23.5c2.8-3.9,6.1-5.8,10.2-5.8c4,0,7.4,2,10.2,5.9s4.1,11.7,4.1,23.4c0,11.8-1.4,19.6-4.1,23.5
					c-2.8,3.9-6.2,5.8-10.3,5.8c-4,0-7.3-1.7-9.7-5.1C70.3,289,68.8,281,68.8,269.2z"/>
			</g>
			<g>
				<path id="ArialMT-30_17_" class="st1" d="M115.4,269.2c0,8.5,0.9,15.3,2.6,20.4c1.7,5.2,4.3,9.1,7.8,11.9
					c3.4,2.8,7.8,4.2,13,4.2c3.8,0,7.2-0.8,10.1-2.3c2.9-1.5,5.3-3.8,7.2-6.7c1.9-2.9,3.4-6.5,4.5-10.6c1.1-4.2,1.6-9.8,1.6-16.9
					c0-8.4-0.9-15.2-2.6-20.3c-1.7-5.2-4.3-9.1-7.7-12c-3.4-2.8-7.8-4.2-13-4.2c-6.9,0-12.3,2.5-16.2,7.4
					C117.7,246.1,115.4,255.8,115.4,269.2z M124.4,269.2c0-11.8,1.4-19.6,4.1-23.5c2.8-3.9,6.1-5.8,10.2-5.8c4,0,7.4,2,10.2,5.9
					s4.1,11.7,4.1,23.4c0,11.8-1.4,19.6-4.1,23.5c-2.8,3.9-6.2,5.8-10.3,5.8c-4,0-7.3-1.7-9.7-5.1C125.9,289,124.4,281,124.4,269.2z
					"/>
			</g>
		</g>
	</g>
</g>
<g id="ytick_10">
	<g id="text_26">
		<g transform="translate(812.037074 194.2145)scale(0.4 -0.4)">
			<g>
				<path id="ArialMT-31_3_" class="st1" d="M37.2,233.9h-8.8v56c-2.1-2-4.9-4-8.3-6s-6.5-3.5-9.3-4.5v8.5c4.9,2.3,9.2,5.1,12.9,8.4
					s6.3,6.5,7.8,9.6h5.7V233.9z"/>
			</g>
			<g>
				<path id="ArialMT-35_1_" class="st1" d="M59.8,252.7l9.2,0.8c0.7-4.5,2.3-7.9,4.8-10.1c2.5-2.3,5.5-3.4,9-3.4
					c4.2,0,7.8,1.6,10.7,4.8c2.9,3.2,4.4,7.4,4.4,12.7c0,5-1.4,9-4.2,11.9c-2.8,2.9-6.5,4.4-11.1,4.4c-2.8,0-5.4-0.6-7.7-1.9
					c-2.3-1.3-4.1-2.9-5.4-5l-8.2,1.1l6.9,36.8h35.6v-8.4H75.3l-3.8-19.2c4.3,3,8.8,4.5,13.5,4.5c6.2,0,11.5-2.2,15.8-6.5
					s6.5-9.9,6.5-16.7c0-6.5-1.9-12.1-5.7-16.8c-4.6-5.8-10.9-8.7-18.8-8.7c-6.5,0-11.8,1.8-16,5.5
					C62.7,241.8,60.4,246.7,59.8,252.7z"/>
			</g>
			<g>
				<path id="ArialMT-30_18_" class="st1" d="M115.4,269.2c0,8.5,0.9,15.3,2.6,20.4c1.7,5.2,4.3,9.1,7.8,11.9
					c3.4,2.8,7.8,4.2,13,4.2c3.8,0,7.2-0.8,10.1-2.3c2.9-1.5,5.3-3.8,7.2-6.7c1.9-2.9,3.4-6.5,4.5-10.6c1.1-4.2,1.6-9.8,1.6-16.9
					c0-8.4-0.9-15.2-2.6-20.3c-1.7-5.2-4.3-9.1-7.7-12c-3.4-2.8-7.8-4.2-13-4.2c-6.9,0-12.3,2.5-16.2,7.4
					C117.7,246.1,115.4,255.8,115.4,269.2z M124.4,269.2c0-11.8,1.4-19.6,4.1-23.5c2.8-3.9,6.1-5.8,10.2-5.8c4,0,7.4,2,10.2,5.9
					s4.1,11.7,4.1,23.4c0,11.8-1.4,19.6-4.1,23.5c-2.8,3.9-6.2,5.8-10.3,5.8c-4,0-7.3-1.7-9.7-5.1C125.9,289,124.4,281,124.4,269.2z
					"/>
			</g>
		</g>
	</g>
</g>
<g id="patch_21">
	<g>
		<g>
			<defs>
				<rect id="SVGID_33_" x="887.9" y="26" width="613.6" height="375.5"/>
			</defs>
			<clipPath id="SVGID_34_">
				<use xlink:href="#SVGID_33_"  style="overflow:visible;"/>
			</clipPath>
			<path class="st21" d="M918.6,369.1H1164V227.9H918.6V369.1z"/>
		</g>
	</g>
</g>
<g id="patch_22">
	<g>
		<g>
			<defs>
				<rect id="SVGID_35_" x="887.9" y="26" width="613.6" height="375.5"/>
			</defs>
			<clipPath id="SVGID_36_">
				<use xlink:href="#SVGID_35_"  style="overflow:visible;"/>
			</clipPath>
			<path class="st22" d="M1225.4,369.1h245.5V220.3h-245.5V369.1z"/>
		</g>
	</g>
</g>
<g id="line2d_9">
	<g>
		<g>
			<defs>
				<rect id="SVGID_37_" x="887.9" y="26" width="613.6" height="375.5"/>
			</defs>
			<clipPath id="SVGID_38_">
				<use xlink:href="#SVGID_37_"  style="overflow:visible;"/>
			</clipPath>
			<path class="st23" d="M1041.3,260.7V191"/>
		</g>
	</g>
</g>
<g id="line2d_10">
	<g>
		<g>
			<defs>
				<rect id="SVGID_39_" x="887.9" y="26" width="613.6" height="375.5"/>
			</defs>
			<clipPath id="SVGID_40_">
				<use xlink:href="#SVGID_39_"  style="overflow:visible;"/>
			</clipPath>
			<path class="st24" d="M1348.1,253.7v-63.2"/>
		</g>
	</g>
</g>
<g id="patch_23">
	<path class="st25" d="M887.9,401.5V26"/>
</g>
<g id="patch_24">
	<path class="st25" d="M887.9,401.5h613.6"/>
</g>
<g id="PathCollection_1">
	<g>
		<g>
			<defs>
				<rect id="SVGID_41_" x="887.9" y="26" width="613.6" height="375.5"/>
			</defs>
			<clipPath id="SVGID_42_">
				<use xlink:href="#SVGID_41_"  style="overflow:visible;"/>
			</clipPath>
			<g class="st26">
				<g>
					<path id="C0_0_5e3c3488fb" class="st27" d="M1041.3,389.4c1.3,0,2.6-0.5,3.5-1.5c0.9-0.9,1.5-2.2,1.5-3.5s-0.5-2.6-1.5-3.5
						c-0.9-0.9-2.2-1.5-3.5-1.5s-2.6,0.5-3.5,1.5c-0.9,0.9-1.5,2.2-1.5,3.5s0.5,2.6,1.5,3.5C1038.7,388.9,1040,389.4,1041.3,389.4z"
						/>
				</g>
			</g>
		</g>
	</g>
	<g>
		<g>
			<defs>
				<rect id="SVGID_43_" x="887.9" y="26" width="613.6" height="375.5"/>
			</defs>
			<clipPath id="SVGID_44_">
				<use xlink:href="#SVGID_43_"  style="overflow:visible;"/>
			</clipPath>
			<g class="st28">
				<g>
					<path id="C0_0_5e3c3488fb_1_" class="st27" d="M1041.3,318.9c1.3,0,2.6-0.5,3.5-1.5c0.9-0.9,1.5-2.2,1.5-3.5s-0.5-2.6-1.5-3.5
						c-0.9-0.9-2.2-1.5-3.5-1.5s-2.6,0.5-3.5,1.5c-0.9,0.9-1.5,2.2-1.5,3.5s0.5,2.6,1.5,3.5C1038.7,318.3,1040,318.9,1041.3,318.9z"
						/>
				</g>
			</g>
		</g>
	</g>
	<g>
		<g>
			<defs>
				<rect id="SVGID_45_" x="887.9" y="26" width="613.6" height="375.5"/>
			</defs>
			<clipPath id="SVGID_46_">
				<use xlink:href="#SVGID_45_"  style="overflow:visible;"/>
			</clipPath>
			<g class="st29">
				<g>
					<path id="C0_0_5e3c3488fb_2_" class="st27" d="M1016.9,310.3c1.3,0,2.6-0.5,3.5-1.5c0.9-0.9,1.5-2.2,1.5-3.5s-0.5-2.6-1.5-3.5
						c-0.9-0.9-2.2-1.5-3.5-1.5s-2.6,0.5-3.5,1.5c-0.9,0.9-1.5,2.2-1.5,3.5s0.5,2.6,1.5,3.5C1014.3,309.8,1015.6,310.3,1016.9,310.3
						z"/>
				</g>
			</g>
		</g>
	</g>
	<g>
		<g>
			<defs>
				<rect id="SVGID_47_" x="887.9" y="26" width="613.6" height="375.5"/>
			</defs>
			<clipPath id="SVGID_48_">
				<use xlink:href="#SVGID_47_"  style="overflow:visible;"/>
			</clipPath>
			<g class="st30">
				<g>
					<path id="C0_0_5e3c3488fb_3_" class="st27" d="M1058.1,289.8c1.3,0,2.6-0.5,3.5-1.5c0.9-0.9,1.5-2.2,1.5-3.5s-0.5-2.6-1.5-3.5
						c-0.9-0.9-2.2-1.5-3.5-1.5s-2.6,0.5-3.5,1.5c-0.9,0.9-1.5,2.2-1.5,3.5s0.5,2.6,1.5,3.5C1055.5,289.3,1056.8,289.8,1058.1,289.8
						z"/>
				</g>
			</g>
		</g>
	</g>
	<g>
		<g>
			<defs>
				<rect id="SVGID_49_" x="887.9" y="26" width="613.6" height="375.5"/>
			</defs>
			<clipPath id="SVGID_50_">
				<use xlink:href="#SVGID_49_"  style="overflow:visible;"/>
			</clipPath>
			<g class="st31">
				<g>
					<path id="C0_0_5e3c3488fb_4_" class="st27" d="M1083,286.2c1.3,0,2.6-0.5,3.5-1.5c0.9-0.9,1.5-2.2,1.5-3.5s-0.5-2.6-1.5-3.5
						c-0.9-0.9-2.2-1.5-3.5-1.5s-2.6,0.5-3.5,1.5c-0.9,0.9-1.5,2.2-1.5,3.5s0.5,2.6,1.5,3.5C1080.4,285.7,1081.6,286.2,1083,286.2z"
						/>
				</g>
			</g>
		</g>
	</g>
	<g>
		<g>
			<defs>
				<rect id="SVGID_51_" x="887.9" y="26" width="613.6" height="375.5"/>
			</defs>
			<clipPath id="SVGID_52_">
				<use xlink:href="#SVGID_51_"  style="overflow:visible;"/>
			</clipPath>
			<g class="st32">
				<g>
					<path id="C0_0_5e3c3488fb_5_" class="st27" d="M998.2,284.4c1.3,0,2.6-0.5,3.5-1.5c0.9-0.9,1.5-2.2,1.5-3.5s-0.5-2.6-1.5-3.5
						c-0.9-0.9-2.2-1.5-3.5-1.5s-2.6,0.5-3.5,1.5c-0.9,0.9-1.5,2.2-1.5,3.5s0.5,2.6,1.5,3.5C995.6,283.9,996.8,284.4,998.2,284.4z"
						/>
				</g>
			</g>
		</g>
	</g>
	<g>
		<g>
			<defs>
				<rect id="SVGID_53_" x="887.9" y="26" width="613.6" height="375.5"/>
			</defs>
			<clipPath id="SVGID_54_">
				<use xlink:href="#SVGID_53_"  style="overflow:visible;"/>
			</clipPath>
			<g class="st33">
				<g>
					<path id="C0_0_5e3c3488fb_6_" class="st27" d="M1034.4,277.7c1.3,0,2.6-0.5,3.5-1.5c0.9-0.9,1.5-2.2,1.5-3.5s-0.5-2.6-1.5-3.5
						c-0.9-0.9-2.2-1.5-3.5-1.5s-2.6,0.5-3.5,1.5c-0.9,0.9-1.5,2.2-1.5,3.5s0.5,2.6,1.5,3.5C1031.8,277.1,1033.1,277.7,1034.4,277.7
						z"/>
				</g>
			</g>
		</g>
	</g>
	<g>
		<g>
			<defs>
				<rect id="SVGID_55_" x="887.9" y="26" width="613.6" height="375.5"/>
			</defs>
			<clipPath id="SVGID_56_">
				<use xlink:href="#SVGID_55_"  style="overflow:visible;"/>
			</clipPath>
			<g class="st34">
				<g>
					<path id="C0_0_5e3c3488fb_7_" class="st27" d="M1048.2,244.8c1.3,0,2.6-0.5,3.5-1.5c0.9-0.9,1.5-2.2,1.5-3.5s-0.5-2.6-1.5-3.5
						s-2.2-1.5-3.5-1.5s-2.6,0.5-3.5,1.5s-1.5,2.2-1.5,3.5s0.5,2.6,1.5,3.5C1045.6,244.3,1046.8,244.8,1048.2,244.8z"/>
				</g>
			</g>
		</g>
	</g>
	<g>
		<g>
			<defs>
				<rect id="SVGID_57_" x="887.9" y="26" width="613.6" height="375.5"/>
			</defs>
			<clipPath id="SVGID_58_">
				<use xlink:href="#SVGID_57_"  style="overflow:visible;"/>
			</clipPath>
			<g class="st35">
				<g>
					<path id="C0_0_5e3c3488fb_8_" class="st27" d="M1024.9,230.5c1.3,0,2.6-0.5,3.5-1.5c0.9-0.9,1.5-2.2,1.5-3.5s-0.5-2.6-1.5-3.5
						s-2.2-1.5-3.5-1.5c-1.3,0-2.6,0.5-3.5,1.5s-1.5,2.2-1.5,3.5s0.5,2.6,1.5,3.5C1022.3,230,1023.6,230.5,1024.9,230.5z"/>
				</g>
			</g>
		</g>
	</g>
	<g>
		<g>
			<defs>
				<rect id="SVGID_59_" x="887.9" y="26" width="613.6" height="375.5"/>
			</defs>
			<clipPath id="SVGID_60_">
				<use xlink:href="#SVGID_59_"  style="overflow:visible;"/>
			</clipPath>
			<g class="st36">
				<g>
					<path id="C0_0_5e3c3488fb_9_" class="st27" d="M1067,219c1.3,0,2.6-0.5,3.5-1.5c0.9-0.9,1.5-2.2,1.5-3.5s-0.5-2.6-1.5-3.5
						s-2.2-1.5-3.5-1.5s-2.6,0.5-3.5,1.5s-1.5,2.2-1.5,3.5s0.5,2.6,1.5,3.5C1064.4,218.5,1065.7,219,1067,219z"/>
				</g>
			</g>
		</g>
	</g>
	<g>
		<g>
			<defs>
				<rect id="SVGID_61_" x="887.9" y="26" width="613.6" height="375.5"/>
			</defs>
			<clipPath id="SVGID_62_">
				<use xlink:href="#SVGID_61_"  style="overflow:visible;"/>
			</clipPath>
			<g class="st37">
				<g>
					<path id="C0_0_5e3c3488fb_10_" class="st27" d="M1001.9,215.6c1.3,0,2.6-0.5,3.5-1.5c0.9-0.9,1.5-2.2,1.5-3.5s-0.5-2.6-1.5-3.5
						s-2.2-1.5-3.5-1.5s-2.6,0.5-3.5,1.5s-1.5,2.2-1.5,3.5s0.5,2.6,1.5,3.5C999.3,215.1,1000.5,215.6,1001.9,215.6z"/>
				</g>
			</g>
		</g>
	</g>
	<g>
		<g>
			<defs>
				<rect id="SVGID_63_" x="887.9" y="26" width="613.6" height="375.5"/>
			</defs>
			<clipPath id="SVGID_64_">
				<use xlink:href="#SVGID_63_"  style="overflow:visible;"/>
			</clipPath>
			<g class="st38">
				<g>
					<path id="C0_0_5e3c3488fb_11_" class="st27" d="M1091.2,209.5c1.3,0,2.6-0.5,3.5-1.5c0.9-0.9,1.5-2.2,1.5-3.5s-0.5-2.6-1.5-3.5
						s-2.2-1.5-3.5-1.5s-2.6,0.5-3.5,1.5s-1.5,2.2-1.5,3.5s0.5,2.6,1.5,3.5C1088.6,208.9,1089.9,209.5,1091.2,209.5z"/>
				</g>
			</g>
		</g>
	</g>
	<g>
		<g>
			<defs>
				<rect id="SVGID_65_" x="887.9" y="26" width="613.6" height="375.5"/>
			</defs>
			<clipPath id="SVGID_66_">
				<use xlink:href="#SVGID_65_"  style="overflow:visible;"/>
			</clipPath>
			<g class="st39">
				<g>
					<path id="C0_0_5e3c3488fb_12_" class="st27" d="M1041.3,197.2c1.3,0,2.6-0.5,3.5-1.5c0.9-0.9,1.5-2.2,1.5-3.5s-0.5-2.6-1.5-3.5
						s-2.2-1.5-3.5-1.5s-2.6,0.5-3.5,1.5s-1.5,2.2-1.5,3.5s0.5,2.6,1.5,3.5C1038.7,196.7,1040,197.2,1041.3,197.2z"/>
				</g>
			</g>
		</g>
	</g>
	<g>
		<g>
			<defs>
				<rect id="SVGID_67_" x="887.9" y="26" width="613.6" height="375.5"/>
			</defs>
			<clipPath id="SVGID_68_">
				<use xlink:href="#SVGID_67_"  style="overflow:visible;"/>
			</clipPath>
			<g class="st40">
				<g>
					<path id="C0_0_5e3c3488fb_13_" class="st27" d="M981.7,192.4c1.3,0,2.6-0.5,3.5-1.5c0.9-0.9,1.5-2.2,1.5-3.5s-0.5-2.6-1.5-3.5
						s-2.2-1.5-3.5-1.5s-2.6,0.5-3.5,1.5s-1.5,2.2-1.5,3.5s0.5,2.6,1.5,3.5C979.1,191.9,980.4,192.4,981.7,192.4z"/>
				</g>
			</g>
		</g>
	</g>
	<g>
		<g>
			<defs>
				<rect id="SVGID_69_" x="887.9" y="26" width="613.6" height="375.5"/>
			</defs>
			<clipPath id="SVGID_70_">
				<use xlink:href="#SVGID_69_"  style="overflow:visible;"/>
			</clipPath>
			<g class="st41">
				<g>
					<path id="C0_0_5e3c3488fb_14_" class="st27" d="M1112,187.8c1.3,0,2.6-0.5,3.5-1.5c0.9-0.9,1.5-2.2,1.5-3.5s-0.5-2.6-1.5-3.5
						s-2.2-1.5-3.5-1.5s-2.6,0.5-3.5,1.5s-1.5,2.2-1.5,3.5s0.5,2.6,1.5,3.5C1109.4,187.2,1110.7,187.8,1112,187.8z"/>
				</g>
			</g>
		</g>
	</g>
	<g>
		<g>
			<defs>
				<rect id="SVGID_71_" x="887.9" y="26" width="613.6" height="375.5"/>
			</defs>
			<clipPath id="SVGID_72_">
				<use xlink:href="#SVGID_71_"  style="overflow:visible;"/>
			</clipPath>
			<g class="st42">
				<g>
					<path id="C0_0_5e3c3488fb_15_" class="st27" d="M1037.4,158.3c1.3,0,2.6-0.5,3.5-1.5c0.9-0.9,1.5-2.2,1.5-3.5s-0.5-2.6-1.5-3.5
						s-2.2-1.5-3.5-1.5s-2.6,0.5-3.5,1.5s-1.5,2.2-1.5,3.5s0.5,2.6,1.5,3.5C1034.8,157.8,1036,158.3,1037.4,158.3z"/>
				</g>
			</g>
		</g>
	</g>
	<g>
		<g>
			<defs>
				<rect id="SVGID_73_" x="887.9" y="26" width="613.6" height="375.5"/>
			</defs>
			<clipPath id="SVGID_74_">
				<use xlink:href="#SVGID_73_"  style="overflow:visible;"/>
			</clipPath>
			<g class="st43">
				<g>
					<path id="C0_0_5e3c3488fb_16_" class="st27" d="M1055.6,131.4c1.3,0,2.6-0.5,3.5-1.5c0.9-0.9,1.5-2.2,1.5-3.5s-0.5-2.6-1.5-3.5
						s-2.2-1.5-3.5-1.5s-2.6,0.5-3.5,1.5s-1.5,2.2-1.5,3.5s0.5,2.6,1.5,3.5C1053,130.9,1054.3,131.4,1055.6,131.4z"/>
				</g>
			</g>
		</g>
	</g>
	<g>
		<g>
			<defs>
				<rect id="SVGID_75_" x="887.9" y="26" width="613.6" height="375.5"/>
			</defs>
			<clipPath id="SVGID_76_">
				<use xlink:href="#SVGID_75_"  style="overflow:visible;"/>
			</clipPath>
			<g class="st44">
				<g>
					<path id="C0_0_5e3c3488fb_17_" class="st27" d="M1041.3,48.1c1.3,0,2.6-0.5,3.5-1.5c0.9-0.9,1.5-2.2,1.5-3.5s-0.5-2.6-1.5-3.5
						s-2.2-1.5-3.5-1.5s-2.6,0.5-3.5,1.5s-1.5,2.2-1.5,3.5s0.5,2.6,1.5,3.5C1038.7,47.6,1040,48.1,1041.3,48.1z"/>
				</g>
			</g>
		</g>
	</g>
</g>
<g>
	<g>
		<defs>
			<rect id="SVGID_77_" x="887.9" y="26" width="613.6" height="375.5"/>
		</defs>
		<clipPath id="SVGID_78_">
			<use xlink:href="#SVGID_77_"  style="overflow:visible;"/>
		</clipPath>
		<g class="st45">
			<g>
				<path id="C1_0_7923e66e68" class="st27" d="M1348.1,329.6c1.3,0,2.6-0.5,3.5-1.5c0.9-0.9,1.5-2.2,1.5-3.5s-0.5-2.6-1.5-3.5
					c-0.9-0.9-2.2-1.5-3.5-1.5s-2.6,0.5-3.5,1.5c-0.9,0.9-1.5,2.2-1.5,3.5s0.5,2.6,1.5,3.5C1345.5,329.1,1346.8,329.6,1348.1,329.6z
					"/>
			</g>
		</g>
	</g>
</g>
<g>
	<g>
		<defs>
			<rect id="SVGID_79_" x="887.9" y="26" width="613.6" height="375.5"/>
		</defs>
		<clipPath id="SVGID_80_">
			<use xlink:href="#SVGID_79_"  style="overflow:visible;"/>
		</clipPath>
		<g class="st46">
			<g>
				<path id="C1_0_7923e66e68_1_" class="st27" d="M1331.1,300.8c1.3,0,2.6-0.5,3.5-1.5c0.9-0.9,1.5-2.2,1.5-3.5s-0.5-2.6-1.5-3.5
					c-0.9-0.9-2.2-1.5-3.5-1.5s-2.6,0.5-3.5,1.5c-0.9,0.9-1.5,2.2-1.5,3.5s0.5,2.6,1.5,3.5C1328.5,300.3,1329.8,300.8,1331.1,300.8z
					"/>
			</g>
		</g>
	</g>
</g>
<g>
	<g>
		<defs>
			<rect id="SVGID_81_" x="887.9" y="26" width="613.6" height="375.5"/>
		</defs>
		<clipPath id="SVGID_82_">
			<use xlink:href="#SVGID_81_"  style="overflow:visible;"/>
		</clipPath>
		<g class="st47">
			<g>
				<path id="C1_0_7923e66e68_2_" class="st27" d="M1359.1,294.3c1.3,0,2.6-0.5,3.5-1.5c0.9-0.9,1.5-2.2,1.5-3.5s-0.5-2.6-1.5-3.5
					c-0.9-0.9-2.2-1.5-3.5-1.5s-2.6,0.5-3.5,1.5c-0.9,0.9-1.5,2.2-1.5,3.5s0.5,2.6,1.5,3.5C1356.5,293.7,1357.8,294.3,1359.1,294.3z
					"/>
			</g>
		</g>
	</g>
</g>
<g>
	<g>
		<defs>
			<rect id="SVGID_83_" x="887.9" y="26" width="613.6" height="375.5"/>
		</defs>
		<clipPath id="SVGID_84_">
			<use xlink:href="#SVGID_83_"  style="overflow:visible;"/>
		</clipPath>
		<g class="st48">
			<g>
				<path id="C1_0_7923e66e68_3_" class="st27" d="M1384,293.5c1.3,0,2.6-0.5,3.5-1.5c0.9-0.9,1.5-2.2,1.5-3.5s-0.5-2.6-1.5-3.5
					c-0.9-0.9-2.2-1.5-3.5-1.5s-2.6,0.5-3.5,1.5c-0.9,0.9-1.5,2.2-1.5,3.5s0.5,2.6,1.5,3.5C1381.4,293,1382.7,293.5,1384,293.5z"/>
			</g>
		</g>
	</g>
</g>
<g>
	<g>
		<defs>
			<rect id="SVGID_85_" x="887.9" y="26" width="613.6" height="375.5"/>
		</defs>
		<clipPath id="SVGID_86_">
			<use xlink:href="#SVGID_85_"  style="overflow:visible;"/>
		</clipPath>
		<g class="st49">
			<g>
				<path id="C1_0_7923e66e68_4_" class="st27" d="M1314.8,271c1.3,0,2.6-0.5,3.5-1.5c0.9-0.9,1.5-2.2,1.5-3.5s-0.5-2.6-1.5-3.5
					c-0.9-0.9-2.2-1.5-3.5-1.5s-2.6,0.5-3.5,1.5c-0.9,0.9-1.5,2.2-1.5,3.5s0.5,2.6,1.5,3.5C1312.2,270.5,1313.4,271,1314.8,271z"/>
			</g>
		</g>
	</g>
</g>
<g>
	<g>
		<defs>
			<rect id="SVGID_87_" x="887.9" y="26" width="613.6" height="375.5"/>
		</defs>
		<clipPath id="SVGID_88_">
			<use xlink:href="#SVGID_87_"  style="overflow:visible;"/>
		</clipPath>
		<g class="st50">
			<g>
				<path id="C1_0_7923e66e68_5_" class="st27" d="M1348.1,229.3c1.3,0,2.6-0.5,3.5-1.5c0.9-0.9,1.5-2.2,1.5-3.5s-0.5-2.6-1.5-3.5
					s-2.2-1.5-3.5-1.5s-2.6,0.5-3.5,1.5s-1.5,2.2-1.5,3.5s0.5,2.6,1.5,3.5C1345.5,228.8,1346.8,229.3,1348.1,229.3z"/>
			</g>
		</g>
	</g>
</g>
<g>
	<g>
		<defs>
			<rect id="SVGID_89_" x="887.9" y="26" width="613.6" height="375.5"/>
		</defs>
		<clipPath id="SVGID_90_">
			<use xlink:href="#SVGID_89_"  style="overflow:visible;"/>
		</clipPath>
		<g class="st51">
			<g>
				<path id="C1_0_7923e66e68_6_" class="st27" d="M1324.5,216.6c1.3,0,2.6-0.5,3.5-1.5c0.9-0.9,1.5-2.2,1.5-3.5s-0.5-2.6-1.5-3.5
					s-2.2-1.5-3.5-1.5s-2.6,0.5-3.5,1.5s-1.5,2.2-1.5,3.5s0.5,2.6,1.5,3.5C1321.9,216.1,1323.2,216.6,1324.5,216.6z"/>
			</g>
		</g>
	</g>
</g>
<g>
	<g>
		<defs>
			<rect id="SVGID_91_" x="887.9" y="26" width="613.6" height="375.5"/>
		</defs>
		<clipPath id="SVGID_92_">
			<use xlink:href="#SVGID_91_"  style="overflow:visible;"/>
		</clipPath>
		<g class="st52">
			<g>
				<path id="C1_0_7923e66e68_7_" class="st27" d="M1371.6,216c1.3,0,2.6-0.5,3.5-1.5c0.9-0.9,1.5-2.2,1.5-3.5s-0.5-2.6-1.5-3.5
					s-2.2-1.5-3.5-1.5s-2.6,0.5-3.5,1.5s-1.5,2.2-1.5,3.5s0.5,2.6,1.5,3.5C1369,215.5,1370.2,216,1371.6,216z"/>
			</g>
		</g>
	</g>
</g>
<g>
	<g>
		<defs>
			<rect id="SVGID_93_" x="887.9" y="26" width="613.6" height="375.5"/>
		</defs>
		<clipPath id="SVGID_94_">
			<use xlink:href="#SVGID_93_"  style="overflow:visible;"/>
		</clipPath>
		<g class="st53">
			<g>
				<path id="C1_0_7923e66e68_8_" class="st27" d="M1396.3,210.7c1.3,0,2.6-0.5,3.5-1.5c0.9-0.9,1.5-2.2,1.5-3.5s-0.5-2.6-1.5-3.5
					s-2.2-1.5-3.5-1.5s-2.6,0.5-3.5,1.5s-1.5,2.2-1.5,3.5s0.5,2.6,1.5,3.5C1393.7,210.2,1394.9,210.7,1396.3,210.7z"/>
			</g>
		</g>
	</g>
</g>
<g>
	<g>
		<defs>
			<rect id="SVGID_95_" x="887.9" y="26" width="613.6" height="375.5"/>
		</defs>
		<clipPath id="SVGID_96_">
			<use xlink:href="#SVGID_95_"  style="overflow:visible;"/>
		</clipPath>
		<g class="st54">
			<g>
				<path id="C1_0_7923e66e68_9_" class="st27" d="M1303.6,195.2c1.3,0,2.6-0.5,3.5-1.5c0.9-0.9,1.5-2.2,1.5-3.5s-0.5-2.6-1.5-3.5
					s-2.2-1.5-3.5-1.5s-2.6,0.5-3.5,1.5s-1.5,2.2-1.5,3.5s0.5,2.6,1.5,3.5C1301,194.7,1302.2,195.2,1303.6,195.2z"/>
			</g>
		</g>
	</g>
</g>
<g>
	<g>
		<defs>
			<rect id="SVGID_97_" x="887.9" y="26" width="613.6" height="375.5"/>
		</defs>
		<clipPath id="SVGID_98_">
			<use xlink:href="#SVGID_97_"  style="overflow:visible;"/>
		</clipPath>
		<g class="st55">
			<g>
				<path id="C1_0_7923e66e68_10_" class="st27" d="M1348.1,170.8c1.3,0,2.6-0.5,3.5-1.5c0.9-0.9,1.5-2.2,1.5-3.5s-0.5-2.6-1.5-3.5
					s-2.2-1.5-3.5-1.5s-2.6,0.5-3.5,1.5s-1.5,2.2-1.5,3.5s0.5,2.6,1.5,3.5C1345.5,170.3,1346.8,170.8,1348.1,170.8z"/>
			</g>
		</g>
	</g>
</g>
<g>
	<g>
		<defs>
			<rect id="SVGID_99_" x="887.9" y="26" width="613.6" height="375.5"/>
		</defs>
		<clipPath id="SVGID_100_">
			<use xlink:href="#SVGID_99_"  style="overflow:visible;"/>
		</clipPath>
		<g class="st56">
			<g>
				<path id="C1_0_7923e66e68_11_" class="st27" d="M1372.9,167.7c1.3,0,2.6-0.5,3.5-1.5c0.9-0.9,1.5-2.2,1.5-3.5s-0.5-2.6-1.5-3.5
					s-2.2-1.5-3.5-1.5s-2.6,0.5-3.5,1.5s-1.5,2.2-1.5,3.5s0.5,2.6,1.5,3.5C1370.4,167.2,1371.6,167.7,1372.9,167.7z"/>
			</g>
		</g>
	</g>
</g>
<g>
	<g>
		<defs>
			<rect id="SVGID_101_" x="887.9" y="26" width="613.6" height="375.5"/>
		</defs>
		<clipPath id="SVGID_102_">
			<use xlink:href="#SVGID_101_"  style="overflow:visible;"/>
		</clipPath>
		<g class="st57">
			<g>
				<path id="C1_0_7923e66e68_12_" class="st27" d="M1325.7,153.4c1.3,0,2.6-0.5,3.5-1.5c0.9-0.9,1.5-2.2,1.5-3.5s-0.5-2.6-1.5-3.5
					s-2.2-1.5-3.5-1.5s-2.6,0.5-3.5,1.5s-1.5,2.2-1.5,3.5s0.5,2.6,1.5,3.5C1323.1,152.8,1324.4,153.4,1325.7,153.4z"/>
			</g>
		</g>
	</g>
</g>
<rect x="887.9" y="26" class="st58" width="613.6" height="375.5"/>
<g>
	<g>
		<path id="C1_0_7923e66e68_13_" class="st27" d="M1348.1,105.5c1.3,0,2.6-0.5,3.5-1.5c0.9-0.9,1.5-2.2,1.5-3.5s-0.5-2.6-1.5-3.5
			s-2.2-1.5-3.5-1.5s-2.6,0.5-3.5,1.5s-1.5,2.2-1.5,3.5s0.5,2.6,1.5,3.5C1345.5,105,1346.8,105.5,1348.1,105.5z"/>
	</g>
</g>
<g id="text_28">
	<g transform="translate(826.504688 125.014751)scale(0.6 -0.6)">
		<g>
			<path id="ArialMT-43_9_" class="st1" d="M-1318.4-623.9l9.5-2.4c-2-7.8-5.6-13.7-10.7-17.8c-5.2-4.1-11.5-6.1-18.9-6.1
				c-7.7,0-14,1.6-18.8,4.7c-4.8,3.1-8.5,7.7-11,13.7s-3.8,12.4-3.8,19.2c0,7.5,1.4,14,4.3,19.5c2.9,5.6,6.9,9.8,12.2,12.6
				c5.3,2.9,11,4.3,17.4,4.3c7.2,0,13.2-1.8,18.1-5.5c4.9-3.6,8.3-8.8,10.2-15.4l-9.3-2.2c-1.7,5.2-4.1,9-7.2,11.4
				c-3.2,2.4-7.1,3.6-11.9,3.6c-5.5,0-10.1-1.3-13.8-4c-3.7-2.6-6.3-6.2-7.8-10.6s-2.2-9-2.2-13.7c0-6.1,0.9-11.4,2.7-15.9
				s4.5-7.9,8.3-10.2c3.8-2.2,7.8-3.4,12.2-3.4c5.3,0,9.8,1.5,13.5,4.6C-1322.2-634.5-1319.7-629.9-1318.4-623.9z"/>
		</g>
	</g>
</g>
<g id="patch_25">
	<path class="st0" d="M887.9,889.6h613.6V514.1H887.9V889.6z"/>
</g>
<g id="matplotlib.axis_7">
	<g id="xtick_7">
		<g id="text_29">
			<g transform="translate(1011.277415 1020.91356)scale(0.4 -0.4)">
				<g>
					<path id="ArialMT-43_10_" class="st1" d="M58.8,259l9.5-2.4c-2-7.8-5.6-13.7-10.7-17.8c-5.2-4.1-11.5-6.1-18.9-6.1
						c-7.7,0-14,1.6-18.8,4.7c-4.8,3.1-8.5,7.7-11,13.7c-2.5,6-3.9,12.3-3.9,19.2c0,7.5,1.4,14,4.3,19.5c2.9,5.6,6.9,9.8,12.2,12.6
						c5.3,2.9,11,4.3,17.4,4.3c7.2,0,13.2-1.8,18.1-5.5c4.9-3.6,8.3-8.8,10.2-15.4l-9.3-2.2c-1.7,5.2-4.1,9-7.2,11.4
						c-3.2,2.4-7.1,3.6-11.9,3.6c-5.5,0-10.1-1.3-13.8-4c-3.7-2.6-6.3-6.2-7.8-10.6s-2.2-9-2.2-13.7c0-6.1,0.9-11.4,2.7-15.9
						s4.5-7.9,8.3-10.2c3.8-2.2,7.8-3.4,12.2-3.4c5.3,0,9.8,1.5,13.5,4.6C55,248.5,57.5,253,58.8,259z"/>
				</g>
				<g>
					<path id="ArialMT-4f_3_" class="st1" d="M77,268.8c0,11.9,3.2,21.2,9.6,27.9c6.4,6.7,14.6,10.1,24.7,10.1
						c6.6,0,12.6-1.6,17.9-4.8c5.3-3.2,9.3-7.6,12.1-13.2s4.2-12.1,4.2-19.2c0-7.2-1.5-13.7-4.4-19.5c-2.9-5.7-7.1-10.1-12.5-13
						c-5.4-2.9-11.2-4.4-17.4-4.4c-6.7,0-12.8,1.6-18.1,4.9c-5.3,3.3-9.3,7.7-12.1,13.3C78.4,256.6,77,262.5,77,268.8z M86.8,268.6
						c0-8.6,2.3-15.4,7-20.4c4.6-5,10.5-7.4,17.5-7.4c7.1,0,13,2.5,17.6,7.5s6.9,12.1,6.9,21.3c0,5.8-1,10.9-3,15.2
						s-4.9,7.7-8.7,10.1c-3.8,2.4-8,3.6-12.8,3.6c-6.7,0-12.5-2.3-17.3-6.9C89.2,287.1,86.8,279.4,86.8,268.6z"/>
				</g>
			</g>
		</g>
	</g>
	<g id="xtick_8">
		<g id="text_30">
			<g transform="translate(1319.208097 1020.91356)scale(0.4 -0.4)">
				<g>
					<path id="ArialMT-43_11_" class="st1" d="M58.8,259l9.5-2.4c-2-7.8-5.6-13.7-10.7-17.8c-5.2-4.1-11.5-6.1-18.9-6.1
						c-7.7,0-14,1.6-18.8,4.7c-4.8,3.1-8.5,7.7-11,13.7c-2.5,6-3.9,12.3-3.9,19.2c0,7.5,1.4,14,4.3,19.5c2.9,5.6,6.9,9.8,12.2,12.6
						c5.3,2.9,11,4.3,17.4,4.3c7.2,0,13.2-1.8,18.1-5.5c4.9-3.6,8.3-8.8,10.2-15.4l-9.3-2.2c-1.7,5.2-4.1,9-7.2,11.4
						c-3.2,2.4-7.1,3.6-11.9,3.6c-5.5,0-10.1-1.3-13.8-4c-3.7-2.6-6.3-6.2-7.8-10.6s-2.2-9-2.2-13.7c0-6.1,0.9-11.4,2.7-15.9
						s4.5-7.9,8.3-10.2c3.8-2.2,7.8-3.4,12.2-3.4c5.3,0,9.8,1.5,13.5,4.6C55,248.5,57.5,253,58.8,259z"/>
				</g>
				<g>
					<path id="ArialMT-44_3_" class="st1" d="M79.9,233.9v71.6h24.7c5.6,0,9.8-0.3,12.8-1c4.1-0.9,7.6-2.7,10.5-5.1
						c3.8-3.2,6.6-7.3,8.5-12.2c1.9-5,2.8-10.6,2.8-17c0-5.4-0.6-10.3-1.9-14.5c-1.3-4.2-2.9-7.7-4.9-10.4c-2-2.8-4.2-4.9-6.5-6.5
						c-2.4-1.6-5.2-2.8-8.5-3.6s-7.2-1.2-11.5-1.2L79.9,233.9L79.9,233.9z M89.4,242.4h15.3c4.7,0,8.4,0.4,11.1,1.3s4.8,2.1,6.4,3.7
						c2.2,2.2,4,5.3,5.2,9c1.2,3.8,1.9,8.4,1.9,13.8c0,7.5-1.2,13.2-3.7,17.3s-5.4,6.7-9,8.1c-2.5,1-6.6,1.5-12.2,1.5h-15
						C89.4,297.1,89.4,242.4,89.4,242.4z"/>
				</g>
			</g>
		</g>
	</g>
</g>
<g id="ytick_11">
	<g id="text_31">
		<g transform="translate(810.918324 991.990155)scale(0.4 -0.4)">
			<g>
				<path id="ArialMT-2212" class="st1" d="M52.8,265.1H5.6v8.2h47.3L52.8,265.1L52.8,265.1z"/>
			</g>
			<g>
				<path id="ArialMT-35_2_" class="st1" d="M62.6,252.7l9.2,0.8c0.7-4.5,2.3-7.9,4.8-10.1c2.5-2.3,5.5-3.4,9-3.4
					c4.2,0,7.8,1.6,10.7,4.8c2.9,3.2,4.4,7.4,4.4,12.7c0,5-1.4,9-4.2,11.9c-2.8,2.9-6.5,4.4-11.1,4.4c-2.8,0-5.4-0.6-7.7-1.9
					c-2.3-1.3-4.1-2.9-5.4-5l-8.2,1.1l6.9,36.8h35.6v-8.4H78.1l-3.8-19.2c4.3,3,8.8,4.5,13.5,4.5c6.2,0,11.5-2.2,15.8-6.5
					s6.5-9.9,6.5-16.7c0-6.5-1.9-12.1-5.7-16.8c-4.6-5.8-10.9-8.7-18.8-8.7c-6.5,0-11.8,1.8-16,5.5
					C65.5,241.8,63.1,246.7,62.6,252.7z"/>
			</g>
			<g>
				<path id="ArialMT-30_19_" class="st1" d="M118.2,269.2c0,8.5,0.9,15.3,2.6,20.4c1.7,5.2,4.3,9.1,7.8,11.9
					c3.4,2.8,7.8,4.2,13,4.2c3.8,0,7.2-0.8,10.1-2.3c2.9-1.5,5.3-3.8,7.2-6.7c1.9-2.9,3.4-6.5,4.5-10.6c1.1-4.2,1.6-9.8,1.6-16.9
					c0-8.4-0.9-15.2-2.6-20.3c-1.7-5.2-4.3-9.1-7.7-12c-3.4-2.8-7.8-4.2-13-4.2c-6.9,0-12.3,2.5-16.2,7.4
					C120.5,246.1,118.2,255.8,118.2,269.2z M127.2,269.2c0-11.8,1.4-19.6,4.1-23.5c2.8-3.9,6.1-5.8,10.2-5.8c4,0,7.4,2,10.2,5.9
					s4.1,11.7,4.1,23.4c0,11.8-1.4,19.6-4.1,23.5c-2.8,3.9-6.2,5.8-10.3,5.8c-4,0-7.3-1.7-9.7-5.1C128.7,289,127.2,281,127.2,269.2z
					"/>
			</g>
		</g>
	</g>
</g>
<g id="ytick_12">
	<g id="text_32">
		<g transform="translate(856.524574 815.08529)scale(0.4 -0.4)">
			<g>
				<path id="ArialMT-30_20_" class="st1" d="M4.2,269.2c0,8.5,0.9,15.3,2.6,20.4c1.7,5.2,4.3,9.1,7.8,11.9c3.4,2.8,7.8,4.2,13,4.2
					c3.8,0,7.2-0.8,10.1-2.3s5.3-3.8,7.2-6.7c1.9-2.9,3.4-6.5,4.5-10.6c1.1-4.2,1.6-9.8,1.6-16.9c0-8.4-0.9-15.2-2.6-20.3
					c-1.7-5.2-4.3-9.1-7.7-12c-3.4-2.8-7.8-4.2-13-4.2c-6.9,0-12.3,2.5-16.2,7.4C6.5,246.1,4.2,255.8,4.2,269.2z M13.2,269.2
					c0-11.8,1.4-19.6,4.1-23.5c2.8-3.9,6.1-5.8,10.2-5.8c4,0,7.4,2,10.2,5.9s4.1,11.7,4.1,23.4c0,11.8-1.4,19.6-4.1,23.5
					c-2.8,3.9-6.2,5.8-10.3,5.8c-4,0-7.3-1.7-9.7-5.1C14.7,289,13.2,281,13.2,269.2z"/>
			</g>
		</g>
	</g>
</g>
<g id="ytick_13">
	<g id="text_33">
		<g transform="translate(834.280824 638.180424)scale(0.4 -0.4)">
			<g>
				<path id="ArialMT-35_3_" class="st1" d="M4.2,252.7l9.2,0.8c0.7-4.5,2.3-7.9,4.8-10.1c2.5-2.3,5.5-3.4,9-3.4
					c4.2,0,7.8,1.6,10.7,4.8s4.4,7.4,4.4,12.7c0,5-1.4,9-4.2,11.9s-6.5,4.4-11.1,4.4c-2.8,0-5.4-0.6-7.7-1.9s-4.1-2.9-5.4-5L5.7,268
					l6.9,36.8h35.6v-8.4H19.7l-3.8-19.2c4.3,3,8.8,4.5,13.5,4.5c6.2,0,11.5-2.2,15.8-6.5s6.5-9.9,6.5-16.7c0-6.5-1.9-12.1-5.7-16.8
					c-4.6-5.8-10.9-8.7-18.8-8.7c-6.5,0-11.8,1.8-16,5.5C7.1,241.8,4.7,246.7,4.2,252.7z"/>
			</g>
			<g>
				<path id="ArialMT-30_21_" class="st1" d="M59.8,269.2c0,8.5,0.9,15.3,2.6,20.4c1.7,5.2,4.3,9.1,7.8,11.9c3.4,2.8,7.8,4.2,13,4.2
					c3.8,0,7.2-0.8,10.1-2.3s5.3-3.8,7.2-6.7c1.9-2.9,3.4-6.5,4.5-10.6c1.1-4.2,1.6-9.8,1.6-16.9c0-8.4-0.9-15.2-2.6-20.3
					c-1.7-5.2-4.3-9.1-7.7-12c-3.4-2.8-7.8-4.2-13-4.2c-6.9,0-12.3,2.5-16.2,7.4C62.1,246.1,59.8,255.8,59.8,269.2z M68.8,269.2
					c0-11.8,1.4-19.6,4.1-23.5c2.8-3.9,6.1-5.8,10.2-5.8c4,0,7.4,2,10.2,5.9s4.1,11.7,4.1,23.4c0,11.8-1.4,19.6-4.1,23.5
					c-2.8,3.9-6.2,5.8-10.3,5.8c-4,0-7.3-1.7-9.7-5.1C70.3,289,68.8,281,68.8,269.2z"/>
			</g>
		</g>
	</g>
</g>
<g id="patch_26">
	<g>
		<g>
			<defs>
				<rect id="SVGID_103_" x="887.9" y="514.1" width="613.6" height="375.5"/>
			</defs>
			<clipPath id="SVGID_104_">
				<use xlink:href="#SVGID_103_"  style="overflow:visible;"/>
			</clipPath>
			<path class="st59" d="M918.6,707.2H1164v8.7H918.6V707.2z"/>
		</g>
	</g>
</g>
<g id="patch_27">
	<g>
		<g>
			<defs>
				<rect id="SVGID_105_" x="887.9" y="514.1" width="613.6" height="375.5"/>
			</defs>
			<clipPath id="SVGID_106_">
				<use xlink:href="#SVGID_105_"  style="overflow:visible;"/>
			</clipPath>
			<path class="st60" d="M1225.4,707.2h245.5v-33.4h-245.5V707.2z"/>
		</g>
	</g>
</g>
<g id="line2d_11">
	<g>
		<g>
			<defs>
				<rect id="SVGID_107_" x="887.9" y="514.1" width="613.6" height="375.5"/>
			</defs>
			<clipPath id="SVGID_108_">
				<use xlink:href="#SVGID_107_"  style="overflow:visible;"/>
			</clipPath>
			<path class="st61" d="M1041.3,749.7v-71.5"/>
		</g>
	</g>
</g>
<g id="line2d_12">
	<g>
		<g>
			<defs>
				<rect id="SVGID_109_" x="887.9" y="514.1" width="613.6" height="375.5"/>
			</defs>
			<clipPath id="SVGID_110_">
				<use xlink:href="#SVGID_109_"  style="overflow:visible;"/>
			</clipPath>
			<path class="st62" d="M1348.1,706v-65.4"/>
		</g>
	</g>
</g>
<g id="patch_28">
	<path class="st25" d="M887.9,889.6V514.1"/>
</g>
<g id="patch_29">
	<path class="st25" d="M887.9,889.6h613.6"/>
</g>
<g id="PathCollection_3">
	<g>
		<g>
			<defs>
				<rect id="SVGID_111_" x="887.9" y="514.1" width="613.6" height="375.5"/>
			</defs>
			<clipPath id="SVGID_112_">
				<use xlink:href="#SVGID_111_"  style="overflow:visible;"/>
			</clipPath>
			<g class="st63">
				<g>
					<path id="C2_0_63f88283db" class="st27" d="M1041.3,877.5c1.3,0,2.6-0.5,3.5-1.5c0.9-0.9,1.5-2.2,1.5-3.5s-0.5-2.6-1.5-3.5
						s-2.2-1.5-3.5-1.5s-2.6,0.5-3.5,1.5s-1.5,2.2-1.5,3.5s0.5,2.6,1.5,3.5C1038.7,877,1040,877.5,1041.3,877.5z"/>
				</g>
			</g>
		</g>
	</g>
	<g>
		<g>
			<defs>
				<rect id="SVGID_113_" x="887.9" y="514.1" width="613.6" height="375.5"/>
			</defs>
			<clipPath id="SVGID_114_">
				<use xlink:href="#SVGID_113_"  style="overflow:visible;"/>
			</clipPath>
			<g class="st64">
				<g>
					<path id="C2_0_63f88283db_1_" class="st27" d="M1037.9,838c1.3,0,2.6-0.5,3.5-1.5c0.9-0.9,1.5-2.2,1.5-3.5s-0.5-2.6-1.5-3.5
						s-2.2-1.5-3.5-1.5s-2.6,0.5-3.5,1.5s-1.5,2.2-1.5,3.5s0.5,2.6,1.5,3.5C1035.3,837.4,1036.6,838,1037.9,838z"/>
				</g>
			</g>
		</g>
	</g>
	<g>
		<g>
			<defs>
				<rect id="SVGID_115_" x="887.9" y="514.1" width="613.6" height="375.5"/>
			</defs>
			<clipPath id="SVGID_116_">
				<use xlink:href="#SVGID_115_"  style="overflow:visible;"/>
			</clipPath>
			<g class="st65">
				<g>
					<path id="C2_0_63f88283db_2_" class="st27" d="M1041.3,796.9c1.3,0,2.6-0.5,3.5-1.5c0.9-0.9,1.5-2.2,1.5-3.5s-0.5-2.6-1.5-3.5
						s-2.2-1.5-3.5-1.5s-2.6,0.5-3.5,1.5s-1.5,2.2-1.5,3.5s0.5,2.6,1.5,3.5C1038.7,796.3,1040,796.9,1041.3,796.9z"/>
				</g>
			</g>
		</g>
	</g>
	<g>
		<g>
			<defs>
				<rect id="SVGID_117_" x="887.9" y="514.1" width="613.6" height="375.5"/>
			</defs>
			<clipPath id="SVGID_118_">
				<use xlink:href="#SVGID_117_"  style="overflow:visible;"/>
			</clipPath>
			<g class="st66">
				<g>
					<path id="C2_0_63f88283db_3_" class="st27" d="M1010.6,785.7c1.3,0,2.6-0.5,3.5-1.5c0.9-0.9,1.5-2.2,1.5-3.5s-0.5-2.6-1.5-3.5
						s-2.2-1.5-3.5-1.5s-2.6,0.5-3.5,1.5s-1.5,2.2-1.5,3.5s0.5,2.6,1.5,3.5C1008,785.2,1009.3,785.7,1010.6,785.7z"/>
				</g>
			</g>
		</g>
	</g>
	<g>
		<g>
			<defs>
				<rect id="SVGID_119_" x="887.9" y="514.1" width="613.6" height="375.5"/>
			</defs>
			<clipPath id="SVGID_120_">
				<use xlink:href="#SVGID_119_"  style="overflow:visible;"/>
			</clipPath>
			<g class="st67">
				<g>
					<path id="C2_0_63f88283db_4_" class="st27" d="M1041.3,756.9c1.3,0,2.6-0.5,3.5-1.5c0.9-0.9,1.5-2.2,1.5-3.5s-0.5-2.6-1.5-3.5
						s-2.2-1.5-3.5-1.5s-2.6,0.5-3.5,1.5s-1.5,2.2-1.5,3.5s0.5,2.6,1.5,3.5C1038.7,756.4,1040,756.9,1041.3,756.9z"/>
				</g>
			</g>
		</g>
	</g>
	<g>
		<g>
			<defs>
				<rect id="SVGID_121_" x="887.9" y="514.1" width="613.6" height="375.5"/>
			</defs>
			<clipPath id="SVGID_122_">
				<use xlink:href="#SVGID_121_"  style="overflow:visible;"/>
			</clipPath>
			<g class="st68">
				<g>
					<path id="C2_0_63f88283db_5_" class="st27" d="M1073.2,756.3c1.3,0,2.6-0.5,3.5-1.5c0.9-0.9,1.5-2.2,1.5-3.5s-0.5-2.6-1.5-3.5
						s-2.2-1.5-3.5-1.5s-2.6,0.5-3.5,1.5s-1.5,2.2-1.5,3.5s0.5,2.6,1.5,3.5C1070.6,755.7,1071.9,756.3,1073.2,756.3z"/>
				</g>
			</g>
		</g>
	</g>
	<g>
		<g>
			<defs>
				<rect id="SVGID_123_" x="887.9" y="514.1" width="613.6" height="375.5"/>
			</defs>
			<clipPath id="SVGID_124_">
				<use xlink:href="#SVGID_123_"  style="overflow:visible;"/>
			</clipPath>
			<g class="st69">
				<g>
					<path id="C2_0_63f88283db_6_" class="st27" d="M994.8,751.1c1.3,0,2.6-0.5,3.5-1.5c0.9-0.9,1.5-2.2,1.5-3.5s-0.5-2.6-1.5-3.5
						s-2.2-1.5-3.5-1.5s-2.6,0.5-3.5,1.5s-1.5,2.2-1.5,3.5s0.5,2.6,1.5,3.5C992.2,750.6,993.5,751.1,994.8,751.1z"/>
				</g>
			</g>
		</g>
	</g>
	<g>
		<g>
			<defs>
				<rect id="SVGID_125_" x="887.9" y="514.1" width="613.6" height="375.5"/>
			</defs>
			<clipPath id="SVGID_126_">
				<use xlink:href="#SVGID_125_"  style="overflow:visible;"/>
			</clipPath>
			<g class="st70">
				<g>
					<path id="C2_0_63f88283db_7_" class="st27" d="M1104.2,746.9c1.3,0,2.6-0.5,3.5-1.5c0.9-0.9,1.5-2.2,1.5-3.5s-0.5-2.6-1.5-3.5
						s-2.2-1.5-3.5-1.5s-2.6,0.5-3.5,1.5s-1.5,2.2-1.5,3.5s0.5,2.6,1.5,3.5C1101.6,746.3,1102.9,746.9,1104.2,746.9z"/>
				</g>
			</g>
		</g>
	</g>
	<g>
		<g>
			<defs>
				<rect id="SVGID_127_" x="887.9" y="514.1" width="613.6" height="375.5"/>
			</defs>
			<clipPath id="SVGID_128_">
				<use xlink:href="#SVGID_127_"  style="overflow:visible;"/>
			</clipPath>
			<g class="st71">
				<g>
					<path id="C2_0_63f88283db_8_" class="st27" d="M1034.4,718c1.3,0,2.6-0.5,3.5-1.5c0.9-0.9,1.5-2.2,1.5-3.5s-0.5-2.6-1.5-3.5
						s-2.2-1.5-3.5-1.5s-2.6,0.5-3.5,1.5s-1.5,2.2-1.5,3.5s0.5,2.6,1.5,3.5C1031.8,717.5,1033.1,718,1034.4,718z"/>
				</g>
			</g>
		</g>
	</g>
	<g>
		<g>
			<defs>
				<rect id="SVGID_129_" x="887.9" y="514.1" width="613.6" height="375.5"/>
			</defs>
			<clipPath id="SVGID_130_">
				<use xlink:href="#SVGID_129_"  style="overflow:visible;"/>
			</clipPath>
			<g class="st72">
				<g>
					<path id="C2_0_63f88283db_9_" class="st27" d="M1065.7,709.9c1.3,0,2.6-0.5,3.5-1.5c0.9-0.9,1.5-2.2,1.5-3.5s-0.5-2.6-1.5-3.5
						s-2.2-1.5-3.5-1.5s-2.6,0.5-3.5,1.5s-1.5,2.2-1.5,3.5s0.5,2.6,1.5,3.5C1063.1,709.4,1064.4,709.9,1065.7,709.9z"/>
				</g>
			</g>
		</g>
	</g>
	<g>
		<g>
			<defs>
				<rect id="SVGID_131_" x="887.9" y="514.1" width="613.6" height="375.5"/>
			</defs>
			<clipPath id="SVGID_132_">
				<use xlink:href="#SVGID_131_"  style="overflow:visible;"/>
			</clipPath>
			<g class="st73">
				<g>
					<path id="C2_0_63f88283db_10_" class="st27" d="M1006.6,698.6c1.3,0,2.6-0.5,3.5-1.5c0.9-0.9,1.5-2.2,1.5-3.5s-0.5-2.6-1.5-3.5
						s-2.2-1.5-3.5-1.5s-2.6,0.5-3.5,1.5s-1.5,2.2-1.5,3.5s0.5,2.6,1.5,3.5C1004,698.1,1005.2,698.6,1006.6,698.6z"/>
				</g>
			</g>
		</g>
	</g>
	<g>
		<g>
			<defs>
				<rect id="SVGID_133_" x="887.9" y="514.1" width="613.6" height="375.5"/>
			</defs>
			<clipPath id="SVGID_134_">
				<use xlink:href="#SVGID_133_"  style="overflow:visible;"/>
			</clipPath>
			<g class="st74">
				<g>
					<path id="C2_0_63f88283db_11_" class="st27" d="M1095.1,694.3c1.3,0,2.6-0.5,3.5-1.5c0.9-0.9,1.5-2.2,1.5-3.5s-0.5-2.6-1.5-3.5
						s-2.2-1.5-3.5-1.5s-2.6,0.5-3.5,1.5s-1.5,2.2-1.5,3.5s0.5,2.6,1.5,3.5C1092.5,693.8,1093.7,694.3,1095.1,694.3z"/>
				</g>
			</g>
		</g>
	</g>
	<g>
		<g>
			<defs>
				<rect id="SVGID_135_" x="887.9" y="514.1" width="613.6" height="375.5"/>
			</defs>
			<clipPath id="SVGID_136_">
				<use xlink:href="#SVGID_135_"  style="overflow:visible;"/>
			</clipPath>
			<g class="st75">
				<g>
					<path id="C2_0_63f88283db_12_" class="st27" d="M975,692.3c1.3,0,2.6-0.5,3.5-1.5c0.9-0.9,1.5-2.2,1.5-3.5s-0.5-2.6-1.5-3.5
						s-2.2-1.5-3.5-1.5s-2.6,0.5-3.5,1.5s-1.5,2.2-1.5,3.5s0.5,2.6,1.5,3.5C972.4,691.7,973.7,692.3,975,692.3z"/>
				</g>
			</g>
		</g>
	</g>
	<g>
		<g>
			<defs>
				<rect id="SVGID_137_" x="887.9" y="514.1" width="613.6" height="375.5"/>
			</defs>
			<clipPath id="SVGID_138_">
				<use xlink:href="#SVGID_137_"  style="overflow:visible;"/>
			</clipPath>
			<g class="st76">
				<g>
					<path id="C2_0_63f88283db_13_" class="st27" d="M1041.3,679.3c1.3,0,2.6-0.5,3.5-1.5c0.9-0.9,1.5-2.2,1.5-3.5s-0.5-2.6-1.5-3.5
						s-2.2-1.5-3.5-1.5s-2.6,0.5-3.5,1.5s-1.5,2.2-1.5,3.5s0.5,2.6,1.5,3.5C1038.7,678.7,1040,679.3,1041.3,679.3z"/>
				</g>
			</g>
		</g>
	</g>
	<g>
		<g>
			<defs>
				<rect id="SVGID_139_" x="887.9" y="514.1" width="613.6" height="375.5"/>
			</defs>
			<clipPath id="SVGID_140_">
				<use xlink:href="#SVGID_139_"  style="overflow:visible;"/>
			</clipPath>
			<g class="st77">
				<g>
					<path id="C2_0_63f88283db_14_" class="st27" d="M1123.9,677.2c1.3,0,2.6-0.5,3.5-1.5c0.9-0.9,1.5-2.2,1.5-3.5s-0.5-2.6-1.5-3.5
						s-2.2-1.5-3.5-1.5s-2.6,0.5-3.5,1.5s-1.5,2.2-1.5,3.5s0.5,2.6,1.5,3.5C1121.3,676.7,1122.6,677.2,1123.9,677.2z"/>
				</g>
			</g>
		</g>
	</g>
	<g>
		<g>
			<defs>
				<rect id="SVGID_141_" x="887.9" y="514.1" width="613.6" height="375.5"/>
			</defs>
			<clipPath id="SVGID_142_">
				<use xlink:href="#SVGID_141_"  style="overflow:visible;"/>
			</clipPath>
			<g class="st78">
				<g>
					<path id="C2_0_63f88283db_15_" class="st27" d="M1071.4,667.5c1.3,0,2.6-0.5,3.5-1.5c0.9-0.9,1.5-2.2,1.5-3.5s-0.5-2.6-1.5-3.5
						s-2.2-1.5-3.5-1.5s-2.6,0.5-3.5,1.5s-1.5,2.2-1.5,3.5s0.5,2.6,1.5,3.5C1068.8,667,1070.1,667.5,1071.4,667.5z"/>
				</g>
			</g>
		</g>
	</g>
	<g>
		<g>
			<defs>
				<rect id="SVGID_143_" x="887.9" y="514.1" width="613.6" height="375.5"/>
			</defs>
			<clipPath id="SVGID_144_">
				<use xlink:href="#SVGID_143_"  style="overflow:visible;"/>
			</clipPath>
			<g class="st79">
				<g>
					<path id="C2_0_63f88283db_16_" class="st27" d="M1041.3,594.3c1.3,0,2.6-0.5,3.5-1.5c0.9-0.9,1.5-2.2,1.5-3.5s-0.5-2.6-1.5-3.5
						s-2.2-1.5-3.5-1.5s-2.6,0.5-3.5,1.5s-1.5,2.2-1.5,3.5s0.5,2.6,1.5,3.5C1038.7,593.8,1040,594.3,1041.3,594.3z"/>
				</g>
			</g>
		</g>
	</g>
	<g>
		<g>
			<defs>
				<rect id="SVGID_145_" x="887.9" y="514.1" width="613.6" height="375.5"/>
			</defs>
			<clipPath id="SVGID_146_">
				<use xlink:href="#SVGID_145_"  style="overflow:visible;"/>
			</clipPath>
			<g class="st80">
				<g>
					<path id="C2_0_63f88283db_17_" class="st27" d="M1041.3,536.2c1.3,0,2.6-0.5,3.5-1.5c0.9-0.9,1.5-2.2,1.5-3.5s-0.5-2.6-1.5-3.5
						s-2.2-1.5-3.5-1.5s-2.6,0.5-3.5,1.5s-1.5,2.2-1.5,3.5s0.5,2.6,1.5,3.5C1038.7,535.7,1040,536.2,1041.3,536.2z"/>
				</g>
			</g>
		</g>
	</g>
</g>
<g>
	<g>
		<defs>
			<rect id="SVGID_147_" x="887.9" y="514.1" width="613.6" height="375.5"/>
		</defs>
		<clipPath id="SVGID_148_">
			<use xlink:href="#SVGID_147_"  style="overflow:visible;"/>
		</clipPath>
		<g class="st81">
			<g>
				<path id="C3_0_90f3264d64" class="st27" d="M1348.1,783.5c1.3,0,2.6-0.5,3.5-1.5c0.9-0.9,1.5-2.2,1.5-3.5s-0.5-2.6-1.5-3.5
					s-2.2-1.5-3.5-1.5s-2.6,0.5-3.5,1.5s-1.5,2.2-1.5,3.5s0.5,2.6,1.5,3.5C1345.5,783,1346.8,783.5,1348.1,783.5z"/>
			</g>
		</g>
	</g>
</g>
<g>
	<g>
		<defs>
			<rect id="SVGID_149_" x="887.9" y="514.1" width="613.6" height="375.5"/>
		</defs>
		<clipPath id="SVGID_150_">
			<use xlink:href="#SVGID_149_"  style="overflow:visible;"/>
		</clipPath>
		<g class="st82">
			<g>
				<path id="C3_0_90f3264d64_1_" class="st27" d="M1325.1,755.9c1.3,0,2.6-0.5,3.5-1.5c0.9-0.9,1.5-2.2,1.5-3.5s-0.5-2.6-1.5-3.5
					s-2.2-1.5-3.5-1.5s-2.6,0.5-3.5,1.5s-1.5,2.2-1.5,3.5s0.5,2.6,1.5,3.5C1322.5,755.4,1323.8,755.9,1325.1,755.9z"/>
			</g>
		</g>
	</g>
</g>
<g>
	<g>
		<defs>
			<rect id="SVGID_151_" x="887.9" y="514.1" width="613.6" height="375.5"/>
		</defs>
		<clipPath id="SVGID_152_">
			<use xlink:href="#SVGID_151_"  style="overflow:visible;"/>
		</clipPath>
		<g class="st83">
			<g>
				<path id="C3_0_90f3264d64_2_" class="st27" d="M1350.4,731.5c1.3,0,2.6-0.5,3.5-1.5c0.9-0.9,1.5-2.2,1.5-3.5s-0.5-2.6-1.5-3.5
					s-2.2-1.5-3.5-1.5s-2.6,0.5-3.5,1.5s-1.5,2.2-1.5,3.5s0.5,2.6,1.5,3.5C1347.8,731,1349.1,731.5,1350.4,731.5z"/>
			</g>
		</g>
	</g>
</g>
<g>
	<g>
		<defs>
			<rect id="SVGID_153_" x="887.9" y="514.1" width="613.6" height="375.5"/>
		</defs>
		<clipPath id="SVGID_154_">
			<use xlink:href="#SVGID_153_"  style="overflow:visible;"/>
		</clipPath>
		<g class="st84">
			<g>
				<path id="C3_0_90f3264d64_3_" class="st27" d="M1381.9,725.1c1.3,0,2.6-0.5,3.5-1.5c0.9-0.9,1.5-2.2,1.5-3.5s-0.5-2.6-1.5-3.5
					s-2.2-1.5-3.5-1.5s-2.6,0.5-3.5,1.5s-1.5,2.2-1.5,3.5s0.5,2.6,1.5,3.5C1379.3,724.6,1380.6,725.1,1381.9,725.1z"/>
			</g>
		</g>
	</g>
</g>
<g>
	<g>
		<defs>
			<rect id="SVGID_155_" x="887.9" y="514.1" width="613.6" height="375.5"/>
		</defs>
		<clipPath id="SVGID_156_">
			<use xlink:href="#SVGID_155_"  style="overflow:visible;"/>
		</clipPath>
		<g class="st85">
			<g>
				<path id="C3_0_90f3264d64_4_" class="st27" d="M1316.1,717.7c1.3,0,2.6-0.5,3.5-1.5c0.9-0.9,1.5-2.2,1.5-3.5s-0.5-2.6-1.5-3.5
					s-2.2-1.5-3.5-1.5s-2.6,0.5-3.5,1.5s-1.5,2.2-1.5,3.5s0.5,2.6,1.5,3.5C1313.5,717.2,1314.8,717.7,1316.1,717.7z"/>
			</g>
		</g>
	</g>
</g>
<g>
	<g>
		<defs>
			<rect id="SVGID_157_" x="887.9" y="514.1" width="613.6" height="375.5"/>
		</defs>
		<clipPath id="SVGID_158_">
			<use xlink:href="#SVGID_157_"  style="overflow:visible;"/>
		</clipPath>
		<g class="st86">
			<g>
				<path id="C3_0_90f3264d64_5_" class="st27" d="M1408,702.2c1.3,0,2.6-0.5,3.5-1.5c0.9-0.9,1.5-2.2,1.5-3.5s-0.5-2.6-1.5-3.5
					s-2.2-1.5-3.5-1.5s-2.6,0.5-3.5,1.5s-1.5,2.2-1.5,3.5s0.5,2.6,1.5,3.5C1405.4,701.7,1406.7,702.2,1408,702.2z"/>
			</g>
		</g>
	</g>
</g>
<g>
	<g>
		<defs>
			<rect id="SVGID_159_" x="887.9" y="514.1" width="613.6" height="375.5"/>
		</defs>
		<clipPath id="SVGID_160_">
			<use xlink:href="#SVGID_159_"  style="overflow:visible;"/>
		</clipPath>
		<g class="st87">
			<g>
				<path id="C3_0_90f3264d64_6_" class="st27" d="M1288.9,697c1.3,0,2.6-0.5,3.5-1.5c0.9-0.9,1.5-2.2,1.5-3.5s-0.5-2.6-1.5-3.5
					s-2.2-1.5-3.5-1.5s-2.6,0.5-3.5,1.5s-1.5,2.2-1.5,3.5s0.5,2.6,1.5,3.5C1286.3,696.5,1287.5,697,1288.9,697z"/>
			</g>
		</g>
	</g>
</g>
<g>
	<g>
		<defs>
			<rect id="SVGID_161_" x="887.9" y="514.1" width="613.6" height="375.5"/>
		</defs>
		<clipPath id="SVGID_162_">
			<use xlink:href="#SVGID_161_"  style="overflow:visible;"/>
		</clipPath>
		<g class="st88">
			<g>
				<path id="C3_0_90f3264d64_7_" class="st27" d="M1348.1,690.1c1.3,0,2.6-0.5,3.5-1.5c0.9-0.9,1.5-2.2,1.5-3.5s-0.5-2.6-1.5-3.5
					s-2.2-1.5-3.5-1.5s-2.6,0.5-3.5,1.5s-1.5,2.2-1.5,3.5s0.5,2.6,1.5,3.5C1345.5,689.6,1346.8,690.1,1348.1,690.1z"/>
			</g>
		</g>
	</g>
</g>
<g>
	<g>
		<defs>
			<rect id="SVGID_163_" x="887.9" y="514.1" width="613.6" height="375.5"/>
		</defs>
		<clipPath id="SVGID_164_">
			<use xlink:href="#SVGID_163_"  style="overflow:visible;"/>
		</clipPath>
		<g class="st89">
			<g>
				<path id="C3_0_90f3264d64_8_" class="st27" d="M1438.2,689.3c1.3,0,2.6-0.5,3.5-1.5c0.9-0.9,1.5-2.2,1.5-3.5s-0.5-2.6-1.5-3.5
					s-2.2-1.5-3.5-1.5s-2.6,0.5-3.5,1.5s-1.5,2.2-1.5,3.5s0.5,2.6,1.5,3.5C1435.6,688.8,1436.9,689.3,1438.2,689.3z"/>
			</g>
		</g>
	</g>
</g>
<g>
	<g>
		<defs>
			<rect id="SVGID_165_" x="887.9" y="514.1" width="613.6" height="375.5"/>
		</defs>
		<clipPath id="SVGID_166_">
			<use xlink:href="#SVGID_165_"  style="overflow:visible;"/>
		</clipPath>
		<g class="st90">
			<g>
				<path id="C3_0_90f3264d64_9_" class="st27" d="M1348.1,640.4c1.3,0,2.6-0.5,3.5-1.5c0.9-0.9,1.5-2.2,1.5-3.5s-0.5-2.6-1.5-3.5
					s-2.2-1.5-3.5-1.5s-2.6,0.5-3.5,1.5s-1.5,2.2-1.5,3.5s0.5,2.6,1.5,3.5C1345.5,639.9,1346.8,640.4,1348.1,640.4z"/>
			</g>
		</g>
	</g>
</g>
<g>
	<g>
		<defs>
			<rect id="SVGID_167_" x="887.9" y="514.1" width="613.6" height="375.5"/>
		</defs>
		<clipPath id="SVGID_168_">
			<use xlink:href="#SVGID_167_"  style="overflow:visible;"/>
		</clipPath>
		<g class="st91">
			<g>
				<path id="C3_0_90f3264d64_10_" class="st27" d="M1318.8,624.6c1.3,0,2.6-0.5,3.5-1.5c0.9-0.9,1.5-2.2,1.5-3.5s-0.5-2.6-1.5-3.5
					s-2.2-1.5-3.5-1.5s-2.6,0.5-3.5,1.5s-1.5,2.2-1.5,3.5s0.5,2.6,1.5,3.5C1316.2,624.1,1317.5,624.6,1318.8,624.6z"/>
			</g>
		</g>
	</g>
</g>
<g>
	<g>
		<defs>
			<rect id="SVGID_169_" x="887.9" y="514.1" width="613.6" height="375.5"/>
		</defs>
		<clipPath id="SVGID_170_">
			<use xlink:href="#SVGID_169_"  style="overflow:visible;"/>
		</clipPath>
		<g class="st92">
			<g>
				<path id="C3_0_90f3264d64_11_" class="st27" d="M1358.1,602.7c1.3,0,2.6-0.5,3.5-1.5c0.9-0.9,1.5-2.2,1.5-3.5s-0.5-2.6-1.5-3.5
					s-2.2-1.5-3.5-1.5s-2.6,0.5-3.5,1.5s-1.5,2.2-1.5,3.5s0.5,2.6,1.5,3.5C1355.5,602.1,1356.8,602.7,1358.1,602.7z"/>
			</g>
		</g>
	</g>
</g>
<g>
	<g>
		<defs>
			<rect id="SVGID_171_" x="887.9" y="514.1" width="613.6" height="375.5"/>
		</defs>
		<clipPath id="SVGID_172_">
			<use xlink:href="#SVGID_171_"  style="overflow:visible;"/>
		</clipPath>
		<g class="st93">
			<g>
				<path id="C3_0_90f3264d64_12_" class="st27" d="M1336.5,573.4c1.3,0,2.6-0.5,3.5-1.5c0.9-0.9,1.5-2.2,1.5-3.5s-0.5-2.6-1.5-3.5
					s-2.2-1.5-3.5-1.5s-2.6,0.5-3.5,1.5s-1.5,2.2-1.5,3.5s0.5,2.6,1.5,3.5C1333.9,572.8,1335.2,573.4,1336.5,573.4z"/>
			</g>
		</g>
	</g>
</g>
<rect x="887.9" y="514.1" class="st58" width="613.6" height="375.5"/>
<g>
	<g>
		<path id="C3_0_90f3264d64_13_" class="st27" d="M1376,569.6c1.3,0,2.6-0.5,3.5-1.5c0.9-0.9,1.5-2.2,1.5-3.5s-0.5-2.6-1.5-3.5
			s-2.2-1.5-3.5-1.5s-2.6,0.5-3.5,1.5s-1.5,2.2-1.5,3.5s0.5,2.6,1.5,3.5C1373.4,569.1,1374.6,569.6,1376,569.6z"/>
	</g>
</g>
<g id="text_35">
	<g transform="translate(826.504688 613.118403)scale(0.6 -0.6)">
		<g>
			<path id="ArialMT-44_4_" class="st1" d="M-84.1,178.7v71.6h24.7c5.6,0,9.8-0.3,12.8-1c4.1-0.9,7.6-2.7,10.5-5.1
				c3.8-3.2,6.6-7.3,8.5-12.2c1.9-5,2.8-10.6,2.8-17c0-5.4-0.6-10.3-1.9-14.5c-1.3-4.2-2.9-7.7-4.9-10.4c-2-2.8-4.2-4.9-6.5-6.5
				c-2.4-1.6-5.2-2.8-8.5-3.6s-7.2-1.2-11.5-1.2L-84.1,178.7L-84.1,178.7z M-74.6,187.1h15.3c4.7,0,8.4,0.4,11.1,1.3
				s4.8,2.1,6.4,3.7c2.2,2.2,4,5.3,5.2,9c1.2,3.8,1.9,8.4,1.9,13.8c0,7.5-1.2,13.2-3.7,17.3c-2.5,4-5.4,6.7-9,8.1
				c-2.5,1-6.6,1.5-12.2,1.5h-15C-74.6,241.8-74.6,187.1-74.6,187.1z"/>
		</g>
	</g>
</g>
<text transform="matrix(1 0 0 1 555.8016 927.8291)" class="st94 st95">static</text>
<text transform="matrix(1 0 0 1 230.8371 927.8288)" class="st94 st95">dynamic</text>
<text transform="matrix(4.489659e-11 -1 1 4.489659e-11 811.5377 888.543)" class="st94 st96">static - dynamic (RT)</text>
<text transform="matrix(4.489659e-11 -1 1 4.489659e-11 811.5375 336.9541)" class="st94 st96">low - high (RT)</text>
<line class="st97" x1="867.5" y1="26" x2="1501.5" y2="26"/>
<line class="st97" x1="1501.5" y1="913" x2="1501.5" y2="11.6"/>
<line class="st97" x1="877.7" y1="514.1" x2="1511.7" y2="514.1"/>
</svg>
