<svg id="Layer_1" data-name="Layer 1" xmlns="http://www.w3.org/2000/svg" xmlns:xlink="http://www.w3.org/1999/xlink" viewBox="0 0 1508.7 1060.97"><defs><style>.cls-1,.cls-13,.cls-2,.cls-8,.cls-9{fill:none;}.cls-13,.cls-16,.cls-2,.cls-9{stroke:#262626;}.cls-12,.cls-16,.cls-2,.cls-9{stroke-width:3px;}.cls-19,.cls-3{fill:#fff;}.cls-4{fill:#262626;}.cls-5{clip-path:url(#clip-path);}.cls-6{fill:#772b58;}.cls-12,.cls-19,.cls-6,.cls-7{stroke:#fff;}.cls-6,.cls-7{stroke-width:0.24px;}.cls-12,.cls-7{fill:#db6e59;}.cls-8{stroke:#424242;stroke-linecap:round;stroke-linejoin:round;stroke-width:10.8px;}.cls-13,.cls-9{stroke-linecap:square;}.cls-10{clip-path:url(#clip-path-9);}.cls-11{clip-path:url(#clip-path-17);}.cls-13{stroke-width:0.8px;}.cls-14,.cls-16{fill:#404040;}.cls-15{clip-path:url(#clip-path-39);}.cls-17{clip-path:url(#clip-path-53);}.cls-18{clip-path:url(#clip-path-88);}.cls-19{stroke-width:5px;}</style><clipPath id="clip-path"><rect class="cls-1" x="151.5" y="99.36" width="613.64" height="375.46"/></clipPath><clipPath id="clip-path-9"><rect class="cls-1" x="151.5" y="587.47" width="613.64" height="375.46"/></clipPath><clipPath id="clip-path-17"><rect class="cls-1" x="887.87" y="99.36" width="613.64" height="375.46"/></clipPath><clipPath id="clip-path-39"><rect class="cls-2" x="887.87" y="99.36" width="613.64" height="375.46"/></clipPath><clipPath id="clip-path-53"><rect class="cls-1" x="887.87" y="587.47" width="613.64" height="375.46"/></clipPath><clipPath id="clip-path-88"><rect class="cls-2" x="887.87" y="587.47" width="613.64" height="375.46"/></clipPath></defs><g id="patch_2" data-name="patch 2"><path class="cls-3" d="M151.5,474.83H765.14V99.36H151.5Z"/></g><g id="matplotlib.axis_1" data-name="matplotlib.axis 1"><g id="xtick_1" data-name="xtick 1"><g id="text_1" data-name="text 1"><path id="ArialMT-6c" class="cls-4" d="M225.22,512.56V483.93h3.52v28.63Z"/><path id="ArialMT-6f" class="cls-4" d="M232.88,502.19q0-5.76,3.2-8.54a9.72,9.72,0,0,1,6.52-2.3,9.29,9.29,0,0,1,7,2.8,10.71,10.71,0,0,1,2.72,7.75,13.79,13.79,0,0,1-1.2,6.3,8.52,8.52,0,0,1-3.5,3.56,10.16,10.16,0,0,1-5,1.27,9.33,9.33,0,0,1-7-2.79Q232.88,507.44,232.88,502.19Zm3.61,0c0,2.66.58,4.64,1.74,6a5.78,5.78,0,0,0,8.15.58,5.29,5.29,0,0,0,.58-.58q1.74-2,1.74-6.08a8.62,8.62,0,0,0-1.75-5.83,5.79,5.79,0,0,0-8.17-.55h0a4.76,4.76,0,0,0-.55.55Q236.49,498.22,236.49,502.19Z"/><path id="ArialMT-77" class="cls-4" d="M260.26,512.56l-6.35-20.74h3.63l3.3,12,1.23,4.45c.06-.22.42-1.64,1.08-4.27l3.3-12.15h3.61l3.11,12,1,4,1.18-4,3.56-12h3.42l-6.49,20.74h-3.65l-3.3-12.42-.8-3.54-4.2,16Z"/><path id="ArialMT-63" class="cls-4" d="M310,505l3.45.45a8.88,8.88,0,0,1-2.9,5.6,8.45,8.45,0,0,1-5.73,2,8.92,8.92,0,0,1-6.85-2.78q-2.58-2.79-2.58-8a14.44,14.44,0,0,1,1.11-5.88,7.71,7.71,0,0,1,3.39-3.78,10,10,0,0,1,4.95-1.26,8.64,8.64,0,0,1,5.53,1.71,7.82,7.82,0,0,1,2.75,4.85l-3.42.53a5.67,5.67,0,0,0-1.7-3.14,4.43,4.43,0,0,0-3-1.06,5.47,5.47,0,0,0-4.32,1.91q-1.65,1.89-1.65,6c0,2.78.53,4.81,1.6,6.07a5.26,5.26,0,0,0,4.18,1.9,5,5,0,0,0,3.46-1.27A6.35,6.35,0,0,0,310,505Z"/><path id="ArialMT-6c-2" class="cls-4" d="M316.35,512.56V483.93h3.52v28.63Z"/><path id="ArialMT-6f-2" class="cls-4" d="M324,502.19q0-5.76,3.2-8.54a9.63,9.63,0,0,1,6.53-2.3,9.29,9.29,0,0,1,7,2.8c1.82,1.87,2.72,4.45,2.72,7.75a13.79,13.79,0,0,1-1.2,6.3,8.46,8.46,0,0,1-3.5,3.56,10.05,10.05,0,0,1-5,1.27,9.35,9.35,0,0,1-7.05-2.79C324.91,508.37,324,505.69,324,502.19Zm3.61,0c0,2.66.58,4.64,1.74,6a5.78,5.78,0,0,0,8.15.58,5.29,5.29,0,0,0,.58-.58q1.74-2,1.74-6.08a8.55,8.55,0,0,0-1.75-5.83,5.79,5.79,0,0,0-8.17-.55h0a4.76,4.76,0,0,0-.55.55q-1.73,1.94-1.73,5.91Z"/><path id="ArialMT-7a" class="cls-4" d="M345.71,512.56v-2.85l13.2-15.16c-1.5.08-2.83.12-4,.12h-8.46v-2.85h17v2.32L352.21,507.3l-2.16,2.41c1.57-.12,3.05-.17,4.43-.17h9.59v3Z"/><path id="ArialMT-65" class="cls-4" d="M381.76,505.88l3.64.45a8.91,8.91,0,0,1-3.19,4.94,10.78,10.78,0,0,1-13.15-1q-2.67-2.81-2.67-7.86c0-3.5.9-6.2,2.69-8.13a9.11,9.11,0,0,1,7-2.89,8.87,8.87,0,0,1,6.8,2.83c1.75,1.89,2.63,4.54,2.63,8v.94H370a8,8,0,0,0,1.93,5.23,5.74,5.74,0,0,0,4.34,1.82,5.34,5.34,0,0,0,3.3-1A6.71,6.71,0,0,0,381.76,505.88Zm-11.54-5.68H381.8a7,7,0,0,0-1.32-3.93,5.4,5.4,0,0,0-4.36-2,5.58,5.58,0,0,0-4.07,1.62A6.45,6.45,0,0,0,370.22,500.2Z"/></g></g><g id="xtick_2" data-name="xtick 2"><g id="text_2" data-name="text 2"><path id="ArialMT-68" class="cls-4" d="M524.32,512.56V483.93h3.51V494.2a7.84,7.84,0,0,1,6.21-2.85,8.41,8.41,0,0,1,4,.91,5.28,5.28,0,0,1,2.43,2.51,11.52,11.52,0,0,1,.73,4.65v13.14h-3.5V499.42a5.43,5.43,0,0,0-1.15-3.84,4.26,4.26,0,0,0-3.23-1.2,5.73,5.73,0,0,0-2.94.81,4.55,4.55,0,0,0-2,2.2,9.74,9.74,0,0,0-.59,3.82v11.35Z"/><path id="ArialMT-69" class="cls-4" d="M546.58,488v-4h3.52v4Zm0,24.59V491.82h3.52v20.74Z"/><path id="ArialMT-67" class="cls-4" d="M554.81,514.28l3.41.51a3.24,3.24,0,0,0,1.19,2.3,5.9,5.9,0,0,0,3.58,1,6.36,6.36,0,0,0,3.77-1,4.88,4.88,0,0,0,1.8-2.73,23.45,23.45,0,0,0,.25-4.51,7.22,7.22,0,0,1-5.74,2.71,7.84,7.84,0,0,1-6.63-3.09,11.85,11.85,0,0,1-2.34-7.4,13.86,13.86,0,0,1,1.07-5.47,8.6,8.6,0,0,1,3.12-3.88,8.34,8.34,0,0,1,4.8-1.37,7.43,7.43,0,0,1,6,3v-2.5h3.24v17.93c0,3.23-.33,5.51-1,6.86a7.13,7.13,0,0,1-3.12,3.19A10.81,10.81,0,0,1,563,521a10,10,0,0,1-6-1.67A5.63,5.63,0,0,1,554.81,514.28Zm2.9-12.46q0,4.08,1.62,5.95a5.35,5.35,0,0,0,7.53.6h0a5.48,5.48,0,0,0,.59-.59c1.09-1.25,1.63-3.2,1.64-5.85s-.56-4.45-1.69-5.74a5.22,5.22,0,0,0-4.07-1.94,5.06,5.06,0,0,0-4,1.91,8.41,8.41,0,0,0-1.63,5.67Z"/><path id="ArialMT-68-2" class="cls-4" d="M577.7,512.56V483.93h3.51V494.2a7.84,7.84,0,0,1,6.21-2.85,8.41,8.41,0,0,1,4,.91,5.28,5.28,0,0,1,2.43,2.51,11.52,11.52,0,0,1,.73,4.65v13.14h-3.51V499.42a5.43,5.43,0,0,0-1.15-3.84,4.26,4.26,0,0,0-3.23-1.2,5.73,5.73,0,0,0-2.94.81,4.55,4.55,0,0,0-2,2.2,9.74,9.74,0,0,0-.59,3.82v11.35Z"/><path id="ArialMT-63-2" class="cls-4" d="M624.59,505l3.46.45a9,9,0,0,1-2.91,5.6,8.39,8.39,0,0,1-5.73,2,8.91,8.91,0,0,1-6.84-2.78c-1.73-1.86-2.6-4.53-2.59-8a14.44,14.44,0,0,1,1.11-5.88,7.71,7.71,0,0,1,3.39-3.78,10,10,0,0,1,5-1.26,8.57,8.57,0,0,1,5.52,1.71,7.9,7.9,0,0,1,2.76,4.85l-3.42.53a5.65,5.65,0,0,0-1.73-3.14,4.45,4.45,0,0,0-3-1.06,5.47,5.47,0,0,0-4.32,1.91q-1.66,1.89-1.66,6c0,2.78.54,4.81,1.6,6.07a5.26,5.26,0,0,0,4.18,1.9,5,5,0,0,0,3.46-1.27A6.34,6.34,0,0,0,624.59,505Z"/><path id="ArialMT-6c-3" class="cls-4" d="M631,512.56V483.93h3.52v28.63Z"/><path id="ArialMT-6f-3" class="cls-4" d="M638.64,502.19c0-3.84,1.06-6.69,3.2-8.54a9.72,9.72,0,0,1,6.52-2.3,9.29,9.29,0,0,1,7,2.8,10.71,10.71,0,0,1,2.72,7.75,13.79,13.79,0,0,1-1.2,6.3,8.52,8.52,0,0,1-3.5,3.56,10.16,10.16,0,0,1-5,1.27,9.33,9.33,0,0,1-7-2.79Q638.64,507.44,638.64,502.19Zm3.61,0c0,2.66.58,4.64,1.74,6a5.78,5.78,0,0,0,8.15.58,5.29,5.29,0,0,0,.58-.58c1.15-1.33,1.72-3.36,1.73-6.08a8.55,8.55,0,0,0-1.75-5.83,5.79,5.79,0,0,0-8.16-.55h0a4.76,4.76,0,0,0-.55.55Q642.25,498.22,642.25,502.19Z"/><path id="ArialMT-7a-2" class="cls-4" d="M660.33,512.56v-2.85l13.21-15.16c-1.5.08-2.83.12-4,.12h-8.46v-2.85h17v2.32L666.84,507.3l-2.17,2.41c1.57-.12,3.05-.17,4.43-.17h9.59v3Z"/><path id="ArialMT-65-2" class="cls-4" d="M696.39,505.88l3.63.45a8.89,8.89,0,0,1-3.18,4.94,10.79,10.79,0,0,1-13.16-1q-2.67-2.81-2.67-7.86c0-3.5.9-6.2,2.7-8.13a9.11,9.11,0,0,1,7-2.89,8.87,8.87,0,0,1,6.8,2.83c1.76,1.89,2.64,4.54,2.64,8v.94h-15.5a8,8,0,0,0,1.93,5.23,5.74,5.74,0,0,0,4.34,1.82,5.34,5.34,0,0,0,3.3-1A6.83,6.83,0,0,0,696.39,505.88Zm-11.55-5.68h11.58a7,7,0,0,0-1.32-3.93,5.4,5.4,0,0,0-4.36-2,5.58,5.58,0,0,0-4.07,1.62A6.45,6.45,0,0,0,684.84,500.2Z"/></g></g><g id="text_3" data-name="text 3"><path id="ArialMT-63-3" class="cls-4" d="M424,548.64l3.88.51a10.14,10.14,0,0,1-3.26,6.3,9.49,9.49,0,0,1-6.45,2.27,10,10,0,0,1-7.7-3.13q-2.91-3.14-2.91-9a16.1,16.1,0,0,1,1.25-6.61,8.67,8.67,0,0,1,3.81-4.25,11.25,11.25,0,0,1,5.58-1.42,9.64,9.64,0,0,1,6.21,1.92,8.82,8.82,0,0,1,3.1,5.46l-3.84.6a6.43,6.43,0,0,0-1.95-3.54,5,5,0,0,0-3.38-1.19,6.19,6.19,0,0,0-4.86,2.15q-1.86,2.13-1.86,6.77t1.8,6.83a5.87,5.87,0,0,0,4.71,2.13A5.47,5.47,0,0,0,422,553,7.12,7.12,0,0,0,424,548.64Z"/><path id="ArialMT-6c-4" class="cls-4" d="M431.18,557.19V525h3.95v32.21Z"/><path id="ArialMT-6f-4" class="cls-4" d="M439.79,545.52q0-6.48,3.6-9.6a10.9,10.9,0,0,1,7.35-2.59,10.48,10.48,0,0,1,7.86,3.15q3,3.15,3,8.71a15.43,15.43,0,0,1-1.35,7.09,9.53,9.53,0,0,1-3.93,4,11.52,11.52,0,0,1-5.63,1.43,10.48,10.48,0,0,1-7.93-3.15Q439.81,551.43,439.79,545.52Zm4.07,0q0,4.49,1.95,6.71a6.53,6.53,0,0,0,9.21.62,6,6,0,0,0,.62-.62q2-2.25,1.95-6.84c0-2.89-.66-5.07-2-6.56a6.24,6.24,0,0,0-4.88-2.23,6.32,6.32,0,0,0-4.93,2.22C444.5,540.27,443.86,542.51,443.86,545.52Z"/><path id="ArialMT-7a-3" class="cls-4" d="M464.2,557.19V554l14.86-17c-1.69.09-3.18.13-4.47.13h-9.51v-3.21h19.08v2.62L471.52,551.3l-2.44,2.7c1.77-.13,3.44-.19,5-.19h10.79v3.4Z"/><path id="ArialMT-65-3" class="cls-4" d="M504.77,549.67l4.08.51a9.93,9.93,0,0,1-3.58,5.56,12.15,12.15,0,0,1-14.8-1.17q-3-3.17-3-8.85,0-5.9,3-9.14a10.26,10.26,0,0,1,7.87-3.25,10,10,0,0,1,7.65,3.18c2,2.12,3,5.11,3,9v1h-17.4a9,9,0,0,0,2.17,5.89,6.49,6.49,0,0,0,4.88,2,6,6,0,0,0,3.72-1.14A7.67,7.67,0,0,0,504.77,549.67Zm-13-6.39h13a7.87,7.87,0,0,0-1.49-4.41,6.05,6.05,0,0,0-4.9-2.29,6.35,6.35,0,0,0-4.59,1.82,7.23,7.23,0,0,0-2,4.88Z"/></g></g><g id="ytick_1" data-name="ytick 1"><g id="text_4" data-name="text 4"><path id="ArialMT-36" class="cls-4" d="M95.57,392.43l-3.49.27a6.52,6.52,0,0,0-1.33-3,4.6,4.6,0,0,0-3.51-1.51,4.81,4.81,0,0,0-2.95.94,8,8,0,0,0-2.62,3.53,18.62,18.62,0,0,0-1,6.62,8.25,8.25,0,0,1,3.11-2.87,8.44,8.44,0,0,1,3.85-.93,8,8,0,0,1,6,2.58,9.29,9.29,0,0,1,2.48,6.69,11,11,0,0,1-1.17,5,8.42,8.42,0,0,1-3.19,3.55,8.69,8.69,0,0,1-4.61,1.23A9,9,0,0,1,80,411.31q-2.77-3.24-2.77-10.66,0-8.29,3.06-12.07a8.84,8.84,0,0,1,7.21-3.28A7.64,7.64,0,0,1,95.57,392.43ZM81.22,404.78a8.17,8.17,0,0,0,.77,3.47,5.65,5.65,0,0,0,2.16,2.53,5.48,5.48,0,0,0,2.91.87,5,5,0,0,0,3.83-1.79,7.06,7.06,0,0,0,1.6-4.89,6.54,6.54,0,0,0-1.59-4.67,5.16,5.16,0,0,0-4-1.72,5.4,5.4,0,0,0-4,1.72A6.15,6.15,0,0,0,81.22,404.78Z"/><path id="ArialMT-30" class="cls-4" d="M99.58,399.93a26.21,26.21,0,0,1,1-8.17,10.06,10.06,0,0,1,3.1-4.78,7.94,7.94,0,0,1,5.18-1.68,8.55,8.55,0,0,1,4,.93,7.69,7.69,0,0,1,2.87,2.68,14.31,14.31,0,0,1,1.78,4.25,28.52,28.52,0,0,1,.64,6.77,26.26,26.26,0,0,1-1,8.13,10.11,10.11,0,0,1-3.09,4.79,8.71,8.71,0,0,1-11.71-1.28Q99.59,408,99.58,399.93Zm3.61,0q0,7.05,1.65,9.39a4.72,4.72,0,0,0,8.15,0q1.65-2.34,1.65-9.38c0-4.71-.55-7.85-1.65-9.39a4.89,4.89,0,0,0-4.11-2.33,4.5,4.5,0,0,0-3.87,2C103.8,392,103.2,395.24,103.19,399.93Z"/><path id="ArialMT-30-2" class="cls-4" d="M121.83,399.93a26.21,26.21,0,0,1,1-8.17A10.16,10.16,0,0,1,126,387a8,8,0,0,1,5.19-1.68,8.55,8.55,0,0,1,4,.93,7.69,7.69,0,0,1,2.87,2.68,14.31,14.31,0,0,1,1.78,4.25,28,28,0,0,1,.65,6.77,26.26,26.26,0,0,1-1,8.13,10.19,10.19,0,0,1-3.09,4.79,8,8,0,0,1-5.21,1.69,7.83,7.83,0,0,1-6.5-3Q121.83,408,121.83,399.93Zm3.61,0q0,7.05,1.65,9.39a4.71,4.71,0,0,0,6.44,1.7,4.77,4.77,0,0,0,1.7-1.7q1.65-2.34,1.65-9.38c0-4.71-.55-7.85-1.65-9.39a4.89,4.89,0,0,0-4.11-2.33,4.5,4.5,0,0,0-3.87,2C126,392,125.44,395.24,125.44,399.93Z"/></g></g><g id="ytick_2" data-name="ytick 2"><g id="text_5" data-name="text 5"><path id="ArialMT-38" class="cls-4" d="M82.74,248.34a6.56,6.56,0,0,1-3.24-2.29,6,6,0,0,1-1-3.55,6.93,6.93,0,0,1,2.24-5.25,9.45,9.45,0,0,1,12,.05A7,7,0,0,1,95,242.6a5.87,5.87,0,0,1-1,3.47,6.58,6.58,0,0,1-3.17,2.27,7.3,7.3,0,0,1,5.39,7.34,8.22,8.22,0,0,1-2.6,6.17,10.6,10.6,0,0,1-13.67,0,8.38,8.38,0,0,1-2.6-6.27,7.52,7.52,0,0,1,1.42-4.67A7.13,7.13,0,0,1,82.74,248.34Zm-.7-6a4.48,4.48,0,0,0,1.31,3.32,4.66,4.66,0,0,0,3.4,1.29,4.53,4.53,0,0,0,3.33-1.27,4.27,4.27,0,0,0,1.3-3.14A4.45,4.45,0,0,0,90,239.32a4.89,4.89,0,0,0-6.67,0A4.14,4.14,0,0,0,82,242.38ZM80.91,255.6a6.42,6.42,0,0,0,.71,2.92,5.18,5.18,0,0,0,2.12,2.18,6.29,6.29,0,0,0,3,.77,5.63,5.63,0,0,0,4.15-1.62,5.56,5.56,0,0,0,1.65-4.13,5.73,5.73,0,0,0-5.6-5.86h-.32a5.59,5.59,0,0,0-5.74,5.44h0v.3Z"/><path id="ArialMT-30-3" class="cls-4" d="M99.58,249.75a26.31,26.31,0,0,1,1-8.18,10,10,0,0,1,3.1-4.77,7.94,7.94,0,0,1,5.18-1.68,8.55,8.55,0,0,1,4,.93,7.75,7.75,0,0,1,2.87,2.67,14.26,14.26,0,0,1,1.78,4.26,28.52,28.52,0,0,1,.64,6.77,26.26,26.26,0,0,1-1,8.13,10.11,10.11,0,0,1-3.09,4.79,8,8,0,0,1-5.21,1.68,7.86,7.86,0,0,1-6.5-3Q99.59,257.81,99.58,249.75Zm3.61,0c0,4.67.55,7.79,1.65,9.38a4.71,4.71,0,0,0,8.15,0c1.1-1.56,1.65-4.69,1.65-9.37s-.55-7.85-1.65-9.4a4.88,4.88,0,0,0-4.11-2.32,4.5,4.5,0,0,0-3.87,2.05C103.8,241.82,103.2,245,103.19,249.75Z"/><path id="ArialMT-30-4" class="cls-4" d="M121.83,249.75a26.31,26.31,0,0,1,1-8.18,10.15,10.15,0,0,1,3.1-4.77,8,8,0,0,1,5.19-1.68,8.55,8.55,0,0,1,4,.93,7.75,7.75,0,0,1,2.87,2.67,14.26,14.26,0,0,1,1.78,4.26,28,28,0,0,1,.65,6.77,26.26,26.26,0,0,1-1,8.13,10.27,10.27,0,0,1-3.09,4.79,8,8,0,0,1-5.21,1.68,7.83,7.83,0,0,1-6.5-3Q121.82,257.81,121.83,249.75Zm3.61,0c0,4.67.55,7.79,1.65,9.38a4.7,4.7,0,0,0,8.14,0c1.1-1.56,1.65-4.69,1.65-9.37s-.55-7.85-1.65-9.4a4.88,4.88,0,0,0-4.11-2.32,4.52,4.52,0,0,0-3.87,2.05Q125.44,242.69,125.44,249.75Z"/></g></g><g id="ytick_3" data-name="ytick 3"><g id="text_6" data-name="text 6"><path id="ArialMT-31" class="cls-4" d="M68.33,113.68H64.82V91.28a18.39,18.39,0,0,1-3.33,2.42,24.41,24.41,0,0,1-3.7,1.82v-3.4a21.65,21.65,0,0,0,5.15-3.36,13.47,13.47,0,0,0,3.13-3.83h2.26Z"/><path id="ArialMT-30-5" class="cls-4" d="M77.34,99.56a26.21,26.21,0,0,1,1-8.17,10.18,10.18,0,0,1,3.1-4.78,8,8,0,0,1,5.19-1.68,8.55,8.55,0,0,1,4,.93,7.69,7.69,0,0,1,2.87,2.68,14.31,14.31,0,0,1,1.78,4.25A28.54,28.54,0,0,1,96,99.56a26.26,26.26,0,0,1-1,8.13,10.19,10.19,0,0,1-3.09,4.79,8,8,0,0,1-5.21,1.69,7.83,7.83,0,0,1-6.5-3Q77.34,107.63,77.34,99.56Zm3.61,0q0,7.05,1.65,9.39a4.71,4.71,0,0,0,6.44,1.7,4.77,4.77,0,0,0,1.7-1.7c1.1-1.57,1.65-4.69,1.65-9.38s-.55-7.85-1.65-9.39a4.89,4.89,0,0,0-4.11-2.33,4.54,4.54,0,0,0-3.87,2c-1.21,1.78-1.76,5-1.76,9.71Z"/><path id="ArialMT-30-6" class="cls-4" d="M99.58,99.56a25.92,25.92,0,0,1,1-8.17,10.06,10.06,0,0,1,3.1-4.78,7.93,7.93,0,0,1,5.19-1.68,8.55,8.55,0,0,1,4,.93,7.69,7.69,0,0,1,2.87,2.68,14.31,14.31,0,0,1,1.78,4.25,28.52,28.52,0,0,1,.64,6.77,26.26,26.26,0,0,1-1,8.13,10.13,10.13,0,0,1-3.1,4.79,8.7,8.7,0,0,1-11.7-1.28Q99.59,107.63,99.58,99.56Zm3.62,0q0,7.05,1.65,9.39a4.77,4.77,0,0,0,8.15,0c1.1-1.57,1.65-4.69,1.65-9.38s-.55-7.85-1.65-9.39a4.89,4.89,0,0,0-4.11-2.33,4.54,4.54,0,0,0-3.87,2C103.8,91.63,103.2,94.86,103.2,99.56Z"/><path id="ArialMT-30-7" class="cls-4" d="M121.83,99.56a26.21,26.21,0,0,1,1-8.17,10.18,10.18,0,0,1,3.1-4.78,8,8,0,0,1,5.19-1.68,8.55,8.55,0,0,1,4,.93A7.72,7.72,0,0,1,138,88.54a14.34,14.34,0,0,1,1.79,4.25,29.05,29.05,0,0,1,.64,6.77,26.26,26.26,0,0,1-1,8.13,10.19,10.19,0,0,1-3.09,4.79,8.71,8.71,0,0,1-11.71-1.28Q121.83,107.63,121.83,99.56Zm3.61,0q0,7.05,1.65,9.39a4.72,4.72,0,0,0,8.15,0c1.1-1.57,1.65-4.69,1.65-9.38s-.55-7.85-1.65-9.39a4.91,4.91,0,0,0-4.12-2.33,4.52,4.52,0,0,0-3.86,2C126.05,91.63,125.44,94.86,125.44,99.56Z"/></g></g><g id="text_7" data-name="text 7"><path id="ArialMT-4d" class="cls-4" d="M53.6,430.72H21.35V424.3l22.8-7.63c2.13-.7,3.73-1.21,4.78-1.54q-1.77-.54-5.17-1.7l-22.41-7.72V400H53.6v4.1h-27l27,9.37v3.84l-27.42,9.32H53.6Z"/><path id="ArialMT-65-4" class="cls-4" d="M46,377.63l.51-4.09a10,10,0,0,1,5.56,3.58,12.15,12.15,0,0,1-1.17,14.8q-3.16,3-8.85,3c-3.79,0-7-1-9.14-3A10.29,10.29,0,0,1,29.69,384a10,10,0,0,1,3.19-7.65q3.18-3,9-3h1.06v17.4a9,9,0,0,0,5.89-2.17,6.45,6.45,0,0,0,2-4.88,6,6,0,0,0-1.14-3.7A7.55,7.55,0,0,0,46,377.63Zm-6.39,13v-13a7.87,7.87,0,0,0-4.41,1.49A6,6,0,0,0,33,384a6.32,6.32,0,0,0,1.82,4.58,7.33,7.33,0,0,0,4.88,2Z"/><path id="ArialMT-61" class="cls-4" d="M50.68,353.35a14.75,14.75,0,0,1,2.64,4.23,12.22,12.22,0,0,1,.77,4.36,8.48,8.48,0,0,1-1.88,5.91,6.22,6.22,0,0,1-4.8,2.07A6.52,6.52,0,0,1,42,367.09a9.6,9.6,0,0,1-1.29-2.84,26.14,26.14,0,0,1-.6-3.52,36,36,0,0,0-1.36-7.05h-1a4.36,4.36,0,0,0-3.41,1.12A6.63,6.63,0,0,0,33,359.3a7,7,0,0,0,1,4.12,6,6,0,0,0,3.46,2l-.53,3.87a9.51,9.51,0,0,1-4-1.74A7.7,7.7,0,0,1,30.52,364a15.67,15.67,0,0,1-.83-5.3,14,14,0,0,1,.71-4.85,6.41,6.41,0,0,1,1.77-2.75,6.29,6.29,0,0,1,2.69-1.23,22.16,22.16,0,0,1,3.64-.2h5.28a56.41,56.41,0,0,0,7-.25,8.77,8.77,0,0,0,2.8-1v4.13A8.36,8.36,0,0,1,50.68,353.35Zm-8.84.33a28.73,28.73,0,0,1,1.5,6.46,14.54,14.54,0,0,0,.8,3.45,3.43,3.43,0,0,0,1.28,1.56,3.28,3.28,0,0,0,1.87.55,3.4,3.4,0,0,0,2.64-1.19A5.22,5.22,0,0,0,51,361a8.26,8.26,0,0,0-1-4.07,6.23,6.23,0,0,0-2.74-2.61,9.43,9.43,0,0,0-4-.64Z"/><path id="ArialMT-6e" class="cls-4" d="M53.6,343.55H30.22V340h3.32a8.39,8.39,0,0,1-3.85-7.42,9.94,9.94,0,0,1,.76-3.88,6.19,6.19,0,0,1,2-2.66,8,8,0,0,1,2.92-1.23,24.78,24.78,0,0,1,3.85-.21H53.6v4H39.36a10.52,10.52,0,0,0-3.61.46,3.76,3.76,0,0,0-1.91,1.63,5.13,5.13,0,0,0-.71,2.76,6.41,6.41,0,0,0,1.6,4.36c1.07,1.23,3.1,1.85,6.08,1.84H53.6Z"/><path id="ArialMT-52" class="cls-4" d="M53.6,305.45H21.35V291.17a19.13,19.13,0,0,1,.87-6.55A7.12,7.12,0,0,1,25.29,281a9,9,0,0,1,4.85-1.34,8.16,8.16,0,0,1,5.78,2.22q2.34,2.22,3,6.85a10.85,10.85,0,0,1,1.6-2.57,22.71,22.71,0,0,1,4.28-3.54l8.77-5.6v5.36l-6.7,4.26q-2.91,1.88-4.44,3.08a9.58,9.58,0,0,0-2.15,2.16,6.7,6.7,0,0,0-.87,1.95,14.44,14.44,0,0,0-.14,2.37v4.95H53.6Zm-18-4.26V292a13.84,13.84,0,0,0-.61-4.56A4.93,4.93,0,0,0,33,285a5.29,5.29,0,0,0-2.89-.86,4.79,4.79,0,0,0-3.76,1.66c-1,1.11-1.47,2.85-1.47,5.24v10.2Z"/><path id="ArialMT-54" class="cls-4" d="M53.6,265.61H25.15v10.61h-3.8V250.69h3.8v10.65H53.6Z"/><path id="ArialMT-28" class="cls-4" d="M63,227.55a39.7,39.7,0,0,1-9.67,5.54,30.37,30.37,0,0,1-21.49.57,42.15,42.15,0,0,1-11.07-6.11v-2.83c3.05,1.77,5.22,2.94,6.53,3.51a35,35,0,0,0,6.32,2.11,37,37,0,0,0,8.26.94q10.57,0,21.12-6.56Z"/><path id="ArialMT-6d" class="cls-4" d="M53.6,220.12H30.22v-3.53H33.5a8.48,8.48,0,0,1-2.76-2.92,8.28,8.28,0,0,1-1-4.16,7.65,7.65,0,0,1,1.08-4.25,5.67,5.67,0,0,1,3-2.34,8.39,8.39,0,0,1-4.09-7.21,7.12,7.12,0,0,1,1.92-5.34c1.28-1.24,3.25-1.87,5.92-1.87h16v3.94H38.86a10.62,10.62,0,0,0-3.41.39,3.15,3.15,0,0,0-1.68,1.39,4.29,4.29,0,0,0-.64,2.37,5.5,5.5,0,0,0,1.63,4.09c1.09,1.08,2.84,1.63,5.24,1.63H53.6v3.95H38.4a6.62,6.62,0,0,0-3.95,1,3.65,3.65,0,0,0-1.32,3.16,5.82,5.82,0,0,0,.87,3.09,5.06,5.06,0,0,0,2.6,2,14.32,14.32,0,0,0,4.87.64H53.6Z"/><path id="ArialMT-73" class="cls-4" d="M46.6,184.22l-.6-3.91a5.47,5.47,0,0,0,3.6-1.84,6.41,6.41,0,0,0,1.25-4.21,6.2,6.2,0,0,0-1.1-4,3.31,3.31,0,0,0-2.61-1.32A2.4,2.4,0,0,0,45,170.1a17.5,17.5,0,0,0-1.34,4.05,37,37,0,0,1-1.9,6,5.68,5.68,0,0,1-5.31,3.41,6.06,6.06,0,0,1-2.89-.71,6.38,6.38,0,0,1-2.21-1.95,8.29,8.29,0,0,1-1.15-2.51,11.63,11.63,0,0,1-.48-3.42,13.41,13.41,0,0,1,.8-4.82,6.53,6.53,0,0,1,2.06-3.07,8.41,8.41,0,0,1,3.61-1.36l.53,3.87a4.2,4.2,0,0,0-2.81,1.52,5.6,5.6,0,0,0-1,3.57,6.47,6.47,0,0,0,.9,3.89,2.61,2.61,0,0,0,2.11,1.17,2.23,2.23,0,0,0,1.38-.48,3.53,3.53,0,0,0,1.06-1.52c.14-.4.48-1.56,1-3.5a47.85,47.85,0,0,1,1.85-5.85,5.94,5.94,0,0,1,2.07-2.6,5.78,5.78,0,0,1,3.38-.95A6.76,6.76,0,0,1,50.43,166a7.48,7.48,0,0,1,2.7,3.34,11.86,11.86,0,0,1,1,4.91c0,3-.63,5.35-1.9,6.93A8.77,8.77,0,0,1,46.6,184.22Z"/><path id="ArialMT-29" class="cls-4" d="M63,157.54v2.84q-10.55-6.57-21.12-6.57a35.79,35.79,0,0,0-8.19.94,34.52,34.52,0,0,0-6.33,2.09q-3.37,1.6-6.59,3.54v-2.84a42.28,42.28,0,0,1,11.07-6.1,30.16,30.16,0,0,1,21.49.58A41,41,0,0,1,63,157.54Z"/></g><g id="patch_3" data-name="patch 3"><g class="cls-5"><path class="cls-6" d="M182.19,850.29H304.91V296.66H182.19Z"/></g></g><g id="patch_4" data-name="patch 4"><g class="cls-5"><path class="cls-6" d="M489,850.29H611.73V354.11H489Z"/></g></g><g id="patch_5" data-name="patch 5"><g class="cls-5"><path class="cls-7" d="M304.91,850.29H427.64V136.73H304.91Z"/></g></g><g id="patch_6" data-name="patch 6"><g class="cls-5"><path class="cls-7" d="M611.73,850.29H734.46V195.89H611.73Z"/></g></g><g id="line2d_1" data-name="line2d 1"><g class="cls-5"><path class="cls-8" d="M243.55,302.6v-12"/></g></g><g id="line2d_2" data-name="line2d 2"><g class="cls-5"><path class="cls-8" d="M550.37,360.2V348.3"/></g></g><g id="line2d_3" data-name="line2d 3"><g class="cls-5"><path class="cls-8" d="M366.28,144.91V128.27"/></g></g><g id="line2d_4" data-name="line2d 4"><g class="cls-5"><path class="cls-8" d="M673.1,204.27V187.41"/></g></g><g id="patch_7" data-name="patch 7"><path class="cls-9" d="M151.5,474.83V99.36"/></g><g id="patch_8" data-name="patch 8"><path class="cls-9" d="M151.5,474.83H765.14"/></g><g id="text_8" data-name="text 8"><path id="ArialMT-41" class="cls-4" d="M1.8,72.36,23.24,16.53h8L54.05,72.36H45.64L39.12,55.44H15.78L9.64,72.36ZM17.91,49.44H36.84L31,34q-2.67-7-4-11.58a71.6,71.6,0,0,1-3,10.67Z"/></g><g id="legend_1" data-name="legend 1"><g id="patch_9" data-name="patch 9"><path class="cls-6" d="M164.91,94.29h60v-21h-60Z"/></g><g id="text_9" data-name="text 9"><path id="ArialMT-43" class="cls-4" d="M266.55,86.76l2.84.72a9.58,9.58,0,0,1-3.22,5.34,8.85,8.85,0,0,1-5.67,1.84,10.19,10.19,0,0,1-5.65-1.41,8.82,8.82,0,0,1-3.31-4.1,14.58,14.58,0,0,1-1.14-5.76,12.74,12.74,0,0,1,1.28-5.85,8.84,8.84,0,0,1,3.65-3.79,10.66,10.66,0,0,1,5.21-1.3A8.82,8.82,0,0,1,266,74.09a8.61,8.61,0,0,1,3,4.62l-2.8.66A6.56,6.56,0,0,0,264.05,76a5.71,5.71,0,0,0-3.57-1.08,7,7,0,0,0-4.14,1.19A6.24,6.24,0,0,0,254,79.26a13.84,13.84,0,0,0,.13,8.9,6,6,0,0,0,2.48,3.06,7,7,0,0,0,3.65,1,6.12,6.12,0,0,0,4-1.38A7,7,0,0,0,266.55,86.76Z"/><path id="ArialMT-4f" class="cls-4" d="M272,83.84a11.87,11.87,0,0,1,2.87-8.38,9.76,9.76,0,0,1,7.42-3,10.2,10.2,0,0,1,5.36,1.42,9.38,9.38,0,0,1,3.64,4,12.94,12.94,0,0,1,1.25,5.77,12.71,12.71,0,0,1-1.32,5.84,8.87,8.87,0,0,1-3.74,3.9,10.55,10.55,0,0,1-5.21,1.33,10.22,10.22,0,0,1-5.42-1.46,9.4,9.4,0,0,1-3.62-4A12.25,12.25,0,0,1,272,83.84Zm2.93,0A8.61,8.61,0,0,0,277,90a7.28,7.28,0,0,0,10.28.24h0l.24-.24a9.12,9.12,0,0,0,2.07-6.4,10.93,10.93,0,0,0-.88-4.58,6.83,6.83,0,0,0-2.6-3,7,7,0,0,0-3.83-1.08A7.22,7.22,0,0,0,277.13,77c-1.42,1.33-2.13,3.63-2.13,6.88Z"/></g><g id="patch_10" data-name="patch 10"><path class="cls-7" d="M164.91,136.73h60v-21h-60Z"/></g><g id="text_10" data-name="text 10"><path id="ArialMT-43-2" class="cls-4" d="M266.55,129.2l2.84.72a9.58,9.58,0,0,1-3.22,5.34,8.86,8.86,0,0,1-5.67,1.83,10.19,10.19,0,0,1-5.65-1.41,8.8,8.8,0,0,1-3.31-4.09,14.58,14.58,0,0,1-1.14-5.76,12.62,12.62,0,0,1,1.28-5.85,8.73,8.73,0,0,1,3.65-3.79,10.66,10.66,0,0,1,5.21-1.3,8.83,8.83,0,0,1,5.42,1.64,8.59,8.59,0,0,1,3.06,4.61l-2.8.66a6.6,6.6,0,0,0-2.17-3.41,5.76,5.76,0,0,0-3.57-1.07,6.86,6.86,0,0,0-4.14,1.19A6.19,6.19,0,0,0,254,121.7a13.84,13.84,0,0,0,.13,8.9,6,6,0,0,0,2.48,3.05,6.89,6.89,0,0,0,3.65,1,6.13,6.13,0,0,0,4-1.37A7,7,0,0,0,266.55,129.2Z"/><path id="ArialMT-44" class="cls-4" d="M272.89,136.73V115.26h7.4a18.82,18.82,0,0,1,3.82.3,7.32,7.32,0,0,1,3.15,1.54,8.79,8.79,0,0,1,2.54,3.67,14.52,14.52,0,0,1,.84,5.1,15.13,15.13,0,0,1-.57,4.34,10.65,10.65,0,0,1-1.46,3.13,8.06,8.06,0,0,1-2,1.95,7.91,7.91,0,0,1-2.56,1.07,14.3,14.3,0,0,1-3.45.37Zm2.84-2.54h4.58a11.07,11.07,0,0,0,3.34-.39,4.66,4.66,0,0,0,1.92-1.12,6.69,6.69,0,0,0,1.58-2.71,13.48,13.48,0,0,0,.56-4.14,10,10,0,0,0-1.11-5.18,5.54,5.54,0,0,0-2.68-2.42,10.9,10.9,0,0,0-3.68-.44h-4.51Z"/></g></g><g id="patch_11" data-name="patch 11"><path class="cls-3" d="M151.5,962.93H765.14V587.47H151.5Z"/></g><g id="matplotlib.axis_3" data-name="matplotlib.axis 3"><g id="xtick_3" data-name="xtick 3"><g id="text_11" data-name="text 11"><path id="ArialMT-6e-2" class="cls-4" d="M215.65,1000.66V979.92h3.16v3a7.49,7.49,0,0,1,6.6-3.42,8.7,8.7,0,0,1,3.45.68,5.43,5.43,0,0,1,2.36,1.77,6.46,6.46,0,0,1,1.09,2.59,20.6,20.6,0,0,1,.2,3.42v12.75H229V988.05a9.48,9.48,0,0,0-.41-3.22,3.38,3.38,0,0,0-1.45-1.69,4.59,4.59,0,0,0-2.45-.64,5.66,5.66,0,0,0-3.88,1.43c-1.09,1-1.63,2.75-1.64,5.4v11.33Z"/><path id="ArialMT-6f-5" class="cls-4" d="M236.59,990.3c0-3.85,1.07-6.69,3.2-8.54a9.62,9.62,0,0,1,6.53-2.31,9.24,9.24,0,0,1,7,2.81c1.82,1.86,2.72,4.45,2.72,7.74a13.79,13.79,0,0,1-1.2,6.3,8.46,8.46,0,0,1-3.5,3.56,10.05,10.05,0,0,1-5,1.27,9.37,9.37,0,0,1-7-2.79Q236.58,995.55,236.59,990.3Zm3.61,0q0,4,1.74,6a5.79,5.79,0,0,0,8.17.56h0a4.94,4.94,0,0,0,.56-.56c1.16-1.33,1.74-3.36,1.74-6.07s-.58-4.51-1.75-5.83a5.78,5.78,0,0,0-8.15-.57,7.66,7.66,0,0,0-.57.57Q240.2,986.31,240.2,990.3Z"/><path id="ArialMT-6e-3" class="cls-4" d="M260.14,1000.66V979.92h3.17v3a7.45,7.45,0,0,1,6.6-3.42,8.7,8.7,0,0,1,3.45.68,5.35,5.35,0,0,1,2.35,1.77,6.84,6.84,0,0,1,1.1,2.59A21.07,21.07,0,0,1,277,988v12.75h-3.52v-12.7a9.48,9.48,0,0,0-.41-3.22,3.38,3.38,0,0,0-1.45-1.69,4.59,4.59,0,0,0-2.45-.64,5.66,5.66,0,0,0-3.88,1.43c-1.09,1-1.64,2.75-1.63,5.4v11.33Z"/><path id="ArialMT-2d" class="cls-4" d="M281,992.07v-3.54h10.8v3.54Z"/><path id="ArialMT-43-3" class="cls-4" d="M316.59,990.63l3.79,1a12.84,12.84,0,0,1-4.29,7.12,11.81,11.81,0,0,1-7.57,2.45,13.61,13.61,0,0,1-7.53-1.88,11.81,11.81,0,0,1-4.41-5.46,19.45,19.45,0,0,1-1.51-7.68,16.85,16.85,0,0,1,1.7-7.8,11.78,11.78,0,0,1,4.86-5,14.16,14.16,0,0,1,6.95-1.73,11.73,11.73,0,0,1,7.22,2.18,11.36,11.36,0,0,1,4.09,6.15l-3.73.88a8.89,8.89,0,0,0-2.89-4.55,7.76,7.76,0,0,0-4.77-1.43,9.26,9.26,0,0,0-5.52,1.59,8.38,8.38,0,0,0-3.11,4.25,17.07,17.07,0,0,0-.9,5.49,17.78,17.78,0,0,0,1.06,6.38,8,8,0,0,0,3.31,4.07,9.29,9.29,0,0,0,4.87,1.35,8.13,8.13,0,0,0,5.39-1.83A9.44,9.44,0,0,0,316.59,990.63Z"/><path id="ArialMT-6f-6" class="cls-4" d="M323.29,990.3c0-3.85,1.07-6.69,3.2-8.54a9.62,9.62,0,0,1,6.53-2.31,9.24,9.24,0,0,1,7,2.81c1.82,1.86,2.72,4.45,2.72,7.74a13.79,13.79,0,0,1-1.2,6.3,8.46,8.46,0,0,1-3.5,3.56,10.05,10.05,0,0,1-5,1.27,9.37,9.37,0,0,1-7-2.79Q323.28,995.55,323.29,990.3Zm3.61,0q0,4,1.74,6a5.79,5.79,0,0,0,8.17.56h0a4.94,4.94,0,0,0,.56-.56c1.16-1.33,1.74-3.36,1.74-6.07s-.58-4.51-1.75-5.83a5.78,5.78,0,0,0-8.15-.57,7.66,7.66,0,0,0-.57.57Q326.9,986.31,326.9,990.3Z"/><path id="ArialMT-52-2" class="cls-4" d="M347.35,1000.66V972H360a16.65,16.65,0,0,1,5.82.78A6.32,6.32,0,0,1,369,975.5a8.22,8.22,0,0,1,1.19,4.32,7.2,7.2,0,0,1-2,5.13,10,10,0,0,1-6.1,2.66,9.33,9.33,0,0,1,2.29,1.42,20.53,20.53,0,0,1,3.15,3.81l5,7.79h-4.77L364,994.71c-1.11-1.72-2-3.05-2.74-4a8.29,8.29,0,0,0-1.92-1.91,5.73,5.73,0,0,0-1.73-.77,12.34,12.34,0,0,0-2.1-.13h-4.4v12.71Zm3.79-16h8.15a12,12,0,0,0,4-.54,4.29,4.29,0,0,0,2.23-1.72,4.66,4.66,0,0,0,.77-2.56,4.28,4.28,0,0,0-1.48-3.34,6.87,6.87,0,0,0-4.66-1.31h-9.06Z"/><path id="ArialMT-54-2" class="cls-4" d="M382.76,1000.66V975.41h-9.43V972H396v3.38h-9.47v25.25Z"/></g></g><g id="xtick_4" data-name="xtick 4"><g id="text_12" data-name="text 12"><path id="ArialMT-43-4" class="cls-4" d="M583.38,990.63l3.78,1a12.73,12.73,0,0,1-4.28,7.12,11.89,11.89,0,0,1-7.57,2.45,13.61,13.61,0,0,1-7.53-1.88,11.78,11.78,0,0,1-4.42-5.46,19.45,19.45,0,0,1-1.51-7.68,16.86,16.86,0,0,1,1.71-7.8,11.78,11.78,0,0,1,4.86-5,14.15,14.15,0,0,1,6.94-1.73,11.76,11.76,0,0,1,7.23,2.18,11.51,11.51,0,0,1,4.09,6.15l-3.74.88a8.89,8.89,0,0,0-2.89-4.55,7.73,7.73,0,0,0-4.76-1.43,9.26,9.26,0,0,0-5.52,1.59,8.31,8.31,0,0,0-3.12,4.25,16.8,16.8,0,0,0-.89,5.49,17.35,17.35,0,0,0,1.06,6.38,8,8,0,0,0,3.31,4.07A9.28,9.28,0,0,0,575,998a8.13,8.13,0,0,0,5.39-1.83A9.44,9.44,0,0,0,583.38,990.63Z"/><path id="ArialMT-6f-7" class="cls-4" d="M590.07,990.3c0-3.85,1.07-6.69,3.2-8.54a9.68,9.68,0,0,1,6.53-2.31,9.32,9.32,0,0,1,7,2.81,10.69,10.69,0,0,1,2.72,7.74,13.79,13.79,0,0,1-1.2,6.3,8.46,8.46,0,0,1-3.5,3.56,10.16,10.16,0,0,1-5,1.27,9.33,9.33,0,0,1-7-2.79Q590.09,995.55,590.07,990.3Zm3.62,0q0,4,1.73,6a5.8,5.8,0,0,0,8.18.56,4.94,4.94,0,0,0,.56-.56c1.15-1.33,1.73-3.36,1.73-6.07s-.58-4.51-1.75-5.83a5.51,5.51,0,0,0-4.34-2,5.59,5.59,0,0,0-4.38,2Q593.69,986.31,593.69,990.3Z"/><path id="ArialMT-52-3" class="cls-4" d="M614.13,1000.66V972h12.7a16.88,16.88,0,0,1,5.82.78,6.32,6.32,0,0,1,3.18,2.72,8.05,8.05,0,0,1,1.2,4.32,7.2,7.2,0,0,1-2,5.13,10,10,0,0,1-6.09,2.66,9.85,9.85,0,0,1,2.29,1.42,20.48,20.48,0,0,1,3.14,3.81l5,7.79H634.6l-3.79-6c-1.1-1.72-2-3-2.73-4a8.29,8.29,0,0,0-1.92-1.91,5.84,5.84,0,0,0-1.73-.77,12.4,12.4,0,0,0-2.11-.13h-4.4v12.71Zm3.79-16h8.15a12.14,12.14,0,0,0,4.06-.54,4.33,4.33,0,0,0,2.23-1.72,4.57,4.57,0,0,0,.76-2.56,4.22,4.22,0,0,0-1.47-3.34,6.89,6.89,0,0,0-4.65-1.3h-9.06Z"/><path id="ArialMT-54-3" class="cls-4" d="M649.55,1000.66V975.41h-9.44V972h22.7v3.38h-9.47v25.25Z"/></g></g><g id="text_13" data-name="text 13"><path id="ArialMT-43-5" class="cls-4" d="M426.42,1033.53l4.26,1.08a14.39,14.39,0,0,1-4.82,8,13.36,13.36,0,0,1-8.52,2.75,15.34,15.34,0,0,1-8.47-2.11,13.28,13.28,0,0,1-5-6.15,21.68,21.68,0,0,1-1.7-8.63,19,19,0,0,1,1.92-8.78,13.18,13.18,0,0,1,5.47-5.69,16,16,0,0,1,7.81-1.94,13.21,13.21,0,0,1,8.13,2.46,12.79,12.79,0,0,1,4.59,6.92l-4.19,1a10,10,0,0,0-3.26-5.12,8.57,8.57,0,0,0-5.36-1.61,10.35,10.35,0,0,0-6.2,1.78,9.34,9.34,0,0,0-3.51,4.78,19.15,19.15,0,0,0-1,6.19,19.69,19.69,0,0,0,1.2,7.17,8.84,8.84,0,0,0,3.72,4.58,10.44,10.44,0,0,0,5.47,1.51,9.09,9.09,0,0,0,6.06-2.06A10.55,10.55,0,0,0,426.42,1033.53Z"/><path id="ArialMT-6f-8" class="cls-4" d="M434,1033.16q0-6.48,3.6-9.61a10.83,10.83,0,0,1,7.34-2.59,10.4,10.4,0,0,1,7.86,3.16q3.06,3.15,3.06,8.71a15.56,15.56,0,0,1-1.35,7.09,9.5,9.5,0,0,1-3.94,4,11.31,11.31,0,0,1-5.63,1.43,10.49,10.49,0,0,1-7.92-3.14Q433.95,1039.06,434,1033.16Zm4.06,0c0,3,.65,5.22,2,6.71a6.51,6.51,0,0,0,9.82,0c1.3-1.5,1.95-3.77,1.95-6.83,0-2.89-.67-5.07-2-6.56a6.52,6.52,0,0,0-9.2-.61,5.85,5.85,0,0,0-.61.61c-1.35,1.45-2,3.69-2,6.68Z"/><path id="ArialMT-52-4" class="cls-4" d="M461,1044.82v-32.21h14.29a18.58,18.58,0,0,1,6.54.88,7.08,7.08,0,0,1,3.59,3.06,9.12,9.12,0,0,1,1.34,4.85,8.16,8.16,0,0,1-2.22,5.78c-1.48,1.57-3.77,2.56-6.86,3a10.91,10.91,0,0,1,2.58,1.6,22.34,22.34,0,0,1,3.53,4.29l5.61,8.76H484l-4.26-6.7c-1.25-1.93-2.27-3.41-3.08-4.43a9.62,9.62,0,0,0-2.16-2.16,6,6,0,0,0-1.94-.86,13.42,13.42,0,0,0-2.37-.15h-5v14.3Zm4.27-18h9.16a13.85,13.85,0,0,0,4.57-.6,4.88,4.88,0,0,0,2.51-1.94,5.29,5.29,0,0,0,.86-2.89,4.77,4.77,0,0,0-1.66-3.75q-1.66-1.5-5.25-1.48H465.29Z"/><path id="ArialMT-54-4" class="cls-4" d="M500.86,1044.82v-28.41H490.25v-3.8h25.53v3.8H505.13v28.41Z"/></g></g><g id="ytick_4" data-name="ytick 4"><g id="text_14" data-name="text 14"><path id="ArialMT-36-2" class="cls-4" d="M95.57,880.54l-3.49.27a6.52,6.52,0,0,0-1.33-3,4.6,4.6,0,0,0-3.51-1.51,4.81,4.81,0,0,0-2.95.94,7.94,7.94,0,0,0-2.62,3.54,18.62,18.62,0,0,0-1,6.62,8,8,0,0,1,3.11-2.87,8.33,8.33,0,0,1,3.85-.94,8,8,0,0,1,6,2.59,9.25,9.25,0,0,1,2.48,6.69,11,11,0,0,1-1.17,5,8.46,8.46,0,0,1-3.19,3.54,8.69,8.69,0,0,1-4.61,1.23A9,9,0,0,1,80,899.41q-2.77-3.23-2.77-10.65,0-8.31,3.06-12.07a8.82,8.82,0,0,1,7.21-3.28A8.12,8.12,0,0,1,93,875.3,8,8,0,0,1,95.57,880.54ZM81.22,892.88a8.21,8.21,0,0,0,.77,3.48,5.78,5.78,0,0,0,2.16,2.53,5.48,5.48,0,0,0,2.91.87,5,5,0,0,0,3.83-1.8,7.06,7.06,0,0,0,1.6-4.89,6.54,6.54,0,0,0-1.59-4.67,5.2,5.2,0,0,0-4-1.71,5.46,5.46,0,0,0-4,1.71A6.19,6.19,0,0,0,81.22,892.88Z"/><path id="ArialMT-30-8" class="cls-4" d="M99.58,888a26.31,26.31,0,0,1,1-8.18,10,10,0,0,1,3.1-4.77,7.94,7.94,0,0,1,5.18-1.68,8.55,8.55,0,0,1,4,.93,7.75,7.75,0,0,1,2.87,2.67,14.26,14.26,0,0,1,1.78,4.26,28,28,0,0,1,.64,6.77,26.26,26.26,0,0,1-1,8.13,10.11,10.11,0,0,1-3.09,4.79,8,8,0,0,1-5.21,1.68,7.86,7.86,0,0,1-6.5-3Q99.59,896.11,99.58,888Zm3.61,0q0,7.05,1.65,9.38a4.71,4.71,0,0,0,8.15,0c1.1-1.56,1.65-4.69,1.65-9.37s-.55-7.85-1.65-9.4a4.88,4.88,0,0,0-4.11-2.32,4.48,4.48,0,0,0-3.87,2C103.8,880.1,103.2,883.33,103.19,888Z"/><path id="ArialMT-30-9" class="cls-4" d="M121.83,888a26.31,26.31,0,0,1,1-8.18,10.15,10.15,0,0,1,3.1-4.77,8,8,0,0,1,5.19-1.68,8.43,8.43,0,0,1,4,.93A7.62,7.62,0,0,1,138,877a14.26,14.26,0,0,1,1.78,4.26,28,28,0,0,1,.65,6.77,26.26,26.26,0,0,1-1,8.13,10.27,10.27,0,0,1-3.09,4.79,8,8,0,0,1-5.21,1.68,7.83,7.83,0,0,1-6.5-3Q121.83,896.11,121.83,888Zm3.61,0q0,7.05,1.65,9.38a4.7,4.7,0,0,0,8.14,0c1.1-1.56,1.65-4.69,1.65-9.37s-.55-7.85-1.65-9.4a4.88,4.88,0,0,0-4.11-2.32,4.5,4.5,0,0,0-3.87,2C126,880.1,125.44,883.33,125.44,888Z"/></g></g><g id="ytick_5" data-name="ytick 5"><g id="text_15" data-name="text 15"><path id="ArialMT-38-2" class="cls-4" d="M82.74,736.44a6.61,6.61,0,0,1-3.24-2.28,6,6,0,0,1-1-3.56,7,7,0,0,1,2.24-5.25,9.44,9.44,0,0,1,12,0A7,7,0,0,1,95,730.7a5.87,5.87,0,0,1-1,3.47,6.58,6.58,0,0,1-3.17,2.27,7.31,7.31,0,0,1,5.37,7.35A8.27,8.27,0,0,1,93.6,750a10.58,10.58,0,0,1-13.67,0,8.36,8.36,0,0,1-2.6-6.26,7.57,7.57,0,0,1,1.38-4.7A7.08,7.08,0,0,1,82.74,736.44Zm-.7-6a4.51,4.51,0,0,0,1.31,3.33,4.65,4.65,0,0,0,3.4,1.28,4.53,4.53,0,0,0,3.33-1.27,4.27,4.27,0,0,0,1.3-3.14A4.33,4.33,0,0,0,90,727.43a4.91,4.91,0,0,0-6.67,0A4.15,4.15,0,0,0,82,730.48Zm-1.13,13.23a6.41,6.41,0,0,0,.71,2.91,5.07,5.07,0,0,0,2.12,2.18,6.29,6.29,0,0,0,3,.77A5.68,5.68,0,0,0,90.92,748a5.53,5.53,0,0,0,1.65-4.12,5.6,5.6,0,0,0-1.69-4.2A5.81,5.81,0,0,0,86.65,738a5.61,5.61,0,0,0-5.74,5.48h0Z"/><path id="ArialMT-30-10" class="cls-4" d="M99.58,737.85a25.92,25.92,0,0,1,1-8.17,10.06,10.06,0,0,1,3.1-4.78,7.94,7.94,0,0,1,5.18-1.68,8.55,8.55,0,0,1,4,.93,7.69,7.69,0,0,1,2.87,2.68,14.31,14.31,0,0,1,1.78,4.25,28.52,28.52,0,0,1,.64,6.77,26.26,26.26,0,0,1-1,8.13,10.11,10.11,0,0,1-3.09,4.79,8,8,0,0,1-5.21,1.69,7.86,7.86,0,0,1-6.5-3C100.53,747.1,99.58,743.23,99.58,737.85Zm3.61,0q0,7,1.65,9.39a4.72,4.72,0,0,0,8.15,0c1.1-1.57,1.65-4.69,1.65-9.38s-.55-7.85-1.65-9.39a4.89,4.89,0,0,0-4.11-2.33,4.5,4.5,0,0,0-3.87,2C103.8,729.92,103.19,733.15,103.19,737.85Z"/><path id="ArialMT-30-11" class="cls-4" d="M121.83,737.85a26.21,26.21,0,0,1,1-8.17,10.18,10.18,0,0,1,3.1-4.78,8,8,0,0,1,5.19-1.68,8.43,8.43,0,0,1,4,.93,7.69,7.69,0,0,1,2.87,2.68,14.31,14.31,0,0,1,1.78,4.25,28,28,0,0,1,.65,6.77,26.26,26.26,0,0,1-1,8.13,10.27,10.27,0,0,1-3.09,4.79,8,8,0,0,1-5.21,1.69,7.83,7.83,0,0,1-6.5-3C122.77,747.1,121.83,743.23,121.83,737.85Zm3.61,0q0,7,1.65,9.39a4.71,4.71,0,0,0,6.44,1.7,4.77,4.77,0,0,0,1.7-1.7c1.1-1.57,1.65-4.69,1.65-9.38s-.55-7.85-1.65-9.39a4.89,4.89,0,0,0-4.11-2.33,4.54,4.54,0,0,0-3.87,2C126,729.92,125.44,733.15,125.44,737.85Z"/></g></g><g id="ytick_6" data-name="ytick 6"><g id="text_16" data-name="text 16"><path id="ArialMT-31-2" class="cls-4" d="M68.33,601.78H64.82v-22.4a18.39,18.39,0,0,1-3.33,2.42,24.41,24.41,0,0,1-3.7,1.82v-3.4a21.31,21.31,0,0,0,5.15-3.35A13.17,13.17,0,0,0,66.07,573h2.26Z"/><path id="ArialMT-30-12" class="cls-4" d="M77.34,587.67a26.31,26.31,0,0,1,1-8.18,10.15,10.15,0,0,1,3.1-4.77A7.93,7.93,0,0,1,86.67,573a8.3,8.3,0,0,1,4,.94,7.59,7.59,0,0,1,2.87,2.67,14.26,14.26,0,0,1,1.78,4.26,28,28,0,0,1,.65,6.77,26.26,26.26,0,0,1-1,8.13,10.29,10.29,0,0,1-3.09,4.78,8,8,0,0,1-5.21,1.69,7.83,7.83,0,0,1-6.5-3Q77.34,595.73,77.34,587.67Zm3.61,0c0,4.7.55,7.82,1.65,9.38a4.71,4.71,0,0,0,6.44,1.7,4.77,4.77,0,0,0,1.7-1.7c1.1-1.56,1.65-4.69,1.65-9.37s-.55-7.85-1.65-9.4A4.9,4.9,0,0,0,86.63,576a4.5,4.5,0,0,0-3.87,2q-1.82,2.61-1.76,9.67Z"/><path id="ArialMT-30-13" class="cls-4" d="M99.58,587.67a26.31,26.31,0,0,1,1-8.18,10,10,0,0,1,3.1-4.77,7.9,7.9,0,0,1,5.19-1.69,8.3,8.3,0,0,1,4,.94,7.75,7.75,0,0,1,2.87,2.67,14.26,14.26,0,0,1,1.78,4.26,28,28,0,0,1,.64,6.77,26.26,26.26,0,0,1-1,8.13,10.06,10.06,0,0,1-3.1,4.78,8.7,8.7,0,0,1-11.7-1.28Q99.59,595.73,99.58,587.67Zm3.62,0c0,4.7.55,7.82,1.65,9.38a4.71,4.71,0,0,0,6.44,1.7,4.77,4.77,0,0,0,1.7-1.7c1.1-1.56,1.65-4.69,1.65-9.37s-.55-7.85-1.65-9.4a4.88,4.88,0,0,0-4.11-2.32,4.5,4.5,0,0,0-3.87,2C103.8,579.73,103.2,583,103.2,587.67Z"/><path id="ArialMT-30-14" class="cls-4" d="M121.83,587.67a26.31,26.31,0,0,1,1-8.18,10.15,10.15,0,0,1,3.1-4.77,7.92,7.92,0,0,1,5.19-1.69,8.41,8.41,0,0,1,4,.94,7.72,7.72,0,0,1,2.86,2.67,14,14,0,0,1,1.79,4.26,28.52,28.52,0,0,1,.64,6.77,26.26,26.26,0,0,1-1,8.13,10.29,10.29,0,0,1-3.09,4.78,8.71,8.71,0,0,1-11.71-1.28Q121.82,595.73,121.83,587.67Zm3.61,0c0,4.7.55,7.82,1.65,9.38a4.72,4.72,0,0,0,8.15,0c1.1-1.56,1.65-4.69,1.65-9.37s-.55-7.85-1.65-9.4a4.88,4.88,0,0,0-4.12-2.32,4.49,4.49,0,0,0-3.86,2C126.05,579.73,125.45,583,125.44,587.67Z"/></g></g><g id="text_17" data-name="text 17"><path id="ArialMT-4d-2" class="cls-4" d="M53.6,918.82H21.35V912.4l22.8-7.62c2.13-.7,3.72-1.22,4.78-1.54q-1.77-.56-5.17-1.71l-22.41-7.71v-5.74H53.6v4.11h-27l27,9.36v3.85l-27.42,9.31H53.6Z"/><path id="ArialMT-65-5" class="cls-4" d="M46,865.73l.51-4.08a9.93,9.93,0,0,1,5.56,3.58A12.13,12.13,0,0,1,50.94,880q-3.16,3-8.85,3-5.9,0-9.14-3a10.31,10.31,0,0,1-3.26-7.87,10,10,0,0,1,3.19-7.65q3.18-3,9-3h1.06v17.41a9,9,0,0,0,5.89-2.18,6.45,6.45,0,0,0,2-4.88,6,6,0,0,0-1.14-3.71A7.65,7.65,0,0,0,46,865.73Zm-6.39,13v-13a7.87,7.87,0,0,0-4.41,1.49,6.05,6.05,0,0,0-2.29,4.9,6.35,6.35,0,0,0,1.82,4.59,7.23,7.23,0,0,0,4.88,2Z"/><path id="ArialMT-61-2" class="cls-4" d="M50.68,841.45a15,15,0,0,1,2.64,4.23,12.22,12.22,0,0,1,.77,4.36,8.52,8.52,0,0,1-1.88,6,6.21,6.21,0,0,1-4.8,2.06,6.35,6.35,0,0,1-3.13-.78,6.46,6.46,0,0,1-2.28-2,9.65,9.65,0,0,1-1.29-2.85,26.14,26.14,0,0,1-.6-3.52,36.25,36.25,0,0,0-1.36-7h-1a4.37,4.37,0,0,0-3.41,1A6.63,6.63,0,0,0,33,847.5a7,7,0,0,0,1,4.12,6,6,0,0,0,3.46,2l-.53,3.87a9.51,9.51,0,0,1-4-1.74,7.66,7.66,0,0,1-2.35-3.49,15.58,15.58,0,0,1-.83-5.29,14.11,14.11,0,0,1,.65-5,6.59,6.59,0,0,1,1.77-2.75A6.4,6.4,0,0,1,34.86,838a23.31,23.31,0,0,1,3.64-.19h5.28a54.55,54.55,0,0,0,7-.26,8.77,8.77,0,0,0,2.8-1v4.13A8.31,8.31,0,0,1,50.68,841.45Zm-8.84.33a28.73,28.73,0,0,1,1.5,6.46,15.25,15.25,0,0,0,.8,3.46,3.43,3.43,0,0,0,1.28,1.56,3.52,3.52,0,0,0,4.51-.65A5.16,5.16,0,0,0,51,849.1a8.16,8.16,0,0,0-1-4.1,6.09,6.09,0,0,0-2.74-2.62,9.43,9.43,0,0,0-4-.64Z"/><path id="ArialMT-6e-4" class="cls-4" d="M53.6,831.65H30.22V828.1h3.32a8.42,8.42,0,0,1-3.85-7.43,9.94,9.94,0,0,1,.76-3.88,6.1,6.1,0,0,1,2-2.65,7.62,7.62,0,0,1,2.92-1.23,22.49,22.49,0,0,1,3.85-.22H53.6v4H39.36a10.52,10.52,0,0,0-3.61.46,3.81,3.81,0,0,0-1.91,1.63,5.24,5.24,0,0,0-.71,2.76,6.44,6.44,0,0,0,1.6,4.37c1.07,1.22,3.09,1.83,6.08,1.83H53.6Z"/><path id="ArialMT-52-5" class="cls-4" d="M53.6,793.55H21.35V779.27a18.83,18.83,0,0,1,.87-6.54,7.19,7.19,0,0,1,3.07-3.59,9.12,9.12,0,0,1,4.85-1.34,8.1,8.1,0,0,1,5.78,2.2q2.34,2.22,3,6.86a10.91,10.91,0,0,1,1.6-2.58,22,22,0,0,1,4.28-3.53l8.8-5.59v5.37l-6.7,4.26c-1.94,1.25-3.42,2.27-4.44,3.08A9.63,9.63,0,0,0,40.27,780a6.61,6.61,0,0,0-.87,2,14.44,14.44,0,0,0-.14,2.37v5H53.6Zm-18-4.26v-9.17a13.84,13.84,0,0,0-.61-4.56,4.92,4.92,0,0,0-1.93-2.51,5.29,5.29,0,0,0-2.89-.86,4.79,4.79,0,0,0-3.76,1.66q-1.47,1.67-1.47,5.25v10.19Z"/><path id="ArialMT-54-5" class="cls-4" d="M53.6,753.72H25.15v10.61h-3.8V738.8h3.8v10.65H53.6Z"/><path id="ArialMT-28-2" class="cls-4" d="M63,715.65a39.7,39.7,0,0,1-9.67,5.54,30.37,30.37,0,0,1-21.49.57,41.59,41.59,0,0,1-11.07-6.11v-2.83c3.05,1.77,5.22,2.94,6.53,3.51a35,35,0,0,0,6.32,2.11,36.47,36.47,0,0,0,8.26.95q10.57,0,21.12-6.57Z"/><path id="ArialMT-6d-2" class="cls-4" d="M53.6,708.23H30.22v-3.54H33.5a8.25,8.25,0,0,1-3.81-7.07,7.68,7.68,0,0,1,1.08-4.26,5.85,5.85,0,0,1,3-2.34,8.39,8.39,0,0,1-4.09-7.21,7.09,7.09,0,0,1,1.92-5.33q1.92-1.87,5.92-1.87H53.6v3.93H38.86a10.62,10.62,0,0,0-3.41.39,3.32,3.32,0,0,0-1.68,1.39,4.29,4.29,0,0,0-.64,2.37,5.5,5.5,0,0,0,1.63,4.09q1.64,1.63,5.24,1.63H53.6v4H38.4a6.62,6.62,0,0,0-3.95,1,3.65,3.65,0,0,0-1.32,3.16,5.82,5.82,0,0,0,.87,3.09,5,5,0,0,0,2.58,2,14.32,14.32,0,0,0,4.87.64H53.6Z"/><path id="ArialMT-73-2" class="cls-4" d="M46.6,672.32l-.6-3.91a5.5,5.5,0,0,0,3.6-1.83,6.41,6.41,0,0,0,1.25-4.21,6.26,6.26,0,0,0-1.1-4A3.34,3.34,0,0,0,47.12,657,2.4,2.4,0,0,0,45,658.17a17.12,17.12,0,0,0-1.34,4,37,37,0,0,1-1.9,6,6,6,0,0,1-7.92,3l-.08,0-.29-.14a6.42,6.42,0,0,1-2.21-2,8.29,8.29,0,0,1-1.15-2.51,11.63,11.63,0,0,1-.48-3.42,13.41,13.41,0,0,1,.8-4.82,6.47,6.47,0,0,1,2.11-3.06,8.42,8.42,0,0,1,3.61-1.37l.53,3.87a4.21,4.21,0,0,0-2.81,1.53,5.6,5.6,0,0,0-1,3.57,6.47,6.47,0,0,0,.9,3.89,2.63,2.63,0,0,0,2.11,1.16,2.23,2.23,0,0,0,1.38-.48,3.53,3.53,0,0,0,1.06-1.52c.14-.39.48-1.56,1-3.49a47.85,47.85,0,0,1,1.85-5.85A5.55,5.55,0,0,1,46.62,653a6.71,6.71,0,0,1,3.73,1.16,7.53,7.53,0,0,1,2.7,3.33,12.07,12.07,0,0,1,1,4.92q0,4.54-1.9,6.93A8.75,8.75,0,0,1,46.6,672.32Z"/><path id="ArialMT-29-2" class="cls-4" d="M63,645.65v2.83q-10.55-6.57-21.12-6.57a36.62,36.62,0,0,0-14.52,3q-3.37,1.61-6.59,3.54v-2.83a42.15,42.15,0,0,1,11.07-6.11,30.26,30.26,0,0,1,21.49.59A40.06,40.06,0,0,1,63,645.65Z"/></g><g id="patch_12" data-name="patch 12"><g class="cls-10"><path class="cls-6" d="M182.19,1338.4H304.91v-524H182.19Z"/></g></g><g id="patch_13" data-name="patch 13"><g class="cls-10"><path class="cls-6" d="M489,1338.4H611.73v-525H489Z"/></g></g><g id="patch_14" data-name="patch 14"><g class="cls-10"><path class="cls-7" d="M304.91,1338.4H427.64V652.16H304.91Z"/></g></g><g id="patch_15" data-name="patch 15"><g class="cls-10"><path class="cls-7" d="M611.73,1338.4H734.46v-680H611.73Z"/></g></g><g id="line2d_5" data-name="line2d 5"><g class="cls-10"><path class="cls-8" d="M243.55,820.5V807.9"/></g></g><g id="line2d_6" data-name="line2d 6"><g class="cls-10"><path class="cls-8" d="M550.37,820.06V807.19"/></g></g><g id="line2d_7" data-name="line2d 7"><g class="cls-10"><path class="cls-8" d="M366.28,660.16V643.59"/></g></g><g id="line2d_8" data-name="line2d 8"><g class="cls-10"><path class="cls-8" d="M673.1,666.65V650.23"/></g></g><g id="patch_16" data-name="patch 16"><path class="cls-9" d="M151.5,962.93V587.47"/></g><g id="patch_17" data-name="patch 17"><path class="cls-9" d="M151.5,962.93H765.14"/></g><g id="text_18" data-name="text 18"><path id="ArialMT-42" class="cls-4" d="M6.73,591.17V535.38h21A26.07,26.07,0,0,1,38,537.07a13.13,13.13,0,0,1,6,5.22,13.87,13.87,0,0,1,2.19,7.37,12.65,12.65,0,0,1-1.93,6.72,13.81,13.81,0,0,1-5.87,5.1,14.48,14.48,0,0,1,7.78,5.07A13.54,13.54,0,0,1,48.89,575a16.33,16.33,0,0,1-1.66,7.3,14.11,14.11,0,0,1-4.09,5.19A17.35,17.35,0,0,1,37,590.27a37.8,37.8,0,0,1-9,.92Zm7.39-32.37H26.2a27,27,0,0,0,7-.64,7.81,7.81,0,0,0,4.28-2.78,8.11,8.11,0,0,0,1.43-4.89,9,9,0,0,0-1.32-4.89,6.81,6.81,0,0,0-3.82-2.9,31.82,31.82,0,0,0-8.48-.78H14.12Zm0,25.78H28a32.17,32.17,0,0,0,5-.27,12,12,0,0,0,4.27-1.51,8,8,0,0,0,2.82-3.11,9.63,9.63,0,0,0,1.1-4.7,9.36,9.36,0,0,0-1.59-5.43,8.37,8.37,0,0,0-4.44-3.24,27.51,27.51,0,0,0-8.18-.94H14.12Z"/></g><path class="cls-3" d="M887.87,474.83H1501.5V99.36H887.87Z"/><g id="matplotlib.axis_5" data-name="matplotlib.axis 5"><g id="xtick_5" data-name="xtick 5"><g id="text_21" data-name="text 21"><path id="ArialMT-43-8" class="cls-4" d="M1034.8,502.52l3.78,1a12.77,12.77,0,0,1-4.28,7.12,11.89,11.89,0,0,1-7.57,2.45,13.61,13.61,0,0,1-7.53-1.88,11.74,11.74,0,0,1-4.42-5.47,19.61,19.61,0,0,1-1.51-7.67,16.86,16.86,0,0,1,1.71-7.8,11.7,11.7,0,0,1,4.86-5.06,14.26,14.26,0,0,1,6.94-1.73,11.68,11.68,0,0,1,7.23,2.19,11.36,11.36,0,0,1,4.09,6.15l-3.74.88a8.89,8.89,0,0,0-2.89-4.55,7.73,7.73,0,0,0-4.76-1.43,9.26,9.26,0,0,0-5.52,1.59,8.31,8.31,0,0,0-3.12,4.25,18.62,18.62,0,0,0,.17,11.87,8,8,0,0,0,3.31,4.07,9.27,9.27,0,0,0,4.86,1.34,8.13,8.13,0,0,0,5.39-1.83A9.35,9.35,0,0,0,1034.8,502.52Z"/><path id="ArialMT-4f-3" class="cls-4" d="M1042.1,498.62q0-7.14,3.82-11.17a13,13,0,0,1,9.89-4,13.62,13.62,0,0,1,7.15,1.9,12.37,12.37,0,0,1,4.85,5.28,17.31,17.31,0,0,1,1.67,7.69,16.65,16.65,0,0,1-1.76,7.78,12,12,0,0,1-5,5.21,14.25,14.25,0,0,1-7,1.77,13.55,13.55,0,0,1-7.23-2,12.63,12.63,0,0,1-4.83-5.33A16.15,16.15,0,0,1,1042.1,498.62Zm3.9.05a11.53,11.53,0,0,0,2.78,8.16,9.73,9.73,0,0,0,13.76.24h0c.08-.08.16-.15.23-.23,1.84-2,2.77-4.85,2.77-8.54a14.87,14.87,0,0,0-1.18-6.1,9,9,0,0,0-3.47-4,9.4,9.4,0,0,0-5.1-1.44,9.69,9.69,0,0,0-6.93,2.77q-2.86,2.69-2.87,9.15Z"/></g></g><g id="xtick_6" data-name="xtick 6"><g id="text_22" data-name="text 22"><path id="ArialMT-43-9" class="cls-4" d="M1342.73,502.52l3.78,1a12.77,12.77,0,0,1-4.28,7.12,11.89,11.89,0,0,1-7.57,2.45,13.61,13.61,0,0,1-7.53-1.88,11.74,11.74,0,0,1-4.42-5.47,19.61,19.61,0,0,1-1.51-7.67,16.86,16.86,0,0,1,1.71-7.8,11.7,11.7,0,0,1,4.86-5.06,14.26,14.26,0,0,1,6.94-1.73,11.68,11.68,0,0,1,7.23,2.19,11.36,11.36,0,0,1,4.09,6.15l-3.73.88a8.91,8.91,0,0,0-2.9-4.55,7.73,7.73,0,0,0-4.76-1.43,9.26,9.26,0,0,0-5.52,1.59,8.31,8.31,0,0,0-3.12,4.25,18.62,18.62,0,0,0,.17,11.87,8,8,0,0,0,3.31,4.07,9.28,9.28,0,0,0,4.87,1.34,8.08,8.08,0,0,0,5.38-1.83A9.35,9.35,0,0,0,1342.73,502.52Z"/><path id="ArialMT-44-3" class="cls-4" d="M1351.18,512.56V483.93H1361a23.58,23.58,0,0,1,5.1.41,9.61,9.61,0,0,1,4.2,2.05,11.63,11.63,0,0,1,3.39,4.9,19.19,19.19,0,0,1,1.12,6.8,19.84,19.84,0,0,1-.76,5.78,14.08,14.08,0,0,1-2,4.17,9.6,9.6,0,0,1-6,4,19.24,19.24,0,0,1-4.6.49Zm3.79-3.38h6.11a14.87,14.87,0,0,0,4.45-.53,6.22,6.22,0,0,0,2.56-1.48,9.17,9.17,0,0,0,2.1-3.62,17.78,17.78,0,0,0,.75-5.52,13.37,13.37,0,0,0-1.47-6.91,7.45,7.45,0,0,0-3.58-3.23,14.75,14.75,0,0,0-4.9-.59h-6Z"/></g></g></g><g id="ytick_7" data-name="ytick 7"><g id="text_23" data-name="text 23"><path id="ArialMT-30-15" class="cls-4" d="M858.19,475a26.31,26.31,0,0,1,1-8.18,10.15,10.15,0,0,1,3.1-4.77,7.92,7.92,0,0,1,5.19-1.69,8.3,8.3,0,0,1,4,.94,7.59,7.59,0,0,1,2.87,2.67,14.26,14.26,0,0,1,1.78,4.26,28,28,0,0,1,.65,6.77,26.26,26.26,0,0,1-1,8.13,10.06,10.06,0,0,1-3.1,4.78,8.7,8.7,0,0,1-11.7-1.28Q858.19,483.09,858.19,475Zm3.61,0c0,4.7.55,7.82,1.65,9.38a4.71,4.71,0,0,0,6.44,1.7,4.77,4.77,0,0,0,1.7-1.7c1.1-1.56,1.65-4.69,1.65-9.37s-.55-7.85-1.65-9.4a4.88,4.88,0,0,0-4.11-2.32,4.5,4.5,0,0,0-3.87,2C862.4,467.1,861.8,470.33,861.8,475Z"/></g></g><g id="ytick_8" data-name="ytick 8"><g id="text_24" data-name="text 24"><path id="ArialMT-35" class="cls-4" d="M835.94,378.26l3.69-.31a6.66,6.66,0,0,0,1.91,4.06,5.15,5.15,0,0,0,3.6,1.35,5.58,5.58,0,0,0,4.3-1.91,7.27,7.27,0,0,0,1.75-5.08,6.55,6.55,0,0,0-1.68-4.74,5.87,5.87,0,0,0-4.43-1.75,6,6,0,0,0-3.07.78,5.87,5.87,0,0,0-2.14,2l-3.3-.43,2.77-14.71h14.24v3.36H842.15l-1.54,7.7a9.31,9.31,0,0,1,5.41-1.8,8.53,8.53,0,0,1,6.32,2.6,9.08,9.08,0,0,1,2.58,6.68,10.5,10.5,0,0,1-2.26,6.72,9.07,9.07,0,0,1-7.52,3.47,9.28,9.28,0,0,1-6.38-2.19A8.56,8.56,0,0,1,835.94,378.26Z"/><path id="ArialMT-30-16" class="cls-4" d="M858.19,371.65a26.31,26.31,0,0,1,1-8.18,10.15,10.15,0,0,1,3.1-4.77,7.92,7.92,0,0,1,5.19-1.69,8.3,8.3,0,0,1,4,.94,7.59,7.59,0,0,1,2.87,2.67,13.76,13.76,0,0,1,1.78,4.26,28,28,0,0,1,.65,6.77,26.26,26.26,0,0,1-1,8.13,10.16,10.16,0,0,1-3.09,4.78A8.71,8.71,0,0,1,861,383.28Q858.2,379.71,858.19,371.65Zm3.61,0c0,4.7.55,7.82,1.65,9.38a4.72,4.72,0,0,0,8.15,0c1.1-1.56,1.65-4.69,1.65-9.37s-.55-7.85-1.65-9.4a4.91,4.91,0,0,0-4.12-2.32,4.52,4.52,0,0,0-3.87,2.05C862.41,363.72,861.8,366.94,861.8,371.65Z"/></g></g><g id="ytick_9" data-name="ytick 9"><g id="text_25" data-name="text 25"><path id="ArialMT-31-3" class="cls-4" d="M826.94,282.38h-3.52V260a17.6,17.6,0,0,1-3.33,2.42,23.09,23.09,0,0,1-3.7,1.82v-3.4a21.36,21.36,0,0,0,5.16-3.35,13.31,13.31,0,0,0,3.12-3.84h2.27Z"/><path id="ArialMT-30-17" class="cls-4" d="M836,268.27a26.31,26.31,0,0,1,1-8.18,10.15,10.15,0,0,1,3.1-4.77,7.9,7.9,0,0,1,5.19-1.69,8.3,8.3,0,0,1,4,.94,7.59,7.59,0,0,1,2.87,2.67A14.15,14.15,0,0,1,854,261.5a28,28,0,0,1,.64,6.77,26.26,26.26,0,0,1-1,8.13,10.06,10.06,0,0,1-3.1,4.78,8.7,8.7,0,0,1-11.7-1.28Q835.95,276.33,836,268.27Zm3.61,0c0,4.7.55,7.82,1.65,9.38a4.71,4.71,0,0,0,6.44,1.7,4.77,4.77,0,0,0,1.7-1.7c1.1-1.56,1.65-4.69,1.65-9.37s-.55-7.85-1.65-9.4a4.88,4.88,0,0,0-4.11-2.32,4.52,4.52,0,0,0-3.87,2.05q-1.86,2.59-1.86,9.66Z"/><path id="ArialMT-30-18" class="cls-4" d="M858.19,268.27a26.31,26.31,0,0,1,1-8.18,10,10,0,0,1,3.1-4.77,7.89,7.89,0,0,1,5.18-1.69,8.41,8.41,0,0,1,4,.94,7.75,7.75,0,0,1,2.87,2.67,14.26,14.26,0,0,1,1.78,4.26,28,28,0,0,1,.64,6.77,26.26,26.26,0,0,1-1,8.13,10,10,0,0,1-3.09,4.78A8.71,8.71,0,0,1,861,279.9Q858.2,276.33,858.19,268.27Zm3.61,0c0,4.7.55,7.82,1.65,9.38a4.72,4.72,0,0,0,8.15,0c1.1-1.56,1.65-4.69,1.65-9.37s-.55-7.85-1.65-9.4a4.88,4.88,0,0,0-4.11-2.32,4.5,4.5,0,0,0-3.87,2.05C862.41,260.34,861.81,263.56,861.8,268.27Z"/></g></g><g id="ytick_10" data-name="ytick 10"><g id="text_26" data-name="text 26"><path id="ArialMT-31-4" class="cls-4" d="M826.94,179h-3.52V156.6a17.6,17.6,0,0,1-3.33,2.42,23.09,23.09,0,0,1-3.7,1.82v-3.4a20.74,20.74,0,0,0,5.16-3.36,13.27,13.27,0,0,0,3.12-3.83h2.27Z"/><path id="ArialMT-35-2" class="cls-4" d="M836,171.5l3.68-.31a6.66,6.66,0,0,0,1.91,4.06,5.19,5.19,0,0,0,3.61,1.35,5.56,5.56,0,0,0,4.29-1.91,7.2,7.2,0,0,0,1.76-5.08,6.56,6.56,0,0,0-1.69-4.74,5.87,5.87,0,0,0-4.43-1.75,6.23,6.23,0,0,0-3.07.78,6,6,0,0,0-2.14,2l-3.3-.43,2.77-14.71h14.24v3.36H842.15l-1.54,7.7A9.34,9.34,0,0,1,846,160a8.57,8.57,0,0,1,6.33,2.6,9.08,9.08,0,0,1,2.58,6.68,10.43,10.43,0,0,1-2.27,6.72,9.06,9.06,0,0,1-7.51,3.47,9.26,9.26,0,0,1-6.39-2.19A8.53,8.53,0,0,1,836,171.5Z"/><path id="ArialMT-30-19" class="cls-4" d="M858.19,164.88a26.21,26.21,0,0,1,1-8.17,10.06,10.06,0,0,1,3.1-4.78,7.94,7.94,0,0,1,5.18-1.68,8.55,8.55,0,0,1,4,.93,7.69,7.69,0,0,1,2.87,2.68,14.26,14.26,0,0,1,1.78,4.26,28.44,28.44,0,0,1,.64,6.76,26.32,26.32,0,0,1-1,8.14,10,10,0,0,1-3.09,4.78A8.71,8.71,0,0,1,861,176.52Q858.2,173,858.19,164.88Zm3.61,0q0,7.05,1.65,9.39a4.72,4.72,0,0,0,8.15,0q1.65-2.34,1.65-9.38t-1.65-9.39a4.88,4.88,0,0,0-4.11-2.32,4.5,4.5,0,0,0-3.87,2C862.41,157,861.81,160.18,861.8,164.88Z"/></g></g><g id="text_27" data-name="text 27"><path id="ArialMT-52-6" class="cls-4" d="M809.87,489H787.32V479a13.17,13.17,0,0,1,.61-4.58,5,5,0,0,1,2.15-2.52,6.42,6.42,0,0,1,3.39-.94,5.71,5.71,0,0,1,4,1.56,7.92,7.92,0,0,1,2.09,4.8,8,8,0,0,1,1.12-1.8,15.53,15.53,0,0,1,3-2.48l6.14-3.92v3.75l-4.69,3c-1.36.87-2.39,1.59-3.11,2.15a6.51,6.51,0,0,0-1.5,1.51,4.56,4.56,0,0,0-.61,1.37,9.2,9.2,0,0,0-.1,1.66V486h10Zm-12.6-3v-6.42a9.56,9.56,0,0,0-.42-3.19,3.43,3.43,0,0,0-1.35-1.76,3.64,3.64,0,0,0-2-.6,3.38,3.38,0,0,0-2.63,1.16,5.53,5.53,0,0,0-1,3.67V486Z"/><path id="ArialMT-54-6" class="cls-4" d="M809.87,461.09H790v7.42h-2.66V450.64H790v7.46h19.89Z"/><path id="ArialMT-64" class="cls-4" d="M809.87,429.14h-2.06a5.08,5.08,0,0,1,2.43,4.56,6.42,6.42,0,0,1-1.08,3.6,7.12,7.12,0,0,1-3,2.54,10.54,10.54,0,0,1-4.43.89,11.61,11.61,0,0,1-4.44-.81,6.32,6.32,0,0,1-3-2.45,6.54,6.54,0,0,1-1.07-3.64,5.47,5.47,0,0,1,2.25-4.51h-8.09v-2.75h22.55Zm-8.15,8.75a7.08,7.08,0,0,0,4.69-1.32,4,4,0,0,0,1.55-3.13,3.93,3.93,0,0,0-1.48-3.08,6.9,6.9,0,0,0-4.53-1.27q-3.36,0-4.92,1.3a4,4,0,0,0-1.57,3.18,3.82,3.82,0,0,0,1.5,3.08A7.44,7.44,0,0,0,801.72,437.89Z"/><path id="ArialMT-69-2" class="cls-4" d="M790.51,422.2h-3.19v-2.77h3.19Zm19.36,0H793.53v-2.77h16.34Z"/><path id="ArialMT-66" class="cls-4" d="M809.87,414.56H795.69V417h-2.16v-2.44h-1.74a7.21,7.21,0,0,1-2.44-.3,3.43,3.43,0,0,1-1.74-1.4,5,5,0,0,1-.67-2.83,13.94,13.94,0,0,1,.27-2.58l2.41.41a9,9,0,0,0-.15,1.64,2.4,2.4,0,0,0,.54,1.78,2.9,2.9,0,0,0,2,.52h1.5v-3.18h2.16v3.18h14.18Z"/><path id="ArialMT-66-2" class="cls-4" d="M809.87,406.36H795.69v2.44h-2.16v-2.44h-1.74a7.21,7.21,0,0,1-2.44-.3,3.43,3.43,0,0,1-1.74-1.4,5,5,0,0,1-.67-2.83,13.94,13.94,0,0,1,.27-2.58l2.41.41a9,9,0,0,0-.15,1.64,2.4,2.4,0,0,0,.54,1.78,2.9,2.9,0,0,0,2,.52h1.5v-3.18h2.16v3.18h14.18Z"/><path id="ArialMT-28-3" class="cls-4" d="M816.5,384.22a27.92,27.92,0,0,1-6.77,3.88,21.13,21.13,0,0,1-8,1.58,20.88,20.88,0,0,1-7-1.18,29.06,29.06,0,0,1-7.75-4.28v-2q3.19,1.86,4.56,2.46a24.78,24.78,0,0,0,4.43,1.48,26.22,26.22,0,0,0,5.79.65,27.78,27.78,0,0,0,14.78-4.59Z"/><path id="ArialMT-6c-5" class="cls-4" d="M809.87,379.09H787.32v-2.77h22.55Z"/><path id="ArialMT-6f-9" class="cls-4" d="M801.7,373.05q-4.53,0-6.72-2.52a7.61,7.61,0,0,1-1.82-5.14,7.33,7.33,0,0,1,2.21-5.5,8.39,8.39,0,0,1,6.1-2.14,10.76,10.76,0,0,1,5,.95,6.65,6.65,0,0,1,2.81,2.75,8.1,8.1,0,0,1,1,3.94,7.39,7.39,0,0,1-2.2,5.55A8.79,8.79,0,0,1,801.7,373.05Zm0-2.84a7,7,0,0,0,4.7-1.37,4.56,4.56,0,0,0,.45-6.43,4.78,4.78,0,0,0-.45-.45,7.12,7.12,0,0,0-4.78-1.36A6.74,6.74,0,0,0,797,362a4.55,4.55,0,0,0-.43,6.43v0a4.16,4.16,0,0,0,.42.42A7,7,0,0,0,801.7,370.21Z"/><path id="ArialMT-77-2" class="cls-4" d="M809.87,351.49l-16.34,5v-2.86L803,351l3.51-1-3.37-.85-9.57-2.59v-2.85l9.48-2.45,3.12-.81-3.15-.94-9.45-2.8V334l16.34,5.11V342l-9.79,2.6-2.78.63,12.57,3.31Z"/><path id="ArialMT-63-4" class="cls-4" d="M803.88,312.34l.36-2.72a7.12,7.12,0,0,1,4.41,2.29,6.68,6.68,0,0,1,1.59,4.52,7,7,0,0,1-2.19,5.38,8.9,8.9,0,0,1-6.29,2,11.44,11.44,0,0,1-4.62-.87,6.15,6.15,0,0,1-3-2.67,7.84,7.84,0,0,1-1-3.9,6.75,6.75,0,0,1,1.35-4.36,6.29,6.29,0,0,1,3.82-2.17l.42,2.7a4.47,4.47,0,0,0-2.48,1.36,3.57,3.57,0,0,0-.83,2.36,4.31,4.31,0,0,0,1.5,3.4,7.08,7.08,0,0,0,4.74,1.31c2.2,0,3.79-.42,4.79-1.26a4.12,4.12,0,0,0,1.49-3.3,3.89,3.89,0,0,0-1-2.72A5,5,0,0,0,803.88,312.34Z"/><path id="ArialMT-6c-6" class="cls-4" d="M809.87,307.32H787.32v-2.77h22.55Z"/><path id="ArialMT-6f-10" class="cls-4" d="M801.7,301.29q-4.53,0-6.72-2.52a7.61,7.61,0,0,1-1.82-5.14,7.34,7.34,0,0,1,2.21-5.51,8.39,8.39,0,0,1,6.1-2.14,10.76,10.76,0,0,1,5,.95,6.74,6.74,0,0,1,2.81,2.76,8,8,0,0,1,1,3.94,7.37,7.37,0,0,1-2.2,5.54A8.8,8.8,0,0,1,801.7,301.29Zm0-2.85a7,7,0,0,0,4.7-1.37,4.55,4.55,0,0,0,.45-6.42h0a4.78,4.78,0,0,0-.45-.45,7,7,0,0,0-4.78-1.37,6.71,6.71,0,0,0-4.59,1.38,4.57,4.57,0,0,0-.43,6.43,4.36,4.36,0,0,0,.43.43A6.88,6.88,0,0,0,801.7,298.44Z"/><path id="ArialMT-7a-4" class="cls-4" d="M809.87,284.2h-2.25l-11.93-10.4c.06,1.18.09,2.22.09,3.13v6.66h-2.25V270.23h1.83l10.37,8.85,1.89,1.7c-.09-1.24-.13-2.4-.13-3.49v-7.55h2.38Z"/><path id="ArialMT-65-6" class="cls-4" d="M804.61,255.81,805,253a7,7,0,0,1,3.89,2.5,8.48,8.48,0,0,1-.82,10.36,8.65,8.65,0,0,1-6.19,2.1,9,9,0,0,1-6.4-2.12,7.17,7.17,0,0,1-2.28-5.51,7,7,0,0,1,2.23-5.35,8.88,8.88,0,0,1,6.28-2.08h.74v12.18a6.23,6.23,0,0,0,4.12-1.52,4.56,4.56,0,0,0,1.43-3.42,4.32,4.32,0,0,0-.8-2.6A5.34,5.34,0,0,0,804.61,255.81Zm-4.48,9.09v-9.12a5.6,5.6,0,0,0-3.09,1,4.26,4.26,0,0,0-1.6,3.43,4.42,4.42,0,0,0,1.28,3.21A5,5,0,0,0,800.13,264.9Z"/><path id="ArialMT-2d-2" class="cls-4" d="M803.1,241.8h-2.79v-8.51h2.79Z"/><path id="ArialMT-68-3" class="cls-4" d="M809.87,221.48H787.32v-2.77h8.09a6.16,6.16,0,0,1-2.25-4.89,6.55,6.55,0,0,1,.72-3.16,4.21,4.21,0,0,1,2-1.91,9,9,0,0,1,3.66-.58h10.35v2.77H799.52a4.27,4.27,0,0,0-3,.9,3.36,3.36,0,0,0-1,2.54,4.5,4.5,0,0,0,.64,2.32,3.62,3.62,0,0,0,1.73,1.55,7.86,7.86,0,0,0,3,.46h8.94Z"/><path id="ArialMT-69-3" class="cls-4" d="M790.51,203.94h-3.19v-2.77h3.19Zm19.36,0H793.53v-2.77h16.34Z"/><path id="ArialMT-67-2" class="cls-4" d="M811.22,197.47l.4-2.7a2.58,2.58,0,0,0,1.82-.93,4.61,4.61,0,0,0,.76-2.82,4.88,4.88,0,0,0-.76-3,3.81,3.81,0,0,0-2.15-1.42,17,17,0,0,0-3.56-.2,5.71,5.71,0,0,1,2.14,4.52,6.18,6.18,0,0,1-2.43,5.22,9.33,9.33,0,0,1-5.83,1.84,10.79,10.79,0,0,1-4.31-.84,6.83,6.83,0,0,1-3.06-2.46,6.58,6.58,0,0,1-1.08-3.78,5.82,5.82,0,0,1,2.34-4.76h-2v-2.55h14.12a13.62,13.62,0,0,1,5.41.77,5.58,5.58,0,0,1,2.51,2.46,8.42,8.42,0,0,1,.93,4.15,7.77,7.77,0,0,1-1.32,4.72A4.43,4.43,0,0,1,811.22,197.47Zm-9.81-2.29a7.05,7.05,0,0,0,4.69-1.28,4.23,4.23,0,0,0,.46-6l0,0a4.36,4.36,0,0,0-.43-.43,6.84,6.84,0,0,0-4.61-1.29,6.66,6.66,0,0,0-4.52,1.33,4.07,4.07,0,0,0-1.52,3.21,4,4,0,0,0,1.5,3.14,6.66,6.66,0,0,0,4.46,1.29Z"/><path id="ArialMT-68-4" class="cls-4" d="M809.87,179.44H787.32v-2.77h8.09a6.16,6.16,0,0,1-2.25-4.89,6.51,6.51,0,0,1,.72-3.15,4.23,4.23,0,0,1,2-1.92,9.13,9.13,0,0,1,3.66-.57h10.35v2.76H799.52a4.27,4.27,0,0,0-3,.9,3.38,3.38,0,0,0-1,2.55,4.5,4.5,0,0,0,.64,2.32,3.6,3.6,0,0,0,1.73,1.54,7.86,7.86,0,0,0,3,.46h8.94Z"/><path id="ArialMT-63-5" class="cls-4" d="M803.88,142.51l.36-2.72a7.12,7.12,0,0,1,4.41,2.29,6.63,6.63,0,0,1,1.59,4.51,7,7,0,0,1-2.19,5.39,8.9,8.9,0,0,1-6.29,2,11.45,11.45,0,0,1-4.62-.88,6,6,0,0,1-3-2.67,7.81,7.81,0,0,1-1-3.9,6.74,6.74,0,0,1,1.35-4.35,6.14,6.14,0,0,1,3.82-2.17l.42,2.69a4.53,4.53,0,0,0-2.48,1.36,3.54,3.54,0,0,0-.83,2.37,4.31,4.31,0,0,0,1.5,3.4,7.16,7.16,0,0,0,4.74,1.3c2.2,0,3.79-.42,4.79-1.26a4.1,4.1,0,0,0,1.49-3.29,3.89,3.89,0,0,0-1-2.72A5,5,0,0,0,803.88,142.51Z"/><path id="ArialMT-6c-7" class="cls-4" d="M809.87,137.48H787.32v-2.77h22.55Z"/><path id="ArialMT-6f-11" class="cls-4" d="M801.7,131.45q-4.53,0-6.72-2.52a7.61,7.61,0,0,1-1.82-5.14,7.33,7.33,0,0,1,2.21-5.5,8.39,8.39,0,0,1,6.1-2.14,10.75,10.75,0,0,1,5,.94,6.74,6.74,0,0,1,2.81,2.76,8.1,8.1,0,0,1,1,3.94,7.39,7.39,0,0,1-2.2,5.55A8.79,8.79,0,0,1,801.7,131.45Zm0-2.84a7,7,0,0,0,4.7-1.37,4.56,4.56,0,0,0,.45-6.43,4.78,4.78,0,0,0-.45-.45,7.11,7.11,0,0,0-4.78-1.37,6.71,6.71,0,0,0-4.59,1.38,4.55,4.55,0,0,0-.43,6.43v0a4.16,4.16,0,0,0,.42.42A7,7,0,0,0,801.7,128.61Z"/><path id="ArialMT-7a-5" class="cls-4" d="M809.87,114.36h-2.25L795.69,104c.06,1.19.09,2.23.09,3.13v6.66h-2.25V100.4h1.83l10.37,8.84,1.89,1.71c-.09-1.24-.13-2.4-.13-3.49V99.9h2.38Z"/><path id="ArialMT-65-7" class="cls-4" d="M804.61,86l.35-2.86a7,7,0,0,1,3.89,2.51A8.48,8.48,0,0,1,808,96a8.65,8.65,0,0,1-6.19,2.1,9.08,9.08,0,0,1-6.4-2.12,7.21,7.21,0,0,1-2.28-5.51,7,7,0,0,1,2.23-5.36A8.9,8.9,0,0,1,801.67,83h.74V95.21a6.23,6.23,0,0,0,4.12-1.52A4.56,4.56,0,0,0,808,90.28a4.32,4.32,0,0,0-.8-2.6A5.34,5.34,0,0,0,804.61,86Zm-4.48,9.09V85.94A5.58,5.58,0,0,0,797,87a4.3,4.3,0,0,0-1.6,3.44,4.36,4.36,0,0,0,1.28,3.2,5,5,0,0,0,3.45,1.42Z"/><path id="ArialMT-29-3" class="cls-4" d="M816.5,77.82v2a27.79,27.79,0,0,0-14.78-4.6,25.21,25.21,0,0,0-5.74.66,24.75,24.75,0,0,0-4.43,1.47,52.22,52.22,0,0,0-4.61,2.47v-2a29,29,0,0,1,7.75-4.27,21.19,21.19,0,0,1,15,.4A28.32,28.32,0,0,1,816.5,77.82Z"/></g><g id="patch_21" data-name="patch 21"><g class="cls-11"><path class="cls-6" d="M918.55,474.83H1164V317.65H918.55Z"/></g></g><g id="patch_22" data-name="patch 22"><g class="cls-11"><path class="cls-12" d="M1225.37,474.83h245.45V312H1225.37Z"/></g></g><g id="line2d_9" data-name="line2d 9"><g class="cls-11"><path class="cls-8" d="M1041.28,352.53v-71.8"/></g></g><g id="line2d_10" data-name="line2d 10"><g class="cls-11"><path class="cls-8" d="M1348.1,349.27V276"/></g></g><g id="patch_23" data-name="patch 23"><path class="cls-13" d="M887.87,474.83V99.36"/></g><g id="patch_24" data-name="patch 24"><path class="cls-13" d="M887.87,474.83H1501.5"/></g><g id="PathCollection_1" data-name="PathCollection 1"><g class="cls-11"><path id="C0_0_f3f92f2de5" data-name="C0 0 f3f92f2de5" class="cls-14" d="M1041.28,451.7a5,5,0,1,0-3.54-1.46A5,5,0,0,0,1041.28,451.7Z"/></g><g class="cls-11"><path id="C0_0_f3f92f2de5-2" data-name="C0 0 f3f92f2de5-2" class="cls-14" d="M1029,419.52a5,5,0,1,0-5-5A5,5,0,0,0,1029,419.52Z"/></g><g class="cls-11"><path id="C0_0_f3f92f2de5-3" data-name="C0 0 f3f92f2de5-3" class="cls-14" d="M1053.16,410.92a5,5,0,1,0-3.53-1.46A5,5,0,0,0,1053.16,410.92Z"/></g><g class="cls-11"><path id="C0_0_f3f92f2de5-4" data-name="C0 0 f3f92f2de5-4" class="cls-14" d="M1016.89,387.14a5,5,0,1,0-3.54-1.47A5,5,0,0,0,1016.89,387.14Z"/></g><g class="cls-11"><path id="C0_0_f3f92f2de5-5" data-name="C0 0 f3f92f2de5-5" class="cls-14" d="M1069.65,383.18a5,5,0,1,0-3.54-1.47A5,5,0,0,0,1069.65,383.18Z"/></g><g class="cls-11"><path id="C0_0_f3f92f2de5-6" data-name="C0 0 f3f92f2de5-6" class="cls-14" d="M992.26,381.79a5,5,0,1,0-3.53-1.47A5,5,0,0,0,992.26,381.79Z"/></g><g class="cls-11"><path id="C0_0_f3f92f2de5-7" data-name="C0 0 f3f92f2de5-7" class="cls-14" d="M1041.28,373.44a5,5,0,1,0-3.54-1.47A5,5,0,0,0,1041.28,373.44Z"/></g><g class="cls-11"><path id="C0_0_f3f92f2de5-8" data-name="C0 0 f3f92f2de5-8" class="cls-14" d="M1033.93,338.05a5,5,0,1,0-3.54-1.46A5,5,0,0,0,1033.93,338.05Z"/></g><g class="cls-11"><path id="C0_0_f3f92f2de5-9" data-name="C0 0 f3f92f2de5-9" class="cls-14" d="M1056.49,322.44A5,5,0,1,0,1053,321,5,5,0,0,0,1056.49,322.44Z"/></g><g class="cls-11"><path id="C0_0_f3f92f2de5-10" data-name="C0 0 f3f92f2de5-10" class="cls-14" d="M1017.26,310.55a5,5,0,1,0-3.54-1.46A5,5,0,0,0,1017.26,310.55Z"/></g><g class="cls-11"><path id="C0_0_f3f92f2de5-11" data-name="C0 0 f3f92f2de5-11" class="cls-14" d="M1078.78,306a5,5,0,1,0-3.53-1.47A5,5,0,0,0,1078.78,306Z"/></g><g class="cls-11"><path id="C0_0_f3f92f2de5-12" data-name="C0 0 f3f92f2de5-12" class="cls-14" d="M993.61,299a5,5,0,1,0-5-5A5,5,0,0,0,993.61,299Z"/></g><g class="cls-11"><path id="C0_0_f3f92f2de5-13" data-name="C0 0 f3f92f2de5-13" class="cls-14" d="M1041.28,285.32a5,5,0,1,0-3.54-1.46A5,5,0,0,0,1041.28,285.32Z"/></g><g class="cls-11"><path id="C0_0_f3f92f2de5-14" data-name="C0 0 f3f92f2de5-14" class="cls-14" d="M1097.52,281.6a5,5,0,1,0-3.54-1.46A5,5,0,0,0,1097.52,281.6Z"/></g><g class="cls-11"><path id="C0_0_f3f92f2de5-15" data-name="C0 0 f3f92f2de5-15" class="cls-14" d="M1064.7,275.45a5,5,0,1,0-3.54-1.47A5,5,0,0,0,1064.7,275.45Z"/></g><g class="cls-11"><path id="C0_0_f3f92f2de5-16" data-name="C0 0 f3f92f2de5-16" class="cls-14" d="M1041.28,243.67a5,5,0,1,0-5-5A5,5,0,0,0,1041.28,243.67Z"/></g><g class="cls-11"><path id="C0_0_f3f92f2de5-17" data-name="C0 0 f3f92f2de5-17" class="cls-14" d="M1025,215.61a5,5,0,1,0-5-5A5,5,0,0,0,1025,215.61Z"/></g><g class="cls-11"><path id="C0_0_f3f92f2de5-18" data-name="C0 0 f3f92f2de5-18" class="cls-14" d="M1041.28,122.24a5,5,0,1,0-3.54-1.46A5,5,0,0,0,1041.28,122.24Z"/></g></g><g class="cls-15"><path id="C1_0_ec7df96ca6" data-name="C1 0 ec7df96ca6" class="cls-16" d="M1348.1,431a5,5,0,1,0-3.54-1.46A5,5,0,0,0,1348.1,431Z"/></g><rect class="cls-2" x="887.87" y="99.36" width="613.64" height="375.46"/><g class="cls-15"><path id="C1_0_ec7df96ca6-2" data-name="C1 0 ec7df96ca6-2" class="cls-16" d="M1335.35,399.18a5,5,0,1,0-3.53-1.47A5,5,0,0,0,1335.35,399.18Z"/></g><rect class="cls-2" x="887.87" y="99.36" width="613.64" height="375.46"/><g class="cls-15"><path id="C1_0_ec7df96ca6-3" data-name="C1 0 ec7df96ca6-3" class="cls-16" d="M1360,394.58a5,5,0,1,0-3.53-1.47A5,5,0,0,0,1360,394.58Z"/></g><rect class="cls-2" x="887.87" y="99.36" width="613.64" height="375.46"/><g class="cls-15"><path id="C1_0_ec7df96ca6-4" data-name="C1 0 ec7df96ca6-4" class="cls-16" d="M1384.85,391.65a5,5,0,1,0-3.54-1.46A5,5,0,0,0,1384.85,391.65Z"/></g><rect class="cls-2" x="887.87" y="99.36" width="613.64" height="375.46"/><g class="cls-15"><path id="C1_0_ec7df96ca6-5" data-name="C1 0 ec7df96ca6-5" class="cls-16" d="M1323.5,366.61a5,5,0,1,0-3.53-1.46A5,5,0,0,0,1323.5,366.61Z"/></g><rect class="cls-2" x="887.87" y="99.36" width="613.64" height="375.46"/><g class="cls-15"><path id="C1_0_ec7df96ca6-6" data-name="C1 0 ec7df96ca6-6" class="cls-16" d="M1348.1,321a5,5,0,1,0-3.54-1.46A5,5,0,0,0,1348.1,321Z"/></g><rect class="cls-2" x="887.87" y="99.36" width="613.64" height="375.46"/><g class="cls-15"><path id="C1_0_ec7df96ca6-7" data-name="C1 0 ec7df96ca6-7" class="cls-16" d="M1325.1,306.86a5,5,0,1,0-3.53-1.47A5,5,0,0,0,1325.1,306.86Z"/></g><rect class="cls-2" x="887.87" y="99.36" width="613.64" height="375.46"/><g class="cls-15"><path id="C1_0_ec7df96ca6-8" data-name="C1 0 ec7df96ca6-8" class="cls-16" d="M1371.09,306.85a5,5,0,1,0-3.54-1.46A5,5,0,0,0,1371.09,306.85Z"/></g><rect class="cls-2" x="887.87" y="99.36" width="613.64" height="375.46"/><g class="cls-15"><path id="C1_0_ec7df96ca6-9" data-name="C1 0 ec7df96ca6-9" class="cls-16" d="M1395.66,301a5,5,0,1,0-3.54-1.47A5,5,0,0,0,1395.66,301Z"/></g><rect class="cls-2" x="887.87" y="99.36" width="613.64" height="375.46"/><g class="cls-15"><path id="C1_0_ec7df96ca6-10" data-name="C1 0 ec7df96ca6-10" class="cls-16" d="M1305.17,284.68a5,5,0,1,0-3.54-1.46A5,5,0,0,0,1305.17,284.68Z"/></g><rect class="cls-2" x="887.87" y="99.36" width="613.64" height="375.46"/><g class="cls-15"><path id="C1_0_ec7df96ca6-11" data-name="C1 0 ec7df96ca6-11" class="cls-16" d="M1348.1,256.79a5,5,0,1,0-3.54-1.47A5,5,0,0,0,1348.1,256.79Z"/></g><rect class="cls-2" x="887.87" y="99.36" width="613.64" height="375.46"/><g class="cls-15"><path id="C1_0_ec7df96ca6-12" data-name="C1 0 ec7df96ca6-12" class="cls-16" d="M1372.9,253.74a5,5,0,1,0-3.54-1.46A5,5,0,0,0,1372.9,253.74Z"/></g><rect class="cls-2" x="887.87" y="99.36" width="613.64" height="375.46"/><g class="cls-15"><path id="C1_0_ec7df96ca6-13" data-name="C1 0 ec7df96ca6-13" class="cls-16" d="M1326.38,238.69a5,5,0,1,0-3.53-1.47A5,5,0,0,0,1326.38,238.69Z"/></g><rect class="cls-2" x="887.87" y="99.36" width="613.64" height="375.46"/><g class="cls-15"><path id="C1_0_ec7df96ca6-14" data-name="C1 0 ec7df96ca6-14" class="cls-16" d="M1348.1,184.78a5,5,0,1,0-3.54-1.46A5,5,0,0,0,1348.1,184.78Z"/></g><rect class="cls-2" x="887.87" y="99.36" width="613.64" height="375.46"/><g id="text_28" data-name="text 28"><path id="ArialMT-43-10" class="cls-4" d="M771.65,57.78,779,59.64q-2.32,9.1-8.36,13.88a23,23,0,0,1-14.76,4.78q-9,0-14.68-3.67A23,23,0,0,1,732.62,64a38.26,38.26,0,0,1-3-15A32.81,32.81,0,0,1,733,33.8a23,23,0,0,1,9.48-9.86A27.65,27.65,0,0,1,756,20.57a22.9,22.9,0,0,1,14.09,4.26,22.21,22.21,0,0,1,8,12l-7.27,1.72c-1.3-4.07-3.19-7-5.65-8.88a14.89,14.89,0,0,0-9.28-2.79A18,18,0,0,0,745.11,30,16.22,16.22,0,0,0,739,38.27,33.42,33.42,0,0,0,737.29,49a34,34,0,0,0,2.07,12.43,15.52,15.52,0,0,0,6.45,8A18.22,18.22,0,0,0,755.3,72a15.88,15.88,0,0,0,10.51-3.58C768.68,66,770.63,62.47,771.65,57.78Z"/></g><g id="patch_25" data-name="patch 25"><path class="cls-3" d="M887.87,962.93H1501.5V587.47H887.87Z"/></g><g id="matplotlib.axis_7" data-name="matplotlib.axis 7"><g id="xtick_7" data-name="xtick 7"><g id="text_29" data-name="text 29"><path id="ArialMT-43-11" class="cls-4" d="M1034.8,990.63l3.78,1a12.73,12.73,0,0,1-4.28,7.12,11.89,11.89,0,0,1-7.57,2.45,13.61,13.61,0,0,1-7.53-1.88,11.78,11.78,0,0,1-4.42-5.46,19.62,19.62,0,0,1-1.51-7.68,16.86,16.86,0,0,1,1.71-7.8,11.78,11.78,0,0,1,4.86-5,14.15,14.15,0,0,1,6.94-1.73,11.76,11.76,0,0,1,7.23,2.18,11.36,11.36,0,0,1,4.09,6.15l-3.74.88a8.89,8.89,0,0,0-2.89-4.55,7.73,7.73,0,0,0-4.76-1.43,9.26,9.26,0,0,0-5.52,1.59,8.31,8.31,0,0,0-3.12,4.25,18.62,18.62,0,0,0,.17,11.87,8,8,0,0,0,3.31,4.07,9.25,9.25,0,0,0,4.86,1.35,8.13,8.13,0,0,0,5.39-1.83A9.4,9.4,0,0,0,1034.8,990.63Z"/><path id="ArialMT-4f-4" class="cls-4" d="M1042.1,986.72q0-7.12,3.82-11.16a13,13,0,0,1,9.89-4,13.62,13.62,0,0,1,7.15,1.9,12.37,12.37,0,0,1,4.85,5.28,17.31,17.31,0,0,1,1.67,7.69,16.84,16.84,0,0,1-1.76,7.79,12,12,0,0,1-5,5.2,14.25,14.25,0,0,1-7,1.77,13.55,13.55,0,0,1-7.23-2,12.63,12.63,0,0,1-4.83-5.33A16.3,16.3,0,0,1,1042.1,986.72Zm3.9.06q0,5.18,2.78,8.15a9.69,9.69,0,0,0,13.71.28h0l.27-.27c1.84-2,2.77-4.85,2.77-8.54a14.87,14.87,0,0,0-1.18-6.1,9.11,9.11,0,0,0-3.47-4,9.4,9.4,0,0,0-5.1-1.44,9.73,9.73,0,0,0-6.93,2.77q-2.86,2.68-2.87,9.16Z"/></g></g><g id="xtick_8" data-name="xtick 8"><g id="text_30" data-name="text 30"><path id="ArialMT-43-12" class="cls-4" d="M1342.73,990.63l3.78,1a12.73,12.73,0,0,1-4.28,7.12,11.89,11.89,0,0,1-7.57,2.45,13.61,13.61,0,0,1-7.53-1.88,11.78,11.78,0,0,1-4.42-5.46,19.62,19.62,0,0,1-1.51-7.68,16.86,16.86,0,0,1,1.71-7.8,11.78,11.78,0,0,1,4.86-5,14.15,14.15,0,0,1,6.94-1.73,11.78,11.78,0,0,1,7.23,2.18A11.36,11.36,0,0,1,1346,980l-3.73.88a8.91,8.91,0,0,0-2.9-4.55,7.73,7.73,0,0,0-4.76-1.43,9.26,9.26,0,0,0-5.52,1.59,8.31,8.31,0,0,0-3.12,4.25,18.62,18.62,0,0,0,.17,11.87,8,8,0,0,0,3.31,4.07,9.29,9.29,0,0,0,4.87,1.35,8.08,8.08,0,0,0,5.38-1.83A9.4,9.4,0,0,0,1342.73,990.63Z"/><path id="ArialMT-44-4" class="cls-4" d="M1351.18,1000.66V972H1361a24.22,24.22,0,0,1,5.1.41,9.74,9.74,0,0,1,4.2,2,11.72,11.72,0,0,1,3.39,4.9,19.19,19.19,0,0,1,1.12,6.8,19.84,19.84,0,0,1-.76,5.78,14.51,14.51,0,0,1-2,4.18,10.74,10.74,0,0,1-2.61,2.6,11,11,0,0,1-3.42,1.43,19.75,19.75,0,0,1-4.6.48Zm3.79-3.38h6.11a14.86,14.86,0,0,0,4.45-.52,6.25,6.25,0,0,0,2.56-1.49,9.17,9.17,0,0,0,2.1-3.62,17.78,17.78,0,0,0,.75-5.52,13.33,13.33,0,0,0-1.47-6.9,7.4,7.4,0,0,0-3.58-3.23,14.75,14.75,0,0,0-4.9-.59h-6Z"/></g></g></g><g id="ytick_11" data-name="ytick 11"><g id="text_31" data-name="text 31"><path id="ArialMT-2212" class="cls-4" d="M832.05,960.19H813.14v-3.28h18.91Z"/><path id="ArialMT-35-3" class="cls-4" d="M835.94,965.17l3.69-.31a6.68,6.68,0,0,0,1.9,4,5.18,5.18,0,0,0,3.61,1.36,5.62,5.62,0,0,0,4.29-1.91,7.2,7.2,0,0,0,1.76-5.08,6.48,6.48,0,0,0-1.69-4.75,5.85,5.85,0,0,0-4.42-1.74,6.12,6.12,0,0,0-3.07.77,6,6,0,0,0-2.14,2l-3.3-.43,2.76-14.7h14.25v3.36H842.15l-1.54,7.69a9.31,9.31,0,0,1,5.41-1.8,8.53,8.53,0,0,1,6.32,2.6,9.08,9.08,0,0,1,2.58,6.68,10.5,10.5,0,0,1-2.26,6.72,9.08,9.08,0,0,1-7.52,3.48,9.28,9.28,0,0,1-6.38-2.19A8.55,8.55,0,0,1,835.94,965.17Z"/><path id="ArialMT-30-20" class="cls-4" d="M858.19,958.55a26.21,26.21,0,0,1,1-8.17,10.18,10.18,0,0,1,3.1-4.78,8,8,0,0,1,5.19-1.68,8.43,8.43,0,0,1,4,.93,7.69,7.69,0,0,1,2.87,2.68,14.31,14.31,0,0,1,1.78,4.25,28,28,0,0,1,.65,6.77,26.26,26.26,0,0,1-1,8.13,10.21,10.21,0,0,1-3.1,4.79,8,8,0,0,1-5.2,1.69,7.83,7.83,0,0,1-6.5-3C859.13,967.8,858.19,963.93,858.19,958.55Zm3.61,0q0,7.05,1.65,9.39a4.71,4.71,0,0,0,6.44,1.7,4.77,4.77,0,0,0,1.7-1.7c1.1-1.57,1.65-4.69,1.65-9.38s-.55-7.85-1.65-9.39a4.89,4.89,0,0,0-4.11-2.33,4.54,4.54,0,0,0-3.87,2C862.4,950.62,861.8,953.85,861.8,958.55Z"/></g></g><g id="ytick_12" data-name="ytick 12"><g id="text_32" data-name="text 32"><path id="ArialMT-30-21" class="cls-4" d="M858.19,778.84a26.21,26.21,0,0,1,1-8.17,10.18,10.18,0,0,1,3.1-4.78,8,8,0,0,1,5.19-1.68,8.55,8.55,0,0,1,4,.93,7.69,7.69,0,0,1,2.87,2.68,14.31,14.31,0,0,1,1.78,4.25,28,28,0,0,1,.65,6.77,26.26,26.26,0,0,1-1,8.13,10.13,10.13,0,0,1-3.1,4.79,8.7,8.7,0,0,1-11.7-1.28Q858.19,786.91,858.19,778.84Zm3.61,0q0,7,1.65,9.39a4.71,4.71,0,0,0,6.44,1.7,4.77,4.77,0,0,0,1.7-1.7c1.1-1.57,1.65-4.69,1.65-9.38s-.55-7.85-1.65-9.39a4.89,4.89,0,0,0-4.11-2.33,4.54,4.54,0,0,0-3.87,2C862.4,770.91,861.8,774.14,861.8,778.84Z"/></g></g><g id="ytick_13" data-name="ytick 13"><g id="text_33" data-name="text 33"><path id="ArialMT-35-4" class="cls-4" d="M835.94,605.75l3.69-.31a6.61,6.61,0,0,0,1.91,4,5.15,5.15,0,0,0,3.6,1.36,5.66,5.66,0,0,0,4.3-1.91,7.27,7.27,0,0,0,1.75-5.08,6.55,6.55,0,0,0-1.68-4.75,5.88,5.88,0,0,0-4.43-1.74,6.22,6.22,0,0,0-3.07.77,6,6,0,0,0-2.14,2l-3.3-.43,2.77-14.7h14.24v3.36H842.15L840.61,596a9.31,9.31,0,0,1,5.41-1.8,8.53,8.53,0,0,1,6.32,2.6,9.08,9.08,0,0,1,2.58,6.68,10.35,10.35,0,0,1-2.26,6.72,9.08,9.08,0,0,1-7.52,3.48,9.28,9.28,0,0,1-6.38-2.19A8.53,8.53,0,0,1,835.94,605.75Z"/><path id="ArialMT-30-22" class="cls-4" d="M858.19,599.13a26.21,26.21,0,0,1,1-8.17,10.18,10.18,0,0,1,3.1-4.78,8,8,0,0,1,5.19-1.68,8.29,8.29,0,0,1,4,.93,7.69,7.69,0,0,1,2.87,2.68,13.71,13.71,0,0,1,1.78,4.25,28,28,0,0,1,.65,6.77,26.26,26.26,0,0,1-1,8.13,10.19,10.19,0,0,1-3.09,4.79A8.71,8.71,0,0,1,861,610.77Q858.2,607.2,858.19,599.13Zm3.61,0q0,7.05,1.65,9.39a4.72,4.72,0,0,0,8.15,0c1.1-1.57,1.65-4.69,1.65-9.38s-.55-7.85-1.65-9.39a4.91,4.91,0,0,0-4.12-2.33,4.52,4.52,0,0,0-3.87,2.05C862.41,591.21,861.8,594.43,861.8,599.13Z"/></g></g><g id="text_34" data-name="text 34"><path id="ArialMT-52-7" class="cls-4" d="M808.75,954.33H786.2v-10a13.41,13.41,0,0,1,.61-4.58,5,5,0,0,1,2.15-2.52,6.42,6.42,0,0,1,3.39-.94,5.71,5.71,0,0,1,4,1.56,7.92,7.92,0,0,1,2.09,4.8,8,8,0,0,1,1.12-1.8,15.53,15.53,0,0,1,3-2.48l6.14-3.92v3.75l-4.69,3c-1.36.87-2.39,1.59-3.11,2.15a6.51,6.51,0,0,0-1.5,1.51,4.56,4.56,0,0,0-.61,1.37,9.2,9.2,0,0,0-.1,1.66v3.46h10Zm-12.6-3v-6.42a9.56,9.56,0,0,0-.42-3.19,3.43,3.43,0,0,0-1.35-1.76,3.64,3.64,0,0,0-2-.6,3.33,3.33,0,0,0-2.62,1.16,5.46,5.46,0,0,0-1,3.67v7.14Z"/><path id="ArialMT-54-7" class="cls-4" d="M808.75,926.45H788.86v7.42H786.2V916h2.66v7.46h19.89Z"/><path id="ArialMT-64-2" class="cls-4" d="M808.75,894.5h-2.06a5.08,5.08,0,0,1,2.43,4.56,6.42,6.42,0,0,1-1.08,3.6,7.12,7.12,0,0,1-3,2.54,10.54,10.54,0,0,1-4.43.89,11.61,11.61,0,0,1-4.44-.81,6.32,6.32,0,0,1-3-2.45,6.54,6.54,0,0,1-1.07-3.64,5.47,5.47,0,0,1,2.25-4.51H786.2v-2.75h22.55Zm-8.15,8.75a7.08,7.08,0,0,0,4.69-1.32,4,4,0,0,0,1.55-3.13,3.89,3.89,0,0,0-1.48-3.08,6.9,6.9,0,0,0-4.53-1.27q-3.36,0-4.92,1.3a4,4,0,0,0-1.57,3.18,3.82,3.82,0,0,0,1.5,3.08A7.44,7.44,0,0,0,800.6,903.25Z"/><path id="ArialMT-69-4" class="cls-4" d="M789.39,887.56H786.2v-2.77h3.19Zm19.36,0H792.41v-2.77h16.34Z"/><path id="ArialMT-66-3" class="cls-4" d="M808.75,879.92H794.57v2.44h-2.16v-2.44h-1.73a7.23,7.23,0,0,1-2.45-.3,3.43,3.43,0,0,1-1.74-1.4,5,5,0,0,1-.67-2.83,13.94,13.94,0,0,1,.27-2.58l2.42.41a9,9,0,0,0-.16,1.64,2.4,2.4,0,0,0,.54,1.78,2.9,2.9,0,0,0,2,.52h1.5V874h2.16v3.18h14.18Z"/><path id="ArialMT-66-4" class="cls-4" d="M808.75,871.72H794.57v2.44h-2.16v-2.44h-1.73a7.23,7.23,0,0,1-2.45-.3,3.43,3.43,0,0,1-1.74-1.4,5,5,0,0,1-.67-2.83,13.94,13.94,0,0,1,.27-2.58l2.42.41a9,9,0,0,0-.16,1.64,2.4,2.4,0,0,0,.54,1.78,2.9,2.9,0,0,0,2,.52h1.5v-3.18h2.16V869h14.18Z"/><path id="ArialMT-28-4" class="cls-4" d="M815.38,849.58a27.92,27.92,0,0,1-6.77,3.88,21.13,21.13,0,0,1-8,1.58,20.88,20.88,0,0,1-7-1.18,29.06,29.06,0,0,1-7.75-4.28v-2a50.25,50.25,0,0,0,4.57,2.46,24.78,24.78,0,0,0,4.43,1.48,26.2,26.2,0,0,0,5.78.65,27.78,27.78,0,0,0,14.78-4.59Z"/><path id="ArialMT-6e-5" class="cls-4" d="M808.75,844.38H792.41v-2.49h2.33a5.88,5.88,0,0,1-2.7-5.2,6.66,6.66,0,0,1,.54-2.71,4.2,4.2,0,0,1,1.39-1.86,5.24,5.24,0,0,1,2-.86,17.27,17.27,0,0,1,2.69-.15h10v2.77h-9.94a7.46,7.46,0,0,0-2.53.32,2.67,2.67,0,0,0-1.33,1.15,3.53,3.53,0,0,0-.5,1.93,4.5,4.5,0,0,0,1.12,3.05q1.13,1.29,4.26,1.29h8.92Z"/><path id="ArialMT-6f-12" class="cls-4" d="M800.58,827.89q-4.53,0-6.72-2.52a7.61,7.61,0,0,1-1.82-5.14,7.33,7.33,0,0,1,2.21-5.5,8.39,8.39,0,0,1,6.1-2.14,10.76,10.76,0,0,1,5,.95,6.65,6.65,0,0,1,2.81,2.75,8,8,0,0,1,1,3.94,7.3,7.3,0,0,1-2.2,5.55A8.79,8.79,0,0,1,800.58,827.89Zm0-2.84a7,7,0,0,0,4.7-1.37,4.56,4.56,0,0,0,.45-6.43,4.78,4.78,0,0,0-.45-.45,7.12,7.12,0,0,0-4.78-1.36,6.75,6.75,0,0,0-4.59,1.37,4.55,4.55,0,0,0-.43,6.43v0a4.16,4.16,0,0,0,.42.42A7,7,0,0,0,800.58,825.05Z"/><path id="ArialMT-6e-6" class="cls-4" d="M808.75,809.35H792.41v-2.5h2.33a5.85,5.85,0,0,1-2.7-5.19,6.71,6.71,0,0,1,.54-2.72,4.2,4.2,0,0,1,1.39-1.86,5.4,5.4,0,0,1,2-.86,17.27,17.27,0,0,1,2.69-.15h10v2.77h-9.94a7.23,7.23,0,0,0-2.53.33,2.6,2.6,0,0,0-1.33,1.14,3.53,3.53,0,0,0-.5,1.93,4.49,4.49,0,0,0,1.12,3q1.13,1.29,4.26,1.29h8.92Z"/><path id="ArialMT-2d-3" class="cls-4" d="M802,792.9h-2.8v-8.5H802Z"/><path id="ArialMT-43-13" class="cls-4" d="M800.84,764.89l.76-3a10,10,0,0,1,5.6,3.38,9.28,9.28,0,0,1,1.93,6,10.72,10.72,0,0,1-1.48,5.93,9.26,9.26,0,0,1-4.3,3.47,15.26,15.26,0,0,1-6,1.19,13.34,13.34,0,0,1-6.15-1.34,9.3,9.3,0,0,1-4-3.83,11.23,11.23,0,0,1-1.36-5.47,9.2,9.2,0,0,1,1.72-5.69,9,9,0,0,1,4.84-3.22l.7,2.94a7,7,0,0,0-3.59,2.28,6.05,6.05,0,0,0-1.12,3.75,7.23,7.23,0,0,0,1.25,4.35,6.51,6.51,0,0,0,3.34,2.45,13.6,13.6,0,0,0,4.33.71,13.76,13.76,0,0,0,5-.84,6.33,6.33,0,0,0,3.21-2.6,7.34,7.34,0,0,0,1.06-3.84,6.47,6.47,0,0,0-1.44-4.24A7.41,7.41,0,0,0,800.84,764.89Z"/><path id="ArialMT-6f-13" class="cls-4" d="M800.58,759.62q-4.53,0-6.72-2.52A7.57,7.57,0,0,1,792,752a7.33,7.33,0,0,1,2.21-5.5,8.38,8.38,0,0,1,6.1-2.15,10.78,10.78,0,0,1,5,1,6.74,6.74,0,0,1,2.81,2.76,8,8,0,0,1,1,3.94,7.35,7.35,0,0,1-2.2,5.55A8.84,8.84,0,0,1,800.58,759.62Zm0-2.85a7,7,0,0,0,4.7-1.37,4.55,4.55,0,0,0,.45-6.42h0a4.78,4.78,0,0,0-.45-.45,7.11,7.11,0,0,0-4.78-1.37,6.71,6.71,0,0,0-4.59,1.38,4.57,4.57,0,0,0-.43,6.43,4.36,4.36,0,0,0,.43.43A6.88,6.88,0,0,0,800.58,756.77Z"/><path id="ArialMT-52-8" class="cls-4" d="M808.75,740.67H786.2v-10a13.41,13.41,0,0,1,.61-4.58,5.07,5.07,0,0,1,2.15-2.51,6.42,6.42,0,0,1,3.39-.94,5.71,5.71,0,0,1,4,1.56,7.84,7.84,0,0,1,2.09,4.8,8,8,0,0,1,1.12-1.81,16.17,16.17,0,0,1,3-2.47l6.14-3.92v3.75l-4.69,3c-1.36.88-2.39,1.6-3.11,2.16a6.51,6.51,0,0,0-1.5,1.51,4.89,4.89,0,0,0-.61,1.36,9.2,9.2,0,0,0-.1,1.66v3.47h10Zm-12.6-3v-6.42a9.56,9.56,0,0,0-.42-3.19,3.37,3.37,0,0,0-1.35-1.76,3.64,3.64,0,0,0-2-.6,3.33,3.33,0,0,0-2.62,1.16,5.41,5.41,0,0,0-1,3.67v7.14Z"/><path id="ArialMT-54-8" class="cls-4" d="M808.75,712.78H788.86v7.43H786.2V702.34h2.66v7.46h19.89Z"/><path id="ArialMT-2d-4" class="cls-4" d="M802,692.51h-2.8V684H802Z"/><path id="ArialMT-43-14" class="cls-4" d="M800.84,655.75l.76-3a10,10,0,0,1,5.6,3.38,9.28,9.28,0,0,1,1.93,6,10.72,10.72,0,0,1-1.48,5.93,9.26,9.26,0,0,1-4.3,3.47,15.27,15.27,0,0,1-6,1.2,13.22,13.22,0,0,1-6.15-1.35,9.25,9.25,0,0,1-4-3.83,11.23,11.23,0,0,1-1.36-5.47,9.23,9.23,0,0,1,1.72-5.68,8.92,8.92,0,0,1,4.84-3.22l.7,2.93a7,7,0,0,0-3.59,2.28,6.05,6.05,0,0,0-1.12,3.75,7.23,7.23,0,0,0,1.25,4.35A6.63,6.63,0,0,0,793,669a13.59,13.59,0,0,0,4.33.7,13.76,13.76,0,0,0,5-.84,6.15,6.15,0,0,0,3.21-2.6,7.27,7.27,0,0,0,1.06-3.83,6.5,6.5,0,0,0-1.44-4.25A7.41,7.41,0,0,0,800.84,655.75Z"/><path id="ArialMT-6f-14" class="cls-4" d="M800.58,650.47q-4.53,0-6.72-2.52a7.61,7.61,0,0,1-1.82-5.14,7.33,7.33,0,0,1,2.21-5.5,8.39,8.39,0,0,1,6.1-2.14,10.75,10.75,0,0,1,5,.94,6.74,6.74,0,0,1,2.81,2.76,8,8,0,0,1,1,3.94,7.3,7.3,0,0,1-2.2,5.55A8.79,8.79,0,0,1,800.58,650.47Zm0-2.85a7,7,0,0,0,4.7-1.36,4.4,4.4,0,0,0,1.56-3.45,4.32,4.32,0,0,0-1.57-3.43,7.11,7.11,0,0,0-4.78-1.37,6.71,6.71,0,0,0-4.59,1.38,4.55,4.55,0,0,0-.43,6.43v0a4.16,4.16,0,0,0,.42.42A7,7,0,0,0,800.58,647.62Z"/><path id="ArialMT-52-9" class="cls-4" d="M808.75,631.52H786.2v-10a13.47,13.47,0,0,1,.61-4.59,5.07,5.07,0,0,1,2.15-2.51,6.42,6.42,0,0,1,3.39-.94,5.71,5.71,0,0,1,4,1.56,7.92,7.92,0,0,1,2.09,4.8,8,8,0,0,1,1.12-1.8,15.53,15.53,0,0,1,3-2.48l6.14-3.92v3.75l-4.69,3c-1.36.87-2.39,1.59-3.11,2.15a6.51,6.51,0,0,0-1.5,1.51,4.56,4.56,0,0,0-.61,1.37,9.2,9.2,0,0,0-.1,1.66v3.46h10Zm-12.6-3V622.1a9.56,9.56,0,0,0-.42-3.19,3.43,3.43,0,0,0-1.35-1.76,3.64,3.64,0,0,0-2-.6,3.33,3.33,0,0,0-2.62,1.16,5.46,5.46,0,0,0-1,3.67v7.14Z"/><path id="ArialMT-54-9" class="cls-4" d="M808.75,603.64H788.86v7.42H786.2V593.19h2.66v7.46h19.89Z"/><path id="ArialMT-29-4" class="cls-4" d="M815.38,588.67v2a27.79,27.79,0,0,0-14.78-4.6,25.21,25.21,0,0,0-5.74.66,23.73,23.73,0,0,0-4.43,1.47,52.22,52.22,0,0,0-4.61,2.47v-2a29,29,0,0,1,7.75-4.27,20.64,20.64,0,0,1,7-1.19,21,21,0,0,1,8,1.59A28.32,28.32,0,0,1,815.38,588.67Z"/></g><g id="patch_26" data-name="patch 26"><g class="cls-17"><path class="cls-6" d="M918.55,778.64H1164V784H918.55Z"/></g></g><g id="patch_27" data-name="patch 27"><g class="cls-17"><path class="cls-7" d="M1225.37,778.64h245.45V745.15H1225.37Z"/></g></g><g id="line2d_11" data-name="line2d 11"><g class="cls-17"><path class="cls-8" d="M1041.28,818.37V748.25"/></g></g><g id="line2d_12" data-name="line2d 12"><g class="cls-17"><path class="cls-8" d="M1348.1,778.48V709.82"/></g></g><g id="patch_28" data-name="patch 28"><path class="cls-13" d="M887.87,962.93V587.47"/></g><g id="patch_29" data-name="patch 29"><path class="cls-13" d="M887.87,962.93H1501.5"/></g><g id="PathCollection_3" data-name="PathCollection 3"><g class="cls-17"><path id="C2_0_b681c3c3b8" data-name="C2 0 b681c3c3b8" class="cls-14" d="M1041.28,950.87a5,5,0,1,0-3.54-1.47A5,5,0,0,0,1041.28,950.87Z"/></g><g class="cls-17"><path id="C2_0_b681c3c3b8-2" data-name="C2 0 b681c3c3b8-2" class="cls-14" d="M1041.28,910.26a5,5,0,1,0-3.54-1.46A5,5,0,0,0,1041.28,910.26Z"/></g><g class="cls-17"><path id="C2_0_b681c3c3b8-3" data-name="C2 0 b681c3c3b8-3" class="cls-14" d="M1041.28,869.47a5,5,0,1,0-3.54-1.47A5,5,0,0,0,1041.28,869.47Z"/></g><g class="cls-17"><path id="C2_0_b681c3c3b8-4" data-name="C2 0 b681c3c3b8-4" class="cls-14" d="M1009.68,860a5,5,0,1,0-3.55-1.47A5,5,0,0,0,1009.68,860Z"/></g><g class="cls-17"><path id="C2_0_b681c3c3b8-5" data-name="C2 0 b681c3c3b8-5" class="cls-14" d="M1041.28,827.55a5,5,0,1,0-3.54-1.46A5,5,0,0,0,1041.28,827.55Z"/></g><g class="cls-17"><path id="C2_0_b681c3c3b8-6" data-name="C2 0 b681c3c3b8-6" class="cls-14" d="M1073.79,825.92a5,5,0,1,0-3.54-1.47A5,5,0,0,0,1073.79,825.92Z"/></g><g class="cls-17"><path id="C2_0_b681c3c3b8-7" data-name="C2 0 b681c3c3b8-7" class="cls-14" d="M994,825.06a5,5,0,1,0-3.54-1.46A5,5,0,0,0,994,825.06Z"/></g><g class="cls-17"><path id="C2_0_b681c3c3b8-8" data-name="C2 0 b681c3c3b8-8" class="cls-14" d="M1105.85,819.07a5,5,0,1,0-3.55-1.47A5,5,0,0,0,1105.85,819.07Z"/></g><g class="cls-17"><path id="C2_0_b681c3c3b8-9" data-name="C2 0 b681c3c3b8-9" class="cls-14" d="M1030.92,789.83a5,5,0,1,0-3.53-1.47A5,5,0,0,0,1030.92,789.83Z"/></g><g class="cls-17"><path id="C2_0_b681c3c3b8-10" data-name="C2 0 b681c3c3b8-10" class="cls-14" d="M1062.53,780.35a5,5,0,1,0-3.54-1.46A5,5,0,0,0,1062.53,780.35Z"/></g><g class="cls-17"><path id="C2_0_b681c3c3b8-11" data-name="C2 0 b681c3c3b8-11" class="cls-14" d="M1006.15,764a5,5,0,1,0-3.54-1.46A5,5,0,0,0,1006.15,764Z"/></g><g class="cls-17"><path id="C2_0_b681c3c3b8-12" data-name="C2 0 b681c3c3b8-12" class="cls-14" d="M1087,754.14a5,5,0,1,0-5-5A5,5,0,0,0,1087,754.14Z"/></g><g class="cls-17"><path id="C2_0_b681c3c3b8-13" data-name="C2 0 b681c3c3b8-13" class="cls-14" d="M1041.28,750.36a5,5,0,1,0-3.54-1.46A5,5,0,0,0,1041.28,750.36Z"/></g><g class="cls-17"><path id="C2_0_b681c3c3b8-14" data-name="C2 0 b681c3c3b8-14" class="cls-14" d="M977,746.25a5,5,0,1,0-5-5A5,5,0,0,0,977,746.25Z"/></g><g class="cls-17"><path id="C2_0_b681c3c3b8-15" data-name="C2 0 b681c3c3b8-15" class="cls-14" d="M1115.46,734.82a5,5,0,1,0-3.54-1.46A5,5,0,0,0,1115.46,734.82Z"/></g><g class="cls-17"><path id="C2_0_b681c3c3b8-16" data-name="C2 0 b681c3c3b8-16" class="cls-14" d="M1037.67,710.82a5,5,0,1,0-3.53-1.47A5,5,0,0,0,1037.67,710.82Z"/></g><g class="cls-17"><path id="C2_0_b681c3c3b8-17" data-name="C2 0 b681c3c3b8-17" class="cls-14" d="M1050,674a5,5,0,1,0-3.54-1.47A5,5,0,0,0,1050,674Z"/></g><g class="cls-17"><path id="C2_0_b681c3c3b8-18" data-name="C2 0 b681c3c3b8-18" class="cls-14" d="M1041.28,609.53a5,5,0,1,0-3.54-1.46A5,5,0,0,0,1041.28,609.53Z"/></g></g><g class="cls-17"><path id="C3_0_e57644ba2a" data-name="C3 0 e57644ba2a" class="cls-14" d="M1348.1,857.53a5,5,0,1,0-3.54-1.46A5,5,0,0,0,1348.1,857.53Z"/></g><g class="cls-17"><path id="C3_0_e57644ba2a-2" data-name="C3 0 e57644ba2a-2" class="cls-14" d="M1320.16,837.13a5,5,0,1,0-3.54-1.47A5,5,0,0,0,1320.16,837.13Z"/></g><g class="cls-17"><path id="C3_0_e57644ba2a-3" data-name="C3 0 e57644ba2a-3" class="cls-14" d="M1348.1,804a5,5,0,1,0-3.54-1.47A5,5,0,0,0,1348.1,804Z"/></g><g class="cls-17"><path id="C3_0_e57644ba2a-4" data-name="C3 0 e57644ba2a-4" class="cls-14" d="M1380.34,798.62a5,5,0,1,0-3.53-1.46A5,5,0,0,0,1380.34,798.62Z"/></g><g class="cls-17"><path id="C3_0_e57644ba2a-5" data-name="C3 0 e57644ba2a-5" class="cls-14" d="M1317.75,789.57a5,5,0,1,0-3.53-1.46A5,5,0,0,0,1317.75,789.57Z"/></g><g class="cls-17"><path id="C3_0_e57644ba2a-6" data-name="C3 0 e57644ba2a-6" class="cls-14" d="M1410.29,783a5,5,0,1,0-3.54-1.47A5,5,0,0,0,1410.29,783Z"/></g><g class="cls-17"><path id="C3_0_e57644ba2a-7" data-name="C3 0 e57644ba2a-7" class="cls-14" d="M1289,770.86a5,5,0,1,0-3.53-1.46A5,5,0,0,0,1289,770.86Z"/></g><g class="cls-17"><path id="C3_0_e57644ba2a-8" data-name="C3 0 e57644ba2a-8" class="cls-14" d="M1348.1,759.85a5,5,0,1,0-3.54-1.47A5,5,0,0,0,1348.1,759.85Z"/></g><g class="cls-17"><path id="C3_0_e57644ba2a-9" data-name="C3 0 e57644ba2a-9" class="cls-14" d="M1317.47,746.4a5,5,0,1,0-3.54-1.46A5,5,0,0,0,1317.47,746.4Z"/></g><g class="cls-17"><path id="C3_0_e57644ba2a-10" data-name="C3 0 e57644ba2a-10" class="cls-14" d="M1348.1,710.71a5,5,0,1,0-3.54-1.46A5,5,0,0,0,1348.1,710.71Z"/></g><g class="cls-17"><path id="C3_0_e57644ba2a-11" data-name="C3 0 e57644ba2a-11" class="cls-14" d="M1320.2,690.21a5,5,0,1,0-3.53-1.46A5,5,0,0,0,1320.2,690.21Z"/></g><g class="cls-17"><path id="C3_0_e57644ba2a-12" data-name="C3 0 e57644ba2a-12" class="cls-14" d="M1361.54,674.47A5,5,0,1,0,1358,673,5,5,0,0,0,1361.54,674.47Z"/></g><g class="cls-17"><path id="C3_0_e57644ba2a-13" data-name="C3 0 e57644ba2a-13" class="cls-14" d="M1344.55,640.53a5,5,0,1,0-3.53-1.46A5,5,0,0,0,1344.55,640.53Z"/></g><g class="cls-18"><path id="C3_0_e57644ba2a-14" data-name="C3 0 e57644ba2a-14" class="cls-14" d="M1376.72,639.28a5,5,0,1,0-3.54-1.47A5,5,0,0,0,1376.72,639.28Z"/></g><rect class="cls-2" x="887.87" y="587.47" width="613.64" height="375.46"/><g id="text_35" data-name="text 35"><path id="ArialMT-44-5" class="cls-4" d="M717.59,602.9V547.07h19.23a46.7,46.7,0,0,1,9.94.79,19,19,0,0,1,8.18,4,22.88,22.88,0,0,1,6.65,9.52,37.41,37.41,0,0,1,2.19,13.26,38.67,38.67,0,0,1-1.49,11.27,27.16,27.16,0,0,1-3.8,8.14,20.1,20.1,0,0,1-5.09,5.07,20.93,20.93,0,0,1-6.66,2.8,38.39,38.39,0,0,1-9,1Zm7.38-6.6h11.92a29.16,29.16,0,0,0,8.67-1,12.35,12.35,0,0,0,5-2.9,17.56,17.56,0,0,0,4.09-7.06,34.69,34.69,0,0,0,1.46-10.76q0-8.76-2.87-13.47a14.55,14.55,0,0,0-7-6.3q-3-1.14-9.55-1.14H725Z"/></g><line class="cls-19" x1="878.66" y1="100.12" x2="1501.5" y2="99.69"/><line class="cls-19" x1="1501.52" y1="990.29" x2="1501.29" y2="53.99"/><line class="cls-19" x1="883.27" y1="587.84" x2="1506.1" y2="587.41"/></svg>