<?xml version="1.0" encoding="utf-8"?>
<!-- Generator: Adobe Illustrator 24.1.0, SVG Export Plug-In . SVG Version: 6.00 Build 0)  -->
<svg version="1.1" id="Layer_1" xmlns="http://www.w3.org/2000/svg" xmlns:xlink="http://www.w3.org/1999/xlink" x="0px" y="0px"
	 viewBox="0 0 1508.7 1027" style="enable-background:new 0 0 1508.7 1027;" xml:space="preserve">
<style type="text/css">
	.st0{fill:#FFFFFF;}
	.st1{fill:#262626;}
	.st2{clip-path:url(#SVGID_2_);fill:#772B58;stroke:#FFFFFF;stroke-width:0.24;}
	.st3{clip-path:url(#SVGID_4_);fill:#772B58;stroke:#FFFFFF;stroke-width:0.24;}
	.st4{clip-path:url(#SVGID_6_);fill:#DB6E59;stroke:#FFFFFF;stroke-width:0.24;}
	.st5{clip-path:url(#SVGID_8_);fill:#DB6E59;stroke:#FFFFFF;stroke-width:0.24;}
	.st6{clip-path:url(#SVGID_10_);fill:none;stroke:#424242;stroke-linecap:round;stroke-linejoin:round;}
	.st7{clip-path:url(#SVGID_12_);fill:none;stroke:#424242;stroke-linecap:round;stroke-linejoin:round;}
	.st8{clip-path:url(#SVGID_14_);fill:none;stroke:#424242;stroke-linecap:round;stroke-linejoin:round;}
	.st9{clip-path:url(#SVGID_16_);fill:none;stroke:#424242;stroke-linecap:round;stroke-linejoin:round;}
	.st10{fill:none;stroke:#262626;stroke-width:3;stroke-linecap:square;}
	.st11{fill:#772B58;stroke:#FFFFFF;stroke-width:0.24;}
	.st12{fill:#DB6E59;stroke:#FFFFFF;stroke-width:0.24;}
	.st13{clip-path:url(#SVGID_18_);fill:#772B58;stroke:#FFFFFF;stroke-width:0.24;}
	.st14{clip-path:url(#SVGID_20_);fill:#DB6E59;stroke:#FFFFFF;stroke-width:0.24;}
	.st15{clip-path:url(#SVGID_22_);fill:none;stroke:#424242;stroke-linecap:round;stroke-linejoin:round;}
	.st16{clip-path:url(#SVGID_24_);fill:none;stroke:#424242;stroke-linecap:round;stroke-linejoin:round;}
	.st17{fill:none;stroke:#262626;stroke-width:0.8;stroke-linecap:square;}
	.st18{clip-path:url(#SVGID_26_);}
	.st19{fill:#404040;}
	.st20{clip-path:url(#SVGID_28_);}
	.st21{clip-path:url(#SVGID_30_);}
	.st22{clip-path:url(#SVGID_32_);}
	.st23{clip-path:url(#SVGID_34_);}
	.st24{clip-path:url(#SVGID_36_);}
	.st25{clip-path:url(#SVGID_38_);}
	.st26{clip-path:url(#SVGID_40_);}
	.st27{clip-path:url(#SVGID_42_);}
	.st28{clip-path:url(#SVGID_44_);}
	.st29{clip-path:url(#SVGID_46_);}
	.st30{clip-path:url(#SVGID_48_);}
	.st31{clip-path:url(#SVGID_50_);}
	.st32{clip-path:url(#SVGID_52_);}
	.st33{clip-path:url(#SVGID_54_);}
	.st34{clip-path:url(#SVGID_56_);}
	.st35{clip-path:url(#SVGID_58_);}
	.st36{clip-path:url(#SVGID_60_);}
	.st37{clip-path:url(#SVGID_62_);}
	.st38{clip-path:url(#SVGID_64_);}
	.st39{clip-path:url(#SVGID_66_);}
	.st40{clip-path:url(#SVGID_68_);}
	.st41{clip-path:url(#SVGID_70_);}
	.st42{clip-path:url(#SVGID_72_);}
	.st43{clip-path:url(#SVGID_74_);}
	.st44{clip-path:url(#SVGID_76_);}
	.st45{clip-path:url(#SVGID_78_);}
	.st46{clip-path:url(#SVGID_80_);}
	.st47{clip-path:url(#SVGID_82_);}
	.st48{clip-path:url(#SVGID_84_);}
	.st49{clip-path:url(#SVGID_86_);}
	.st50{clip-path:url(#SVGID_88_);}
	.st51{fill:none;}
	.st52{font-family:'MyriadPro-Regular';}
	.st53{font-size:50px;}
</style>
<g id="patch_2">
	<path class="st0" d="M151.5,928.5h613.6V64.9H151.5V928.5z"/>
</g>
<g id="matplotlib.axis_1">
	<g id="xtick_1">
		<g id="text_1">
			<g transform="translate(214.860653 994.85605)scale(0.4 -0.4)">
				<g>
					<path id="ArialMT-68" class="st1" d="M6.6,71.6v71.6h8.8v-25.7c4.1,4.8,9.3,7.1,15.5,7.1c3.8,0,7.2-0.8,10-2.3
						c2.8-1.5,4.9-3.6,6.1-6.3c1.2-2.7,1.8-6.5,1.8-11.6V71.6H40v32.9c0,4.4-1,7.6-2.9,9.6s-4.6,3-8.1,3c-2.6,0-5.1-0.7-7.4-2
						c-2.3-1.3-3.9-3.2-4.9-5.5s-1.5-5.5-1.5-9.6V71.6H6.6z"/>
				</g>
				<g>
					<path id="ArialMT-69" class="st1" d="M62.3,133.1v10.1h8.8v-10.1H62.3z M62.3,71.6v51.9h8.8V71.6H62.3z"/>
				</g>
				<g>
					<path id="ArialMT-67" class="st1" d="M82.8,67.3l8.5-1.3c0.4-2.6,1.3-4.6,3-5.8c2.2-1.6,5.2-2.4,8.9-2.4c4.1,0,7.2,0.8,9.4,2.4
						c2.2,1.6,3.7,3.9,4.5,6.8c0.5,1.8,0.7,5.6,0.6,11.3c-3.8-4.5-8.6-6.8-14.3-6.8c-7.1,0-12.7,2.6-16.6,7.7
						c-3.9,5.1-5.9,11.3-5.9,18.5c0,4.9,0.9,9.5,2.7,13.7c1.8,4.2,4.4,7.4,7.8,9.7c3.4,2.3,7.4,3.4,12,3.4c6.1,0,11.2-2.5,15.1-7.4
						v6.2h8.1V78.6c0-8.1-0.8-13.8-2.5-17.2c-1.6-3.4-4.2-6-7.8-8c-3.6-2-7.9-2.9-13.2-2.9c-6.2,0-11.2,1.4-15,4.2
						S82.7,61.7,82.8,67.3z M90.1,98.5c0-6.8,1.3-11.8,4-14.9c2.7-3.1,6.1-4.7,10.2-4.7c4,0,7.4,1.6,10.1,4.7
						c2.7,3.1,4.1,8,4.1,14.6c0,6.3-1.4,11.1-4.2,14.3c-2.8,3.2-6.2,4.8-10.2,4.8c-3.9,0-7.2-1.6-10-4.8
						C91.4,109.4,90.1,104.7,90.1,98.5z"/>
				</g>
				<g>
					<path id="ArialMT-68_1_" class="st1" d="M140,71.6v71.6h8.8v-25.7c4.1,4.8,9.3,7.1,15.5,7.1c3.8,0,7.2-0.8,10-2.3
						c2.8-1.5,4.9-3.6,6.1-6.3c1.2-2.7,1.8-6.5,1.8-11.6V71.6h-8.8v32.9c0,4.4-1,7.6-2.9,9.6s-4.6,3-8.1,3c-2.6,0-5.1-0.7-7.4-2
						c-2.3-1.3-3.9-3.2-4.9-5.5s-1.5-5.5-1.5-9.6V71.6H140z"/>
				</g>
				<g>
					<path id="ArialMT-20" class="st1" d="M189.1,71.6"/>
				</g>
				<g>
					<path id="ArialMT-63" class="st1" d="M257.3,90.6l8.6-1.1c-0.9-6-3.4-10.6-7.3-14c-3.9-3.4-8.7-5-14.3-5
						c-7.1,0-12.8,2.3-17.1,7c-4.3,4.6-6.5,11.3-6.5,20c0,5.6,0.9,10.5,2.8,14.7c1.9,4.2,4.7,7.4,8.5,9.5c3.8,2.1,7.9,3.2,12.4,3.2
						c5.6,0,10.2-1.4,13.8-4.3c3.6-2.8,5.9-6.9,6.9-12.1l-8.5-1.3c-0.8,3.5-2.3,6.1-4.3,7.9c-2.1,1.8-4.6,2.6-7.5,2.6
						c-4.4,0-8-1.6-10.8-4.8c-2.8-3.2-4.1-8.2-4.1-15c0-7,1.3-12,4-15.2c2.7-3.2,6.2-4.7,10.5-4.7c3.4,0,6.3,1.1,8.6,3.2
						C255.2,82.9,256.7,86.2,257.3,90.6z"/>
				</g>
				<g>
					<path id="ArialMT-6c" class="st1" d="M273.2,71.6v71.6h8.8V71.6H273.2z"/>
				</g>
				<g>
					<path id="ArialMT-6f" class="st1" d="M292.4,97.5c0,9.6,2.7,16.7,8,21.3c4.5,3.8,9.9,5.8,16.3,5.8c7.1,0,12.9-2.3,17.5-7
						c4.5-4.7,6.8-11.1,6.8-19.4c0-6.7-1-11.9-3-15.8c-2-3.8-4.9-6.8-8.8-8.9c-3.8-2.1-8-3.2-12.5-3.2c-7.3,0-13.1,2.3-17.6,7
						C294.6,82.1,292.4,88.8,292.4,97.5z M301.4,97.5c0-6.6,1.4-11.6,4.3-14.9c2.9-3.3,6.5-5,10.9-5c4.4,0,8,1.7,10.9,5
						c2.9,3.3,4.3,8.4,4.3,15.2c0,6.4-1.5,11.3-4.4,14.6c-2.9,3.3-6.5,5-10.9,5c-4.4,0-8-1.6-10.9-4.9
						C302.9,109.1,301.4,104.2,301.4,97.5z"/>
				</g>
				<g>
					<path id="ArialMT-7a" class="st1" d="M346.6,71.6v7.1l33,37.9c-3.8-0.2-7.1-0.3-9.9-0.3h-21.1v7.1H391v-5.8l-28.1-32.9l-5.4-6
						c3.9,0.3,7.6,0.4,11.1,0.4h24v-7.6H346.6z"/>
				</g>
				<g>
					<path id="ArialMT-65" class="st1" d="M436.8,88.3l9.1-1.1c-1.4-5.3-4.1-9.4-8-12.4c-3.9-2.9-8.8-4.4-14.8-4.4
						c-7.6,0-13.6,2.3-18,7c-4.4,4.7-6.7,11.2-6.7,19.7c0,8.7,2.2,15.5,6.7,20.3c4.5,4.8,10.3,7.2,17.5,7.2c6.9,0,12.6-2.4,17-7.1
						c4.4-4.7,6.6-11.4,6.6-19.9c0-0.5,0-1.3,0-2.3h-38.7c0.3-5.7,1.9-10.1,4.8-13.1c2.9-3,6.5-4.5,10.8-4.5c3.2,0,6,0.8,8.2,2.5
						C433.6,81.9,435.4,84.6,436.8,88.3z M407.9,102.5h29c-0.4,4.4-1.5,7.6-3.3,9.8c-2.8,3.4-6.4,5.1-10.9,5.1c-4,0-7.4-1.3-10.2-4
						C409.7,110.7,408.2,107,407.9,102.5z"/>
				</g>
			</g>
		</g>
	</g>
	<g id="xtick_2">
		<g id="text_2">
			<g transform="translate(529.478835 994.85605)scale(0.4 -0.4)">
				<g>
					<path id="ArialMT-6c_1_" class="st1" d="M6.4,71.6v71.6h8.8V71.6H6.4z"/>
				</g>
				<g>
					<path id="ArialMT-6f_1_" class="st1" d="M25.5,97.5c0,9.6,2.7,16.7,8,21.3c4.5,3.8,9.9,5.8,16.3,5.8c7.1,0,12.9-2.3,17.5-7
						c4.5-4.7,6.8-11.1,6.8-19.4c0-6.7-1-11.9-3-15.8c-2-3.8-4.9-6.8-8.8-8.9c-3.8-2.1-8-3.2-12.5-3.2c-7.3,0-13.1,2.3-17.6,7
						C27.8,82.1,25.5,88.8,25.5,97.5z M34.6,97.5c0-6.6,1.4-11.6,4.3-14.9c2.9-3.3,6.5-5,10.9-5c4.4,0,8,1.7,10.9,5
						c2.9,3.3,4.3,8.4,4.3,15.2c0,6.4-1.5,11.3-4.4,14.6c-2.9,3.3-6.5,5-10.9,5c-4.4,0-8-1.6-10.9-4.9
						C36,109.1,34.6,104.2,34.6,97.5z"/>
				</g>
				<g>
					<path id="ArialMT-77" class="st1" d="M94,71.6l-15.9,51.9h9.1l8.2-29.9l3.1-11.1c0.1,0.6,1,4.1,2.7,10.7l8.2,30.4h9l7.8-30.1
						l2.6-9.9l3,10l8.9,30h8.5l-16.2-51.9h-9.1l-8.2,31.1l-2,8.8l-10.5-39.9H94z"/>
				</g>
				<g>
					<path id="ArialMT-20_1_" class="st1" d="M150,71.6"/>
				</g>
				<g>
					<path id="ArialMT-63_1_" class="st1" d="M218.3,90.6l8.6-1.1c-0.9-6-3.4-10.6-7.3-14c-3.9-3.4-8.7-5-14.3-5
						c-7.1,0-12.8,2.3-17.1,7c-4.3,4.6-6.5,11.3-6.5,20c0,5.6,0.9,10.5,2.8,14.7c1.9,4.2,4.7,7.4,8.5,9.5c3.8,2.1,7.9,3.2,12.4,3.2
						c5.6,0,10.2-1.4,13.8-4.3c3.6-2.8,5.9-6.9,6.9-12.1l-8.5-1.3c-0.8,3.5-2.3,6.1-4.3,7.9c-2.1,1.8-4.6,2.6-7.5,2.6
						c-4.4,0-8-1.6-10.8-4.8c-2.8-3.2-4.1-8.2-4.1-15c0-7,1.3-12,4-15.2c2.7-3.2,6.2-4.7,10.5-4.7c3.4,0,6.3,1.1,8.6,3.2
						C216.2,82.9,217.6,86.2,218.3,90.6z"/>
				</g>
				<g>
					<path id="ArialMT-6c_2_" class="st1" d="M234.2,71.6v71.6h8.8V71.6H234.2z"/>
				</g>
				<g>
					<path id="ArialMT-6f_2_" class="st1" d="M253.4,97.5c0,9.6,2.7,16.7,8,21.3c4.5,3.8,9.9,5.8,16.3,5.8c7.1,0,12.9-2.3,17.5-7
						c4.5-4.7,6.8-11.1,6.8-19.4c0-6.7-1-11.9-3-15.8c-2-3.8-4.9-6.8-8.8-8.9c-3.8-2.1-8-3.2-12.5-3.2c-7.3,0-13.1,2.3-17.6,7
						C255.6,82.1,253.4,88.8,253.4,97.5z M262.4,97.5c0-6.6,1.4-11.6,4.3-14.9c2.9-3.3,6.5-5,10.9-5c4.4,0,8,1.7,10.9,5
						c2.9,3.3,4.3,8.4,4.3,15.2c0,6.4-1.5,11.3-4.4,14.6c-2.9,3.3-6.5,5-10.9,5c-4.4,0-8-1.6-10.9-4.9
						C263.9,109.1,262.4,104.2,262.4,97.5z"/>
				</g>
				<g>
					<path id="ArialMT-7a_1_" class="st1" d="M307.6,71.6v7.1l33,37.9c-3.8-0.2-7.1-0.3-9.9-0.3h-21.1v7.1H352v-5.8l-28.1-32.9
						l-5.4-6c3.9,0.3,7.6,0.4,11.1,0.4h24v-7.6H307.6z"/>
				</g>
				<g>
					<path id="ArialMT-65_1_" class="st1" d="M397.8,88.3l9.1-1.1c-1.4-5.3-4.1-9.4-8-12.4c-3.9-2.9-8.8-4.4-14.8-4.4
						c-7.6,0-13.6,2.3-18,7c-4.4,4.7-6.7,11.2-6.7,19.7c0,8.7,2.2,15.5,6.7,20.3c4.5,4.8,10.3,7.2,17.5,7.2c6.9,0,12.6-2.4,17-7.1
						c4.4-4.7,6.6-11.4,6.6-19.9c0-0.5,0-1.3,0-2.3h-38.7c0.3-5.7,1.9-10.1,4.8-13.1c2.9-3,6.5-4.5,10.8-4.5c3.2,0,6,0.8,8.2,2.5
						C394.6,81.9,396.4,84.6,397.8,88.3z M368.9,102.5h29c-0.4,4.4-1.5,7.6-3.3,9.8c-2.8,3.4-6.4,5.1-10.9,5.1c-4,0-7.4-1.3-10.2-4
						C370.7,110.7,369.2,107,368.9,102.5z"/>
				</g>
			</g>
		</g>
	</g>
	<g id="text_3">
		<g transform="translate(405.799432 1039.484956)scale(0.45 -0.45)">
			<g>
				<path id="ArialMT-63_2_" class="st1" d="M40.4,82.6l8.6-1.1c-0.9-6-3.4-10.6-7.3-14c-3.9-3.4-8.7-5-14.3-5
					c-7.1,0-12.8,2.3-17.1,7c-4.3,4.6-6.5,11.3-6.5,20c0,5.6,0.9,10.5,2.8,14.7c1.9,4.2,4.7,7.4,8.5,9.5c3.8,2.1,7.9,3.2,12.4,3.2
					c5.6,0,10.2-1.4,13.8-4.3c3.6-2.8,5.9-6.9,6.9-12.1l-8.5-1.3c-0.8,3.5-2.3,6.1-4.3,7.9c-2.1,1.8-4.6,2.6-7.5,2.6
					c-4.4,0-8-1.6-10.8-4.8c-2.8-3.2-4.1-8.2-4.1-15c0-7,1.3-12,4-15.2c2.7-3.2,6.2-4.7,10.5-4.7c3.4,0,6.3,1.1,8.6,3.2
					C38.3,75,39.8,78.2,40.4,82.6z"/>
			</g>
			<g>
				<path id="ArialMT-6c_3_" class="st1" d="M56.4,63.6v71.6h8.8V63.6H56.4z"/>
			</g>
			<g>
				<path id="ArialMT-6f_3_" class="st1" d="M75.5,89.6c0,9.6,2.7,16.7,8,21.3c4.5,3.8,9.9,5.8,16.3,5.8c7.1,0,12.9-2.3,17.5-7
					c4.5-4.7,6.8-11.1,6.8-19.4c0-6.7-1-11.9-3-15.8c-2-3.8-4.9-6.8-8.8-8.9c-3.8-2.1-8-3.2-12.5-3.2c-7.3,0-13.1,2.3-17.6,7
					C77.8,74.1,75.5,80.8,75.5,89.6z M84.6,89.6c0-6.6,1.4-11.6,4.3-14.9c2.9-3.3,6.5-5,10.9-5c4.4,0,8,1.7,10.9,5
					c2.9,3.3,4.3,8.4,4.3,15.2c0,6.4-1.5,11.3-4.4,14.6c-2.9,3.3-6.5,5-10.9,5c-4.4,0-8-1.6-10.9-4.9C86,101.2,84.6,96.2,84.6,89.6z
					"/>
			</g>
			<g>
				<path id="ArialMT-7a_2_" class="st1" d="M129.8,63.6v7.1l33,37.9c-3.8-0.2-7.1-0.3-9.9-0.3h-21.1v7.1h42.4v-5.8l-28.1-32.9
					l-5.4-6c3.9,0.3,7.6,0.4,11.1,0.4h24v-7.6H129.8z"/>
			</g>
			<g>
				<path id="ArialMT-65_2_" class="st1" d="M219.9,80.3l9.1-1.1c-1.4-5.3-4.1-9.4-8-12.4c-3.9-2.9-8.8-4.4-14.8-4.4
					c-7.6,0-13.6,2.3-18,7c-4.4,4.7-6.7,11.2-6.7,19.7c0,8.7,2.2,15.5,6.7,20.3c4.5,4.8,10.3,7.2,17.5,7.2c6.9,0,12.6-2.4,17-7.1
					c4.4-4.7,6.6-11.4,6.6-19.9c0-0.5,0-1.3,0-2.3h-38.7c0.3-5.7,1.9-10.1,4.8-13.1c2.9-3,6.5-4.5,10.8-4.5c3.2,0,6,0.8,8.2,2.5
					C216.8,73.9,218.6,76.6,219.9,80.3z M191.1,94.5h29c-0.4,4.4-1.5,7.6-3.3,9.8c-2.8,3.4-6.4,5.1-10.9,5.1c-4,0-7.4-1.3-10.2-4
					C192.9,102.7,191.4,99.1,191.1,94.5z"/>
			</g>
		</g>
	</g>
</g>
<g id="ytick_1">
	<g id="text_4">
		<g transform="translate(75.673438 971.440425)scale(0.4 -0.4)">
			<g>
				<path id="ArialMT-35" class="st1" d="M4.2,90.3l9.2,0.8c0.7-4.5,2.3-7.9,4.8-10.1c2.5-2.3,5.5-3.4,9-3.4c4.2,0,7.8,1.6,10.7,4.8
					c2.9,3.2,4.4,7.4,4.4,12.7c0,5-1.4,9-4.2,11.9c-2.8,2.9-6.5,4.4-11.1,4.4c-2.8,0-5.4-0.6-7.7-1.9c-2.3-1.3-4.1-2.9-5.4-5
					l-8.2,1.1l6.9,36.8h35.6v-8.4H19.7l-3.8-19.2c4.3,3,8.8,4.5,13.5,4.5c6.2,0,11.5-2.2,15.8-6.5c4.3-4.3,6.5-9.9,6.5-16.7
					c0-6.5-1.9-12.1-5.7-16.8c-4.6-5.8-10.9-8.7-18.8-8.7c-6.5,0-11.8,1.8-16,5.5C7.1,79.5,4.7,84.3,4.2,90.3z"/>
			</g>
			<g>
				<path id="ArialMT-30" class="st1" d="M59.8,106.9c0,8.5,0.9,15.3,2.6,20.4c1.7,5.2,4.3,9.1,7.8,11.9c3.4,2.8,7.8,4.2,13,4.2
					c3.8,0,7.2-0.8,10.1-2.3c2.9-1.5,5.3-3.8,7.2-6.7c1.9-2.9,3.4-6.5,4.5-10.6c1.1-4.2,1.6-9.8,1.6-16.9c0-8.4-0.9-15.2-2.6-20.3
					c-1.7-5.2-4.3-9.1-7.7-12c-3.4-2.8-7.8-4.2-13-4.2c-6.9,0-12.3,2.5-16.2,7.4C62.1,83.8,59.8,93.5,59.8,106.9z M68.8,106.9
					c0-11.8,1.4-19.6,4.1-23.5c2.8-3.9,6.1-5.8,10.2-5.8c4,0,7.4,2,10.2,5.9s4.1,11.7,4.1,23.4c0,11.8-1.4,19.6-4.1,23.5
					c-2.8,3.9-6.2,5.8-10.3,5.8c-4,0-7.3-1.7-9.7-5.1C70.3,126.7,68.8,118.7,68.8,106.9z"/>
			</g>
			<g>
				<path id="ArialMT-30_1_" class="st1" d="M115.4,106.9c0,8.5,0.9,15.3,2.6,20.4c1.7,5.2,4.3,9.1,7.8,11.9c3.4,2.8,7.8,4.2,13,4.2
					c3.8,0,7.2-0.8,10.1-2.3c2.9-1.5,5.3-3.8,7.2-6.7c1.9-2.9,3.4-6.5,4.5-10.6c1.1-4.2,1.6-9.8,1.6-16.9c0-8.4-0.9-15.2-2.6-20.3
					c-1.7-5.2-4.3-9.1-7.7-12c-3.4-2.8-7.8-4.2-13-4.2c-6.9,0-12.3,2.5-16.2,7.4C117.7,83.8,115.4,93.5,115.4,106.9z M124.4,106.9
					c0-11.8,1.4-19.6,4.1-23.5c2.8-3.9,6.1-5.8,10.2-5.8c4,0,7.4,2,10.2,5.9s4.1,11.7,4.1,23.4c0,11.8-1.4,19.6-4.1,23.5
					c-2.8,3.9-6.2,5.8-10.3,5.8c-4,0-7.3-1.7-9.7-5.1C125.9,126.7,124.4,118.7,124.4,106.9z"/>
			</g>
		</g>
	</g>
</g>
<g id="ytick_2">
	<g id="text_5">
		<g transform="translate(75.673438 827.512425)scale(0.4 -0.4)">
			<g>
				<path id="ArialMT-36" class="st1" d="M49.8,125.6L41,125c-0.8,3.4-1.9,6-3.3,7.5c-2.4,2.5-5.3,3.8-8.8,3.8
					c-2.8,0-5.3-0.8-7.4-2.3c-2.8-2-4.9-5-6.5-8.8c-1.6-3.9-2.4-9.4-2.5-16.5c2.1,3.2,4.7,5.6,7.8,7.2s6.3,2.3,9.6,2.3
					c5.9,0,10.8-2.2,15-6.5c4.1-4.3,6.2-9.9,6.2-16.7c0-4.5-1-8.7-2.9-12.5c-1.9-3.9-4.6-6.8-8-8.9c-3.4-2.1-7.2-3.1-11.5-3.1
					c-7.3,0-13.3,2.7-17.9,8.1c-4.6,5.4-6.9,14.3-6.9,26.6c0,13.8,2.6,23.9,7.7,30.2c4.5,5.5,10.5,8.2,18,8.2
					c5.6,0,10.2-1.6,13.8-4.7C46.9,135.6,49,131.2,49.8,125.6z M13.9,94.8c0-3,0.6-5.9,1.9-8.7c1.3-2.8,3.1-4.9,5.4-6.3
					c2.3-1.4,4.7-2.2,7.3-2.2c3.7,0,6.9,1.5,9.6,4.5c2.7,3,4,7.1,4,12.2c0,4.9-1.3,8.8-4,11.7c-2.6,2.9-6,4.3-10,4.3
					c-4,0-7.3-1.4-10.1-4.3C15.3,103.1,13.9,99.4,13.9,94.8z"/>
			</g>
			<g>
				<path id="ArialMT-30_2_" class="st1" d="M59.8,106.9c0,8.5,0.9,15.3,2.6,20.4c1.7,5.2,4.3,9.1,7.8,11.9c3.4,2.8,7.8,4.2,13,4.2
					c3.8,0,7.2-0.8,10.1-2.3c2.9-1.5,5.3-3.8,7.2-6.7c1.9-2.9,3.4-6.5,4.5-10.6c1.1-4.2,1.6-9.8,1.6-16.9c0-8.4-0.9-15.2-2.6-20.3
					c-1.7-5.2-4.3-9.1-7.7-12c-3.4-2.8-7.8-4.2-13-4.2c-6.9,0-12.3,2.5-16.2,7.4C62.1,83.8,59.8,93.5,59.8,106.9z M68.8,106.9
					c0-11.8,1.4-19.6,4.1-23.5c2.8-3.9,6.1-5.8,10.2-5.8c4,0,7.4,2,10.2,5.9s4.1,11.7,4.1,23.4c0,11.8-1.4,19.6-4.1,23.5
					c-2.8,3.9-6.2,5.8-10.3,5.8c-4,0-7.3-1.7-9.7-5.1C70.3,126.7,68.8,118.7,68.8,106.9z"/>
			</g>
			<g>
				<path id="ArialMT-30_3_" class="st1" d="M115.4,106.9c0,8.5,0.9,15.3,2.6,20.4c1.7,5.2,4.3,9.1,7.8,11.9c3.4,2.8,7.8,4.2,13,4.2
					c3.8,0,7.2-0.8,10.1-2.3c2.9-1.5,5.3-3.8,7.2-6.7c1.9-2.9,3.4-6.5,4.5-10.6c1.1-4.2,1.6-9.8,1.6-16.9c0-8.4-0.9-15.2-2.6-20.3
					c-1.7-5.2-4.3-9.1-7.7-12c-3.4-2.8-7.8-4.2-13-4.2c-6.9,0-12.3,2.5-16.2,7.4C117.7,83.8,115.4,93.5,115.4,106.9z M124.4,106.9
					c0-11.8,1.4-19.6,4.1-23.5c2.8-3.9,6.1-5.8,10.2-5.8c4,0,7.4,2,10.2,5.9s4.1,11.7,4.1,23.4c0,11.8-1.4,19.6-4.1,23.5
					c-2.8,3.9-6.2,5.8-10.3,5.8c-4,0-7.3-1.7-9.7-5.1C125.9,126.7,124.4,118.7,124.4,106.9z"/>
			</g>
		</g>
	</g>
</g>
<g id="ytick_3">
	<g id="text_6">
		<g transform="translate(75.673438 683.584425)scale(0.4 -0.4)">
			<g>
				<path id="ArialMT-37" class="st1" d="M4.7,133.8v8.5h46.3v-6.8c-4.6-4.8-9.1-11.3-13.6-19.3c-4.5-8-7.9-16.3-10.4-24.8
					c-1.8-6-2.9-12.5-3.4-19.7h-9c0.1,5.6,1.2,12.4,3.3,20.4c2.1,8,5.2,15.7,9.1,23.1s8.2,13.6,12.6,18.7H4.7z"/>
			</g>
			<g>
				<path id="ArialMT-30_4_" class="st1" d="M59.8,106.9c0,8.5,0.9,15.3,2.6,20.4c1.7,5.2,4.3,9.1,7.8,11.9c3.4,2.8,7.8,4.2,13,4.2
					c3.8,0,7.2-0.8,10.1-2.3c2.9-1.5,5.3-3.8,7.2-6.7c1.9-2.9,3.4-6.5,4.5-10.6c1.1-4.2,1.6-9.8,1.6-16.9c0-8.4-0.9-15.2-2.6-20.3
					c-1.7-5.2-4.3-9.1-7.7-12c-3.4-2.8-7.8-4.2-13-4.2c-6.9,0-12.3,2.5-16.2,7.4C62.1,83.8,59.8,93.5,59.8,106.9z M68.8,106.9
					c0-11.8,1.4-19.6,4.1-23.5c2.8-3.9,6.1-5.8,10.2-5.8c4,0,7.4,2,10.2,5.9s4.1,11.7,4.1,23.4c0,11.8-1.4,19.6-4.1,23.5
					c-2.8,3.9-6.2,5.8-10.3,5.8c-4,0-7.3-1.7-9.7-5.1C70.3,126.7,68.8,118.7,68.8,106.9z"/>
			</g>
			<g>
				<path id="ArialMT-30_5_" class="st1" d="M115.4,106.9c0,8.5,0.9,15.3,2.6,20.4c1.7,5.2,4.3,9.1,7.8,11.9c3.4,2.8,7.8,4.2,13,4.2
					c3.8,0,7.2-0.8,10.1-2.3c2.9-1.5,5.3-3.8,7.2-6.7c1.9-2.9,3.4-6.5,4.5-10.6c1.1-4.2,1.6-9.8,1.6-16.9c0-8.4-0.9-15.2-2.6-20.3
					c-1.7-5.2-4.3-9.1-7.7-12c-3.4-2.8-7.8-4.2-13-4.2c-6.9,0-12.3,2.5-16.2,7.4C117.7,83.8,115.4,93.5,115.4,106.9z M124.4,106.9
					c0-11.8,1.4-19.6,4.1-23.5c2.8-3.9,6.1-5.8,10.2-5.8c4,0,7.4,2,10.2,5.9s4.1,11.7,4.1,23.4c0,11.8-1.4,19.6-4.1,23.5
					c-2.8,3.9-6.2,5.8-10.3,5.8c-4,0-7.3-1.7-9.7-5.1C125.9,126.7,124.4,118.7,124.4,106.9z"/>
			</g>
		</g>
	</g>
</g>
<g id="ytick_4">
	<g id="text_7">
		<g transform="translate(75.673438 539.656425)scale(0.4 -0.4)">
			<g>
				<path id="ArialMT-38" class="st1" d="M17.7,110.4c-3.6,1.3-6.3,3.2-8.1,5.7c-1.8,2.5-2.6,5.4-2.6,8.9c0,5.2,1.9,9.6,5.6,13.1
					c3.8,3.6,8.7,5.3,14.9,5.3c6.2,0,11.3-1.8,15.1-5.5c3.8-3.6,5.7-8,5.7-13.2c0-3.3-0.9-6.2-2.6-8.7c-1.7-2.4-4.4-4.3-7.9-5.7
					c4.4-1.4,7.7-3.7,10-6.9c2.3-3.2,3.4-7,3.4-11.4c0-6.1-2.2-11.3-6.5-15.4c-4.3-4.2-10-6.2-17.1-6.2s-12.8,2.1-17.1,6.3
					C6.2,80.8,4,86.1,4,92.3c0,4.7,1.2,8.6,3.5,11.7C10,107.1,13.3,109.3,17.7,110.4z M15.9,125.3c0-3.4,1.1-6.2,3.3-8.3
					c2.2-2.1,5-3.2,8.5-3.2c3.4,0,6.2,1.1,8.3,3.2c2.2,2.1,3.2,4.8,3.2,7.8c0,3.2-1.1,5.9-3.4,8.1c-2.2,2.2-5,3.3-8.3,3.3
					c-3.4,0-6.1-1.1-8.4-3.2C17,130.9,15.9,128.3,15.9,125.3z M13.1,92.3c0-2.5,0.6-4.9,1.8-7.3s3-4.2,5.3-5.5
					c2.3-1.3,4.9-1.9,7.6-1.9c4.2,0,7.7,1.3,10.4,4c2.7,2.7,4.1,6.1,4.1,10.3c0,4.2-1.4,7.7-4.2,10.5c-2.8,2.8-6.3,4.2-10.6,4.2
					c-4.1,0-7.6-1.4-10.3-4.1C14.4,99.8,13.1,96.4,13.1,92.3z"/>
			</g>
			<g>
				<path id="ArialMT-30_6_" class="st1" d="M59.8,106.9c0,8.5,0.9,15.3,2.6,20.4c1.7,5.2,4.3,9.1,7.8,11.9c3.4,2.8,7.8,4.2,13,4.2
					c3.8,0,7.2-0.8,10.1-2.3c2.9-1.5,5.3-3.8,7.2-6.7c1.9-2.9,3.4-6.5,4.5-10.6c1.1-4.2,1.6-9.8,1.6-16.9c0-8.4-0.9-15.2-2.6-20.3
					c-1.7-5.2-4.3-9.1-7.7-12c-3.4-2.8-7.8-4.2-13-4.2c-6.9,0-12.3,2.5-16.2,7.4C62.1,83.8,59.8,93.5,59.8,106.9z M68.8,106.9
					c0-11.8,1.4-19.6,4.1-23.5c2.8-3.9,6.1-5.8,10.2-5.8c4,0,7.4,2,10.2,5.9s4.1,11.7,4.1,23.4c0,11.8-1.4,19.6-4.1,23.5
					c-2.8,3.9-6.2,5.8-10.3,5.8c-4,0-7.3-1.7-9.7-5.1C70.3,126.7,68.8,118.7,68.8,106.9z"/>
			</g>
			<g>
				<path id="ArialMT-30_7_" class="st1" d="M115.4,106.9c0,8.5,0.9,15.3,2.6,20.4c1.7,5.2,4.3,9.1,7.8,11.9c3.4,2.8,7.8,4.2,13,4.2
					c3.8,0,7.2-0.8,10.1-2.3c2.9-1.5,5.3-3.8,7.2-6.7c1.9-2.9,3.4-6.5,4.5-10.6c1.1-4.2,1.6-9.8,1.6-16.9c0-8.4-0.9-15.2-2.6-20.3
					c-1.7-5.2-4.3-9.1-7.7-12c-3.4-2.8-7.8-4.2-13-4.2c-6.9,0-12.3,2.5-16.2,7.4C117.7,83.8,115.4,93.5,115.4,106.9z M124.4,106.9
					c0-11.8,1.4-19.6,4.1-23.5c2.8-3.9,6.1-5.8,10.2-5.8c4,0,7.4,2,10.2,5.9s4.1,11.7,4.1,23.4c0,11.8-1.4,19.6-4.1,23.5
					c-2.8,3.9-6.2,5.8-10.3,5.8c-4,0-7.3-1.7-9.7-5.1C125.9,126.7,124.4,118.7,124.4,106.9z"/>
			</g>
		</g>
	</g>
</g>
<g id="ytick_5">
	<g id="text_8">
		<g transform="translate(75.673438 395.728425)scale(0.4 -0.4)">
			<g>
				<path id="ArialMT-39" class="st1" d="M5.5,88.1l8.5,0.8c0.7-4,2.1-6.8,4.1-8.6s4.6-2.7,7.8-2.7c2.7,0,5.1,0.6,7.1,1.9
					c2,1.2,3.7,2.9,5,5c1.3,2.1,2.4,4.9,3.3,8.4c0.9,3.5,1.3,7.1,1.3,10.8c0,0.4,0,1,0,1.8c-1.8-2.8-4.2-5.1-7.2-6.8
					c-3-1.7-6.3-2.6-9.9-2.6c-5.9,0-10.9,2.1-15,6.4c-4.1,4.3-6.1,10-6.1,17c0,7.3,2.1,13.1,6.4,17.5s9.6,6.6,16.1,6.6
					c4.7,0,8.9-1.3,12.8-3.8c3.9-2.5,6.8-6.1,8.8-10.7c2-4.6,3-11.3,3-20.1c0-9.1-1-16.4-3-21.8c-2-5.4-4.9-9.5-8.9-12.4
					c-3.9-2.8-8.5-4.2-13.8-4.2c-5.6,0-10.2,1.6-13.7,4.7C8.3,78.2,6.2,82.5,5.5,88.1z M41.5,119.7c0,5.1-1.3,9.1-4,12
					c-2.7,3-5.9,4.4-9.7,4.4c-3.9,0-7.3-1.6-10.2-4.8s-4.3-7.3-4.3-12.4c0-4.6,1.4-8.3,4.1-11.1c2.8-2.8,6.1-4.3,10.2-4.3
					c4.1,0,7.4,1.4,10,4.3C40.1,110.8,41.5,114.7,41.5,119.7z"/>
			</g>
			<g>
				<path id="ArialMT-30_8_" class="st1" d="M59.8,106.9c0,8.5,0.9,15.3,2.6,20.4c1.7,5.2,4.3,9.1,7.8,11.9c3.4,2.8,7.8,4.2,13,4.2
					c3.8,0,7.2-0.8,10.1-2.3c2.9-1.5,5.3-3.8,7.2-6.7c1.9-2.9,3.4-6.5,4.5-10.6c1.1-4.2,1.6-9.8,1.6-16.9c0-8.4-0.9-15.2-2.6-20.3
					c-1.7-5.2-4.3-9.1-7.7-12c-3.4-2.8-7.8-4.2-13-4.2c-6.9,0-12.3,2.5-16.2,7.4C62.1,83.8,59.8,93.5,59.8,106.9z M68.8,106.9
					c0-11.8,1.4-19.6,4.1-23.5c2.8-3.9,6.1-5.8,10.2-5.8c4,0,7.4,2,10.2,5.9s4.1,11.7,4.1,23.4c0,11.8-1.4,19.6-4.1,23.5
					c-2.8,3.9-6.2,5.8-10.3,5.8c-4,0-7.3-1.7-9.7-5.1C70.3,126.7,68.8,118.7,68.8,106.9z"/>
			</g>
			<g>
				<path id="ArialMT-30_9_" class="st1" d="M115.4,106.9c0,8.5,0.9,15.3,2.6,20.4c1.7,5.2,4.3,9.1,7.8,11.9c3.4,2.8,7.8,4.2,13,4.2
					c3.8,0,7.2-0.8,10.1-2.3c2.9-1.5,5.3-3.8,7.2-6.7c1.9-2.9,3.4-6.5,4.5-10.6c1.1-4.2,1.6-9.8,1.6-16.9c0-8.4-0.9-15.2-2.6-20.3
					c-1.7-5.2-4.3-9.1-7.7-12c-3.4-2.8-7.8-4.2-13-4.2c-6.9,0-12.3,2.5-16.2,7.4C117.7,83.8,115.4,93.5,115.4,106.9z M124.4,106.9
					c0-11.8,1.4-19.6,4.1-23.5c2.8-3.9,6.1-5.8,10.2-5.8c4,0,7.4,2,10.2,5.9s4.1,11.7,4.1,23.4c0,11.8-1.4,19.6-4.1,23.5
					c-2.8,3.9-6.2,5.8-10.3,5.8c-4,0-7.3-1.7-9.7-5.1C125.9,126.7,124.4,118.7,124.4,106.9z"/>
			</g>
		</g>
	</g>
</g>
<g id="ytick_6">
	<g id="text_9">
		<g transform="translate(53.429688 251.800425)scale(0.4 -0.4)">
			<g>
				<path id="ArialMT-31" class="st1" d="M37.2,71.6h-8.8v56c-2.1-2-4.9-4-8.3-6c-3.4-2-6.5-3.5-9.3-4.5v8.5
					c4.9,2.3,9.2,5.1,12.9,8.4c3.7,3.3,6.3,6.5,7.8,9.6h5.7V71.6z"/>
			</g>
			<g>
				<path id="ArialMT-30_10_" class="st1" d="M59.8,106.9c0,8.5,0.9,15.3,2.6,20.4c1.7,5.2,4.3,9.1,7.8,11.9c3.4,2.8,7.8,4.2,13,4.2
					c3.8,0,7.2-0.8,10.1-2.3c2.9-1.5,5.3-3.8,7.2-6.7c1.9-2.9,3.4-6.5,4.5-10.6c1.1-4.2,1.6-9.8,1.6-16.9c0-8.4-0.9-15.2-2.6-20.3
					c-1.7-5.2-4.3-9.1-7.7-12c-3.4-2.8-7.8-4.2-13-4.2c-6.9,0-12.3,2.5-16.2,7.4C62.1,83.8,59.8,93.5,59.8,106.9z M68.8,106.9
					c0-11.8,1.4-19.6,4.1-23.5c2.8-3.9,6.1-5.8,10.2-5.8c4,0,7.4,2,10.2,5.9s4.1,11.7,4.1,23.4c0,11.8-1.4,19.6-4.1,23.5
					c-2.8,3.9-6.2,5.8-10.3,5.8c-4,0-7.3-1.7-9.7-5.1C70.3,126.7,68.8,118.7,68.8,106.9z"/>
			</g>
			<g>
				<path id="ArialMT-30_11_" class="st1" d="M115.4,106.9c0,8.5,0.9,15.3,2.6,20.4c1.7,5.2,4.3,9.1,7.8,11.9
					c3.4,2.8,7.8,4.2,13,4.2c3.8,0,7.2-0.8,10.1-2.3c2.9-1.5,5.3-3.8,7.2-6.7c1.9-2.9,3.4-6.5,4.5-10.6c1.1-4.2,1.6-9.8,1.6-16.9
					c0-8.4-0.9-15.2-2.6-20.3c-1.7-5.2-4.3-9.1-7.7-12c-3.4-2.8-7.8-4.2-13-4.2c-6.9,0-12.3,2.5-16.2,7.4
					C117.7,83.8,115.4,93.5,115.4,106.9z M124.4,106.9c0-11.8,1.4-19.6,4.1-23.5c2.8-3.9,6.1-5.8,10.2-5.8c4,0,7.4,2,10.2,5.9
					s4.1,11.7,4.1,23.4c0,11.8-1.4,19.6-4.1,23.5c-2.8,3.9-6.2,5.8-10.3,5.8c-4,0-7.3-1.7-9.7-5.1
					C125.9,126.7,124.4,118.7,124.4,106.9z"/>
			</g>
			<g>
				<path id="ArialMT-30_12_" class="st1" d="M171,106.9c0,8.5,0.9,15.3,2.6,20.4c1.7,5.2,4.3,9.1,7.8,11.9c3.4,2.8,7.8,4.2,13,4.2
					c3.8,0,7.2-0.8,10.1-2.3c2.9-1.5,5.3-3.8,7.2-6.7c1.9-2.9,3.4-6.5,4.5-10.6c1.1-4.2,1.6-9.8,1.6-16.9c0-8.4-0.9-15.2-2.6-20.3
					c-1.7-5.2-4.3-9.1-7.7-12c-3.4-2.8-7.8-4.2-13-4.2c-6.9,0-12.3,2.5-16.2,7.4C173.4,83.8,171,93.5,171,106.9z M180,106.9
					c0-11.8,1.4-19.6,4.1-23.5c2.8-3.9,6.1-5.8,10.2-5.8c4,0,7.4,2,10.2,5.9s4.1,11.7,4.1,23.4c0,11.8-1.4,19.6-4.1,23.5
					c-2.8,3.9-6.2,5.8-10.3,5.8c-4,0-7.3-1.7-9.7-5.1C181.5,126.7,180,118.7,180,106.9z"/>
			</g>
		</g>
	</g>
</g>
<g id="ytick_7">
	<g id="text_10">
		<g transform="translate(56.379688 107.872425)scale(0.4 -0.4)">
			<g>
				<path id="ArialMT-31_1_" class="st1" d="M37.2,71.6h-8.8v56c-2.1-2-4.9-4-8.3-6c-3.4-2-6.5-3.5-9.3-4.5v8.5
					c4.9,2.3,9.2,5.1,12.9,8.4c3.7,3.3,6.3,6.5,7.8,9.6h5.7V71.6z"/>
			</g>
			<g>
				<path id="ArialMT-31_2_" class="st1" d="M85.5,71.6h-8.8v56c-2.1-2-4.9-4-8.3-6c-3.4-2-6.5-3.5-9.2-4.5v8.5
					c4.9,2.3,9.2,5.1,12.9,8.4c3.7,3.3,6.3,6.5,7.8,9.6h5.7V71.6z"/>
			</g>
			<g>
				<path id="ArialMT-30_13_" class="st1" d="M108,106.9c0,8.5,0.9,15.3,2.6,20.4c1.7,5.2,4.3,9.1,7.8,11.9c3.4,2.8,7.8,4.2,13,4.2
					c3.8,0,7.2-0.8,10.1-2.3c2.9-1.5,5.3-3.8,7.2-6.7c1.9-2.9,3.4-6.5,4.5-10.6c1.1-4.2,1.6-9.8,1.6-16.9c0-8.4-0.9-15.2-2.6-20.3
					c-1.7-5.2-4.3-9.1-7.7-12c-3.4-2.8-7.8-4.2-13-4.2c-6.9,0-12.3,2.5-16.2,7.4C110.4,83.8,108,93.5,108,106.9z M117,106.9
					c0-11.8,1.4-19.6,4.1-23.5c2.8-3.9,6.1-5.8,10.2-5.8c4,0,7.4,2,10.2,5.9s4.1,11.7,4.1,23.4c0,11.8-1.4,19.6-4.1,23.5
					c-2.8,3.9-6.2,5.8-10.3,5.8c-4,0-7.3-1.7-9.7-5.1C118.6,126.7,117,118.7,117,106.9z"/>
			</g>
			<g>
				<path id="ArialMT-30_14_" class="st1" d="M163.6,106.9c0,8.5,0.9,15.3,2.6,20.4c1.7,5.2,4.3,9.1,7.8,11.9
					c3.4,2.8,7.8,4.2,13,4.2c3.8,0,7.2-0.8,10.1-2.3c2.9-1.5,5.3-3.8,7.2-6.7c1.9-2.9,3.4-6.5,4.5-10.6c1.1-4.2,1.6-9.8,1.6-16.9
					c0-8.4-0.9-15.2-2.6-20.3c-1.7-5.2-4.3-9.1-7.7-12c-3.4-2.8-7.8-4.2-13-4.2c-6.9,0-12.3,2.5-16.2,7.4
					C166,83.8,163.6,93.5,163.6,106.9z M172.7,106.9c0-11.8,1.4-19.6,4.1-23.5c2.8-3.9,6.1-5.8,10.2-5.8c4,0,7.4,2,10.2,5.9
					s4.1,11.7,4.1,23.4c0,11.8-1.4,19.6-4.1,23.5c-2.8,3.9-6.2,5.8-10.3,5.8c-4,0-7.3-1.7-9.7-5.1
					C174.2,126.7,172.7,118.7,172.7,106.9z"/>
			</g>
		</g>
	</g>
</g>
<g id="patch_3">
	<g>
		<defs>
			<rect id="SVGID_1_" x="151.5" y="64.9" width="613.6" height="863.6"/>
		</defs>
		<clipPath id="SVGID_2_">
			<use xlink:href="#SVGID_1_"  style="overflow:visible;"/>
		</clipPath>
		<path class="st2" d="M182.2,1648.1h122.7V610.2H182.2V1648.1z"/>
	</g>
</g>
<g id="patch_4">
	<g>
		<defs>
			<rect id="SVGID_3_" x="151.5" y="64.9" width="613.6" height="863.6"/>
		</defs>
		<clipPath id="SVGID_4_">
			<use xlink:href="#SVGID_3_"  style="overflow:visible;"/>
		</clipPath>
		<path class="st3" d="M489,1648.1h122.7V544.6H489V1648.1z"/>
	</g>
</g>
<g>
	<defs>
		<rect id="SVGID_5_" x="151.5" y="64.9" width="613.6" height="863.6"/>
	</defs>
	<clipPath id="SVGID_6_">
		<use xlink:href="#SVGID_5_"  style="overflow:visible;"/>
	</clipPath>
	<path class="st4" d="M304.9,1648.1h122.7V309.9H304.9V1648.1z"/>
</g>
<g id="patch_6">
	<g>
		<defs>
			<rect id="SVGID_7_" x="151.5" y="64.9" width="613.6" height="863.6"/>
		</defs>
		<clipPath id="SVGID_8_">
			<use xlink:href="#SVGID_7_"  style="overflow:visible;"/>
		</clipPath>
		<path class="st5" d="M611.7,1648.1h122.7V237.3H611.7V1648.1z"/>
	</g>
</g>
<g id="line2d_1">
	<g>
		<defs>
			<rect id="SVGID_9_" x="151.5" y="64.9" width="613.6" height="863.6"/>
		</defs>
		<clipPath id="SVGID_10_">
			<use xlink:href="#SVGID_9_"  style="overflow:visible;"/>
		</clipPath>
		<path class="st6" d="M243.6,664.1V552.4"/>
	</g>
</g>
<g id="line2d_2">
	<g>
		<defs>
			<rect id="SVGID_11_" x="151.5" y="64.9" width="613.6" height="863.6"/>
		</defs>
		<clipPath id="SVGID_12_">
			<use xlink:href="#SVGID_11_"  style="overflow:visible;"/>
		</clipPath>
		<path class="st7" d="M550.4,589.7v-90.3"/>
	</g>
</g>
<g id="line2d_3">
	<g>
		<defs>
			<rect id="SVGID_13_" x="151.5" y="64.9" width="613.6" height="863.6"/>
		</defs>
		<clipPath id="SVGID_14_">
			<use xlink:href="#SVGID_13_"  style="overflow:visible;"/>
		</clipPath>
		<path class="st8" d="M366.3,379.7V237.1"/>
	</g>
</g>
<g id="line2d_4">
	<g>
		<defs>
			<rect id="SVGID_15_" x="151.5" y="64.9" width="613.6" height="863.6"/>
		</defs>
		<clipPath id="SVGID_16_">
			<use xlink:href="#SVGID_15_"  style="overflow:visible;"/>
		</clipPath>
		<path class="st9" d="M673.1,304.6V169.1"/>
	</g>
</g>
<g id="patch_7">
	<path class="st10" d="M151.5,928.5V64.9"/>
</g>
<g id="patch_8">
	<path class="st10" d="M151.5,928.5h613.6"/>
</g>
<g id="text_12">
	<g transform="translate(90.141051 50.146875)scale(0.6 -0.6)">
		<g>
			<path id="ArialMT-41" class="st1" d="M-126.1-5.1l30.2,78.7h11.2l32.2-78.7h-11.9l-9.2,23.9h-32.9L-115-5.1H-126.1z M-103.4,27.3
				h26.7l-8.2,21.8c-2.5,6.6-4.4,12.1-5.6,16.3c-1-5.1-2.4-10.1-4.2-15L-103.4,27.3z"/>
		</g>
	</g>
</g>
<g id="legend_1">
	<g id="patch_9">
		<path class="st11" d="M165.7,111.3h72V86.1h-72V111.3z"/>
	</g>
	<g id="text_13">
		<g transform="translate(262.504688 142.030237)scale(0.3 -0.3)">
			<g>
				<path id="ArialMT-43" class="st1" d="M84,132.6l11.4-2.9c-2.4-9.3-6.7-16.5-12.9-21.4S68.7,101,59.8,101
					c-9.3,0-16.8,1.9-22.6,5.6C31.4,110.4,27,115.9,24,123c-3,7.1-4.5,14.8-4.5,23c0,8.9,1.7,16.8,5.1,23.4
					c3.4,6.7,8.3,11.7,14.6,15.2c6.3,3.5,13.3,5.2,20.8,5.2c8.6,0,15.8-2.2,21.7-6.6c5.9-4.4,9.9-10.5,12.3-18.5l-11.2-2.6
					c-2,6.2-4.9,10.8-8.7,13.6c-3.8,2.9-8.6,4.3-14.3,4.3c-6.6,0-12.1-1.6-16.6-4.8c-4.4-3.2-7.6-7.4-9.4-12.8
					c-1.8-5.3-2.7-10.8-2.7-16.5c0-7.3,1.1-13.7,3.2-19.1c2.1-5.4,5.4-9.5,9.9-12.2c4.5-2.7,9.4-4,14.6-4c6.4,0,11.8,1.8,16.2,5.5
					C79.4,119.9,82.4,125.3,84,132.6z"/>
			</g>
			<g>
				<path id="ArialMT-4f" class="st1" d="M105.9,144.3c0,14.3,3.8,25.4,11.5,33.5c7.7,8.1,17.6,12.1,29.7,12.1
					c7.9,0,15.1-1.9,21.4-5.7c6.4-3.8,11.2-9.1,14.6-15.8c3.3-6.8,5-14.5,5-23.1c0-8.7-1.8-16.5-5.3-23.4
					c-3.5-6.9-8.5-12.1-14.9-15.6c-6.4-3.5-13.4-5.3-20.9-5.3c-8.1,0-15.3,1.9-21.7,5.8c-6.4,3.9-11.2,9.2-14.5,16
					C107.5,129.6,105.9,136.7,105.9,144.3z M117.6,144.1c0-10.4,2.8-18.5,8.3-24.5c5.6-6,12.6-8.9,21-8.9c8.6,0,15.6,3,21.1,9
					c5.5,6,8.3,14.6,8.3,25.6c0,7-1.2,13.1-3.5,18.3c-2.4,5.2-5.8,9.3-10.4,12.1c-4.6,2.9-9.7,4.3-15.3,4.3c-8,0-15-2.8-20.8-8.3
					C120.5,166.3,117.6,157,117.6,144.1z"/>
			</g>
		</g>
	</g>
	<g id="patch_10">
		<path class="st12" d="M165.7,162.2h72V137h-72V162.2z"/>
	</g>
	<g id="text_14">
		<g transform="translate(262.504688 184.466175)scale(0.3 -0.3)">
			<g>
				<path id="ArialMT-43_1_" class="st1" d="M84,104.3l11.4-2.9C93,92.1,88.7,84.9,82.5,80c-6.2-4.9-13.8-7.4-22.7-7.4
					c-9.3,0-16.8,1.9-22.6,5.6C31.4,82.1,27,87.6,24,94.7s-4.5,14.8-4.5,23c0,8.9,1.7,16.7,5.1,23.4c3.4,6.7,8.3,11.7,14.6,15.2
					c6.3,3.5,13.3,5.2,20.8,5.2c8.6,0,15.8-2.2,21.7-6.6c5.9-4.4,9.9-10.5,12.3-18.5l-11.2-2.6c-2,6.2-4.9,10.8-8.7,13.7
					c-3.8,2.9-8.6,4.3-14.3,4.3c-6.6,0-12.1-1.6-16.6-4.8c-4.4-3.2-7.6-7.4-9.4-12.8c-1.8-5.3-2.7-10.8-2.7-16.5
					c0-7.3,1.1-13.7,3.2-19.1c2.1-5.4,5.4-9.5,9.9-12.2c4.5-2.7,9.4-4,14.6-4c6.4,0,11.8,1.8,16.2,5.5C79.4,91.6,82.4,97,84,104.3z"
					/>
			</g>
			<g>
				<path id="ArialMT-44" class="st1" d="M109.4,74.2V160H139c6.7,0,11.8-0.4,15.3-1.2c4.9-1.1,9.1-3.2,12.6-6.1
					c4.5-3.8,7.9-8.7,10.2-14.7c2.2-6,3.4-12.8,3.4-20.4c0-6.5-0.8-12.3-2.3-17.3c-1.5-5-3.5-9.2-5.8-12.5c-2.4-3.3-5-5.9-7.8-7.8
					c-2.8-1.9-6.2-3.3-10.2-4.3s-8.6-1.5-13.8-1.5H109.4z M120.7,84.3h18.3c5.7,0,10.1,0.5,13.3,1.6c3.2,1.1,5.8,2.5,7.7,4.5
					c2.7,2.7,4.8,6.3,6.3,10.9c1.5,4.5,2.2,10.1,2.2,16.6c0,9-1.5,15.9-4.4,20.7s-6.5,8.1-10.7,9.7c-3.1,1.2-7.9,1.8-14.7,1.8h-18.1
					V84.3z"/>
			</g>
		</g>
	</g>
</g>
<g id="patch_11">
	<path class="st0" d="M887.9,928.5h613.6V64.9H887.9V928.5z"/>
</g>
<g id="matplotlib.axis_3">
	<g id="xtick_3">
		<g id="text_15">
			<g transform="translate(1011.277415 994.85605)scale(0.4 -0.4)">
				<g>
					<path id="ArialMT-43_2_" class="st1" d="M58.8,96.7l9.5-2.4c-2-7.8-5.6-13.7-10.7-17.8c-5.2-4.1-11.5-6.1-18.9-6.1
						c-7.7,0-14,1.6-18.8,4.7c-4.8,3.1-8.5,7.7-11,13.7S5,101.1,5,107.9c0,7.5,1.4,14,4.3,19.5c2.9,5.6,6.9,9.8,12.2,12.6
						c5.3,2.9,11,4.3,17.4,4.3c7.2,0,13.2-1.8,18.1-5.5c4.9-3.6,8.3-8.8,10.2-15.4l-9.3-2.2c-1.7,5.2-4.1,9-7.2,11.4
						c-3.2,2.4-7.1,3.6-11.9,3.6c-5.5,0-10.1-1.3-13.8-4c-3.7-2.6-6.3-6.2-7.8-10.6c-1.5-4.4-2.2-9-2.2-13.7
						c0-6.1,0.9-11.4,2.7-15.9c1.8-4.5,4.5-7.9,8.3-10.2c3.8-2.2,7.8-3.4,12.2-3.4c5.3,0,9.8,1.5,13.5,4.6
						C55,86.1,57.5,90.7,58.8,96.7z"/>
				</g>
				<g>
					<path id="ArialMT-4f_1_" class="st1" d="M77,106.5c0,11.9,3.2,21.2,9.6,27.9c6.4,6.7,14.6,10.1,24.7,10.1
						c6.6,0,12.6-1.6,17.9-4.8c5.3-3.2,9.3-7.6,12.1-13.2c2.8-5.6,4.2-12.1,4.2-19.2c0-7.2-1.5-13.7-4.4-19.5
						c-2.9-5.7-7.1-10.1-12.5-13c-5.4-2.9-11.2-4.4-17.4-4.4c-6.7,0-12.8,1.6-18.1,4.9c-5.3,3.3-9.3,7.7-12.1,13.3
						C78.4,94.2,77,100.2,77,106.5z M86.8,106.3c0-8.6,2.3-15.4,7-20.4c4.6-5,10.5-7.4,17.5-7.4c7.1,0,13,2.5,17.6,7.5
						c4.6,5,6.9,12.1,6.9,21.3c0,5.8-1,10.9-3,15.2s-4.9,7.7-8.7,10.1c-3.8,2.4-8,3.6-12.8,3.6c-6.7,0-12.5-2.3-17.3-6.9
						C89.2,124.8,86.8,117.1,86.8,106.3z"/>
				</g>
			</g>
		</g>
	</g>
	<g id="xtick_4">
		<g id="text_16">
			<g transform="translate(1319.208097 994.85605)scale(0.4 -0.4)">
				<g>
					<path id="ArialMT-43_3_" class="st1" d="M58.8,96.7l9.5-2.4c-2-7.8-5.6-13.7-10.7-17.8c-5.2-4.1-11.5-6.1-18.9-6.1
						c-7.7,0-14,1.6-18.8,4.7c-4.8,3.1-8.5,7.7-11,13.7S5,101.1,5,107.9c0,7.5,1.4,14,4.3,19.5c2.9,5.6,6.9,9.8,12.2,12.6
						c5.3,2.9,11,4.3,17.4,4.3c7.2,0,13.2-1.8,18.1-5.5c4.9-3.6,8.3-8.8,10.2-15.4l-9.3-2.2c-1.7,5.2-4.1,9-7.2,11.4
						c-3.2,2.4-7.1,3.6-11.9,3.6c-5.5,0-10.1-1.3-13.8-4c-3.7-2.6-6.3-6.2-7.8-10.6c-1.5-4.4-2.2-9-2.2-13.7
						c0-6.1,0.9-11.4,2.7-15.9c1.8-4.5,4.5-7.9,8.3-10.2c3.8-2.2,7.8-3.4,12.2-3.4c5.3,0,9.8,1.5,13.5,4.6
						C55,86.1,57.5,90.7,58.8,96.7z"/>
				</g>
				<g>
					<path id="ArialMT-44_1_" class="st1" d="M79.9,71.6v71.6h24.7c5.6,0,9.8-0.3,12.8-1c4.1-0.9,7.6-2.7,10.5-5.1
						c3.8-3.2,6.6-7.3,8.5-12.2c1.9-5,2.8-10.6,2.8-17c0-5.4-0.6-10.3-1.9-14.5c-1.3-4.2-2.9-7.7-4.9-10.4c-2-2.8-4.2-4.9-6.5-6.5
						c-2.4-1.6-5.2-2.8-8.5-3.6c-3.3-0.8-7.2-1.2-11.5-1.2H79.9z M89.4,80.1h15.3c4.7,0,8.4,0.4,11.1,1.3s4.8,2.1,6.4,3.7
						c2.2,2.2,4,5.3,5.2,9s1.9,8.4,1.9,13.8c0,7.5-1.2,13.2-3.7,17.3c-2.5,4-5.4,6.7-9,8.1c-2.5,1-6.6,1.5-12.2,1.5h-15V80.1z"/>
				</g>
			</g>
		</g>
	</g>
</g>
<g id="ytick_8">
	<g id="text_17">
		<g transform="translate(810.918324 949.804344)scale(0.4 -0.4)">
			<g>
				<path id="ArialMT-2212" class="st1" d="M52.8,102.8H5.6v8.2h47.3V102.8z"/>
			</g>
			<g>
				<path id="ArialMT-32" class="st1" d="M108.7,80.1v-8.5H61.4c-0.1,2.1,0.3,4.2,1,6.1c1.2,3.2,3.1,6.4,5.8,9.5
					c2.7,3.1,6.5,6.7,11.5,10.8c7.8,6.4,13,11.4,15.8,15.2c2.7,3.7,4.1,7.3,4.1,10.6c0,3.5-1.2,6.4-3.8,8.8
					c-2.5,2.4-5.7,3.6-9.7,3.6c-4.2,0-7.6-1.3-10.2-3.8c-2.5-2.5-3.8-6-3.9-10.5l-9,0.9c0.6,6.7,2.9,11.9,7,15.4
					c4,3.5,9.5,5.3,16.3,5.3c6.9,0,12.3-1.9,16.3-5.7c4-3.8,6-8.5,6-14.2c0-2.9-0.6-5.7-1.8-8.5c-1.2-2.8-3.1-5.7-5.8-8.7
					s-7.2-7.3-13.5-12.6c-5.3-4.4-8.7-7.4-10.2-9c-1.5-1.6-2.7-3.2-3.7-4.8H108.7z"/>
			</g>
			<g>
				<path id="ArialMT-30_15_" class="st1" d="M118.2,106.9c0,8.5,0.9,15.3,2.6,20.4c1.7,5.2,4.3,9.1,7.8,11.9
					c3.4,2.8,7.8,4.2,13,4.2c3.8,0,7.2-0.8,10.1-2.3c2.9-1.5,5.3-3.8,7.2-6.7c1.9-2.9,3.4-6.5,4.5-10.6c1.1-4.2,1.6-9.8,1.6-16.9
					c0-8.4-0.9-15.2-2.6-20.3c-1.7-5.2-4.3-9.1-7.7-12c-3.4-2.8-7.8-4.2-13-4.2c-6.9,0-12.3,2.5-16.2,7.4
					C120.5,83.8,118.2,93.5,118.2,106.9z M127.2,106.9c0-11.8,1.4-19.6,4.1-23.5c2.8-3.9,6.1-5.8,10.2-5.8c4,0,7.4,2,10.2,5.9
					s4.1,11.7,4.1,23.4c0,11.8-1.4,19.6-4.1,23.5c-2.8,3.9-6.2,5.8-10.3,5.8c-4,0-7.3-1.7-9.7-5.1
					C128.7,126.7,127.2,118.7,127.2,106.9z"/>
			</g>
		</g>
	</g>
</g>
<g id="ytick_9">
	<g id="text_18">
		<g transform="translate(856.524574 814.202645)scale(0.4 -0.4)">
			<g>
				<path id="ArialMT-30_16_" class="st1" d="M4.2,106.9c0,8.5,0.9,15.3,2.6,20.4c1.7,5.2,4.3,9.1,7.8,11.9c3.4,2.8,7.8,4.2,13,4.2
					c3.8,0,7.2-0.8,10.1-2.3c2.9-1.5,5.3-3.8,7.2-6.7c1.9-2.9,3.4-6.5,4.5-10.6c1.1-4.2,1.6-9.8,1.6-16.9c0-8.4-0.9-15.2-2.6-20.3
					c-1.7-5.2-4.3-9.1-7.7-12c-3.4-2.8-7.8-4.2-13-4.2c-6.9,0-12.3,2.5-16.2,7.4C6.5,83.8,4.2,93.5,4.2,106.9z M13.2,106.9
					c0-11.8,1.4-19.6,4.1-23.5c2.8-3.9,6.1-5.8,10.2-5.8c4,0,7.4,2,10.2,5.9s4.1,11.7,4.1,23.4c0,11.8-1.4,19.6-4.1,23.5
					c-2.8,3.9-6.2,5.8-10.3,5.8c-4,0-7.3-1.7-9.7-5.1C14.7,126.7,13.2,118.7,13.2,106.9z"/>
			</g>
		</g>
	</g>
</g>
<g id="ytick_10">
	<g id="text_19">
		<g transform="translate(834.280824 678.600946)scale(0.4 -0.4)">
			<g>
				<path id="ArialMT-32_1_" class="st1" d="M50.3,80.1v-8.5H3c-0.1,2.1,0.3,4.2,1,6.1c1.2,3.2,3.1,6.4,5.8,9.5
					c2.7,3.1,6.5,6.7,11.5,10.8c7.8,6.4,13,11.4,15.8,15.2c2.7,3.7,4.1,7.3,4.1,10.6c0,3.5-1.2,6.4-3.8,8.8
					c-2.5,2.4-5.7,3.6-9.7,3.6c-4.2,0-7.6-1.3-10.2-3.8c-2.5-2.5-3.8-6-3.9-10.5l-9,0.9c0.6,6.7,2.9,11.9,7,15.4
					c4,3.5,9.5,5.3,16.3,5.3c6.9,0,12.3-1.9,16.3-5.7c4-3.8,6-8.5,6-14.2c0-2.9-0.6-5.7-1.8-8.5c-1.2-2.8-3.1-5.7-5.8-8.7
					s-7.2-7.3-13.5-12.6c-5.3-4.4-8.7-7.4-10.2-9c-1.5-1.6-2.7-3.2-3.7-4.8H50.3z"/>
			</g>
			<g>
				<path id="ArialMT-30_17_" class="st1" d="M59.8,106.9c0,8.5,0.9,15.3,2.6,20.4c1.7,5.2,4.3,9.1,7.8,11.9c3.4,2.8,7.8,4.2,13,4.2
					c3.8,0,7.2-0.8,10.1-2.3c2.9-1.5,5.3-3.8,7.2-6.7c1.9-2.9,3.4-6.5,4.5-10.6c1.1-4.2,1.6-9.8,1.6-16.9c0-8.4-0.9-15.2-2.6-20.3
					c-1.7-5.2-4.3-9.1-7.7-12c-3.4-2.8-7.8-4.2-13-4.2c-6.9,0-12.3,2.5-16.2,7.4C62.1,83.8,59.8,93.5,59.8,106.9z M68.8,106.9
					c0-11.8,1.4-19.6,4.1-23.5c2.8-3.9,6.1-5.8,10.2-5.8c4,0,7.4,2,10.2,5.9s4.1,11.7,4.1,23.4c0,11.8-1.4,19.6-4.1,23.5
					c-2.8,3.9-6.2,5.8-10.3,5.8c-4,0-7.3-1.7-9.7-5.1C70.3,126.7,68.8,118.7,68.8,106.9z"/>
			</g>
		</g>
	</g>
</g>
<g id="ytick_11">
	<g id="text_20">
		<g transform="translate(834.280824 542.999248)scale(0.4 -0.4)">
			<g>
				<path id="ArialMT-34" class="st1" d="M32.3,71.6v17.1H1.3v8.1l32.7,46.4h7.2V96.8h9.7v-8.1h-9.7V71.6H32.3z M32.3,96.8v32.3
					L9.9,96.8H32.3z"/>
			</g>
			<g>
				<path id="ArialMT-30_18_" class="st1" d="M59.8,106.9c0,8.5,0.9,15.3,2.6,20.4c1.7,5.2,4.3,9.1,7.8,11.9c3.4,2.8,7.8,4.2,13,4.2
					c3.8,0,7.2-0.8,10.1-2.3c2.9-1.5,5.3-3.8,7.2-6.7c1.9-2.9,3.4-6.5,4.5-10.6c1.1-4.2,1.6-9.8,1.6-16.9c0-8.4-0.9-15.2-2.6-20.3
					c-1.7-5.2-4.3-9.1-7.7-12c-3.4-2.8-7.8-4.2-13-4.2c-6.9,0-12.3,2.5-16.2,7.4C62.1,83.8,59.8,93.5,59.8,106.9z M68.8,106.9
					c0-11.8,1.4-19.6,4.1-23.5c2.8-3.9,6.1-5.8,10.2-5.8c4,0,7.4,2,10.2,5.9s4.1,11.7,4.1,23.4c0,11.8-1.4,19.6-4.1,23.5
					c-2.8,3.9-6.2,5.8-10.3,5.8c-4,0-7.3-1.7-9.7-5.1C70.3,126.7,68.8,118.7,68.8,106.9z"/>
			</g>
		</g>
	</g>
</g>
<g id="ytick_12">
	<g id="text_21">
		<g transform="translate(834.280824 407.397549)scale(0.4 -0.4)">
			<g>
				<path id="ArialMT-36_1_" class="st1" d="M49.8,125.6L41,125c-0.8,3.4-1.9,6-3.3,7.5c-2.4,2.5-5.3,3.8-8.8,3.8
					c-2.8,0-5.3-0.8-7.4-2.3c-2.8-2-4.9-5-6.5-8.8c-1.6-3.9-2.4-9.4-2.5-16.5c2.1,3.2,4.7,5.6,7.8,7.2s6.3,2.3,9.6,2.3
					c5.9,0,10.8-2.2,15-6.5c4.1-4.3,6.2-9.9,6.2-16.7c0-4.5-1-8.7-2.9-12.5c-1.9-3.9-4.6-6.8-8-8.9c-3.4-2.1-7.2-3.1-11.5-3.1
					c-7.3,0-13.3,2.7-17.9,8.1c-4.6,5.4-6.9,14.3-6.9,26.6c0,13.8,2.6,23.9,7.7,30.2c4.5,5.5,10.5,8.2,18,8.2
					c5.6,0,10.2-1.6,13.8-4.7C46.9,135.6,49,131.2,49.8,125.6z M13.9,94.8c0-3,0.6-5.9,1.9-8.7c1.3-2.8,3.1-4.9,5.4-6.3
					c2.3-1.4,4.7-2.2,7.3-2.2c3.7,0,6.9,1.5,9.6,4.5c2.7,3,4,7.1,4,12.2c0,4.9-1.3,8.8-4,11.7c-2.6,2.9-6,4.3-10,4.3
					c-4,0-7.3-1.4-10.1-4.3C15.3,103.1,13.9,99.4,13.9,94.8z"/>
			</g>
			<g>
				<path id="ArialMT-30_19_" class="st1" d="M59.8,106.9c0,8.5,0.9,15.3,2.6,20.4c1.7,5.2,4.3,9.1,7.8,11.9c3.4,2.8,7.8,4.2,13,4.2
					c3.8,0,7.2-0.8,10.1-2.3c2.9-1.5,5.3-3.8,7.2-6.7c1.9-2.9,3.4-6.5,4.5-10.6c1.1-4.2,1.6-9.8,1.6-16.9c0-8.4-0.9-15.2-2.6-20.3
					c-1.7-5.2-4.3-9.1-7.7-12c-3.4-2.8-7.8-4.2-13-4.2c-6.9,0-12.3,2.5-16.2,7.4C62.1,83.8,59.8,93.5,59.8,106.9z M68.8,106.9
					c0-11.8,1.4-19.6,4.1-23.5c2.8-3.9,6.1-5.8,10.2-5.8c4,0,7.4,2,10.2,5.9s4.1,11.7,4.1,23.4c0,11.8-1.4,19.6-4.1,23.5
					c-2.8,3.9-6.2,5.8-10.3,5.8c-4,0-7.3-1.7-9.7-5.1C70.3,126.7,68.8,118.7,68.8,106.9z"/>
			</g>
		</g>
	</g>
</g>
<g id="ytick_13">
	<g id="text_22">
		<g transform="translate(834.280824 271.79585)scale(0.4 -0.4)">
			<g>
				<path id="ArialMT-38_1_" class="st1" d="M17.7,110.4c-3.6,1.3-6.3,3.2-8.1,5.7c-1.8,2.5-2.6,5.4-2.6,8.9c0,5.2,1.9,9.6,5.6,13.1
					c3.8,3.6,8.7,5.3,14.9,5.3c6.2,0,11.3-1.8,15.1-5.5c3.8-3.6,5.7-8,5.7-13.2c0-3.3-0.9-6.2-2.6-8.7c-1.7-2.4-4.4-4.3-7.9-5.7
					c4.4-1.4,7.7-3.7,10-6.9c2.3-3.2,3.4-7,3.4-11.4c0-6.1-2.2-11.3-6.5-15.4c-4.3-4.2-10-6.2-17.1-6.2s-12.8,2.1-17.1,6.3
					C6.2,80.8,4,86.1,4,92.3c0,4.7,1.2,8.6,3.5,11.7C10,107.1,13.3,109.3,17.7,110.4z M15.9,125.3c0-3.4,1.1-6.2,3.3-8.3
					c2.2-2.1,5-3.2,8.5-3.2c3.4,0,6.2,1.1,8.3,3.2c2.2,2.1,3.2,4.8,3.2,7.8c0,3.2-1.1,5.9-3.4,8.1c-2.2,2.2-5,3.3-8.3,3.3
					c-3.4,0-6.1-1.1-8.4-3.2C17,130.9,15.9,128.3,15.9,125.3z M13.1,92.3c0-2.5,0.6-4.9,1.8-7.3s3-4.2,5.3-5.5
					c2.3-1.3,4.9-1.9,7.6-1.9c4.2,0,7.7,1.3,10.4,4c2.7,2.7,4.1,6.1,4.1,10.3c0,4.2-1.4,7.7-4.2,10.5c-2.8,2.8-6.3,4.2-10.6,4.2
					c-4.1,0-7.6-1.4-10.3-4.1C14.4,99.8,13.1,96.4,13.1,92.3z"/>
			</g>
			<g>
				<path id="ArialMT-30_20_" class="st1" d="M59.8,106.9c0,8.5,0.9,15.3,2.6,20.4c1.7,5.2,4.3,9.1,7.8,11.9c3.4,2.8,7.8,4.2,13,4.2
					c3.8,0,7.2-0.8,10.1-2.3c2.9-1.5,5.3-3.8,7.2-6.7c1.9-2.9,3.4-6.5,4.5-10.6c1.1-4.2,1.6-9.8,1.6-16.9c0-8.4-0.9-15.2-2.6-20.3
					c-1.7-5.2-4.3-9.1-7.7-12c-3.4-2.8-7.8-4.2-13-4.2c-6.9,0-12.3,2.5-16.2,7.4C62.1,83.8,59.8,93.5,59.8,106.9z M68.8,106.9
					c0-11.8,1.4-19.6,4.1-23.5c2.8-3.9,6.1-5.8,10.2-5.8c4,0,7.4,2,10.2,5.9s4.1,11.7,4.1,23.4c0,11.8-1.4,19.6-4.1,23.5
					c-2.8,3.9-6.2,5.8-10.3,5.8c-4,0-7.3-1.7-9.7-5.1C70.3,126.7,68.8,118.7,68.8,106.9z"/>
			</g>
		</g>
	</g>
</g>
<g id="ytick_14">
	<g id="text_23">
		<g transform="translate(812.037074 136.194151)scale(0.4 -0.4)">
			<g>
				<path id="ArialMT-31_3_" class="st1" d="M37.2,71.6h-8.8v56c-2.1-2-4.9-4-8.3-6c-3.4-2-6.5-3.5-9.3-4.5v8.5
					c4.9,2.3,9.2,5.1,12.9,8.4c3.7,3.3,6.3,6.5,7.8,9.6h5.7V71.6z"/>
			</g>
			<g>
				<path id="ArialMT-30_21_" class="st1" d="M59.8,106.9c0,8.5,0.9,15.3,2.6,20.4c1.7,5.2,4.3,9.1,7.8,11.9c3.4,2.8,7.8,4.2,13,4.2
					c3.8,0,7.2-0.8,10.1-2.3c2.9-1.5,5.3-3.8,7.2-6.7c1.9-2.9,3.4-6.5,4.5-10.6c1.1-4.2,1.6-9.8,1.6-16.9c0-8.4-0.9-15.2-2.6-20.3
					c-1.7-5.2-4.3-9.1-7.7-12c-3.4-2.8-7.8-4.2-13-4.2c-6.9,0-12.3,2.5-16.2,7.4C62.1,83.8,59.8,93.5,59.8,106.9z M68.8,106.9
					c0-11.8,1.4-19.6,4.1-23.5c2.8-3.9,6.1-5.8,10.2-5.8c4,0,7.4,2,10.2,5.9s4.1,11.7,4.1,23.4c0,11.8-1.4,19.6-4.1,23.5
					c-2.8,3.9-6.2,5.8-10.3,5.8c-4,0-7.3-1.7-9.7-5.1C70.3,126.7,68.8,118.7,68.8,106.9z"/>
			</g>
			<g>
				<path id="ArialMT-30_22_" class="st1" d="M115.4,106.9c0,8.5,0.9,15.3,2.6,20.4c1.7,5.2,4.3,9.1,7.8,11.9
					c3.4,2.8,7.8,4.2,13,4.2c3.8,0,7.2-0.8,10.1-2.3c2.9-1.5,5.3-3.8,7.2-6.7c1.9-2.9,3.4-6.5,4.5-10.6c1.1-4.2,1.6-9.8,1.6-16.9
					c0-8.4-0.9-15.2-2.6-20.3c-1.7-5.2-4.3-9.1-7.7-12c-3.4-2.8-7.8-4.2-13-4.2c-6.9,0-12.3,2.5-16.2,7.4
					C117.7,83.8,115.4,93.5,115.4,106.9z M124.4,106.9c0-11.8,1.4-19.6,4.1-23.5c2.8-3.9,6.1-5.8,10.2-5.8c4,0,7.4,2,10.2,5.9
					s4.1,11.7,4.1,23.4c0,11.8-1.4,19.6-4.1,23.5c-2.8,3.9-6.2,5.8-10.3,5.8c-4,0-7.3-1.7-9.7-5.1
					C125.9,126.7,124.4,118.7,124.4,106.9z"/>
			</g>
		</g>
	</g>
</g>
<g>
	<path id="ArialMT-20_4_" class="st1" d="M797.4,738.4"/>
</g>
<g>
	<path id="ArialMT-20_5_" class="st1" d="M797.4,666.7"/>
</g>
<g>
	<path id="ArialMT-20_6_" class="st1" d="M797.4,571.7"/>
</g>
<g>
	<path id="ArialMT-20_7_" class="st1" d="M797.4,454.1"/>
</g>
<g>
	<path id="ArialMT-20_8_" class="st1" d="M797.4,426.6"/>
</g>
<g>
	<path id="ArialMT-20_9_" class="st1" d="M797.4,329.1"/>
</g>
<g id="patch_12">
	<g>
		<defs>
			<rect id="SVGID_17_" x="887.9" y="64.9" width="613.6" height="863.6"/>
		</defs>
		<clipPath id="SVGID_18_">
			<use xlink:href="#SVGID_17_"  style="overflow:visible;"/>
		</clipPath>
		<path class="st13" d="M918.6,771.2H1164V462.5H918.6V771.2z"/>
	</g>
</g>
<g id="patch_13">
	<g>
		<defs>
			<rect id="SVGID_19_" x="887.9" y="64.9" width="613.6" height="863.6"/>
		</defs>
		<clipPath id="SVGID_20_">
			<use xlink:href="#SVGID_19_"  style="overflow:visible;"/>
		</clipPath>
		<path class="st14" d="M1225.4,771.2h245.5V429.7h-245.5V771.2z"/>
	</g>
</g>
<g id="line2d_5">
	<g>
		<defs>
			<rect id="SVGID_21_" x="887.9" y="64.9" width="613.6" height="863.6"/>
		</defs>
		<clipPath id="SVGID_22_">
			<use xlink:href="#SVGID_21_"  style="overflow:visible;"/>
		</clipPath>
		<path class="st15" d="M1041.3,548.2V380.4"/>
	</g>
</g>
<g id="line2d_6">
	<g>
		<defs>
			<rect id="SVGID_23_" x="887.9" y="64.9" width="613.6" height="863.6"/>
		</defs>
		<clipPath id="SVGID_24_">
			<use xlink:href="#SVGID_23_"  style="overflow:visible;"/>
		</clipPath>
		<path class="st16" d="M1348.1,503.4v-157"/>
	</g>
</g>
<g id="patch_14">
	<path class="st17" d="M887.9,928.5V64.9"/>
</g>
<g id="patch_15">
	<path class="st17" d="M887.9,928.5h613.6"/>
</g>
<g id="PathCollection_1">
	<g>
		<defs>
			<rect id="SVGID_25_" x="887.9" y="64.9" width="613.6" height="863.6"/>
		</defs>
		<clipPath id="SVGID_26_">
			<use xlink:href="#SVGID_25_"  style="overflow:visible;"/>
		</clipPath>
		<g class="st18">
			<g>
				<path id="C0_0_055097f82f" class="st19" d="M1041.3,894.2c1.3,0,2.6-0.5,3.5-1.5c0.9-0.9,1.5-2.2,1.5-3.5c0-1.3-0.5-2.6-1.5-3.5
					s-2.2-1.5-3.5-1.5s-2.6,0.5-3.5,1.5s-1.5,2.2-1.5,3.5c0,1.3,0.5,2.6,1.5,3.5C1038.7,893.7,1040,894.2,1041.3,894.2z"/>
			</g>
		</g>
	</g>
	<g>
		<defs>
			<rect id="SVGID_27_" x="887.9" y="64.9" width="613.6" height="863.6"/>
		</defs>
		<clipPath id="SVGID_28_">
			<use xlink:href="#SVGID_27_"  style="overflow:visible;"/>
		</clipPath>
		<g class="st20">
			<g>
				<path id="C0_0_055097f82f_1_" class="st19" d="M1041.3,729.5c1.3,0,2.6-0.5,3.5-1.5c0.9-0.9,1.5-2.2,1.5-3.5
					c0-1.3-0.5-2.6-1.5-3.5s-2.2-1.5-3.5-1.5s-2.6,0.5-3.5,1.5s-1.5,2.2-1.5,3.5c0,1.3,0.5,2.6,1.5,3.5
					C1038.7,729,1040,729.5,1041.3,729.5z"/>
			</g>
		</g>
	</g>
	<g>
		<defs>
			<rect id="SVGID_29_" x="887.9" y="64.9" width="613.6" height="863.6"/>
		</defs>
		<clipPath id="SVGID_30_">
			<use xlink:href="#SVGID_29_"  style="overflow:visible;"/>
		</clipPath>
		<g class="st21">
			<g>
				<path id="C0_0_055097f82f_2_" class="st19" d="M1041.3,659.8c1.3,0,2.6-0.5,3.5-1.5c0.9-0.9,1.5-2.2,1.5-3.5
					c0-1.3-0.5-2.6-1.5-3.5s-2.2-1.5-3.5-1.5s-2.6,0.5-3.5,1.5s-1.5,2.2-1.5,3.5c0,1.3,0.5,2.6,1.5,3.5
					C1038.7,659.3,1040,659.8,1041.3,659.8z"/>
			</g>
		</g>
	</g>
	<g>
		<defs>
			<rect id="SVGID_31_" x="887.9" y="64.9" width="613.6" height="863.6"/>
		</defs>
		<clipPath id="SVGID_32_">
			<use xlink:href="#SVGID_31_"  style="overflow:visible;"/>
		</clipPath>
		<g class="st22">
			<g>
				<path id="C0_0_055097f82f_3_" class="st19" d="M1041.3,630.9c1.3,0,2.6-0.5,3.5-1.5c0.9-0.9,1.5-2.2,1.5-3.5
					c0-1.3-0.5-2.6-1.5-3.5s-2.2-1.5-3.5-1.5s-2.6,0.5-3.5,1.5s-1.5,2.2-1.5,3.5c0,1.3,0.5,2.6,1.5,3.5
					C1038.7,630.4,1040,630.9,1041.3,630.9z"/>
			</g>
		</g>
	</g>
	<g>
		<defs>
			<rect id="SVGID_33_" x="887.9" y="64.9" width="613.6" height="863.6"/>
		</defs>
		<clipPath id="SVGID_34_">
			<use xlink:href="#SVGID_33_"  style="overflow:visible;"/>
		</clipPath>
		<g class="st23">
			<g>
				<path id="C0_0_055097f82f_4_" class="st19" d="M1017.4,624.2c1.3,0,2.6-0.5,3.5-1.5c0.9-0.9,1.5-2.2,1.5-3.5
					c0-1.3-0.5-2.6-1.5-3.5s-2.2-1.5-3.5-1.5s-2.6,0.5-3.5,1.5s-1.5,2.2-1.5,3.5c0,1.3,0.5,2.6,1.5,3.5
					C1014.9,623.7,1016.1,624.2,1017.4,624.2z"/>
			</g>
		</g>
	</g>
	<g>
		<defs>
			<rect id="SVGID_35_" x="887.9" y="64.9" width="613.6" height="863.6"/>
		</defs>
		<clipPath id="SVGID_36_">
			<use xlink:href="#SVGID_35_"  style="overflow:visible;"/>
		</clipPath>
		<g class="st24">
			<g>
				<path id="C0_0_055097f82f_5_" class="st19" d="M1041.3,528.7c1.3,0,2.6-0.5,3.5-1.5c0.9-0.9,1.5-2.2,1.5-3.5
					c0-1.3-0.5-2.6-1.5-3.5s-2.2-1.5-3.5-1.5s-2.6,0.5-3.5,1.5s-1.5,2.2-1.5,3.5c0,1.3,0.5,2.6,1.5,3.5
					C1038.7,528.2,1040,528.7,1041.3,528.7z"/>
			</g>
		</g>
	</g>
	<g>
		<defs>
			<rect id="SVGID_37_" x="887.9" y="64.9" width="613.6" height="863.6"/>
		</defs>
		<clipPath id="SVGID_38_">
			<use xlink:href="#SVGID_37_"  style="overflow:visible;"/>
		</clipPath>
		<g class="st25">
			<g>
				<path id="C0_0_055097f82f_6_" class="st19" d="M1017.4,522.1c1.3,0,2.6-0.5,3.5-1.5c0.9-0.9,1.5-2.2,1.5-3.5
					c0-1.3-0.5-2.6-1.5-3.5s-2.2-1.5-3.5-1.5s-2.6,0.5-3.5,1.5s-1.5,2.2-1.5,3.5c0,1.3,0.5,2.6,1.5,3.5
					C1014.8,521.6,1016.1,522.1,1017.4,522.1z"/>
			</g>
		</g>
	</g>
	<g>
		<defs>
			<rect id="SVGID_39_" x="887.9" y="64.9" width="613.6" height="863.6"/>
		</defs>
		<clipPath id="SVGID_40_">
			<use xlink:href="#SVGID_39_"  style="overflow:visible;"/>
		</clipPath>
		<g class="st26">
			<g>
				<path id="C0_0_055097f82f_7_" class="st19" d="M1064.7,520.3c1.3,0,2.6-0.5,3.5-1.5c0.9-0.9,1.5-2.2,1.5-3.5
					c0-1.3-0.5-2.6-1.5-3.5s-2.2-1.5-3.5-1.5s-2.6,0.5-3.5,1.5s-1.5,2.2-1.5,3.5c0,1.3,0.5,2.6,1.5,3.5
					C1062.1,519.8,1063.3,520.3,1064.7,520.3z"/>
			</g>
		</g>
	</g>
	<g>
		<defs>
			<rect id="SVGID_41_" x="887.9" y="64.9" width="613.6" height="863.6"/>
		</defs>
		<clipPath id="SVGID_42_">
			<use xlink:href="#SVGID_41_"  style="overflow:visible;"/>
		</clipPath>
		<g class="st27">
			<g>
				<path id="C0_0_055097f82f_8_" class="st19" d="M1041.3,497.5c1.3,0,2.6-0.5,3.5-1.5c0.9-0.9,1.5-2.2,1.5-3.5s-0.5-2.6-1.5-3.5
					c-0.9-0.9-2.2-1.5-3.5-1.5s-2.6,0.5-3.5,1.5c-0.9,0.9-1.5,2.2-1.5,3.5s0.5,2.6,1.5,3.5C1038.7,497,1040,497.5,1041.3,497.5z"/>
			</g>
		</g>
	</g>
	<g>
		<defs>
			<rect id="SVGID_43_" x="887.9" y="64.9" width="613.6" height="863.6"/>
		</defs>
		<clipPath id="SVGID_44_">
			<use xlink:href="#SVGID_43_"  style="overflow:visible;"/>
		</clipPath>
		<g class="st28">
			<g>
				<path id="C0_0_055097f82f_9_" class="st19" d="M1041.3,446.7c1.3,0,2.6-0.5,3.5-1.5c0.9-0.9,1.5-2.2,1.5-3.5s-0.5-2.6-1.5-3.5
					c-0.9-0.9-2.2-1.5-3.5-1.5s-2.6,0.5-3.5,1.5c-0.9,0.9-1.5,2.2-1.5,3.5s0.5,2.6,1.5,3.5C1038.7,446.2,1040,446.7,1041.3,446.7z"
					/>
			</g>
		</g>
	</g>
	<g>
		<defs>
			<rect id="SVGID_45_" x="887.9" y="64.9" width="613.6" height="863.6"/>
		</defs>
		<clipPath id="SVGID_46_">
			<use xlink:href="#SVGID_45_"  style="overflow:visible;"/>
		</clipPath>
		<g class="st29">
			<g>
				<path id="C0_0_055097f82f_10_" class="st19" d="M1041.3,414.5c1.3,0,2.6-0.5,3.5-1.5c0.9-0.9,1.5-2.2,1.5-3.5s-0.5-2.6-1.5-3.5
					c-0.9-0.9-2.2-1.5-3.5-1.5s-2.6,0.5-3.5,1.5c-0.9,0.9-1.5,2.2-1.5,3.5s0.5,2.6,1.5,3.5C1038.7,413.9,1040,414.5,1041.3,414.5z"
					/>
			</g>
		</g>
	</g>
	<g>
		<defs>
			<rect id="SVGID_47_" x="887.9" y="64.9" width="613.6" height="863.6"/>
		</defs>
		<clipPath id="SVGID_48_">
			<use xlink:href="#SVGID_47_"  style="overflow:visible;"/>
		</clipPath>
		<g class="st30">
			<g>
				<path id="C0_0_055097f82f_11_" class="st19" d="M1027.6,391.9c1.3,0,2.6-0.5,3.5-1.5c0.9-0.9,1.5-2.2,1.5-3.5s-0.5-2.6-1.5-3.5
					c-0.9-0.9-2.2-1.5-3.5-1.5s-2.6,0.5-3.5,1.5c-0.9,0.9-1.5,2.2-1.5,3.5s0.5,2.6,1.5,3.5C1025,391.3,1026.3,391.9,1027.6,391.9z"
					/>
			</g>
		</g>
	</g>
	<g>
		<defs>
			<rect id="SVGID_49_" x="887.9" y="64.9" width="613.6" height="863.6"/>
		</defs>
		<clipPath id="SVGID_50_">
			<use xlink:href="#SVGID_49_"  style="overflow:visible;"/>
		</clipPath>
		<g class="st31">
			<g>
				<path id="C0_0_055097f82f_12_" class="st19" d="M1047,375.1c1.3,0,2.6-0.5,3.5-1.5c0.9-0.9,1.5-2.2,1.5-3.5s-0.5-2.6-1.5-3.5
					c-0.9-0.9-2.2-1.5-3.5-1.5s-2.6,0.5-3.5,1.5c-0.9,0.9-1.5,2.2-1.5,3.5s0.5,2.6,1.5,3.5C1044.4,374.6,1045.6,375.1,1047,375.1z"
					/>
			</g>
		</g>
	</g>
	<g>
		<defs>
			<rect id="SVGID_51_" x="887.9" y="64.9" width="613.6" height="863.6"/>
		</defs>
		<clipPath id="SVGID_52_">
			<use xlink:href="#SVGID_51_"  style="overflow:visible;"/>
		</clipPath>
		<g class="st32">
			<g>
				<path id="C0_0_055097f82f_13_" class="st19" d="M1041.3,325.7c1.3,0,2.6-0.5,3.5-1.5c0.9-0.9,1.5-2.2,1.5-3.5s-0.5-2.6-1.5-3.5
					c-0.9-0.9-2.2-1.5-3.5-1.5s-2.6,0.5-3.5,1.5c-0.9,0.9-1.5,2.2-1.5,3.5s0.5,2.6,1.5,3.5C1038.7,325.1,1040,325.7,1041.3,325.7z"
					/>
			</g>
		</g>
	</g>
	<g>
		<defs>
			<rect id="SVGID_53_" x="887.9" y="64.9" width="613.6" height="863.6"/>
		</defs>
		<clipPath id="SVGID_54_">
			<use xlink:href="#SVGID_53_"  style="overflow:visible;"/>
		</clipPath>
		<g class="st33">
			<g>
				<path id="C0_0_055097f82f_14_" class="st19" d="M1018.2,316.3c1.3,0,2.6-0.5,3.5-1.5c0.9-0.9,1.5-2.2,1.5-3.5s-0.5-2.6-1.5-3.5
					c-0.9-0.9-2.2-1.5-3.5-1.5s-2.6,0.5-3.5,1.5c-0.9,0.9-1.5,2.2-1.5,3.5s0.5,2.6,1.5,3.5C1015.6,315.7,1016.9,316.3,1018.2,316.3z
					"/>
			</g>
		</g>
	</g>
	<g>
		<defs>
			<rect id="SVGID_55_" x="887.9" y="64.9" width="613.6" height="863.6"/>
		</defs>
		<clipPath id="SVGID_56_">
			<use xlink:href="#SVGID_55_"  style="overflow:visible;"/>
		</clipPath>
		<g class="st34">
			<g>
				<path id="C0_0_055097f82f_15_" class="st19" d="M1041.3,231c1.3,0,2.6-0.5,3.5-1.5c0.9-0.9,1.5-2.2,1.5-3.5
					c0-1.3-0.5-2.6-1.5-3.5s-2.2-1.5-3.5-1.5s-2.6,0.5-3.5,1.5s-1.5,2.2-1.5,3.5c0,1.3,0.5,2.6,1.5,3.5
					C1038.7,230.4,1040,231,1041.3,231z"/>
			</g>
		</g>
	</g>
	<g>
		<defs>
			<rect id="SVGID_57_" x="887.9" y="64.9" width="613.6" height="863.6"/>
		</defs>
		<clipPath id="SVGID_58_">
			<use xlink:href="#SVGID_57_"  style="overflow:visible;"/>
		</clipPath>
		<g class="st35">
			<g>
				<path id="C0_0_055097f82f_16_" class="st19" d="M1041.3,197.1c1.3,0,2.6-0.5,3.5-1.5c0.9-0.9,1.5-2.2,1.5-3.5
					c0-1.3-0.5-2.6-1.5-3.5s-2.2-1.5-3.5-1.5s-2.6,0.5-3.5,1.5s-1.5,2.2-1.5,3.5c0,1.3,0.5,2.6,1.5,3.5
					C1038.7,196.6,1040,197.1,1041.3,197.1z"/>
			</g>
		</g>
	</g>
	<g>
		<defs>
			<rect id="SVGID_59_" x="887.9" y="64.9" width="613.6" height="863.6"/>
		</defs>
		<clipPath id="SVGID_60_">
			<use xlink:href="#SVGID_59_"  style="overflow:visible;"/>
		</clipPath>
		<g class="st36">
			<g>
				<path id="C0_0_055097f82f_17_" class="st19" d="M1041.3,109.2c1.3,0,2.6-0.5,3.5-1.5c0.9-0.9,1.5-2.2,1.5-3.5
					c0-1.3-0.5-2.6-1.5-3.5c-0.9-0.9-2.2-1.5-3.5-1.5s-2.6,0.5-3.5,1.5c-0.9,0.9-1.5,2.2-1.5,3.5c0,1.3,0.5,2.6,1.5,3.5
					C1038.7,108.6,1040,109.2,1041.3,109.2z"/>
			</g>
		</g>
	</g>
</g>
<g>
	<defs>
		<rect id="SVGID_61_" x="887.9" y="64.9" width="613.6" height="863.6"/>
	</defs>
	<clipPath id="SVGID_62_">
		<use xlink:href="#SVGID_61_"  style="overflow:visible;"/>
	</clipPath>
	<g class="st37">
		<g>
			<path id="C1_0_a11254d30a" class="st19" d="M1348.1,648.2c1.3,0,2.6-0.5,3.5-1.5c0.9-0.9,1.5-2.2,1.5-3.5c0-1.3-0.5-2.6-1.5-3.5
				s-2.2-1.5-3.5-1.5s-2.6,0.5-3.5,1.5s-1.5,2.2-1.5,3.5c0,1.3,0.5,2.6,1.5,3.5C1345.5,647.7,1346.8,648.2,1348.1,648.2z"/>
		</g>
	</g>
</g>
<g>
	<defs>
		<rect id="SVGID_63_" x="887.9" y="64.9" width="613.6" height="863.6"/>
	</defs>
	<clipPath id="SVGID_64_">
		<use xlink:href="#SVGID_63_"  style="overflow:visible;"/>
	</clipPath>
	<g class="st38">
		<g>
			<path id="C1_0_a11254d30a_1_" class="st19" d="M1330.4,629.4c1.3,0,2.6-0.5,3.5-1.5c0.9-0.9,1.5-2.2,1.5-3.5
				c0-1.3-0.5-2.6-1.5-3.5s-2.2-1.5-3.5-1.5s-2.6,0.5-3.5,1.5s-1.5,2.2-1.5,3.5c0,1.3,0.5,2.6,1.5,3.5
				C1327.8,628.8,1329,629.4,1330.4,629.4z"/>
		</g>
	</g>
</g>
<g>
	<defs>
		<rect id="SVGID_65_" x="887.9" y="64.9" width="613.6" height="863.6"/>
	</defs>
	<clipPath id="SVGID_66_">
		<use xlink:href="#SVGID_65_"  style="overflow:visible;"/>
	</clipPath>
	<g class="st39">
		<g>
			<path id="C1_0_a11254d30a_2_" class="st19" d="M1348.1,582.9c1.3,0,2.6-0.5,3.5-1.5c0.9-0.9,1.5-2.2,1.5-3.5
				c0-1.3-0.5-2.6-1.5-3.5s-2.2-1.5-3.5-1.5s-2.6,0.5-3.5,1.5s-1.5,2.2-1.5,3.5c0,1.3,0.5,2.6,1.5,3.5
				C1345.5,582.4,1346.8,582.9,1348.1,582.9z"/>
		</g>
	</g>
</g>
<g>
	<defs>
		<rect id="SVGID_67_" x="887.9" y="64.9" width="613.6" height="863.6"/>
	</defs>
	<clipPath id="SVGID_68_">
		<use xlink:href="#SVGID_67_"  style="overflow:visible;"/>
	</clipPath>
	<g class="st40">
		<g>
			<path id="C1_0_a11254d30a_3_" class="st19" d="M1329.5,565.1c1.3,0,2.6-0.5,3.5-1.5c0.9-0.9,1.5-2.2,1.5-3.5
				c0-1.3-0.5-2.6-1.5-3.5s-2.2-1.5-3.5-1.5s-2.6,0.5-3.5,1.5s-1.5,2.2-1.5,3.5c0,1.3,0.5,2.6,1.5,3.5
				C1326.9,564.6,1328.2,565.1,1329.5,565.1z"/>
		</g>
	</g>
</g>
<g>
	<defs>
		<rect id="SVGID_69_" x="887.9" y="64.9" width="613.6" height="863.6"/>
	</defs>
	<clipPath id="SVGID_70_">
		<use xlink:href="#SVGID_69_"  style="overflow:visible;"/>
	</clipPath>
	<g class="st41">
		<g>
			<path id="C1_0_a11254d30a_4_" class="st19" d="M1352.5,555.3c1.3,0,2.6-0.5,3.5-1.5c0.9-0.9,1.5-2.2,1.5-3.5
				c0-1.3-0.5-2.6-1.5-3.5s-2.2-1.5-3.5-1.5s-2.6,0.5-3.5,1.5s-1.5,2.2-1.5,3.5c0,1.3,0.5,2.6,1.5,3.5
				C1349.9,554.8,1351.1,555.3,1352.5,555.3z"/>
		</g>
	</g>
</g>
<g>
	<defs>
		<rect id="SVGID_71_" x="887.9" y="64.9" width="613.6" height="863.6"/>
	</defs>
	<clipPath id="SVGID_72_">
		<use xlink:href="#SVGID_71_"  style="overflow:visible;"/>
	</clipPath>
	<g class="st42">
		<g>
			<path id="C1_0_a11254d30a_5_" class="st19" d="M1348.1,492.4c1.3,0,2.6-0.5,3.5-1.5c0.9-0.9,1.5-2.2,1.5-3.5s-0.5-2.6-1.5-3.5
				c-0.9-0.9-2.2-1.5-3.5-1.5s-2.6,0.5-3.5,1.5c-0.9,0.9-1.5,2.2-1.5,3.5s0.5,2.6,1.5,3.5C1345.5,491.9,1346.8,492.4,1348.1,492.4z"
				/>
		</g>
	</g>
</g>
<g>
	<defs>
		<rect id="SVGID_73_" x="887.9" y="64.9" width="613.6" height="863.6"/>
	</defs>
	<clipPath id="SVGID_74_">
		<use xlink:href="#SVGID_73_"  style="overflow:visible;"/>
	</clipPath>
	<g class="st43">
		<g>
			<path id="C1_0_a11254d30a_6_" class="st19" d="M1348.1,461.5c1.3,0,2.6-0.5,3.5-1.5c0.9-0.9,1.5-2.2,1.5-3.5s-0.5-2.6-1.5-3.5
				c-0.9-0.9-2.2-1.5-3.5-1.5s-2.6,0.5-3.5,1.5c-0.9,0.9-1.5,2.2-1.5,3.5s0.5,2.6,1.5,3.5C1345.5,460.9,1346.8,461.5,1348.1,461.5z"
				/>
		</g>
	</g>
</g>
<g>
	<defs>
		<rect id="SVGID_75_" x="887.9" y="64.9" width="613.6" height="863.6"/>
	</defs>
	<clipPath id="SVGID_76_">
		<use xlink:href="#SVGID_75_"  style="overflow:visible;"/>
	</clipPath>
	<g class="st44">
		<g>
			<path id="C1_0_a11254d30a_7_" class="st19" d="M1323.8,457.2c1.3,0,2.6-0.5,3.5-1.5c0.9-0.9,1.5-2.2,1.5-3.5s-0.5-2.6-1.5-3.5
				c-0.9-0.9-2.2-1.5-3.5-1.5s-2.6,0.5-3.5,1.5c-0.9,0.9-1.5,2.2-1.5,3.5s0.5,2.6,1.5,3.5C1321.2,456.7,1322.5,457.2,1323.8,457.2z"
				/>
		</g>
	</g>
</g>
<g>
	<defs>
		<rect id="SVGID_77_" x="887.9" y="64.9" width="613.6" height="863.6"/>
	</defs>
	<clipPath id="SVGID_78_">
		<use xlink:href="#SVGID_77_"  style="overflow:visible;"/>
	</clipPath>
	<g class="st45">
		<g>
			<path id="C1_0_a11254d30a_8_" class="st19" d="M1367.6,444.9c1.3,0,2.6-0.5,3.5-1.5c0.9-0.9,1.5-2.2,1.5-3.5s-0.5-2.6-1.5-3.5
				c-0.9-0.9-2.2-1.5-3.5-1.5s-2.6,0.5-3.5,1.5c-0.9,0.9-1.5,2.2-1.5,3.5s0.5,2.6,1.5,3.5C1365,444.4,1366.3,444.9,1367.6,444.9z"/>
		</g>
	</g>
</g>
<g>
	<defs>
		<rect id="SVGID_79_" x="887.9" y="64.9" width="613.6" height="863.6"/>
	</defs>
	<clipPath id="SVGID_80_">
		<use xlink:href="#SVGID_79_"  style="overflow:visible;"/>
	</clipPath>
	<g class="st46">
		<g>
			<path id="C1_0_a11254d30a_9_" class="st19" d="M1392.1,442.1c1.3,0,2.6-0.5,3.5-1.5c0.9-0.9,1.5-2.2,1.5-3.5s-0.5-2.6-1.5-3.5
				c-0.9-0.9-2.2-1.5-3.5-1.5s-2.6,0.5-3.5,1.5c-0.9,0.9-1.5,2.2-1.5,3.5s0.5,2.6,1.5,3.5C1389.5,441.6,1390.7,442.1,1392.1,442.1z"
				/>
		</g>
	</g>
</g>
<g>
	<defs>
		<rect id="SVGID_81_" x="887.9" y="64.9" width="613.6" height="863.6"/>
	</defs>
	<clipPath id="SVGID_82_">
		<use xlink:href="#SVGID_81_"  style="overflow:visible;"/>
	</clipPath>
	<g class="st47">
		<g>
			<path id="C1_0_a11254d30a_10_" class="st19" d="M1348.1,371c1.3,0,2.6-0.5,3.5-1.5c0.9-0.9,1.5-2.2,1.5-3.5s-0.5-2.6-1.5-3.5
				c-0.9-0.9-2.2-1.5-3.5-1.5s-2.6,0.5-3.5,1.5c-0.9,0.9-1.5,2.2-1.5,3.5s0.5,2.6,1.5,3.5C1345.5,370.5,1346.8,371,1348.1,371z"/>
		</g>
	</g>
</g>
<g>
	<defs>
		<rect id="SVGID_83_" x="887.9" y="64.9" width="613.6" height="863.6"/>
	</defs>
	<clipPath id="SVGID_84_">
		<use xlink:href="#SVGID_83_"  style="overflow:visible;"/>
	</clipPath>
	<g class="st48">
		<g>
			<path id="C1_0_a11254d30a_11_" class="st19" d="M1348.1,341.4c1.3,0,2.6-0.5,3.5-1.5c0.9-0.9,1.5-2.2,1.5-3.5s-0.5-2.6-1.5-3.5
				c-0.9-0.9-2.2-1.5-3.5-1.5s-2.6,0.5-3.5,1.5c-0.9,0.9-1.5,2.2-1.5,3.5s0.5,2.6,1.5,3.5C1345.5,340.9,1346.8,341.4,1348.1,341.4z"
				/>
		</g>
	</g>
</g>
<g>
	<defs>
		<rect id="SVGID_85_" x="887.9" y="64.9" width="613.6" height="863.6"/>
	</defs>
	<clipPath id="SVGID_86_">
		<use xlink:href="#SVGID_85_"  style="overflow:visible;"/>
	</clipPath>
	<g class="st49">
		<g>
			<path id="C1_0_a11254d30a_12_" class="st19" d="M1348.1,206c1.3,0,2.6-0.5,3.5-1.5c0.9-0.9,1.5-2.2,1.5-3.5
				c0-1.3-0.5-2.6-1.5-3.5s-2.2-1.5-3.5-1.5s-2.6,0.5-3.5,1.5s-1.5,2.2-1.5,3.5c0,1.3,0.5,2.6,1.5,3.5
				C1345.5,205.5,1346.8,206,1348.1,206z"/>
		</g>
	</g>
</g>
<g>
	<defs>
		<rect id="SVGID_87_" x="887.9" y="64.9" width="613.6" height="863.6"/>
	</defs>
	<clipPath id="SVGID_88_">
		<use xlink:href="#SVGID_87_"  style="overflow:visible;"/>
	</clipPath>
	<g class="st50">
		<g>
			<path id="C1_0_a11254d30a_13_" class="st19" d="M1324,200.7c1.3,0,2.6-0.5,3.5-1.5c0.9-0.9,1.5-2.2,1.5-3.5
				c0-1.3-0.5-2.6-1.5-3.5s-2.2-1.5-3.5-1.5s-2.6,0.5-3.5,1.5s-1.5,2.2-1.5,3.5c0,1.3,0.5,2.6,1.5,3.5
				C1321.4,200.2,1322.7,200.7,1324,200.7z"/>
		</g>
	</g>
</g>
<rect x="887.9" y="64.9" class="st51" width="613.6" height="863.6"/>
<g>
	<g>
		<path id="C1_0_a11254d30a_14_" class="st19" d="M1348.1,122.5c1.3,0,2.6-0.5,3.5-1.5c0.9-0.9,1.5-2.2,1.5-3.5
			c0-1.3-0.5-2.6-1.5-3.5c-0.9-0.9-2.2-1.5-3.5-1.5s-2.6,0.5-3.5,1.5c-0.9,0.9-1.5,2.2-1.5,3.5c0,1.3,0.5,2.6,1.5,3.5
			C1345.5,121.9,1346.8,122.5,1348.1,122.5z"/>
	</g>
</g>
<g id="text_25">
	<g transform="translate(826.504688 50.146875)scale(0.6 -0.6)">
		<g>
			<path id="ArialMT-42" class="st1" d="M-105.5-12.1v78.7h29.5c6,0,10.8-0.8,14.5-2.4s6.5-4,8.5-7.4c2.1-3.3,3.1-6.8,3.1-10.4
				c0-3.4-0.9-6.5-2.7-9.5c-1.8-3-4.6-5.4-8.3-7.2c4.8-1.4,8.4-3.8,11-7.1c2.6-3.4,3.8-7.3,3.8-11.9c0-3.7-0.8-7.1-2.3-10.3
				c-1.6-3.2-3.5-5.6-5.8-7.3s-5.2-3-8.6-3.9c-3.4-0.9-7.7-1.3-12.7-1.3H-105.5z M-95,33.5h17c4.6,0,7.9,0.3,9.9,0.9
				c2.6,0.8,4.6,2.1,6,3.9c1.3,1.8,2,4.1,2,6.9c0,2.6-0.6,4.9-1.9,6.9c-1.2,2-3,3.4-5.4,4.1c-2.3,0.7-6.3,1.1-12,1.1H-95V33.5z
				 M-95-2.8h19.6c3.4,0,5.7,0.1,7.1,0.4c2.4,0.4,4.4,1.1,6,2.1c1.6,1,2.9,2.5,4,4.4c1,1.9,1.6,4.1,1.6,6.6c0,2.9-0.8,5.5-2.3,7.6
				c-1.5,2.2-3.6,3.7-6.3,4.6c-2.7,0.9-6.5,1.3-11.5,1.3H-95V-2.8z"/>
		</g>
	</g>
</g>
<text transform="matrix(4.489659e-11 -1 1 4.489659e-11 816.3929 720.2476)" class="st52 st53">low - high cloze (RT)</text>
<text transform="matrix(4.489659e-11 -1 1 4.489659e-11 44.1431 720.2485)" class="st52 st53">Mean RT (ms)</text>
<g id="patch_7_1_">
	<path class="st10" d="M887.9,928.8V65.2"/>
</g>
<g id="patch_8_1_">
	<path class="st10" d="M887.9,928.9h613.6"/>
</g>
</svg>
