<?xml version="1.0" encoding="utf-8"?>
<!-- Generator: Adobe Illustrator 24.1.0, SVG Export Plug-In . SVG Version: 6.00 Build 0)  -->
<svg version="1.1" id="Layer_1" xmlns="http://www.w3.org/2000/svg" xmlns:xlink="http://www.w3.org/1999/xlink" x="0px" y="0px"
	 viewBox="0 0 1572.5 961.5" style="enable-background:new 0 0 1572.5 961.5;" xml:space="preserve">
<style type="text/css">
	.st0{fill:#FFFFFF;}
	.st1{fill:#262626;}
	.st2{clip-path:url(#SVGID_2_);fill:#772B58;stroke:#FFFFFF;stroke-width:0.24;}
	.st3{clip-path:url(#SVGID_4_);fill:#772B58;stroke:#FFFFFF;stroke-width:0.24;}
	.st4{clip-path:url(#SVGID_6_);fill:#DB6E59;stroke:#FFFFFF;stroke-width:0.24;}
	.st5{clip-path:url(#SVGID_8_);fill:#DB6E59;stroke:#FFFFFF;stroke-width:0.24;}
	.st6{clip-path:url(#SVGID_10_);fill:none;stroke:#424242;stroke-linecap:round;stroke-linejoin:round;}
	.st7{clip-path:url(#SVGID_12_);fill:none;stroke:#424242;stroke-linecap:round;stroke-linejoin:round;}
	.st8{clip-path:url(#SVGID_14_);fill:none;stroke:#424242;stroke-linecap:round;stroke-linejoin:round;}
	.st9{clip-path:url(#SVGID_16_);fill:none;stroke:#424242;stroke-linecap:round;stroke-linejoin:round;}
	.st10{fill:none;stroke:#262626;stroke-width:5;stroke-linecap:square;}
	.st11{fill:#772B58;stroke:#FFFFFF;stroke-width:0.24;}
	.st12{fill:#DB6E59;stroke:#FFFFFF;stroke-width:0.24;}
	.st13{clip-path:url(#SVGID_18_);fill:#772B58;stroke:#FFFFFF;stroke-width:0.24;}
	.st14{clip-path:url(#SVGID_20_);fill:#DB6E59;stroke:#FFFFFF;stroke-width:0.24;}
	.st15{clip-path:url(#SVGID_22_);fill:none;stroke:#424242;stroke-linecap:round;stroke-linejoin:round;}
	.st16{clip-path:url(#SVGID_24_);fill:none;stroke:#424242;stroke-linecap:round;stroke-linejoin:round;}
	.st17{fill:none;stroke:#262626;stroke-width:0.8;stroke-linecap:square;}
	.st18{clip-path:url(#SVGID_26_);}
	.st19{fill:#404040;}
	.st20{clip-path:url(#SVGID_28_);}
	.st21{clip-path:url(#SVGID_30_);}
	.st22{clip-path:url(#SVGID_32_);}
	.st23{clip-path:url(#SVGID_34_);}
	.st24{clip-path:url(#SVGID_36_);}
	.st25{clip-path:url(#SVGID_38_);}
	.st26{clip-path:url(#SVGID_40_);}
	.st27{clip-path:url(#SVGID_42_);}
	.st28{clip-path:url(#SVGID_44_);}
	.st29{clip-path:url(#SVGID_46_);}
	.st30{clip-path:url(#SVGID_48_);}
	.st31{clip-path:url(#SVGID_50_);}
	.st32{clip-path:url(#SVGID_52_);}
	.st33{clip-path:url(#SVGID_54_);}
	.st34{clip-path:url(#SVGID_56_);}
	.st35{clip-path:url(#SVGID_58_);}
	.st36{clip-path:url(#SVGID_60_);}
	.st37{clip-path:url(#SVGID_62_);}
	.st38{clip-path:url(#SVGID_64_);}
	.st39{clip-path:url(#SVGID_66_);}
	.st40{clip-path:url(#SVGID_68_);}
	.st41{clip-path:url(#SVGID_70_);}
	.st42{clip-path:url(#SVGID_72_);}
	.st43{clip-path:url(#SVGID_74_);}
	.st44{clip-path:url(#SVGID_76_);}
	.st45{clip-path:url(#SVGID_78_);}
	.st46{clip-path:url(#SVGID_80_);}
	.st47{clip-path:url(#SVGID_82_);}
	.st48{clip-path:url(#SVGID_84_);}
	.st49{clip-path:url(#SVGID_86_);}
	.st50{clip-path:url(#SVGID_88_);}
	.st51{font-family:'MyriadPro-Regular';}
	.st52{font-size:50px;}
</style>
<g id="patch_2">
	<path class="st0" d="M938.7,895.8h613.6V32.2H938.7V895.8z"/>
</g>
<g id="xtick_1">
	<g id="text_1">
		<g transform="translate(214.860653 994.85605)scale(0.4 -0.4)">
			<g>
				<path id="ArialMT-68" class="st1" d="M1852.2,133.5v93.1h11.4v-33.4c5.3,6.2,12.1,9.3,20.2,9.3c5,0,9.3-1,13-3
					c3.7-2,6.3-4.7,7.9-8.1c1.6-3.5,2.4-8.5,2.4-15.1v-42.7h-11.4v42.7c0,5.7-1.2,9.9-3.7,12.5c-2.5,2.6-6,3.9-10.5,3.9
					c-3.4,0-6.6-0.9-9.6-2.6c-3-1.7-5.1-4.1-6.4-7.1c-1.3-3-1.9-7.2-1.9-12.4v-36.9H1852.2z"/>
			</g>
			<g>
				<path id="ArialMT-69" class="st1" d="M1924.6,213.4v13.1h11.4v-13.1H1924.6z M1924.6,133.5v67.4h11.4v-67.4H1924.6z"/>
			</g>
			<g>
				<path id="ArialMT-67" class="st1" d="M1951.3,127.9l11.1-1.6c0.5-3.4,1.7-5.9,3.9-7.5c2.8-2.1,6.7-3.2,11.6-3.2
					c5.3,0,9.4,1.1,12.2,3.2c2.9,2.1,4.8,5.1,5.8,8.9c0.6,2.3,0.9,7.2,0.8,14.7c-5-5.9-11.2-8.8-18.6-8.8c-9.3,0-16.5,3.3-21.5,10
					c-5.1,6.7-7.6,14.7-7.6,24.1c0,6.4,1.2,12.4,3.5,17.8c2.3,5.4,5.7,9.6,10.1,12.6c4.4,3,9.6,4.4,15.6,4.4
					c7.9,0,14.5-3.2,19.7-9.6v8.1h10.5v-58.3c0-10.5-1.1-17.9-3.2-22.3c-2.1-4.4-5.5-7.8-10.2-10.4c-4.6-2.5-10.3-3.8-17.1-3.8
					c-8,0-14.5,1.8-19.5,5.4C1953.5,115.2,1951.2,120.7,1951.3,127.9z M1960.8,168.4c0-8.8,1.8-15.3,5.3-19.4
					c3.5-4.1,7.9-6.1,13.2-6.1c5.2,0,9.6,2,13.2,6.1c3.6,4,5.3,10.4,5.3,19c0,8.2-1.8,14.5-5.5,18.6c-3.7,4.2-8.1,6.3-13.2,6.3
					c-5.1,0-9.4-2.1-13-6.2C1962.6,182.7,1960.8,176.6,1960.8,168.4z"/>
			</g>
			<g>
				<path id="ArialMT-68_1_" class="st1" d="M2025.7,133.5v93.1h11.4v-33.4c5.3,6.2,12.1,9.3,20.2,9.3c5,0,9.3-1,13-3
					c3.7-2,6.3-4.7,7.9-8.1c1.6-3.5,2.4-8.5,2.4-15.1v-42.7h-11.4v42.7c0,5.7-1.2,9.9-3.7,12.5c-2.5,2.6-6,3.9-10.5,3.9
					c-3.4,0-6.6-0.9-9.6-2.6c-3-1.7-5.1-4.1-6.4-7.1c-1.3-3-1.9-7.2-1.9-12.4v-36.9H2025.7z"/>
			</g>
			<g>
				<path id="ArialMT-20" class="st1" d="M2089.5,133.5"/>
			</g>
			<g>
				<path id="ArialMT-63" class="st1" d="M2178.1,158.2l11.2-1.5c-1.2-7.7-4.4-13.8-9.4-18.2c-5.1-4.4-11.3-6.6-18.6-6.6
					c-9.2,0-16.6,3-22.2,9c-5.6,6-8.4,14.7-8.4,25.9c0,7.3,1.2,13.6,3.6,19.1c2.4,5.5,6.1,9.6,11,12.3c4.9,2.7,10.3,4.1,16.1,4.1
					c7.3,0,13.3-1.9,18-5.6c4.7-3.7,7.6-9,9-15.8l-11.1-1.7c-1.1,4.5-2.9,7.9-5.6,10.2c-2.7,2.3-5.9,3.4-9.8,3.4
					c-5.8,0-10.4-2.1-14-6.2c-3.6-4.1-5.4-10.6-5.4-19.6c0-9.1,1.7-15.6,5.2-19.7c3.5-4.1,8-6.2,13.6-6.2c4.5,0,8.2,1.4,11.2,4.1
					C2175.4,148.3,2177.3,152.5,2178.1,158.2z"/>
			</g>
			<g>
				<path id="ArialMT-6c" class="st1" d="M2198.9,133.5v93.1h11.4v-93.1H2198.9z"/>
			</g>
			<g>
				<path id="ArialMT-6f" class="st1" d="M2223.8,167.2c0,12.5,3.5,21.7,10.4,27.7c5.8,5,12.9,7.5,21.2,7.5c9.3,0,16.8-3,22.7-9.1
					c5.9-6.1,8.8-14.5,8.8-25.2c0-8.7-1.3-15.5-3.9-20.5c-2.6-5-6.4-8.8-11.4-11.6c-5-2.7-10.4-4.1-16.3-4.1c-9.4,0-17.1,3-22.9,9.1
					C2226.7,147.1,2223.8,155.9,2223.8,167.2z M2235.5,167.2c0-8.6,1.9-15.1,5.6-19.4c3.8-4.3,8.5-6.4,14.2-6.4
					c5.7,0,10.4,2.2,14.2,6.5c3.8,4.3,5.6,10.9,5.6,19.7c0,8.3-1.9,14.7-5.7,19c-3.8,4.3-8.5,6.4-14.1,6.4c-5.7,0-10.5-2.1-14.2-6.4
					C2237.4,182.3,2235.5,175.9,2235.5,167.2z"/>
			</g>
			<g>
				<path id="ArialMT-7a" class="st1" d="M2294.3,133.5v9.3l42.9,49.3c-4.9-0.2-9.2-0.4-12.9-0.4h-27.5v9.3h55.1v-7.6l-36.5-42.8
					l-7-7.8c5.1,0.4,9.9,0.6,14.4,0.6h31.2v-9.8H2294.3z"/>
			</g>
			<g>
				<path id="ArialMT-65" class="st1" d="M2411.5,155.2l11.8-1.5c-1.9-6.9-5.3-12.2-10.3-16.1c-5-3.8-11.5-5.7-19.3-5.7
					c-9.9,0-17.7,3-23.5,9.1c-5.8,6.1-8.7,14.6-8.7,25.6c0,11.3,2.9,20.2,8.8,26.4c5.9,6.3,13.4,9.4,22.7,9.4c9,0,16.4-3.1,22.1-9.2
					c5.7-6.1,8.6-14.8,8.6-25.9c0-0.7,0-1.7-0.1-3h-50.3c0.4-7.4,2.5-13.1,6.3-17c3.8-3.9,8.5-5.9,14.1-5.9c4.2,0,7.8,1.1,10.7,3.3
					C2407.4,146.9,2409.7,150.4,2411.5,155.2z M2374,173.7h37.6c-0.5,5.7-1.9,9.9-4.3,12.8c-3.6,4.4-8.4,6.6-14.2,6.6
					c-5.3,0-9.7-1.8-13.2-5.3S2374.3,179.6,2374,173.7z"/>
			</g>
		</g>
	</g>
</g>
<g id="xtick_2">
	<g id="text_2">
		<g transform="translate(529.478835 994.85605)scale(0.4 -0.4)">
			<g>
				<path id="ArialMT-6c_1_" class="st1" d="M1931.5,127.9V221h11.4v-93.1H1931.5z"/>
			</g>
			<g>
				<path id="ArialMT-6f_1_" class="st1" d="M1956.4,161.6c0,12.5,3.5,21.7,10.4,27.7c5.8,5,12.9,7.5,21.2,7.5
					c9.3,0,16.8-3,22.7-9.1c5.9-6.1,8.8-14.5,8.8-25.2c0-8.7-1.3-15.5-3.9-20.5c-2.6-5-6.4-8.8-11.4-11.6c-5-2.7-10.4-4.1-16.3-4.1
					c-9.4,0-17.1,3-22.9,9.1C1959.3,141.6,1956.4,150.3,1956.4,161.6z M1968.2,161.6c0-8.6,1.9-15.1,5.6-19.4
					c3.8-4.3,8.5-6.4,14.2-6.4c5.7,0,10.4,2.2,14.2,6.5c3.8,4.3,5.6,10.9,5.6,19.7c0,8.3-1.9,14.7-5.7,19c-3.8,4.3-8.5,6.4-14.1,6.4
					c-5.7,0-10.5-2.1-14.2-6.4C1970,176.7,1968.2,170.3,1968.2,161.6z"/>
			</g>
			<g>
				<path id="ArialMT-77" class="st1" d="M2045.4,127.9l-20.6,67.4h11.8l10.7-38.9l4-14.5c0.2,0.7,1.3,5.3,3.5,13.9l10.7,39.5h11.7
					l10.1-39.1l3.4-12.9l3.9,13l11.6,39h11.1l-21.1-67.4h-11.9l-10.7,40.4l-2.6,11.5l-13.7-51.9H2045.4z"/>
			</g>
			<g>
				<path id="ArialMT-20_1_" class="st1" d="M2118.3,127.9"/>
			</g>
			<g>
				<path id="ArialMT-63_1_" class="st1" d="M2207,152.6l11.2-1.5c-1.2-7.7-4.4-13.8-9.4-18.2c-5.1-4.4-11.3-6.6-18.6-6.6
					c-9.2,0-16.6,3-22.2,9c-5.6,6-8.4,14.7-8.4,25.9c0,7.3,1.2,13.6,3.6,19.1c2.4,5.5,6.1,9.6,11,12.3c4.9,2.7,10.3,4.1,16.1,4.1
					c7.3,0,13.3-1.9,18-5.6c4.7-3.7,7.6-9,9-15.8l-11.1-1.7c-1.1,4.5-2.9,7.9-5.6,10.2c-2.7,2.3-5.9,3.4-9.8,3.4
					c-5.8,0-10.4-2.1-14-6.2c-3.6-4.1-5.4-10.6-5.4-19.6c0-9.1,1.7-15.6,5.2-19.7c3.5-4.1,8-6.2,13.6-6.2c4.5,0,8.2,1.4,11.2,4.1
					S2206.2,146.9,2207,152.6z"/>
			</g>
			<g>
				<path id="ArialMT-6c_2_" class="st1" d="M2227.7,127.9V221h11.4v-93.1H2227.7z"/>
			</g>
			<g>
				<path id="ArialMT-6f_2_" class="st1" d="M2252.6,161.6c0,12.5,3.5,21.7,10.4,27.7c5.8,5,12.9,7.5,21.2,7.5
					c9.3,0,16.8-3,22.7-9.1c5.9-6.1,8.8-14.5,8.8-25.2c0-8.7-1.3-15.5-3.9-20.5c-2.6-5-6.4-8.8-11.4-11.6c-5-2.7-10.4-4.1-16.3-4.1
					c-9.4,0-17.1,3-22.9,9.1C2255.5,141.6,2252.6,150.3,2252.6,161.6z M2264.3,161.6c0-8.6,1.9-15.1,5.6-19.4
					c3.8-4.3,8.5-6.4,14.2-6.4c5.7,0,10.4,2.2,14.2,6.5c3.8,4.3,5.6,10.9,5.6,19.7c0,8.3-1.9,14.7-5.7,19c-3.8,4.3-8.5,6.4-14.1,6.4
					c-5.7,0-10.5-2.1-14.2-6.4C2266.2,176.7,2264.3,170.3,2264.3,161.6z"/>
			</g>
			<g>
				<path id="ArialMT-7a_1_" class="st1" d="M2323.1,127.9v9.3l42.9,49.3c-4.9-0.2-9.2-0.4-12.9-0.4h-27.5v9.3h55.1v-7.6l-36.5-42.8
					l-7-7.8c5.1,0.4,9.9,0.6,14.4,0.6h31.2v-9.8H2323.1z"/>
			</g>
			<g>
				<path id="ArialMT-65_1_" class="st1" d="M2440.3,149.7l11.8-1.5c-1.9-6.9-5.3-12.2-10.3-16.1c-5-3.8-11.5-5.7-19.3-5.7
					c-9.9,0-17.7,3-23.5,9.1c-5.8,6.1-8.7,14.6-8.7,25.6c0,11.3,2.9,20.2,8.8,26.4c5.9,6.3,13.4,9.4,22.7,9.4c9,0,16.4-3.1,22.1-9.2
					c5.7-6.1,8.6-14.8,8.6-25.9c0-0.7,0-1.7-0.1-3h-50.3c0.4-7.4,2.5-13.1,6.3-17c3.8-3.9,8.5-5.9,14.1-5.9c4.2,0,7.8,1.1,10.7,3.3
					C2436.2,141.3,2438.6,144.8,2440.3,149.7z M2402.8,168.1h37.6c-0.5,5.7-1.9,9.9-4.3,12.8c-3.6,4.4-8.4,6.6-14.2,6.6
					c-5.3,0-9.7-1.8-13.2-5.3S2403.2,174,2402.8,168.1z"/>
			</g>
		</g>
	</g>
</g>
<g id="ytick_1">
	<g id="text_4">
		<g transform="translate(75.673438 971.440425)scale(0.4 -0.4)">
			<g>
				<path id="ArialMT-36" class="st1" d="M2017.8,207.4l-8.7-0.7c-0.8,3.4-1.9,6-3.3,7.5c-2.4,2.5-5.3,3.8-8.8,3.8
					c-2.8,0-5.3-0.8-7.4-2.3c-2.8-2-4.9-5-6.5-8.8c-1.6-3.9-2.4-9.4-2.5-16.5c2.1,3.2,4.7,5.6,7.8,7.2s6.3,2.3,9.6,2.3
					c5.9,0,10.8-2.2,15-6.5c4.1-4.3,6.2-9.9,6.2-16.7c0-4.5-1-8.7-2.9-12.5s-4.6-6.8-8-8.9c-3.4-2.1-7.2-3.1-11.5-3.1
					c-7.3,0-13.3,2.7-17.9,8.1c-4.6,5.4-6.9,14.3-6.9,26.6c0,13.8,2.6,23.9,7.7,30.2c4.5,5.5,10.5,8.2,18,8.2
					c5.6,0,10.2-1.6,13.8-4.7C2014.9,217.3,2017,213,2017.8,207.4z M1981.9,176.5c0-3,0.6-5.9,1.9-8.7c1.3-2.8,3.1-4.9,5.4-6.3
					c2.3-1.4,4.7-2.2,7.3-2.2c3.7,0,6.9,1.5,9.6,4.5c2.7,3,4,7.1,4,12.2c0,4.9-1.3,8.8-4,11.7c-2.6,2.9-6,4.3-10,4.3
					c-4,0-7.3-1.4-10.1-4.3C1983.3,184.9,1981.9,181.2,1981.9,176.5z"/>
			</g>
			<g>
				<path id="ArialMT-30" class="st1" d="M2027.8,188.7c0,8.5,0.9,15.3,2.6,20.4c1.7,5.2,4.3,9.1,7.8,11.9c3.4,2.8,7.8,4.2,13,4.2
					c3.8,0,7.2-0.8,10.1-2.3c2.9-1.5,5.3-3.8,7.2-6.7c1.9-2.9,3.4-6.5,4.5-10.6c1.1-4.2,1.6-9.8,1.6-16.9c0-8.4-0.9-15.2-2.6-20.3
					c-1.7-5.2-4.3-9.1-7.7-12c-3.4-2.8-7.8-4.2-13-4.2c-6.9,0-12.3,2.5-16.3,7.4C2030.1,165.5,2027.8,175.2,2027.8,188.7z
					 M2036.8,188.7c0-11.8,1.4-19.6,4.1-23.5c2.8-3.9,6.1-5.8,10.2-5.8c4,0,7.4,2,10.2,5.9s4.1,11.7,4.1,23.4
					c0,11.8-1.4,19.6-4.1,23.5c-2.8,3.9-6.2,5.8-10.3,5.8c-4,0-7.3-1.7-9.7-5.1C2038.3,208.5,2036.8,200.4,2036.8,188.7z"/>
			</g>
			<g>
				<path id="ArialMT-30_1_" class="st1" d="M2083.4,188.7c0,8.5,0.9,15.3,2.6,20.4c1.7,5.2,4.3,9.1,7.8,11.9
					c3.4,2.8,7.8,4.2,13,4.2c3.8,0,7.2-0.8,10.1-2.3c2.9-1.5,5.3-3.8,7.2-6.7c1.9-2.9,3.4-6.5,4.5-10.6c1.1-4.2,1.6-9.8,1.6-16.9
					c0-8.4-0.9-15.2-2.6-20.3c-1.7-5.2-4.3-9.1-7.7-12c-3.4-2.8-7.8-4.2-13-4.2c-6.9,0-12.3,2.5-16.2,7.4
					C2085.8,165.5,2083.4,175.2,2083.4,188.7z M2092.4,188.7c0-11.8,1.4-19.6,4.1-23.5c2.8-3.9,6.1-5.8,10.2-5.8c4,0,7.4,2,10.2,5.9
					s4.1,11.7,4.1,23.4c0,11.8-1.4,19.6-4.1,23.5c-2.8,3.9-6.2,5.8-10.3,5.8c-4,0-7.3-1.7-9.7-5.1
					C2093.9,208.5,2092.4,200.4,2092.4,188.7z"/>
			</g>
		</g>
	</g>
</g>
<g id="ytick_2">
	<g id="text_5">
		<g transform="translate(75.673438 798.726825)scale(0.4 -0.4)">
			<g>
				<path id="ArialMT-37" class="st1" d="M1972.7,215.6v8.5h46.3v-6.8c-4.6-4.8-9.1-11.3-13.6-19.3c-4.5-8-7.9-16.3-10.4-24.8
					c-1.8-6-2.9-12.5-3.4-19.7h-9c0.1,5.6,1.2,12.4,3.3,20.4c2.1,8,5.2,15.7,9.1,23.1c4,7.4,8.2,13.6,12.6,18.7H1972.7z"/>
			</g>
			<g>
				<path id="ArialMT-30_2_" class="st1" d="M2027.8,188.7c0,8.5,0.9,15.3,2.6,20.4c1.7,5.2,4.3,9.1,7.8,11.9
					c3.4,2.8,7.8,4.2,13,4.2c3.8,0,7.2-0.8,10.1-2.3c2.9-1.5,5.3-3.8,7.2-6.7c1.9-2.9,3.4-6.5,4.5-10.6c1.1-4.2,1.6-9.8,1.6-16.9
					c0-8.4-0.9-15.2-2.6-20.3c-1.7-5.2-4.3-9.1-7.7-12c-3.4-2.8-7.8-4.2-13-4.2c-6.9,0-12.3,2.5-16.3,7.4
					C2030.1,165.5,2027.8,175.2,2027.8,188.7z M2036.8,188.7c0-11.8,1.4-19.6,4.1-23.5c2.8-3.9,6.1-5.8,10.2-5.8c4,0,7.4,2,10.2,5.9
					s4.1,11.7,4.1,23.4c0,11.8-1.4,19.6-4.1,23.5c-2.8,3.9-6.2,5.8-10.3,5.8c-4,0-7.3-1.7-9.7-5.1
					C2038.3,208.5,2036.8,200.4,2036.8,188.7z"/>
			</g>
			<g>
				<path id="ArialMT-30_3_" class="st1" d="M2083.4,188.7c0,8.5,0.9,15.3,2.6,20.4c1.7,5.2,4.3,9.1,7.8,11.9
					c3.4,2.8,7.8,4.2,13,4.2c3.8,0,7.2-0.8,10.1-2.3c2.9-1.5,5.3-3.8,7.2-6.7c1.9-2.9,3.4-6.5,4.5-10.6c1.1-4.2,1.6-9.8,1.6-16.9
					c0-8.4-0.9-15.2-2.6-20.3c-1.7-5.2-4.3-9.1-7.7-12c-3.4-2.8-7.8-4.2-13-4.2c-6.9,0-12.3,2.5-16.2,7.4
					C2085.8,165.5,2083.4,175.2,2083.4,188.7z M2092.4,188.7c0-11.8,1.4-19.6,4.1-23.5c2.8-3.9,6.1-5.8,10.2-5.8c4,0,7.4,2,10.2,5.9
					s4.1,11.7,4.1,23.4c0,11.8-1.4,19.6-4.1,23.5c-2.8,3.9-6.2,5.8-10.3,5.8c-4,0-7.3-1.7-9.7-5.1
					C2093.9,208.5,2092.4,200.4,2092.4,188.7z"/>
			</g>
		</g>
	</g>
</g>
<g id="ytick_3">
	<g id="text_6">
		<g transform="translate(75.673438 626.013225)scale(0.4 -0.4)">
			<g>
				<path id="ArialMT-38" class="st1" d="M1985.7,192.2c-3.6,1.3-6.3,3.2-8.1,5.7c-1.8,2.5-2.6,5.4-2.6,8.9c0,5.2,1.9,9.6,5.6,13.1
					c3.8,3.6,8.7,5.3,14.9,5.3c6.2,0,11.3-1.8,15.1-5.5c3.8-3.6,5.7-8,5.7-13.2c0-3.3-0.9-6.2-2.6-8.7c-1.7-2.4-4.4-4.3-7.9-5.7
					c4.4-1.4,7.7-3.7,10-6.9c2.3-3.2,3.4-7,3.4-11.4c0-6.1-2.2-11.3-6.5-15.4c-4.3-4.2-10-6.2-17.1-6.2s-12.8,2.1-17.1,6.3
					c-4.3,4.2-6.5,9.4-6.5,15.7c0,4.7,1.2,8.6,3.5,11.7C1978,188.9,1981.3,191,1985.7,192.2z M1983.9,207.1c0-3.4,1.1-6.2,3.3-8.3
					c2.2-2.1,5-3.2,8.5-3.2c3.4,0,6.2,1.1,8.3,3.2c2.2,2.1,3.2,4.8,3.2,7.8c0,3.2-1.1,5.9-3.4,8.1c-2.2,2.2-5,3.3-8.3,3.3
					c-3.4,0-6.1-1.1-8.4-3.2C1985,212.6,1983.9,210.1,1983.9,207.1z M1981.1,174c0-2.5,0.6-4.9,1.8-7.3s3-4.2,5.3-5.5
					c2.3-1.3,4.9-1.9,7.6-1.9c4.2,0,7.7,1.3,10.4,4c2.7,2.7,4.1,6.1,4.1,10.3c0,4.2-1.4,7.7-4.2,10.5c-2.8,2.8-6.3,4.2-10.6,4.2
					c-4.1,0-7.6-1.4-10.3-4.1C1982.5,181.5,1981.1,178.1,1981.1,174z"/>
			</g>
			<g>
				<path id="ArialMT-30_4_" class="st1" d="M2027.8,188.7c0,8.5,0.9,15.3,2.6,20.4c1.7,5.2,4.3,9.1,7.8,11.9
					c3.4,2.8,7.8,4.2,13,4.2c3.8,0,7.2-0.8,10.1-2.3c2.9-1.5,5.3-3.8,7.2-6.7c1.9-2.9,3.4-6.5,4.5-10.6c1.1-4.2,1.6-9.8,1.6-16.9
					c0-8.4-0.9-15.2-2.6-20.3c-1.7-5.2-4.3-9.1-7.7-12c-3.4-2.8-7.8-4.2-13-4.2c-6.9,0-12.3,2.5-16.3,7.4
					C2030.1,165.5,2027.8,175.2,2027.8,188.7z M2036.8,188.7c0-11.8,1.4-19.6,4.1-23.5c2.8-3.9,6.1-5.8,10.2-5.8c4,0,7.4,2,10.2,5.9
					s4.1,11.7,4.1,23.4c0,11.8-1.4,19.6-4.1,23.5c-2.8,3.9-6.2,5.8-10.3,5.8c-4,0-7.3-1.7-9.7-5.1
					C2038.3,208.5,2036.8,200.4,2036.8,188.7z"/>
			</g>
			<g>
				<path id="ArialMT-30_5_" class="st1" d="M2083.4,188.7c0,8.5,0.9,15.3,2.6,20.4c1.7,5.2,4.3,9.1,7.8,11.9
					c3.4,2.8,7.8,4.2,13,4.2c3.8,0,7.2-0.8,10.1-2.3c2.9-1.5,5.3-3.8,7.2-6.7c1.9-2.9,3.4-6.5,4.5-10.6c1.1-4.2,1.6-9.8,1.6-16.9
					c0-8.4-0.9-15.2-2.6-20.3c-1.7-5.2-4.3-9.1-7.7-12c-3.4-2.8-7.8-4.2-13-4.2c-6.9,0-12.3,2.5-16.2,7.4
					C2085.8,165.5,2083.4,175.2,2083.4,188.7z M2092.4,188.7c0-11.8,1.4-19.6,4.1-23.5c2.8-3.9,6.1-5.8,10.2-5.8c4,0,7.4,2,10.2,5.9
					s4.1,11.7,4.1,23.4c0,11.8-1.4,19.6-4.1,23.5c-2.8,3.9-6.2,5.8-10.3,5.8c-4,0-7.3-1.7-9.7-5.1
					C2093.9,208.5,2092.4,200.4,2092.4,188.7z"/>
			</g>
		</g>
	</g>
</g>
<g id="ytick_4">
	<g id="text_7">
		<g transform="translate(75.673438 453.299625)scale(0.4 -0.4)">
			<g>
				<path id="ArialMT-39" class="st1" d="M1973.5,169.9l8.5,0.8c0.7-4,2.1-6.8,4.1-8.6c2-1.8,4.6-2.7,7.8-2.7c2.7,0,5.1,0.6,7.1,1.9
					c2,1.2,3.7,2.9,5,5c1.3,2.1,2.4,4.9,3.3,8.4c0.9,3.5,1.3,7.1,1.3,10.8c0,0.4,0,1,0,1.8c-1.8-2.8-4.2-5.1-7.2-6.8
					c-3-1.7-6.3-2.6-9.9-2.6c-5.9,0-10.9,2.1-15,6.4c-4.1,4.3-6.1,10-6.1,17c0,7.3,2.1,13.1,6.4,17.5s9.6,6.6,16.1,6.6
					c4.7,0,8.9-1.3,12.8-3.8c3.9-2.5,6.8-6.1,8.8-10.7c2-4.6,3-11.3,3-20.1c0-9.1-1-16.4-3-21.8c-2-5.4-4.9-9.5-8.9-12.4
					c-3.9-2.8-8.5-4.2-13.8-4.2c-5.6,0-10.2,1.6-13.7,4.7C1976.3,159.9,1974.2,164.3,1973.5,169.9z M2009.5,201.5
					c0,5.1-1.3,9.1-4,12c-2.7,3-5.9,4.4-9.7,4.4c-3.9,0-7.3-1.6-10.2-4.8c-2.9-3.2-4.3-7.3-4.3-12.4c0-4.6,1.4-8.3,4.1-11.1
					c2.8-2.8,6.1-4.3,10.2-4.3c4.1,0,7.4,1.4,10,4.3C2008.1,192.5,2009.5,196.5,2009.5,201.5z"/>
			</g>
			<g>
				<path id="ArialMT-30_6_" class="st1" d="M2027.8,188.7c0,8.5,0.9,15.3,2.6,20.4c1.7,5.2,4.3,9.1,7.8,11.9
					c3.4,2.8,7.8,4.2,13,4.2c3.8,0,7.2-0.8,10.1-2.3c2.9-1.5,5.3-3.8,7.2-6.7c1.9-2.9,3.4-6.5,4.5-10.6c1.1-4.2,1.6-9.8,1.6-16.9
					c0-8.4-0.9-15.2-2.6-20.3c-1.7-5.2-4.3-9.1-7.7-12c-3.4-2.8-7.8-4.2-13-4.2c-6.9,0-12.3,2.5-16.3,7.4
					C2030.1,165.5,2027.8,175.2,2027.8,188.7z M2036.8,188.7c0-11.8,1.4-19.6,4.1-23.5c2.8-3.9,6.1-5.8,10.2-5.8c4,0,7.4,2,10.2,5.9
					s4.1,11.7,4.1,23.4c0,11.8-1.4,19.6-4.1,23.5c-2.8,3.9-6.2,5.8-10.3,5.8c-4,0-7.3-1.7-9.7-5.1
					C2038.3,208.5,2036.8,200.4,2036.8,188.7z"/>
			</g>
			<g>
				<path id="ArialMT-30_7_" class="st1" d="M2083.4,188.7c0,8.5,0.9,15.3,2.6,20.4c1.7,5.2,4.3,9.1,7.8,11.9
					c3.4,2.8,7.8,4.2,13,4.2c3.8,0,7.2-0.8,10.1-2.3c2.9-1.5,5.3-3.8,7.2-6.7c1.9-2.9,3.4-6.5,4.5-10.6c1.1-4.2,1.6-9.8,1.6-16.9
					c0-8.4-0.9-15.2-2.6-20.3c-1.7-5.2-4.3-9.1-7.7-12c-3.4-2.8-7.8-4.2-13-4.2c-6.9,0-12.3,2.5-16.2,7.4
					C2085.8,165.5,2083.4,175.2,2083.4,188.7z M2092.4,188.7c0-11.8,1.4-19.6,4.1-23.5c2.8-3.9,6.1-5.8,10.2-5.8c4,0,7.4,2,10.2,5.9
					s4.1,11.7,4.1,23.4c0,11.8-1.4,19.6-4.1,23.5c-2.8,3.9-6.2,5.8-10.3,5.8c-4,0-7.3-1.7-9.7-5.1
					C2093.9,208.5,2092.4,200.4,2092.4,188.7z"/>
			</g>
		</g>
	</g>
</g>
<g id="ytick_5">
	<g id="text_8">
		<g transform="translate(53.429688 280.586025)scale(0.4 -0.4)">
			<g>
				<path id="ArialMT-31" class="st1" d="M2005.3,153.4h-8.8v56c-2.1-2-4.9-4-8.3-6s-6.5-3.5-9.2-4.5v8.5c4.9,2.3,9.2,5.1,12.9,8.4
					c3.7,3.3,6.3,6.5,7.8,9.6h5.7V153.4z"/>
			</g>
			<g>
				<path id="ArialMT-30_8_" class="st1" d="M2027.8,188.7c0,8.5,0.9,15.3,2.6,20.4c1.7,5.2,4.3,9.1,7.8,11.9
					c3.4,2.8,7.8,4.2,13,4.2c3.8,0,7.2-0.8,10.1-2.3c2.9-1.5,5.3-3.8,7.2-6.7c1.9-2.9,3.4-6.5,4.5-10.6c1.1-4.2,1.6-9.8,1.6-16.9
					c0-8.4-0.9-15.2-2.6-20.3c-1.7-5.2-4.3-9.1-7.7-12c-3.4-2.8-7.8-4.2-13-4.2c-6.9,0-12.3,2.5-16.3,7.4
					C2030.1,165.5,2027.8,175.2,2027.8,188.7z M2036.8,188.7c0-11.8,1.4-19.6,4.1-23.5c2.8-3.9,6.1-5.8,10.2-5.8c4,0,7.4,2,10.2,5.9
					s4.1,11.7,4.1,23.4c0,11.8-1.4,19.6-4.1,23.5c-2.8,3.9-6.2,5.8-10.3,5.8c-4,0-7.3-1.7-9.7-5.1
					C2038.3,208.5,2036.8,200.4,2036.8,188.7z"/>
			</g>
			<g>
				<path id="ArialMT-30_9_" class="st1" d="M2083.4,188.7c0,8.5,0.9,15.3,2.6,20.4c1.7,5.2,4.3,9.1,7.8,11.9
					c3.4,2.8,7.8,4.2,13,4.2c3.8,0,7.2-0.8,10.1-2.3c2.9-1.5,5.3-3.8,7.2-6.7c1.9-2.9,3.4-6.5,4.5-10.6c1.1-4.2,1.6-9.8,1.6-16.9
					c0-8.4-0.9-15.2-2.6-20.3c-1.7-5.2-4.3-9.1-7.7-12c-3.4-2.8-7.8-4.2-13-4.2c-6.9,0-12.3,2.5-16.2,7.4
					C2085.8,165.5,2083.4,175.2,2083.4,188.7z M2092.4,188.7c0-11.8,1.4-19.6,4.1-23.5c2.8-3.9,6.1-5.8,10.2-5.8c4,0,7.4,2,10.2,5.9
					s4.1,11.7,4.1,23.4c0,11.8-1.4,19.6-4.1,23.5c-2.8,3.9-6.2,5.8-10.3,5.8c-4,0-7.3-1.7-9.7-5.1
					C2093.9,208.5,2092.4,200.4,2092.4,188.7z"/>
			</g>
			<g>
				<path id="ArialMT-30_10_" class="st1" d="M2139,188.7c0,8.5,0.9,15.3,2.6,20.4c1.7,5.2,4.3,9.1,7.8,11.9c3.4,2.8,7.8,4.2,13,4.2
					c3.8,0,7.2-0.8,10.1-2.3c2.9-1.5,5.3-3.8,7.2-6.7c1.9-2.9,3.4-6.5,4.5-10.6c1.1-4.2,1.6-9.8,1.6-16.9c0-8.4-0.9-15.2-2.6-20.3
					c-1.7-5.2-4.3-9.1-7.7-12c-3.4-2.8-7.8-4.2-13-4.2c-6.9,0-12.3,2.5-16.2,7.4C2141.4,165.5,2139,175.2,2139,188.7z M2148,188.7
					c0-11.8,1.4-19.6,4.1-23.5c2.8-3.9,6.1-5.8,10.2-5.8c4,0,7.4,2,10.2,5.9s4.1,11.7,4.1,23.4c0,11.8-1.4,19.6-4.1,23.5
					c-2.8,3.9-6.2,5.8-10.3,5.8c-4,0-7.3-1.7-9.7-5.1C2149.5,208.5,2148,200.4,2148,188.7z"/>
			</g>
		</g>
	</g>
</g>
<g id="ytick_6">
	<g id="text_9">
		<g transform="translate(56.379688 107.872425)scale(0.4 -0.4)">
			<g>
				<path id="ArialMT-31_1_" class="st1" d="M2005.3,153.4h-8.8v56c-2.1-2-4.9-4-8.3-6s-6.5-3.5-9.2-4.5v8.5
					c4.9,2.3,9.2,5.1,12.9,8.4c3.7,3.3,6.3,6.5,7.8,9.6h5.7V153.4z"/>
			</g>
			<g>
				<path id="ArialMT-31_2_" class="st1" d="M2053.5,153.4h-8.8v56c-2.1-2-4.9-4-8.3-6s-6.5-3.5-9.2-4.5v8.5
					c4.9,2.3,9.2,5.1,12.9,8.4c3.7,3.3,6.3,6.5,7.8,9.6h5.7V153.4z"/>
			</g>
			<g>
				<path id="ArialMT-30_11_" class="st1" d="M2076,188.7c0,8.5,0.9,15.3,2.6,20.4c1.7,5.2,4.3,9.1,7.8,11.9c3.4,2.8,7.8,4.2,13,4.2
					c3.8,0,7.2-0.8,10.1-2.3c2.9-1.5,5.3-3.8,7.2-6.7c1.9-2.9,3.4-6.5,4.5-10.6c1.1-4.2,1.6-9.8,1.6-16.9c0-8.4-0.9-15.2-2.6-20.3
					c-1.7-5.2-4.3-9.1-7.7-12c-3.4-2.8-7.8-4.2-13-4.2c-6.9,0-12.3,2.5-16.2,7.4C2078.4,165.5,2076,175.2,2076,188.7z M2085,188.7
					c0-11.8,1.4-19.6,4.1-23.5c2.8-3.9,6.1-5.8,10.2-5.8c4,0,7.4,2,10.2,5.9s4.1,11.7,4.1,23.4c0,11.8-1.4,19.6-4.1,23.5
					c-2.8,3.9-6.2,5.8-10.3,5.8c-4,0-7.3-1.7-9.7-5.1C2086.6,208.5,2085,200.4,2085,188.7z"/>
			</g>
			<g>
				<path id="ArialMT-30_12_" class="st1" d="M2131.6,188.7c0,8.5,0.9,15.3,2.6,20.4c1.7,5.2,4.3,9.1,7.8,11.9
					c3.4,2.8,7.8,4.2,13,4.2c3.8,0,7.2-0.8,10.1-2.3c2.9-1.5,5.3-3.8,7.2-6.7c1.9-2.9,3.4-6.5,4.5-10.6c1.1-4.2,1.6-9.8,1.6-16.9
					c0-8.4-0.9-15.2-2.6-20.3c-1.7-5.2-4.3-9.1-7.7-12c-3.4-2.8-7.8-4.2-13-4.2c-6.9,0-12.3,2.5-16.2,7.4
					C2134,165.5,2131.6,175.2,2131.6,188.7z M2140.7,188.7c0-11.8,1.4-19.6,4.1-23.5c2.8-3.9,6.1-5.8,10.2-5.8c4,0,7.4,2,10.2,5.9
					s4.1,11.7,4.1,23.4c0,11.8-1.4,19.6-4.1,23.5c-2.8,3.9-6.2,5.8-10.3,5.8c-4,0-7.3-1.7-9.7-5.1
					C2142.2,208.5,2140.7,200.4,2140.7,188.7z"/>
			</g>
		</g>
	</g>
</g>
<g id="patch_3">
	<g>
		<defs>
			<rect id="SVGID_1_" x="938.7" y="32.2" width="613.6" height="863.6"/>
		</defs>
		<clipPath id="SVGID_2_">
			<use xlink:href="#SVGID_1_"  style="overflow:visible;"/>
		</clipPath>
		<path class="st2" d="M969.4,1932.1h122.7v-1338H969.4V1932.1z"/>
	</g>
</g>
<g id="patch_4">
	<g>
		<defs>
			<rect id="SVGID_3_" x="938.7" y="32.2" width="613.6" height="863.6"/>
		</defs>
		<clipPath id="SVGID_4_">
			<use xlink:href="#SVGID_3_"  style="overflow:visible;"/>
		</clipPath>
		<path class="st3" d="M1276.2,1932.1h122.7V563.6h-122.7V1932.1z"/>
	</g>
</g>
<g id="patch_5">
	<g>
		<defs>
			<rect id="SVGID_5_" x="938.7" y="32.2" width="613.6" height="863.6"/>
		</defs>
		<clipPath id="SVGID_6_">
			<use xlink:href="#SVGID_5_"  style="overflow:visible;"/>
		</clipPath>
		<path class="st4" d="M1092.1,1932.1h122.7V235.5h-122.7V1932.1z"/>
	</g>
</g>
<g id="patch_6">
	<g>
		<defs>
			<rect id="SVGID_7_" x="938.7" y="32.2" width="613.6" height="863.6"/>
		</defs>
		<clipPath id="SVGID_8_">
			<use xlink:href="#SVGID_7_"  style="overflow:visible;"/>
		</clipPath>
		<path class="st5" d="M1398.9,1932.1h122.7V205h-122.7V1932.1z"/>
	</g>
</g>
<g id="line2d_1">
	<g>
		<defs>
			<rect id="SVGID_9_" x="938.7" y="32.2" width="613.6" height="863.6"/>
		</defs>
		<clipPath id="SVGID_10_">
			<use xlink:href="#SVGID_9_"  style="overflow:visible;"/>
		</clipPath>
		<path class="st6" d="M1030.8,662.7V515.6"/>
	</g>
</g>
<g id="line2d_2">
	<g>
		<defs>
			<rect id="SVGID_11_" x="938.7" y="32.2" width="613.6" height="863.6"/>
		</defs>
		<clipPath id="SVGID_12_">
			<use xlink:href="#SVGID_11_"  style="overflow:visible;"/>
		</clipPath>
		<path class="st7" d="M1337.6,631.9v-134"/>
	</g>
</g>
<g id="line2d_3">
	<g>
		<defs>
			<rect id="SVGID_13_" x="938.7" y="32.2" width="613.6" height="863.6"/>
		</defs>
		<clipPath id="SVGID_14_">
			<use xlink:href="#SVGID_13_"  style="overflow:visible;"/>
		</clipPath>
		<path class="st8" d="M1153.5,357.8V111.4"/>
	</g>
</g>
<g id="line2d_4">
	<g>
		<defs>
			<rect id="SVGID_15_" x="938.7" y="32.2" width="613.6" height="863.6"/>
		</defs>
		<clipPath id="SVGID_16_">
			<use xlink:href="#SVGID_15_"  style="overflow:visible;"/>
		</clipPath>
		<path class="st9" d="M1460.3,316V99.2"/>
	</g>
</g>
<g id="patch_7">
	<path class="st10" d="M938.7,895.8V32.2"/>
</g>
<g id="patch_8">
	<path class="st10" d="M938.7,895.8h613.6"/>
</g>
<g id="legend_1">
	<g id="patch_9">
		<path class="st11" d="M946.6,77.5h78V50.2h-78V77.5z"/>
	</g>
	<g id="text_12">
		<g transform="translate(262.504688 142.030237)scale(0.3 -0.3)">
			<g>
				<path id="ArialMT-43" class="st1" d="M2720.6,247.6l12.3-3.1c-2.6-10.1-7.2-17.8-13.9-23.1s-14.9-8-24.6-8
					c-10,0-18.2,2-24.5,6.1c-6.3,4.1-11.1,10-14.3,17.8s-4.9,16.1-4.9,24.9c0,9.7,1.8,18.1,5.5,25.4c3.7,7.2,9,12.7,15.8,16.4
					c6.8,3.8,14.4,5.6,22.6,5.6c9.3,0,17.1-2.4,23.5-7.1c6.4-4.7,10.8-11.4,13.3-20l-12.1-2.9c-2.2,6.8-5.3,11.7-9.4,14.8
					c-4.1,3.1-9.3,4.7-15.5,4.7c-7.2,0-13.1-1.7-17.9-5.2c-4.8-3.4-8.2-8-10.1-13.8c-1.9-5.8-2.9-11.7-2.9-17.9
					c0-7.9,1.2-14.8,3.5-20.7c2.3-5.9,5.9-10.3,10.7-13.2c4.9-2.9,10.1-4.4,15.8-4.4c6.9,0,12.7,2,17.5,6
					C2715.7,233.8,2718.9,239.7,2720.6,247.6z"/>
			</g>
			<g>
				<path id="ArialMT-4f" class="st1" d="M2744.3,260.3c0,15.5,4.1,27.5,12.4,36.3c8.3,8.7,19,13.1,32.1,13.1
					c8.6,0,16.3-2.1,23.2-6.2c6.9-4.1,12.1-9.8,15.8-17.2c3.6-7.3,5.4-15.7,5.4-25c0-9.4-1.9-17.9-5.7-25.3
					c-3.8-7.4-9.2-13.1-16.2-16.9c-7-3.8-14.5-5.7-22.6-5.7c-8.8,0-16.6,2.1-23.5,6.3c-6.9,4.2-12.1,10-15.7,17.3
					C2746.1,244.4,2744.3,252.1,2744.3,260.3z M2757,260.1c0-11.2,3-20,9-26.5c6-6.4,13.6-9.7,22.7-9.7c9.3,0,16.9,3.3,22.9,9.8
					c6,6.5,9,15.8,9,27.7c0,7.6-1.3,14.2-3.8,19.8c-2.6,5.6-6.3,10-11.3,13.1c-4.9,3.1-10.5,4.7-16.6,4.7c-8.7,0-16.2-3-22.5-9
					C2760.2,284.1,2757,274.1,2757,260.1z"/>
			</g>
		</g>
	</g>
	<g id="patch_10">
		<path class="st12" d="M946.6,132.7h78v-27.3h-78V132.7z"/>
	</g>
	<g id="text_13">
		<g transform="translate(262.504688 184.466175)scale(0.3 -0.3)">
			<g>
				<path id="ArialMT-43_1_" class="st1" d="M2720.6,205.1l12.3-3.1c-2.6-10.1-7.2-17.8-13.9-23.1s-14.9-8-24.6-8
					c-10,0-18.2,2-24.5,6.1c-6.3,4.1-11.1,10-14.3,17.8s-4.9,16.1-4.9,24.9c0,9.7,1.8,18.1,5.5,25.4c3.7,7.2,9,12.7,15.8,16.4
					c6.8,3.8,14.4,5.6,22.6,5.6c9.3,0,17.1-2.4,23.5-7.1c6.4-4.7,10.8-11.4,13.3-20l-12.1-2.9c-2.2,6.8-5.3,11.7-9.4,14.8
					c-4.1,3.1-9.3,4.7-15.5,4.7c-7.2,0-13.1-1.7-17.9-5.2c-4.8-3.4-8.2-8-10.1-13.8c-1.9-5.8-2.9-11.7-2.9-17.9
					c0-7.9,1.2-14.8,3.5-20.7c2.3-5.9,5.9-10.3,10.7-13.2c4.9-2.9,10.1-4.4,15.8-4.4c6.9,0,12.7,2,17.5,6
					C2715.7,191.4,2718.9,197.3,2720.6,205.1z"/>
			</g>
			<g>
				<path id="ArialMT-44" class="st1" d="M2748.1,172.5v93.1h32.1c7.2,0,12.8-0.4,16.6-1.3c5.3-1.2,9.9-3.5,13.6-6.7
					c4.9-4.2,8.6-9.5,11-15.9c2.4-6.4,3.7-13.8,3.7-22.1c0-7.1-0.8-13.3-2.5-18.8c-1.6-5.5-3.8-10-6.3-13.6
					c-2.6-3.6-5.4-6.4-8.5-8.4c-3.1-2-6.8-3.6-11.1-4.7c-4.3-1.1-9.3-1.6-15-1.6H2748.1z M2760.4,183.5h19.9
					c6.1,0,10.9,0.6,14.4,1.7c3.5,1.1,6.3,2.7,8.3,4.8c2.9,2.9,5.2,6.8,6.8,11.8s2.4,10.9,2.4,17.9c0,9.7-1.6,17.2-4.8,22.4
					s-7.1,8.7-11.6,10.5c-3.3,1.3-8.6,1.9-15.9,1.9h-19.6V183.5z"/>
			</g>
		</g>
	</g>
</g>
<path class="st0" d="M150,900h613.6V36.4H150V900z"/>
<g id="matplotlib.axis_3">
	<g id="xtick_3">
		<g id="text_14">
			<g transform="translate(1011.277415 994.85605)scale(0.4 -0.4)">
				<g>
					<path id="ArialMT-43_2_" class="st1" d="M-1781.2,138.8l12.3-3.1c-2.6-10.1-7.2-17.8-13.9-23.1c-6.7-5.3-14.9-8-24.6-8
						c-10,0-18.2,2-24.5,6.1c-6.3,4.1-11.1,10-14.3,17.8c-3.3,7.7-4.9,16.1-4.9,24.9c0,9.7,1.8,18.1,5.5,25.3
						c3.7,7.2,9,12.7,15.8,16.4c6.8,3.8,14.4,5.6,22.6,5.6c9.3,0,17.1-2.4,23.5-7.1c6.4-4.7,10.8-11.4,13.3-20l-12.1-2.9
						c-2.2,6.8-5.3,11.7-9.4,14.8c-4.1,3.1-9.3,4.7-15.5,4.7c-7.2,0-13.1-1.7-17.9-5.2c-4.8-3.4-8.2-8-10.1-13.8
						c-1.9-5.8-2.9-11.7-2.9-17.9c0-7.9,1.2-14.8,3.5-20.7c2.3-5.9,5.9-10.3,10.7-13.2c4.9-2.9,10.1-4.4,15.8-4.4
						c6.9,0,12.7,2,17.5,6C-1786.1,125.1-1782.9,131-1781.2,138.8z"/>
				</g>
				<g>
					<path id="ArialMT-4f_1_" class="st1" d="M-1757.5,151.5c0,15.5,4.1,27.5,12.4,36.3c8.3,8.7,19,13.1,32.1,13.1
						c8.6,0,16.3-2.1,23.2-6.2c6.9-4.1,12.1-9.8,15.8-17.2c3.6-7.3,5.4-15.7,5.4-25c0-9.4-1.9-17.9-5.7-25.3
						c-3.8-7.4-9.2-13.1-16.2-16.9c-7-3.8-14.5-5.7-22.6-5.7c-8.8,0-16.6,2.1-23.5,6.3c-6.9,4.2-12.1,10-15.7,17.3
						C-1755.7,135.6-1757.5,143.3-1757.5,151.5z M-1744.8,151.3c0-11.2,3-20,9-26.5c6-6.4,13.6-9.7,22.7-9.7
						c9.3,0,16.9,3.3,22.9,9.8c6,6.5,9,15.8,9,27.7c0,7.6-1.3,14.2-3.8,19.8c-2.6,5.6-6.3,10-11.3,13.1c-4.9,3.1-10.5,4.7-16.6,4.7
						c-8.7,0-16.2-3-22.5-9C-1741.6,175.3-1744.8,165.3-1744.8,151.3z"/>
				</g>
			</g>
		</g>
	</g>
	<g id="xtick_4">
		<g id="text_15">
			<g transform="translate(1319.208097 994.85605)scale(0.4 -0.4)">
				<g>
					<path id="ArialMT-43_3_" class="st1" d="M-1550.3,138.8l12.3-3.1c-2.6-10.1-7.2-17.8-13.9-23.1c-6.7-5.3-14.9-8-24.6-8
						c-10,0-18.2,2-24.5,6.1c-6.3,4.1-11.1,10-14.3,17.8s-4.9,16.1-4.9,24.9c0,9.7,1.8,18.1,5.5,25.3c3.7,7.2,9,12.7,15.8,16.4
						c6.8,3.8,14.4,5.6,22.6,5.6c9.3,0,17.1-2.4,23.5-7.1c6.4-4.7,10.8-11.4,13.3-20l-12.1-2.9c-2.2,6.8-5.3,11.7-9.4,14.8
						c-4.1,3.1-9.3,4.7-15.5,4.7c-7.2,0-13.1-1.7-17.9-5.2c-4.8-3.4-8.2-8-10.1-13.8c-1.9-5.8-2.9-11.7-2.9-17.9
						c0-7.9,1.2-14.8,3.5-20.7c2.3-5.9,5.9-10.3,10.7-13.2c4.9-2.9,10.1-4.4,15.8-4.4c6.9,0,12.7,2,17.5,6
						C-1555.2,125.1-1551.9,131-1550.3,138.8z"/>
				</g>
				<g>
					<path id="ArialMT-44_1_" class="st1" d="M-1522.8,106.2v93.1h32.1c7.2,0,12.8-0.4,16.6-1.3c5.3-1.2,9.9-3.5,13.6-6.7
						c4.9-4.2,8.6-9.5,11-15.9c2.4-6.4,3.7-13.8,3.7-22.1c0-7.1-0.8-13.3-2.5-18.8c-1.6-5.5-3.8-10-6.3-13.6
						c-2.6-3.6-5.4-6.4-8.5-8.4c-3.1-2-6.8-3.6-11.1-4.7c-4.3-1.1-9.3-1.6-15-1.6H-1522.8z M-1510.5,117.2h19.9
						c6.1,0,10.9,0.6,14.4,1.7s6.3,2.7,8.3,4.8c2.9,2.9,5.2,6.8,6.8,11.8s2.4,10.9,2.4,17.9c0,9.7-1.6,17.2-4.8,22.4
						c-3.2,5.2-7.1,8.7-11.6,10.5c-3.3,1.3-8.6,1.9-15.9,1.9h-19.6V117.2z"/>
				</g>
			</g>
		</g>
	</g>
</g>
<g id="ytick_7">
	<g id="text_16">
		<g transform="translate(810.918324 894.774336)scale(0.4 -0.4)">
			<g>
				<path id="ArialMT-2212" class="st1" d="M-1791.8,174.1h-47.3v8.2h47.3V174.1z"/>
			</g>
			<g>
				<path id="ArialMT-35" class="st1" d="M-1782.1,161.7l9.2,0.8c0.7-4.5,2.3-7.9,4.8-10.1c2.5-2.3,5.5-3.4,9-3.4
					c4.2,0,7.8,1.6,10.7,4.8c2.9,3.2,4.4,7.4,4.4,12.7c0,5-1.4,9-4.2,11.9c-2.8,2.9-6.5,4.4-11.1,4.4c-2.8,0-5.4-0.6-7.7-1.9
					c-2.3-1.3-4.1-2.9-5.4-5l-8.2,1.1l6.9,36.8h35.6v-8.4h-28.6l-3.8-19.2c4.3,3,8.8,4.5,13.5,4.5c6.2,0,11.5-2.2,15.8-6.5
					c4.3-4.3,6.5-9.9,6.5-16.7c0-6.5-1.9-12.1-5.7-16.8c-4.6-5.8-10.9-8.7-18.8-8.7c-6.5,0-11.8,1.8-16,5.5
					C-1779.2,150.8-1781.5,155.7-1782.1,161.7z"/>
			</g>
			<g>
				<path id="ArialMT-30_13_" class="st1" d="M-1726.5,178.2c0,8.5,0.9,15.3,2.6,20.4c1.7,5.2,4.3,9.1,7.8,11.9
					c3.4,2.8,7.8,4.2,13,4.2c3.8,0,7.2-0.8,10.1-2.3c2.9-1.5,5.3-3.8,7.2-6.7c1.9-2.9,3.4-6.5,4.5-10.6c1.1-4.2,1.6-9.8,1.6-16.9
					c0-8.4-0.9-15.2-2.6-20.3c-1.7-5.2-4.3-9.1-7.7-12c-3.4-2.8-7.8-4.2-13-4.2c-6.9,0-12.3,2.5-16.2,7.4
					C-1724.1,155.1-1726.5,164.8-1726.5,178.2z M-1717.5,178.2c0-11.8,1.4-19.6,4.1-23.5c2.8-3.9,6.1-5.8,10.2-5.8
					c4,0,7.4,2,10.2,5.9s4.1,11.7,4.1,23.4c0,11.8-1.4,19.6-4.1,23.5c-2.8,3.9-6.2,5.8-10.3,5.8c-4,0-7.3-1.7-9.7-5.1
					C-1716,198-1717.5,190-1717.5,178.2z"/>
			</g>
		</g>
	</g>
</g>
<g id="ytick_8">
	<g id="text_17">
		<g transform="translate(856.524574 737.817472)scale(0.4 -0.4)">
			<g>
				<path id="ArialMT-30_14_" class="st1" d="M-1840.5,178.2c0,8.5,0.9,15.3,2.6,20.4c1.7,5.2,4.3,9.1,7.8,11.9
					c3.4,2.8,7.8,4.2,13,4.2c3.8,0,7.2-0.8,10.1-2.3c2.9-1.5,5.3-3.8,7.2-6.7c1.9-2.9,3.4-6.5,4.5-10.6c1.1-4.2,1.6-9.8,1.6-16.9
					c0-8.4-0.9-15.2-2.6-20.3c-1.7-5.2-4.3-9.1-7.7-12c-3.4-2.8-7.8-4.2-13-4.2c-6.9,0-12.3,2.5-16.2,7.4
					C-1838.2,155.1-1840.5,164.8-1840.5,178.2z M-1831.5,178.2c0-11.8,1.4-19.6,4.1-23.5c2.8-3.9,6.1-5.8,10.2-5.8
					c4,0,7.4,2,10.2,5.9s4.1,11.7,4.1,23.4c0,11.8-1.4,19.6-4.1,23.5c-2.8,3.9-6.2,5.8-10.3,5.8c-4,0-7.3-1.7-9.7-5.1
					C-1830,198-1831.5,190-1831.5,178.2z"/>
			</g>
		</g>
	</g>
</g>
<g id="ytick_9">
	<g id="text_18">
		<g transform="translate(834.280824 580.860607)scale(0.4 -0.4)">
			<g>
				<path id="ArialMT-35_1_" class="st1" d="M-1840.5,161.7l9.2,0.8c0.7-4.5,2.3-7.9,4.8-10.1c2.5-2.3,5.5-3.4,9-3.4
					c4.2,0,7.8,1.6,10.7,4.8c2.9,3.2,4.4,7.4,4.4,12.7c0,5-1.4,9-4.2,11.9c-2.8,2.9-6.5,4.4-11.1,4.4c-2.8,0-5.4-0.6-7.7-1.9
					c-2.3-1.3-4.1-2.9-5.4-5l-8.2,1.1l6.9,36.8h35.6v-8.4h-28.6l-3.8-19.2c4.3,3,8.8,4.5,13.5,4.5c6.2,0,11.5-2.2,15.8-6.5
					c4.3-4.3,6.5-9.9,6.5-16.7c0-6.5-1.9-12.1-5.7-16.8c-4.6-5.8-10.9-8.7-18.8-8.7c-6.5,0-11.8,1.8-16,5.5
					C-1837.6,150.8-1839.9,155.7-1840.5,161.7z"/>
			</g>
			<g>
				<path id="ArialMT-30_15_" class="st1" d="M-1784.9,178.2c0,8.5,0.9,15.3,2.6,20.4c1.7,5.2,4.3,9.1,7.8,11.9
					c3.4,2.8,7.8,4.2,13,4.2c3.8,0,7.2-0.8,10.1-2.3c2.9-1.5,5.3-3.8,7.2-6.7c1.9-2.9,3.4-6.5,4.5-10.6c1.1-4.2,1.6-9.8,1.6-16.9
					c0-8.4-0.9-15.2-2.6-20.3c-1.7-5.2-4.3-9.1-7.7-12c-3.4-2.8-7.8-4.2-13-4.2c-6.9,0-12.3,2.5-16.2,7.4
					C-1782.5,155.1-1784.9,164.8-1784.9,178.2z M-1775.9,178.2c0-11.8,1.4-19.6,4.1-23.5c2.8-3.9,6.1-5.8,10.2-5.8
					c4,0,7.4,2,10.2,5.9s4.1,11.7,4.1,23.4c0,11.8-1.4,19.6-4.1,23.5c-2.8,3.9-6.2,5.8-10.3,5.8c-4,0-7.3-1.7-9.7-5.1
					C-1774.4,198-1775.9,190-1775.9,178.2z"/>
			</g>
		</g>
	</g>
</g>
<g id="ytick_10">
	<g id="text_19">
		<g transform="translate(812.037074 423.903743)scale(0.4 -0.4)">
			<g>
				<path id="ArialMT-31_3_" class="st1" d="M-1807.4,142.9h-8.8v56c-2.1-2-4.9-4-8.3-6c-3.4-2-6.5-3.5-9.2-4.5v8.5
					c4.9,2.3,9.2,5.1,12.9,8.4c3.7,3.3,6.3,6.5,7.8,9.6h5.7V142.9z"/>
			</g>
			<g>
				<path id="ArialMT-30_16_" class="st1" d="M-1784.9,178.2c0,8.5,0.9,15.3,2.6,20.4c1.7,5.2,4.3,9.1,7.8,11.9
					c3.4,2.8,7.8,4.2,13,4.2c3.8,0,7.2-0.8,10.1-2.3c2.9-1.5,5.3-3.8,7.2-6.7c1.9-2.9,3.4-6.5,4.5-10.6c1.1-4.2,1.6-9.8,1.6-16.9
					c0-8.4-0.9-15.2-2.6-20.3c-1.7-5.2-4.3-9.1-7.7-12c-3.4-2.8-7.8-4.2-13-4.2c-6.9,0-12.3,2.5-16.2,7.4
					C-1782.5,155.1-1784.9,164.8-1784.9,178.2z M-1775.9,178.2c0-11.8,1.4-19.6,4.1-23.5c2.8-3.9,6.1-5.8,10.2-5.8
					c4,0,7.4,2,10.2,5.9s4.1,11.7,4.1,23.4c0,11.8-1.4,19.6-4.1,23.5c-2.8,3.9-6.2,5.8-10.3,5.8c-4,0-7.3-1.7-9.7-5.1
					C-1774.4,198-1775.9,190-1775.9,178.2z"/>
			</g>
			<g>
				<path id="ArialMT-30_17_" class="st1" d="M-1729.3,178.2c0,8.5,0.9,15.3,2.6,20.4c1.7,5.2,4.3,9.1,7.8,11.9
					c3.4,2.8,7.8,4.2,13,4.2c3.8,0,7.2-0.8,10.1-2.3c2.9-1.5,5.3-3.8,7.2-6.7c1.9-2.9,3.4-6.5,4.5-10.6c1.1-4.2,1.6-9.8,1.6-16.9
					c0-8.4-0.9-15.2-2.6-20.3c-1.7-5.2-4.3-9.1-7.7-12c-3.4-2.8-7.8-4.2-13-4.2c-6.9,0-12.3,2.5-16.2,7.4
					C-1726.9,155.1-1729.3,164.8-1729.3,178.2z M-1720.2,178.2c0-11.8,1.4-19.6,4.1-23.5c2.8-3.9,6.1-5.8,10.2-5.8
					c4,0,7.4,2,10.2,5.9s4.1,11.7,4.1,23.4c0,11.8-1.4,19.6-4.1,23.5c-2.8,3.9-6.2,5.8-10.3,5.8c-4,0-7.3-1.7-9.7-5.1
					C-1718.7,198-1720.2,190-1720.2,178.2z"/>
			</g>
		</g>
	</g>
</g>
<g id="ytick_11">
	<g id="text_20">
		<g transform="translate(812.037074 266.946879)scale(0.4 -0.4)">
			<g>
				<path id="ArialMT-31_4_" class="st1" d="M-1807.4,142.9h-8.8v56c-2.1-2-4.9-4-8.3-6c-3.4-2-6.5-3.5-9.2-4.5v8.5
					c4.9,2.3,9.2,5.1,12.9,8.4c3.7,3.3,6.3,6.5,7.8,9.6h5.7V142.9z"/>
			</g>
			<g>
				<path id="ArialMT-35_2_" class="st1" d="M-1784.9,161.7l9.2,0.8c0.7-4.5,2.3-7.9,4.8-10.1c2.5-2.3,5.5-3.4,9-3.4
					c4.2,0,7.8,1.6,10.7,4.8c2.9,3.2,4.4,7.4,4.4,12.7c0,5-1.4,9-4.2,11.9c-2.8,2.9-6.5,4.4-11.1,4.4c-2.8,0-5.4-0.6-7.7-1.9
					c-2.3-1.3-4.1-2.9-5.4-5l-8.2,1.1l6.9,36.8h35.6v-8.4h-28.6l-3.8-19.2c4.3,3,8.8,4.5,13.5,4.5c6.2,0,11.5-2.2,15.8-6.5
					c4.3-4.3,6.5-9.9,6.5-16.7c0-6.5-1.9-12.1-5.7-16.8c-4.6-5.8-10.9-8.7-18.8-8.7c-6.5,0-11.8,1.8-16,5.5
					C-1782,150.8-1784.3,155.7-1784.9,161.7z"/>
			</g>
			<g>
				<path id="ArialMT-30_18_" class="st1" d="M-1729.3,178.2c0,8.5,0.9,15.3,2.6,20.4c1.7,5.2,4.3,9.1,7.8,11.9
					c3.4,2.8,7.8,4.2,13,4.2c3.8,0,7.2-0.8,10.1-2.3c2.9-1.5,5.3-3.8,7.2-6.7c1.9-2.9,3.4-6.5,4.5-10.6c1.1-4.2,1.6-9.8,1.6-16.9
					c0-8.4-0.9-15.2-2.6-20.3c-1.7-5.2-4.3-9.1-7.7-12c-3.4-2.8-7.8-4.2-13-4.2c-6.9,0-12.3,2.5-16.2,7.4
					C-1726.9,155.1-1729.3,164.8-1729.3,178.2z M-1720.2,178.2c0-11.8,1.4-19.6,4.1-23.5c2.8-3.9,6.1-5.8,10.2-5.8
					c4,0,7.4,2,10.2,5.9s4.1,11.7,4.1,23.4c0,11.8-1.4,19.6-4.1,23.5c-2.8,3.9-6.2,5.8-10.3,5.8c-4,0-7.3-1.7-9.7-5.1
					C-1718.7,198-1720.2,190-1720.2,178.2z"/>
			</g>
		</g>
	</g>
</g>
<g id="ytick_12">
	<g id="text_21">
		<g transform="translate(812.037074 109.990015)scale(0.4 -0.4)">
			<g>
				<path id="ArialMT-32" class="st1" d="M-1794.3,151.4v-8.5h-47.3c-0.1,2.1,0.3,4.2,1,6.1c1.2,3.2,3.1,6.4,5.8,9.5
					c2.7,3.1,6.5,6.7,11.5,10.8c7.8,6.4,13,11.4,15.8,15.2c2.7,3.7,4.1,7.3,4.1,10.6c0,3.5-1.2,6.4-3.8,8.8
					c-2.5,2.4-5.7,3.6-9.7,3.6c-4.2,0-7.6-1.3-10.2-3.8c-2.5-2.5-3.8-6-3.9-10.5l-9,0.9c0.6,6.7,2.9,11.9,7,15.4
					c4,3.5,9.5,5.3,16.3,5.3c6.9,0,12.3-1.9,16.3-5.7c4-3.8,6-8.5,6-14.2c0-2.9-0.6-5.7-1.8-8.5c-1.2-2.8-3.1-5.7-5.8-8.7
					s-7.2-7.3-13.5-12.6c-5.3-4.4-8.7-7.4-10.2-9c-1.5-1.6-2.7-3.2-3.7-4.8H-1794.3z"/>
			</g>
			<g>
				<path id="ArialMT-30_19_" class="st1" d="M-1784.9,178.2c0,8.5,0.9,15.3,2.6,20.4c1.7,5.2,4.3,9.1,7.8,11.9
					c3.4,2.8,7.8,4.2,13,4.2c3.8,0,7.2-0.8,10.1-2.3c2.9-1.5,5.3-3.8,7.2-6.7c1.9-2.9,3.4-6.5,4.5-10.6c1.1-4.2,1.6-9.8,1.6-16.9
					c0-8.4-0.9-15.2-2.6-20.3c-1.7-5.2-4.3-9.1-7.7-12c-3.4-2.8-7.8-4.2-13-4.2c-6.9,0-12.3,2.5-16.2,7.4
					C-1782.5,155.1-1784.9,164.8-1784.9,178.2z M-1775.9,178.2c0-11.8,1.4-19.6,4.1-23.5c2.8-3.9,6.1-5.8,10.2-5.8
					c4,0,7.4,2,10.2,5.9s4.1,11.7,4.1,23.4c0,11.8-1.4,19.6-4.1,23.5c-2.8,3.9-6.2,5.8-10.3,5.8c-4,0-7.3-1.7-9.7-5.1
					C-1774.4,198-1775.9,190-1775.9,178.2z"/>
			</g>
			<g>
				<path id="ArialMT-30_20_" class="st1" d="M-1729.3,178.2c0,8.5,0.9,15.3,2.6,20.4c1.7,5.2,4.3,9.1,7.8,11.9
					c3.4,2.8,7.8,4.2,13,4.2c3.8,0,7.2-0.8,10.1-2.3c2.9-1.5,5.3-3.8,7.2-6.7c1.9-2.9,3.4-6.5,4.5-10.6c1.1-4.2,1.6-9.8,1.6-16.9
					c0-8.4-0.9-15.2-2.6-20.3c-1.7-5.2-4.3-9.1-7.7-12c-3.4-2.8-7.8-4.2-13-4.2c-6.9,0-12.3,2.5-16.2,7.4
					C-1726.9,155.1-1729.3,164.8-1729.3,178.2z M-1720.2,178.2c0-11.8,1.4-19.6,4.1-23.5c2.8-3.9,6.1-5.8,10.2-5.8
					c4,0,7.4,2,10.2,5.9s4.1,11.7,4.1,23.4c0,11.8-1.4,19.6-4.1,23.5c-2.8,3.9-6.2,5.8-10.3,5.8c-4,0-7.3-1.7-9.7-5.1
					C-1718.7,198-1720.2,190-1720.2,178.2z"/>
			</g>
		</g>
	</g>
</g>
<g id="patch_12">
	<g>
		<defs>
			<rect id="SVGID_17_" x="150" y="36.4" width="613.6" height="863.6"/>
		</defs>
		<clipPath id="SVGID_18_">
			<use xlink:href="#SVGID_17_"  style="overflow:visible;"/>
		</clipPath>
		<path class="st13" d="M180.7,666.3h245.5V430.1H180.7V666.3z"/>
	</g>
</g>
<g id="patch_13">
	<g>
		<defs>
			<rect id="SVGID_19_" x="150" y="36.4" width="613.6" height="863.6"/>
		</defs>
		<clipPath id="SVGID_20_">
			<use xlink:href="#SVGID_19_"  style="overflow:visible;"/>
		</clipPath>
		<path class="st14" d="M487.5,666.3H733V446H487.5V666.3z"/>
	</g>
</g>
<g id="line2d_5">
	<g>
		<defs>
			<rect id="SVGID_21_" x="150" y="36.4" width="613.6" height="863.6"/>
		</defs>
		<clipPath id="SVGID_22_">
			<use xlink:href="#SVGID_21_"  style="overflow:visible;"/>
		</clipPath>
		<path class="st15" d="M303.4,522.9V336.4"/>
	</g>
</g>
<g id="line2d_6">
	<g>
		<defs>
			<rect id="SVGID_23_" x="150" y="36.4" width="613.6" height="863.6"/>
		</defs>
		<clipPath id="SVGID_24_">
			<use xlink:href="#SVGID_23_"  style="overflow:visible;"/>
		</clipPath>
		<path class="st16" d="M610.2,500.8V386.2"/>
	</g>
</g>
<g id="patch_14">
	<path class="st17" d="M150,900V36.4"/>
</g>
<g id="patch_15">
	<path class="st17" d="M150,900h613.6"/>
</g>
<g id="PathCollection_1">
	<g>
		<defs>
			<rect id="SVGID_25_" x="150" y="36.4" width="613.6" height="863.6"/>
		</defs>
		<clipPath id="SVGID_26_">
			<use xlink:href="#SVGID_25_"  style="overflow:visible;"/>
		</clipPath>
		<g class="st18">
			<g>
				<path id="C0_0_01d2caef69" class="st19" d="M303.4,865.7c1.3,0,2.6-0.5,3.5-1.5c0.9-0.9,1.5-2.2,1.5-3.5c0-1.3-0.5-2.6-1.5-3.5
					c-0.9-0.9-2.2-1.5-3.5-1.5c-1.3,0-2.6,0.5-3.5,1.5c-0.9,0.9-1.5,2.2-1.5,3.5c0,1.3,0.5,2.6,1.5,3.5
					C300.8,865.2,302.1,865.7,303.4,865.7z"/>
			</g>
		</g>
	</g>
	<g>
		<defs>
			<rect id="SVGID_27_" x="150" y="36.4" width="613.6" height="863.6"/>
		</defs>
		<clipPath id="SVGID_28_">
			<use xlink:href="#SVGID_27_"  style="overflow:visible;"/>
		</clipPath>
		<g class="st20">
			<g>
				<path id="C0_0_01d2caef69_1_" class="st19" d="M303.4,716.1c1.3,0,2.6-0.5,3.5-1.5c0.9-0.9,1.5-2.2,1.5-3.5
					c0-1.3-0.5-2.6-1.5-3.5c-0.9-0.9-2.2-1.5-3.5-1.5c-1.3,0-2.6,0.5-3.5,1.5c-0.9,0.9-1.5,2.2-1.5,3.5c0,1.3,0.5,2.6,1.5,3.5
					C300.8,715.6,302.1,716.1,303.4,716.1z"/>
			</g>
		</g>
	</g>
	<g>
		<defs>
			<rect id="SVGID_29_" x="150" y="36.4" width="613.6" height="863.6"/>
		</defs>
		<clipPath id="SVGID_30_">
			<use xlink:href="#SVGID_29_"  style="overflow:visible;"/>
		</clipPath>
		<g class="st21">
			<g>
				<path id="C0_0_01d2caef69_2_" class="st19" d="M303.4,603.5c1.3,0,2.6-0.5,3.5-1.5c0.9-0.9,1.5-2.2,1.5-3.5
					c0-1.3-0.5-2.6-1.5-3.5c-0.9-0.9-2.2-1.5-3.5-1.5c-1.3,0-2.6,0.5-3.5,1.5c-0.9,0.9-1.5,2.2-1.5,3.5c0,1.3,0.5,2.6,1.5,3.5
					C300.8,603,302.1,603.5,303.4,603.5z"/>
			</g>
		</g>
	</g>
	<g>
		<defs>
			<rect id="SVGID_31_" x="150" y="36.4" width="613.6" height="863.6"/>
		</defs>
		<clipPath id="SVGID_32_">
			<use xlink:href="#SVGID_31_"  style="overflow:visible;"/>
		</clipPath>
		<g class="st22">
			<g>
				<path id="C0_0_01d2caef69_3_" class="st19" d="M285.5,585c1.3,0,2.6-0.5,3.5-1.5c0.9-0.9,1.5-2.2,1.5-3.5c0-1.3-0.5-2.6-1.5-3.5
					c-0.9-0.9-2.2-1.5-3.5-1.5c-1.3,0-2.6,0.5-3.5,1.5c-0.9,0.9-1.5,2.2-1.5,3.5c0,1.3,0.5,2.6,1.5,3.5
					C282.9,584.4,284.2,585,285.5,585z"/>
			</g>
		</g>
	</g>
	<g>
		<defs>
			<rect id="SVGID_33_" x="150" y="36.4" width="613.6" height="863.6"/>
		</defs>
		<clipPath id="SVGID_34_">
			<use xlink:href="#SVGID_33_"  style="overflow:visible;"/>
		</clipPath>
		<g class="st23">
			<g>
				<path id="C0_0_01d2caef69_4_" class="st19" d="M303.4,555.6c1.3,0,2.6-0.5,3.5-1.5c0.9-0.9,1.5-2.2,1.5-3.5
					c0-1.3-0.5-2.6-1.5-3.5c-0.9-0.9-2.2-1.5-3.5-1.5c-1.3,0-2.6,0.5-3.5,1.5c-0.9,0.9-1.5,2.2-1.5,3.5c0,1.3,0.5,2.6,1.5,3.5
					C300.8,555,302.1,555.6,303.4,555.6z"/>
			</g>
		</g>
	</g>
	<g>
		<defs>
			<rect id="SVGID_35_" x="150" y="36.4" width="613.6" height="863.6"/>
		</defs>
		<clipPath id="SVGID_36_">
			<use xlink:href="#SVGID_35_"  style="overflow:visible;"/>
		</clipPath>
		<g class="st24">
			<g>
				<path id="C0_0_01d2caef69_5_" class="st19" d="M303.4,523.7c1.3,0,2.6-0.5,3.5-1.5c0.9-0.9,1.5-2.2,1.5-3.5
					c0-1.3-0.5-2.6-1.5-3.5c-0.9-0.9-2.2-1.5-3.5-1.5c-1.3,0-2.6,0.5-3.5,1.5c-0.9,0.9-1.5,2.2-1.5,3.5c0,1.3,0.5,2.6,1.5,3.5
					C300.8,523.1,302.1,523.7,303.4,523.7z"/>
			</g>
		</g>
	</g>
	<g>
		<defs>
			<rect id="SVGID_37_" x="150" y="36.4" width="613.6" height="863.6"/>
		</defs>
		<clipPath id="SVGID_38_">
			<use xlink:href="#SVGID_37_"  style="overflow:visible;"/>
		</clipPath>
		<g class="st25">
			<g>
				<path id="C0_0_01d2caef69_6_" class="st19" d="M281.3,512c1.3,0,2.6-0.5,3.5-1.5c0.9-0.9,1.5-2.2,1.5-3.5c0-1.3-0.5-2.6-1.5-3.5
					c-0.9-0.9-2.2-1.5-3.5-1.5c-1.3,0-2.6,0.5-3.5,1.5c-0.9,0.9-1.5,2.2-1.5,3.5c0,1.3,0.5,2.6,1.5,3.5
					C278.7,511.4,279.9,512,281.3,512z"/>
			</g>
		</g>
	</g>
	<g>
		<defs>
			<rect id="SVGID_39_" x="150" y="36.4" width="613.6" height="863.6"/>
		</defs>
		<clipPath id="SVGID_40_">
			<use xlink:href="#SVGID_39_"  style="overflow:visible;"/>
		</clipPath>
		<g class="st26">
			<g>
				<path id="C0_0_01d2caef69_7_" class="st19" d="M310,497.6c1.3,0,2.6-0.5,3.5-1.5c0.9-0.9,1.5-2.2,1.5-3.5c0-1.3-0.5-2.6-1.5-3.5
					c-0.9-0.9-2.2-1.5-3.5-1.5c-1.3,0-2.6,0.5-3.5,1.5c-0.9,0.9-1.5,2.2-1.5,3.5c0,1.3,0.5,2.6,1.5,3.5
					C307.4,497.1,308.7,497.6,310,497.6z"/>
			</g>
		</g>
	</g>
	<g>
		<defs>
			<rect id="SVGID_41_" x="150" y="36.4" width="613.6" height="863.6"/>
		</defs>
		<clipPath id="SVGID_42_">
			<use xlink:href="#SVGID_41_"  style="overflow:visible;"/>
		</clipPath>
		<g class="st27">
			<g>
				<path id="C0_0_01d2caef69_8_" class="st19" d="M291,480.5c1.3,0,2.6-0.5,3.5-1.5c0.9-0.9,1.5-2.2,1.5-3.5c0-1.3-0.5-2.6-1.5-3.5
					c-0.9-0.9-2.2-1.5-3.5-1.5c-1.3,0-2.6,0.5-3.5,1.5c-0.9,0.9-1.5,2.2-1.5,3.5c0,1.3,0.5,2.6,1.5,3.5
					C288.4,480,289.6,480.5,291,480.5z"/>
			</g>
		</g>
	</g>
	<g>
		<defs>
			<rect id="SVGID_43_" x="150" y="36.4" width="613.6" height="863.6"/>
		</defs>
		<clipPath id="SVGID_44_">
			<use xlink:href="#SVGID_43_"  style="overflow:visible;"/>
		</clipPath>
		<g class="st28">
			<g>
				<path id="C0_0_01d2caef69_9_" class="st19" d="M303.4,454.1c1.3,0,2.6-0.5,3.5-1.5c0.9-0.9,1.5-2.2,1.5-3.5
					c0-1.3-0.5-2.6-1.5-3.5c-0.9-0.9-2.2-1.5-3.5-1.5c-1.3,0-2.6,0.5-3.5,1.5c-0.9,0.9-1.5,2.2-1.5,3.5c0,1.3,0.5,2.6,1.5,3.5
					C300.8,453.6,302.1,454.1,303.4,454.1z"/>
			</g>
		</g>
	</g>
	<g>
		<defs>
			<rect id="SVGID_45_" x="150" y="36.4" width="613.6" height="863.6"/>
		</defs>
		<clipPath id="SVGID_46_">
			<use xlink:href="#SVGID_45_"  style="overflow:visible;"/>
		</clipPath>
		<g class="st29">
			<g>
				<path id="C0_0_01d2caef69_10_" class="st19" d="M284.5,436.9c1.3,0,2.6-0.5,3.5-1.5c0.9-0.9,1.5-2.2,1.5-3.5
					c0-1.3-0.5-2.6-1.5-3.5c-0.9-0.9-2.2-1.5-3.5-1.5c-1.3,0-2.6,0.5-3.5,1.5c-0.9,0.9-1.5,2.2-1.5,3.5c0,1.3,0.5,2.6,1.5,3.5
					C281.9,436.4,283.1,436.9,284.5,436.9z"/>
			</g>
		</g>
	</g>
	<g>
		<defs>
			<rect id="SVGID_47_" x="150" y="36.4" width="613.6" height="863.6"/>
		</defs>
		<clipPath id="SVGID_48_">
			<use xlink:href="#SVGID_47_"  style="overflow:visible;"/>
		</clipPath>
		<g class="st30">
			<g>
				<path id="C0_0_01d2caef69_11_" class="st19" d="M304.4,421.1c1.3,0,2.6-0.5,3.5-1.5c0.9-0.9,1.5-2.2,1.5-3.5
					c0-1.3-0.5-2.6-1.5-3.5c-0.9-0.9-2.2-1.5-3.5-1.5c-1.3,0-2.6,0.5-3.5,1.5c-0.9,0.9-1.5,2.2-1.5,3.5c0,1.3,0.5,2.6,1.5,3.5
					C301.8,420.5,303.1,421.1,304.4,421.1z"/>
			</g>
		</g>
	</g>
	<g>
		<defs>
			<rect id="SVGID_49_" x="150" y="36.4" width="613.6" height="863.6"/>
		</defs>
		<clipPath id="SVGID_50_">
			<use xlink:href="#SVGID_49_"  style="overflow:visible;"/>
		</clipPath>
		<g class="st31">
			<g>
				<path id="C0_0_01d2caef69_12_" class="st19" d="M303.4,361.3c1.3,0,2.6-0.5,3.5-1.5c0.9-0.9,1.5-2.2,1.5-3.5
					c0-1.3-0.5-2.6-1.5-3.5c-0.9-0.9-2.2-1.5-3.5-1.5c-1.3,0-2.6,0.5-3.5,1.5c-0.9,0.9-1.5,2.2-1.5,3.5c0,1.3,0.5,2.6,1.5,3.5
					C300.8,360.8,302.1,361.3,303.4,361.3z"/>
			</g>
		</g>
	</g>
	<g>
		<defs>
			<rect id="SVGID_51_" x="150" y="36.4" width="613.6" height="863.6"/>
		</defs>
		<clipPath id="SVGID_52_">
			<use xlink:href="#SVGID_51_"  style="overflow:visible;"/>
		</clipPath>
		<g class="st32">
			<g>
				<path id="C0_0_01d2caef69_13_" class="st19" d="M303.4,318.5c1.3,0,2.6-0.5,3.5-1.5c0.9-0.9,1.5-2.2,1.5-3.5
					c0-1.3-0.5-2.6-1.5-3.5c-0.9-0.9-2.2-1.5-3.5-1.5c-1.3,0-2.6,0.5-3.5,1.5c-0.9,0.9-1.5,2.2-1.5,3.5c0,1.3,0.5,2.6,1.5,3.5
					C300.8,318,302.1,318.5,303.4,318.5z"/>
			</g>
		</g>
	</g>
	<g>
		<defs>
			<rect id="SVGID_53_" x="150" y="36.4" width="613.6" height="863.6"/>
		</defs>
		<clipPath id="SVGID_54_">
			<use xlink:href="#SVGID_53_"  style="overflow:visible;"/>
		</clipPath>
		<g class="st33">
			<g>
				<path id="C0_0_01d2caef69_14_" class="st19" d="M303.4,234.4c1.3,0,2.6-0.5,3.5-1.5c0.9-0.9,1.5-2.2,1.5-3.5s-0.5-2.6-1.5-3.5
					c-0.9-0.9-2.2-1.5-3.5-1.5c-1.3,0-2.6,0.5-3.5,1.5c-0.9,0.9-1.5,2.2-1.5,3.5s0.5,2.6,1.5,3.5
					C300.8,233.9,302.1,234.4,303.4,234.4z"/>
			</g>
		</g>
	</g>
	<g>
		<defs>
			<rect id="SVGID_55_" x="150" y="36.4" width="613.6" height="863.6"/>
		</defs>
		<clipPath id="SVGID_56_">
			<use xlink:href="#SVGID_55_"  style="overflow:visible;"/>
		</clipPath>
		<g class="st34">
			<g>
				<path id="C0_0_01d2caef69_15_" class="st19" d="M303.4,96.8c1.3,0,2.6-0.5,3.5-1.5c0.9-0.9,1.5-2.2,1.5-3.5s-0.5-2.6-1.5-3.5
					c-0.9-0.9-2.2-1.5-3.5-1.5c-1.3,0-2.6,0.5-3.5,1.5c-0.9,0.9-1.5,2.2-1.5,3.5s0.5,2.6,1.5,3.5C300.8,96.3,302.1,96.8,303.4,96.8z
					"/>
			</g>
		</g>
	</g>
	<g>
		<defs>
			<rect id="SVGID_57_" x="150" y="36.4" width="613.6" height="863.6"/>
		</defs>
		<clipPath id="SVGID_58_">
			<use xlink:href="#SVGID_57_"  style="overflow:visible;"/>
		</clipPath>
		<g class="st35">
			<g>
				<path id="C0_0_01d2caef69_16_" class="st19" d="M279.9,88.9c1.3,0,2.6-0.5,3.5-1.5c0.9-0.9,1.5-2.2,1.5-3.5s-0.5-2.6-1.5-3.5
					c-0.9-0.9-2.2-1.5-3.5-1.5c-1.3,0-2.6,0.5-3.5,1.5c-0.9,0.9-1.5,2.2-1.5,3.5s0.5,2.6,1.5,3.5C277.3,88.3,278.6,88.9,279.9,88.9z
					"/>
			</g>
		</g>
	</g>
	<g>
		<defs>
			<rect id="SVGID_59_" x="150" y="36.4" width="613.6" height="863.6"/>
		</defs>
		<clipPath id="SVGID_60_">
			<use xlink:href="#SVGID_59_"  style="overflow:visible;"/>
		</clipPath>
		<g class="st36">
			<g>
				<path id="C0_0_01d2caef69_17_" class="st19" d="M323.1,80.6c1.3,0,2.6-0.5,3.5-1.5c0.9-0.9,1.5-2.2,1.5-3.5s-0.5-2.6-1.5-3.5
					c-0.9-0.9-2.2-1.5-3.5-1.5c-1.3,0-2.6,0.5-3.5,1.5c-0.9,0.9-1.5,2.2-1.5,3.5s0.5,2.6,1.5,3.5C320.5,80.1,321.8,80.6,323.1,80.6z
					"/>
			</g>
		</g>
	</g>
</g>
<g id="PathCollection_2">
	<g>
		<defs>
			<rect id="SVGID_61_" x="150" y="36.4" width="613.6" height="863.6"/>
		</defs>
		<clipPath id="SVGID_62_">
			<use xlink:href="#SVGID_61_"  style="overflow:visible;"/>
		</clipPath>
		<g class="st37">
			<g>
				<path id="C1_0_418fb39ab1" class="st19" d="M610.2,606.8c1.3,0,2.6-0.5,3.5-1.5c0.9-0.9,1.5-2.2,1.5-3.5c0-1.3-0.5-2.6-1.5-3.5
					c-0.9-0.9-2.2-1.5-3.5-1.5c-1.3,0-2.6,0.5-3.5,1.5c-0.9,0.9-1.5,2.2-1.5,3.5c0,1.3,0.5,2.6,1.5,3.5S608.9,606.8,610.2,606.8z"/>
			</g>
		</g>
	</g>
	<g>
		<defs>
			<rect id="SVGID_63_" x="150" y="36.4" width="613.6" height="863.6"/>
		</defs>
		<clipPath id="SVGID_64_">
			<use xlink:href="#SVGID_63_"  style="overflow:visible;"/>
		</clipPath>
		<g class="st38">
			<g>
				<path id="C1_0_418fb39ab1_1_" class="st19" d="M588.5,594.1c1.3,0,2.6-0.5,3.5-1.5c0.9-0.9,1.5-2.2,1.5-3.5
					c0-1.3-0.5-2.6-1.5-3.5c-0.9-0.9-2.2-1.5-3.5-1.5c-1.3,0-2.6,0.5-3.5,1.5c-0.9,0.9-1.5,2.2-1.5,3.5c0,1.3,0.5,2.6,1.5,3.5
					S587.2,594.1,588.5,594.1z"/>
			</g>
		</g>
	</g>
	<g>
		<defs>
			<rect id="SVGID_65_" x="150" y="36.4" width="613.6" height="863.6"/>
		</defs>
		<clipPath id="SVGID_66_">
			<use xlink:href="#SVGID_65_"  style="overflow:visible;"/>
		</clipPath>
		<g class="st39">
			<g>
				<path id="C1_0_418fb39ab1_2_" class="st19" d="M629.9,590.6c1.3,0,2.6-0.5,3.5-1.5c0.9-0.9,1.5-2.2,1.5-3.5
					c0-1.3-0.5-2.6-1.5-3.5c-0.9-0.9-2.2-1.5-3.5-1.5c-1.3,0-2.6,0.5-3.5,1.5c-0.9,0.9-1.5,2.2-1.5,3.5c0,1.3,0.5,2.6,1.5,3.5
					S628.6,590.6,629.9,590.6z"/>
			</g>
		</g>
	</g>
	<g>
		<defs>
			<rect id="SVGID_67_" x="150" y="36.4" width="613.6" height="863.6"/>
		</defs>
		<clipPath id="SVGID_68_">
			<use xlink:href="#SVGID_67_"  style="overflow:visible;"/>
		</clipPath>
		<g class="st40">
			<g>
				<path id="C1_0_418fb39ab1_3_" class="st19" d="M610.2,518.7c1.3,0,2.6-0.5,3.5-1.5c0.9-0.9,1.5-2.2,1.5-3.5
					c0-1.3-0.5-2.6-1.5-3.5c-0.9-0.9-2.2-1.5-3.5-1.5c-1.3,0-2.6,0.5-3.5,1.5c-0.9,0.9-1.5,2.2-1.5,3.5c0,1.3,0.5,2.6,1.5,3.5
					S608.9,518.7,610.2,518.7z"/>
			</g>
		</g>
	</g>
	<g>
		<defs>
			<rect id="SVGID_69_" x="150" y="36.4" width="613.6" height="863.6"/>
		</defs>
		<clipPath id="SVGID_70_">
			<use xlink:href="#SVGID_69_"  style="overflow:visible;"/>
		</clipPath>
		<g class="st41">
			<g>
				<path id="C1_0_418fb39ab1_4_" class="st19" d="M585.7,518.1c1.3,0,2.6-0.5,3.5-1.5c0.9-0.9,1.5-2.2,1.5-3.5
					c0-1.3-0.5-2.6-1.5-3.5c-0.9-0.9-2.2-1.5-3.5-1.5c-1.3,0-2.6,0.5-3.5,1.5c-0.9,0.9-1.5,2.2-1.5,3.5c0,1.3,0.5,2.6,1.5,3.5
					S584.3,518.1,585.7,518.1z"/>
			</g>
		</g>
	</g>
	<g>
		<defs>
			<rect id="SVGID_71_" x="150" y="36.4" width="613.6" height="863.6"/>
		</defs>
		<clipPath id="SVGID_72_">
			<use xlink:href="#SVGID_71_"  style="overflow:visible;"/>
		</clipPath>
		<g class="st42">
			<g>
				<path id="C1_0_418fb39ab1_5_" class="st19" d="M610.2,473.7c1.3,0,2.6-0.5,3.5-1.5c0.9-0.9,1.5-2.2,1.5-3.5
					c0-1.3-0.5-2.6-1.5-3.5c-0.9-0.9-2.2-1.5-3.5-1.5c-1.3,0-2.6,0.5-3.5,1.5c-0.9,0.9-1.5,2.2-1.5,3.5c0,1.3,0.5,2.6,1.5,3.5
					C607.6,473.2,608.9,473.7,610.2,473.7z"/>
			</g>
		</g>
	</g>
	<g>
		<defs>
			<rect id="SVGID_73_" x="150" y="36.4" width="613.6" height="863.6"/>
		</defs>
		<clipPath id="SVGID_74_">
			<use xlink:href="#SVGID_73_"  style="overflow:visible;"/>
		</clipPath>
		<g class="st43">
			<g>
				<path id="C1_0_418fb39ab1_6_" class="st19" d="M585.8,470.9c1.3,0,2.6-0.5,3.5-1.5c0.9-0.9,1.5-2.2,1.5-3.5
					c0-1.3-0.5-2.6-1.5-3.5c-0.9-0.9-2.2-1.5-3.5-1.5c-1.3,0-2.6,0.5-3.5,1.5c-0.9,0.9-1.5,2.2-1.5,3.5c0,1.3,0.5,2.6,1.5,3.5
					C583.2,470.4,584.5,470.9,585.8,470.9z"/>
			</g>
		</g>
	</g>
	<g>
		<defs>
			<rect id="SVGID_75_" x="150" y="36.4" width="613.6" height="863.6"/>
		</defs>
		<clipPath id="SVGID_76_">
			<use xlink:href="#SVGID_75_"  style="overflow:visible;"/>
		</clipPath>
		<g class="st44">
			<g>
				<path id="C1_0_418fb39ab1_7_" class="st19" d="M626.9,453.9c1.3,0,2.6-0.5,3.5-1.5c0.9-0.9,1.5-2.2,1.5-3.5
					c0-1.3-0.5-2.6-1.5-3.5c-0.9-0.9-2.2-1.5-3.5-1.5c-1.3,0-2.6,0.5-3.5,1.5c-0.9,0.9-1.5,2.2-1.5,3.5c0,1.3,0.5,2.6,1.5,3.5
					C624.3,453.4,625.6,453.9,626.9,453.9z"/>
			</g>
		</g>
	</g>
	<g>
		<defs>
			<rect id="SVGID_77_" x="150" y="36.4" width="613.6" height="863.6"/>
		</defs>
		<clipPath id="SVGID_78_">
			<use xlink:href="#SVGID_77_"  style="overflow:visible;"/>
		</clipPath>
		<g class="st45">
			<g>
				<path id="C1_0_418fb39ab1_8_" class="st19" d="M610.2,429.3c1.3,0,2.6-0.5,3.5-1.5c0.9-0.9,1.5-2.2,1.5-3.5
					c0-1.3-0.5-2.6-1.5-3.5c-0.9-0.9-2.2-1.5-3.5-1.5c-1.3,0-2.6,0.5-3.5,1.5c-0.9,0.9-1.5,2.2-1.5,3.5c0,1.3,0.5,2.6,1.5,3.5
					C607.6,428.7,608.9,429.3,610.2,429.3z"/>
			</g>
		</g>
	</g>
	<g>
		<defs>
			<rect id="SVGID_79_" x="150" y="36.4" width="613.6" height="863.6"/>
		</defs>
		<clipPath id="SVGID_80_">
			<use xlink:href="#SVGID_79_"  style="overflow:visible;"/>
		</clipPath>
		<g class="st46">
			<g>
				<path id="C1_0_418fb39ab1_9_" class="st19" d="M594.2,408.7c1.3,0,2.6-0.5,3.5-1.5c0.9-0.9,1.5-2.2,1.5-3.5
					c0-1.3-0.5-2.6-1.5-3.5c-0.9-0.9-2.2-1.5-3.5-1.5c-1.3,0-2.6,0.5-3.5,1.5c-0.9,0.9-1.5,2.2-1.5,3.5c0,1.3,0.5,2.6,1.5,3.5
					C591.6,408.2,592.9,408.7,594.2,408.7z"/>
			</g>
		</g>
	</g>
	<g>
		<defs>
			<rect id="SVGID_81_" x="150" y="36.4" width="613.6" height="863.6"/>
		</defs>
		<clipPath id="SVGID_82_">
			<use xlink:href="#SVGID_81_"  style="overflow:visible;"/>
		</clipPath>
		<g class="st47">
			<g>
				<path id="C1_0_418fb39ab1_10_" class="st19" d="M610.2,367.6c1.3,0,2.6-0.5,3.5-1.5c0.9-0.9,1.5-2.2,1.5-3.5
					c0-1.3-0.5-2.6-1.5-3.5c-0.9-0.9-2.2-1.5-3.5-1.5c-1.3,0-2.6,0.5-3.5,1.5c-0.9,0.9-1.5,2.2-1.5,3.5c0,1.3,0.5,2.6,1.5,3.5
					C607.6,367,608.9,367.6,610.2,367.6z"/>
			</g>
		</g>
	</g>
	<g>
		<defs>
			<rect id="SVGID_83_" x="150" y="36.4" width="613.6" height="863.6"/>
		</defs>
		<clipPath id="SVGID_84_">
			<use xlink:href="#SVGID_83_"  style="overflow:visible;"/>
		</clipPath>
		<g class="st48">
			<g>
				<path id="C1_0_418fb39ab1_11_" class="st19" d="M587.8,356.5c1.3,0,2.6-0.5,3.5-1.5c0.9-0.9,1.5-2.2,1.5-3.5
					c0-1.3-0.5-2.6-1.5-3.5c-0.9-0.9-2.2-1.5-3.5-1.5c-1.3,0-2.6,0.5-3.5,1.5c-0.9,0.9-1.5,2.2-1.5,3.5c0,1.3,0.5,2.6,1.5,3.5
					C585.2,356,586.5,356.5,587.8,356.5z"/>
			</g>
		</g>
	</g>
	<g>
		<defs>
			<rect id="SVGID_85_" x="150" y="36.4" width="613.6" height="863.6"/>
		</defs>
		<clipPath id="SVGID_86_">
			<use xlink:href="#SVGID_85_"  style="overflow:visible;"/>
		</clipPath>
		<g class="st49">
			<g>
				<path id="C1_0_418fb39ab1_12_" class="st19" d="M610.2,313.3c1.3,0,2.6-0.5,3.5-1.5c0.9-0.9,1.5-2.2,1.5-3.5
					c0-1.3-0.5-2.6-1.5-3.5c-0.9-0.9-2.2-1.5-3.5-1.5c-1.3,0-2.6,0.5-3.5,1.5c-0.9,0.9-1.5,2.2-1.5,3.5c0,1.3,0.5,2.6,1.5,3.5
					C607.6,312.7,608.9,313.3,610.2,313.3z"/>
			</g>
		</g>
	</g>
	<g>
		<defs>
			<rect id="SVGID_87_" x="150" y="36.4" width="613.6" height="863.6"/>
		</defs>
		<clipPath id="SVGID_88_">
			<use xlink:href="#SVGID_87_"  style="overflow:visible;"/>
		</clipPath>
		<g class="st50">
			<g>
				<path id="C1_0_418fb39ab1_13_" class="st19" d="M610.2,212.2c1.3,0,2.6-0.5,3.5-1.5c0.9-0.9,1.5-2.2,1.5-3.5s-0.5-2.6-1.5-3.5
					c-0.9-0.9-2.2-1.5-3.5-1.5c-1.3,0-2.6,0.5-3.5,1.5s-1.5,2.2-1.5,3.5s0.5,2.6,1.5,3.5S608.9,212.2,610.2,212.2z"/>
			</g>
		</g>
	</g>
</g>
<g id="text_13_1_">
	<g transform="translate(78.461364 50.146875)scale(0.6 -0.6)">
		<g>
			<path id="ArialMT-41_1_" class="st1" d="M-110.6-36.5l35.7,93.1h13.3l38.1-93.1h-14L-48.4-8.3h-38.9l-10.2-28.2H-110.6z
				 M-83.7,1.7h31.5l-9.7,25.8c-3,7.8-5.2,14.3-6.6,19.3c-1.2-6-2.9-11.9-5-17.8L-83.7,1.7z"/>
		</g>
	</g>
</g>
<g id="text_29_1_">
	<g transform="translate(814.825 50.146875)scale(0.6 -0.6)">
		<g>
			<path id="ArialMT-42_1_" class="st1" d="M-33.4-27.4v93.1H1.5c7.1,0,12.8-0.9,17.1-2.8s7.7-4.8,10.1-8.7c2.4-3.9,3.7-8,3.7-12.3
				c0-4-1.1-7.7-3.2-11.2c-2.2-3.5-5.4-6.3-9.8-8.5c5.6-1.7,9.9-4.5,13-8.5c3-4,4.6-8.7,4.6-14.1c0-4.4-0.9-8.4-2.8-12.2
				c-1.8-3.7-4.1-6.6-6.8-8.7s-6.1-3.6-10.2-4.6c-4.1-1-9.1-1.5-15-1.5H-33.4z M-21.1,26.5H-1c5.5,0,9.4,0.4,11.7,1.1
				c3.1,0.9,5.5,2.5,7.1,4.6c1.6,2.2,2.4,4.9,2.4,8.1c0,3.1-0.7,5.8-2.2,8.1c-1.5,2.4-3.6,4-6.4,4.8c-2.7,0.9-7.5,1.3-14.1,1.3
				h-18.6V26.5z M-21.1-16.5H2.1c4,0,6.8,0.1,8.4,0.4c2.8,0.5,5.2,1.3,7.1,2.5c1.9,1.2,3.5,2.9,4.7,5.2c1.2,2.3,1.8,4.9,1.8,7.8
				c0,3.5-0.9,6.5-2.7,9c-1.8,2.6-4.2,4.4-7.4,5.4c-3.2,1-7.7,1.6-13.6,1.6h-21.5V-16.5z"/>
		</g>
	</g>
</g>
<text transform="matrix(4.489659e-11 -1 1 4.489659e-11 57.0084 742.0399)" class="st51 st52">meaningless - meaningful (RT)</text>
<text transform="matrix(4.489659e-11 -1 1 4.489659e-11 837.096 592.2968)" class="st51 st52">Mean RT (ms)</text>
<g id="patch_7_1_">
	<path class="st10" d="M150,900V36.4"/>
</g>
<g id="patch_8_1_">
	<path class="st10" d="M150,900h613.6"/>
</g>
</svg>
