<?xml version="1.0" encoding="utf-8"?>
<!-- Generator: Adobe Illustrator 24.1.0, SVG Export Plug-In . SVG Version: 6.00 Build 0)  -->
<svg version="1.1" id="Layer_1" xmlns="http://www.w3.org/2000/svg" xmlns:xlink="http://www.w3.org/1999/xlink" x="0px" y="0px"
	 viewBox="0 0 1519.8 997.2" style="enable-background:new 0 0 1519.8 997.2;" xml:space="preserve">
<style type="text/css">
	.st0{fill:#FFFFFF;}
	.st1{fill:#262626;}
	.st2{clip-path:url(#SVGID_2_);fill:none;stroke:#841E5A;stroke-width:6;stroke-linecap:round;stroke-linejoin:round;}
	.st3{clip-path:url(#SVGID_4_);fill:none;stroke:#F06043;stroke-width:6;stroke-linecap:round;stroke-linejoin:round;}
	.st4{fill:none;stroke:#262626;stroke-width:5;stroke-linecap:square;}
	.st5{fill:none;stroke:#841E5A;stroke-width:6;stroke-linecap:round;stroke-linejoin:round;}
	.st6{fill:none;stroke:#F06043;stroke-width:6;stroke-linecap:round;stroke-linejoin:round;}
	.st7{clip-path:url(#SVGID_6_);fill:none;stroke:#841E5A;stroke-width:6;stroke-linecap:round;stroke-linejoin:round;}
	.st8{clip-path:url(#SVGID_8_);fill:none;stroke:#F06043;stroke-width:6;stroke-linecap:round;stroke-linejoin:round;}
	.st9{font-family:'MyriadPro-Regular';}
	.st10{font-size:50px;}
</style>
<g id="patch_2">
	<path class="st0" d="M151.5,898.6h613.6V35H151.5V898.6z"/>
</g>
<g id="xtick_1">
	<g id="text_1">
		<g transform="translate(143.512449 994.85605)scale(0.4 -0.4)">
			<g>
				<path id="ArialMT-30" class="st1" d="M4.2,181.6c0,8.5,0.9,15.3,2.6,20.4c1.7,5.2,4.3,9.1,7.8,11.9c3.4,2.8,7.8,4.2,13,4.2
					c3.8,0,7.2-0.8,10.1-2.3c2.9-1.5,5.3-3.8,7.2-6.7c1.9-2.9,3.4-6.5,4.5-10.6c1.1-4.2,1.6-9.8,1.6-16.9c0-8.4-0.9-15.2-2.6-20.3
					c-1.7-5.2-4.3-9.1-7.7-12c-3.4-2.8-7.8-4.2-13-4.2c-6.9,0-12.3,2.5-16.2,7.4C6.5,158.5,4.2,168.2,4.2,181.6z M13.2,181.6
					c0-11.8,1.4-19.6,4.1-23.5c2.8-3.9,6.1-5.8,10.2-5.8c4,0,7.4,2,10.2,5.9s4.1,11.7,4.1,23.4c0,11.8-1.4,19.6-4.1,23.5
					c-2.8,3.9-6.2,5.8-10.3,5.8c-4,0-7.3-1.7-9.7-5.1C14.7,201.4,13.2,193.4,13.2,181.6z"/>
			</g>
			<g>
				<path id="ArialMT-2e" class="st1" d="M64.7,146.3v10h10v-10H64.7z"/>
			</g>
			<g>
				<path id="ArialMT-33" class="st1" d="M87.6,165.2l8.8,1.2c1-5,2.7-8.6,5.2-10.8c2.4-2.2,5.4-3.3,8.9-3.3c4.1,0,7.6,1.4,10.5,4.3
					c2.9,2.9,4.3,6.4,4.3,10.7c0,4-1.3,7.4-4,10c-2.6,2.6-6,3.9-10.1,3.9c-1.7,0-3.7-0.3-6.2-1l1,7.7c0.6-0.1,1.1-0.1,1.4-0.1
					c3.8,0,7.1,1,10.1,2.9c3,2,4.5,5,4.5,9c0,3.2-1.1,5.9-3.3,8c-2.2,2.1-5,3.2-8.4,3.2c-3.4,0-6.3-1.1-8.5-3.2
					c-2.3-2.1-3.7-5.4-4.4-9.7l-8.8,1.6c1.1,5.9,3.5,10.4,7.3,13.7c3.8,3.2,8.6,4.9,14.2,4.9c3.9,0,7.5-0.8,10.8-2.5
					c3.3-1.7,5.8-4,7.5-6.9c1.8-2.9,2.6-6,2.6-9.2c0-3.1-0.8-5.9-2.5-8.4c-1.7-2.5-4.1-4.6-7.4-6.1c4.2-1,7.5-3,9.9-6.1
					c2.3-3.1,3.5-6.9,3.5-11.5c0-6.2-2.3-11.5-6.8-15.9c-4.6-4.3-10.3-6.5-17.3-6.5c-6.3,0-11.5,1.9-15.7,5.6
					C90.5,154.4,88.2,159.3,87.6,165.2z"/>
			</g>
		</g>
	</g>
</g>
<g id="xtick_2">
	<g id="text_2">
		<g transform="translate(224.360455 994.85605)scale(0.4 -0.4)">
			<g>
				<path id="ArialMT-30_1_" class="st1" d="M4.2,181.6c0,8.5,0.9,15.3,2.6,20.4c1.7,5.2,4.3,9.1,7.8,11.9c3.4,2.8,7.8,4.2,13,4.2
					c3.8,0,7.2-0.8,10.1-2.3c2.9-1.5,5.3-3.8,7.2-6.7c1.9-2.9,3.4-6.5,4.5-10.6c1.1-4.2,1.6-9.8,1.6-16.9c0-8.4-0.9-15.2-2.6-20.3
					c-1.7-5.2-4.3-9.1-7.7-12c-3.4-2.8-7.8-4.2-13-4.2c-6.9,0-12.3,2.5-16.2,7.4C6.5,158.5,4.2,168.2,4.2,181.6z M13.2,181.6
					c0-11.8,1.4-19.6,4.1-23.5c2.8-3.9,6.1-5.8,10.2-5.8c4,0,7.4,2,10.2,5.9s4.1,11.7,4.1,23.4c0,11.8-1.4,19.6-4.1,23.5
					c-2.8,3.9-6.2,5.8-10.3,5.8c-4,0-7.3-1.7-9.7-5.1C14.7,201.4,13.2,193.4,13.2,181.6z"/>
			</g>
			<g>
				<path id="ArialMT-2e_1_" class="st1" d="M64.7,146.3v10h10v-10H64.7z"/>
			</g>
			<g>
				<path id="ArialMT-34" class="st1" d="M115.7,146.3v17.1H84.7v8.1l32.7,46.4h7.2v-46.4h9.7v-8.1h-9.7v-17.1H115.7z M115.7,171.5
					v32.3l-22.4-32.3H115.7z"/>
			</g>
		</g>
	</g>
</g>
<g id="xtick_3">
	<g id="text_3">
		<g transform="translate(305.20846 994.85605)scale(0.4 -0.4)">
			<g>
				<path id="ArialMT-30_2_" class="st1" d="M4.2,181.6c0,8.5,0.9,15.3,2.6,20.4c1.7,5.2,4.3,9.1,7.8,11.9c3.4,2.8,7.8,4.2,13,4.2
					c3.8,0,7.2-0.8,10.1-2.3c2.9-1.5,5.3-3.8,7.2-6.7c1.9-2.9,3.4-6.5,4.5-10.6c1.1-4.2,1.6-9.8,1.6-16.9c0-8.4-0.9-15.2-2.6-20.3
					c-1.7-5.2-4.3-9.1-7.7-12c-3.4-2.8-7.8-4.2-13-4.2c-6.9,0-12.3,2.5-16.2,7.4C6.5,158.5,4.2,168.2,4.2,181.6z M13.2,181.6
					c0-11.8,1.4-19.6,4.1-23.5c2.8-3.9,6.1-5.8,10.2-5.8c4,0,7.4,2,10.2,5.9s4.1,11.7,4.1,23.4c0,11.8-1.4,19.6-4.1,23.5
					c-2.8,3.9-6.2,5.8-10.3,5.8c-4,0-7.3-1.7-9.7-5.1C14.7,201.4,13.2,193.4,13.2,181.6z"/>
			</g>
			<g>
				<path id="ArialMT-2e_2_" class="st1" d="M64.7,146.3v10h10v-10H64.7z"/>
			</g>
			<g>
				<path id="ArialMT-35" class="st1" d="M87.6,165.1l9.2,0.8c0.7-4.5,2.3-7.9,4.8-10.1c2.5-2.3,5.5-3.4,9-3.4
					c4.2,0,7.8,1.6,10.7,4.8c2.9,3.2,4.4,7.4,4.4,12.7c0,5-1.4,9-4.2,11.9c-2.8,2.9-6.5,4.4-11.1,4.4c-2.8,0-5.4-0.6-7.7-1.9
					c-2.3-1.3-4.1-2.9-5.4-5l-8.2,1.1l6.9,36.8h35.6v-8.4h-28.6l-3.8-19.2c4.3,3,8.8,4.5,13.5,4.5c6.2,0,11.5-2.2,15.8-6.5
					c4.3-4.3,6.5-9.9,6.5-16.7c0-6.5-1.9-12.1-5.7-16.8c-4.6-5.8-10.9-8.7-18.8-8.7c-6.5,0-11.8,1.8-16,5.5
					C90.5,154.2,88.1,159,87.6,165.1z"/>
			</g>
		</g>
	</g>
</g>
<g id="xtick_4">
	<g id="text_4">
		<g transform="translate(386.056466 994.85605)scale(0.4 -0.4)">
			<g>
				<path id="ArialMT-30_3_" class="st1" d="M4.2,181.6c0,8.5,0.9,15.3,2.6,20.4c1.7,5.2,4.3,9.1,7.8,11.9c3.4,2.8,7.8,4.2,13,4.2
					c3.8,0,7.2-0.8,10.1-2.3c2.9-1.5,5.3-3.8,7.2-6.7c1.9-2.9,3.4-6.5,4.5-10.6c1.1-4.2,1.6-9.8,1.6-16.9c0-8.4-0.9-15.2-2.6-20.3
					c-1.7-5.2-4.3-9.1-7.7-12c-3.4-2.8-7.8-4.2-13-4.2c-6.9,0-12.3,2.5-16.2,7.4C6.5,158.5,4.2,168.2,4.2,181.6z M13.2,181.6
					c0-11.8,1.4-19.6,4.1-23.5c2.8-3.9,6.1-5.8,10.2-5.8c4,0,7.4,2,10.2,5.9s4.1,11.7,4.1,23.4c0,11.8-1.4,19.6-4.1,23.5
					c-2.8,3.9-6.2,5.8-10.3,5.8c-4,0-7.3-1.7-9.7-5.1C14.7,201.4,13.2,193.4,13.2,181.6z"/>
			</g>
			<g>
				<path id="ArialMT-2e_3_" class="st1" d="M64.7,146.3v10h10v-10H64.7z"/>
			</g>
			<g>
				<path id="ArialMT-36" class="st1" d="M133.1,200.4l-8.7-0.7c-0.8,3.4-1.9,6-3.3,7.5c-2.4,2.5-5.3,3.8-8.8,3.8
					c-2.8,0-5.3-0.8-7.4-2.3c-2.8-2-4.9-5-6.5-8.8c-1.6-3.9-2.4-9.4-2.5-16.5c2.1,3.2,4.7,5.6,7.8,7.2s6.3,2.3,9.6,2.3
					c5.9,0,10.8-2.2,15-6.5c4.1-4.3,6.2-9.9,6.2-16.7c0-4.5-1-8.7-2.9-12.5s-4.6-6.8-8-8.9c-3.4-2.1-7.2-3.1-11.5-3.1
					c-7.3,0-13.3,2.7-17.9,8.1c-4.6,5.4-6.9,14.3-6.9,26.6c0,13.8,2.6,23.9,7.7,30.2c4.5,5.5,10.5,8.2,18,8.2
					c5.6,0,10.2-1.6,13.8-4.7C130.3,210.3,132.4,205.9,133.1,200.4z M97.3,169.5c0-3,0.6-5.9,1.9-8.7c1.3-2.8,3.1-4.9,5.4-6.3
					c2.3-1.4,4.7-2.2,7.3-2.2c3.7,0,6.9,1.5,9.6,4.5c2.7,3,4,7.1,4,12.2c0,4.9-1.3,8.8-4,11.7c-2.6,2.9-6,4.3-10,4.3
					c-4,0-7.3-1.4-10.1-4.3C98.7,177.9,97.3,174.1,97.3,169.5z"/>
			</g>
		</g>
	</g>
</g>
<g id="xtick_5">
	<g id="text_5">
		<g transform="translate(466.904472 994.85605)scale(0.4 -0.4)">
			<g>
				<path id="ArialMT-30_4_" class="st1" d="M4.2,181.6c0,8.5,0.9,15.3,2.6,20.4c1.7,5.2,4.3,9.1,7.8,11.9c3.4,2.8,7.8,4.2,13,4.2
					c3.8,0,7.2-0.8,10.1-2.3c2.9-1.5,5.3-3.8,7.2-6.7c1.9-2.9,3.4-6.5,4.5-10.6c1.1-4.2,1.6-9.8,1.6-16.9c0-8.4-0.9-15.2-2.6-20.3
					c-1.7-5.2-4.3-9.1-7.7-12c-3.4-2.8-7.8-4.2-13-4.2c-6.9,0-12.3,2.5-16.2,7.4C6.5,158.5,4.2,168.2,4.2,181.6z M13.2,181.6
					c0-11.8,1.4-19.6,4.1-23.5c2.8-3.9,6.1-5.8,10.2-5.8c4,0,7.4,2,10.2,5.9s4.1,11.7,4.1,23.4c0,11.8-1.4,19.6-4.1,23.5
					c-2.8,3.9-6.2,5.8-10.3,5.8c-4,0-7.3-1.7-9.7-5.1C14.7,201.4,13.2,193.4,13.2,181.6z"/>
			</g>
			<g>
				<path id="ArialMT-2e_4_" class="st1" d="M64.7,146.3v10h10v-10H64.7z"/>
			</g>
			<g>
				<path id="ArialMT-37" class="st1" d="M88.1,208.5v8.5h46.3v-6.8c-4.6-4.8-9.1-11.3-13.6-19.3c-4.5-8-7.9-16.3-10.4-24.8
					c-1.8-6-2.9-12.5-3.4-19.7h-9c0.1,5.6,1.2,12.4,3.3,20.4c2.1,8,5.2,15.7,9.1,23.1s8.2,13.6,12.6,18.7H88.1z"/>
			</g>
		</g>
	</g>
</g>
<g id="xtick_6">
	<g id="text_6">
		<g transform="translate(547.752478 994.85605)scale(0.4 -0.4)">
			<g>
				<path id="ArialMT-30_5_" class="st1" d="M4.2,181.6c0,8.5,0.9,15.3,2.6,20.4c1.7,5.2,4.3,9.1,7.7,11.9c3.4,2.8,7.8,4.2,13,4.2
					c3.8,0,7.2-0.8,10.1-2.3c2.9-1.5,5.3-3.8,7.2-6.7c1.9-2.9,3.4-6.5,4.5-10.6c1.1-4.2,1.6-9.8,1.6-16.9c0-8.4-0.9-15.2-2.6-20.3
					c-1.7-5.2-4.3-9.1-7.7-12c-3.4-2.8-7.8-4.2-13-4.2c-6.9,0-12.3,2.5-16.2,7.4C6.5,158.5,4.2,168.2,4.2,181.6z M13.2,181.6
					c0-11.8,1.4-19.6,4.1-23.5c2.8-3.9,6.1-5.8,10.2-5.8c4,0,7.4,2,10.2,5.9s4.1,11.7,4.1,23.4c0,11.8-1.4,19.6-4.1,23.5
					c-2.8,3.9-6.2,5.8-10.3,5.8c-4,0-7.3-1.7-9.7-5.1C14.7,201.4,13.2,193.4,13.2,181.6z"/>
			</g>
			<g>
				<path id="ArialMT-2e_5_" class="st1" d="M64.7,146.3v10h10v-10H64.7z"/>
			</g>
			<g>
				<path id="ArialMT-38" class="st1" d="M101.1,185.1c-3.6,1.3-6.3,3.2-8.1,5.7c-1.8,2.5-2.6,5.4-2.6,8.9c0,5.2,1.9,9.6,5.6,13.1
					c3.8,3.6,8.7,5.3,14.9,5.3c6.2,0,11.3-1.8,15.1-5.5c3.8-3.6,5.7-8,5.7-13.2c0-3.3-0.9-6.2-2.6-8.7c-1.7-2.4-4.4-4.3-7.9-5.7
					c4.4-1.4,7.7-3.7,10-6.9c2.3-3.2,3.4-7,3.4-11.4c0-6.1-2.2-11.3-6.5-15.4c-4.3-4.2-10-6.2-17.1-6.2s-12.8,2.1-17.1,6.3
					c-4.3,4.2-6.5,9.4-6.5,15.7c0,4.7,1.2,8.6,3.5,11.7C93.4,181.8,96.7,184,101.1,185.1z M99.3,200c0-3.4,1.1-6.2,3.3-8.3
					c2.2-2.1,5-3.2,8.5-3.2c3.4,0,6.2,1.1,8.3,3.2c2.2,2.1,3.2,4.8,3.2,7.8c0,3.2-1.1,5.9-3.4,8.1c-2.2,2.2-5,3.3-8.3,3.3
					c-3.4,0-6.1-1.1-8.4-3.2C100.4,205.6,99.3,203,99.3,200z M96.5,167c0-2.5,0.6-4.9,1.8-7.3s3-4.2,5.3-5.5
					c2.3-1.3,4.9-1.9,7.6-1.9c4.2,0,7.7,1.3,10.4,4c2.7,2.7,4.1,6.1,4.1,10.3c0,4.2-1.4,7.7-4.2,10.5s-6.3,4.2-10.6,4.2
					c-4.1,0-7.6-1.4-10.3-4.1C97.8,174.5,96.5,171.1,96.5,167z"/>
			</g>
		</g>
	</g>
</g>
<g id="xtick_7">
	<g id="text_7">
		<g transform="translate(628.600483 994.85605)scale(0.4 -0.4)">
			<g>
				<path id="ArialMT-30_6_" class="st1" d="M4.2,181.6c0,8.5,0.9,15.3,2.6,20.4c1.7,5.2,4.3,9.1,7.8,11.9c3.4,2.8,7.8,4.2,13,4.2
					c3.8,0,7.2-0.8,10.1-2.3c2.9-1.5,5.3-3.8,7.2-6.7c1.9-2.9,3.4-6.5,4.5-10.6c1.1-4.2,1.6-9.8,1.6-16.9c0-8.4-0.9-15.2-2.6-20.3
					c-1.7-5.2-4.3-9.1-7.7-12c-3.4-2.8-7.8-4.2-13-4.2c-6.9,0-12.3,2.5-16.2,7.4C6.5,158.5,4.2,168.2,4.2,181.6z M13.2,181.6
					c0-11.8,1.4-19.6,4.1-23.5c2.8-3.9,6.1-5.8,10.2-5.8c4,0,7.4,2,10.2,5.9s4.1,11.7,4.1,23.4c0,11.8-1.4,19.6-4.1,23.5
					c-2.8,3.9-6.2,5.8-10.3,5.8c-4,0-7.3-1.7-9.7-5.1C14.7,201.4,13.2,193.4,13.2,181.6z"/>
			</g>
			<g>
				<path id="ArialMT-2e_6_" class="st1" d="M64.7,146.3v10h10v-10H64.7z"/>
			</g>
			<g>
				<path id="ArialMT-39" class="st1" d="M88.9,162.9l8.5,0.8c0.7-4,2.1-6.8,4.1-8.6c2-1.8,4.6-2.7,7.8-2.7c2.7,0,5.1,0.6,7.1,1.9
					c2,1.2,3.7,2.9,5,5c1.3,2.1,2.4,4.9,3.3,8.4c0.9,3.5,1.3,7.1,1.3,10.8c0,0.4,0,1,0,1.8c-1.8-2.8-4.2-5.1-7.2-6.8
					c-3-1.7-6.3-2.6-9.9-2.6c-5.9,0-10.9,2.1-15,6.4c-4.1,4.3-6.1,10-6.1,17c0,7.3,2.1,13.1,6.4,17.5c4.3,4.4,9.6,6.6,16.1,6.6
					c4.7,0,8.9-1.3,12.8-3.8c3.9-2.5,6.8-6.1,8.8-10.7c2-4.6,3-11.3,3-20.1c0-9.1-1-16.4-3-21.8c-2-5.4-4.9-9.5-8.9-12.4
					c-3.9-2.8-8.5-4.2-13.8-4.2c-5.6,0-10.2,1.6-13.7,4.7C91.7,152.9,89.6,157.2,88.9,162.9z M124.9,194.4c0,5.1-1.3,9.1-4,12
					c-2.7,3-5.9,4.4-9.7,4.4c-3.9,0-7.3-1.6-10.2-4.8c-2.9-3.2-4.3-7.3-4.3-12.4c0-4.6,1.4-8.3,4.1-11.1c2.8-2.8,6.1-4.3,10.2-4.3
					c4.1,0,7.4,1.4,10,4.3C123.5,185.5,124.9,189.4,124.9,194.4z"/>
			</g>
		</g>
	</g>
</g>
<g id="xtick_8">
	<g id="text_8">
		<g transform="translate(709.448489 994.85605)scale(0.4 -0.4)">
			<g>
				<path id="ArialMT-31" class="st1" d="M37.2,146.3h-8.8v56c-2.1-2-4.9-4-8.3-6s-6.5-3.5-9.3-4.5v8.5c4.9,2.3,9.2,5.1,12.9,8.4
					c3.7,3.3,6.3,6.5,7.8,9.6h5.7V146.3z"/>
			</g>
			<g>
				<path id="ArialMT-2e_7_" class="st1" d="M64.7,146.3v10h10v-10H64.7z"/>
			</g>
			<g>
				<path id="ArialMT-30_7_" class="st1" d="M87.6,181.6c0,8.5,0.9,15.3,2.6,20.4c1.7,5.2,4.3,9.1,7.8,11.9c3.4,2.8,7.8,4.2,13,4.2
					c3.8,0,7.2-0.8,10.1-2.3c2.9-1.5,5.3-3.8,7.2-6.7c1.9-2.9,3.4-6.5,4.5-10.6c1.1-4.2,1.6-9.8,1.6-16.9c0-8.4-0.9-15.2-2.6-20.3
					c-1.7-5.2-4.3-9.1-7.7-12c-3.4-2.8-7.8-4.2-13-4.2c-6.9,0-12.3,2.5-16.2,7.4C89.9,158.5,87.6,168.2,87.6,181.6z M96.6,181.6
					c0-11.8,1.4-19.6,4.1-23.5c2.8-3.9,6.1-5.8,10.2-5.8c4,0,7.4,2,10.2,5.9s4.1,11.7,4.1,23.4c0,11.8-1.4,19.6-4.1,23.5
					c-2.8,3.9-6.2,5.8-10.3,5.8c-4,0-7.3-1.7-9.7-5.1C98.1,201.4,96.6,193.4,96.6,181.6z"/>
			</g>
		</g>
	</g>
</g>
<g id="ytick_1">
	<g id="text_10">
		<g transform="translate(75.673438 921.175508)scale(0.4 -0.4)">
			<g>
				<path id="ArialMT-36_1_" class="st1" d="M49.8,200.4l-8.7-0.7c-0.8,3.4-1.9,6-3.3,7.5c-2.4,2.5-5.3,3.8-8.8,3.8
					c-2.8,0-5.3-0.8-7.4-2.3c-2.8-2-4.9-5-6.5-8.8c-1.6-3.9-2.4-9.4-2.5-16.5c2.1,3.2,4.7,5.6,7.8,7.2s6.3,2.3,9.6,2.3
					c5.9,0,10.8-2.2,15-6.5c4.1-4.3,6.2-9.9,6.2-16.7c0-4.5-1-8.7-2.9-12.5s-4.6-6.8-8-8.9s-7.2-3.1-11.5-3.1
					c-7.3,0-13.3,2.7-17.9,8.1c-4.6,5.4-6.9,14.3-6.9,26.6c0,13.8,2.6,23.9,7.7,30.2c4.5,5.5,10.5,8.2,18,8.2
					c5.6,0,10.2-1.6,13.8-4.7C46.9,210.3,49,205.9,49.8,200.4z M13.9,169.5c0-3,0.6-5.9,1.9-8.7c1.3-2.8,3.1-4.9,5.4-6.3
					c2.3-1.4,4.7-2.2,7.3-2.2c3.7,0,6.9,1.5,9.6,4.5c2.7,3,4,7.1,4,12.2c0,4.9-1.3,8.8-4,11.7c-2.6,2.9-6,4.3-10,4.3
					c-4,0-7.3-1.4-10.1-4.3C15.3,177.9,13.9,174.1,13.9,169.5z"/>
			</g>
			<g>
				<path id="ArialMT-30_8_" class="st1" d="M59.8,181.6c0,8.5,0.9,15.3,2.6,20.4c1.7,5.2,4.3,9.1,7.8,11.9c3.4,2.8,7.8,4.2,13,4.2
					c3.8,0,7.2-0.8,10.1-2.3c2.9-1.5,5.3-3.8,7.2-6.7c1.9-2.9,3.4-6.5,4.5-10.6c1.1-4.2,1.6-9.8,1.6-16.9c0-8.4-0.9-15.2-2.6-20.3
					c-1.7-5.2-4.3-9.1-7.7-12c-3.4-2.8-7.8-4.2-13-4.2c-6.9,0-12.3,2.5-16.2,7.4C62.1,158.5,59.8,168.2,59.8,181.6z M68.8,181.6
					c0-11.8,1.4-19.6,4.1-23.5c2.8-3.9,6.1-5.8,10.2-5.8c4,0,7.4,2,10.2,5.9s4.1,11.7,4.1,23.4c0,11.8-1.4,19.6-4.1,23.5
					c-2.8,3.9-6.2,5.8-10.3,5.8c-4,0-7.3-1.7-9.7-5.1C70.3,201.4,68.8,193.4,68.8,181.6z"/>
			</g>
			<g>
				<path id="ArialMT-30_9_" class="st1" d="M115.4,181.6c0,8.5,0.9,15.3,2.6,20.4c1.7,5.2,4.3,9.1,7.8,11.9c3.4,2.8,7.8,4.2,13,4.2
					c3.8,0,7.2-0.8,10.1-2.3c2.9-1.5,5.3-3.8,7.2-6.7c1.9-2.9,3.4-6.5,4.5-10.6c1.1-4.2,1.6-9.8,1.6-16.9c0-8.4-0.9-15.2-2.6-20.3
					c-1.7-5.2-4.3-9.1-7.7-12c-3.4-2.8-7.8-4.2-13-4.2c-6.9,0-12.3,2.5-16.2,7.4C117.7,158.5,115.4,168.2,115.4,181.6z M124.4,181.6
					c0-11.8,1.4-19.6,4.1-23.5c2.8-3.9,6.1-5.8,10.2-5.8c4,0,7.4,2,10.2,5.9s4.1,11.7,4.1,23.4c0,11.8-1.4,19.6-4.1,23.5
					c-2.8,3.9-6.2,5.8-10.3,5.8c-4,0-7.3-1.7-9.7-5.1C125.9,201.4,124.4,193.4,124.4,181.6z"/>
			</g>
		</g>
	</g>
</g>
<g id="ytick_2">
	<g id="text_11">
		<g transform="translate(75.673438 743.97032)scale(0.4 -0.4)">
			<g>
				<path id="ArialMT-37_1_" class="st1" d="M4.7,208.5v8.5h46.3v-6.8c-4.6-4.8-9.1-11.3-13.6-19.3c-4.5-8-7.9-16.3-10.4-24.8
					c-1.8-6-2.9-12.5-3.4-19.7h-9c0.1,5.6,1.2,12.4,3.3,20.4c2.1,8,5.2,15.7,9.1,23.1s8.2,13.6,12.6,18.7H4.7z"/>
			</g>
			<g>
				<path id="ArialMT-30_10_" class="st1" d="M59.8,181.6c0,8.5,0.9,15.3,2.6,20.4c1.7,5.2,4.3,9.1,7.8,11.9c3.4,2.8,7.8,4.2,13,4.2
					c3.8,0,7.2-0.8,10.1-2.3c2.9-1.5,5.3-3.8,7.2-6.7c1.9-2.9,3.4-6.5,4.5-10.6c1.1-4.2,1.6-9.8,1.6-16.9c0-8.4-0.9-15.2-2.6-20.3
					c-1.7-5.2-4.3-9.1-7.7-12c-3.4-2.8-7.8-4.2-13-4.2c-6.9,0-12.3,2.5-16.2,7.4C62.1,158.5,59.8,168.2,59.8,181.6z M68.8,181.6
					c0-11.8,1.4-19.6,4.1-23.5c2.8-3.9,6.1-5.8,10.2-5.8c4,0,7.4,2,10.2,5.9s4.1,11.7,4.1,23.4c0,11.8-1.4,19.6-4.1,23.5
					c-2.8,3.9-6.2,5.8-10.3,5.8c-4,0-7.3-1.7-9.7-5.1C70.3,201.4,68.8,193.4,68.8,181.6z"/>
			</g>
			<g>
				<path id="ArialMT-30_11_" class="st1" d="M115.4,181.6c0,8.5,0.9,15.3,2.6,20.4c1.7,5.2,4.3,9.1,7.8,11.9
					c3.4,2.8,7.8,4.2,13,4.2c3.8,0,7.2-0.8,10.1-2.3c2.9-1.5,5.3-3.8,7.2-6.7c1.9-2.9,3.4-6.5,4.5-10.6c1.1-4.2,1.6-9.8,1.6-16.9
					c0-8.4-0.9-15.2-2.6-20.3c-1.7-5.2-4.3-9.1-7.7-12c-3.4-2.8-7.8-4.2-13-4.2c-6.9,0-12.3,2.5-16.2,7.4
					C117.7,158.5,115.4,168.2,115.4,181.6z M124.4,181.6c0-11.8,1.4-19.6,4.1-23.5c2.8-3.9,6.1-5.8,10.2-5.8c4,0,7.4,2,10.2,5.9
					s4.1,11.7,4.1,23.4c0,11.8-1.4,19.6-4.1,23.5c-2.8,3.9-6.2,5.8-10.3,5.8c-4,0-7.3-1.7-9.7-5.1
					C125.9,201.4,124.4,193.4,124.4,181.6z"/>
			</g>
		</g>
	</g>
</g>
<g id="ytick_3">
	<g id="text_12">
		<g transform="translate(75.673438 566.765131)scale(0.4 -0.4)">
			<g>
				<path id="ArialMT-38_1_" class="st1" d="M17.7,185.1c-3.6,1.3-6.3,3.2-8.1,5.7c-1.8,2.5-2.6,5.4-2.6,8.9c0,5.2,1.9,9.6,5.6,13.1
					c3.8,3.6,8.7,5.3,14.9,5.3c6.2,0,11.3-1.8,15.1-5.5c3.8-3.6,5.7-8,5.7-13.2c0-3.3-0.9-6.2-2.6-8.7c-1.7-2.4-4.4-4.3-7.9-5.7
					c4.4-1.4,7.7-3.7,10-6.9c2.3-3.2,3.4-7,3.4-11.4c0-6.1-2.2-11.3-6.5-15.4c-4.3-4.2-10-6.2-17.1-6.2s-12.8,2.1-17.1,6.3
					C6.2,155.5,4,160.8,4,167c0,4.7,1.2,8.6,3.5,11.7C10,181.8,13.3,184,17.7,185.1z M15.9,200c0-3.4,1.1-6.2,3.3-8.3
					c2.2-2.1,5-3.2,8.5-3.2c3.4,0,6.2,1.1,8.3,3.2c2.2,2.1,3.2,4.8,3.2,7.8c0,3.2-1.1,5.9-3.4,8.1c-2.2,2.2-5,3.3-8.3,3.3
					c-3.4,0-6.1-1.1-8.4-3.2C17,205.6,15.9,203,15.9,200z M13.1,167c0-2.5,0.6-4.9,1.8-7.3s3-4.2,5.3-5.5c2.3-1.3,4.9-1.9,7.6-1.9
					c4.2,0,7.7,1.3,10.4,4c2.7,2.7,4.1,6.1,4.1,10.3c0,4.2-1.4,7.7-4.2,10.5s-6.3,4.2-10.6,4.2c-4.1,0-7.6-1.4-10.3-4.1
					C14.4,174.5,13.1,171.1,13.1,167z"/>
			</g>
			<g>
				<path id="ArialMT-30_12_" class="st1" d="M59.8,181.6c0,8.5,0.9,15.3,2.6,20.4c1.7,5.2,4.3,9.1,7.8,11.9c3.4,2.8,7.8,4.2,13,4.2
					c3.8,0,7.2-0.8,10.1-2.3c2.9-1.5,5.3-3.8,7.2-6.7c1.9-2.9,3.4-6.5,4.5-10.6c1.1-4.2,1.6-9.8,1.6-16.9c0-8.4-0.9-15.2-2.6-20.3
					c-1.7-5.2-4.3-9.1-7.7-12c-3.4-2.8-7.8-4.2-13-4.2c-6.9,0-12.3,2.5-16.2,7.4C62.1,158.5,59.8,168.2,59.8,181.6z M68.8,181.6
					c0-11.8,1.4-19.6,4.1-23.5c2.8-3.9,6.1-5.8,10.2-5.8c4,0,7.4,2,10.2,5.9s4.1,11.7,4.1,23.4c0,11.8-1.4,19.6-4.1,23.5
					c-2.8,3.9-6.2,5.8-10.3,5.8c-4,0-7.3-1.7-9.7-5.1C70.3,201.4,68.8,193.4,68.8,181.6z"/>
			</g>
			<g>
				<path id="ArialMT-30_13_" class="st1" d="M115.4,181.6c0,8.5,0.9,15.3,2.6,20.4c1.7,5.2,4.3,9.1,7.8,11.9
					c3.4,2.8,7.8,4.2,13,4.2c3.8,0,7.2-0.8,10.1-2.3c2.9-1.5,5.3-3.8,7.2-6.7c1.9-2.9,3.4-6.5,4.5-10.6c1.1-4.2,1.6-9.8,1.6-16.9
					c0-8.4-0.9-15.2-2.6-20.3c-1.7-5.2-4.3-9.1-7.7-12c-3.4-2.8-7.8-4.2-13-4.2c-6.9,0-12.3,2.5-16.2,7.4
					C117.7,158.5,115.4,168.2,115.4,181.6z M124.4,181.6c0-11.8,1.4-19.6,4.1-23.5c2.8-3.9,6.1-5.8,10.2-5.8c4,0,7.4,2,10.2,5.9
					s4.1,11.7,4.1,23.4c0,11.8-1.4,19.6-4.1,23.5c-2.8,3.9-6.2,5.8-10.3,5.8c-4,0-7.3-1.7-9.7-5.1
					C125.9,201.4,124.4,193.4,124.4,181.6z"/>
			</g>
		</g>
	</g>
</g>
<g id="ytick_4">
	<g id="text_13">
		<g transform="translate(75.673438 389.559943)scale(0.4 -0.4)">
			<g>
				<path id="ArialMT-39_1_" class="st1" d="M5.5,162.9l8.5,0.8c0.7-4,2.1-6.8,4.1-8.6c2-1.8,4.6-2.7,7.8-2.7c2.7,0,5.1,0.6,7.1,1.9
					c2,1.2,3.7,2.9,5,5c1.3,2.1,2.4,4.9,3.3,8.4c0.9,3.5,1.3,7.1,1.3,10.8c0,0.4,0,1,0,1.8c-1.8-2.8-4.2-5.1-7.2-6.8
					c-3-1.7-6.3-2.6-9.9-2.6c-5.9,0-10.9,2.1-15,6.4c-4.1,4.3-6.1,10-6.1,17c0,7.3,2.1,13.1,6.4,17.5c4.3,4.4,9.6,6.6,16.1,6.6
					c4.7,0,8.9-1.3,12.8-3.8c3.9-2.5,6.8-6.1,8.8-10.7c2-4.6,3-11.3,3-20.1c0-9.1-1-16.4-3-21.8c-2-5.4-4.9-9.5-8.9-12.4
					c-3.9-2.8-8.5-4.2-13.8-4.2c-5.6,0-10.2,1.6-13.7,4.7C8.3,152.9,6.2,157.2,5.5,162.9z M41.5,194.4c0,5.1-1.3,9.1-4,12
					c-2.7,3-5.9,4.4-9.7,4.4c-3.9,0-7.3-1.6-10.2-4.8s-4.3-7.3-4.3-12.4c0-4.6,1.4-8.3,4.1-11.1c2.8-2.8,6.1-4.3,10.2-4.3
					c4.1,0,7.4,1.4,10,4.3C40.1,185.5,41.5,189.4,41.5,194.4z"/>
			</g>
			<g>
				<path id="ArialMT-30_14_" class="st1" d="M59.8,181.6c0,8.5,0.9,15.3,2.6,20.4c1.7,5.2,4.3,9.1,7.8,11.9c3.4,2.8,7.8,4.2,13,4.2
					c3.8,0,7.2-0.8,10.1-2.3c2.9-1.5,5.3-3.8,7.2-6.7c1.9-2.9,3.4-6.5,4.5-10.6c1.1-4.2,1.6-9.8,1.6-16.9c0-8.4-0.9-15.2-2.6-20.3
					c-1.7-5.2-4.3-9.1-7.7-12c-3.4-2.8-7.8-4.2-13-4.2c-6.9,0-12.3,2.5-16.2,7.4C62.1,158.5,59.8,168.2,59.8,181.6z M68.8,181.6
					c0-11.8,1.4-19.6,4.1-23.5c2.8-3.9,6.1-5.8,10.2-5.8c4,0,7.4,2,10.2,5.9s4.1,11.7,4.1,23.4c0,11.8-1.4,19.6-4.1,23.5
					c-2.8,3.9-6.2,5.8-10.3,5.8c-4,0-7.3-1.7-9.7-5.1C70.3,201.4,68.8,193.4,68.8,181.6z"/>
			</g>
			<g>
				<path id="ArialMT-30_15_" class="st1" d="M115.4,181.6c0,8.5,0.9,15.3,2.6,20.4c1.7,5.2,4.3,9.1,7.8,11.9
					c3.4,2.8,7.8,4.2,13,4.2c3.8,0,7.2-0.8,10.1-2.3c2.9-1.5,5.3-3.8,7.2-6.7c1.9-2.9,3.4-6.5,4.5-10.6c1.1-4.2,1.6-9.8,1.6-16.9
					c0-8.4-0.9-15.2-2.6-20.3c-1.7-5.2-4.3-9.1-7.7-12c-3.4-2.8-7.8-4.2-13-4.2c-6.9,0-12.3,2.5-16.2,7.4
					C117.7,158.5,115.4,168.2,115.4,181.6z M124.4,181.6c0-11.8,1.4-19.6,4.1-23.5c2.8-3.9,6.1-5.8,10.2-5.8c4,0,7.4,2,10.2,5.9
					s4.1,11.7,4.1,23.4c0,11.8-1.4,19.6-4.1,23.5c-2.8,3.9-6.2,5.8-10.3,5.8c-4,0-7.3-1.7-9.7-5.1
					C125.9,201.4,124.4,193.4,124.4,181.6z"/>
			</g>
		</g>
	</g>
</g>
<g id="ytick_5">
	<g id="text_14">
		<g transform="translate(53.429688 212.354754)scale(0.4 -0.4)">
			<g>
				<path id="ArialMT-31_1_" class="st1" d="M37.2,146.3h-8.8v56c-2.1-2-4.9-4-8.3-6c-3.4-2-6.5-3.5-9.3-4.5v8.5
					c4.9,2.3,9.2,5.1,12.9,8.4c3.7,3.3,6.3,6.5,7.8,9.6h5.7V146.3z"/>
			</g>
			<g>
				<path id="ArialMT-30_16_" class="st1" d="M59.8,181.6c0,8.5,0.9,15.3,2.6,20.4c1.7,5.2,4.3,9.1,7.8,11.9c3.4,2.8,7.8,4.2,13,4.2
					c3.8,0,7.2-0.8,10.1-2.3c2.9-1.5,5.3-3.8,7.2-6.7c1.9-2.9,3.4-6.5,4.5-10.6c1.1-4.2,1.6-9.8,1.6-16.9c0-8.4-0.9-15.2-2.6-20.3
					c-1.7-5.2-4.3-9.1-7.7-12c-3.4-2.8-7.8-4.2-13-4.2c-6.9,0-12.3,2.5-16.2,7.4C62.1,158.5,59.8,168.2,59.8,181.6z M68.8,181.6
					c0-11.8,1.4-19.6,4.1-23.5c2.8-3.9,6.1-5.8,10.2-5.8c4,0,7.4,2,10.2,5.9s4.1,11.7,4.1,23.4c0,11.8-1.4,19.6-4.1,23.5
					c-2.8,3.9-6.2,5.8-10.3,5.8c-4,0-7.3-1.7-9.7-5.1C70.3,201.4,68.8,193.4,68.8,181.6z"/>
			</g>
			<g>
				<path id="ArialMT-30_17_" class="st1" d="M115.4,181.6c0,8.5,0.9,15.3,2.6,20.4c1.7,5.2,4.3,9.1,7.8,11.9
					c3.4,2.8,7.8,4.2,13,4.2c3.8,0,7.2-0.8,10.1-2.3c2.9-1.5,5.3-3.8,7.2-6.7c1.9-2.9,3.4-6.5,4.5-10.6c1.1-4.2,1.6-9.8,1.6-16.9
					c0-8.4-0.9-15.2-2.6-20.3c-1.7-5.2-4.3-9.1-7.7-12c-3.4-2.8-7.8-4.2-13-4.2c-6.9,0-12.3,2.5-16.2,7.4
					C117.7,158.5,115.4,168.2,115.4,181.6z M124.4,181.6c0-11.8,1.4-19.6,4.1-23.5c2.8-3.9,6.1-5.8,10.2-5.8c4,0,7.4,2,10.2,5.9
					s4.1,11.7,4.1,23.4c0,11.8-1.4,19.6-4.1,23.5c-2.8,3.9-6.2,5.8-10.3,5.8c-4,0-7.3-1.7-9.7-5.1
					C125.9,201.4,124.4,193.4,124.4,181.6z"/>
			</g>
			<g>
				<path id="ArialMT-30_18_" class="st1" d="M171,181.6c0,8.5,0.9,15.3,2.6,20.4c1.7,5.2,4.3,9.1,7.8,11.9c3.4,2.8,7.8,4.2,13,4.2
					c3.8,0,7.2-0.8,10.1-2.3c2.9-1.5,5.3-3.8,7.2-6.7c1.9-2.9,3.4-6.5,4.5-10.6c1.1-4.2,1.6-9.8,1.6-16.9c0-8.4-0.9-15.2-2.6-20.3
					c-1.7-5.2-4.3-9.1-7.7-12c-3.4-2.8-7.8-4.2-13-4.2c-6.9,0-12.3,2.5-16.2,7.4C173.4,158.5,171,168.2,171,181.6z M180,181.6
					c0-11.8,1.4-19.6,4.1-23.5c2.8-3.9,6.1-5.8,10.2-5.8c4,0,7.4,2,10.2,5.9s4.1,11.7,4.1,23.4c0,11.8-1.4,19.6-4.1,23.5
					c-2.8,3.9-6.2,5.8-10.3,5.8c-4,0-7.3-1.7-9.7-5.1C181.5,201.4,180,193.4,180,181.6z"/>
			</g>
		</g>
	</g>
</g>
<g id="text_15">
	<g transform="translate(39.958594 668.300175)rotate(-90)scale(0.45 -0.45)">
		<g>
			<path id="ArialMT-4d" class="st1" d="M75-5.2v85.9h17.1l20.3-60.8c1.9-5.7,3.2-9.9,4.1-12.7c1,3.1,2.5,7.7,4.6,13.8l20.6,59.8
				H157V-5.2h-10.9v71.9l-25-71.9h-10.3L86,67.9V-5.2H75z"/>
		</g>
		<g>
			<path id="ArialMT-65_1_" class="st1" d="M216.6,14.9l10.9-1.3c-1.7-6.4-4.9-11.3-9.5-14.8c-4.6-3.5-10.6-5.3-17.8-5.3
				c-9.1,0-16.3,2.8-21.7,8.4c-5.3,5.6-8,13.5-8,23.6c0,10.5,2.7,18.6,8.1,24.4c5.4,5.8,12.4,8.7,21,8.7c8.3,0,15.1-2.8,20.4-8.5
				s7.9-13.6,7.9-23.9c0-0.6,0-1.6-0.1-2.8h-46.4c0.4-6.8,2.3-12.1,5.8-15.7c3.5-3.6,7.8-5.4,13-5.4c3.9,0,7.2,1,9.9,3
				C212.8,7.2,215,10.4,216.6,14.9z M182,31.9h34.7c-0.5,5.2-1.8,9.2-4,11.8c-3.4,4.1-7.7,6.1-13.1,6.1c-4.8,0-8.9-1.6-12.2-4.9
				C184.1,41.7,182.3,37.3,182,31.9z"/>
		</g>
		<g>
			<path id="ArialMT-61_1_" class="st1" d="M281.4,2.5c-3.9-3.3-7.7-5.7-11.3-7c-3.6-1.4-7.5-2-11.6-2c-6.8,0-12.1,1.7-15.8,5
				c-3.7,3.3-5.5,7.6-5.5,12.8c0,3,0.7,5.8,2.1,8.3c1.4,2.5,3.2,4.5,5.5,6.1c2.2,1.5,4.8,2.7,7.6,3.4c2.1,0.6,5.2,1.1,9.4,1.6
				c8.5,1,14.8,2.2,18.8,3.6c0,1.4,0.1,2.4,0.1,2.8c0,4.3-1,7.3-3,9.1c-2.7,2.4-6.7,3.6-12,3.6c-5,0-8.6-0.9-11-2.6
				c-2.4-1.7-4.1-4.8-5.2-9.2L239,39.3c0.9,4.4,2.5,8,4.6,10.7c2.2,2.7,5.3,4.8,9.3,6.3c4.1,1.5,8.8,2.2,14.1,2.2
				c5.3,0,9.6-0.6,12.9-1.9c3.3-1.2,5.8-2.8,7.3-4.7c1.6-1.9,2.7-4.3,3.3-7.2c0.3-1.8,0.5-5,0.5-9.7V20.9c0-9.8,0.2-16,0.7-18.6
				c0.5-2.6,1.3-5.1,2.7-7.5h-11C282.4-3,281.7-0.4,281.4,2.5z M280.5,26.1c-3.8-1.6-9.6-2.9-17.2-4c-4.3-0.6-7.4-1.3-9.2-2.1
				c-1.8-0.8-3.2-1.9-4.2-3.4c-1-1.5-1.5-3.2-1.5-5c0-2.8,1.1-5.2,3.2-7c2.1-1.9,5.3-2.8,9.4-2.8c4.1,0,7.7,0.9,10.8,2.7
				c3.2,1.8,5.5,4.2,7,7.3c1.1,2.4,1.7,5.9,1.7,10.5V26.1z"/>
		</g>
		<g>
			<path id="ArialMT-6e" class="st1" d="M307.5-5.2v62.2h9.5v-8.8c4.6,6.8,11.2,10.3,19.8,10.3c3.8,0,7.2-0.7,10.4-2
				c3.1-1.3,5.5-3.1,7.1-5.3c1.6-2.2,2.7-4.8,3.3-7.8c0.4-2,0.6-5.4,0.6-10.3V-5.2h-10.6v37.9c0,4.3-0.4,7.5-1.2,9.6
				c-0.8,2.1-2.3,3.8-4.4,5.1c-2.1,1.3-4.5,1.9-7.3,1.9c-4.5,0-8.4-1.4-11.6-4.3c-3.3-2.8-4.9-8.3-4.9-16.2v-34H307.5z"/>
		</g>
		<g>
			<path id="ArialMT-20" class="st1" d="M366.3-5.2"/>
		</g>
		<g>
			<path id="ArialMT-52" class="st1" d="M409.1-5.2v85.9h38.1c7.7,0,13.5-0.8,17.5-2.3c4-1.5,7.2-4.3,9.6-8.2
				c2.4-3.9,3.6-8.2,3.6-12.9c0-6.1-2-11.2-5.9-15.4c-4-4.2-10-6.8-18.3-8c3-1.4,5.3-2.9,6.9-4.3c3.3-3,6.5-6.8,9.4-11.4l14.9-23.4
				h-14.3l-11.4,17.9c-3.3,5.2-6.1,9.1-8.2,11.8c-2.1,2.7-4.1,4.6-5.8,5.7c-1.7,1.1-3.4,1.9-5.2,2.3c-1.3,0.3-3.4,0.4-6.3,0.4h-13.2
				V-5.2H409.1z M420.4,42.8h24.4c5.2,0,9.2,0.5,12.2,1.6c2.9,1.1,5.2,2.8,6.7,5.2c1.5,2.4,2.3,4.9,2.3,7.7c0,4.1-1.5,7.4-4.4,10
				c-3,2.6-7.6,3.9-14,3.9h-27.2V42.8z"/>
		</g>
		<g>
			<path id="ArialMT-54" class="st1" d="M515.3-5.2v75.8H487v10.1h68.1V70.6h-28.4V-5.2H515.3z"/>
		</g>
		<g>
			<path id="ArialMT-20_1_" class="st1" d="M555.4-5.2"/>
		</g>
		<g>
			<path id="ArialMT-28" class="st1" d="M616.8-30.4C611-23.1,606.1-14.5,602-4.7c-4,9.8-6,20-6,30.6c0,9.3,1.5,18.2,4.5,26.7
				c3.5,9.9,8.9,19.7,16.3,29.5h7.6c-4.7-8.1-7.9-13.9-9.4-17.4c-2.4-5.4-4.3-11-5.6-16.9c-1.7-7.3-2.5-14.6-2.5-22
				c0-18.8,5.8-37.6,17.5-56.3H616.8z"/>
		</g>
		<g>
			<path id="ArialMT-6d" class="st1" d="M636.6-5.2v62.2h9.4v-8.7c1.9,3,4.5,5.5,7.8,7.3c3.2,1.9,6.9,2.8,11.1,2.8
				c4.6,0,8.4-1,11.3-2.9c3-1.9,5-4.6,6.2-8c4.9,7.3,11.3,10.9,19.2,10.9c6.2,0,10.9-1.7,14.2-5.1c3.3-3.4,5-8.7,5-15.8V-5.2h-10.5
				V34c0,4.2-0.3,7.2-1,9.1c-0.7,1.9-1.9,3.4-3.7,4.5c-1.8,1.1-3.9,1.7-6.3,1.7c-4.4,0-8-1.5-10.9-4.4c-2.9-2.9-4.3-7.6-4.3-14V-5.2
				h-10.5v40.4c0,4.7-0.9,8.2-2.6,10.5c-1.7,2.3-4.5,3.5-8.4,3.5c-3,0-5.7-0.8-8.2-2.3c-2.5-1.6-4.3-3.8-5.5-6.9
				c-1.1-3-1.7-7.3-1.7-13V-5.2H636.6z"/>
		</g>
		<g>
			<path id="ArialMT-73" class="st1" d="M732.4,13.4l10.4,1.6c0.6-4.2,2.2-7.4,4.9-9.6c2.7-2.2,6.4-3.3,11.2-3.3
				c4.8,0,8.4,1,10.8,2.9c2.3,2,3.5,4.3,3.5,7c0,2.4-1,4.2-3.1,5.6c-1.4,0.9-5,2.1-10.8,3.6c-7.7,2-13.1,3.7-16.1,5.1
				c-3,1.4-5.3,3.4-6.8,5.9c-1.5,2.5-2.3,5.3-2.3,8.4c0,2.8,0.6,5.3,1.9,7.7c1.3,2.4,3,4.3,5.2,5.9c1.6,1.2,3.9,2.2,6.7,3.1
				c2.8,0.8,5.9,1.3,9.1,1.3c4.9,0,9.2-0.7,12.8-2.1c3.7-1.4,6.4-3.3,8.2-5.7c1.8-2.4,3-5.6,3.6-9.6l-10.3-1.4
				c-0.5,3.2-1.8,5.7-4.1,7.5c-2.2,1.8-5.4,2.7-9.5,2.7c-4.8,0-8.3-0.8-10.4-2.4c-2.1-1.6-3.1-3.5-3.1-5.6c0-1.4,0.4-2.6,1.3-3.7
				c0.9-1.1,2.2-2.1,4-2.8c1.1-0.4,4.2-1.3,9.3-2.7c7.5-2,12.7-3.6,15.6-4.9c3-1.3,5.3-3.1,6.9-5.5c1.7-2.4,2.5-5.4,2.5-9
				c0-3.5-1-6.8-3.1-9.9c-2-3.1-5-5.5-8.9-7.2c-3.9-1.7-8.2-2.6-13.1-2.6c-8.1,0-14.2,1.7-18.5,5C736.2,1.8,733.5,6.8,732.4,13.4z"
				/>
		</g>
		<g>
			<path id="ArialMT-29" class="st1" d="M803.5-30.4h-7.6c11.7,18.8,17.5,37.5,17.5,56.3c0,7.4-0.8,14.6-2.5,21.9
				c-1.3,5.9-3.2,11.5-5.6,16.9c-1.5,3.5-4.7,9.4-9.4,17.6h7.6c7.3-9.8,12.8-19.6,16.3-29.5c3-8.5,4.5-17.4,4.5-26.7
				c0-10.5-2-20.7-6.1-30.6C814.2-14.5,809.3-23.1,803.5-30.4z"/>
		</g>
	</g>
</g>
<g id="line2d_1">
	<g>
		<defs>
			<rect id="SVGID_1_" x="151.5" y="35" width="613.6" height="863.6"/>
		</defs>
		<clipPath id="SVGID_2_">
			<use xlink:href="#SVGID_1_"  style="overflow:visible;"/>
		</clipPath>
		<path class="st2" d="M179.4,213.4l8.1,25.8l8.1-95.8l8.1,97.1l8.1,14.1l8.1-67.3l8.1,156.6l8.1-243.5l8.1,80.4l8.1-54.6l8.1,118.3
			l8.1,2.4l8.1-84.7l8.1,63.2l8.1,85.1l8.1-1.3l8.1-64l8.1-170.8l8.1,201l8.1-13.4l242.5,79.5l8.1-79.2l8.1,22.8l8.1,77.4l8.1-30.2
			l8.1-111l8.1,90.4l8.1,64.7l8.1,38.5l8.1-61.3l8.1,85.1l8.1-39.8l8.1-14.1l8.1,47.2l8.1-39.8l8.1,56.7l8.1-43l8.1,103.4l8.1-8.8
			l8.1-133.9l8.1,59.9"/>
	</g>
</g>
<g id="line2d_2">
	<g>
		<defs>
			<rect id="SVGID_3_" x="151.5" y="35" width="613.6" height="863.6"/>
		</defs>
		<clipPath id="SVGID_4_">
			<use xlink:href="#SVGID_3_"  style="overflow:visible;"/>
		</clipPath>
		<path class="st3" d="M179.4,593.4l8.1-5.4l8.1-8.1l8.1,44.4l8.1,1.5l8.1-51.5l8.1,89.7l8.1-172.7l8.1,32.8l8.1,20.9l8.1,33.8
			l8.1,20.7l8.1-24l8.1,75.6l8.1,10.1l8.1,4.8l8.1-11.6l8.1-104.7l8.1,20.1l8.1,19.1l242.5,119.5l8.1-30.6l8.1-30.4l8.1,86.9l8.1-6
			l8.1-119.7l8.1,121.2l8.1-16.2l8.1,24.7l8.1-34.4l8.1,116.8l8.1-84l8.1,41.4l8.1,45.8l8.1-93.7l8.1,91l8.1-81.2l8.1,119.2
			l8.1-119.5l8.1-31.2l8.1,93.3"/>
	</g>
</g>
<g id="line2d_3">
</g>
<g id="line2d_4">
</g>
<g id="patch_3">
	<path class="st4" d="M151.5,898.6V35"/>
</g>
<g id="patch_4">
	<path class="st4" d="M151.5,898.6h613.6"/>
</g>
<g id="legend_1">
	<g id="line2d_5">
		<path class="st5" d="M527,30.5h39h39"/>
	</g>
	<g id="text_17">
		<g transform="translate(693.141051 142.030237)scale(0.3 -0.3)">
			<g>
				<path id="ArialMT-43" class="st1" d="M-113.3,359l12.3-3.1c-2.6-10.1-7.2-17.8-13.9-23.1c-6.7-5.3-14.9-8-24.6-8
					c-10,0-18.2,2-24.5,6.1c-6.3,4.1-11.1,10-14.3,17.8s-4.9,16.1-4.9,24.9c0,9.7,1.8,18.1,5.5,25.4c3.7,7.2,9,12.7,15.8,16.4
					c6.8,3.8,14.4,5.6,22.6,5.6c9.3,0,17.1-2.4,23.5-7.1c6.4-4.7,10.8-11.4,13.3-20l-12.1-2.9c-2.2,6.8-5.3,11.7-9.4,14.8
					c-4.1,3.1-9.3,4.7-15.5,4.7c-7.2,0-13.1-1.7-17.9-5.2c-4.8-3.4-8.2-8-10.1-13.8c-1.9-5.8-2.9-11.7-2.9-17.9
					c0-7.9,1.2-14.8,3.5-20.7c2.3-5.9,5.9-10.3,10.7-13.2c4.9-2.9,10.1-4.4,15.8-4.4c6.9,0,12.7,2,17.5,6
					C-118.2,345.3-115,351.2-113.3,359z"/>
			</g>
			<g>
				<path id="ArialMT-44" class="st1" d="M-85.8,326.4v93.1h32.1c7.2,0,12.8-0.4,16.6-1.3c5.3-1.2,9.9-3.5,13.6-6.7
					c4.9-4.2,8.6-9.5,11-15.9c2.4-6.4,3.7-13.8,3.7-22.1c0-7.1-0.8-13.3-2.5-18.8c-1.6-5.5-3.8-10-6.3-13.6
					c-2.6-3.6-5.4-6.4-8.5-8.5c-3.1-2-6.8-3.6-11.1-4.7c-4.3-1.1-9.3-1.6-14.9-1.6H-85.8z M-73.5,337.4h19.9
					c6.1,0,10.9,0.6,14.4,1.7c3.5,1.1,6.3,2.7,8.3,4.8c2.9,2.9,5.2,6.8,6.8,11.8s2.4,10.9,2.4,17.9c0,9.7-1.6,17.2-4.8,22.4
					s-7.1,8.7-11.6,10.5c-3.3,1.3-8.6,1.9-15.9,1.9h-19.6V337.4z"/>
			</g>
		</g>
	</g>
	<g id="line2d_6">
		<path class="st6" d="M527,85.6h39h39"/>
	</g>
	<g id="text_18">
		<g transform="translate(693.141051 184.466175)scale(0.3 -0.3)">
			<g>
				<path id="ArialMT-43_1_" class="st1" d="M-113.3,316.6l12.3-3.1c-2.6-10.1-7.2-17.8-13.9-23.1c-6.7-5.3-14.9-8-24.6-8
					c-10,0-18.2,2-24.5,6.1c-6.3,4.1-11.1,10-14.3,17.8c-3.3,7.7-4.9,16.1-4.9,24.9c0,9.7,1.8,18.1,5.5,25.4
					c3.7,7.2,9,12.7,15.8,16.4c6.8,3.8,14.4,5.6,22.6,5.6c9.3,0,17.1-2.4,23.5-7.1c6.4-4.7,10.8-11.4,13.3-20l-12.1-2.9
					c-2.2,6.8-5.3,11.7-9.4,14.8c-4.1,3.1-9.3,4.7-15.5,4.7c-7.2,0-13.1-1.7-17.9-5.2c-4.8-3.4-8.2-8-10.1-13.8
					c-1.9-5.8-2.9-11.7-2.9-17.9c0-7.9,1.2-14.8,3.5-20.7c2.3-5.9,5.9-10.3,10.7-13.2c4.9-2.9,10.1-4.4,15.8-4.4
					c6.9,0,12.7,2,17.5,6C-118.2,302.9-115,308.8-113.3,316.6z"/>
			</g>
			<g>
				<path id="ArialMT-4f" class="st1" d="M-89.6,329.3c0,15.5,4.1,27.5,12.4,36.3c8.3,8.7,19,13.1,32.1,13.1
					c8.6,0,16.3-2.1,23.2-6.2c6.9-4.1,12.1-9.8,15.8-17.2c3.6-7.3,5.4-15.7,5.4-25c0-9.4-1.9-17.9-5.7-25.3
					c-3.8-7.4-9.2-13.1-16.2-16.9c-7-3.8-14.5-5.7-22.6-5.7c-8.8,0-16.6,2.1-23.5,6.3c-6.9,4.2-12.1,10-15.7,17.3
					C-87.8,313.4-89.6,321.1-89.6,329.3z M-76.9,329.1c0-11.2,3-20,9-26.5c6-6.4,13.6-9.7,22.7-9.7c9.3,0,16.9,3.3,22.9,9.8
					c6,6.5,9,15.8,9,27.7c0,7.6-1.3,14.2-3.8,19.8s-6.3,10-11.3,13.1c-4.9,3.1-10.5,4.7-16.6,4.7c-8.7,0-16.2-3-22.5-9
					C-73.7,353.1-76.9,343.1-76.9,329.1z"/>
			</g>
		</g>
	</g>
</g>
<g id="xtick_9">
	<g id="text_19">
		<g transform="translate(904.572441 994.85605)scale(0.4 -0.4)">
			<g>
				<path id="ArialMT-31_2_" class="st1" d="M37.2,146.3h-8.8v56c-2.1-2-4.9-4-8.3-6s-6.5-3.5-9.3-4.5v8.5c4.9,2.3,9.2,5.1,12.9,8.4
					c3.7,3.3,6.3,6.5,7.8,9.6h5.7V146.3z"/>
			</g>
		</g>
	</g>
</g>
<g id="xtick_10">
	<g id="text_20">
		<g transform="translate(1051.025034 994.85605)scale(0.4 -0.4)">
			<g>
				<path id="ArialMT-32" class="st1" d="M50.3,154.8v-8.5H3c-0.1,2.1,0.3,4.2,1,6.1c1.2,3.2,3.1,6.4,5.8,9.5
					c2.7,3.1,6.5,6.7,11.5,10.8c7.8,6.4,13,11.4,15.8,15.2c2.7,3.7,4.1,7.3,4.1,10.6c0,3.5-1.2,6.4-3.8,8.8
					c-2.5,2.4-5.7,3.6-9.7,3.6c-4.2,0-7.6-1.3-10.2-3.8c-2.5-2.5-3.8-6-3.9-10.5l-9,0.9c0.6,6.7,2.9,11.9,7,15.4
					c4,3.5,9.5,5.3,16.3,5.3c6.9,0,12.3-1.9,16.3-5.7c4-3.8,6-8.5,6-14.2c0-2.9-0.6-5.7-1.8-8.5c-1.2-2.8-3.1-5.7-5.8-8.7
					s-7.2-7.3-13.5-12.6c-5.3-4.4-8.7-7.4-10.2-9c-1.5-1.6-2.7-3.2-3.7-4.8H50.3z"/>
			</g>
		</g>
	</g>
</g>
<g id="xtick_11">
	<g id="text_21">
		<g transform="translate(1197.477627 994.85605)scale(0.4 -0.4)">
			<g>
				<path id="ArialMT-33_1_" class="st1" d="M4.2,165.2l8.8,1.2c1-5,2.7-8.6,5.2-10.8s5.4-3.3,8.9-3.3c4.1,0,7.6,1.4,10.5,4.3
					c2.9,2.9,4.3,6.4,4.3,10.7c0,4-1.3,7.4-4,10c-2.6,2.6-6,3.9-10.1,3.9c-1.7,0-3.7-0.3-6.2-1l1,7.7c0.6-0.1,1.1-0.1,1.4-0.1
					c3.8,0,7.1,1,10.1,2.9c3,2,4.5,5,4.5,9c0,3.2-1.1,5.9-3.3,8c-2.2,2.1-5,3.2-8.4,3.2c-3.4,0-6.3-1.1-8.5-3.2
					c-2.3-2.1-3.7-5.4-4.4-9.7l-8.8,1.6c1.1,5.9,3.5,10.4,7.3,13.7c3.8,3.2,8.6,4.9,14.2,4.9c3.9,0,7.5-0.8,10.8-2.5
					c3.3-1.7,5.8-4,7.5-6.9c1.8-2.9,2.6-6,2.6-9.2c0-3.1-0.8-5.9-2.5-8.4c-1.7-2.5-4.1-4.6-7.4-6.1c4.2-1,7.5-3,9.9-6.1
					c2.3-3.1,3.5-6.9,3.5-11.5c0-6.2-2.3-11.5-6.8-15.9c-4.6-4.3-10.3-6.5-17.3-6.5c-6.3,0-11.5,1.9-15.7,5.6
					C7.2,154.4,4.8,159.3,4.2,165.2z"/>
			</g>
		</g>
	</g>
</g>
<g id="xtick_12">
	<g id="text_22">
		<g transform="translate(1343.93022 994.85605)scale(0.4 -0.4)">
			<g>
				<path id="ArialMT-34_1_" class="st1" d="M32.3,146.3v17.1H1.3v8.1l32.7,46.4h7.2v-46.4h9.7v-8.1h-9.7v-17.1H32.3z M32.3,171.5
					v32.3L9.9,171.5H32.3z"/>
			</g>
		</g>
	</g>
</g>
<g id="xtick_13">
	<g id="text_23">
		<g transform="translate(1490.382813 994.85605)scale(0.4 -0.4)">
			<g>
				<path id="ArialMT-35_1_" class="st1" d="M4.2,165.1l9.2,0.8c0.7-4.5,2.3-7.9,4.8-10.1c2.5-2.3,5.5-3.4,9-3.4
					c4.2,0,7.8,1.6,10.7,4.8c2.9,3.2,4.4,7.4,4.4,12.7c0,5-1.4,9-4.2,11.9c-2.8,2.9-6.5,4.4-11.1,4.4c-2.8,0-5.4-0.6-7.7-1.9
					c-2.3-1.3-4.1-2.9-5.4-5l-8.2,1.1l6.9,36.8h35.6v-8.4H19.7l-3.8-19.2c4.3,3,8.8,4.5,13.5,4.5c6.2,0,11.5-2.2,15.8-6.5
					c4.3-4.3,6.5-9.9,6.5-16.7c0-6.5-1.9-12.1-5.7-16.8c-4.6-5.8-10.9-8.7-18.8-8.7c-6.5,0-11.8,1.8-16,5.5
					C7.1,154.2,4.7,159,4.2,165.1z"/>
			</g>
		</g>
	</g>
</g>
<g id="ytick_6">
	<g id="text_25">
		<g transform="translate(812.037074 886.028808)scale(0.4 -0.4)">
			<g>
				<path id="ArialMT-36_2_" class="st1" d="M49.8,200.4l-8.7-0.7c-0.8,3.4-1.9,6-3.3,7.5c-2.4,2.5-5.3,3.8-8.8,3.8
					c-2.8,0-5.3-0.8-7.4-2.3c-2.8-2-4.9-5-6.5-8.8c-1.6-3.9-2.4-9.4-2.5-16.5c2.1,3.2,4.7,5.6,7.8,7.2s6.3,2.3,9.6,2.3
					c5.9,0,10.8-2.2,15-6.5c4.1-4.3,6.2-9.9,6.2-16.7c0-4.5-1-8.7-2.9-12.5c-1.9-3.9-4.6-6.8-8-8.9c-3.4-2.1-7.2-3.1-11.5-3.1
					c-7.3,0-13.3,2.7-17.9,8.1c-4.6,5.4-6.9,14.3-6.9,26.6c0,13.8,2.6,23.9,7.7,30.2c4.5,5.5,10.5,8.2,18,8.2
					c5.6,0,10.2-1.6,13.8-4.7C46.9,210.3,49,205.9,49.8,200.4z M13.9,169.5c0-3,0.6-5.9,1.9-8.7c1.3-2.8,3.1-4.9,5.4-6.3
					c2.3-1.4,4.7-2.2,7.3-2.2c3.7,0,6.9,1.5,9.6,4.5c2.7,3,4,7.1,4,12.2c0,4.9-1.3,8.8-4,11.7c-2.6,2.9-6,4.3-10,4.3
					c-4,0-7.3-1.4-10.1-4.3C15.3,177.9,13.9,174.1,13.9,169.5z"/>
			</g>
			<g>
				<path id="ArialMT-35_2_" class="st1" d="M59.8,165.1l9.2,0.8c0.7-4.5,2.3-7.9,4.8-10.1c2.5-2.3,5.5-3.4,9-3.4
					c4.2,0,7.8,1.6,10.7,4.8c2.9,3.2,4.4,7.4,4.4,12.7c0,5-1.4,9-4.2,11.9c-2.8,2.9-6.5,4.4-11.1,4.4c-2.8,0-5.4-0.6-7.7-1.9
					c-2.3-1.3-4.1-2.9-5.4-5l-8.2,1.1l6.9,36.8h35.6v-8.4H75.3l-3.8-19.2c4.3,3,8.8,4.5,13.5,4.5c6.2,0,11.5-2.2,15.8-6.5
					c4.3-4.3,6.5-9.9,6.5-16.7c0-6.5-1.9-12.1-5.7-16.8c-4.6-5.8-10.9-8.7-18.8-8.7c-6.5,0-11.8,1.8-16,5.5
					C62.7,154.2,60.4,159,59.8,165.1z"/>
			</g>
			<g>
				<path id="ArialMT-30_19_" class="st1" d="M115.4,181.6c0,8.5,0.9,15.3,2.6,20.4c1.7,5.2,4.3,9.1,7.8,11.9
					c3.4,2.8,7.8,4.2,13,4.2c3.8,0,7.2-0.8,10.1-2.3c2.9-1.5,5.3-3.8,7.2-6.7c1.9-2.9,3.4-6.5,4.5-10.6c1.1-4.2,1.6-9.8,1.6-16.9
					c0-8.4-0.9-15.2-2.6-20.3c-1.7-5.2-4.3-9.1-7.7-12c-3.4-2.8-7.8-4.2-13-4.2c-6.9,0-12.3,2.5-16.2,7.4
					C117.7,158.5,115.4,168.2,115.4,181.6z M124.4,181.6c0-11.8,1.4-19.6,4.1-23.5c2.8-3.9,6.1-5.8,10.2-5.8c4,0,7.4,2,10.2,5.9
					s4.1,11.7,4.1,23.4c0,11.8-1.4,19.6-4.1,23.5c-2.8,3.9-6.2,5.8-10.3,5.8c-4,0-7.3-1.7-9.7-5.1
					C125.9,201.4,124.4,193.4,124.4,181.6z"/>
			</g>
		</g>
	</g>
</g>
<g id="ytick_7">
	<g id="text_26">
		<g transform="translate(812.037074 775.917024)scale(0.4 -0.4)">
			<g>
				<path id="ArialMT-37_2_" class="st1" d="M4.7,208.5v8.5h46.3v-6.8c-4.6-4.8-9.1-11.3-13.6-19.3c-4.5-8-7.9-16.3-10.4-24.8
					c-1.8-6-2.9-12.5-3.4-19.7h-9c0.1,5.6,1.2,12.4,3.3,20.4c2.1,8,5.2,15.7,9.1,23.1s8.2,13.6,12.6,18.7H4.7z"/>
			</g>
			<g>
				<path id="ArialMT-30_20_" class="st1" d="M59.8,181.6c0,8.5,0.9,15.3,2.6,20.4c1.7,5.2,4.3,9.1,7.8,11.9c3.4,2.8,7.8,4.2,13,4.2
					c3.8,0,7.2-0.8,10.1-2.3c2.9-1.5,5.3-3.8,7.2-6.7c1.9-2.9,3.4-6.5,4.5-10.6c1.1-4.2,1.6-9.8,1.6-16.9c0-8.4-0.9-15.2-2.6-20.3
					c-1.7-5.2-4.3-9.1-7.7-12c-3.4-2.8-7.8-4.2-13-4.2c-6.9,0-12.3,2.5-16.2,7.4C62.1,158.5,59.8,168.2,59.8,181.6z M68.8,181.6
					c0-11.8,1.4-19.6,4.1-23.5c2.8-3.9,6.1-5.8,10.2-5.8c4,0,7.4,2,10.2,5.9s4.1,11.7,4.1,23.4c0,11.8-1.4,19.6-4.1,23.5
					c-2.8,3.9-6.2,5.8-10.3,5.8c-4,0-7.3-1.7-9.7-5.1C70.3,201.4,68.8,193.4,68.8,181.6z"/>
			</g>
			<g>
				<path id="ArialMT-30_21_" class="st1" d="M115.4,181.6c0,8.5,0.9,15.3,2.6,20.4c1.7,5.2,4.3,9.1,7.8,11.9
					c3.4,2.8,7.8,4.2,13,4.2c3.8,0,7.2-0.8,10.1-2.3c2.9-1.5,5.3-3.8,7.2-6.7c1.9-2.9,3.4-6.5,4.5-10.6c1.1-4.2,1.6-9.8,1.6-16.9
					c0-8.4-0.9-15.2-2.6-20.3c-1.7-5.2-4.3-9.1-7.7-12c-3.4-2.8-7.8-4.2-13-4.2c-6.9,0-12.3,2.5-16.2,7.4
					C117.7,158.5,115.4,168.2,115.4,181.6z M124.4,181.6c0-11.8,1.4-19.6,4.1-23.5c2.8-3.9,6.1-5.8,10.2-5.8c4,0,7.4,2,10.2,5.9
					s4.1,11.7,4.1,23.4c0,11.8-1.4,19.6-4.1,23.5c-2.8,3.9-6.2,5.8-10.3,5.8c-4,0-7.3-1.7-9.7-5.1
					C125.9,201.4,124.4,193.4,124.4,181.6z"/>
			</g>
		</g>
	</g>
</g>
<g id="ytick_8">
	<g id="text_27">
		<g transform="translate(812.037074 665.80524)scale(0.4 -0.4)">
			<g>
				<path id="ArialMT-37_3_" class="st1" d="M4.7,208.5v8.5h46.3v-6.8c-4.6-4.8-9.1-11.3-13.6-19.3c-4.5-8-7.9-16.3-10.4-24.8
					c-1.8-6-2.9-12.5-3.4-19.7h-9c0.1,5.6,1.2,12.4,3.3,20.4c2.1,8,5.2,15.7,9.1,23.1s8.2,13.6,12.6,18.7H4.7z"/>
			</g>
			<g>
				<path id="ArialMT-35_3_" class="st1" d="M59.8,165.1l9.2,0.8c0.7-4.5,2.3-7.9,4.8-10.1c2.5-2.3,5.5-3.4,9-3.4
					c4.2,0,7.8,1.6,10.7,4.8c2.9,3.2,4.4,7.4,4.4,12.7c0,5-1.4,9-4.2,11.9c-2.8,2.9-6.5,4.4-11.1,4.4c-2.8,0-5.4-0.6-7.7-1.9
					c-2.3-1.3-4.1-2.9-5.4-5l-8.2,1.1l6.9,36.8h35.6v-8.4H75.3l-3.8-19.2c4.3,3,8.8,4.5,13.5,4.5c6.2,0,11.5-2.2,15.8-6.5
					c4.3-4.3,6.5-9.9,6.5-16.7c0-6.5-1.9-12.1-5.7-16.8c-4.6-5.8-10.9-8.7-18.8-8.7c-6.5,0-11.8,1.8-16,5.5
					C62.7,154.2,60.4,159,59.8,165.1z"/>
			</g>
			<g>
				<path id="ArialMT-30_22_" class="st1" d="M115.4,181.6c0,8.5,0.9,15.3,2.6,20.4c1.7,5.2,4.3,9.1,7.8,11.9
					c3.4,2.8,7.8,4.2,13,4.2c3.8,0,7.2-0.8,10.1-2.3c2.9-1.5,5.3-3.8,7.2-6.7c1.9-2.9,3.4-6.5,4.5-10.6c1.1-4.2,1.6-9.8,1.6-16.9
					c0-8.4-0.9-15.2-2.6-20.3c-1.7-5.2-4.3-9.1-7.7-12c-3.4-2.8-7.8-4.2-13-4.2c-6.9,0-12.3,2.5-16.2,7.4
					C117.7,158.5,115.4,168.2,115.4,181.6z M124.4,181.6c0-11.8,1.4-19.6,4.1-23.5c2.8-3.9,6.1-5.8,10.2-5.8c4,0,7.4,2,10.2,5.9
					s4.1,11.7,4.1,23.4c0,11.8-1.4,19.6-4.1,23.5c-2.8,3.9-6.2,5.8-10.3,5.8c-4,0-7.3-1.7-9.7-5.1
					C125.9,201.4,124.4,193.4,124.4,181.6z"/>
			</g>
		</g>
	</g>
</g>
<g id="ytick_9">
	<g id="text_28">
		<g transform="translate(812.037074 555.693456)scale(0.4 -0.4)">
			<g>
				<path id="ArialMT-38_2_" class="st1" d="M17.7,185.1c-3.6,1.3-6.3,3.2-8.1,5.7c-1.8,2.5-2.6,5.4-2.6,8.9c0,5.2,1.9,9.6,5.6,13.1
					c3.8,3.6,8.7,5.3,14.9,5.3c6.2,0,11.3-1.8,15.1-5.5c3.8-3.6,5.7-8,5.7-13.2c0-3.3-0.9-6.2-2.6-8.7c-1.7-2.4-4.4-4.3-7.9-5.7
					c4.4-1.4,7.7-3.7,10-6.9c2.3-3.2,3.4-7,3.4-11.4c0-6.1-2.2-11.3-6.5-15.4c-4.3-4.2-10-6.2-17.1-6.2s-12.8,2.1-17.1,6.3
					C6.2,155.5,4,160.8,4,167c0,4.7,1.2,8.6,3.5,11.7C10,181.8,13.3,184,17.7,185.1z M15.9,200c0-3.4,1.1-6.2,3.3-8.3
					c2.2-2.1,5-3.2,8.5-3.2c3.4,0,6.2,1.1,8.3,3.2c2.2,2.1,3.2,4.8,3.2,7.8c0,3.2-1.1,5.9-3.4,8.1c-2.2,2.2-5,3.3-8.3,3.3
					c-3.4,0-6.1-1.1-8.4-3.2C17,205.6,15.9,203,15.9,200z M13.1,167c0-2.5,0.6-4.9,1.8-7.3s3-4.2,5.3-5.5c2.3-1.3,4.9-1.9,7.6-1.9
					c4.2,0,7.7,1.3,10.4,4c2.7,2.7,4.1,6.1,4.1,10.3c0,4.2-1.4,7.7-4.2,10.5s-6.3,4.2-10.6,4.2c-4.1,0-7.6-1.4-10.3-4.1
					C14.4,174.5,13.1,171.1,13.1,167z"/>
			</g>
			<g>
				<path id="ArialMT-30_23_" class="st1" d="M59.8,181.6c0,8.5,0.9,15.3,2.6,20.4c1.7,5.2,4.3,9.1,7.8,11.9c3.4,2.8,7.8,4.2,13,4.2
					c3.8,0,7.2-0.8,10.1-2.3c2.9-1.5,5.3-3.8,7.2-6.7c1.9-2.9,3.4-6.5,4.5-10.6c1.1-4.2,1.6-9.8,1.6-16.9c0-8.4-0.9-15.2-2.6-20.3
					c-1.7-5.2-4.3-9.1-7.7-12c-3.4-2.8-7.8-4.2-13-4.2c-6.9,0-12.3,2.5-16.2,7.4C62.1,158.5,59.8,168.2,59.8,181.6z M68.8,181.6
					c0-11.8,1.4-19.6,4.1-23.5c2.8-3.9,6.1-5.8,10.2-5.8c4,0,7.4,2,10.2,5.9s4.1,11.7,4.1,23.4c0,11.8-1.4,19.6-4.1,23.5
					c-2.8,3.9-6.2,5.8-10.3,5.8c-4,0-7.3-1.7-9.7-5.1C70.3,201.4,68.8,193.4,68.8,181.6z"/>
			</g>
			<g>
				<path id="ArialMT-30_24_" class="st1" d="M115.4,181.6c0,8.5,0.9,15.3,2.6,20.4c1.7,5.2,4.3,9.1,7.8,11.9
					c3.4,2.8,7.8,4.2,13,4.2c3.8,0,7.2-0.8,10.1-2.3c2.9-1.5,5.3-3.8,7.2-6.7c1.9-2.9,3.4-6.5,4.5-10.6c1.1-4.2,1.6-9.8,1.6-16.9
					c0-8.4-0.9-15.2-2.6-20.3c-1.7-5.2-4.3-9.1-7.7-12c-3.4-2.8-7.8-4.2-13-4.2c-6.9,0-12.3,2.5-16.2,7.4
					C117.7,158.5,115.4,168.2,115.4,181.6z M124.4,181.6c0-11.8,1.4-19.6,4.1-23.5c2.8-3.9,6.1-5.8,10.2-5.8c4,0,7.4,2,10.2,5.9
					s4.1,11.7,4.1,23.4c0,11.8-1.4,19.6-4.1,23.5c-2.8,3.9-6.2,5.8-10.3,5.8c-4,0-7.3-1.7-9.7-5.1
					C125.9,201.4,124.4,193.4,124.4,181.6z"/>
			</g>
		</g>
	</g>
</g>
<g id="ytick_10">
	<g id="text_29">
		<g transform="translate(812.037074 445.581671)scale(0.4 -0.4)">
			<g>
				<path id="ArialMT-38_3_" class="st1" d="M17.7,185.1c-3.6,1.3-6.3,3.2-8.1,5.7c-1.8,2.5-2.6,5.4-2.6,8.9c0,5.2,1.9,9.6,5.6,13.1
					c3.8,3.6,8.7,5.3,14.9,5.3c6.2,0,11.3-1.8,15.1-5.5c3.8-3.6,5.7-8,5.7-13.2c0-3.3-0.9-6.2-2.6-8.7c-1.7-2.4-4.4-4.3-7.9-5.7
					c4.4-1.4,7.7-3.7,10-6.9c2.3-3.2,3.4-7,3.4-11.4c0-6.1-2.2-11.3-6.5-15.4c-4.3-4.2-10-6.2-17.1-6.2s-12.8,2.1-17.1,6.3
					C6.2,155.5,4,160.8,4,167c0,4.7,1.2,8.6,3.5,11.7C10,181.8,13.3,184,17.7,185.1z M15.9,200c0-3.4,1.1-6.2,3.3-8.3
					c2.2-2.1,5-3.2,8.5-3.2c3.4,0,6.2,1.1,8.3,3.2c2.2,2.1,3.2,4.8,3.2,7.8c0,3.2-1.1,5.9-3.4,8.1c-2.2,2.2-5,3.3-8.3,3.3
					c-3.4,0-6.1-1.1-8.4-3.2C17,205.6,15.9,203,15.9,200z M13.1,167c0-2.5,0.6-4.9,1.8-7.3s3-4.2,5.3-5.5c2.3-1.3,4.9-1.9,7.6-1.9
					c4.2,0,7.7,1.3,10.4,4c2.7,2.7,4.1,6.1,4.1,10.3c0,4.2-1.4,7.7-4.2,10.5s-6.3,4.2-10.6,4.2c-4.1,0-7.6-1.4-10.3-4.1
					C14.4,174.5,13.1,171.1,13.1,167z"/>
			</g>
			<g>
				<path id="ArialMT-35_4_" class="st1" d="M59.8,165.1l9.2,0.8c0.7-4.5,2.3-7.9,4.8-10.1c2.5-2.3,5.5-3.4,9-3.4
					c4.2,0,7.8,1.6,10.7,4.8c2.9,3.2,4.4,7.4,4.4,12.7c0,5-1.4,9-4.2,11.9c-2.8,2.9-6.5,4.4-11.1,4.4c-2.8,0-5.4-0.6-7.7-1.9
					c-2.3-1.3-4.1-2.9-5.4-5l-8.2,1.1l6.9,36.8h35.6v-8.4H75.3l-3.8-19.2c4.3,3,8.8,4.5,13.5,4.5c6.2,0,11.5-2.2,15.8-6.5
					c4.3-4.3,6.5-9.9,6.5-16.7c0-6.5-1.9-12.1-5.7-16.8c-4.6-5.8-10.9-8.7-18.8-8.7c-6.5,0-11.8,1.8-16,5.5
					C62.7,154.2,60.4,159,59.8,165.1z"/>
			</g>
			<g>
				<path id="ArialMT-30_25_" class="st1" d="M115.4,181.6c0,8.5,0.9,15.3,2.6,20.4c1.7,5.2,4.3,9.1,7.8,11.9
					c3.4,2.8,7.8,4.2,13,4.2c3.8,0,7.2-0.8,10.1-2.3c2.9-1.5,5.3-3.8,7.2-6.7c1.9-2.9,3.4-6.5,4.5-10.6c1.1-4.2,1.6-9.8,1.6-16.9
					c0-8.4-0.9-15.2-2.6-20.3c-1.7-5.2-4.3-9.1-7.7-12c-3.4-2.8-7.8-4.2-13-4.2c-6.9,0-12.3,2.5-16.2,7.4
					C117.7,158.5,115.4,168.2,115.4,181.6z M124.4,181.6c0-11.8,1.4-19.6,4.1-23.5c2.8-3.9,6.1-5.8,10.2-5.8c4,0,7.4,2,10.2,5.9
					s4.1,11.7,4.1,23.4c0,11.8-1.4,19.6-4.1,23.5c-2.8,3.9-6.2,5.8-10.3,5.8c-4,0-7.3-1.7-9.7-5.1
					C125.9,201.4,124.4,193.4,124.4,181.6z"/>
			</g>
		</g>
	</g>
</g>
<g id="ytick_11">
	<g id="text_30">
		<g transform="translate(812.037074 335.469887)scale(0.4 -0.4)">
			<g>
				<path id="ArialMT-39_2_" class="st1" d="M5.5,162.9l8.5,0.8c0.7-4,2.1-6.8,4.1-8.6s4.6-2.7,7.8-2.7c2.7,0,5.1,0.6,7.1,1.9
					c2,1.2,3.7,2.9,5,5c1.3,2.1,2.4,4.9,3.3,8.4c0.9,3.5,1.3,7.1,1.3,10.8c0,0.4,0,1,0,1.8c-1.8-2.8-4.2-5.1-7.2-6.8
					c-3-1.7-6.3-2.6-9.9-2.6c-5.9,0-10.9,2.1-15,6.4c-4.1,4.3-6.1,10-6.1,17c0,7.3,2.1,13.1,6.4,17.5c4.3,4.4,9.6,6.6,16.1,6.6
					c4.7,0,8.9-1.3,12.8-3.8c3.9-2.5,6.8-6.1,8.8-10.7c2-4.6,3-11.3,3-20.1c0-9.1-1-16.4-3-21.8c-2-5.4-4.9-9.5-8.9-12.4
					c-3.9-2.8-8.5-4.2-13.8-4.2c-5.6,0-10.2,1.6-13.7,4.7C8.3,152.9,6.2,157.2,5.5,162.9z M41.5,194.4c0,5.1-1.3,9.1-4,12
					c-2.7,3-5.9,4.4-9.7,4.4c-3.9,0-7.3-1.6-10.2-4.8s-4.3-7.3-4.3-12.4c0-4.6,1.4-8.3,4.1-11.1c2.8-2.8,6.1-4.3,10.2-4.3
					c4.1,0,7.4,1.4,10,4.3C40.1,185.5,41.5,189.4,41.5,194.4z"/>
			</g>
			<g>
				<path id="ArialMT-30_26_" class="st1" d="M59.8,181.6c0,8.5,0.9,15.3,2.6,20.4c1.7,5.2,4.3,9.1,7.8,11.9c3.4,2.8,7.8,4.2,13,4.2
					c3.8,0,7.2-0.8,10.1-2.3c2.9-1.5,5.3-3.8,7.2-6.7c1.9-2.9,3.4-6.5,4.5-10.6c1.1-4.2,1.6-9.8,1.6-16.9c0-8.4-0.9-15.2-2.6-20.3
					c-1.7-5.2-4.3-9.1-7.7-12c-3.4-2.8-7.8-4.2-13-4.2c-6.9,0-12.3,2.5-16.2,7.4C62.1,158.5,59.8,168.2,59.8,181.6z M68.8,181.6
					c0-11.8,1.4-19.6,4.1-23.5c2.8-3.9,6.1-5.8,10.2-5.8c4,0,7.4,2,10.2,5.9s4.1,11.7,4.1,23.4c0,11.8-1.4,19.6-4.1,23.5
					c-2.8,3.9-6.2,5.8-10.3,5.8c-4,0-7.3-1.7-9.7-5.1C70.3,201.4,68.8,193.4,68.8,181.6z"/>
			</g>
			<g>
				<path id="ArialMT-30_27_" class="st1" d="M115.4,181.6c0,8.5,0.9,15.3,2.6,20.4c1.7,5.2,4.3,9.1,7.8,11.9
					c3.4,2.8,7.8,4.2,13,4.2c3.8,0,7.2-0.8,10.1-2.3c2.9-1.5,5.3-3.8,7.2-6.7c1.9-2.9,3.4-6.5,4.5-10.6c1.1-4.2,1.6-9.8,1.6-16.9
					c0-8.4-0.9-15.2-2.6-20.3c-1.7-5.2-4.3-9.1-7.7-12c-3.4-2.8-7.8-4.2-13-4.2c-6.9,0-12.3,2.5-16.2,7.4
					C117.7,158.5,115.4,168.2,115.4,181.6z M124.4,181.6c0-11.8,1.4-19.6,4.1-23.5c2.8-3.9,6.1-5.8,10.2-5.8c4,0,7.4,2,10.2,5.9
					s4.1,11.7,4.1,23.4c0,11.8-1.4,19.6-4.1,23.5c-2.8,3.9-6.2,5.8-10.3,5.8c-4,0-7.3-1.7-9.7-5.1
					C125.9,201.4,124.4,193.4,124.4,181.6z"/>
			</g>
		</g>
	</g>
</g>
<g id="ytick_12">
	<g id="text_31">
		<g transform="translate(812.037074 225.358103)scale(0.4 -0.4)">
			<g>
				<path id="ArialMT-39_3_" class="st1" d="M5.5,162.9l8.5,0.8c0.7-4,2.1-6.8,4.1-8.6c2-1.8,4.6-2.7,7.8-2.7c2.7,0,5.1,0.6,7.1,1.9
					c2,1.2,3.7,2.9,5,5c1.3,2.1,2.4,4.9,3.3,8.4c0.9,3.5,1.3,7.1,1.3,10.8c0,0.4,0,1,0,1.8c-1.8-2.8-4.2-5.1-7.2-6.8
					c-3-1.7-6.3-2.6-9.9-2.6c-5.9,0-10.9,2.1-15,6.4c-4.1,4.3-6.1,10-6.1,17c0,7.3,2.1,13.1,6.4,17.5c4.3,4.4,9.6,6.6,16.1,6.6
					c4.7,0,8.9-1.3,12.8-3.8c3.9-2.5,6.8-6.1,8.8-10.7c2-4.6,3-11.3,3-20.1c0-9.1-1-16.4-3-21.8c-2-5.4-4.9-9.5-8.9-12.4
					c-3.9-2.8-8.5-4.2-13.8-4.2c-5.6,0-10.2,1.6-13.7,4.7C8.3,152.9,6.2,157.2,5.5,162.9z M41.5,194.4c0,5.1-1.3,9.1-4,12
					c-2.7,3-5.9,4.4-9.7,4.4c-3.9,0-7.3-1.6-10.2-4.8s-4.3-7.3-4.3-12.4c0-4.6,1.4-8.3,4.1-11.1c2.8-2.8,6.1-4.3,10.2-4.3
					c4.1,0,7.4,1.4,10,4.3C40.1,185.5,41.5,189.4,41.5,194.4z"/>
			</g>
			<g>
				<path id="ArialMT-35_5_" class="st1" d="M59.8,165.1l9.2,0.8c0.7-4.5,2.3-7.9,4.8-10.1c2.5-2.3,5.5-3.4,9-3.4
					c4.2,0,7.8,1.6,10.7,4.8c2.9,3.2,4.4,7.4,4.4,12.7c0,5-1.4,9-4.2,11.9c-2.8,2.9-6.5,4.4-11.1,4.4c-2.8,0-5.4-0.6-7.7-1.9
					c-2.3-1.3-4.1-2.9-5.4-5l-8.2,1.1l6.9,36.8h35.6v-8.4H75.3l-3.8-19.2c4.3,3,8.8,4.5,13.5,4.5c6.2,0,11.5-2.2,15.8-6.5
					c4.3-4.3,6.5-9.9,6.5-16.7c0-6.5-1.9-12.1-5.7-16.8c-4.6-5.8-10.9-8.7-18.8-8.7c-6.5,0-11.8,1.8-16,5.5
					C62.7,154.2,60.4,159,59.8,165.1z"/>
			</g>
			<g>
				<path id="ArialMT-30_28_" class="st1" d="M115.4,181.6c0,8.5,0.9,15.3,2.6,20.4c1.7,5.2,4.3,9.1,7.8,11.9
					c3.4,2.8,7.8,4.2,13,4.2c3.8,0,7.2-0.8,10.1-2.3c2.9-1.5,5.3-3.8,7.2-6.7c1.9-2.9,3.4-6.5,4.5-10.6c1.1-4.2,1.6-9.8,1.6-16.9
					c0-8.4-0.9-15.2-2.6-20.3c-1.7-5.2-4.3-9.1-7.7-12c-3.4-2.8-7.8-4.2-13-4.2c-6.9,0-12.3,2.5-16.2,7.4
					C117.7,158.5,115.4,168.2,115.4,181.6z M124.4,181.6c0-11.8,1.4-19.6,4.1-23.5c2.8-3.9,6.1-5.8,10.2-5.8c4,0,7.4,2,10.2,5.9
					s4.1,11.7,4.1,23.4c0,11.8-1.4,19.6-4.1,23.5c-2.8,3.9-6.2,5.8-10.3,5.8c-4,0-7.3-1.7-9.7-5.1
					C125.9,201.4,124.4,193.4,124.4,181.6z"/>
			</g>
		</g>
	</g>
</g>
<g id="ytick_13">
	<g id="text_32">
		<g transform="translate(789.793324 115.246319)scale(0.4 -0.4)">
			<g>
				<path id="ArialMT-31_3_" class="st1" d="M37.2,146.3h-8.8v56c-2.1-2-4.9-4-8.3-6s-6.5-3.5-9.2-4.5v8.5c4.9,2.3,9.2,5.1,12.9,8.4
					c3.7,3.3,6.3,6.5,7.8,9.6h5.7V146.3z"/>
			</g>
			<g>
				<path id="ArialMT-30_29_" class="st1" d="M59.8,181.6c0,8.5,0.9,15.3,2.6,20.4c1.7,5.2,4.3,9.1,7.8,11.9c3.4,2.8,7.8,4.2,13,4.2
					c3.8,0,7.2-0.8,10.1-2.3c2.9-1.5,5.3-3.8,7.2-6.7c1.9-2.9,3.4-6.5,4.5-10.6c1.1-4.2,1.6-9.8,1.6-16.9c0-8.4-0.9-15.2-2.6-20.3
					c-1.7-5.2-4.3-9.1-7.7-12c-3.4-2.8-7.8-4.2-13-4.2c-6.9,0-12.3,2.5-16.2,7.4C62.1,158.5,59.8,168.2,59.8,181.6z M68.8,181.6
					c0-11.8,1.4-19.6,4.1-23.5c2.8-3.9,6.1-5.8,10.2-5.8c4,0,7.4,2,10.2,5.9s4.1,11.7,4.1,23.4c0,11.8-1.4,19.6-4.1,23.5
					c-2.8,3.9-6.2,5.8-10.3,5.8c-4,0-7.3-1.7-9.7-5.1C70.3,201.4,68.8,193.4,68.8,181.6z"/>
			</g>
			<g>
				<path id="ArialMT-30_30_" class="st1" d="M115.4,181.6c0,8.5,0.9,15.3,2.6,20.4c1.7,5.2,4.3,9.1,7.8,11.9
					c3.4,2.8,7.8,4.2,13,4.2c3.8,0,7.2-0.8,10.1-2.3c2.9-1.5,5.3-3.8,7.2-6.7c1.9-2.9,3.4-6.5,4.5-10.6c1.1-4.2,1.6-9.8,1.6-16.9
					c0-8.4-0.9-15.2-2.6-20.3c-1.7-5.2-4.3-9.1-7.7-12c-3.4-2.8-7.8-4.2-13-4.2c-6.9,0-12.3,2.5-16.2,7.4
					C117.7,158.5,115.4,168.2,115.4,181.6z M124.4,181.6c0-11.8,1.4-19.6,4.1-23.5c2.8-3.9,6.1-5.8,10.2-5.8c4,0,7.4,2,10.2,5.9
					s4.1,11.7,4.1,23.4c0,11.8-1.4,19.6-4.1,23.5c-2.8,3.9-6.2,5.8-10.3,5.8c-4,0-7.3-1.7-9.7-5.1
					C125.9,201.4,124.4,193.4,124.4,181.6z"/>
			</g>
			<g>
				<path id="ArialMT-30_31_" class="st1" d="M171,181.6c0,8.5,0.9,15.3,2.6,20.4c1.7,5.2,4.3,9.1,7.8,11.9c3.4,2.8,7.8,4.2,13,4.2
					c3.8,0,7.2-0.8,10.1-2.3c2.9-1.5,5.3-3.8,7.2-6.7c1.9-2.9,3.4-6.5,4.5-10.6c1.1-4.2,1.6-9.8,1.6-16.9c0-8.4-0.9-15.2-2.6-20.3
					c-1.7-5.2-4.3-9.1-7.7-12c-3.4-2.8-7.8-4.2-13-4.2c-6.9,0-12.3,2.5-16.2,7.4C173.4,158.5,171,168.2,171,181.6z M180,181.6
					c0-11.8,1.4-19.6,4.1-23.5c2.8-3.9,6.1-5.8,10.2-5.8c4,0,7.4,2,10.2,5.9s4.1,11.7,4.1,23.4c0,11.8-1.4,19.6-4.1,23.5
					c-2.8,3.9-6.2,5.8-10.3,5.8c-4,0-7.3-1.7-9.7-5.1C181.5,201.4,180,193.4,180,181.6z"/>
			</g>
		</g>
	</g>
</g>
<g id="text_33">
	<g transform="translate(776.32223 668.300175)rotate(-90)scale(0.45 -0.45)">
		<g>
			<path id="ArialMT-4d_1_" class="st1" d="M73.1-52.1v85.9h17.1L110.6-27c1.9-5.7,3.2-9.9,4.1-12.7c1,3.1,2.5,7.7,4.6,13.8
				l20.6,59.8h15.3v-85.9h-10.9v71.9l-25-71.9h-10.3L84.1,21v-73.1H73.1z"/>
		</g>
		<g>
			<path id="ArialMT-65_3_" class="st1" d="M214.7-32.1l10.9-1.3c-1.7-6.4-4.9-11.3-9.5-14.8c-4.6-3.5-10.6-5.3-17.8-5.3
				c-9.1,0-16.3,2.8-21.7,8.4c-5.3,5.6-8,13.5-8,23.6c0,10.5,2.7,18.6,8.1,24.4c5.4,5.8,12.4,8.7,21,8.7c8.3,0,15.1-2.8,20.4-8.5
				c5.3-5.7,7.9-13.6,7.9-23.9c0-0.6,0-1.6-0.1-2.8h-46.4c0.4-6.8,2.3-12.1,5.8-15.7c3.5-3.6,7.8-5.4,13-5.4c3.9,0,7.2,1,9.9,3
				C210.9-39.7,213.1-36.5,214.7-32.1z M180-15h34.7c-0.5,5.2-1.8,9.2-4,11.8c-3.4,4.1-7.7,6.1-13.1,6.1c-4.9,0-8.9-1.6-12.2-4.9
				C182.2-5.2,180.4-9.6,180-15z"/>
		</g>
		<g>
			<path id="ArialMT-61_3_" class="st1" d="M279.4-44.4c-3.9-3.3-7.7-5.7-11.3-7c-3.6-1.4-7.5-2-11.6-2c-6.8,0-12.1,1.7-15.8,5
				c-3.7,3.3-5.5,7.6-5.5,12.8c0,3,0.7,5.8,2.1,8.3c1.4,2.5,3.2,4.5,5.5,6.1s4.8,2.7,7.6,3.5c2.1,0.5,5.2,1.1,9.4,1.6
				c8.5,1,14.8,2.2,18.8,3.6c0,1.4,0.1,2.4,0.1,2.8c0,4.3-1,7.3-3,9.1c-2.7,2.4-6.7,3.6-12,3.6c-5,0-8.6-0.9-11-2.6
				c-2.4-1.7-4.1-4.8-5.2-9.2l-10.3,1.4c0.9,4.4,2.5,8,4.6,10.7c2.2,2.7,5.3,4.8,9.3,6.3c4.1,1.5,8.8,2.2,14.1,2.2
				c5.3,0,9.6-0.6,12.9-1.9c3.3-1.3,5.8-2.8,7.3-4.7c1.6-1.9,2.7-4.3,3.3-7.2c0.4-1.8,0.5-5,0.5-9.7V-26c0-9.8,0.2-16,0.7-18.6
				c0.4-2.6,1.3-5.1,2.7-7.5h-11C280.4-49.9,279.7-47.4,279.4-44.4z M278.5-20.9c-3.8-1.6-9.6-2.9-17.2-4c-4.3-0.6-7.4-1.3-9.2-2.1
				c-1.8-0.8-3.2-1.9-4.2-3.4c-1-1.5-1.5-3.2-1.5-5c0-2.8,1.1-5.2,3.2-7c2.1-1.9,5.3-2.8,9.4-2.8c4.1,0,7.7,0.9,10.8,2.7
				s5.5,4.2,7,7.3c1.1,2.4,1.7,5.9,1.7,10.5V-20.9z"/>
		</g>
		<g>
			<path id="ArialMT-6e_2_" class="st1" d="M305.6-52.1v62.2h9.5V1.3c4.6,6.8,11.2,10.3,19.8,10.3c3.8,0,7.2-0.7,10.4-2
				s5.5-3.1,7.1-5.3s2.7-4.8,3.3-7.8c0.4-2,0.6-5.4,0.6-10.3v-38.3h-10.6v37.9c0,4.3-0.4,7.5-1.2,9.6c-0.8,2.1-2.3,3.8-4.3,5.1
				c-2.1,1.3-4.5,1.9-7.4,1.9c-4.5,0-8.4-1.4-11.6-4.3c-3.3-2.8-4.9-8.3-4.9-16.2v-34H305.6z"/>
		</g>
		<g>
			<path id="ArialMT-20_2_" class="st1" d="M364.4-52.1"/>
		</g>
		<g>
			<path id="ArialMT-52_2_" class="st1" d="M407.2-52.1v85.9h38.1c7.7,0,13.5-0.8,17.5-2.3c4-1.5,7.2-4.3,9.6-8.2
				c2.4-3.9,3.6-8.2,3.6-12.9c0-6.1-2-11.2-5.9-15.4c-3.9-4.2-10-6.8-18.3-8c3-1.4,5.3-2.9,6.9-4.3c3.3-3,6.5-6.8,9.4-11.4
				l14.9-23.4h-14.3l-11.4,17.9c-3.3,5.2-6.1,9.1-8.2,11.8c-2.1,2.7-4.1,4.6-5.8,5.7c-1.7,1.1-3.4,1.9-5.2,2.3
				c-1.3,0.3-3.4,0.4-6.3,0.4h-13.2v-38.1H407.2z M418.5-4.1H443c5.2,0,9.2,0.5,12.2,1.6c2.9,1.1,5.2,2.8,6.7,5.2s2.3,4.9,2.3,7.7
				c0,4.1-1.5,7.4-4.4,10c-2.9,2.6-7.6,3.9-14,3.9h-27.2V-4.1z"/>
		</g>
		<g>
			<path id="ArialMT-54_2_" class="st1" d="M513.4-52.1v75.8h-28.3v10.1h68.1V23.7h-28.4v-75.8H513.4z"/>
		</g>
		<g>
			<path id="ArialMT-20_3_" class="st1" d="M553.5-52.1"/>
		</g>
		<g>
			<path id="ArialMT-28_1_" class="st1" d="M614.9-77.4c-5.8,7.3-10.8,15.9-14.8,25.8c-4,9.8-6,20-6,30.6c0,9.3,1.5,18.2,4.5,26.7
				c3.5,9.9,8.9,19.7,16.3,29.5h7.6c-4.7-8.1-7.8-13.9-9.4-17.4c-2.4-5.4-4.3-11-5.6-16.9c-1.7-7.3-2.5-14.6-2.5-22
				c0-18.8,5.8-37.6,17.5-56.3H614.9z"/>
		</g>
		<g>
			<path id="ArialMT-6d_2_" class="st1" d="M634.7-52.1v62.2h9.4V1.4c2,3.1,4.5,5.5,7.8,7.3c3.2,1.9,6.9,2.8,11.1,2.8
				c4.6,0,8.4-1,11.3-2.9c3-1.9,5-4.6,6.2-8c4.9,7.3,11.3,10.9,19.2,10.9c6.2,0,10.9-1.7,14.2-5.1c3.3-3.4,5-8.7,5-15.8v-42.7h-10.5
				v39.2c0,4.2-0.3,7.2-1,9.1c-0.7,1.9-1.9,3.4-3.7,4.5c-1.8,1.1-3.9,1.7-6.3,1.7c-4.4,0-8-1.5-10.9-4.4c-2.9-2.9-4.3-7.6-4.3-14
				v-36.2h-10.5v40.4c0,4.7-0.9,8.2-2.6,10.5c-1.7,2.3-4.5,3.5-8.4,3.5c-3,0-5.7-0.8-8.2-2.3c-2.5-1.6-4.3-3.8-5.5-6.9
				c-1.1-3-1.7-7.3-1.7-13v-32.3H634.7z"/>
		</g>
		<g>
			<path id="ArialMT-73_1_" class="st1" d="M730.4-33.5l10.4,1.6c0.6-4.2,2.2-7.4,4.9-9.6c2.7-2.2,6.4-3.3,11.2-3.3
				c4.8,0,8.4,1,10.8,2.9c2.3,2,3.5,4.3,3.5,7c0,2.4-1,4.3-3.1,5.6c-1.4,0.9-5,2.1-10.8,3.6c-7.7,2-13.1,3.7-16.1,5.1
				c-3,1.4-5.3,3.4-6.8,5.9c-1.5,2.5-2.3,5.3-2.3,8.4c0,2.8,0.6,5.3,1.9,7.7c1.3,2.4,3,4.3,5.2,5.9c1.6,1.2,3.9,2.2,6.7,3.1
				c2.8,0.8,5.9,1.3,9.1,1.3c4.9,0,9.2-0.7,12.8-2.1c3.7-1.4,6.4-3.3,8.2-5.7c1.8-2.4,3-5.6,3.6-9.6l-10.3-1.4
				c-0.5,3.2-1.8,5.7-4.1,7.5c-2.2,1.8-5.4,2.7-9.5,2.7c-4.8,0-8.3-0.8-10.4-2.4s-3.1-3.5-3.1-5.6c0-1.4,0.4-2.6,1.3-3.7
				c0.9-1.1,2.2-2.1,4-2.8c1-0.4,4.2-1.3,9.3-2.7c7.5-2,12.7-3.6,15.6-4.9c3-1.3,5.3-3.1,6.9-5.5c1.7-2.4,2.5-5.4,2.5-9
				c0-3.5-1-6.8-3.1-9.9c-2-3.1-5-5.5-8.9-7.2c-3.9-1.7-8.2-2.6-13.1-2.6c-8.1,0-14.2,1.7-18.5,5S731.6-40.1,730.4-33.5z"/>
		</g>
		<g>
			<path id="ArialMT-29_1_" class="st1" d="M801.6-77.4H794c11.7,18.7,17.5,37.5,17.5,56.3c0,7.3-0.8,14.6-2.5,21.9
				c-1.3,5.9-3.2,11.5-5.6,16.9c-1.5,3.5-4.7,9.4-9.4,17.6h7.6c7.3-9.8,12.8-19.6,16.3-29.5c3-8.5,4.5-17.4,4.5-26.7
				c0-10.5-2-20.7-6.1-30.6C812.3-61.4,807.3-70,801.6-77.4z"/>
		</g>
	</g>
</g>
<g id="line2d_7">
	<g>
		<defs>
			<rect id="SVGID_5_" x="887.9" y="35" width="613.6" height="863.6"/>
		</defs>
		<clipPath id="SVGID_6_">
			<use xlink:href="#SVGID_5_"  style="overflow:visible;"/>
		</clipPath>
		<path class="st7" d="M915.7,220.7l20.9,0.8l3.5-15.1l4.9-73.1l7.3,124.9l5.2,103.6l7-287.5l9.8,103.7l4.2,118l10.5-181.7
			L999.4,309l4.2-65.2l9.8-123.1l7,244.1l5.2-100.1l7.3-116.6l4.9,126.3l3.5,104.4l20.9-145.1l292.9,65.4l20.9-3.1l8.4,11.7
			l7.3-137.4l5.2,161.6l7-16.6l9.8-113.5l4.2,169.8l10.5-252.5l10.5,347.8l4.2-266.6l9.8-8.2l12.2-41.9l7.3,64.3"/>
	</g>
</g>
<g id="line2d_8">
	<g>
		<defs>
			<rect id="SVGID_7_" x="887.9" y="35" width="613.6" height="863.6"/>
		</defs>
		<clipPath id="SVGID_8_">
			<use xlink:href="#SVGID_7_"  style="overflow:visible;"/>
		</clipPath>
		<path class="st8" d="M915.7,722.6l20.9,136.8l3.5-150.9l4.9-100.6l7.3,114l5.2,92.7l7-133.2l9.8,21.3l4.2,5.6l10.5-63l10.5,169.6
			l4.2-111.8l9.8-110.3l7,202.9l5.2-124.4l7.3-56.1l4.9,57.8l3.5,93.2l20.9-71.1l292.9,34.3l20.9,55.4l8.4-96.8l7.3-59.1l5.2,180.2
			l7-176.4l9.8,7.1l4.2,180.4l10.5-254.8l10.5,237.8l4.2-134.5l9.8-18.9l12.2,11.5l7.3-22.2"/>
	</g>
</g>
<g id="line2d_9">
</g>
<g id="line2d_10">
</g>
<g id="patch_6">
	<path class="st4" d="M887.9,898.6V35"/>
</g>
<g id="patch_7">
	<path class="st4" d="M887.9,898.6h613.6"/>
</g>
<g id="text_13_1_">
	<g transform="translate(78.461364 50.146875)scale(0.6 -0.6)">
		<g>
			<path id="ArialMT-41_1_" class="st1" d="M-122.9-34l35.7,93.1h13.3L-35.8-34h-14L-60.7-5.8h-38.9L-109.8-34H-122.9z M-96,4.3
				h31.5L-74.2,30c-3,7.8-5.2,14.3-6.6,19.3c-1.2-6-2.9-11.9-5-17.8L-96,4.3z"/>
		</g>
	</g>
</g>
<g id="text_29_1_">
	<g transform="translate(814.825 50.146875)scale(0.6 -0.6)">
		<g>
			<path id="ArialMT-42_1_" class="st1" d="M-112.7-34v93.1h34.9c7.1,0,12.8-0.9,17.1-2.8c4.3-1.9,7.7-4.8,10.1-8.7
				c2.4-3.9,3.7-8,3.7-12.3c0-4-1.1-7.7-3.2-11.2c-2.2-3.5-5.4-6.3-9.8-8.5c5.6-1.7,9.9-4.5,13-8.4c3-4,4.5-8.7,4.5-14.1
				c0-4.4-0.9-8.4-2.8-12.2c-1.8-3.7-4.1-6.6-6.8-8.7s-6.1-3.6-10.2-4.6c-4.1-1-9.1-1.5-15-1.5H-112.7z M-100.4,20h20.1
				c5.5,0,9.4,0.4,11.7,1.1c3.1,0.9,5.5,2.5,7.1,4.6c1.6,2.2,2.4,4.9,2.4,8.1c0,3.1-0.7,5.8-2.2,8.1c-1.5,2.4-3.6,4-6.4,4.8
				c-2.7,0.9-7.5,1.3-14.1,1.3h-18.6V20z M-100.4-23h23.2c4,0,6.8,0.1,8.4,0.4c2.8,0.5,5.2,1.3,7.1,2.5c1.9,1.2,3.5,2.9,4.7,5.2
				c1.2,2.3,1.8,4.9,1.8,7.8c0,3.5-0.9,6.5-2.7,9c-1.8,2.6-4.2,4.4-7.4,5.4c-3.2,1-7.7,1.6-13.6,1.6h-21.5V-23z"/>
		</g>
	</g>
</g>
<text transform="matrix(1 0 0 1 261.6823 983.7116)" class="st9 st10">cloze probability</text>
<text transform="matrix(1 0 0 1 1052.2346 983.7112)" class="st9 st10">CoRT Ratings</text>
</svg>
