<?xml version="1.0" encoding="utf-8"?>
<!-- Generator: Adobe Illustrator 24.1.0, SVG Export Plug-In . SVG Version: 6.00 Build 0)  -->
<svg version="1.1" id="Layer_1" xmlns="http://www.w3.org/2000/svg" xmlns:xlink="http://www.w3.org/1999/xlink" x="0px" y="0px"
	 viewBox="0 0 445 214.8" style="enable-background:new 0 0 445 214.8;" xml:space="preserve">
<style type="text/css">
	.st0{fill:none;stroke:#231F20;stroke-miterlimit:10;}
	.st1{fill:none;stroke:#231F20;stroke-width:2;stroke-miterlimit:10;}
	.st2{font-family:'MyriadPro-Regular';}
	.st3{font-size:12px;}
	.st4{font-family:'ArialMT';}
</style>
<line class="st0" x1="0" y1="64" x2="444.3" y2="64"/>
<line class="st1" x1="0.7" y1="22.8" x2="445" y2="22.8"/>
<line class="st1" x1="0.7" y1="1" x2="445" y2="1"/>
<line class="st0" x1="0.7" y1="161.9" x2="445" y2="161.9"/>
<line class="st0" x1="0.7" y1="142" x2="445" y2="142"/>
<line class="st0" x1="0.7" y1="122.1" x2="445" y2="122.1"/>
<line class="st0" x1="8.9" y1="102.2" x2="445" y2="102.2"/>
<line class="st0" x1="0.7" y1="82.3" x2="445" y2="82.3"/>
<text transform="matrix(1 0 0 1 0.61 38.52)" class="st2 st3">1.</text>
<text transform="matrix(1 0 0 1 9.25 38.52)" class="st2 st3"> </text>
<text transform="matrix(1 0 0 1 11.3 38.52)" class="st2 st3">T</text>
<text transform="matrix(1 0 0 1 17.18 38.52)" class="st2 st3">he fa</text>
<text transform="matrix(1 0 0 1 41.69 38.52)" class="st2 st3">r</text>
<text transform="matrix(1 0 0 1 45.66 38.52)" class="st2 st3">mer </text>
<text transform="matrix(1 0 0 1 68.15 38.52)" class="st2 st3">c</text>
<text transform="matrix(1 0 0 1 73.45 38.52)" class="st2 st3">olle</text>
<text transform="matrix(1 0 0 1 91.71 38.52)" class="st2 st3">c</text>
<text transform="matrix(1 0 0 1 97.24 38.52)" class="st2 st3">t</text>
<text transform="matrix(1 0 0 1 101.14 38.52)" class="st2 st3">ed </text>
<text transform="matrix(1 0 0 1 116.47 38.52)" class="st2 st3">w</text>
<text transform="matrix(1 0 0 1 125.18 38.52)" class="st2 st3">ood </text>
<text transform="matrix(1 0 0 1 147.67 38.52)" class="st2 st3">t</text>
<text transform="matrix(1 0 0 1 151.57 38.52)" class="st2 st3">o build a new ba</text>
<text transform="matrix(1 0 0 1 234.08 38.52)" class="st2 st3">r</text>
<text transform="matrix(1 0 0 1 238.05 38.52)" class="st2 st3">n</text>
<line class="st0" x1="0.7" y1="45.6" x2="445" y2="45.6"/>
<text transform="matrix(1 0 0 1 0.63 15.22)" class="st2 st3">S</text>
<text transform="matrix(1 0 0 1 6.62 15.22)" class="st2 st3">e</text>
<text transform="matrix(1 0 0 1 12.63 15.22)" class="st2 st3">n</text>
<text transform="matrix(1 0 0 1 19.24 15.22)" class="st2 st3">t</text>
<text transform="matrix(1 0 0 1 23.14 15.22)" class="st2 st3">en</text>
<text transform="matrix(1 0 0 1 35.81 15.22)" class="st2 st3">c</text>
<text transform="matrix(1 0 0 1 41.12 15.22)" class="st2 st3">e</text>
<text transform="matrix(1 0 0 1 263.5697 15.2202)" class="st2 st3">C</text>
<text transform="matrix(1 0 0 1 270.3997 15.2202)" class="st2 st3">o</text>
<text transform="matrix(1 0 0 1 276.9897 15.2202)" class="st2 st3">R</text>
<text transform="matrix(1 0 0 1 283.5497 15.2202)" class="st2 st3">T </text>
<text transform="matrix(1 0 0 1 292.0597 15.2202)" class="st2 st3">R</text>
<text transform="matrix(1 0 0 1 298.6597 15.2202)" class="st2 st3">a</text>
<text transform="matrix(1 0 0 1 304.3897 15.2202)" class="st2 st3">ting</text>
<text transform="matrix(1 0 0 1 338.75 15.22)" class="st2 st3">Cl</text>
<text transform="matrix(1 0 0 1 348.54 15.22)" class="st2 st3">oz</text>
<text transform="matrix(1 0 0 1 360.1 15.22)" class="st2 st3">e</text>
<text transform="matrix(1 0 0 1 263.57 38.51)" class="st4 st3">D</text>
<text transform="matrix(1 0 0 1 271.73 38.51)" class="st4 st3">ynamic</text>
<text transform="matrix(1 0 0 1 341.15 38.51)" class="st4 st3">L</text>
<text transform="matrix(1 0 0 1 346.65 38.51)" class="st4 st3">o</text>
<text transform="matrix(1 0 0 1 353.15 38.51)" class="st4 st3">w</text>
<text transform="matrix(1 0 0 1 263.57 97.62)" class="st2 st3">S</text>
<text transform="matrix(1 0 0 1 269.45 97.62)" class="st2 st3">t</text>
<text transform="matrix(1 0 0 1 273.42 97.62)" class="st2 st3">a</text>
<text transform="matrix(1 0 0 1 279.16 97.62)" class="st2 st3">tic</text>
<text transform="matrix(1 0 0 1 341.15 97.62)" class="st4 st3">H</text>
<text transform="matrix(1 0 0 1 349.09 97.62)" class="st4 st3">igh</text>
<text transform="matrix(1 0 0 1 0.46 79.04)" class="st2 st3">3. D</text>
<text transform="matrix(1 0 0 1 19.64 79.04)" class="st2 st3">r</text>
<text transform="matrix(1 0 0 1 23.5 79.04)" class="st2 st3">ake did</text>
<text transform="matrix(1 0 0 1 59.81 79.04)" class="st2 st3">n</text>
<text transform="matrix(1 0 0 1 66.39 79.04)" class="st2 st3">&apos;</text>
<text transform="matrix(1 0 0 1 68.93 79.04)" class="st2 st3">t like me</text>
<text transform="matrix(1 0 0 1 111.29 79.04)" class="st2 st3">a</text>
<text transform="matrix(1 0 0 1 117.03 79.04)" class="st2 st3">t because of the tas</text>
<text transform="matrix(1 0 0 1 213.79 79.04)" class="st2 st3">t</text>
<text transform="matrix(1 0 0 1 217.69 79.04)" class="st2 st3">e</text>
<text transform="matrix(1 0 0 1 264 77.63)" class="st2 st3">S</text>
<text transform="matrix(1 0 0 1 269.88 77.63)" class="st2 st3">t</text>
<text transform="matrix(1 0 0 1 273.85 77.63)" class="st2 st3">a</text>
<text transform="matrix(1 0 0 1 279.59 77.63)" class="st2 st3">tic</text>
<text transform="matrix(1 0 0 1 341.58 77.63)" class="st4 st3">L</text>
<text transform="matrix(1 0 0 1 347.08 77.63)" class="st4 st3">o</text>
<text transform="matrix(1 0 0 1 353.58 77.63)" class="st4 st3">w</text>
<text transform="matrix(1 0 0 1 0.58 59.14)" class="st2 st3">2.</text>
<text transform="matrix(1 0 0 1 9.22 59.14)" class="st2 st3"> </text>
<text transform="matrix(1 0 0 1 11.27 59.14)" class="st2 st3">T</text>
<text transform="matrix(1 0 0 1 17.15 59.14)" class="st2 st3">hey </text>
<text transform="matrix(1 0 0 1 38.02 59.14)" class="st2 st3">w</text>
<text transform="matrix(1 0 0 1 46.73 59.14)" class="st2 st3">e</text>
<text transform="matrix(1 0 0 1 52.74 59.14)" class="st2 st3">r</text>
<text transform="matrix(1 0 0 1 56.55 59.14)" class="st2 st3">e sta</text>
<text transform="matrix(1 0 0 1 79.61 59.14)" class="st2 st3">r</text>
<text transform="matrix(1 0 0 1 83.82 59.14)" class="st2 st3">tled </text>
<text transform="matrix(1 0 0 1 105.95 59.14)" class="st2 st3">b</text>
<text transform="matrix(1 0 0 1 112.69 59.14)" class="st2 st3">y the sudden noise</text>
<text transform="matrix(1 0 0 1 263.57 59.14)" class="st4 st3">D</text>
<text transform="matrix(1 0 0 1 271.73 59.14)" class="st4 st3">ynamic</text>
<text transform="matrix(1 0 0 1 341.15 59.14)" class="st4 st3">H</text>
<text transform="matrix(1 0 0 1 349.09 59.14)" class="st4 st3">igh</text>
<text transform="matrix(1 0 0 1 0.63 97.62)" class="st2 st3">4. </text>
<text transform="matrix(1 0 0 1 11.81 97.62)" class="st2 st3">H</text>
<text transform="matrix(1 0 0 1 19.76 97.62)" class="st2 st3">is boss </text>
<text transform="matrix(1 0 0 1 55.32 97.62)" class="st2 st3">r</text>
<text transform="matrix(1 0 0 1 59.13 97.62)" class="st2 st3">efused </text>
<text transform="matrix(1 0 0 1 95.33 97.62)" class="st2 st3">t</text>
<text transform="matrix(1 0 0 1 99.23 97.62)" class="st2 st3">o </text>
<text transform="matrix(1 0 0 1 108.36 97.62)" class="st2 st3">g</text>
<text transform="matrix(1 0 0 1 115 97.62)" class="st2 st3">i</text>
<text transform="matrix(1 0 0 1 117.81 97.62)" class="st2 st3">v</text>
<text transform="matrix(1 0 0 1 123.46 97.62)" class="st2 st3">e him a </text>
<text transform="matrix(1 0 0 1 162.36 97.62)" class="st2 st3">r</text>
<text transform="matrix(1 0 0 1 166.23 97.62)" class="st2 st3">aise</text>
<text transform="matrix(1 0 0 1 0.63 115.84)" class="st2 st3">5.</text>
<text transform="matrix(1 0 0 1 9.27 115.84)" class="st2 st3"> </text>
<text transform="matrix(1 0 0 1 11.32 115.84)" class="st2 st3">T</text>
<text transform="matrix(1 0 0 1 17.2 115.84)" class="st2 st3">he d</text>
<text transform="matrix(1 0 0 1 39.19 115.84)" class="st2 st3">r</text>
<text transform="matrix(1 0 0 1 43.16 115.84)" class="st2 st3">i</text>
<text transform="matrix(1 0 0 1 45.96 115.84)" class="st2 st3">v</text>
<text transform="matrix(1 0 0 1 51.62 115.84)" class="st2 st3">er d</text>
<text transform="matrix(1 0 0 1 70.86 115.84)" class="st2 st3">r</text>
<text transform="matrix(1 0 0 1 74.67 115.84)" class="st2 st3">o</text>
<text transform="matrix(1 0 0 1 81.17 115.84)" class="st2 st3">v</text>
<text transform="matrix(1 0 0 1 86.83 115.84)" class="st2 st3">e </text>
<text transform="matrix(1 0 0 1 95.38 115.84)" class="st2 st3">t</text>
<text transform="matrix(1 0 0 1 99.28 115.84)" class="st2 st3">oo quic</text>
<text transform="matrix(1 0 0 1 136.55 115.84)" class="st2 st3">k</text>
<text transform="matrix(1 0 0 1 142.38 115.84)" class="st2 st3">ly a</text>
<text transform="matrix(1 0 0 1 159.2 115.84)" class="st2 st3">r</text>
<text transform="matrix(1 0 0 1 163 115.84)" class="st2 st3">ound the </text>
<text transform="matrix(1 0 0 1 211.36 115.84)" class="st2 st3">c</text>
<text transform="matrix(1 0 0 1 216.66 115.84)" class="st2 st3">o</text>
<text transform="matrix(1 0 0 1 223.25 115.84)" class="st2 st3">r</text>
<text transform="matrix(1 0 0 1 227.22 115.84)" class="st2 st3">ner</text>
<text transform="matrix(1 0 0 1 263.57 115.84)" class="st4 st3">D</text>
<text transform="matrix(1 0 0 1 271.73 115.84)" class="st4 st3">ynamic</text>
<text transform="matrix(1 0 0 1 341.15 115.84)" class="st4 st3">L</text>
<text transform="matrix(1 0 0 1 346.65 115.84)" class="st4 st3">o</text>
<text transform="matrix(1 0 0 1 353.15 115.84)" class="st4 st3">w</text>
<text transform="matrix(1 0 0 1 0.63 136.05)" class="st2 st3">6. She </text>
<text transform="matrix(1 0 0 1 32.95 136.05)" class="st2 st3">r</text>
<text transform="matrix(1 0 0 1 36.75 136.05)" class="st2 st3">oas</text>
<text transform="matrix(1 0 0 1 53.87 136.05)" class="st2 st3">t</text>
<text transform="matrix(1 0 0 1 57.77 136.05)" class="st2 st3">ed the marshmall</text>
<text transform="matrix(1 0 0 1 144.87 136.05)" class="st2 st3">o</text>
<text transform="matrix(1 0 0 1 151.37 136.05)" class="st2 st3">w </text>
<text transform="matrix(1 0 0 1 162.75 136.05)" class="st2 st3">o</text>
<text transform="matrix(1 0 0 1 169.25 136.05)" class="st2 st3">v</text>
<text transform="matrix(1 0 0 1 174.9 136.05)" class="st2 st3">er the fi</text>
<text transform="matrix(1 0 0 1 212.85 136.05)" class="st2 st3">r</text>
<text transform="matrix(1 0 0 1 216.65 136.05)" class="st2 st3">e</text>
<text transform="matrix(1 0 0 1 264 136.05)" class="st4 st3">D</text>
<text transform="matrix(1 0 0 1 272.16 136.05)" class="st4 st3">ynamic</text>
<text transform="matrix(1 0 0 1 341.58 136.05)" class="st4 st3">H</text>
<text transform="matrix(1 0 0 1 349.52 136.05)" class="st4 st3">igh</text>
<text transform="matrix(1 0 0 1 0.58 157.66)" class="st2 st3">7. </text>
<text transform="matrix(1 0 0 1 11.76 157.66)" class="st2 st3">H</text>
<text transform="matrix(1 0 0 1 19.71 157.66)" class="st2 st3">is </text>
<text transform="matrix(1 0 0 1 29.81 157.66)" class="st2 st3">w</text>
<text transform="matrix(1 0 0 1 38.52 157.66)" class="st2 st3">orst </text>
<text transform="matrix(1 0 0 1 60.3 157.66)" class="st2 st3">f</text>
<text transform="matrix(1 0 0 1 63.65 157.66)" class="st2 st3">ear </text>
<text transform="matrix(1 0 0 1 81.91 157.66)" class="st2 st3">w</text>
<text transform="matrix(1 0 0 1 90.7 157.66)" class="st2 st3">as th</text>
<text transform="matrix(1 0 0 1 114.41 157.66)" class="st2 st3">a</text>
<text transform="matrix(1 0 0 1 120.15 157.66)" class="st2 st3">t the spe</text>
<text transform="matrix(1 0 0 1 163.44 157.66)" class="st2 st3">c</text>
<text transform="matrix(1 0 0 1 168.97 157.66)" class="st2 st3">t</text>
<text transform="matrix(1 0 0 1 172.95 157.66)" class="st2 st3">a</text>
<text transform="matrix(1 0 0 1 178.68 157.66)" class="st2 st3">t</text>
<text transform="matrix(1 0 0 1 182.58 157.66)" class="st2 st3">ors </text>
<text transform="matrix(1 0 0 1 200.39 157.66)" class="st2 st3">w</text>
<text transform="matrix(1 0 0 1 209.1 157.66)" class="st2 st3">ould boo</text>
<text transform="matrix(1 0 0 1 263.57 157.66)" class="st2 st3">S</text>
<text transform="matrix(1 0 0 1 269.45 157.66)" class="st2 st3">t</text>
<text transform="matrix(1 0 0 1 273.42 157.66)" class="st2 st3">a</text>
<text transform="matrix(1 0 0 1 279.16 157.66)" class="st2 st3">tic</text>
<text transform="matrix(1 0 0 1 341.15 157.66)" class="st4 st3">L</text>
<text transform="matrix(1 0 0 1 346.65 157.66)" class="st4 st3">o</text>
<text transform="matrix(1 0 0 1 353.15 157.66)" class="st4 st3">w</text>
<text transform="matrix(1 0 0 1 0 175.67)" class="st2 st3">8.</text>
<text transform="matrix(1 0 0 1 8.64 175.67)" class="st2 st3"> </text>
<text transform="matrix(1 0 0 1 10.69 175.67)" class="st2 st3">T</text>
<text transform="matrix(1 0 0 1 16.57 175.67)" class="st2 st3">he p</text>
<text transform="matrix(1 0 0 1 38.62 175.67)" class="st2 st3">a</text>
<text transform="matrix(1 0 0 1 44.35 175.67)" class="st2 st3">tie</text>
<text transform="matrix(1 0 0 1 57.14 175.67)" class="st2 st3">n</text>
<text transform="matrix(1 0 0 1 63.75 175.67)" class="st2 st3">t&apos;s b</text>
<text transform="matrix(1 0 0 1 84.11 175.67)" class="st2 st3">r</text>
<text transform="matrix(1 0 0 1 87.91 175.67)" class="st2 st3">oken a</text>
<text transform="matrix(1 0 0 1 121.13 175.67)" class="st2 st3">r</text>
<text transform="matrix(1 0 0 1 125.1 175.67)" class="st2 st3">m </text>
<text transform="matrix(1 0 0 1 137.65 175.67)" class="st2 st3">t</text>
<text transform="matrix(1 0 0 1 141.55 175.67)" class="st2 st3">ook a while </text>
<text transform="matrix(1 0 0 1 200.91 175.67)" class="st2 st3">t</text>
<text transform="matrix(1 0 0 1 204.81 175.67)" class="st2 st3">o heal</text>
<text transform="matrix(1 0 0 1 264 175.67)" class="st2 st3">S</text>
<text transform="matrix(1 0 0 1 269.88 175.67)" class="st2 st3">t</text>
<text transform="matrix(1 0 0 1 273.85 175.67)" class="st2 st3">a</text>
<text transform="matrix(1 0 0 1 279.59 175.67)" class="st2 st3">tic</text>
<text transform="matrix(1 0 0 1 341.58 175.67)" class="st4 st3">H</text>
<text transform="matrix(1 0 0 1 349.52 175.67)" class="st4 st3">igh</text>
<line class="st0" x1="1.1" y1="197.9" x2="445.4" y2="197.9"/>
<line class="st0" x1="1.1" y1="180.6" x2="445.4" y2="180.6"/>
<text transform="matrix(1 0 0 1 0.945 193.6378)" class="st2 st3">9. The teacher wrote the problem on the game            Dynamic             High</text>
<text transform="matrix(1 0 0 1 0 210.1172)" class="st2 st3">10. She wanted a great job so she could get bear         Static                    Low</text>
<text transform="matrix(1 0 0 1 380.8978 15.2205)" class="st2 st3">Trial Type</text>
<text transform="matrix(1 0 0 1 380.8976 39.6587)" class="st2 st3">Meaningful</text>
<text transform="matrix(1 0 0 1 380.8976 193.6378)" class="st2 st3">Meaningless</text>
<text transform="matrix(1 0 0 1 380.8972 210.1171)" class="st2 st3">Meaningless</text>
<text transform="matrix(1 0 0 1 380.8973 59.1398)" class="st2 st3">Meaningful</text>
<text transform="matrix(1 0 0 1 380.8972 77.63)" class="st2 st3">Meaningful</text>
<text transform="matrix(1 0 0 1 380.8972 97.62)" class="st2 st3">Meaningful</text>
<text transform="matrix(1 0 0 1 380.8968 115.84)" class="st2 st3">Meaningful</text>
<text transform="matrix(1 0 0 1 380.8972 136.05)" class="st2 st3">Meaningful</text>
<text transform="matrix(1 0 0 1 380.8964 155.7395)" class="st2 st3">Meaningful</text>
<text transform="matrix(1 0 0 1 380.8972 175.67)" class="st2 st3">Meaningful</text>
</svg>
