<svg id="Layer_1" data-name="Layer 1" xmlns="http://www.w3.org/2000/svg" xmlns:xlink="http://www.w3.org/1999/xlink" viewBox="0 0 1497.03 1042.35"><defs><style>.cls-1,.cls-10,.cls-11,.cls-7,.cls-8{fill:none;}.cls-2{fill:#fff;}.cls-3{fill:#262626;}.cls-4{clip-path:url(#clip-path);}.cls-5{fill:#772b58;}.cls-5,.cls-6{stroke:#fff;stroke-width:0.24px;}.cls-6{fill:#db6e59;}.cls-7{stroke:#424242;stroke-width:10.8px;}.cls-10,.cls-11,.cls-7{stroke-linecap:round;stroke-linejoin:round;}.cls-8{stroke:#262626;stroke-linecap:square;stroke-width:3px;}.cls-9{clip-path:url(#clip-path-5);}.cls-10{stroke:#841e5a;}.cls-10,.cls-11{stroke-width:6px;}.cls-11{stroke:#f06043;}</style><clipPath id="clip-path"><rect class="cls-1" x="139.82" y="80.75" width="613.64" height="863.57"/></clipPath><clipPath id="clip-path-5"><rect class="cls-1" x="876.19" y="80.75" width="613.64" height="863.57"/></clipPath></defs><g id="patch_2" data-name="patch 2"><path class="cls-2" d="M139.82,944.31H753.46V80.75H139.82Z"/></g><g id="xtick_1" data-name="xtick 1"><g id="text_1" data-name="text 1"><path id="ArialMT-43" class="cls-3" d="M286.75,972l3.79,1a12.72,12.72,0,0,1-4.29,7.12,11.76,11.76,0,0,1-7.57,2.45,13.6,13.6,0,0,1-7.53-1.88,11.82,11.82,0,0,1-4.41-5.46,19.45,19.45,0,0,1-1.51-7.68,17,17,0,0,1,1.7-7.8,11.77,11.77,0,0,1,4.87-5.05,14.12,14.12,0,0,1,6.94-1.73,11.78,11.78,0,0,1,7.23,2.18,11.4,11.4,0,0,1,4.08,6.15l-3.73.89a8.87,8.87,0,0,0-2.89-4.55,7.63,7.63,0,0,0-4.76-1.44,9.24,9.24,0,0,0-5.52,1.59A8.37,8.37,0,0,0,270,962a17.09,17.09,0,0,0-.9,5.5,17.45,17.45,0,0,0,1.07,6.37,7.91,7.91,0,0,0,3.3,4.08,9.4,9.4,0,0,0,4.87,1.34,8.17,8.17,0,0,0,5.39-1.83A9.42,9.42,0,0,0,286.75,972Z"/><path id="ArialMT-4f" class="cls-3" d="M294.05,968.1q0-7.12,3.83-11.16a13,13,0,0,1,9.88-4,13.72,13.72,0,0,1,7.15,1.9,12.27,12.27,0,0,1,4.85,5.28,17.08,17.08,0,0,1,1.68,7.69,16.89,16.89,0,0,1-1.76,7.79,11.93,11.93,0,0,1-5,5.2,14.23,14.23,0,0,1-6.95,1.77,13.61,13.61,0,0,1-7.24-1.95,12.61,12.61,0,0,1-4.82-5.33A16.22,16.22,0,0,1,294.05,968.1Zm3.91.06q0,5.18,2.78,8.15a9.7,9.7,0,0,0,14,0c1.85-2,2.77-4.85,2.77-8.53a14.59,14.59,0,0,0-1.18-6.1,9.11,9.11,0,0,0-3.46-4,9.36,9.36,0,0,0-5.11-1.44,9.71,9.71,0,0,0-6.92,2.77Q298,961.69,298,968.16Z"/></g></g><g id="xtick_2" data-name="xtick 2"><g id="text_2" data-name="text 2"><path id="ArialMT-43-2" data-name="ArialMT-43" class="cls-3" d="M594.68,972l3.79,1a12.66,12.66,0,0,1-4.29,7.12,11.76,11.76,0,0,1-7.57,2.45,13.6,13.6,0,0,1-7.53-1.88,11.82,11.82,0,0,1-4.41-5.46,19.45,19.45,0,0,1-1.51-7.68,17,17,0,0,1,1.7-7.8,11.77,11.77,0,0,1,4.87-5.05,14.12,14.12,0,0,1,6.94-1.73,11.78,11.78,0,0,1,7.23,2.18,11.4,11.4,0,0,1,4.08,6.15l-3.73.89a8.81,8.81,0,0,0-2.89-4.55,7.63,7.63,0,0,0-4.76-1.44,9.24,9.24,0,0,0-5.52,1.59A8.37,8.37,0,0,0,578,962a17.09,17.09,0,0,0-.9,5.5,17.45,17.45,0,0,0,1.07,6.37,8,8,0,0,0,3.3,4.08,9.4,9.4,0,0,0,4.87,1.34,8.17,8.17,0,0,0,5.39-1.83A9.42,9.42,0,0,0,594.68,972Z"/><path id="ArialMT-44" class="cls-3" d="M603.14,982.05V953.41H613a24.15,24.15,0,0,1,5.1.41,9.73,9.73,0,0,1,4.2,2,11.58,11.58,0,0,1,3.38,4.9,19.12,19.12,0,0,1,1.13,6.8,20.24,20.24,0,0,1-.76,5.78,14.37,14.37,0,0,1-1.95,4.18,10.57,10.57,0,0,1-2.62,2.6,10.72,10.72,0,0,1-3.41,1.43,19.78,19.78,0,0,1-4.6.49Zm3.79-3.39H613a14.87,14.87,0,0,0,4.44-.52,6.31,6.31,0,0,0,2.57-1.49,8.91,8.91,0,0,0,2.1-3.62,17.7,17.7,0,0,0,.75-5.52,13.36,13.36,0,0,0-1.47-6.9,7.42,7.42,0,0,0-3.58-3.23,14.82,14.82,0,0,0-4.9-.59h-6Z"/></g></g><g id="matplotlib.axis_2" data-name="matplotlib.axis 2"><g id="ytick_1" data-name="ytick 1"><g id="text_4" data-name="text 4"><path id="ArialMT-30" class="cls-3" d="M54.54,944.51a26,26,0,0,1,1.05-8.17,10.12,10.12,0,0,1,3.1-4.78,7.92,7.92,0,0,1,5.18-1.68,8.47,8.47,0,0,1,4.05.93,7.74,7.74,0,0,1,2.87,2.68,14.17,14.17,0,0,1,1.78,4.25,28.3,28.3,0,0,1,.64,6.77,25.91,25.91,0,0,1-1,8.13,10.09,10.09,0,0,1-3.09,4.79,8,8,0,0,1-5.21,1.69,7.87,7.87,0,0,1-6.5-3Q54.55,952.58,54.54,944.51Zm3.62,0q0,7.05,1.65,9.39a4.71,4.71,0,0,0,8.14,0c1.1-1.57,1.65-4.69,1.65-9.38s-.55-7.85-1.65-9.39a4.9,4.9,0,0,0-4.11-2.33A4.53,4.53,0,0,0,60,934.84C58.76,936.58,58.16,939.81,58.16,944.51Z"/><path id="ArialMT-2e" class="cls-3" d="M78.76,958.63v-4h4v4Z"/><path id="ArialMT-39" class="cls-3" d="M88.43,952l3.38-.31a5.77,5.77,0,0,0,1.64,3.45,4.49,4.49,0,0,0,3.1,1.08,5.39,5.39,0,0,0,2.84-.74,6.07,6.07,0,0,0,2-2,11.52,11.52,0,0,0,1.3-3.35,17.23,17.23,0,0,0,.53-4.3c0-.15,0-.38,0-.7a8.16,8.16,0,0,1-2.89,2.73,7.75,7.75,0,0,1-4,1,8,8,0,0,1-6-2.57,9.45,9.45,0,0,1-2.46-6.8,9.66,9.66,0,0,1,2.57-7,8.58,8.58,0,0,1,6.43-2.66,9.11,9.11,0,0,1,5.11,1.51,9.35,9.35,0,0,1,3.52,4.28,21.15,21.15,0,0,1,1.2,8.06,25.91,25.91,0,0,1-1.2,8.74,10.26,10.26,0,0,1-3.54,4.95,9.17,9.17,0,0,1-5.51,1.7,7.56,7.56,0,0,1-8-7.11Zm14.39-12.64a6.88,6.88,0,0,0-1.61-4.8,5,5,0,0,0-3.88-1.78,5.37,5.37,0,0,0-4.08,1.91,7.1,7.1,0,0,0-1.73,5,6.13,6.13,0,0,0,1.65,4.44,5.42,5.42,0,0,0,4.06,1.71,5.22,5.22,0,0,0,4-1.71A6.73,6.73,0,0,0,102.82,939.37Z"/><path id="ArialMT-33" class="cls-3" d="M110.17,951.07l3.51-.47a7.71,7.71,0,0,0,2.06,4.31,5.1,5.1,0,0,0,3.55,1.32,5.64,5.64,0,0,0,4.18-1.72,5.77,5.77,0,0,0,1.72-4.26,5.41,5.41,0,0,0-1.58-4,5.48,5.48,0,0,0-4-1.57,10.56,10.56,0,0,0-2.48.38l.39-3.08a4.54,4.54,0,0,0,.57,0,7.24,7.24,0,0,0,4-1.17,4,4,0,0,0,1.8-3.62,4.28,4.28,0,0,0-1.31-3.2,4.63,4.63,0,0,0-3.38-1.27,4.82,4.82,0,0,0-3.42,1.29,6.48,6.48,0,0,0-1.75,3.86l-3.52-.62a9.05,9.05,0,0,1,2.92-5.48,8.52,8.52,0,0,1,5.69-1.94,9.34,9.34,0,0,1,4.31,1,7.19,7.19,0,0,1,3,2.74,7,7,0,0,1,1.05,3.69,6,6,0,0,1-1,3.38,6.74,6.74,0,0,1-2.94,2.42,6.64,6.64,0,0,1,3.94,2.43,7.39,7.39,0,0,1,1.41,4.62,8.44,8.44,0,0,1-2.74,6.36,9.59,9.59,0,0,1-6.91,2.61,9,9,0,0,1-6.26-2.25A8.68,8.68,0,0,1,110.17,951.07Z"/></g></g><g id="ytick_2" data-name="ytick 2"><g id="text_5" data-name="text 5"><path id="ArialMT-30-2" data-name="ArialMT-30" class="cls-3" d="M54.54,821.14A26.06,26.06,0,0,1,55.59,813a10.12,10.12,0,0,1,3.1-4.78,7.92,7.92,0,0,1,5.18-1.68,8.47,8.47,0,0,1,4.05.93,7.74,7.74,0,0,1,2.87,2.68,14.12,14.12,0,0,1,1.78,4.26,28.21,28.21,0,0,1,.64,6.76,26,26,0,0,1-1,8.14,10.06,10.06,0,0,1-3.09,4.78,7.92,7.92,0,0,1-5.21,1.69,7.87,7.87,0,0,1-6.5-3Q54.55,829.21,54.54,821.14Zm3.62,0q0,7.05,1.65,9.39a4.71,4.71,0,0,0,8.14,0q1.65-2.34,1.65-9.38T68,811.75a4.89,4.89,0,0,0-4.11-2.32A4.5,4.5,0,0,0,60,811.48Q58.16,814.09,58.16,821.14Z"/><path id="ArialMT-2e-2" data-name="ArialMT-2e" class="cls-3" d="M78.76,835.26v-4h4v4Z"/><path id="ArialMT-39-2" data-name="ArialMT-39" class="cls-3" d="M88.43,828.64l3.38-.31a5.83,5.83,0,0,0,1.64,3.46,4.53,4.53,0,0,0,3.1,1.07,5.3,5.3,0,0,0,2.84-.74,6.13,6.13,0,0,0,2-2,11.76,11.76,0,0,0,1.3-3.35,17.29,17.29,0,0,0,.53-4.3c0-.16,0-.39,0-.7a8.22,8.22,0,0,1-2.89,2.72,7.76,7.76,0,0,1-4,1,8,8,0,0,1-6-2.58,9.45,9.45,0,0,1-2.46-6.8,9.67,9.67,0,0,1,2.57-7,8.58,8.58,0,0,1,6.43-2.66A9.19,9.19,0,0,1,102,808a9.33,9.33,0,0,1,3.52,4.29,21.1,21.1,0,0,1,1.2,8.05,25.91,25.91,0,0,1-1.2,8.74,10.17,10.17,0,0,1-3.54,4.95,9.17,9.17,0,0,1-5.51,1.7,7.54,7.54,0,0,1-8-7.11ZM102.82,816a6.91,6.91,0,0,0-1.61-4.81,5,5,0,0,0-3.88-1.77,5.34,5.34,0,0,0-4.08,1.91,7.07,7.07,0,0,0-1.73,5,6.13,6.13,0,0,0,1.65,4.44,5.42,5.42,0,0,0,4.06,1.71,5.22,5.22,0,0,0,4-1.71A6.72,6.72,0,0,0,102.82,816Z"/><path id="ArialMT-34" class="cls-3" d="M121.42,835.26v-6.85H109v-3.23l13.07-18.55h2.87v18.55h3.87v3.23h-3.87v6.85Zm0-10.08v-12.9l-9,12.9Z"/></g></g><g id="ytick_3" data-name="ytick 3"><g id="text_6" data-name="text 6"><path id="ArialMT-30-3" data-name="ArialMT-30" class="cls-3" d="M54.54,697.78a26.09,26.09,0,0,1,1.05-8.18,10.09,10.09,0,0,1,3.1-4.77,7.92,7.92,0,0,1,5.18-1.68,8.47,8.47,0,0,1,4.05.93,7.71,7.71,0,0,1,2.87,2.67A14.12,14.12,0,0,1,72.57,691a28.3,28.3,0,0,1,.64,6.77,25.91,25.91,0,0,1-1,8.13,10.09,10.09,0,0,1-3.09,4.79,8,8,0,0,1-5.21,1.68,7.87,7.87,0,0,1-6.5-3Q54.55,705.84,54.54,697.78Zm3.62,0q0,7.05,1.65,9.38a4.7,4.7,0,0,0,8.14,0c1.1-1.56,1.65-4.69,1.65-9.37s-.55-7.85-1.65-9.4a4.89,4.89,0,0,0-4.11-2.32A4.5,4.5,0,0,0,60,688.11Q58.16,690.72,58.16,697.78Z"/><path id="ArialMT-2e-3" data-name="ArialMT-2e" class="cls-3" d="M78.76,711.9v-4h4v4Z"/><path id="ArialMT-39-3" data-name="ArialMT-39" class="cls-3" d="M88.43,705.28l3.38-.32a5.83,5.83,0,0,0,1.64,3.46,4.49,4.49,0,0,0,3.1,1.08,5.3,5.3,0,0,0,2.84-.75,6,6,0,0,0,2-2,11.64,11.64,0,0,0,1.3-3.35,17.29,17.29,0,0,0,.53-4.3c0-.15,0-.39,0-.7a8.16,8.16,0,0,1-2.89,2.73,7.85,7.85,0,0,1-4,1,8,8,0,0,1-6-2.58,9.43,9.43,0,0,1-2.46-6.8,9.67,9.67,0,0,1,2.57-7,8.58,8.58,0,0,1,6.43-2.65,9.18,9.18,0,0,1,5.11,1.5,9.33,9.33,0,0,1,3.52,4.29,21.12,21.12,0,0,1,1.2,8.06,25.84,25.84,0,0,1-1.2,8.73,10.17,10.17,0,0,1-3.54,4.95,9.11,9.11,0,0,1-5.51,1.7,7.54,7.54,0,0,1-8-7.1Zm14.39-12.64a6.92,6.92,0,0,0-1.61-4.81,5,5,0,0,0-3.88-1.77A5.37,5.37,0,0,0,93.25,688a7.09,7.09,0,0,0-1.73,5,6.15,6.15,0,0,0,1.65,4.45,5.44,5.44,0,0,0,4.06,1.7,5.25,5.25,0,0,0,4-1.7A6.73,6.73,0,0,0,102.82,692.64Z"/><path id="ArialMT-35" class="cls-3" d="M110.15,704.4l3.69-.32a6.66,6.66,0,0,0,1.9,4.06,5.21,5.21,0,0,0,3.61,1.36,5.59,5.59,0,0,0,4.29-1.92,7.23,7.23,0,0,0,1.76-5.08,6.5,6.5,0,0,0-1.69-4.74,5.88,5.88,0,0,0-4.42-1.75,6.07,6.07,0,0,0-3.07.78,6,6,0,0,0-2.15,2l-3.3-.43,2.77-14.71h14.25V687H116.36l-1.54,7.7a9.28,9.28,0,0,1,5.4-1.8,8.59,8.59,0,0,1,6.33,2.6,9.08,9.08,0,0,1,2.58,6.68,10.43,10.43,0,0,1-2.26,6.72,9.08,9.08,0,0,1-7.52,3.47A9.32,9.32,0,0,1,113,710.2,8.52,8.52,0,0,1,110.15,704.4Z"/></g></g><g id="ytick_4" data-name="ytick 4"><g id="text_7" data-name="text 7"><path id="ArialMT-30-4" data-name="ArialMT-30" class="cls-3" d="M54.54,574.41a26,26,0,0,1,1.05-8.17,10.12,10.12,0,0,1,3.1-4.78,7.92,7.92,0,0,1,5.18-1.68,8.47,8.47,0,0,1,4.05.93,7.74,7.74,0,0,1,2.87,2.68,14.17,14.17,0,0,1,1.78,4.25,28.3,28.3,0,0,1,.64,6.77,25.91,25.91,0,0,1-1,8.13,10.09,10.09,0,0,1-3.09,4.79A8,8,0,0,1,63.87,589a7.87,7.87,0,0,1-6.5-3C55.49,583.66,54.54,579.79,54.54,574.41Zm3.62,0q0,7.05,1.65,9.39a4.71,4.71,0,0,0,8.14,0c1.1-1.57,1.65-4.69,1.65-9.38S69.05,566.56,68,565a4.9,4.9,0,0,0-4.11-2.33,4.53,4.53,0,0,0-3.87,2C58.76,566.48,58.16,569.71,58.16,574.41Z"/><path id="ArialMT-2e-4" data-name="ArialMT-2e" class="cls-3" d="M78.76,588.53v-4h4v4Z"/><path id="ArialMT-39-4" data-name="ArialMT-39" class="cls-3" d="M88.43,581.91l3.38-.31a5.77,5.77,0,0,0,1.64,3.45,4.49,4.49,0,0,0,3.1,1.08,5.39,5.39,0,0,0,2.84-.74,6.07,6.07,0,0,0,2-2,11.52,11.52,0,0,0,1.3-3.35,17.23,17.23,0,0,0,.53-4.3c0-.15,0-.38,0-.7a8.16,8.16,0,0,1-2.89,2.73,7.75,7.75,0,0,1-4,1,8,8,0,0,1-6-2.57,9.45,9.45,0,0,1-2.46-6.8,9.66,9.66,0,0,1,2.57-7,8.55,8.55,0,0,1,6.43-2.66,9.11,9.11,0,0,1,5.11,1.51,9.3,9.3,0,0,1,3.52,4.28,21.15,21.15,0,0,1,1.2,8.06,25.91,25.91,0,0,1-1.2,8.74,10.26,10.26,0,0,1-3.54,5,9.17,9.17,0,0,1-5.51,1.7,7.56,7.56,0,0,1-8-7.11Zm14.39-12.64a6.88,6.88,0,0,0-1.61-4.8,5,5,0,0,0-3.88-1.78,5.37,5.37,0,0,0-4.08,1.91,7.1,7.1,0,0,0-1.73,5A6.13,6.13,0,0,0,93.17,574a5.42,5.42,0,0,0,4.06,1.71,5.22,5.22,0,0,0,4-1.71A6.73,6.73,0,0,0,102.82,569.27Z"/><path id="ArialMT-36" class="cls-3" d="M128.39,566.91l-3.5.27a6.66,6.66,0,0,0-1.32-3,4.69,4.69,0,0,0-3.52-1.5,4.87,4.87,0,0,0-3,.93,8.11,8.11,0,0,0-2.62,3.54,18.33,18.33,0,0,0-1,6.62,8.14,8.14,0,0,1,3.1-2.87,8.45,8.45,0,0,1,3.85-.94,8,8,0,0,1,6,2.59,9.3,9.3,0,0,1,2.48,6.69,11,11,0,0,1-1.16,5,8.57,8.57,0,0,1-3.2,3.55,8.71,8.71,0,0,1-4.61,1.23,9,9,0,0,1-7.17-3.23Q110,582.55,110,575.13q0-8.29,3.07-12.07a8.79,8.79,0,0,1,7.2-3.28,7.67,7.67,0,0,1,8.13,7.13ZM114,579.25a8.1,8.1,0,0,0,.77,3.48,5.78,5.78,0,0,0,2.15,2.53,5.42,5.42,0,0,0,2.91.87,5,5,0,0,0,3.83-1.79,7.08,7.08,0,0,0,1.61-4.89,6.6,6.6,0,0,0-1.59-4.68,5.2,5.2,0,0,0-4-1.71,5.44,5.44,0,0,0-4,1.71A6.18,6.18,0,0,0,114,579.25Z"/></g></g><g id="ytick_5" data-name="ytick 5"><g id="text_8" data-name="text 8"><path id="ArialMT-30-5" data-name="ArialMT-30" class="cls-3" d="M54.54,451a26.06,26.06,0,0,1,1.05-8.17,10.12,10.12,0,0,1,3.1-4.78,7.92,7.92,0,0,1,5.18-1.68,8.47,8.47,0,0,1,4.05.93A7.74,7.74,0,0,1,70.79,440a14.17,14.17,0,0,1,1.78,4.25,28.36,28.36,0,0,1,.64,6.77,25.91,25.91,0,0,1-1,8.13A10,10,0,0,1,69.08,464a7.92,7.92,0,0,1-5.21,1.69,7.87,7.87,0,0,1-6.5-3Q54.55,459.11,54.54,451Zm3.62,0q0,7.05,1.65,9.39a4.71,4.71,0,0,0,8.14,0q1.65-2.34,1.65-9.38T68,441.65a4.9,4.9,0,0,0-4.11-2.33A4.53,4.53,0,0,0,60,441.37Q58.16,444,58.16,451Z"/><path id="ArialMT-2e-5" data-name="ArialMT-2e" class="cls-3" d="M78.76,465.16v-4h4v4Z"/><path id="ArialMT-39-5" data-name="ArialMT-39" class="cls-3" d="M88.43,458.54l3.38-.31a5.83,5.83,0,0,0,1.64,3.46,4.53,4.53,0,0,0,3.1,1.07,5.39,5.39,0,0,0,2.84-.74,6.13,6.13,0,0,0,2-2,11.76,11.76,0,0,0,1.3-3.35,17.29,17.29,0,0,0,.53-4.3c0-.16,0-.39,0-.7a8.22,8.22,0,0,1-2.89,2.72,7.76,7.76,0,0,1-4,1,8,8,0,0,1-6-2.58,9.45,9.45,0,0,1-2.46-6.8,9.67,9.67,0,0,1,2.57-7,8.58,8.58,0,0,1,6.43-2.66,9.11,9.11,0,0,1,5.11,1.51,9.33,9.33,0,0,1,3.52,4.29,21.1,21.1,0,0,1,1.2,8.05,25.91,25.91,0,0,1-1.2,8.74A10.17,10.17,0,0,1,102,464a9.17,9.17,0,0,1-5.51,1.7,7.54,7.54,0,0,1-8-7.11Zm14.39-12.63a6.91,6.91,0,0,0-1.61-4.81,5.06,5.06,0,0,0-3.88-1.78,5.35,5.35,0,0,0-4.08,1.92,7.07,7.07,0,0,0-1.73,5,6.13,6.13,0,0,0,1.65,4.44,5.42,5.42,0,0,0,4.06,1.71,5.22,5.22,0,0,0,4-1.71A6.72,6.72,0,0,0,102.82,445.91Z"/><path id="ArialMT-37" class="cls-3" d="M110.38,440.28V436.9h18.54v2.74a38.31,38.31,0,0,0-5.43,7.73,47.3,47.3,0,0,0-4.14,9.92,37.42,37.42,0,0,0-1.35,7.87h-3.61a34.87,34.87,0,0,1,1.32-8.16,42.64,42.64,0,0,1,3.65-9.23,39.21,39.21,0,0,1,5-7.49Z"/></g></g><g id="ytick_6" data-name="ytick 6"><g id="text_9" data-name="text 9"><path id="ArialMT-30-6" data-name="ArialMT-30" class="cls-3" d="M54.54,327.68a26.09,26.09,0,0,1,1.05-8.18,10.09,10.09,0,0,1,3.1-4.77,7.92,7.92,0,0,1,5.18-1.68,8.47,8.47,0,0,1,4.05.93,7.71,7.71,0,0,1,2.87,2.67,14.12,14.12,0,0,1,1.78,4.26,28.3,28.3,0,0,1,.64,6.77,25.91,25.91,0,0,1-1,8.13,10.09,10.09,0,0,1-3.09,4.79,8,8,0,0,1-5.21,1.68,7.87,7.87,0,0,1-6.5-3Q54.55,335.74,54.54,327.68Zm3.62,0q0,7.05,1.65,9.38a4.7,4.7,0,0,0,8.14,0c1.1-1.56,1.65-4.69,1.65-9.37s-.55-7.85-1.65-9.4A4.89,4.89,0,0,0,63.84,316,4.5,4.5,0,0,0,60,318Q58.16,320.62,58.16,327.68Z"/><path id="ArialMT-2e-6" data-name="ArialMT-2e" class="cls-3" d="M78.76,341.8v-4h4v4Z"/><path id="ArialMT-39-6" data-name="ArialMT-39" class="cls-3" d="M88.43,335.18l3.38-.32a5.83,5.83,0,0,0,1.64,3.46,4.49,4.49,0,0,0,3.1,1.08,5.3,5.3,0,0,0,2.84-.75,6,6,0,0,0,2-2,11.76,11.76,0,0,0,1.3-3.35,17.29,17.29,0,0,0,.53-4.3c0-.15,0-.39,0-.7a8.16,8.16,0,0,1-2.89,2.73,7.85,7.85,0,0,1-4,1,8,8,0,0,1-6-2.58,9.43,9.43,0,0,1-2.46-6.8,9.67,9.67,0,0,1,2.57-7,8.58,8.58,0,0,1,6.43-2.65,9.18,9.18,0,0,1,5.11,1.5,9.33,9.33,0,0,1,3.52,4.29,21.12,21.12,0,0,1,1.2,8.06,25.84,25.84,0,0,1-1.2,8.73,10.17,10.17,0,0,1-3.54,4.95,9.11,9.11,0,0,1-5.51,1.7,7.54,7.54,0,0,1-8-7.1Zm14.39-12.64a6.92,6.92,0,0,0-1.61-4.81A5,5,0,0,0,97.33,316a5.37,5.37,0,0,0-4.08,1.91,7.09,7.09,0,0,0-1.73,5,6.15,6.15,0,0,0,1.65,4.45,5.44,5.44,0,0,0,4.06,1.7,5.25,5.25,0,0,0,4-1.7A6.73,6.73,0,0,0,102.82,322.54Z"/><path id="ArialMT-38" class="cls-3" d="M115.56,326.27a6.71,6.71,0,0,1-3.25-2.29,6,6,0,0,1-1-3.55,6.91,6.91,0,0,1,2.25-5.25,9.44,9.44,0,0,1,12,.05,7,7,0,0,1,2.29,5.3,5.84,5.84,0,0,1-1,3.47,6.76,6.76,0,0,1-3.17,2.27,7.66,7.66,0,0,1,4,2.78,7.56,7.56,0,0,1,1.37,4.56,8.18,8.18,0,0,1-2.6,6.17,10.58,10.58,0,0,1-13.66,0,8.35,8.35,0,0,1-2.6-6.27,7.56,7.56,0,0,1,1.41-4.67A7.07,7.07,0,0,1,115.56,326.27Zm-.7-6a4.47,4.47,0,0,0,1.3,3.32,4.65,4.65,0,0,0,3.4,1.29,4.53,4.53,0,0,0,3.33-1.27,4.23,4.23,0,0,0,1.3-3.14,4.38,4.38,0,0,0-1.34-3.26,4.9,4.9,0,0,0-6.67,0A4.15,4.15,0,0,0,114.86,320.31Zm-1.14,13.22a6.33,6.33,0,0,0,.72,2.92,5.07,5.07,0,0,0,2.12,2.18,6.19,6.19,0,0,0,3,.77,5.67,5.67,0,0,0,4.16-1.62,6,6,0,0,0,0-8.33,5.76,5.76,0,0,0-4.23-1.66,5.59,5.59,0,0,0-5.74,5.74Z"/></g></g><g id="ytick_7" data-name="ytick 7"><g id="text_10" data-name="text 10"><path id="ArialMT-30-7" data-name="ArialMT-30" class="cls-3" d="M54.54,204.31a26.13,26.13,0,0,1,1.05-8.18,10.14,10.14,0,0,1,3.1-4.77,7.92,7.92,0,0,1,5.18-1.68,8.47,8.47,0,0,1,4.05.93,7.79,7.79,0,0,1,2.87,2.67,14.34,14.34,0,0,1,1.78,4.26,28.3,28.3,0,0,1,.64,6.77,25.91,25.91,0,0,1-1,8.13,10.09,10.09,0,0,1-3.09,4.79,8,8,0,0,1-5.21,1.69,7.87,7.87,0,0,1-6.5-3Q54.55,212.37,54.54,204.31Zm3.62,0q0,7,1.65,9.39a4.71,4.71,0,0,0,8.14,0q1.65-2.34,1.65-9.37T68,194.92a4.9,4.9,0,0,0-4.11-2.33,4.5,4.5,0,0,0-3.87,2C58.76,196.38,58.16,199.61,58.16,204.31Z"/><path id="ArialMT-2e-7" data-name="ArialMT-2e" class="cls-3" d="M78.76,218.43v-4h4v4Z"/><path id="ArialMT-39-7" data-name="ArialMT-39" class="cls-3" d="M88.43,211.81l3.38-.31A5.8,5.8,0,0,0,93.45,215a4.49,4.49,0,0,0,3.1,1.08,5.3,5.3,0,0,0,2.84-.75,6,6,0,0,0,2-2,11.64,11.64,0,0,0,1.3-3.35,17.23,17.23,0,0,0,.53-4.3c0-.15,0-.38,0-.7a8.16,8.16,0,0,1-2.89,2.73,7.85,7.85,0,0,1-4,1,8,8,0,0,1-6-2.57,9.45,9.45,0,0,1-2.46-6.8,9.7,9.7,0,0,1,2.57-7,8.58,8.58,0,0,1,6.43-2.65,9.18,9.18,0,0,1,5.11,1.5,9.33,9.33,0,0,1,3.52,4.29,21.15,21.15,0,0,1,1.2,8.06,25.91,25.91,0,0,1-1.2,8.74,10.26,10.26,0,0,1-3.54,4.95,9.17,9.17,0,0,1-5.51,1.7,7.56,7.56,0,0,1-8-7.11Zm14.39-12.64a6.88,6.88,0,0,0-1.61-4.8,5,5,0,0,0-3.88-1.78,5.37,5.37,0,0,0-4.08,1.91,7.1,7.1,0,0,0-1.73,5,6.13,6.13,0,0,0,1.65,4.44,5.42,5.42,0,0,0,4.06,1.71,5.22,5.22,0,0,0,4-1.71A6.73,6.73,0,0,0,102.82,199.17Z"/><path id="ArialMT-39-8" data-name="ArialMT-39" class="cls-3" d="M110.67,211.81l3.39-.31a5.8,5.8,0,0,0,1.63,3.45A4.51,4.51,0,0,0,118.8,216a5.33,5.33,0,0,0,2.84-.75,6,6,0,0,0,2-2A11.63,11.63,0,0,0,125,210a17.71,17.71,0,0,0,.53-4.3c0-.15,0-.38,0-.7a8,8,0,0,1-2.88,2.73,7.89,7.89,0,0,1-4,1,8,8,0,0,1-6-2.57,9.45,9.45,0,0,1-2.46-6.8,9.7,9.7,0,0,1,2.57-7,8.56,8.56,0,0,1,6.43-2.65,9.23,9.23,0,0,1,5.11,1.5,9.37,9.37,0,0,1,3.51,4.29,21.15,21.15,0,0,1,1.2,8.06,25.94,25.94,0,0,1-1.19,8.74,10.26,10.26,0,0,1-3.54,4.95,9.2,9.2,0,0,1-5.52,1.7,7.57,7.57,0,0,1-8-7.11Zm14.4-12.64a6.88,6.88,0,0,0-1.61-4.8,5.05,5.05,0,0,0-3.88-1.78,5.37,5.37,0,0,0-4.08,1.91,7.1,7.1,0,0,0-1.74,5,6.13,6.13,0,0,0,1.65,4.44,5.44,5.44,0,0,0,4.07,1.71,5.19,5.19,0,0,0,4-1.71A6.73,6.73,0,0,0,125.07,199.17Z"/></g></g><g id="ytick_8" data-name="ytick 8"><g id="text_11" data-name="text 11"><path id="ArialMT-31" class="cls-3" d="M67.78,95.06H64.27V72.66a18.43,18.43,0,0,1-3.33,2.42,23.52,23.52,0,0,1-3.7,1.82V73.5a21.3,21.3,0,0,0,5.15-3.36,13.13,13.13,0,0,0,3.13-3.83h2.26Z"/><path id="ArialMT-2e-8" data-name="ArialMT-2e" class="cls-3" d="M78.76,95.06v-4h4v4Z"/><path id="ArialMT-30-8" data-name="ArialMT-30" class="cls-3" d="M87.9,80.94a26.06,26.06,0,0,1,1-8.17A10.12,10.12,0,0,1,92.05,68a7.92,7.92,0,0,1,5.18-1.68,8.47,8.47,0,0,1,4,.93,7.74,7.74,0,0,1,2.87,2.68,14.17,14.17,0,0,1,1.78,4.25,28.36,28.36,0,0,1,.64,6.77,25.91,25.91,0,0,1-1,8.13,10,10,0,0,1-3.09,4.79,8.71,8.71,0,0,1-11.71-1.28Q87.91,89,87.9,80.94Zm3.62,0q0,7.05,1.65,9.39a4.71,4.71,0,0,0,8.14,0Q103,88,103,80.94t-1.65-9.39a4.9,4.9,0,0,0-4.11-2.33,4.51,4.51,0,0,0-3.87,2Q91.52,73.9,91.52,80.94Z"/><path id="ArialMT-30-9" data-name="ArialMT-30" class="cls-3" d="M110.15,80.94a26.4,26.4,0,0,1,1-8.17,10.2,10.2,0,0,1,3.1-4.78,8,8,0,0,1,5.19-1.68,8.4,8.4,0,0,1,4,.93,7.66,7.66,0,0,1,2.87,2.68,13.91,13.91,0,0,1,1.78,4.25,28.28,28.28,0,0,1,.65,6.77,26.21,26.21,0,0,1-1,8.13,10.19,10.19,0,0,1-3.09,4.79A8.71,8.71,0,0,1,113,92.58Q110.15,89,110.15,80.94Zm3.61,0q0,7.05,1.65,9.39a4.72,4.72,0,0,0,8.15,0q1.65-2.34,1.65-9.38t-1.65-9.39a4.92,4.92,0,0,0-4.12-2.33,4.54,4.54,0,0,0-3.87,2C114.37,73,113.76,76.24,113.76,80.94Z"/></g></g><g id="text_12" data-name="text 12"><path id="ArialMT-41" class="cls-3" d="M39.41,605.12,7.2,592.75v-4.59L39.41,575v4.86l-9.76,3.76v13.46l9.76,3.55Zm-13.23-9.3V584.9l-8.92,3.36c-2.71,1-4.93,1.79-6.68,2.29a40.34,40.34,0,0,1,6.15,1.74Z"/><path id="ArialMT-63" class="cls-3" d="M30.86,556.84l.51-3.89a10.15,10.15,0,0,1,6.3,3.27,9.53,9.53,0,0,1,2.27,6.45,10,10,0,0,1-3.13,7.7q-3.14,2.91-9,2.91A16.31,16.31,0,0,1,21.22,572,8.66,8.66,0,0,1,17,568.22a11.3,11.3,0,0,1-1.42-5.58,9.67,9.67,0,0,1,1.92-6.21,8.8,8.8,0,0,1,5.46-3.1l.6,3.84a6.41,6.41,0,0,0-3.54,2,5,5,0,0,0-1.19,3.38A6.12,6.12,0,0,0,21,567.35q2.13,1.88,6.77,1.87t6.83-1.8a5.88,5.88,0,0,0,2.13-4.71,5.49,5.49,0,0,0-1.43-3.88A7.08,7.08,0,0,0,30.86,556.84Z"/><path id="ArialMT-63-2" data-name="ArialMT-63" class="cls-3" d="M30.86,534.34l.51-3.89a10.15,10.15,0,0,1,6.3,3.27,9.53,9.53,0,0,1,2.27,6.45,10,10,0,0,1-3.13,7.7q-3.14,2.91-9,2.91a16.31,16.31,0,0,1-6.61-1.25A8.66,8.66,0,0,1,17,545.72a11.3,11.3,0,0,1-1.42-5.58,9.67,9.67,0,0,1,1.92-6.21,8.8,8.8,0,0,1,5.46-3.1l.6,3.84a6.41,6.41,0,0,0-3.54,2A5,5,0,0,0,18.8,540,6.12,6.12,0,0,0,21,544.85q2.13,1.88,6.77,1.87t6.83-1.8a5.88,5.88,0,0,0,2.13-4.71,5.49,5.49,0,0,0-1.43-3.88A7.08,7.08,0,0,0,30.86,534.34Z"/><path id="ArialMT-75" class="cls-3" d="M39.41,511.78H36a8.55,8.55,0,0,1,4,7.4,9.39,9.39,0,0,1-.79,3.86,6.4,6.4,0,0,1-2,2.66,7.54,7.54,0,0,1-2.94,1.22,20.12,20.12,0,0,1-3.69.24H16.07v-3.95H29a23.22,23.22,0,0,0,4.17-.24,4.11,4.11,0,0,0,2.45-1.59,4.83,4.83,0,0,0,.89-3,6.48,6.48,0,0,0-.91-3.34,5.1,5.1,0,0,0-2.48-2.21,12.28,12.28,0,0,0-4.56-.66H16.07v-4H39.41Z"/><path id="ArialMT-72" class="cls-3" d="M39.41,502.09H16.07v-3.56h3.54A9.72,9.72,0,0,1,16.34,496a4.36,4.36,0,0,1-.79-2.54,7.7,7.7,0,0,1,1.27-4.06l3.67,1.36a5.7,5.7,0,0,0-.86,2.9,3.79,3.79,0,0,0,.78,2.34,4.3,4.3,0,0,0,2.17,1.47,15.33,15.33,0,0,0,4.61.66H39.41Z"/><path id="ArialMT-61" class="cls-3" d="M36.53,471.83a14.71,14.71,0,0,1,2.64,4.23,12.3,12.3,0,0,1,.77,4.36,8.52,8.52,0,0,1-1.88,5.92,6.21,6.21,0,0,1-4.8,2.06,6.35,6.35,0,0,1-3.13-.78,6.43,6.43,0,0,1-2.28-2,9.72,9.72,0,0,1-1.29-2.85,26.85,26.85,0,0,1-.6-3.52,36,36,0,0,0-1.36-7l-1,0a4.37,4.37,0,0,0-3.41,1.13,6.59,6.59,0,0,0-1.34,4.5,7,7,0,0,0,1,4.12,6,6,0,0,0,3.46,2l-.53,3.87a9.55,9.55,0,0,1-4-1.74,7.56,7.56,0,0,1-2.34-3.49,15.3,15.3,0,0,1-.83-5.29,14,14,0,0,1,.7-4.86A6.49,6.49,0,0,1,18,469.59a6.37,6.37,0,0,1,2.69-1.23,22.74,22.74,0,0,1,3.65-.19h5.27a55.07,55.07,0,0,0,7-.26,8.64,8.64,0,0,0,2.8-1V471A8.45,8.45,0,0,1,36.53,471.83Zm-8.83.33a29.47,29.47,0,0,1,1.49,6.46,14.91,14.91,0,0,0,.8,3.46,3.47,3.47,0,0,0,1.28,1.56,3.41,3.41,0,0,0,1.88.54A3.34,3.34,0,0,0,35.78,483a5.13,5.13,0,0,0,1.06-3.51,8.2,8.2,0,0,0-1-4.06,6.18,6.18,0,0,0-2.74-2.62,9.43,9.43,0,0,0-4-.64Z"/><path id="ArialMT-63-3" data-name="ArialMT-63" class="cls-3" d="M30.86,446.8l.51-3.88a10,10,0,0,1,6.3,3.27,9.49,9.49,0,0,1,2.27,6.44,10,10,0,0,1-3.13,7.7q-3.14,2.91-9,2.91A16.14,16.14,0,0,1,21.22,462,8.66,8.66,0,0,1,17,458.18a11.27,11.27,0,0,1-1.42-5.58,9.67,9.67,0,0,1,1.92-6.21,8.8,8.8,0,0,1,5.46-3.1l.6,3.84A6.41,6.41,0,0,0,20,449.08a5.06,5.06,0,0,0-1.19,3.38A6.16,6.16,0,0,0,21,457.32q2.13,1.86,6.77,1.86t6.83-1.8a5.88,5.88,0,0,0,2.13-4.71,5.49,5.49,0,0,0-1.43-3.88A7.13,7.13,0,0,0,30.86,446.8Z"/><path id="ArialMT-79" class="cls-3" d="M48.4,439.71l-3.72.44a8.6,8.6,0,0,0,.36-2.26,4.24,4.24,0,0,0-.45-2.11,3.61,3.61,0,0,0-1.22-1.3,19.88,19.88,0,0,0-2.95-1.21l-1-.35-23.38,8.86v-4.26l13.52-4.86c1.71-.63,3.52-1.2,5.4-1.7a51.81,51.81,0,0,1-5.31-1.62l-13.61-5v-4l23.73,8.88a47.44,47.44,0,0,1,5.3,2.22A7.75,7.75,0,0,1,48,433.91a5.69,5.69,0,0,1,.91,3.25A8,8,0,0,1,48.4,439.71Z"/></g></g><g id="patch_3" data-name="patch 3"><g class="cls-4"><path class="cls-5" d="M170.51,12417.43H416V292.72H170.51Z"/></g></g><g id="patch_4" data-name="patch 4"><g class="cls-4"><path class="cls-6" d="M477.33,12417.43H722.78V469.3H477.33Z"/></g></g><g id="line2d_1" data-name="line2d 1"><g class="cls-4"><path class="cls-7" d="M293.23,344.89V243.8"/></g></g><g id="line2d_2" data-name="line2d 2"><g class="cls-4"><path class="cls-7" d="M600.05,545.33V393.28"/></g></g><g id="patch_5" data-name="patch 5"><path class="cls-8" d="M139.82,944.31V80.75"/></g><g id="patch_6" data-name="patch 6"><path class="cls-8" d="M139.82,944.31H753.46"/></g><g id="text_13" data-name="text 13"><path id="ArialMT-41-2" data-name="ArialMT-41" class="cls-3" d="M10.58,65.1,32,9.27h8L62.83,65.1H54.42L47.9,48.18H24.56L18.42,65.1ZM26.69,42.18H45.62L39.8,26.71q-2.67-7-4-11.58a70.57,70.57,0,0,1-3,10.67Z"/></g><g id="patch_7" data-name="patch 7"><path class="cls-2" d="M876.19,944.31h613.63V80.75H876.19Z"/></g><g id="matplotlib.axis_3" data-name="matplotlib.axis 3"><g id="xtick_3" data-name="xtick 3"><g id="text_14" data-name="text 14"><path id="ArialMT-31-2" data-name="ArialMT-31" class="cls-3" d="M907.86,982.05h-3.51v-22.4a18.42,18.42,0,0,1-3.33,2.41,23.52,23.52,0,0,1-3.7,1.82v-3.4a21.28,21.28,0,0,0,5.15-3.35,13.56,13.56,0,0,0,3.13-3.83h2.26Z"/></g></g><g id="xtick_4" data-name="xtick 4"><g id="text_15" data-name="text 15"><path id="ArialMT-32" class="cls-3" d="M1052.56,978.66v3.39h-18.93a6.58,6.58,0,0,1,.41-2.45,13.05,13.05,0,0,1,2.31-3.8,36.68,36.68,0,0,1,4.61-4.34,39.34,39.34,0,0,0,6.31-6.06,7.33,7.33,0,0,0,1.64-4.24,4.65,4.65,0,0,0-1.5-3.51,5.37,5.37,0,0,0-3.89-1.44,5.52,5.52,0,0,0-4.07,1.52,5.78,5.78,0,0,0-1.54,4.22l-3.61-.37a8.9,8.9,0,0,1,2.78-6.17,9.58,9.58,0,0,1,6.52-2.11,9.09,9.09,0,0,1,6.52,2.28,7.5,7.5,0,0,1,2.4,5.67,8.6,8.6,0,0,1-.7,3.38,13.14,13.14,0,0,1-2.34,3.49,56.12,56.12,0,0,1-5.41,5c-2.12,1.77-3.47,3-4.07,3.6a11.68,11.68,0,0,0-1.48,1.9Z"/></g></g><g id="xtick_5" data-name="xtick 5"><g id="text_16" data-name="text 16"><path id="ArialMT-33-2" data-name="ArialMT-33" class="cls-3" d="M1173.57,974.49l3.51-.47a7.74,7.74,0,0,0,2.06,4.31,5.08,5.08,0,0,0,3.54,1.32,5.7,5.7,0,0,0,4.19-1.72,5.82,5.82,0,0,0,1.71-4.27,5.33,5.33,0,0,0-1.58-4,5.45,5.45,0,0,0-4-1.58,10.14,10.14,0,0,0-2.48.39l.39-3.09a4.75,4.75,0,0,0,.56.05,7.27,7.27,0,0,0,4-1.17,4,4,0,0,0,1.8-3.62,4.24,4.24,0,0,0-1.32-3.2,4.62,4.62,0,0,0-3.37-1.28,4.75,4.75,0,0,0-3.42,1.3,6.46,6.46,0,0,0-1.76,3.86l-3.51-.63a9.05,9.05,0,0,1,2.92-5.47,8.47,8.47,0,0,1,5.69-1.94,9.33,9.33,0,0,1,4.31,1,7.27,7.27,0,0,1,3,2.75,7,7,0,0,1,1.05,3.69,6,6,0,0,1-1,3.37,6.75,6.75,0,0,1-2.94,2.43,6.64,6.64,0,0,1,3.94,2.43,7.39,7.39,0,0,1,1.41,4.62,8.48,8.48,0,0,1-2.74,6.36,9.64,9.64,0,0,1-6.91,2.6,9.06,9.06,0,0,1-6.27-2.24A8.71,8.71,0,0,1,1173.57,974.49Z"/></g></g><g id="xtick_6" data-name="xtick 6"><g id="text_17" data-name="text 17"><path id="ArialMT-34-2" data-name="ArialMT-34" class="cls-3" d="M1324.28,982.05v-6.86h-12.43V972l13.07-18.55h2.87V972h3.87v3.23h-3.87v6.86Zm0-10.09v-12.9l-9,12.9Z"/></g></g><g id="xtick_7" data-name="xtick 7"><g id="text_18" data-name="text 18"><path id="ArialMT-35-2" data-name="ArialMT-35" class="cls-3" d="M1452.47,974.55l3.69-.32a6.66,6.66,0,0,0,1.91,4.06,5.17,5.17,0,0,0,3.6,1.36,5.61,5.61,0,0,0,4.3-1.92,7.23,7.23,0,0,0,1.75-5.08,6.54,6.54,0,0,0-1.68-4.74,5.9,5.9,0,0,0-4.43-1.75,6.09,6.09,0,0,0-3.07.78,5.89,5.89,0,0,0-2.14,2l-3.3-.43,2.77-14.71h14.24v3.36h-11.43l-1.54,7.7a9.3,9.3,0,0,1,5.41-1.8,8.51,8.51,0,0,1,6.32,2.6,9.08,9.08,0,0,1,2.58,6.68,10.43,10.43,0,0,1-2.26,6.72,9.09,9.09,0,0,1-7.52,3.47,9.32,9.32,0,0,1-6.38-2.18A8.61,8.61,0,0,1,1452.47,974.55Z"/></g></g><g id="text_19" data-name="text 19"><path id="ArialMT-42" class="cls-3" d="M1120,1026.21V994h12.09a15,15,0,0,1,5.92,1,7.6,7.6,0,0,1,3.49,3,8,8,0,0,1,1.27,4.26,7.34,7.34,0,0,1-1.12,3.88,8,8,0,0,1-3.38,2.94,8.42,8.42,0,0,1,4.48,2.93,7.82,7.82,0,0,1,1.58,4.88,9.39,9.39,0,0,1-1,4.21,8.37,8.37,0,0,1-2.36,3,10,10,0,0,1-3.53,1.59,21.31,21.31,0,0,1-5.19.54Zm4.27-18.68h7a15.58,15.58,0,0,0,4.07-.37,4.5,4.5,0,0,0,2.44-1.61,4.63,4.63,0,0,0,.83-2.81,5.18,5.18,0,0,0-.77-2.82,3.85,3.85,0,0,0-2.2-1.68,18.29,18.29,0,0,0-4.89-.45h-6.44Zm0,14.87h8a19,19,0,0,0,2.9-.15,7.25,7.25,0,0,0,2.46-.87,4.74,4.74,0,0,0,1.62-1.8,5.54,5.54,0,0,0,.64-2.71,5.4,5.4,0,0,0-.92-3.13,4.84,4.84,0,0,0-2.56-1.87,15.83,15.83,0,0,0-4.72-.54h-7.44Z"/><path id="ArialMT-6c" class="cls-3" d="M1149.63,1026.21V994h4v32.21Z"/><path id="ArialMT-6f" class="cls-3" d="M1158.25,1014.54q0-6.48,3.6-9.6a10.84,10.84,0,0,1,7.34-2.6,10.45,10.45,0,0,1,7.86,3.16q3.06,3.15,3.06,8.71a15.5,15.5,0,0,1-1.35,7.09,9.64,9.64,0,0,1-3.94,4,11.46,11.46,0,0,1-5.63,1.42,10.49,10.49,0,0,1-7.93-3.14Q1158.24,1020.44,1158.25,1014.54Zm4.06,0c0,3,.65,5.22,2,6.71a6.51,6.51,0,0,0,9.82,0q2-2.24,2-6.83c0-2.89-.65-5.08-2-6.56a6.51,6.51,0,0,0-9.8,0Q1162.31,1010.06,1162.31,1014.54Z"/><path id="ArialMT-63-4" data-name="ArialMT-63" class="cls-3" d="M1200,1017.66l3.89.5a10.1,10.1,0,0,1-3.27,6.3,9.48,9.48,0,0,1-6.45,2.27,10,10,0,0,1-7.69-3.13q-2.92-3.14-2.92-9a16.11,16.11,0,0,1,1.26-6.61,8.64,8.64,0,0,1,3.81-4.26,11.23,11.23,0,0,1,5.57-1.42,9.65,9.65,0,0,1,6.22,1.93,8.84,8.84,0,0,1,3.1,5.45l-3.85.6a6.28,6.28,0,0,0-1.94-3.53,5,5,0,0,0-3.38-1.19,6.15,6.15,0,0,0-4.86,2.14c-1.24,1.43-1.86,3.68-1.86,6.77s.6,5.42,1.8,6.84a5.86,5.86,0,0,0,4.7,2.13,5.56,5.56,0,0,0,3.89-1.43A7.1,7.1,0,0,0,1200,1017.66Z"/><path id="ArialMT-6b" class="cls-3" d="M1207.26,1026.21V994h4v18.36l9.36-9.49h5.12l-8.92,8.65,9.82,14.69h-4.88l-7.71-11.94-2.79,2.68v9.26Z"/><path id="ArialMT-73" class="cls-3" d="M1228.16,1019.24l3.91-.61a5.46,5.46,0,0,0,1.84,3.6,6.41,6.41,0,0,0,4.21,1.25,6.14,6.14,0,0,0,4-1.11,3.33,3.33,0,0,0,1.33-2.61,2.39,2.39,0,0,0-1.17-2.1,16.65,16.65,0,0,0-4-1.34,36.85,36.85,0,0,1-6-1.91,5.74,5.74,0,0,1-3.42-5.35,6.08,6.08,0,0,1,.71-2.88,6.38,6.38,0,0,1,2-2.21,8.06,8.06,0,0,1,2.51-1.15,11.83,11.83,0,0,1,3.42-.48,13.41,13.41,0,0,1,4.82.8,6.5,6.5,0,0,1,3.07,2.14,8.34,8.34,0,0,1,1.36,3.61l-3.87.52a4.17,4.17,0,0,0-1.52-2.8,5.58,5.58,0,0,0-3.57-1,6.47,6.47,0,0,0-3.89.9,2.61,2.61,0,0,0-1.17,2.11,2.14,2.14,0,0,0,.49,1.38,3.65,3.65,0,0,0,1.51,1.06c.4.14,1.56.48,3.5,1a49.4,49.4,0,0,1,5.85,1.84,5.93,5.93,0,0,1,2.6,2.08,5.76,5.76,0,0,1,1,3.38,6.66,6.66,0,0,1-1.15,3.73,7.48,7.48,0,0,1-3.34,2.7,12.15,12.15,0,0,1-4.91,1q-4.55,0-6.93-1.89A8.8,8.8,0,0,1,1228.16,1019.24Z"/></g></g><g id="matplotlib.axis_4" data-name="matplotlib.axis 4"><g id="ytick_9" data-name="ytick 9"><g id="text_20" data-name="text 20"><path id="ArialMT-37-2" data-name="ArialMT-37" class="cls-3" d="M802.25,815.46v-3.39h18.54v2.74a39.31,39.31,0,0,0-5.43,7.73,47.38,47.38,0,0,0-4.14,9.93,37.31,37.31,0,0,0-1.35,7.87h-3.61a34.86,34.86,0,0,1,1.32-8.17,42.84,42.84,0,0,1,3.65-9.23,38.8,38.8,0,0,1,5-7.48Z"/><path id="ArialMT-30-10" data-name="ArialMT-30" class="cls-3" d="M824.27,826.22a26.17,26.17,0,0,1,1-8.18,10.16,10.16,0,0,1,3.1-4.77,7.93,7.93,0,0,1,5.19-1.68,8.45,8.45,0,0,1,4,.93,7.64,7.64,0,0,1,2.87,2.67,14.23,14.23,0,0,1,1.78,4.26,28.3,28.3,0,0,1,.64,6.77,26.24,26.24,0,0,1-1,8.13,10.18,10.18,0,0,1-3.1,4.79,8.73,8.73,0,0,1-11.7-1.28Q824.27,834.28,824.27,826.22Zm3.61,0q0,7,1.65,9.39a4.71,4.71,0,0,0,8.14,0q1.65-2.34,1.65-9.37t-1.65-9.4a4.89,4.89,0,0,0-4.11-2.32,4.52,4.52,0,0,0-3.87,2Q827.88,819.16,827.88,826.22Z"/><path id="ArialMT-30-11" data-name="ArialMT-30" class="cls-3" d="M846.51,826.22a26.13,26.13,0,0,1,1-8.18,10,10,0,0,1,3.1-4.77,7.92,7.92,0,0,1,5.18-1.68,8.47,8.47,0,0,1,4,.93,7.71,7.71,0,0,1,2.87,2.67,14.49,14.49,0,0,1,1.78,4.26,28.3,28.3,0,0,1,.64,6.77,26.21,26.21,0,0,1-1,8.13,10.17,10.17,0,0,1-3.09,4.79,8,8,0,0,1-5.21,1.68,7.87,7.87,0,0,1-6.5-3Q846.52,834.28,846.51,826.22Zm3.61,0q0,7,1.65,9.39a4.72,4.72,0,0,0,8.15,0q1.65-2.34,1.65-9.37t-1.65-9.4a4.89,4.89,0,0,0-4.11-2.32,4.49,4.49,0,0,0-3.87,2Q850.13,819.16,850.12,826.22Z"/></g></g><g id="ytick_10" data-name="ytick 10"><g id="text_21" data-name="text 21"><path id="ArialMT-37-3" data-name="ArialMT-37" class="cls-3" d="M802.25,674.4V671h18.54v2.74a39,39,0,0,0-5.43,7.73,47.38,47.38,0,0,0-4.14,9.93,37.21,37.21,0,0,0-1.35,7.86h-3.61a34.87,34.87,0,0,1,1.32-8.16,42.64,42.64,0,0,1,3.65-9.23,39.21,39.21,0,0,1,5-7.49Z"/><path id="ArialMT-35-3" data-name="ArialMT-35" class="cls-3" d="M824.27,691.78l3.68-.31a6.66,6.66,0,0,0,1.91,4.06,5.2,5.2,0,0,0,3.61,1.35,5.58,5.58,0,0,0,4.29-1.91,7.23,7.23,0,0,0,1.76-5.08,6.54,6.54,0,0,0-1.69-4.74,5.87,5.87,0,0,0-4.43-1.75,6.12,6.12,0,0,0-3.07.78,6,6,0,0,0-2.14,2l-3.3-.43L827.66,671H841.9v3.36H830.47l-1.54,7.7a9.3,9.3,0,0,1,5.41-1.8,8.55,8.55,0,0,1,6.33,2.6,9.08,9.08,0,0,1,2.58,6.68A10.44,10.44,0,0,1,841,696.3a9.07,9.07,0,0,1-7.51,3.47,9.28,9.28,0,0,1-6.39-2.19A8.51,8.51,0,0,1,824.27,691.78Z"/><path id="ArialMT-30-12" data-name="ArialMT-30" class="cls-3" d="M846.51,685.17a26.09,26.09,0,0,1,1-8.18,10,10,0,0,1,3.1-4.77,7.87,7.87,0,0,1,5.18-1.69,8.35,8.35,0,0,1,4,.94,7.63,7.63,0,0,1,2.87,2.67,14.38,14.38,0,0,1,1.78,4.26,28.25,28.25,0,0,1,.64,6.77,26.3,26.3,0,0,1-1,8.13,10.09,10.09,0,0,1-3.09,4.78,8.71,8.71,0,0,1-11.71-1.28Q846.52,693.23,846.51,685.17Zm3.61,0c0,4.7.55,7.82,1.65,9.38a4.72,4.72,0,0,0,8.15,0c1.1-1.56,1.65-4.69,1.65-9.37s-.55-7.85-1.65-9.4a4.89,4.89,0,0,0-4.11-2.32,4.49,4.49,0,0,0-3.87,2Q850.13,678.11,850.12,685.17Z"/></g></g><g id="ytick_11" data-name="ytick 11"><g id="text_22" data-name="text 22"><path id="ArialMT-38-2" data-name="ArialMT-38" class="cls-3" d="M807.43,542.71a6.71,6.71,0,0,1-3.25-2.29,6,6,0,0,1-1-3.56,6.94,6.94,0,0,1,2.25-5.25,8.33,8.33,0,0,1,6-2.13,8.42,8.42,0,0,1,6,2.18,7.06,7.06,0,0,1,2.29,5.3,5.82,5.82,0,0,1-1,3.47,6.71,6.71,0,0,1-3.17,2.28,7.28,7.28,0,0,1,5.38,7.34,8.2,8.2,0,0,1-2.6,6.17,10.56,10.56,0,0,1-13.66,0A8.32,8.32,0,0,1,802,550a7.56,7.56,0,0,1,1.41-4.67A7.07,7.07,0,0,1,807.43,542.71Zm-.7-6a4.48,4.48,0,0,0,1.3,3.33,4.65,4.65,0,0,0,3.4,1.29,4.54,4.54,0,0,0,3.33-1.28,4.22,4.22,0,0,0,1.3-3.14,4.35,4.35,0,0,0-1.34-3.25,4.55,4.55,0,0,0-3.33-1.32,4.61,4.61,0,0,0-3.34,1.29A4.16,4.16,0,0,0,806.73,536.74ZM805.59,550a6.32,6.32,0,0,0,.72,2.91,5,5,0,0,0,2.12,2.18,6.09,6.09,0,0,0,3,.77,5.67,5.67,0,0,0,4.16-1.62,5.57,5.57,0,0,0,1.64-4.12,5.64,5.64,0,0,0-1.69-4.2,5.76,5.76,0,0,0-4.23-1.66,5.54,5.54,0,0,0-4.11,1.64A5.6,5.6,0,0,0,805.59,550Z"/><path id="ArialMT-30-13" data-name="ArialMT-30" class="cls-3" d="M824.27,544.11a26.1,26.1,0,0,1,1-8.17,10.2,10.2,0,0,1,3.1-4.78,7.93,7.93,0,0,1,5.19-1.68,8.45,8.45,0,0,1,4,.93,7.66,7.66,0,0,1,2.87,2.68,14.17,14.17,0,0,1,1.78,4.25,28.3,28.3,0,0,1,.64,6.77,26.24,26.24,0,0,1-1,8.13,10.13,10.13,0,0,1-3.1,4.79,8.7,8.7,0,0,1-11.7-1.28Q824.27,552.18,824.27,544.11Zm3.61,0q0,7,1.65,9.39a4.71,4.71,0,0,0,8.14,0q1.65-2.34,1.65-9.38c0-4.71-.55-7.85-1.65-9.39a4.9,4.9,0,0,0-4.11-2.33,4.54,4.54,0,0,0-3.87,2.05Q827.88,537.07,827.88,544.11Z"/><path id="ArialMT-30-14" data-name="ArialMT-30" class="cls-3" d="M846.51,544.11a26.06,26.06,0,0,1,1-8.17,10,10,0,0,1,3.1-4.78,7.92,7.92,0,0,1,5.18-1.68,8.47,8.47,0,0,1,4,.93,7.74,7.74,0,0,1,2.87,2.68,14.43,14.43,0,0,1,1.78,4.25,28.3,28.3,0,0,1,.64,6.77,26.21,26.21,0,0,1-1,8.13,10.12,10.12,0,0,1-3.09,4.79,8.71,8.71,0,0,1-11.71-1.28Q846.52,552.18,846.51,544.11Zm3.61,0q0,7,1.65,9.39a4.72,4.72,0,0,0,8.15,0q1.65-2.34,1.65-9.38c0-4.71-.55-7.85-1.65-9.39a4.9,4.9,0,0,0-4.11-2.33,4.51,4.51,0,0,0-3.87,2.05Q850.13,537.07,850.12,544.11Z"/></g></g><g id="ytick_12" data-name="ytick 12"><g id="text_23" data-name="text 23"><path id="ArialMT-38-3" data-name="ArialMT-38" class="cls-3" d="M807.43,401.65a6.7,6.7,0,0,1-3.25-2.28,6,6,0,0,1-1-3.56,6.94,6.94,0,0,1,2.25-5.25,8.33,8.33,0,0,1,6-2.13,8.42,8.42,0,0,1,6,2.18,7.06,7.06,0,0,1,2.29,5.3,5.82,5.82,0,0,1-1,3.47,6.63,6.63,0,0,1-3.17,2.27,7.3,7.3,0,0,1,5.38,7.35,8.21,8.21,0,0,1-2.6,6.17,10.56,10.56,0,0,1-13.66,0,8.33,8.33,0,0,1-2.6-6.26,7.59,7.59,0,0,1,1.41-4.68A7.12,7.12,0,0,1,807.43,401.65Zm-.7-6A4.49,4.49,0,0,0,808,399a4.69,4.69,0,0,0,3.4,1.28,4.53,4.53,0,0,0,3.33-1.27,4.23,4.23,0,0,0,1.3-3.14,4.38,4.38,0,0,0-1.34-3.26,4.93,4.93,0,0,0-6.67,0A4.16,4.16,0,0,0,806.73,395.69Zm-1.14,13.23a6.32,6.32,0,0,0,.72,2.91,5,5,0,0,0,2.12,2.18,6.19,6.19,0,0,0,3,.77,5.67,5.67,0,0,0,4.16-1.62,5.58,5.58,0,0,0,1.64-4.13,5.64,5.64,0,0,0-1.69-4.2,5.8,5.8,0,0,0-4.23-1.66,5.61,5.61,0,0,0-5.74,5.75Z"/><path id="ArialMT-35-4" data-name="ArialMT-35" class="cls-3" d="M824.27,409.68l3.68-.31a6.66,6.66,0,0,0,1.91,4.05,5.17,5.17,0,0,0,3.61,1.36,5.62,5.62,0,0,0,4.29-1.91,7.26,7.26,0,0,0,1.76-5.09,6.54,6.54,0,0,0-1.69-4.74,5.9,5.9,0,0,0-4.43-1.74,6.22,6.22,0,0,0-3.07.77,6,6,0,0,0-2.14,2l-3.3-.43,2.77-14.71H841.9v3.37H830.47L828.93,400a9.3,9.3,0,0,1,5.41-1.8,8.59,8.59,0,0,1,6.33,2.6,9.08,9.08,0,0,1,2.58,6.68,10.44,10.44,0,0,1-2.27,6.72,9.06,9.06,0,0,1-7.51,3.48,9.28,9.28,0,0,1-6.39-2.19A8.54,8.54,0,0,1,824.27,409.68Z"/><path id="ArialMT-30-15" data-name="ArialMT-30" class="cls-3" d="M846.51,403.06a26.13,26.13,0,0,1,1-8.18,10.07,10.07,0,0,1,3.1-4.77,7.92,7.92,0,0,1,5.18-1.68,8.47,8.47,0,0,1,4,.93,7.79,7.79,0,0,1,2.87,2.67,14.61,14.61,0,0,1,1.78,4.26,28.3,28.3,0,0,1,.64,6.77,26.21,26.21,0,0,1-1,8.13,10.17,10.17,0,0,1-3.09,4.79,8,8,0,0,1-5.21,1.69,7.85,7.85,0,0,1-6.5-3Q846.52,411.12,846.51,403.06Zm3.61,0q0,7.05,1.65,9.39a4.72,4.72,0,0,0,8.15,0q1.65-2.34,1.65-9.37t-1.65-9.39a4.9,4.9,0,0,0-4.11-2.33,4.49,4.49,0,0,0-3.87,2.05C850.73,395.13,850.12,398.36,850.12,403.06Z"/></g></g><g id="ytick_13" data-name="ytick 13"><g id="text_24" data-name="text 24"><path id="ArialMT-39-9" data-name="ArialMT-39" class="cls-3" d="M802.54,269.51l3.39-.32a5.89,5.89,0,0,0,1.63,3.46,4.51,4.51,0,0,0,3.11,1.08,5.33,5.33,0,0,0,2.84-.75,6,6,0,0,0,2-2,11.74,11.74,0,0,0,1.31-3.35,17.77,17.77,0,0,0,.53-4.3c0-.15,0-.39,0-.7a8,8,0,0,1-2.88,2.73,7.89,7.89,0,0,1-4,1,8,8,0,0,1-6-2.58A9.43,9.43,0,0,1,802,257a9.67,9.67,0,0,1,2.57-7,8.56,8.56,0,0,1,6.43-2.65,9.23,9.23,0,0,1,5.11,1.5,9.37,9.37,0,0,1,3.51,4.29,21.12,21.12,0,0,1,1.2,8.06,25.87,25.87,0,0,1-1.19,8.73,10.17,10.17,0,0,1-3.54,5,9.14,9.14,0,0,1-5.52,1.7,7.56,7.56,0,0,1-8.05-7.1Zm14.4-12.64a6.92,6.92,0,0,0-1.61-4.81,5.06,5.06,0,0,0-3.88-1.77,5.37,5.37,0,0,0-4.08,1.91,7.1,7.1,0,0,0-1.74,5,6.15,6.15,0,0,0,1.65,4.45,5.47,5.47,0,0,0,4.07,1.7,5.21,5.21,0,0,0,4-1.7A6.73,6.73,0,0,0,816.94,256.87Z"/><path id="ArialMT-30-16" data-name="ArialMT-30" class="cls-3" d="M824.27,262a26.12,26.12,0,0,1,1-8.18,10.16,10.16,0,0,1,3.1-4.77,7.93,7.93,0,0,1,5.19-1.68,8.45,8.45,0,0,1,4,.93,7.64,7.64,0,0,1,2.87,2.67,14.12,14.12,0,0,1,1.78,4.26,28.3,28.3,0,0,1,.64,6.77,26.24,26.24,0,0,1-1,8.13,10.18,10.18,0,0,1-3.1,4.79,7.94,7.94,0,0,1-5.2,1.68,7.84,7.84,0,0,1-6.5-3Q824.27,270.07,824.27,262Zm3.61,0q0,7,1.65,9.38a4.7,4.7,0,0,0,8.14,0c1.1-1.56,1.65-4.69,1.65-9.37s-.55-7.85-1.65-9.4a4.89,4.89,0,0,0-4.11-2.32,4.52,4.52,0,0,0-3.87,2.05Q827.88,255,827.88,262Z"/><path id="ArialMT-30-17" data-name="ArialMT-30" class="cls-3" d="M846.51,262a26.09,26.09,0,0,1,1-8.18,10,10,0,0,1,3.1-4.77,7.92,7.92,0,0,1,5.18-1.68,8.47,8.47,0,0,1,4,.93,7.71,7.71,0,0,1,2.87,2.67,14.38,14.38,0,0,1,1.78,4.26,28.3,28.3,0,0,1,.64,6.77,26.21,26.21,0,0,1-1,8.13,10.17,10.17,0,0,1-3.09,4.79,8,8,0,0,1-5.21,1.68,7.85,7.85,0,0,1-6.5-3Q846.52,270.07,846.51,262Zm3.61,0q0,7,1.65,9.38a4.71,4.71,0,0,0,8.15,0c1.1-1.56,1.65-4.69,1.65-9.37s-.55-7.85-1.65-9.4a4.89,4.89,0,0,0-4.11-2.32,4.49,4.49,0,0,0-3.87,2.05Q850.13,255,850.12,262Z"/></g></g><g id="ytick_14" data-name="ytick 14"><g id="text_25" data-name="text 25"><path id="ArialMT-39-10" data-name="ArialMT-39" class="cls-3" d="M802.54,128.45l3.39-.31a5.89,5.89,0,0,0,1.63,3.46,4.55,4.55,0,0,0,3.11,1.07,5.42,5.42,0,0,0,2.84-.74,6.2,6.2,0,0,0,2-2,11.74,11.74,0,0,0,1.31-3.35,17.77,17.77,0,0,0,.53-4.3c0-.16,0-.39,0-.7a8.1,8.1,0,0,1-2.88,2.72,7.8,7.8,0,0,1-4,1.05,8,8,0,0,1-6-2.58A9.45,9.45,0,0,1,802,116a9.67,9.67,0,0,1,2.57-7,8.57,8.57,0,0,1,6.43-2.66,9.16,9.16,0,0,1,5.11,1.51,9.37,9.37,0,0,1,3.51,4.29,21.1,21.1,0,0,1,1.2,8,25.94,25.94,0,0,1-1.19,8.74,10.17,10.17,0,0,1-3.54,5,9.2,9.2,0,0,1-5.52,1.7,7.56,7.56,0,0,1-8.05-7.11Zm14.4-12.63a6.91,6.91,0,0,0-1.61-4.81,5.06,5.06,0,0,0-3.88-1.77,5.34,5.34,0,0,0-4.08,1.91,7.08,7.08,0,0,0-1.74,5,6.13,6.13,0,0,0,1.65,4.44,5.44,5.44,0,0,0,4.07,1.71,5.19,5.19,0,0,0,4-1.71A6.72,6.72,0,0,0,816.94,115.82Z"/><path id="ArialMT-35-5" data-name="ArialMT-35" class="cls-3" d="M824.27,127.57l3.68-.31a6.66,6.66,0,0,0,1.91,4.06,5.2,5.2,0,0,0,3.61,1.35,5.58,5.58,0,0,0,4.29-1.91,7.23,7.23,0,0,0,1.76-5.08,6.51,6.51,0,0,0-1.69-4.74,5.87,5.87,0,0,0-4.43-1.75,6.12,6.12,0,0,0-3.07.78,6,6,0,0,0-2.14,2l-3.3-.43,2.77-14.71H841.9v3.36H830.47l-1.54,7.7a9.3,9.3,0,0,1,5.41-1.8,8.55,8.55,0,0,1,6.33,2.6,9.08,9.08,0,0,1,2.58,6.68,10.44,10.44,0,0,1-2.27,6.72,9.07,9.07,0,0,1-7.51,3.47,9.28,9.28,0,0,1-6.39-2.19A8.54,8.54,0,0,1,824.27,127.57Z"/><path id="ArialMT-30-18" data-name="ArialMT-30" class="cls-3" d="M846.51,121a26.06,26.06,0,0,1,1-8.17,10,10,0,0,1,3.1-4.78,7.92,7.92,0,0,1,5.18-1.68,8.47,8.47,0,0,1,4,.93,7.74,7.74,0,0,1,2.87,2.68,14.38,14.38,0,0,1,1.78,4.26,28.21,28.21,0,0,1,.64,6.76,26.32,26.32,0,0,1-1,8.14,10.13,10.13,0,0,1-3.09,4.78,8.71,8.71,0,0,1-11.71-1.28Q846.52,129,846.51,121Zm3.61,0q0,7,1.65,9.39a4.72,4.72,0,0,0,8.15,0q1.65-2.34,1.65-9.38t-1.65-9.39a4.89,4.89,0,0,0-4.11-2.32,4.49,4.49,0,0,0-3.87,2.05Q850.13,113.9,850.12,121Z"/></g></g><g id="text_26" data-name="text 26"><path id="ArialMT-4d" class="cls-3" d="M786.89,652.15H754.68v-6.42l22.8-7.62c2.13-.7,3.72-1.22,4.77-1.54q-1.75-.55-5.17-1.71l-22.4-7.71v-5.74h32.21v4.11h-27l27,9.36v3.85L759.46,648h27.43Z"/><path id="ArialMT-65" class="cls-3" d="M779.37,599.06l.51-4.08a9.94,9.94,0,0,1,5.56,3.58,12.16,12.16,0,0,1-1.18,14.8q-3.15,3-8.84,3-5.89,0-9.14-3a10.29,10.29,0,0,1-3.26-7.87,10,10,0,0,1,3.19-7.65q3.18-3,9-3l1.06,0v17.41a9,9,0,0,0,5.89-2.18,6.48,6.48,0,0,0,2-4.88A6.08,6.08,0,0,0,783,601.5,7.62,7.62,0,0,0,779.37,599.06Zm-6.39,13V599a7.85,7.85,0,0,0-4.42,1.49,6.06,6.06,0,0,0-2.28,4.9A6.28,6.28,0,0,0,768.1,610,7.23,7.23,0,0,0,773,612.05Z"/><path id="ArialMT-61-2" data-name="ArialMT-61" class="cls-3" d="M784,574.78a15.17,15.17,0,0,1,2.64,4.23,12.3,12.3,0,0,1,.76,4.36,8.51,8.51,0,0,1-1.87,5.92,6.25,6.25,0,0,1-4.81,2.06,6.34,6.34,0,0,1-3.12-.78,6.43,6.43,0,0,1-2.28-2,9.75,9.75,0,0,1-1.3-2.85,29.09,29.09,0,0,1-.59-3.52,36.72,36.72,0,0,0-1.36-7l-1,0a4.38,4.38,0,0,0-3.41,1.12,6.63,6.63,0,0,0-1.33,4.5,7,7,0,0,0,1,4.13,6,6,0,0,0,3.46,2l-.53,3.87a9.49,9.49,0,0,1-4-1.74,7.57,7.57,0,0,1-2.35-3.49,15.54,15.54,0,0,1-.83-5.29,14,14,0,0,1,.71-4.86,5.54,5.54,0,0,1,4.46-4,22.59,22.59,0,0,1,3.64-.19h5.28a55.18,55.18,0,0,0,7-.26,8.64,8.64,0,0,0,2.8-1V574A8.45,8.45,0,0,1,784,574.78Zm-8.84.33a28.8,28.8,0,0,1,1.5,6.46,14.78,14.78,0,0,0,.79,3.45,3.51,3.51,0,0,0,1.28,1.57,3.43,3.43,0,0,0,1.88.54,3.35,3.35,0,0,0,2.64-1.19,5.18,5.18,0,0,0,1-3.51,8.09,8.09,0,0,0-1-4.06,6.11,6.11,0,0,0-2.73-2.62,9.47,9.47,0,0,0-4-.64Z"/><path id="ArialMT-6e" class="cls-3" d="M786.89,565H763.55v-3.55h3.32A8.4,8.4,0,0,1,763,554a9.84,9.84,0,0,1,.76-3.88,6.11,6.11,0,0,1,2-2.65,7.48,7.48,0,0,1,2.92-1.23,22.4,22.4,0,0,1,3.85-.22h14.35v4h-14.2a10.54,10.54,0,0,0-3.61.46,3.78,3.78,0,0,0-1.91,1.63,5.21,5.21,0,0,0-.72,2.76,6.43,6.43,0,0,0,1.61,4.37c1.07,1.22,3.09,1.83,6.08,1.83h12.75Z"/><path id="ArialMT-52" class="cls-3" d="M786.89,526.88H754.68V512.6a18.9,18.9,0,0,1,.87-6.54,7.15,7.15,0,0,1,3.06-3.59,9.18,9.18,0,0,1,4.86-1.34,8.09,8.09,0,0,1,5.77,2.22q2.35,2.22,3,6.86a11,11,0,0,1,1.61-2.58,21.9,21.9,0,0,1,4.28-3.53l8.77-5.61v5.37l-6.7,4.26q-2.91,1.86-4.44,3.08a9.37,9.37,0,0,0-2.15,2.16,6.31,6.31,0,0,0-.87,1.94,13.2,13.2,0,0,0-.15,2.37v5h14.31Zm-18-4.26v-9.17a13.8,13.8,0,0,0-.6-4.56,4.88,4.88,0,0,0-1.93-2.51,5.25,5.25,0,0,0-2.89-.86,4.81,4.81,0,0,0-3.76,1.66c-1,1.11-1.48,2.86-1.48,5.25v10.19Z"/><path id="ArialMT-54" class="cls-3" d="M786.89,487.05H758.47v10.61h-3.79V472.13h3.79v10.65h28.42Z"/><path id="ArialMT-28" class="cls-3" d="M796.36,449a39.5,39.5,0,0,1-9.67,5.54,30.38,30.38,0,0,1-21.49.57A41.53,41.53,0,0,1,754.13,449v-2.83c3,1.77,5.22,2.94,6.52,3.51a34.84,34.84,0,0,0,6.33,2.11,36.73,36.73,0,0,0,8.26,1q10.57,0,21.12-6.57Z"/><path id="ArialMT-6d" class="cls-3" d="M786.89,441.56H763.55V438h3.28A8.23,8.23,0,0,1,763,431a7.69,7.69,0,0,1,1.08-4.26,5.83,5.83,0,0,1,3-2.34,8.38,8.38,0,0,1-4.09-7.21,7.05,7.05,0,0,1,1.93-5.33q1.92-1.87,5.92-1.87h16v3.93H772.18a10.66,10.66,0,0,0-3.41.39,3.33,3.33,0,0,0-1.68,1.39,4.37,4.37,0,0,0-.64,2.37,5.53,5.53,0,0,0,1.64,4.09q1.63,1.63,5.24,1.63h13.56v3.95H771.73a6.59,6.59,0,0,0-4,1,3.63,3.63,0,0,0-1.33,3.16,5.81,5.81,0,0,0,.88,3.09,5,5,0,0,0,2.58,2,14.26,14.26,0,0,0,4.87.64h12.11Z"/><path id="ArialMT-73-2" data-name="ArialMT-73" class="cls-3" d="M779.92,405.65l-.61-3.91a5.5,5.5,0,0,0,3.6-1.83,6.44,6.44,0,0,0,1.25-4.21,6.17,6.17,0,0,0-1.11-4,3.32,3.32,0,0,0-2.6-1.32,2.4,2.4,0,0,0-2.11,1.17,16.31,16.31,0,0,0-1.34,4,36.65,36.65,0,0,1-1.91,6,5.87,5.87,0,0,1-2.21,2.56,6,6,0,0,1-3.14.86,6.08,6.08,0,0,1-2.88-.71,6.38,6.38,0,0,1-2.21-1.95,8.06,8.06,0,0,1-1.15-2.51,11.78,11.78,0,0,1-.48-3.42,13.45,13.45,0,0,1,.8-4.82,6.47,6.47,0,0,1,2.14-3.06,8.34,8.34,0,0,1,3.61-1.37l.53,3.87a4.17,4.17,0,0,0-2.81,1.53,5.6,5.6,0,0,0-1,3.57,6.49,6.49,0,0,0,.9,3.89,2.63,2.63,0,0,0,2.11,1.16,2.19,2.19,0,0,0,1.38-.48,3.54,3.54,0,0,0,1.06-1.52c.14-.39.48-1.56,1-3.49a49.4,49.4,0,0,1,1.84-5.85,6,6,0,0,1,2.08-2.61,5.76,5.76,0,0,1,3.38-1,6.67,6.67,0,0,1,3.73,1.16,7.51,7.51,0,0,1,2.7,3.33,12.23,12.23,0,0,1,.95,4.92q0,4.54-1.89,6.93A8.79,8.79,0,0,1,779.92,405.65Z"/><path id="ArialMT-29" class="cls-3" d="M796.36,379v2.83q-10.54-6.57-21.12-6.57a36.71,36.71,0,0,0-8.2.94,35.74,35.74,0,0,0-6.32,2.09,72.28,72.28,0,0,0-6.59,3.54V379a41.81,41.81,0,0,1,11.07-6.11,30.25,30.25,0,0,1,21.49.59A40.11,40.11,0,0,1,796.36,379Z"/></g></g><g id="line2d_3" data-name="line2d 3"><g class="cls-9"><path class="cls-10" d="M904.08,775.12l139.46,42.21L1183,835.07,1322.47,855l139.46,11.89"/></g></g><g id="LineCollection_1" data-name="LineCollection 1"><g class="cls-9"><path class="cls-10" d="M904.08,816V733.55"/></g><g class="cls-9"><path class="cls-10" d="M1043.54,856.12V781"/></g><g class="cls-9"><path class="cls-10" d="M1183,874.13V798"/></g><g class="cls-9"><path class="cls-10" d="M1322.47,894V818.49"/></g><g class="cls-9"><path class="cls-10" d="M1461.93,905.06V828.45"/></g></g><g id="line2d_4" data-name="line2d 4"><g class="cls-9"><path class="cls-11" d="M904.08,170.2l139.46,45,139.47-3,139.46,46.75,139.46,59.67"/></g></g><g id="LineCollection_2" data-name="LineCollection 2"><g class="cls-9"><path class="cls-11" d="M904.08,219.83V120"/></g><g class="cls-9"><path class="cls-11" d="M1043.54,262.55V166.87"/></g><g class="cls-9"><path class="cls-11" d="M1183,262.58V162.41"/></g><g class="cls-9"><path class="cls-11" d="M1322.47,303.55V212"/></g><g class="cls-9"><path class="cls-11" d="M1461.93,367.73V266.89"/></g></g><g id="patch_8" data-name="patch 8"><path class="cls-8" d="M876.19,944.31V80.75"/></g><g id="patch_9" data-name="patch 9"><path class="cls-8" d="M876.19,944.31h613.63"/></g><g id="text_27" data-name="text 27"><path id="ArialMT-42-2" data-name="ArialMT-42" class="cls-3" d="M775.28,76.82V21h21a25.85,25.85,0,0,1,10.26,1.7,13.2,13.2,0,0,1,6,5.21,13.78,13.78,0,0,1,2.19,7.38A12.75,12.75,0,0,1,812.79,42a13.79,13.79,0,0,1-5.86,5.09,14.59,14.59,0,0,1,7.78,5.07,13.56,13.56,0,0,1,2.73,8.46,16.39,16.39,0,0,1-1.66,7.3,14.17,14.17,0,0,1-4.1,5.19,17.16,17.16,0,0,1-6.11,2.77,37.31,37.31,0,0,1-9,.92Zm7.38-32.37h12.08a27.09,27.09,0,0,0,7-.64A7.87,7.87,0,0,0,806,41a8.07,8.07,0,0,0,1.42-4.89,9,9,0,0,0-1.32-4.88,6.71,6.71,0,0,0-3.82-2.9,31.78,31.78,0,0,0-8.48-.78H782.66Zm0,25.78h13.91a31.51,31.51,0,0,0,5-.27,11.92,11.92,0,0,0,4.27-1.51,8,8,0,0,0,2.81-3.11,9.63,9.63,0,0,0,1.11-4.7,9.29,9.29,0,0,0-1.59-5.42A8.4,8.4,0,0,0,803.75,52a27.65,27.65,0,0,0-8.18-.93H782.66Z"/></g><g id="legend_1" data-name="legend 1"><g id="line2d_9" data-name="line2d 9"><path class="cls-10" d="M1272.31,121.15h93.6"/></g><g id="text_28" data-name="text 28"><path id="ArialMT-43-3" data-name="ArialMT-43" class="cls-3" d="M1430.87,125.78l4.43,1.12a14.94,14.94,0,0,1-5,8.33,13.86,13.86,0,0,1-8.86,2.87,16,16,0,0,1-8.81-2.2,13.87,13.87,0,0,1-5.16-6.39,22.84,22.84,0,0,1-1.77-9,19.73,19.73,0,0,1,2-9.13,13.8,13.8,0,0,1,5.69-5.92,16.62,16.62,0,0,1,8.13-2A13.69,13.69,0,0,1,1430,106a13.24,13.24,0,0,1,4.78,7.19l-4.36,1a10.38,10.38,0,0,0-3.39-5.32,9,9,0,0,0-5.57-1.67,10.86,10.86,0,0,0-6.46,1.85,9.78,9.78,0,0,0-3.65,5,20.22,20.22,0,0,0-1,6.42,20.42,20.42,0,0,0,1.24,7.46,9.27,9.27,0,0,0,3.87,4.77,10.87,10.87,0,0,0,5.69,1.57,9.53,9.53,0,0,0,6.31-2.14A11,11,0,0,0,1430.87,125.78Z"/><path id="ArialMT-4f-2" data-name="ArialMT-4f" class="cls-3" d="M1439.41,121.21q0-8.34,4.48-13.06a15.2,15.2,0,0,1,11.56-4.72,16,16,0,0,1,8.37,2.22,14.49,14.49,0,0,1,5.67,6.18,20,20,0,0,1,2,9,19.62,19.62,0,0,1-2.06,9.11,14,14,0,0,1-5.83,6.09,16.61,16.61,0,0,1-8.13,2.07,15.91,15.91,0,0,1-8.46-2.28,14.79,14.79,0,0,1-5.64-6.24A18.94,18.94,0,0,1,1439.41,121.21Zm4.57.07q0,6.06,3.26,9.54a11.36,11.36,0,0,0,16.4,0q3.24-3.51,3.24-10a17.16,17.16,0,0,0-1.38-7.14,10.61,10.61,0,0,0-4-4.73,11,11,0,0,0-6-1.68,11.35,11.35,0,0,0-8.11,3.24Q1444,113.72,1444,121.28Z"/></g><g id="line2d_10" data-name="line2d 10"><path class="cls-11" d="M1272.31,187.35h93.6"/></g><g id="text_29" data-name="text 29"><path id="ArialMT-43-4" data-name="ArialMT-43" class="cls-3" d="M1430.87,192l4.43,1.12a14.94,14.94,0,0,1-5,8.33,13.86,13.86,0,0,1-8.86,2.87,16,16,0,0,1-8.81-2.2,13.87,13.87,0,0,1-5.16-6.39,22.84,22.84,0,0,1-1.77-9,19.73,19.73,0,0,1,2-9.13,13.8,13.8,0,0,1,5.69-5.92,16.62,16.62,0,0,1,8.13-2,13.69,13.69,0,0,1,8.45,2.56,13.24,13.24,0,0,1,4.78,7.19l-4.36,1a10.38,10.38,0,0,0-3.39-5.32,9,9,0,0,0-5.57-1.67,10.86,10.86,0,0,0-6.46,1.85,9.78,9.78,0,0,0-3.65,5,20.22,20.22,0,0,0-1,6.42,20.42,20.42,0,0,0,1.24,7.46,9.27,9.27,0,0,0,3.87,4.77,10.87,10.87,0,0,0,5.69,1.57,9.53,9.53,0,0,0,6.31-2.14A11,11,0,0,0,1430.87,192Z"/><path id="ArialMT-44-2" data-name="ArialMT-44" class="cls-3" d="M1440.76,203.73v-33.5h11.54a28.82,28.82,0,0,1,6,.47,11.54,11.54,0,0,1,4.91,2.4,13.6,13.6,0,0,1,4,5.74,22.31,22.31,0,0,1,1.32,7.95,23.22,23.22,0,0,1-.9,6.77,16.39,16.39,0,0,1-2.28,4.88,12.2,12.2,0,0,1-3,3,12.46,12.46,0,0,1-4,1.68,22.83,22.83,0,0,1-5.38.57Zm4.44-4h7.15a17.45,17.45,0,0,0,5.2-.61,7.37,7.37,0,0,0,3-1.74,10.59,10.59,0,0,0,2.46-4.24,20.85,20.85,0,0,0,.88-6.45q0-5.26-1.73-8.08a8.68,8.68,0,0,0-4.19-3.79,17.55,17.55,0,0,0-5.73-.68h-7Z"/></g></g></svg>