<?xml version="1.0" encoding="utf-8" standalone="no"?>
<!DOCTYPE svg PUBLIC "-//W3C//DTD SVG 1.1//EN"
  "http://www.w3.org/Graphics/SVG/1.1/DTD/svg11.dtd">
<!-- Created with matplotlib (https://matplotlib.org/) -->
<svg height="1382.743098pt" version="1.1" viewBox="0 0 1863.0375 1382.743098" width="1863.0375pt" xmlns="http://www.w3.org/2000/svg" xmlns:xlink="http://www.w3.org/1999/xlink">
 <metadata>
  <rdf:RDF xmlns:cc="http://creativecommons.org/ns#" xmlns:dc="http://purl.org/dc/elements/1.1/" xmlns:rdf="http://www.w3.org/1999/02/22-rdf-syntax-ns#">
   <cc:Work>
    <dc:type rdf:resource="http://purl.org/dc/dcmitype/StillImage"/>
    <dc:date>2022-01-25T12:59:02.342224</dc:date>
    <dc:format>image/svg+xml</dc:format>
    <dc:creator>
     <cc:Agent>
      <dc:title>Matplotlib v3.3.3, https://matplotlib.org/</dc:title>
     </cc:Agent>
    </dc:creator>
   </cc:Work>
  </rdf:RDF>
 </metadata>
 <defs>
  <style type="text/css">*{stroke-linecap:butt;stroke-linejoin:round;}</style>
 </defs>
 <g id="figure_1">
  <g id="patch_1">
   <path d="M 0 1382.743098 
L 1863.0375 1382.743098 
L 1863.0375 0 
L 0 0 
z
" style="fill:#ffffff;"/>
  </g>
  <g id="axes_1">
   <g id="patch_2">
    <path d="M 127.8375 612.949148 
L 913.292045 612.949148 
L 913.292045 62.268104 
L 127.8375 62.268104 
z
" style="fill:#ffffff;"/>
   </g>
   <g id="matplotlib.axis_1">
    <g id="xtick_1">
     <g id="text_1">
      <!-- control -->
      <g style="fill:#262626;" transform="translate(271.679261 652.701492)scale(0.35 -0.35)">
       <defs>
        <path d="M 40.4375 19 
L 49.078125 17.875 
Q 47.65625 8.9375 41.8125 3.875 
Q 35.984375 -1.171875 27.484375 -1.171875 
Q 16.84375 -1.171875 10.375 5.78125 
Q 3.90625 12.75 3.90625 25.734375 
Q 3.90625 34.125 6.6875 40.421875 
Q 9.46875 46.734375 15.15625 49.875 
Q 20.84375 53.03125 27.546875 53.03125 
Q 35.984375 53.03125 41.359375 48.75 
Q 46.734375 44.484375 48.25 36.625 
L 39.703125 35.296875 
Q 38.484375 40.53125 35.375 43.15625 
Q 32.28125 45.796875 27.875 45.796875 
Q 21.234375 45.796875 17.078125 41.03125 
Q 12.9375 36.28125 12.9375 25.984375 
Q 12.9375 15.53125 16.9375 10.796875 
Q 20.953125 6.0625 27.390625 6.0625 
Q 32.5625 6.0625 36.03125 9.234375 
Q 39.5 12.40625 40.4375 19 
z
" id="ArialMT-99"/>
        <path d="M 3.328125 25.921875 
Q 3.328125 40.328125 11.328125 47.265625 
Q 18.015625 53.03125 27.640625 53.03125 
Q 38.328125 53.03125 45.109375 46.015625 
Q 51.90625 39.015625 51.90625 26.65625 
Q 51.90625 16.65625 48.90625 10.90625 
Q 45.90625 5.171875 40.15625 2 
Q 34.421875 -1.171875 27.640625 -1.171875 
Q 16.75 -1.171875 10.03125 5.8125 
Q 3.328125 12.796875 3.328125 25.921875 
z
M 12.359375 25.921875 
Q 12.359375 15.96875 16.703125 11.015625 
Q 21.046875 6.0625 27.640625 6.0625 
Q 34.1875 6.0625 38.53125 11.03125 
Q 42.875 16.015625 42.875 26.21875 
Q 42.875 35.84375 38.5 40.796875 
Q 34.125 45.75 27.640625 45.75 
Q 21.046875 45.75 16.703125 40.8125 
Q 12.359375 35.890625 12.359375 25.921875 
z
" id="ArialMT-111"/>
        <path d="M 6.59375 0 
L 6.59375 51.859375 
L 14.5 51.859375 
L 14.5 44.484375 
Q 20.21875 53.03125 31 53.03125 
Q 35.6875 53.03125 39.625 51.34375 
Q 43.5625 49.65625 45.515625 46.921875 
Q 47.46875 44.1875 48.25 40.4375 
Q 48.734375 37.984375 48.734375 31.890625 
L 48.734375 0 
L 39.9375 0 
L 39.9375 31.546875 
Q 39.9375 36.921875 38.90625 39.578125 
Q 37.890625 42.234375 35.28125 43.8125 
Q 32.671875 45.40625 29.15625 45.40625 
Q 23.53125 45.40625 19.453125 41.84375 
Q 15.375 38.28125 15.375 28.328125 
L 15.375 0 
z
" id="ArialMT-110"/>
        <path d="M 25.78125 7.859375 
L 27.046875 0.09375 
Q 23.34375 -0.6875 20.40625 -0.6875 
Q 15.625 -0.6875 12.984375 0.828125 
Q 10.359375 2.34375 9.28125 4.8125 
Q 8.203125 7.28125 8.203125 15.1875 
L 8.203125 45.015625 
L 1.765625 45.015625 
L 1.765625 51.859375 
L 8.203125 51.859375 
L 8.203125 64.703125 
L 16.9375 69.96875 
L 16.9375 51.859375 
L 25.78125 51.859375 
L 25.78125 45.015625 
L 16.9375 45.015625 
L 16.9375 14.703125 
Q 16.9375 10.9375 17.40625 9.859375 
Q 17.875 8.796875 18.921875 8.15625 
Q 19.96875 7.515625 21.921875 7.515625 
Q 23.390625 7.515625 25.78125 7.859375 
z
" id="ArialMT-116"/>
        <path d="M 6.5 0 
L 6.5 51.859375 
L 14.40625 51.859375 
L 14.40625 44 
Q 17.4375 49.515625 20 51.265625 
Q 22.5625 53.03125 25.640625 53.03125 
Q 30.078125 53.03125 34.671875 50.203125 
L 31.640625 42.046875 
Q 28.421875 43.953125 25.203125 43.953125 
Q 22.3125 43.953125 20.015625 42.21875 
Q 17.71875 40.484375 16.75 37.40625 
Q 15.28125 32.71875 15.28125 27.15625 
L 15.28125 0 
z
" id="ArialMT-114"/>
        <path d="M 6.390625 0 
L 6.390625 71.578125 
L 15.1875 71.578125 
L 15.1875 0 
z
" id="ArialMT-108"/>
       </defs>
       <use xlink:href="#ArialMT-99"/>
       <use x="50" xlink:href="#ArialMT-111"/>
       <use x="105.615234" xlink:href="#ArialMT-110"/>
       <use x="161.230469" xlink:href="#ArialMT-116"/>
       <use x="189.013672" xlink:href="#ArialMT-114"/>
       <use x="222.314453" xlink:href="#ArialMT-111"/>
       <use x="277.929688" xlink:href="#ArialMT-108"/>
      </g>
     </g>
    </g>
    <g id="xtick_2">
     <g id="text_2">
      <!-- patient -->
      <g style="fill:#262626;" transform="translate(664.390128 652.701492)scale(0.35 -0.35)">
       <defs>
        <path d="M 6.59375 -19.875 
L 6.59375 51.859375 
L 14.59375 51.859375 
L 14.59375 45.125 
Q 17.4375 49.078125 21 51.046875 
Q 24.5625 53.03125 29.640625 53.03125 
Q 36.28125 53.03125 41.359375 49.609375 
Q 46.4375 46.1875 49.015625 39.953125 
Q 51.609375 33.734375 51.609375 26.3125 
Q 51.609375 18.359375 48.75 11.984375 
Q 45.90625 5.609375 40.453125 2.21875 
Q 35.015625 -1.171875 29 -1.171875 
Q 24.609375 -1.171875 21.109375 0.6875 
Q 17.625 2.546875 15.375 5.375 
L 15.375 -19.875 
z
M 14.546875 25.640625 
Q 14.546875 15.625 18.59375 10.84375 
Q 22.65625 6.0625 28.421875 6.0625 
Q 34.28125 6.0625 38.453125 11.015625 
Q 42.625 15.96875 42.625 26.375 
Q 42.625 36.28125 38.546875 41.203125 
Q 34.46875 46.140625 28.8125 46.140625 
Q 23.1875 46.140625 18.859375 40.890625 
Q 14.546875 35.640625 14.546875 25.640625 
z
" id="ArialMT-112"/>
        <path d="M 40.4375 6.390625 
Q 35.546875 2.25 31.03125 0.53125 
Q 26.515625 -1.171875 21.34375 -1.171875 
Q 12.796875 -1.171875 8.203125 3 
Q 3.609375 7.171875 3.609375 13.671875 
Q 3.609375 17.484375 5.34375 20.625 
Q 7.078125 23.78125 9.890625 25.6875 
Q 12.703125 27.59375 16.21875 28.5625 
Q 18.796875 29.25 24.03125 29.890625 
Q 34.671875 31.15625 39.703125 32.90625 
Q 39.75 34.71875 39.75 35.203125 
Q 39.75 40.578125 37.25 42.78125 
Q 33.890625 45.75 27.25 45.75 
Q 21.046875 45.75 18.09375 43.578125 
Q 15.140625 41.40625 13.71875 35.890625 
L 5.125 37.0625 
Q 6.296875 42.578125 8.984375 45.96875 
Q 11.671875 49.359375 16.75 51.1875 
Q 21.828125 53.03125 28.515625 53.03125 
Q 35.15625 53.03125 39.296875 51.46875 
Q 43.453125 49.90625 45.40625 47.53125 
Q 47.359375 45.171875 48.140625 41.546875 
Q 48.578125 39.3125 48.578125 33.453125 
L 48.578125 21.734375 
Q 48.578125 9.46875 49.140625 6.21875 
Q 49.703125 2.984375 51.375 0 
L 42.1875 0 
Q 40.828125 2.734375 40.4375 6.390625 
z
M 39.703125 26.03125 
Q 34.90625 24.078125 25.34375 22.703125 
Q 19.921875 21.921875 17.671875 20.9375 
Q 15.4375 19.96875 14.203125 18.09375 
Q 12.984375 16.21875 12.984375 13.921875 
Q 12.984375 10.40625 15.640625 8.0625 
Q 18.3125 5.71875 23.4375 5.71875 
Q 28.515625 5.71875 32.46875 7.9375 
Q 36.421875 10.15625 38.28125 14.015625 
Q 39.703125 17 39.703125 22.796875 
z
" id="ArialMT-97"/>
        <path d="M 6.640625 61.46875 
L 6.640625 71.578125 
L 15.4375 71.578125 
L 15.4375 61.46875 
z
M 6.640625 0 
L 6.640625 51.859375 
L 15.4375 51.859375 
L 15.4375 0 
z
" id="ArialMT-105"/>
        <path d="M 42.09375 16.703125 
L 51.171875 15.578125 
Q 49.03125 7.625 43.21875 3.21875 
Q 37.40625 -1.171875 28.375 -1.171875 
Q 17 -1.171875 10.328125 5.828125 
Q 3.65625 12.84375 3.65625 25.484375 
Q 3.65625 38.578125 10.390625 45.796875 
Q 17.140625 53.03125 27.875 53.03125 
Q 38.28125 53.03125 44.875 45.953125 
Q 51.46875 38.875 51.46875 26.03125 
Q 51.46875 25.25 51.421875 23.6875 
L 12.75 23.6875 
Q 13.234375 15.140625 17.578125 10.59375 
Q 21.921875 6.0625 28.421875 6.0625 
Q 33.25 6.0625 36.671875 8.59375 
Q 40.09375 11.140625 42.09375 16.703125 
z
M 13.234375 30.90625 
L 42.1875 30.90625 
Q 41.609375 37.453125 38.875 40.71875 
Q 34.671875 45.796875 27.984375 45.796875 
Q 21.921875 45.796875 17.796875 41.75 
Q 13.671875 37.703125 13.234375 30.90625 
z
" id="ArialMT-101"/>
       </defs>
       <use xlink:href="#ArialMT-112"/>
       <use x="55.615234" xlink:href="#ArialMT-97"/>
       <use x="111.230469" xlink:href="#ArialMT-116"/>
       <use x="139.013672" xlink:href="#ArialMT-105"/>
       <use x="161.230469" xlink:href="#ArialMT-101"/>
       <use x="216.845703" xlink:href="#ArialMT-110"/>
       <use x="272.460938" xlink:href="#ArialMT-116"/>
      </g>
     </g>
    </g>
   </g>
   <g id="matplotlib.axis_2">
    <g id="ytick_1">
     <g id="text_3">
      <!-- −1 -->
      <g style="fill:#262626;" transform="translate(73.232031 597.049942)scale(0.35 -0.35)">
       <defs>
        <path d="M 52.828125 31.203125 
L 5.5625 31.203125 
L 5.5625 39.40625 
L 52.828125 39.40625 
z
" id="ArialMT-8722"/>
        <path d="M 37.25 0 
L 28.46875 0 
L 28.46875 56 
Q 25.296875 52.984375 20.140625 49.953125 
Q 14.984375 46.921875 10.890625 45.40625 
L 10.890625 53.90625 
Q 18.265625 57.375 23.78125 62.296875 
Q 29.296875 67.234375 31.59375 71.875 
L 37.25 71.875 
z
" id="ArialMT-49"/>
       </defs>
       <use xlink:href="#ArialMT-8722"/>
       <use x="58.398438" xlink:href="#ArialMT-49"/>
      </g>
     </g>
    </g>
    <g id="ytick_2">
     <g id="text_4">
      <!-- 0 -->
      <g style="fill:#262626;" transform="translate(93.674219 487.885043)scale(0.35 -0.35)">
       <defs>
        <path d="M 4.15625 35.296875 
Q 4.15625 48 6.765625 55.734375 
Q 9.375 63.484375 14.515625 67.671875 
Q 19.671875 71.875 27.484375 71.875 
Q 33.25 71.875 37.59375 69.546875 
Q 41.9375 67.234375 44.765625 62.859375 
Q 47.609375 58.5 49.21875 52.21875 
Q 50.828125 45.953125 50.828125 35.296875 
Q 50.828125 22.703125 48.234375 14.96875 
Q 45.65625 7.234375 40.5 3 
Q 35.359375 -1.21875 27.484375 -1.21875 
Q 17.140625 -1.21875 11.234375 6.203125 
Q 4.15625 15.140625 4.15625 35.296875 
z
M 13.1875 35.296875 
Q 13.1875 17.671875 17.3125 11.828125 
Q 21.4375 6 27.484375 6 
Q 33.546875 6 37.671875 11.859375 
Q 41.796875 17.71875 41.796875 35.296875 
Q 41.796875 52.984375 37.671875 58.78125 
Q 33.546875 64.59375 27.390625 64.59375 
Q 21.34375 64.59375 17.71875 59.46875 
Q 13.1875 52.9375 13.1875 35.296875 
z
" id="ArialMT-48"/>
       </defs>
       <use xlink:href="#ArialMT-48"/>
      </g>
     </g>
    </g>
    <g id="ytick_3">
     <g id="text_5">
      <!-- 1 -->
      <g style="fill:#262626;" transform="translate(93.674219 378.720143)scale(0.35 -0.35)">
       <use xlink:href="#ArialMT-49"/>
      </g>
     </g>
    </g>
    <g id="ytick_4">
     <g id="text_6">
      <!-- 2 -->
      <g style="fill:#262626;" transform="translate(93.674219 269.555244)scale(0.35 -0.35)">
       <defs>
        <path d="M 50.34375 8.453125 
L 50.34375 0 
L 3.03125 0 
Q 2.9375 3.171875 4.046875 6.109375 
Q 5.859375 10.9375 9.828125 15.625 
Q 13.8125 20.3125 21.34375 26.46875 
Q 33.015625 36.03125 37.109375 41.625 
Q 41.21875 47.21875 41.21875 52.203125 
Q 41.21875 57.421875 37.46875 61 
Q 33.734375 64.59375 27.734375 64.59375 
Q 21.390625 64.59375 17.578125 60.78125 
Q 13.765625 56.984375 13.71875 50.25 
L 4.6875 51.171875 
Q 5.609375 61.28125 11.65625 66.578125 
Q 17.71875 71.875 27.9375 71.875 
Q 38.234375 71.875 44.234375 66.15625 
Q 50.25 60.453125 50.25 52 
Q 50.25 47.703125 48.484375 43.546875 
Q 46.734375 39.40625 42.65625 34.8125 
Q 38.578125 30.21875 29.109375 22.21875 
Q 21.1875 15.578125 18.9375 13.203125 
Q 16.703125 10.84375 15.234375 8.453125 
z
" id="ArialMT-50"/>
       </defs>
       <use xlink:href="#ArialMT-50"/>
      </g>
     </g>
    </g>
    <g id="ytick_5">
     <g id="text_7">
      <!-- 3 -->
      <g style="fill:#262626;" transform="translate(93.674219 160.390345)scale(0.35 -0.35)">
       <defs>
        <path d="M 4.203125 18.890625 
L 12.984375 20.0625 
Q 14.5 12.59375 18.140625 9.296875 
Q 21.78125 6 27 6 
Q 33.203125 6 37.46875 10.296875 
Q 41.75 14.59375 41.75 20.953125 
Q 41.75 27 37.796875 30.921875 
Q 33.84375 34.859375 27.734375 34.859375 
Q 25.25 34.859375 21.53125 33.890625 
L 22.515625 41.609375 
Q 23.390625 41.5 23.921875 41.5 
Q 29.546875 41.5 34.03125 44.421875 
Q 38.53125 47.359375 38.53125 53.46875 
Q 38.53125 58.296875 35.25 61.46875 
Q 31.984375 64.65625 26.8125 64.65625 
Q 21.6875 64.65625 18.265625 61.421875 
Q 14.84375 58.203125 13.875 51.765625 
L 5.078125 53.328125 
Q 6.6875 62.15625 12.390625 67.015625 
Q 18.109375 71.875 26.609375 71.875 
Q 32.46875 71.875 37.390625 69.359375 
Q 42.328125 66.84375 44.9375 62.5 
Q 47.5625 58.15625 47.5625 53.265625 
Q 47.5625 48.640625 45.0625 44.828125 
Q 42.578125 41.015625 37.703125 38.765625 
Q 44.046875 37.3125 47.5625 32.6875 
Q 51.078125 28.078125 51.078125 21.140625 
Q 51.078125 11.765625 44.234375 5.25 
Q 37.40625 -1.265625 26.953125 -1.265625 
Q 17.53125 -1.265625 11.296875 4.34375 
Q 5.078125 9.96875 4.203125 18.890625 
z
" id="ArialMT-51"/>
       </defs>
       <use xlink:href="#ArialMT-51"/>
      </g>
     </g>
    </g>
    <g id="text_8">
     <!-- RT slope (cloze) -->
     <g style="fill:#262626;" transform="translate(61.865625 464.385189)rotate(-90)scale(0.35 -0.35)">
      <defs>
       <path d="M 7.859375 0 
L 7.859375 71.578125 
L 39.59375 71.578125 
Q 49.171875 71.578125 54.140625 69.640625 
Q 59.125 67.71875 62.109375 62.828125 
Q 65.09375 57.953125 65.09375 52.046875 
Q 65.09375 44.4375 60.15625 39.203125 
Q 55.21875 33.984375 44.921875 32.5625 
Q 48.6875 30.765625 50.640625 29 
Q 54.78125 25.203125 58.5 19.484375 
L 70.953125 0 
L 59.03125 0 
L 49.5625 14.890625 
Q 45.40625 21.34375 42.71875 24.75 
Q 40.046875 28.171875 37.921875 29.53125 
Q 35.796875 30.90625 33.59375 31.453125 
Q 31.984375 31.78125 28.328125 31.78125 
L 17.328125 31.78125 
L 17.328125 0 
z
M 17.328125 39.984375 
L 37.703125 39.984375 
Q 44.1875 39.984375 47.84375 41.328125 
Q 51.515625 42.671875 53.421875 45.625 
Q 55.328125 48.578125 55.328125 52.046875 
Q 55.328125 57.125 51.640625 60.390625 
Q 47.953125 63.671875 39.984375 63.671875 
L 17.328125 63.671875 
z
" id="ArialMT-82"/>
       <path d="M 25.921875 0 
L 25.921875 63.140625 
L 2.34375 63.140625 
L 2.34375 71.578125 
L 59.078125 71.578125 
L 59.078125 63.140625 
L 35.40625 63.140625 
L 35.40625 0 
z
" id="ArialMT-84"/>
       <path id="ArialMT-32"/>
       <path d="M 3.078125 15.484375 
L 11.765625 16.84375 
Q 12.5 11.625 15.84375 8.84375 
Q 19.1875 6.0625 25.203125 6.0625 
Q 31.25 6.0625 34.171875 8.515625 
Q 37.109375 10.984375 37.109375 14.3125 
Q 37.109375 17.28125 34.515625 19 
Q 32.71875 20.171875 25.53125 21.96875 
Q 15.875 24.421875 12.140625 26.203125 
Q 8.40625 27.984375 6.46875 31.125 
Q 4.546875 34.28125 4.546875 38.09375 
Q 4.546875 41.546875 6.125 44.5 
Q 7.71875 47.46875 10.453125 49.421875 
Q 12.5 50.921875 16.03125 51.96875 
Q 19.578125 53.03125 23.640625 53.03125 
Q 29.734375 53.03125 34.34375 51.265625 
Q 38.96875 49.515625 41.15625 46.5 
Q 43.359375 43.5 44.1875 38.484375 
L 35.59375 37.3125 
Q 35.015625 41.3125 32.203125 43.546875 
Q 29.390625 45.796875 24.265625 45.796875 
Q 18.21875 45.796875 15.625 43.796875 
Q 13.03125 41.796875 13.03125 39.109375 
Q 13.03125 37.40625 14.109375 36.03125 
Q 15.1875 34.625 17.484375 33.6875 
Q 18.796875 33.203125 25.25 31.453125 
Q 34.578125 28.953125 38.25 27.359375 
Q 41.9375 25.78125 44.03125 22.75 
Q 46.140625 19.734375 46.140625 15.234375 
Q 46.140625 10.84375 43.578125 6.953125 
Q 41.015625 3.078125 36.171875 0.953125 
Q 31.34375 -1.171875 25.25 -1.171875 
Q 15.140625 -1.171875 9.84375 3.03125 
Q 4.546875 7.234375 3.078125 15.484375 
z
" id="ArialMT-115"/>
       <path d="M 23.390625 -21.046875 
Q 16.109375 -11.859375 11.078125 0.4375 
Q 6.0625 12.75 6.0625 25.921875 
Q 6.0625 37.546875 9.8125 48.1875 
Q 14.203125 60.546875 23.390625 72.796875 
L 29.6875 72.796875 
Q 23.78125 62.640625 21.875 58.296875 
Q 18.890625 51.5625 17.1875 44.234375 
Q 15.09375 35.109375 15.09375 25.875 
Q 15.09375 2.390625 29.6875 -21.046875 
z
" id="ArialMT-40"/>
       <path d="M 1.953125 0 
L 1.953125 7.125 
L 34.96875 45.015625 
Q 29.34375 44.734375 25.046875 44.734375 
L 3.90625 44.734375 
L 3.90625 51.859375 
L 46.296875 51.859375 
L 46.296875 46.046875 
L 18.21875 13.140625 
L 12.796875 7.125 
Q 18.703125 7.5625 23.875 7.5625 
L 47.859375 7.5625 
L 47.859375 0 
z
" id="ArialMT-122"/>
       <path d="M 12.359375 -21.046875 
L 6.0625 -21.046875 
Q 20.65625 2.390625 20.65625 25.875 
Q 20.65625 35.0625 18.5625 44.09375 
Q 16.890625 51.421875 13.921875 58.15625 
Q 12.015625 62.546875 6.0625 72.796875 
L 12.359375 72.796875 
Q 21.53125 60.546875 25.921875 48.1875 
Q 29.6875 37.546875 29.6875 25.921875 
Q 29.6875 12.75 24.625 0.4375 
Q 19.578125 -11.859375 12.359375 -21.046875 
z
" id="ArialMT-41"/>
      </defs>
      <use xlink:href="#ArialMT-82"/>
      <use x="70.466797" xlink:href="#ArialMT-84"/>
      <use x="129.800781" xlink:href="#ArialMT-32"/>
      <use x="157.583984" xlink:href="#ArialMT-115"/>
      <use x="207.583984" xlink:href="#ArialMT-108"/>
      <use x="229.800781" xlink:href="#ArialMT-111"/>
      <use x="285.416016" xlink:href="#ArialMT-112"/>
      <use x="341.03125" xlink:href="#ArialMT-101"/>
      <use x="396.646484" xlink:href="#ArialMT-32"/>
      <use x="424.429688" xlink:href="#ArialMT-40"/>
      <use x="457.730469" xlink:href="#ArialMT-99"/>
      <use x="507.730469" xlink:href="#ArialMT-108"/>
      <use x="529.947266" xlink:href="#ArialMT-111"/>
      <use x="585.5625" xlink:href="#ArialMT-122"/>
      <use x="635.5625" xlink:href="#ArialMT-101"/>
      <use x="691.177734" xlink:href="#ArialMT-41"/>
     </g>
    </g>
   </g>
   <g id="patch_3">
    <path clip-path="url(#pb6c351afde)" d="M 167.110227 475.358871 
L 481.292045 475.358871 
L 481.292045 422.261494 
L 167.110227 422.261494 
z
" style="fill:#772b58;stroke:#ffffff;stroke-linejoin:miter;stroke-width:0.48;"/>
   </g>
   <g id="patch_4">
    <path clip-path="url(#pb6c351afde)" d="M 559.8375 475.358871 
L 874.019318 475.358871 
L 874.019318 377.012006 
L 559.8375 377.012006 
z
" style="fill:#db6e59;stroke:#ffffff;stroke-linejoin:miter;stroke-width:0.48;"/>
   </g>
   <g id="line2d_1">
    <path clip-path="url(#pb6c351afde)" d="M 324.201136 457.995814 
L 324.201136 370.197158 
" style="fill:none;stroke:#424242;stroke-linecap:round;stroke-width:10.8;"/>
   </g>
   <g id="line2d_2">
    <path clip-path="url(#pb6c351afde)" d="M 716.928409 408.528524 
L 716.928409 338.096354 
" style="fill:none;stroke:#424242;stroke-linecap:round;stroke-width:10.8;"/>
   </g>
   <g id="patch_5">
    <path d="M 127.8375 612.949148 
L 127.8375 62.268104 
" style="fill:none;stroke:#262626;stroke-linecap:square;stroke-linejoin:miter;stroke-width:0.8;"/>
   </g>
   <g id="patch_6">
    <path d="M 127.8375 612.949148 
L 913.292045 612.949148 
" style="fill:none;stroke:#262626;stroke-linecap:square;stroke-linejoin:miter;stroke-width:0.8;"/>
   </g>
   <g id="PathCollection_1">
    <defs>
     <path d="M 0 6 
C 1.591219 6 3.117479 5.367802 4.242641 4.242641 
C 5.367802 3.117479 6 1.591219 6 -0 
C 6 -1.591219 5.367802 -3.117479 4.242641 -4.242641 
C 3.117479 -5.367802 1.591219 -6 0 -6 
C -1.591219 -6 -3.117479 -5.367802 -4.242641 -4.242641 
C -5.367802 -3.117479 -6 -1.591219 -6 0 
C -6 1.591219 -5.367802 3.117479 -4.242641 4.242641 
C -3.117479 5.367802 -1.591219 6 0 6 
z
" id="C0_0_1ee9f42393"/>
    </defs>
    <g clip-path="url(#pb6c351afde)">
     <use style="fill:#404040;" x="324.201136" xlink:href="#C0_0_1ee9f42393" y="587.918191"/>
    </g>
    <g clip-path="url(#pb6c351afde)">
     <use style="fill:#404040;" x="324.201136" xlink:href="#C0_0_1ee9f42393" y="506.900951"/>
    </g>
    <g clip-path="url(#pb6c351afde)">
     <use style="fill:#404040;" x="294.631132" xlink:href="#C0_0_1ee9f42393" y="499.515387"/>
    </g>
    <g clip-path="url(#pb6c351afde)">
     <use style="fill:#404040;" x="346.585288" xlink:href="#C0_0_1ee9f42393" y="486.270756"/>
    </g>
    <g clip-path="url(#pb6c351afde)">
     <use style="fill:#404040;" x="324.201136" xlink:href="#C0_0_1ee9f42393" y="451.284631"/>
    </g>
    <g clip-path="url(#pb6c351afde)">
     <use style="fill:#404040;" x="293.825151" xlink:href="#C0_0_1ee9f42393" y="448.730056"/>
    </g>
    <g clip-path="url(#pb6c351afde)">
     <use style="fill:#404040;" x="354.091812" xlink:href="#C0_0_1ee9f42393" y="445.318434"/>
    </g>
    <g clip-path="url(#pb6c351afde)">
     <use style="fill:#404040;" x="263.935522" xlink:href="#C0_0_1ee9f42393" y="442.758646"/>
    </g>
    <g clip-path="url(#pb6c351afde)">
     <use style="fill:#404040;" x="381.669301" xlink:href="#C0_0_1ee9f42393" y="432.367779"/>
    </g>
    <g clip-path="url(#pb6c351afde)">
     <use style="fill:#404040;" x="412.114644" xlink:href="#C0_0_1ee9f42393" y="430.840293"/>
    </g>
    <g clip-path="url(#pb6c351afde)">
     <use style="fill:#404040;" x="238.611906" xlink:href="#C0_0_1ee9f42393" y="425.840467"/>
    </g>
    <g clip-path="url(#pb6c351afde)">
     <use style="fill:#404040;" x="315.533668" xlink:href="#C0_0_1ee9f42393" y="422.148176"/>
    </g>
    <g clip-path="url(#pb6c351afde)">
     <use style="fill:#404040;" x="342.664832" xlink:href="#C0_0_1ee9f42393" y="408.292187"/>
    </g>
    <g clip-path="url(#pb6c351afde)">
     <use style="fill:#404040;" x="294.138911" xlink:href="#C0_0_1ee9f42393" y="400.499725"/>
    </g>
    <g clip-path="url(#pb6c351afde)">
     <use style="fill:#404040;" x="370.32637" xlink:href="#C0_0_1ee9f42393" y="395.520929"/>
    </g>
    <g clip-path="url(#pb6c351afde)">
     <use style="fill:#404040;" x="324.201136" xlink:href="#C0_0_1ee9f42393" y="382.647985"/>
    </g>
    <g clip-path="url(#pb6c351afde)">
     <use style="fill:#404040;" x="324.201136" xlink:href="#C0_0_1ee9f42393" y="346.553231"/>
    </g>
    <g clip-path="url(#pb6c351afde)">
     <use style="fill:#404040;" x="324.201136" xlink:href="#C0_0_1ee9f42393" y="87.299061"/>
    </g>
   </g>
   <g id="PathCollection_2">
    <defs>
     <path d="M 0 6 
C 1.591219 6 3.117479 5.367802 4.242641 4.242641 
C 5.367802 3.117479 6 1.591219 6 -0 
C 6 -1.591219 5.367802 -3.117479 4.242641 -4.242641 
C 3.117479 -5.367802 1.591219 -6 0 -6 
C -1.591219 -6 -3.117479 -5.367802 -4.242641 -4.242641 
C -5.367802 -3.117479 -6 -1.591219 -6 0 
C -6 1.591219 -5.367802 3.117479 -4.242641 4.242641 
C -3.117479 5.367802 -1.591219 6 0 6 
z
" id="C1_0_aec7273d0d"/>
    </defs>
    <g clip-path="url(#pb6c351afde)">
     <use style="fill:#404040;" x="716.928409" xlink:href="#C1_0_aec7273d0d" y="452.213656"/>
    </g>
    <g clip-path="url(#pb6c351afde)">
     <use style="fill:#404040;" x="686.445314" xlink:href="#C1_0_aec7273d0d" y="451.996876"/>
    </g>
    <g clip-path="url(#pb6c351afde)">
     <use style="fill:#404040;" x="746.688159" xlink:href="#C1_0_aec7273d0d" y="445.629003"/>
    </g>
    <g clip-path="url(#pb6c351afde)">
     <use style="fill:#404040;" x="716.928409" xlink:href="#C1_0_aec7273d0d" y="421.389663"/>
    </g>
    <g clip-path="url(#pb6c351afde)">
     <use style="fill:#404040;" x="688.994392" xlink:href="#C1_0_aec7273d0d" y="409.222134"/>
    </g>
    <g clip-path="url(#pb6c351afde)">
     <use style="fill:#404040;" x="744.567698" xlink:href="#C1_0_aec7273d0d" y="408.570617"/>
    </g>
    <g clip-path="url(#pb6c351afde)">
     <use style="fill:#404040;" x="774.434571" xlink:href="#C1_0_aec7273d0d" y="402.487099"/>
    </g>
    <g clip-path="url(#pb6c351afde)">
     <use style="fill:#404040;" x="716.928409" xlink:href="#C1_0_aec7273d0d" y="389.27492"/>
    </g>
    <g clip-path="url(#pb6c351afde)">
     <use style="fill:#404040;" x="743.070706" xlink:href="#C1_0_aec7273d0d" y="373.6433"/>
    </g>
    <g clip-path="url(#pb6c351afde)">
     <use style="fill:#404040;" x="716.928409" xlink:href="#C1_0_aec7273d0d" y="357.988363"/>
    </g>
    <g clip-path="url(#pb6c351afde)">
     <use style="fill:#404040;" x="716.928409" xlink:href="#C1_0_aec7273d0d" y="327.398604"/>
    </g>
    <g clip-path="url(#pb6c351afde)">
     <use style="fill:#404040;" x="686.996672" xlink:href="#C1_0_aec7273d0d" y="321.640647"/>
    </g>
    <g clip-path="url(#pb6c351afde)">
     <use style="fill:#404040;" x="746.860147" xlink:href="#C1_0_aec7273d0d" y="321.640647"/>
    </g>
    <g clip-path="url(#pb6c351afde)">
     <use style="fill:#404040;" x="716.928409" xlink:href="#C1_0_aec7273d0d" y="195.072558"/>
    </g>
   </g>
   <g id="text_9">
    <!-- A -->
    <g style="fill:#262626;" transform="translate(49.292045 50.146875)scale(0.6 -0.6)">
     <defs>
      <path d="M -0.140625 0 
L 27.34375 71.578125 
L 37.546875 71.578125 
L 66.84375 0 
L 56.0625 0 
L 47.703125 21.6875 
L 17.78125 21.6875 
L 9.90625 0 
z
M 20.515625 29.390625 
L 44.78125 29.390625 
L 37.3125 49.21875 
Q 33.890625 58.25 32.234375 64.0625 
Q 30.859375 57.171875 28.375 50.390625 
z
" id="ArialMT-65"/>
     </defs>
     <use xlink:href="#ArialMT-65"/>
    </g>
   </g>
  </g>
  <g id="axes_2">
   <g id="patch_7">
    <path d="M 1070.382955 612.949148 
L 1855.8375 612.949148 
L 1855.8375 62.268104 
L 1070.382955 62.268104 
z
" style="fill:#ffffff;"/>
   </g>
   <g id="matplotlib.axis_3">
    <g id="xtick_3">
     <g id="text_10">
      <!-- control -->
      <g style="fill:#262626;" transform="translate(1214.224716 652.701492)scale(0.35 -0.35)">
       <use xlink:href="#ArialMT-99"/>
       <use x="50" xlink:href="#ArialMT-111"/>
       <use x="105.615234" xlink:href="#ArialMT-110"/>
       <use x="161.230469" xlink:href="#ArialMT-116"/>
       <use x="189.013672" xlink:href="#ArialMT-114"/>
       <use x="222.314453" xlink:href="#ArialMT-111"/>
       <use x="277.929688" xlink:href="#ArialMT-108"/>
      </g>
     </g>
    </g>
    <g id="xtick_4">
     <g id="text_11">
      <!-- patient -->
      <g style="fill:#262626;" transform="translate(1606.935582 652.701492)scale(0.35 -0.35)">
       <use xlink:href="#ArialMT-112"/>
       <use x="55.615234" xlink:href="#ArialMT-97"/>
       <use x="111.230469" xlink:href="#ArialMT-116"/>
       <use x="139.013672" xlink:href="#ArialMT-105"/>
       <use x="161.230469" xlink:href="#ArialMT-101"/>
       <use x="216.845703" xlink:href="#ArialMT-110"/>
       <use x="272.460938" xlink:href="#ArialMT-116"/>
      </g>
     </g>
    </g>
   </g>
   <g id="matplotlib.axis_4">
    <g id="ytick_6">
     <g id="text_12">
      <!-- 0 -->
      <g style="fill:#262626;" transform="translate(1036.219673 625.47532)scale(0.35 -0.35)">
       <use xlink:href="#ArialMT-48"/>
      </g>
     </g>
    </g>
    <g id="ytick_7">
     <g id="text_13">
      <!-- 50 -->
      <g style="fill:#262626;" transform="translate(1016.756392 473.8509)scale(0.35 -0.35)">
       <defs>
        <path d="M 4.15625 18.75 
L 13.375 19.53125 
Q 14.40625 12.796875 18.140625 9.390625 
Q 21.875 6 27.15625 6 
Q 33.5 6 37.890625 10.78125 
Q 42.28125 15.578125 42.28125 23.484375 
Q 42.28125 31 38.0625 35.34375 
Q 33.84375 39.703125 27 39.703125 
Q 22.75 39.703125 19.328125 37.765625 
Q 15.921875 35.84375 13.96875 32.765625 
L 5.71875 33.84375 
L 12.640625 70.609375 
L 48.25 70.609375 
L 48.25 62.203125 
L 19.671875 62.203125 
L 15.828125 42.96875 
Q 22.265625 47.46875 29.34375 47.46875 
Q 38.71875 47.46875 45.15625 40.96875 
Q 51.609375 34.46875 51.609375 24.265625 
Q 51.609375 14.546875 45.953125 7.46875 
Q 39.0625 -1.21875 27.15625 -1.21875 
Q 17.390625 -1.21875 11.203125 4.25 
Q 5.03125 9.71875 4.15625 18.75 
z
" id="ArialMT-53"/>
       </defs>
       <use xlink:href="#ArialMT-53"/>
       <use x="55.615234" xlink:href="#ArialMT-48"/>
      </g>
     </g>
    </g>
    <g id="ytick_8">
     <g id="text_14">
      <!-- 100 -->
      <g style="fill:#262626;" transform="translate(997.293111 322.22648)scale(0.35 -0.35)">
       <use xlink:href="#ArialMT-49"/>
       <use x="55.615234" xlink:href="#ArialMT-48"/>
       <use x="111.230469" xlink:href="#ArialMT-48"/>
      </g>
     </g>
    </g>
    <g id="ytick_9">
     <g id="text_15">
      <!-- 150 -->
      <g style="fill:#262626;" transform="translate(997.293111 170.602061)scale(0.35 -0.35)">
       <use xlink:href="#ArialMT-49"/>
       <use x="55.615234" xlink:href="#ArialMT-53"/>
       <use x="111.230469" xlink:href="#ArialMT-48"/>
      </g>
     </g>
    </g>
    <g id="text_16">
     <!-- RT diff (low cloze - high cloze) -->
     <g style="fill:#262626;" transform="translate(985.926705 571.055892)rotate(-90)scale(0.35 -0.35)">
      <defs>
       <path d="M 40.234375 0 
L 40.234375 6.546875 
Q 35.296875 -1.171875 25.734375 -1.171875 
Q 19.53125 -1.171875 14.328125 2.25 
Q 9.125 5.671875 6.265625 11.796875 
Q 3.421875 17.921875 3.421875 25.875 
Q 3.421875 33.640625 6 39.96875 
Q 8.59375 46.296875 13.765625 49.65625 
Q 18.953125 53.03125 25.34375 53.03125 
Q 30.03125 53.03125 33.6875 51.046875 
Q 37.359375 49.078125 39.65625 45.90625 
L 39.65625 71.578125 
L 48.390625 71.578125 
L 48.390625 0 
z
M 12.453125 25.875 
Q 12.453125 15.921875 16.640625 10.984375 
Q 20.84375 6.0625 26.5625 6.0625 
Q 32.328125 6.0625 36.34375 10.765625 
Q 40.375 15.484375 40.375 25.140625 
Q 40.375 35.796875 36.265625 40.765625 
Q 32.171875 45.75 26.171875 45.75 
Q 20.3125 45.75 16.375 40.96875 
Q 12.453125 36.1875 12.453125 25.875 
z
" id="ArialMT-100"/>
       <path d="M 8.6875 0 
L 8.6875 45.015625 
L 0.921875 45.015625 
L 0.921875 51.859375 
L 8.6875 51.859375 
L 8.6875 57.375 
Q 8.6875 62.59375 9.625 65.140625 
Q 10.890625 68.5625 14.078125 70.671875 
Q 17.28125 72.796875 23.046875 72.796875 
Q 26.765625 72.796875 31.25 71.921875 
L 29.9375 64.265625 
Q 27.203125 64.75 24.75 64.75 
Q 20.75 64.75 19.09375 63.03125 
Q 17.4375 61.328125 17.4375 56.640625 
L 17.4375 51.859375 
L 27.546875 51.859375 
L 27.546875 45.015625 
L 17.4375 45.015625 
L 17.4375 0 
z
" id="ArialMT-102"/>
       <path d="M 16.15625 0 
L 0.296875 51.859375 
L 9.375 51.859375 
L 17.625 21.921875 
L 20.703125 10.796875 
Q 20.90625 11.625 23.390625 21.484375 
L 31.640625 51.859375 
L 40.671875 51.859375 
L 48.4375 21.78125 
L 51.03125 11.859375 
L 54 21.875 
L 62.890625 51.859375 
L 71.4375 51.859375 
L 55.21875 0 
L 46.09375 0 
L 37.84375 31.0625 
L 35.84375 39.890625 
L 25.34375 0 
z
" id="ArialMT-119"/>
       <path d="M 3.171875 21.484375 
L 3.171875 30.328125 
L 30.171875 30.328125 
L 30.171875 21.484375 
z
" id="ArialMT-45"/>
       <path d="M 6.59375 0 
L 6.59375 71.578125 
L 15.375 71.578125 
L 15.375 45.90625 
Q 21.53125 53.03125 30.90625 53.03125 
Q 36.671875 53.03125 40.921875 50.75 
Q 45.171875 48.484375 47 44.484375 
Q 48.828125 40.484375 48.828125 32.859375 
L 48.828125 0 
L 40.046875 0 
L 40.046875 32.859375 
Q 40.046875 39.453125 37.1875 42.453125 
Q 34.328125 45.453125 29.109375 45.453125 
Q 25.203125 45.453125 21.75 43.421875 
Q 18.3125 41.40625 16.84375 37.9375 
Q 15.375 34.46875 15.375 28.375 
L 15.375 0 
z
" id="ArialMT-104"/>
       <path d="M 4.984375 -4.296875 
L 13.53125 -5.5625 
Q 14.0625 -9.515625 16.5 -11.328125 
Q 19.78125 -13.765625 25.4375 -13.765625 
Q 31.546875 -13.765625 34.859375 -11.328125 
Q 38.1875 -8.890625 39.359375 -4.5 
Q 40.046875 -1.8125 39.984375 6.78125 
Q 34.234375 0 25.640625 0 
Q 14.9375 0 9.078125 7.71875 
Q 3.21875 15.4375 3.21875 26.21875 
Q 3.21875 33.640625 5.90625 39.90625 
Q 8.59375 46.1875 13.6875 49.609375 
Q 18.796875 53.03125 25.6875 53.03125 
Q 34.859375 53.03125 40.828125 45.609375 
L 40.828125 51.859375 
L 48.921875 51.859375 
L 48.921875 7.03125 
Q 48.921875 -5.078125 46.453125 -10.125 
Q 44 -15.1875 38.640625 -18.109375 
Q 33.296875 -21.046875 25.484375 -21.046875 
Q 16.21875 -21.046875 10.5 -16.875 
Q 4.78125 -12.703125 4.984375 -4.296875 
z
M 12.25 26.859375 
Q 12.25 16.65625 16.296875 11.96875 
Q 20.359375 7.28125 26.46875 7.28125 
Q 32.515625 7.28125 36.609375 11.9375 
Q 40.71875 16.609375 40.71875 26.5625 
Q 40.71875 36.078125 36.5 40.90625 
Q 32.28125 45.75 26.3125 45.75 
Q 20.453125 45.75 16.34375 40.984375 
Q 12.25 36.234375 12.25 26.859375 
z
" id="ArialMT-103"/>
      </defs>
      <use xlink:href="#ArialMT-82"/>
      <use x="70.466797" xlink:href="#ArialMT-84"/>
      <use x="129.800781" xlink:href="#ArialMT-32"/>
      <use x="157.583984" xlink:href="#ArialMT-100"/>
      <use x="213.199219" xlink:href="#ArialMT-105"/>
      <use x="235.416016" xlink:href="#ArialMT-102"/>
      <use x="261.449219" xlink:href="#ArialMT-102"/>
      <use x="289.232422" xlink:href="#ArialMT-32"/>
      <use x="317.015625" xlink:href="#ArialMT-40"/>
      <use x="350.316406" xlink:href="#ArialMT-108"/>
      <use x="372.533203" xlink:href="#ArialMT-111"/>
      <use x="428.148438" xlink:href="#ArialMT-119"/>
      <use x="500.365234" xlink:href="#ArialMT-32"/>
      <use x="528.148438" xlink:href="#ArialMT-99"/>
      <use x="578.148438" xlink:href="#ArialMT-108"/>
      <use x="600.365234" xlink:href="#ArialMT-111"/>
      <use x="655.980469" xlink:href="#ArialMT-122"/>
      <use x="705.980469" xlink:href="#ArialMT-101"/>
      <use x="761.595703" xlink:href="#ArialMT-32"/>
      <use x="789.378906" xlink:href="#ArialMT-45"/>
      <use x="822.679688" xlink:href="#ArialMT-32"/>
      <use x="850.462891" xlink:href="#ArialMT-104"/>
      <use x="906.078125" xlink:href="#ArialMT-105"/>
      <use x="928.294922" xlink:href="#ArialMT-103"/>
      <use x="983.910156" xlink:href="#ArialMT-104"/>
      <use x="1039.525391" xlink:href="#ArialMT-32"/>
      <use x="1067.308594" xlink:href="#ArialMT-99"/>
      <use x="1117.308594" xlink:href="#ArialMT-108"/>
      <use x="1139.525391" xlink:href="#ArialMT-111"/>
      <use x="1195.140625" xlink:href="#ArialMT-122"/>
      <use x="1245.140625" xlink:href="#ArialMT-101"/>
      <use x="1300.755859" xlink:href="#ArialMT-41"/>
     </g>
    </g>
   </g>
   <g id="patch_8">
    <path clip-path="url(#peeb553aa1d)" d="M 1109.655682 612.949148 
L 1423.8375 612.949148 
L 1423.8375 382.412796 
L 1109.655682 382.412796 
z
" style="fill:#772b58;stroke:#ffffff;stroke-linejoin:miter;stroke-width:0.48;"/>
   </g>
   <g id="patch_9">
    <path clip-path="url(#peeb553aa1d)" d="M 1502.382955 612.949148 
L 1816.564773 612.949148 
L 1816.564773 374.07301 
L 1502.382955 374.07301 
z
" style="fill:#db6e59;stroke:#ffffff;stroke-linejoin:miter;stroke-width:0.48;"/>
   </g>
   <g id="line2d_3">
    <path clip-path="url(#peeb553aa1d)" d="M 1266.746591 434.241056 
L 1266.746591 326.119091 
" style="fill:none;stroke:#424242;stroke-linecap:round;stroke-width:10.8;"/>
   </g>
   <g id="line2d_4">
    <path clip-path="url(#peeb553aa1d)" d="M 1659.473864 427.323555 
L 1659.473864 320.517722 
" style="fill:none;stroke:#424242;stroke-linecap:round;stroke-width:10.8;"/>
   </g>
   <g id="patch_10">
    <path d="M 1070.382955 612.949148 
L 1070.382955 62.268104 
" style="fill:none;stroke:#262626;stroke-linecap:square;stroke-linejoin:miter;stroke-width:0.8;"/>
   </g>
   <g id="patch_11">
    <path d="M 1070.382955 612.949148 
L 1855.8375 612.949148 
" style="fill:none;stroke:#262626;stroke-linecap:square;stroke-linejoin:miter;stroke-width:0.8;"/>
   </g>
   <g id="PathCollection_3">
    <defs>
     <path d="M 0 5 
C 1.326016 5 2.597899 4.473168 3.535534 3.535534 
C 4.473168 2.597899 5 1.326016 5 -0 
C 5 -1.326016 4.473168 -2.597899 3.535534 -3.535534 
C 2.597899 -4.473168 1.326016 -5 0 -5 
C -1.326016 -5 -2.597899 -4.473168 -3.535534 -3.535534 
C -4.473168 -2.597899 -5 -1.326016 -5 0 
C -5 1.326016 -4.473168 2.597899 -3.535534 3.535534 
C -2.597899 4.473168 -1.326016 5 0 5 
z
" id="C2_0_52e916e537"/>
    </defs>
    <g clip-path="url(#peeb553aa1d)">
     <use style="fill:#404040;" x="1266.746591" xlink:href="#C2_0_52e916e537" y="571.697815"/>
    </g>
    <g clip-path="url(#peeb553aa1d)">
     <use style="fill:#404040;" x="1266.746591" xlink:href="#C2_0_52e916e537" y="524.49905"/>
    </g>
    <g clip-path="url(#peeb553aa1d)">
     <use style="fill:#404040;" x="1251.152087" xlink:href="#C2_0_52e916e537" y="511.884405"/>
    </g>
    <g clip-path="url(#peeb553aa1d)">
     <use style="fill:#404040;" x="1266.746591" xlink:href="#C2_0_52e916e537" y="476.99882"/>
    </g>
    <g clip-path="url(#peeb553aa1d)">
     <use style="fill:#404040;" x="1247.460306" xlink:href="#C2_0_52e916e537" y="471.19052"/>
    </g>
    <g clip-path="url(#peeb553aa1d)">
     <use style="fill:#404040;" x="1285.279175" xlink:href="#C2_0_52e916e537" y="469.157109"/>
    </g>
    <g clip-path="url(#peeb553aa1d)">
     <use style="fill:#404040;" x="1266.746591" xlink:href="#C2_0_52e916e537" y="456.906018"/>
    </g>
    <g clip-path="url(#peeb553aa1d)">
     <use style="fill:#404040;" x="1266.746591" xlink:href="#C2_0_52e916e537" y="405.008249"/>
    </g>
    <g clip-path="url(#peeb553aa1d)">
     <use style="fill:#404040;" x="1266.746591" xlink:href="#C2_0_52e916e537" y="382.113425"/>
    </g>
    <g clip-path="url(#peeb553aa1d)">
     <use style="fill:#404040;" x="1257.030324" xlink:href="#C2_0_52e916e537" y="364.677612"/>
    </g>
    <g clip-path="url(#peeb553aa1d)">
     <use style="fill:#404040;" x="1276.013472" xlink:href="#C2_0_52e916e537" y="357.966965"/>
    </g>
    <g clip-path="url(#peeb553aa1d)">
     <use style="fill:#404040;" x="1246.430811" xlink:href="#C2_0_52e916e537" y="347.750278"/>
    </g>
    <g clip-path="url(#peeb553aa1d)">
     <use style="fill:#404040;" x="1266.746591" xlink:href="#C2_0_52e916e537" y="327.675984"/>
    </g>
    <g clip-path="url(#peeb553aa1d)">
     <use style="fill:#404040;" x="1247.356909" xlink:href="#C2_0_52e916e537" y="322.213174"/>
    </g>
    <g clip-path="url(#peeb553aa1d)">
     <use style="fill:#404040;" x="1280.56949" xlink:href="#C2_0_52e916e537" y="313.18883"/>
    </g>
    <g clip-path="url(#peeb553aa1d)">
     <use style="fill:#404040;" x="1266.746591" xlink:href="#C2_0_52e916e537" y="266.580308"/>
    </g>
    <g clip-path="url(#peeb553aa1d)">
     <use style="fill:#404040;" x="1266.746591" xlink:href="#C2_0_52e916e537" y="225.430748"/>
    </g>
    <g clip-path="url(#peeb553aa1d)">
     <use style="fill:#404040;" x="1266.746591" xlink:href="#C2_0_52e916e537" y="88.491011"/>
    </g>
   </g>
   <g id="PathCollection_4">
    <defs>
     <path d="M 0 5 
C 1.326016 5 2.597899 4.473168 3.535534 3.535534 
C 4.473168 2.597899 5 1.326016 5 -0 
C 5 -1.326016 4.473168 -2.597899 3.535534 -3.535534 
C 2.597899 -4.473168 1.326016 -5 0 -5 
C -1.326016 -5 -2.597899 -4.473168 -3.535534 -3.535534 
C -4.473168 -2.597899 -5 -1.326016 -5 0 
C -5 1.326016 -4.473168 2.597899 -3.535534 3.535534 
C -2.597899 4.473168 -1.326016 5 0 5 
z
" id="C3_0_2377f231ca"/>
    </defs>
    <g clip-path="url(#peeb553aa1d)">
     <use style="fill:#404040;" x="1659.473864" xlink:href="#C3_0_2377f231ca" y="541.318389"/>
    </g>
    <g clip-path="url(#peeb553aa1d)">
     <use style="fill:#404040;" x="1659.473864" xlink:href="#C3_0_2377f231ca" y="494.662199"/>
    </g>
    <g clip-path="url(#peeb553aa1d)">
     <use style="fill:#404040;" x="1640.505352" xlink:href="#C3_0_2377f231ca" y="487.911372"/>
    </g>
    <g clip-path="url(#peeb553aa1d)">
     <use style="fill:#404040;" x="1676.253064" xlink:href="#C3_0_2377f231ca" y="483.626678"/>
    </g>
    <g clip-path="url(#peeb553aa1d)">
     <use style="fill:#404040;" x="1659.473864" xlink:href="#C3_0_2377f231ca" y="446.89472"/>
    </g>
    <g clip-path="url(#peeb553aa1d)">
     <use style="fill:#404040;" x="1659.473864" xlink:href="#C3_0_2377f231ca" y="380.028923"/>
    </g>
    <g clip-path="url(#peeb553aa1d)">
     <use style="fill:#404040;" x="1659.473864" xlink:href="#C3_0_2377f231ca" y="359.257888"/>
    </g>
    <g clip-path="url(#peeb553aa1d)">
     <use style="fill:#404040;" x="1639.309384" xlink:href="#C3_0_2377f231ca" y="359.250542"/>
    </g>
    <g clip-path="url(#peeb553aa1d)">
     <use style="fill:#404040;" x="1677.666351" xlink:href="#C3_0_2377f231ca" y="350.675655"/>
    </g>
    <g clip-path="url(#peeb553aa1d)">
     <use style="fill:#404040;" x="1659.473864" xlink:href="#C3_0_2377f231ca" y="326.733955"/>
    </g>
    <g clip-path="url(#peeb553aa1d)">
     <use style="fill:#404040;" x="1659.473864" xlink:href="#C3_0_2377f231ca" y="285.818841"/>
    </g>
    <g clip-path="url(#peeb553aa1d)">
     <use style="fill:#404040;" x="1639.822914" xlink:href="#C3_0_2377f231ca" y="281.356787"/>
    </g>
    <g clip-path="url(#peeb553aa1d)">
     <use style="fill:#404040;" x="1659.473864" xlink:href="#C3_0_2377f231ca" y="259.274929"/>
    </g>
    <g clip-path="url(#peeb553aa1d)">
     <use style="fill:#404040;" x="1659.473864" xlink:href="#C3_0_2377f231ca" y="180.211263"/>
    </g>
   </g>
   <g id="text_17">
    <!-- B -->
    <g style="fill:#262626;" transform="translate(991.8375 50.146875)scale(0.6 -0.6)">
     <defs>
      <path d="M 7.328125 0 
L 7.328125 71.578125 
L 34.1875 71.578125 
Q 42.390625 71.578125 47.34375 69.40625 
Q 52.296875 67.234375 55.09375 62.71875 
Q 57.90625 58.203125 57.90625 53.265625 
Q 57.90625 48.6875 55.421875 44.625 
Q 52.9375 40.578125 47.90625 38.09375 
Q 54.390625 36.1875 57.875 31.59375 
Q 61.375 27 61.375 20.75 
Q 61.375 15.71875 59.25 11.390625 
Q 57.125 7.078125 54 4.734375 
Q 50.875 2.390625 46.15625 1.1875 
Q 41.453125 0 34.625 0 
z
M 16.796875 41.5 
L 32.28125 41.5 
Q 38.578125 41.5 41.3125 42.328125 
Q 44.921875 43.40625 46.75 45.890625 
Q 48.578125 48.390625 48.578125 52.15625 
Q 48.578125 55.71875 46.875 58.421875 
Q 45.171875 61.140625 41.984375 62.140625 
Q 38.8125 63.140625 31.109375 63.140625 
L 16.796875 63.140625 
z
M 16.796875 8.453125 
L 34.625 8.453125 
Q 39.203125 8.453125 41.0625 8.796875 
Q 44.34375 9.375 46.53125 10.734375 
Q 48.734375 12.109375 50.140625 14.71875 
Q 51.5625 17.328125 51.5625 20.75 
Q 51.5625 24.75 49.515625 27.703125 
Q 47.46875 30.671875 43.828125 31.859375 
Q 40.1875 33.0625 33.34375 33.0625 
L 16.796875 33.0625 
z
" id="ArialMT-66"/>
     </defs>
     <use xlink:href="#ArialMT-66"/>
    </g>
   </g>
  </g>
  <g id="axes_3">
   <g id="patch_12">
    <path d="M 127.8375 1328.834504 
L 913.292045 1328.834504 
L 913.292045 778.153461 
L 127.8375 778.153461 
z
" style="fill:#ffffff;"/>
   </g>
   <g id="matplotlib.axis_5">
    <g id="xtick_5">
     <g id="text_18">
      <!-- control -->
      <g style="fill:#262626;" transform="translate(271.679261 1368.586848)scale(0.35 -0.35)">
       <use xlink:href="#ArialMT-99"/>
       <use x="50" xlink:href="#ArialMT-111"/>
       <use x="105.615234" xlink:href="#ArialMT-110"/>
       <use x="161.230469" xlink:href="#ArialMT-116"/>
       <use x="189.013672" xlink:href="#ArialMT-114"/>
       <use x="222.314453" xlink:href="#ArialMT-111"/>
       <use x="277.929688" xlink:href="#ArialMT-108"/>
      </g>
     </g>
    </g>
    <g id="xtick_6">
     <g id="text_19">
      <!-- patient -->
      <g style="fill:#262626;" transform="translate(664.390128 1368.586848)scale(0.35 -0.35)">
       <use xlink:href="#ArialMT-112"/>
       <use x="55.615234" xlink:href="#ArialMT-97"/>
       <use x="111.230469" xlink:href="#ArialMT-116"/>
       <use x="139.013672" xlink:href="#ArialMT-105"/>
       <use x="161.230469" xlink:href="#ArialMT-101"/>
       <use x="216.845703" xlink:href="#ArialMT-110"/>
       <use x="272.460938" xlink:href="#ArialMT-116"/>
      </g>
     </g>
    </g>
   </g>
   <g id="matplotlib.axis_6">
    <g id="ytick_10">
     <g id="text_20">
      <!-- −0.5 -->
      <g style="fill:#262626;" transform="translate(44.045313 1293.247603)scale(0.35 -0.35)">
       <defs>
        <path d="M 9.078125 0 
L 9.078125 10.015625 
L 19.09375 10.015625 
L 19.09375 0 
z
" id="ArialMT-46"/>
       </defs>
       <use xlink:href="#ArialMT-8722"/>
       <use x="58.398438" xlink:href="#ArialMT-48"/>
       <use x="114.013672" xlink:href="#ArialMT-46"/>
       <use x="141.796875" xlink:href="#ArialMT-53"/>
      </g>
     </g>
    </g>
    <g id="ytick_11">
     <g id="text_21">
      <!-- 0.0 -->
      <g style="fill:#262626;" transform="translate(64.4875 1162.346963)scale(0.35 -0.35)">
       <use xlink:href="#ArialMT-48"/>
       <use x="55.615234" xlink:href="#ArialMT-46"/>
       <use x="83.398438" xlink:href="#ArialMT-48"/>
      </g>
     </g>
    </g>
    <g id="ytick_12">
     <g id="text_22">
      <!-- 0.5 -->
      <g style="fill:#262626;" transform="translate(64.4875 1031.446322)scale(0.35 -0.35)">
       <use xlink:href="#ArialMT-48"/>
       <use x="55.615234" xlink:href="#ArialMT-46"/>
       <use x="83.398438" xlink:href="#ArialMT-53"/>
      </g>
     </g>
    </g>
    <g id="ytick_13">
     <g id="text_23">
      <!-- 1.0 -->
      <g style="fill:#262626;" transform="translate(64.4875 900.545682)scale(0.35 -0.35)">
       <use xlink:href="#ArialMT-49"/>
       <use x="55.615234" xlink:href="#ArialMT-46"/>
       <use x="83.398438" xlink:href="#ArialMT-48"/>
      </g>
     </g>
    </g>
    <g id="text_24">
     <!-- RT slope (CoRT) -->
     <g style="fill:#262626;" transform="translate(32.678906 1184.809608)rotate(-90)scale(0.35 -0.35)">
      <defs>
       <path d="M 58.796875 25.09375 
L 68.265625 22.703125 
Q 65.28125 11.03125 57.546875 4.90625 
Q 49.8125 -1.21875 38.625 -1.21875 
Q 27.046875 -1.21875 19.796875 3.484375 
Q 12.546875 8.203125 8.765625 17.140625 
Q 4.984375 26.078125 4.984375 36.328125 
Q 4.984375 47.515625 9.25 55.828125 
Q 13.53125 64.15625 21.40625 68.46875 
Q 29.296875 72.796875 38.765625 72.796875 
Q 49.515625 72.796875 56.828125 67.328125 
Q 64.15625 61.859375 67.046875 51.953125 
L 57.71875 49.75 
Q 55.21875 57.5625 50.484375 61.125 
Q 45.75 64.703125 38.578125 64.703125 
Q 30.328125 64.703125 24.78125 60.734375 
Q 19.234375 56.78125 16.984375 50.109375 
Q 14.75 43.453125 14.75 36.375 
Q 14.75 27.25 17.40625 20.4375 
Q 20.0625 13.625 25.671875 10.25 
Q 31.296875 6.890625 37.84375 6.890625 
Q 45.796875 6.890625 51.3125 11.46875 
Q 56.84375 16.0625 58.796875 25.09375 
z
" id="ArialMT-67"/>
      </defs>
      <use xlink:href="#ArialMT-82"/>
      <use x="70.466797" xlink:href="#ArialMT-84"/>
      <use x="129.800781" xlink:href="#ArialMT-32"/>
      <use x="157.583984" xlink:href="#ArialMT-115"/>
      <use x="207.583984" xlink:href="#ArialMT-108"/>
      <use x="229.800781" xlink:href="#ArialMT-111"/>
      <use x="285.416016" xlink:href="#ArialMT-112"/>
      <use x="341.03125" xlink:href="#ArialMT-101"/>
      <use x="396.646484" xlink:href="#ArialMT-32"/>
      <use x="424.429688" xlink:href="#ArialMT-40"/>
      <use x="457.730469" xlink:href="#ArialMT-67"/>
      <use x="529.947266" xlink:href="#ArialMT-111"/>
      <use x="585.5625" xlink:href="#ArialMT-82"/>
      <use x="656.029297" xlink:href="#ArialMT-84"/>
      <use x="717.113281" xlink:href="#ArialMT-41"/>
     </g>
    </g>
   </g>
   <g id="patch_13">
    <path clip-path="url(#p189fbe1017)" d="M 167.110227 1149.820791 
L 481.292045 1149.820791 
L 481.292045 1002.742862 
L 167.110227 1002.742862 
z
" style="fill:#772b58;stroke:#ffffff;stroke-linejoin:miter;stroke-width:0.48;"/>
   </g>
   <g id="patch_14">
    <path clip-path="url(#p189fbe1017)" d="M 559.8375 1149.820791 
L 874.019318 1149.820791 
L 874.019318 1004.070865 
L 559.8375 1004.070865 
z
" style="fill:#db6e59;stroke:#ffffff;stroke-linejoin:miter;stroke-width:0.48;"/>
   </g>
   <g id="line2d_5">
    <path clip-path="url(#p189fbe1017)" d="M 324.201136 1063.182051 
L 324.201136 945.954021 
" style="fill:none;stroke:#424242;stroke-linecap:round;stroke-width:10.8;"/>
   </g>
   <g id="line2d_6">
    <path clip-path="url(#p189fbe1017)" d="M 716.928409 1063.233266 
L 716.928409 957.445087 
" style="fill:none;stroke:#424242;stroke-linecap:round;stroke-width:10.8;"/>
   </g>
   <g id="patch_15">
    <path d="M 127.8375 1328.834504 
L 127.8375 778.153461 
" style="fill:none;stroke:#262626;stroke-linecap:square;stroke-linejoin:miter;stroke-width:0.8;"/>
   </g>
   <g id="patch_16">
    <path d="M 127.8375 1328.834504 
L 913.292045 1328.834504 
" style="fill:none;stroke:#262626;stroke-linecap:square;stroke-linejoin:miter;stroke-width:0.8;"/>
   </g>
   <g id="PathCollection_5">
    <defs>
     <path d="M 0 6 
C 1.591219 6 3.117479 5.367802 4.242641 4.242641 
C 5.367802 3.117479 6 1.591219 6 -0 
C 6 -1.591219 5.367802 -3.117479 4.242641 -4.242641 
C 3.117479 -5.367802 1.591219 -6 0 -6 
C -1.591219 -6 -3.117479 -5.367802 -4.242641 -4.242641 
C -5.367802 -3.117479 -6 -1.591219 -6 0 
C -6 1.591219 -5.367802 3.117479 -4.242641 4.242641 
C -3.117479 5.367802 -1.591219 6 0 6 
z
" id="C4_0_c3a93df65a"/>
    </defs>
    <g clip-path="url(#p189fbe1017)">
     <use style="fill:#404040;" x="324.201136" xlink:href="#C4_0_c3a93df65a" y="1303.803548"/>
    </g>
    <g clip-path="url(#p189fbe1017)">
     <use style="fill:#404040;" x="324.201136" xlink:href="#C4_0_c3a93df65a" y="1157.668018"/>
    </g>
    <g clip-path="url(#p189fbe1017)">
     <use style="fill:#404040;" x="309.408846" xlink:href="#C4_0_c3a93df65a" y="1136.339205"/>
    </g>
    <g clip-path="url(#p189fbe1017)">
     <use style="fill:#404040;" x="324.201136" xlink:href="#C4_0_c3a93df65a" y="1099.660854"/>
    </g>
    <g clip-path="url(#p189fbe1017)">
     <use style="fill:#404040;" x="297.798542" xlink:href="#C4_0_c3a93df65a" y="1091.389803"/>
    </g>
    <g clip-path="url(#p189fbe1017)">
     <use style="fill:#404040;" x="350.052012" xlink:href="#C4_0_c3a93df65a" y="1090.084448"/>
    </g>
    <g clip-path="url(#p189fbe1017)">
     <use style="fill:#404040;" x="273.406648" xlink:href="#C4_0_c3a93df65a" y="1079.103843"/>
    </g>
    <g clip-path="url(#p189fbe1017)">
     <use style="fill:#404040;" x="324.201136" xlink:href="#C4_0_c3a93df65a" y="1043.924951"/>
    </g>
    <g clip-path="url(#p189fbe1017)">
     <use style="fill:#404040;" x="296.757306" xlink:href="#C4_0_c3a93df65a" y="1039.118495"/>
    </g>
    <g clip-path="url(#p189fbe1017)">
     <use style="fill:#404040;" x="324.201136" xlink:href="#C4_0_c3a93df65a" y="993.952923"/>
    </g>
    <g clip-path="url(#p189fbe1017)">
     <use style="fill:#404040;" x="324.201136" xlink:href="#C4_0_c3a93df65a" y="960.202706"/>
    </g>
    <g clip-path="url(#p189fbe1017)">
     <use style="fill:#404040;" x="297.707106" xlink:href="#C4_0_c3a93df65a" y="952.171409"/>
    </g>
    <g clip-path="url(#p189fbe1017)">
     <use style="fill:#404040;" x="324.201136" xlink:href="#C4_0_c3a93df65a" y="893.649623"/>
    </g>
    <g clip-path="url(#p189fbe1017)">
     <use style="fill:#404040;" x="296.257373" xlink:href="#C4_0_c3a93df65a" y="892.797959"/>
    </g>
    <g clip-path="url(#p189fbe1017)">
     <use style="fill:#404040;" x="324.201136" xlink:href="#C4_0_c3a93df65a" y="860.960658"/>
    </g>
    <g clip-path="url(#p189fbe1017)">
     <use style="fill:#404040;" x="313.249868" xlink:href="#C4_0_c3a93df65a" y="837.83436"/>
    </g>
    <g clip-path="url(#p189fbe1017)">
     <use style="fill:#404040;" x="324.201136" xlink:href="#C4_0_c3a93df65a" y="813.524291"/>
    </g>
    <g clip-path="url(#p189fbe1017)">
     <use style="fill:#404040;" x="298.716793" xlink:href="#C4_0_c3a93df65a" y="803.184417"/>
    </g>
   </g>
   <g id="PathCollection_6">
    <defs>
     <path d="M 0 6 
C 1.591219 6 3.117479 5.367802 4.242641 4.242641 
C 5.367802 3.117479 6 1.591219 6 -0 
C 6 -1.591219 5.367802 -3.117479 4.242641 -4.242641 
C 3.117479 -5.367802 1.591219 -6 0 -6 
C -1.591219 -6 -3.117479 -5.367802 -4.242641 -4.242641 
C -5.367802 -3.117479 -6 -1.591219 -6 0 
C -6 1.591219 -5.367802 3.117479 -4.242641 4.242641 
C -3.117479 5.367802 -1.591219 6 0 6 
z
" id="C5_0_1191c2211b"/>
    </defs>
    <g clip-path="url(#p189fbe1017)">
     <use style="fill:#404040;" x="716.928409" xlink:href="#C5_0_1191c2211b" y="1285.825884"/>
    </g>
    <g clip-path="url(#p189fbe1017)">
     <use style="fill:#404040;" x="716.928409" xlink:href="#C5_0_1191c2211b" y="1097.889964"/>
    </g>
    <g clip-path="url(#p189fbe1017)">
     <use style="fill:#404040;" x="716.928409" xlink:href="#C5_0_1191c2211b" y="1044.933376"/>
    </g>
    <g clip-path="url(#p189fbe1017)">
     <use style="fill:#404040;" x="697.814141" xlink:href="#C5_0_1191c2211b" y="1026.589582"/>
    </g>
    <g clip-path="url(#p189fbe1017)">
     <use style="fill:#404040;" x="723.413985" xlink:href="#C5_0_1191c2211b" y="1016.482905"/>
    </g>
    <g clip-path="url(#p189fbe1017)">
     <use style="fill:#404040;" x="750.386056" xlink:href="#C5_0_1191c2211b" y="1009.861181"/>
    </g>
    <g clip-path="url(#p189fbe1017)">
     <use style="fill:#404040;" x="706.825246" xlink:href="#C5_0_1191c2211b" y="996.250224"/>
    </g>
    <g clip-path="url(#p189fbe1017)">
     <use style="fill:#404040;" x="678.893664" xlink:href="#C5_0_1191c2211b" y="995.120903"/>
    </g>
    <g clip-path="url(#p189fbe1017)">
     <use style="fill:#404040;" x="732.889739" xlink:href="#C5_0_1191c2211b" y="987.153766"/>
    </g>
    <g clip-path="url(#p189fbe1017)">
     <use style="fill:#404040;" x="716.928409" xlink:href="#C5_0_1191c2211b" y="963.814948"/>
    </g>
    <g clip-path="url(#p189fbe1017)">
     <use style="fill:#404040;" x="689.81761" xlink:href="#C5_0_1191c2211b" y="957.66807"/>
    </g>
    <g clip-path="url(#p189fbe1017)">
     <use style="fill:#404040;" x="716.928409" xlink:href="#C5_0_1191c2211b" y="936.043003"/>
    </g>
    <g clip-path="url(#p189fbe1017)">
     <use style="fill:#404040;" x="693.152793" xlink:href="#C5_0_1191c2211b" y="922.816769"/>
    </g>
    <g clip-path="url(#p189fbe1017)">
     <use style="fill:#404040;" x="716.928409" xlink:href="#C5_0_1191c2211b" y="816.541538"/>
    </g>
   </g>
   <g id="text_25">
    <!-- C -->
    <g style="fill:#262626;" transform="translate(49.292045 766.032232)scale(0.6 -0.6)">
     <use xlink:href="#ArialMT-67"/>
    </g>
   </g>
  </g>
  <g id="axes_4">
   <g id="patch_17">
    <path d="M 1070.382955 1328.834504 
L 1855.8375 1328.834504 
L 1855.8375 778.153461 
L 1070.382955 778.153461 
z
" style="fill:#ffffff;"/>
   </g>
   <g id="matplotlib.axis_7">
    <g id="xtick_7">
     <g id="text_26">
      <!-- control -->
      <g style="fill:#262626;" transform="translate(1214.224716 1368.586848)scale(0.35 -0.35)">
       <use xlink:href="#ArialMT-99"/>
       <use x="50" xlink:href="#ArialMT-111"/>
       <use x="105.615234" xlink:href="#ArialMT-110"/>
       <use x="161.230469" xlink:href="#ArialMT-116"/>
       <use x="189.013672" xlink:href="#ArialMT-114"/>
       <use x="222.314453" xlink:href="#ArialMT-111"/>
       <use x="277.929688" xlink:href="#ArialMT-108"/>
      </g>
     </g>
    </g>
    <g id="xtick_8">
     <g id="text_27">
      <!-- patient -->
      <g style="fill:#262626;" transform="translate(1606.935582 1368.586848)scale(0.35 -0.35)">
       <use xlink:href="#ArialMT-112"/>
       <use x="55.615234" xlink:href="#ArialMT-97"/>
       <use x="111.230469" xlink:href="#ArialMT-116"/>
       <use x="139.013672" xlink:href="#ArialMT-105"/>
       <use x="161.230469" xlink:href="#ArialMT-101"/>
       <use x="216.845703" xlink:href="#ArialMT-110"/>
       <use x="272.460938" xlink:href="#ArialMT-116"/>
      </g>
     </g>
    </g>
   </g>
   <g id="matplotlib.axis_8">
    <g id="ytick_14">
     <g id="text_28">
      <!-- −40 -->
      <g style="fill:#262626;" transform="translate(996.314205 1281.930575)scale(0.35 -0.35)">
       <defs>
        <path d="M 32.328125 0 
L 32.328125 17.140625 
L 1.265625 17.140625 
L 1.265625 25.203125 
L 33.9375 71.578125 
L 41.109375 71.578125 
L 41.109375 25.203125 
L 50.78125 25.203125 
L 50.78125 17.140625 
L 41.109375 17.140625 
L 41.109375 0 
z
M 32.328125 25.203125 
L 32.328125 57.46875 
L 9.90625 25.203125 
z
" id="ArialMT-52"/>
       </defs>
       <use xlink:href="#ArialMT-8722"/>
       <use x="58.398438" xlink:href="#ArialMT-52"/>
       <use x="114.013672" xlink:href="#ArialMT-48"/>
      </g>
     </g>
    </g>
    <g id="ytick_15">
     <g id="text_29">
      <!-- −20 -->
      <g style="fill:#262626;" transform="translate(996.314205 1176.501167)scale(0.35 -0.35)">
       <use xlink:href="#ArialMT-8722"/>
       <use x="58.398438" xlink:href="#ArialMT-50"/>
       <use x="114.013672" xlink:href="#ArialMT-48"/>
      </g>
     </g>
    </g>
    <g id="ytick_16">
     <g id="text_30">
      <!-- 0 -->
      <g style="fill:#262626;" transform="translate(1036.219673 1071.071759)scale(0.35 -0.35)">
       <use xlink:href="#ArialMT-48"/>
      </g>
     </g>
    </g>
    <g id="ytick_17">
     <g id="text_31">
      <!-- 20 -->
      <g style="fill:#262626;" transform="translate(1016.756392 965.642351)scale(0.35 -0.35)">
       <use xlink:href="#ArialMT-50"/>
       <use x="55.615234" xlink:href="#ArialMT-48"/>
      </g>
     </g>
    </g>
    <g id="ytick_18">
     <g id="text_32">
      <!-- 40 -->
      <g style="fill:#262626;" transform="translate(1016.756392 860.212943)scale(0.35 -0.35)">
       <use xlink:href="#ArialMT-52"/>
       <use x="55.615234" xlink:href="#ArialMT-48"/>
      </g>
     </g>
    </g>
    <g id="text_33">
     <!-- RT diff (non-CoRT - CoRT) -->
     <g style="fill:#262626;" transform="translate(984.947798 1261.670154)rotate(-90)scale(0.35 -0.35)">
      <use xlink:href="#ArialMT-82"/>
      <use x="70.466797" xlink:href="#ArialMT-84"/>
      <use x="129.800781" xlink:href="#ArialMT-32"/>
      <use x="157.583984" xlink:href="#ArialMT-100"/>
      <use x="213.199219" xlink:href="#ArialMT-105"/>
      <use x="235.416016" xlink:href="#ArialMT-102"/>
      <use x="261.449219" xlink:href="#ArialMT-102"/>
      <use x="289.232422" xlink:href="#ArialMT-32"/>
      <use x="317.015625" xlink:href="#ArialMT-40"/>
      <use x="350.316406" xlink:href="#ArialMT-110"/>
      <use x="405.931641" xlink:href="#ArialMT-111"/>
      <use x="461.546875" xlink:href="#ArialMT-110"/>
      <use x="517.162109" xlink:href="#ArialMT-45"/>
      <use x="550.462891" xlink:href="#ArialMT-67"/>
      <use x="622.679688" xlink:href="#ArialMT-111"/>
      <use x="678.294922" xlink:href="#ArialMT-82"/>
      <use x="748.761719" xlink:href="#ArialMT-84"/>
      <use x="808.095703" xlink:href="#ArialMT-32"/>
      <use x="835.878906" xlink:href="#ArialMT-45"/>
      <use x="869.179688" xlink:href="#ArialMT-32"/>
      <use x="896.962891" xlink:href="#ArialMT-67"/>
      <use x="969.179688" xlink:href="#ArialMT-111"/>
      <use x="1024.794922" xlink:href="#ArialMT-82"/>
      <use x="1095.261719" xlink:href="#ArialMT-84"/>
      <use x="1156.345703" xlink:href="#ArialMT-41"/>
     </g>
    </g>
   </g>
   <g id="patch_18">
    <path clip-path="url(#p13b33a13be)" d="M 1109.655682 1058.545587 
L 1423.8375 1058.545587 
L 1423.8375 1066.422177 
L 1109.655682 1066.422177 
z
" style="fill:#772b58;stroke:#ffffff;stroke-linejoin:miter;stroke-width:0.48;"/>
   </g>
   <g id="patch_19">
    <path clip-path="url(#p13b33a13be)" d="M 1502.382955 1058.545587 
L 1816.564773 1058.545587 
L 1816.564773 1009.426827 
L 1502.382955 1009.426827 
z
" style="fill:#db6e59;stroke:#ffffff;stroke-linejoin:miter;stroke-width:0.48;"/>
   </g>
   <g id="line2d_7">
    <path clip-path="url(#p13b33a13be)" d="M 1266.746591 1123.21796 
L 1266.746591 1010.404119 
" style="fill:none;stroke:#424242;stroke-linecap:round;stroke-width:10.8;"/>
   </g>
   <g id="line2d_8">
    <path clip-path="url(#p13b33a13be)" d="M 1659.473864 1060.600302 
L 1659.473864 957.274298 
" style="fill:none;stroke:#424242;stroke-linecap:round;stroke-width:10.8;"/>
   </g>
   <g id="patch_20">
    <path d="M 1070.382955 1328.834504 
L 1070.382955 778.153461 
" style="fill:none;stroke:#262626;stroke-linecap:square;stroke-linejoin:miter;stroke-width:0.8;"/>
   </g>
   <g id="patch_21">
    <path d="M 1070.382955 1328.834504 
L 1855.8375 1328.834504 
" style="fill:none;stroke:#262626;stroke-linecap:square;stroke-linejoin:miter;stroke-width:0.8;"/>
   </g>
   <g id="PathCollection_7">
    <defs>
     <path d="M 0 5 
C 1.326016 5 2.597899 4.473168 3.535534 3.535534 
C 4.473168 2.597899 5 1.326016 5 -0 
C 5 -1.326016 4.473168 -2.597899 3.535534 -3.535534 
C 2.597899 -4.473168 1.326016 -5 0 -5 
C -1.326016 -5 -2.597899 -4.473168 -3.535534 -3.535534 
C -4.473168 -2.597899 -5 -1.326016 -5 0 
C -5 1.326016 -4.473168 2.597899 -3.535534 3.535534 
C -2.597899 4.473168 -1.326016 5 0 5 
z
" id="C6_0_6482f56889"/>
    </defs>
    <g clip-path="url(#p13b33a13be)">
     <use style="fill:#404040;" x="1266.746591" xlink:href="#C6_0_6482f56889" y="1303.803548"/>
    </g>
    <g clip-path="url(#p13b33a13be)">
     <use style="fill:#404040;" x="1266.746591" xlink:href="#C6_0_6482f56889" y="1244.254941"/>
    </g>
    <g clip-path="url(#p13b33a13be)">
     <use style="fill:#404040;" x="1266.746591" xlink:href="#C6_0_6482f56889" y="1184.418026"/>
    </g>
    <g clip-path="url(#p13b33a13be)">
     <use style="fill:#404040;" x="1248.236399" xlink:href="#C6_0_6482f56889" y="1170.468066"/>
    </g>
    <g clip-path="url(#p13b33a13be)">
     <use style="fill:#404040;" x="1266.746591" xlink:href="#C6_0_6482f56889" y="1122.941484"/>
    </g>
    <g clip-path="url(#p13b33a13be)">
     <use style="fill:#404040;" x="1243.573347" xlink:href="#C6_0_6482f56889" y="1120.550334"/>
    </g>
    <g clip-path="url(#p13b33a13be)">
     <use style="fill:#404040;" x="1289.74987" xlink:href="#C6_0_6482f56889" y="1119.288489"/>
    </g>
    <g clip-path="url(#p13b33a13be)">
     <use style="fill:#404040;" x="1222.623357" xlink:href="#C6_0_6482f56889" y="1110.498225"/>
    </g>
    <g clip-path="url(#p13b33a13be)">
     <use style="fill:#404040;" x="1266.746591" xlink:href="#C6_0_6482f56889" y="1067.616074"/>
    </g>
    <g clip-path="url(#p13b33a13be)">
     <use style="fill:#404040;" x="1248.196894" xlink:href="#C6_0_6482f56889" y="1053.7172"/>
    </g>
    <g clip-path="url(#p13b33a13be)">
     <use style="fill:#404040;" x="1266.746591" xlink:href="#C6_0_6482f56889" y="1029.778108"/>
    </g>
    <g clip-path="url(#p13b33a13be)">
     <use style="fill:#404040;" x="1248.680487" xlink:href="#C6_0_6482f56889" y="1015.273424"/>
    </g>
    <g clip-path="url(#p13b33a13be)">
     <use style="fill:#404040;" x="1278.125779" xlink:href="#C6_0_6482f56889" y="1009.735042"/>
    </g>
    <g clip-path="url(#p13b33a13be)">
     <use style="fill:#404040;" x="1300.607725" xlink:href="#C6_0_6482f56889" y="1003.702814"/>
    </g>
    <g clip-path="url(#p13b33a13be)">
     <use style="fill:#404040;" x="1266.746591" xlink:href="#C6_0_6482f56889" y="986.936668"/>
    </g>
    <g clip-path="url(#p13b33a13be)">
     <use style="fill:#404040;" x="1266.746591" xlink:href="#C6_0_6482f56889" y="951.734337"/>
    </g>
    <g clip-path="url(#p13b33a13be)">
     <use style="fill:#404040;" x="1266.746591" xlink:href="#C6_0_6482f56889" y="897.69799"/>
    </g>
    <g clip-path="url(#p13b33a13be)">
     <use style="fill:#404040;" x="1266.746591" xlink:href="#C6_0_6482f56889" y="803.184417"/>
    </g>
   </g>
   <g id="PathCollection_8">
    <defs>
     <path d="M 0 5 
C 1.326016 5 2.597899 4.473168 3.535534 3.535534 
C 4.473168 2.597899 5 1.326016 5 -0 
C 5 -1.326016 4.473168 -2.597899 3.535534 -3.535534 
C 2.597899 -4.473168 1.326016 -5 0 -5 
C -1.326016 -5 -2.597899 -4.473168 -3.535534 -3.535534 
C -4.473168 -2.597899 -5 -1.326016 -5 0 
C -5 1.326016 -4.473168 2.597899 -3.535534 3.535534 
C -2.597899 4.473168 -1.326016 5 0 5 
z
" id="C7_0_e35b384bef"/>
    </defs>
    <g clip-path="url(#p13b33a13be)">
     <use style="fill:#404040;" x="1659.473864" xlink:href="#C7_0_e35b384bef" y="1166.911559"/>
    </g>
    <g clip-path="url(#p13b33a13be)">
     <use style="fill:#404040;" x="1659.473864" xlink:href="#C7_0_e35b384bef" y="1136.984376"/>
    </g>
    <g clip-path="url(#p13b33a13be)">
     <use style="fill:#404040;" x="1659.473864" xlink:href="#C7_0_e35b384bef" y="1088.337707"/>
    </g>
    <g clip-path="url(#p13b33a13be)">
     <use style="fill:#404040;" x="1637.567552" xlink:href="#C7_0_e35b384bef" y="1080.513532"/>
    </g>
    <g clip-path="url(#p13b33a13be)">
     <use style="fill:#404040;" x="1668.685817" xlink:href="#C7_0_e35b384bef" y="1067.240544"/>
    </g>
    <g clip-path="url(#p13b33a13be)">
     <use style="fill:#404040;" x="1647.512462" xlink:href="#C7_0_e35b384bef" y="1057.654007"/>
    </g>
    <g clip-path="url(#p13b33a13be)">
     <use style="fill:#404040;" x="1662.172023" xlink:href="#C7_0_e35b384bef" y="1039.801291"/>
    </g>
    <g clip-path="url(#p13b33a13be)">
     <use style="fill:#404040;" x="1645.611743" xlink:href="#C7_0_e35b384bef" y="1023.644099"/>
    </g>
    <g clip-path="url(#p13b33a13be)">
     <use style="fill:#404040;" x="1659.473864" xlink:href="#C7_0_e35b384bef" y="1003.922869"/>
    </g>
    <g clip-path="url(#p13b33a13be)">
     <use style="fill:#404040;" x="1659.473864" xlink:href="#C7_0_e35b384bef" y="951.576721"/>
    </g>
    <g clip-path="url(#p13b33a13be)">
     <use style="fill:#404040;" x="1659.473864" xlink:href="#C7_0_e35b384bef" y="921.510264"/>
    </g>
    <g clip-path="url(#p13b33a13be)">
     <use style="fill:#404040;" x="1659.473864" xlink:href="#C7_0_e35b384bef" y="898.427544"/>
    </g>
    <g clip-path="url(#p13b33a13be)">
     <use style="fill:#404040;" x="1659.473864" xlink:href="#C7_0_e35b384bef" y="848.645612"/>
    </g>
    <g clip-path="url(#p13b33a13be)">
     <use style="fill:#404040;" x="1636.248912" xlink:href="#C7_0_e35b384bef" y="846.805456"/>
    </g>
   </g>
   <g id="text_34">
    <!-- D -->
    <g style="fill:#262626;" transform="translate(991.8375 766.032232)scale(0.6 -0.6)">
     <defs>
      <path d="M 7.71875 0 
L 7.71875 71.578125 
L 32.375 71.578125 
Q 40.71875 71.578125 45.125 70.5625 
Q 51.265625 69.140625 55.609375 65.4375 
Q 61.28125 60.640625 64.078125 53.1875 
Q 66.890625 45.75 66.890625 36.1875 
Q 66.890625 28.03125 64.984375 21.734375 
Q 63.09375 15.4375 60.109375 11.296875 
Q 57.125 7.171875 53.578125 4.796875 
Q 50.046875 2.4375 45.046875 1.21875 
Q 40.046875 0 33.546875 0 
z
M 17.1875 8.453125 
L 32.46875 8.453125 
Q 39.546875 8.453125 43.578125 9.765625 
Q 47.609375 11.078125 50 13.484375 
Q 53.375 16.84375 55.25 22.53125 
Q 57.125 28.21875 57.125 36.328125 
Q 57.125 47.5625 53.4375 53.59375 
Q 49.75 59.625 44.484375 61.671875 
Q 40.671875 63.140625 32.234375 63.140625 
L 17.1875 63.140625 
z
" id="ArialMT-68"/>
     </defs>
     <use xlink:href="#ArialMT-68"/>
    </g>
   </g>
  </g>
 </g>
 <defs>
  <clipPath id="pb6c351afde">
   <rect height="550.681043" width="785.454545" x="127.8375" y="62.268104"/>
  </clipPath>
  <clipPath id="peeb553aa1d">
   <rect height="550.681043" width="785.454545" x="1070.382955" y="62.268104"/>
  </clipPath>
  <clipPath id="p189fbe1017">
   <rect height="550.681043" width="785.454545" x="127.8375" y="778.153461"/>
  </clipPath>
  <clipPath id="p13b33a13be">
   <rect height="550.681043" width="785.454545" x="1070.382955" y="778.153461"/>
  </clipPath>
 </defs>
</svg>
