<?xml version="1.0" encoding="utf-8" standalone="no"?>
<!DOCTYPE svg PUBLIC "-//W3C//DTD SVG 1.1//EN"
  "http://www.w3.org/Graphics/SVG/1.1/DTD/svg11.dtd">
<svg xmlns:xlink="http://www.w3.org/1999/xlink" width="1896.996875pt" height="1440.129785pt" viewBox="0 0 1896.996875 1440.129785" xmlns="http://www.w3.org/2000/svg" version="1.1">
 <metadata>
  <rdf:RDF xmlns:dc="http://purl.org/dc/elements/1.1/" xmlns:cc="http://creativecommons.org/ns#" xmlns:rdf="http://www.w3.org/1999/02/22-rdf-syntax-ns#">
   <cc:Work>
    <dc:type rdf:resource="http://purl.org/dc/dcmitype/StillImage"/>
    <dc:date>2022-03-20T13:58:10.910163</dc:date>
    <dc:format>image/svg+xml</dc:format>
    <dc:creator>
     <cc:Agent>
      <dc:title>Matplotlib v3.5.1, https://matplotlib.org/</dc:title>
     </cc:Agent>
    </dc:creator>
   </cc:Work>
  </rdf:RDF>
 </metadata>
 <defs>
  <style type="text/css">*{stroke-linejoin: round; stroke-linecap: butt}</style>
 </defs>
 <g id="figure_1">
  <g id="patch_1">
   <path d="M 0 1440.129785 
L 1896.996875 1440.129785 
L 1896.996875 -0 
L 0 -0 
z
" style="fill: #ffffff"/>
  </g>
  <g id="axes_1">
   <g id="patch_2">
    <path d="M 161.796875 616.036615 
L 947.25142 616.036615 
L 947.25142 65.355572 
L 161.796875 65.355572 
z
" style="fill: #ffffff"/>
   </g>
   <g id="matplotlib.axis_1">
    <g id="xtick_1">
     <g id="text_1">
      <!-- low cloze -->
      <g style="fill: #262626" transform="translate(275.907386 659.367865)scale(0.4 -0.4)">
       <defs>
        <path id="ArialMT-6c" d="M 409 0 
L 409 4581 
L 972 4581 
L 972 0 
L 409 0 
z
" transform="scale(0.015625)"/>
        <path id="ArialMT-6f" d="M 213 1659 
Q 213 2581 725 3025 
Q 1153 3394 1769 3394 
Q 2453 3394 2887 2945 
Q 3322 2497 3322 1706 
Q 3322 1066 3130 698 
Q 2938 331 2570 128 
Q 2203 -75 1769 -75 
Q 1072 -75 642 372 
Q 213 819 213 1659 
z
M 791 1659 
Q 791 1022 1069 705 
Q 1347 388 1769 388 
Q 2188 388 2466 706 
Q 2744 1025 2744 1678 
Q 2744 2294 2464 2611 
Q 2184 2928 1769 2928 
Q 1347 2928 1069 2612 
Q 791 2297 791 1659 
z
" transform="scale(0.015625)"/>
        <path id="ArialMT-77" d="M 1034 0 
L 19 3319 
L 600 3319 
L 1128 1403 
L 1325 691 
Q 1338 744 1497 1375 
L 2025 3319 
L 2603 3319 
L 3100 1394 
L 3266 759 
L 3456 1400 
L 4025 3319 
L 4572 3319 
L 3534 0 
L 2950 0 
L 2422 1988 
L 2294 2553 
L 1622 0 
L 1034 0 
z
" transform="scale(0.015625)"/>
        <path id="ArialMT-20" transform="scale(0.015625)"/>
        <path id="ArialMT-63" d="M 2588 1216 
L 3141 1144 
Q 3050 572 2676 248 
Q 2303 -75 1759 -75 
Q 1078 -75 664 370 
Q 250 816 250 1647 
Q 250 2184 428 2587 
Q 606 2991 970 3192 
Q 1334 3394 1763 3394 
Q 2303 3394 2647 3120 
Q 2991 2847 3088 2344 
L 2541 2259 
Q 2463 2594 2264 2762 
Q 2066 2931 1784 2931 
Q 1359 2931 1093 2626 
Q 828 2322 828 1663 
Q 828 994 1084 691 
Q 1341 388 1753 388 
Q 2084 388 2306 591 
Q 2528 794 2588 1216 
z
" transform="scale(0.015625)"/>
        <path id="ArialMT-7a" d="M 125 0 
L 125 456 
L 2238 2881 
Q 1878 2863 1603 2863 
L 250 2863 
L 250 3319 
L 2963 3319 
L 2963 2947 
L 1166 841 
L 819 456 
Q 1197 484 1528 484 
L 3063 484 
L 3063 0 
L 125 0 
z
" transform="scale(0.015625)"/>
        <path id="ArialMT-65" d="M 2694 1069 
L 3275 997 
Q 3138 488 2766 206 
Q 2394 -75 1816 -75 
Q 1088 -75 661 373 
Q 234 822 234 1631 
Q 234 2469 665 2931 
Q 1097 3394 1784 3394 
Q 2450 3394 2872 2941 
Q 3294 2488 3294 1666 
Q 3294 1616 3291 1516 
L 816 1516 
Q 847 969 1125 678 
Q 1403 388 1819 388 
Q 2128 388 2347 550 
Q 2566 713 2694 1069 
z
M 847 1978 
L 2700 1978 
Q 2663 2397 2488 2606 
Q 2219 2931 1791 2931 
Q 1403 2931 1139 2672 
Q 875 2413 847 1978 
z
" transform="scale(0.015625)"/>
       </defs>
       <use xlink:href="#ArialMT-6c"/>
       <use xlink:href="#ArialMT-6f" x="22.216797"/>
       <use xlink:href="#ArialMT-77" x="77.832031"/>
       <use xlink:href="#ArialMT-20" x="150.048828"/>
       <use xlink:href="#ArialMT-63" x="177.832031"/>
       <use xlink:href="#ArialMT-6c" x="227.832031"/>
       <use xlink:href="#ArialMT-6f" x="250.048828"/>
       <use xlink:href="#ArialMT-7a" x="305.664062"/>
       <use xlink:href="#ArialMT-65" x="355.664062"/>
      </g>
     </g>
    </g>
    <g id="xtick_2">
     <g id="text_2">
      <!-- high cloze -->
      <g style="fill: #262626" transform="translate(660.834659 659.367865)scale(0.4 -0.4)">
       <defs>
        <path id="ArialMT-68" d="M 422 0 
L 422 4581 
L 984 4581 
L 984 2938 
Q 1378 3394 1978 3394 
Q 2347 3394 2619 3248 
Q 2891 3103 3008 2847 
Q 3125 2591 3125 2103 
L 3125 0 
L 2563 0 
L 2563 2103 
Q 2563 2525 2380 2717 
Q 2197 2909 1863 2909 
Q 1613 2909 1392 2779 
Q 1172 2650 1078 2428 
Q 984 2206 984 1816 
L 984 0 
L 422 0 
z
" transform="scale(0.015625)"/>
        <path id="ArialMT-69" d="M 425 3934 
L 425 4581 
L 988 4581 
L 988 3934 
L 425 3934 
z
M 425 0 
L 425 3319 
L 988 3319 
L 988 0 
L 425 0 
z
" transform="scale(0.015625)"/>
        <path id="ArialMT-67" d="M 319 -275 
L 866 -356 
Q 900 -609 1056 -725 
Q 1266 -881 1628 -881 
Q 2019 -881 2231 -725 
Q 2444 -569 2519 -288 
Q 2563 -116 2559 434 
Q 2191 0 1641 0 
Q 956 0 581 494 
Q 206 988 206 1678 
Q 206 2153 378 2554 
Q 550 2956 876 3175 
Q 1203 3394 1644 3394 
Q 2231 3394 2613 2919 
L 2613 3319 
L 3131 3319 
L 3131 450 
Q 3131 -325 2973 -648 
Q 2816 -972 2473 -1159 
Q 2131 -1347 1631 -1347 
Q 1038 -1347 672 -1080 
Q 306 -813 319 -275 
z
M 784 1719 
Q 784 1066 1043 766 
Q 1303 466 1694 466 
Q 2081 466 2343 764 
Q 2606 1063 2606 1700 
Q 2606 2309 2336 2618 
Q 2066 2928 1684 2928 
Q 1309 2928 1046 2623 
Q 784 2319 784 1719 
z
" transform="scale(0.015625)"/>
       </defs>
       <use xlink:href="#ArialMT-68"/>
       <use xlink:href="#ArialMT-69" x="55.615234"/>
       <use xlink:href="#ArialMT-67" x="77.832031"/>
       <use xlink:href="#ArialMT-68" x="133.447266"/>
       <use xlink:href="#ArialMT-20" x="189.0625"/>
       <use xlink:href="#ArialMT-63" x="216.845703"/>
       <use xlink:href="#ArialMT-6c" x="266.845703"/>
       <use xlink:href="#ArialMT-6f" x="289.0625"/>
       <use xlink:href="#ArialMT-7a" x="344.677734"/>
       <use xlink:href="#ArialMT-65" x="394.677734"/>
      </g>
     </g>
    </g>
    <g id="text_3">
     <!-- cloze -->
     <g style="fill: #262626" transform="translate(496.164773 707.575678)scale(0.5 -0.5)">
      <use xlink:href="#ArialMT-63"/>
      <use xlink:href="#ArialMT-6c" x="50"/>
      <use xlink:href="#ArialMT-6f" x="72.216797"/>
      <use xlink:href="#ArialMT-7a" x="127.832031"/>
      <use xlink:href="#ArialMT-65" x="177.832031"/>
     </g>
    </g>
   </g>
   <g id="matplotlib.axis_2">
    <g id="ytick_1">
     <g id="text_4">
      <!-- 500 -->
      <g style="fill: #262626" transform="translate(80.365625 630.35224)scale(0.4 -0.4)">
       <defs>
        <path id="ArialMT-35" d="M 266 1200 
L 856 1250 
Q 922 819 1161 601 
Q 1400 384 1738 384 
Q 2144 384 2425 690 
Q 2706 997 2706 1503 
Q 2706 1984 2436 2262 
Q 2166 2541 1728 2541 
Q 1456 2541 1237 2417 
Q 1019 2294 894 2097 
L 366 2166 
L 809 4519 
L 3088 4519 
L 3088 3981 
L 1259 3981 
L 1013 2750 
Q 1425 3038 1878 3038 
Q 2478 3038 2890 2622 
Q 3303 2206 3303 1553 
Q 3303 931 2941 478 
Q 2500 -78 1738 -78 
Q 1113 -78 717 272 
Q 322 622 266 1200 
z
" transform="scale(0.015625)"/>
        <path id="ArialMT-30" d="M 266 2259 
Q 266 3072 433 3567 
Q 600 4063 929 4331 
Q 1259 4600 1759 4600 
Q 2128 4600 2406 4451 
Q 2684 4303 2865 4023 
Q 3047 3744 3150 3342 
Q 3253 2941 3253 2259 
Q 3253 1453 3087 958 
Q 2922 463 2592 192 
Q 2263 -78 1759 -78 
Q 1097 -78 719 397 
Q 266 969 266 2259 
z
M 844 2259 
Q 844 1131 1108 757 
Q 1372 384 1759 384 
Q 2147 384 2411 759 
Q 2675 1134 2675 2259 
Q 2675 3391 2411 3762 
Q 2147 4134 1753 4134 
Q 1366 4134 1134 3806 
Q 844 3388 844 2259 
z
" transform="scale(0.015625)"/>
       </defs>
       <use xlink:href="#ArialMT-35"/>
       <use xlink:href="#ArialMT-30" x="55.615234"/>
       <use xlink:href="#ArialMT-30" x="111.230469"/>
      </g>
     </g>
    </g>
    <g id="ytick_2">
     <g id="text_5">
      <!-- 600 -->
      <g style="fill: #262626" transform="translate(80.365625 520.216032)scale(0.4 -0.4)">
       <defs>
        <path id="ArialMT-36" d="M 3184 3459 
L 2625 3416 
Q 2550 3747 2413 3897 
Q 2184 4138 1850 4138 
Q 1581 4138 1378 3988 
Q 1113 3794 959 3422 
Q 806 3050 800 2363 
Q 1003 2672 1297 2822 
Q 1591 2972 1913 2972 
Q 2475 2972 2870 2558 
Q 3266 2144 3266 1488 
Q 3266 1056 3080 686 
Q 2894 316 2569 119 
Q 2244 -78 1831 -78 
Q 1128 -78 684 439 
Q 241 956 241 2144 
Q 241 3472 731 4075 
Q 1159 4600 1884 4600 
Q 2425 4600 2770 4297 
Q 3116 3994 3184 3459 
z
M 888 1484 
Q 888 1194 1011 928 
Q 1134 663 1356 523 
Q 1578 384 1822 384 
Q 2178 384 2434 671 
Q 2691 959 2691 1453 
Q 2691 1928 2437 2201 
Q 2184 2475 1800 2475 
Q 1419 2475 1153 2201 
Q 888 1928 888 1484 
z
" transform="scale(0.015625)"/>
       </defs>
       <use xlink:href="#ArialMT-36"/>
       <use xlink:href="#ArialMT-30" x="55.615234"/>
       <use xlink:href="#ArialMT-30" x="111.230469"/>
      </g>
     </g>
    </g>
    <g id="ytick_3">
     <g id="text_6">
      <!-- 700 -->
      <g style="fill: #262626" transform="translate(80.365625 410.079823)scale(0.4 -0.4)">
       <defs>
        <path id="ArialMT-37" d="M 303 3981 
L 303 4522 
L 3269 4522 
L 3269 4084 
Q 2831 3619 2401 2847 
Q 1972 2075 1738 1259 
Q 1569 684 1522 0 
L 944 0 
Q 953 541 1156 1306 
Q 1359 2072 1739 2783 
Q 2119 3494 2547 3981 
L 303 3981 
z
" transform="scale(0.015625)"/>
       </defs>
       <use xlink:href="#ArialMT-37"/>
       <use xlink:href="#ArialMT-30" x="55.615234"/>
       <use xlink:href="#ArialMT-30" x="111.230469"/>
      </g>
     </g>
    </g>
    <g id="ytick_4">
     <g id="text_7">
      <!-- 800 -->
      <g style="fill: #262626" transform="translate(80.365625 299.943614)scale(0.4 -0.4)">
       <defs>
        <path id="ArialMT-38" d="M 1131 2484 
Q 781 2613 612 2850 
Q 444 3088 444 3419 
Q 444 3919 803 4259 
Q 1163 4600 1759 4600 
Q 2359 4600 2725 4251 
Q 3091 3903 3091 3403 
Q 3091 3084 2923 2848 
Q 2756 2613 2416 2484 
Q 2838 2347 3058 2040 
Q 3278 1734 3278 1309 
Q 3278 722 2862 322 
Q 2447 -78 1769 -78 
Q 1091 -78 675 323 
Q 259 725 259 1325 
Q 259 1772 486 2073 
Q 713 2375 1131 2484 
z
M 1019 3438 
Q 1019 3113 1228 2906 
Q 1438 2700 1772 2700 
Q 2097 2700 2305 2904 
Q 2513 3109 2513 3406 
Q 2513 3716 2298 3927 
Q 2084 4138 1766 4138 
Q 1444 4138 1231 3931 
Q 1019 3725 1019 3438 
z
M 838 1322 
Q 838 1081 952 856 
Q 1066 631 1291 507 
Q 1516 384 1775 384 
Q 2178 384 2440 643 
Q 2703 903 2703 1303 
Q 2703 1709 2433 1975 
Q 2163 2241 1756 2241 
Q 1359 2241 1098 1978 
Q 838 1716 838 1322 
z
" transform="scale(0.015625)"/>
       </defs>
       <use xlink:href="#ArialMT-38"/>
       <use xlink:href="#ArialMT-30" x="55.615234"/>
       <use xlink:href="#ArialMT-30" x="111.230469"/>
      </g>
     </g>
    </g>
    <g id="ytick_5">
     <g id="text_8">
      <!-- 900 -->
      <g style="fill: #262626" transform="translate(80.365625 189.807406)scale(0.4 -0.4)">
       <defs>
        <path id="ArialMT-39" d="M 350 1059 
L 891 1109 
Q 959 728 1153 556 
Q 1347 384 1650 384 
Q 1909 384 2104 503 
Q 2300 622 2425 820 
Q 2550 1019 2634 1356 
Q 2719 1694 2719 2044 
Q 2719 2081 2716 2156 
Q 2547 1888 2255 1720 
Q 1963 1553 1622 1553 
Q 1053 1553 659 1965 
Q 266 2378 266 3053 
Q 266 3750 677 4175 
Q 1088 4600 1706 4600 
Q 2153 4600 2523 4359 
Q 2894 4119 3086 3673 
Q 3278 3228 3278 2384 
Q 3278 1506 3087 986 
Q 2897 466 2520 194 
Q 2144 -78 1638 -78 
Q 1100 -78 759 220 
Q 419 519 350 1059 
z
M 2653 3081 
Q 2653 3566 2395 3850 
Q 2138 4134 1775 4134 
Q 1400 4134 1122 3828 
Q 844 3522 844 3034 
Q 844 2597 1108 2323 
Q 1372 2050 1759 2050 
Q 2150 2050 2401 2323 
Q 2653 2597 2653 3081 
z
" transform="scale(0.015625)"/>
       </defs>
       <use xlink:href="#ArialMT-39"/>
       <use xlink:href="#ArialMT-30" x="55.615234"/>
       <use xlink:href="#ArialMT-30" x="111.230469"/>
      </g>
     </g>
    </g>
    <g id="ytick_6">
     <g id="text_9">
      <!-- 1000 -->
      <g style="fill: #262626" transform="translate(58.121875 79.671197)scale(0.4 -0.4)">
       <defs>
        <path id="ArialMT-31" d="M 2384 0 
L 1822 0 
L 1822 3584 
Q 1619 3391 1289 3197 
Q 959 3003 697 2906 
L 697 3450 
Q 1169 3672 1522 3987 
Q 1875 4303 2022 4600 
L 2384 4600 
L 2384 0 
z
" transform="scale(0.015625)"/>
       </defs>
       <use xlink:href="#ArialMT-31"/>
       <use xlink:href="#ArialMT-30" x="55.615234"/>
       <use xlink:href="#ArialMT-30" x="111.230469"/>
       <use xlink:href="#ArialMT-30" x="166.845703"/>
      </g>
     </g>
    </g>
    <g id="text_10">
     <!-- Mean RT (ms) -->
     <g style="fill: #262626" transform="translate(43.598438 499.539844)rotate(-90)scale(0.5 -0.5)">
      <defs>
       <path id="ArialMT-4d" d="M 475 0 
L 475 4581 
L 1388 4581 
L 2472 1338 
Q 2622 884 2691 659 
Q 2769 909 2934 1394 
L 4031 4581 
L 4847 4581 
L 4847 0 
L 4263 0 
L 4263 3834 
L 2931 0 
L 2384 0 
L 1059 3900 
L 1059 0 
L 475 0 
z
" transform="scale(0.015625)"/>
       <path id="ArialMT-61" d="M 2588 409 
Q 2275 144 1986 34 
Q 1697 -75 1366 -75 
Q 819 -75 525 192 
Q 231 459 231 875 
Q 231 1119 342 1320 
Q 453 1522 633 1644 
Q 813 1766 1038 1828 
Q 1203 1872 1538 1913 
Q 2219 1994 2541 2106 
Q 2544 2222 2544 2253 
Q 2544 2597 2384 2738 
Q 2169 2928 1744 2928 
Q 1347 2928 1158 2789 
Q 969 2650 878 2297 
L 328 2372 
Q 403 2725 575 2942 
Q 747 3159 1072 3276 
Q 1397 3394 1825 3394 
Q 2250 3394 2515 3294 
Q 2781 3194 2906 3042 
Q 3031 2891 3081 2659 
Q 3109 2516 3109 2141 
L 3109 1391 
Q 3109 606 3145 398 
Q 3181 191 3288 0 
L 2700 0 
Q 2613 175 2588 409 
z
M 2541 1666 
Q 2234 1541 1622 1453 
Q 1275 1403 1131 1340 
Q 988 1278 909 1158 
Q 831 1038 831 891 
Q 831 666 1001 516 
Q 1172 366 1500 366 
Q 1825 366 2078 508 
Q 2331 650 2450 897 
Q 2541 1088 2541 1459 
L 2541 1666 
z
" transform="scale(0.015625)"/>
       <path id="ArialMT-6e" d="M 422 0 
L 422 3319 
L 928 3319 
L 928 2847 
Q 1294 3394 1984 3394 
Q 2284 3394 2536 3286 
Q 2788 3178 2913 3003 
Q 3038 2828 3088 2588 
Q 3119 2431 3119 2041 
L 3119 0 
L 2556 0 
L 2556 2019 
Q 2556 2363 2490 2533 
Q 2425 2703 2258 2804 
Q 2091 2906 1866 2906 
Q 1506 2906 1245 2678 
Q 984 2450 984 1813 
L 984 0 
L 422 0 
z
" transform="scale(0.015625)"/>
       <path id="ArialMT-52" d="M 503 0 
L 503 4581 
L 2534 4581 
Q 3147 4581 3465 4457 
Q 3784 4334 3975 4021 
Q 4166 3709 4166 3331 
Q 4166 2844 3850 2509 
Q 3534 2175 2875 2084 
Q 3116 1969 3241 1856 
Q 3506 1613 3744 1247 
L 4541 0 
L 3778 0 
L 3172 953 
Q 2906 1366 2734 1584 
Q 2563 1803 2427 1890 
Q 2291 1978 2150 2013 
Q 2047 2034 1813 2034 
L 1109 2034 
L 1109 0 
L 503 0 
z
M 1109 2559 
L 2413 2559 
Q 2828 2559 3062 2645 
Q 3297 2731 3419 2920 
Q 3541 3109 3541 3331 
Q 3541 3656 3305 3865 
Q 3069 4075 2559 4075 
L 1109 4075 
L 1109 2559 
z
" transform="scale(0.015625)"/>
       <path id="ArialMT-54" d="M 1659 0 
L 1659 4041 
L 150 4041 
L 150 4581 
L 3781 4581 
L 3781 4041 
L 2266 4041 
L 2266 0 
L 1659 0 
z
" transform="scale(0.015625)"/>
       <path id="ArialMT-28" d="M 1497 -1347 
Q 1031 -759 709 28 
Q 388 816 388 1659 
Q 388 2403 628 3084 
Q 909 3875 1497 4659 
L 1900 4659 
Q 1522 4009 1400 3731 
Q 1209 3300 1100 2831 
Q 966 2247 966 1656 
Q 966 153 1900 -1347 
L 1497 -1347 
z
" transform="scale(0.015625)"/>
       <path id="ArialMT-6d" d="M 422 0 
L 422 3319 
L 925 3319 
L 925 2853 
Q 1081 3097 1340 3245 
Q 1600 3394 1931 3394 
Q 2300 3394 2536 3241 
Q 2772 3088 2869 2813 
Q 3263 3394 3894 3394 
Q 4388 3394 4653 3120 
Q 4919 2847 4919 2278 
L 4919 0 
L 4359 0 
L 4359 2091 
Q 4359 2428 4304 2576 
Q 4250 2725 4106 2815 
Q 3963 2906 3769 2906 
Q 3419 2906 3187 2673 
Q 2956 2441 2956 1928 
L 2956 0 
L 2394 0 
L 2394 2156 
Q 2394 2531 2256 2718 
Q 2119 2906 1806 2906 
Q 1569 2906 1367 2781 
Q 1166 2656 1075 2415 
Q 984 2175 984 1722 
L 984 0 
L 422 0 
z
" transform="scale(0.015625)"/>
       <path id="ArialMT-73" d="M 197 991 
L 753 1078 
Q 800 744 1014 566 
Q 1228 388 1613 388 
Q 2000 388 2187 545 
Q 2375 703 2375 916 
Q 2375 1106 2209 1216 
Q 2094 1291 1634 1406 
Q 1016 1563 777 1677 
Q 538 1791 414 1992 
Q 291 2194 291 2438 
Q 291 2659 392 2848 
Q 494 3038 669 3163 
Q 800 3259 1026 3326 
Q 1253 3394 1513 3394 
Q 1903 3394 2198 3281 
Q 2494 3169 2634 2976 
Q 2775 2784 2828 2463 
L 2278 2388 
Q 2241 2644 2061 2787 
Q 1881 2931 1553 2931 
Q 1166 2931 1000 2803 
Q 834 2675 834 2503 
Q 834 2394 903 2306 
Q 972 2216 1119 2156 
Q 1203 2125 1616 2013 
Q 2213 1853 2448 1751 
Q 2684 1650 2818 1456 
Q 2953 1263 2953 975 
Q 2953 694 2789 445 
Q 2625 197 2315 61 
Q 2006 -75 1616 -75 
Q 969 -75 630 194 
Q 291 463 197 991 
z
" transform="scale(0.015625)"/>
       <path id="ArialMT-29" d="M 791 -1347 
L 388 -1347 
Q 1322 153 1322 1656 
Q 1322 2244 1188 2822 
Q 1081 3291 891 3722 
Q 769 4003 388 4659 
L 791 4659 
Q 1378 3875 1659 3084 
Q 1900 2403 1900 1659 
Q 1900 816 1576 28 
Q 1253 -759 791 -1347 
z
" transform="scale(0.015625)"/>
      </defs>
      <use xlink:href="#ArialMT-4d"/>
      <use xlink:href="#ArialMT-65" x="83.300781"/>
      <use xlink:href="#ArialMT-61" x="138.916016"/>
      <use xlink:href="#ArialMT-6e" x="194.53125"/>
      <use xlink:href="#ArialMT-20" x="250.146484"/>
      <use xlink:href="#ArialMT-52" x="277.929688"/>
      <use xlink:href="#ArialMT-54" x="348.396484"/>
      <use xlink:href="#ArialMT-20" x="407.730469"/>
      <use xlink:href="#ArialMT-28" x="435.513672"/>
      <use xlink:href="#ArialMT-6d" x="468.814453"/>
      <use xlink:href="#ArialMT-73" x="552.115234"/>
      <use xlink:href="#ArialMT-29" x="602.115234"/>
     </g>
    </g>
   </g>
   <g id="patch_3">
    <path d="M 201.069602 1166.717659 
L 358.160511 1166.717659 
L 358.160511 354.723758 
L 201.069602 354.723758 
z
" clip-path="url(#p25926dcb45)" style="fill: #772b58; stroke: #ffffff; stroke-width: 0.48; stroke-linejoin: miter"/>
   </g>
   <g id="patch_4">
    <path d="M 593.796875 1166.717659 
L 750.887784 1166.717659 
L 750.887784 438.978881 
L 593.796875 438.978881 
z
" clip-path="url(#p25926dcb45)" style="fill: #772b58; stroke: #ffffff; stroke-width: 0.48; stroke-linejoin: miter"/>
   </g>
   <g id="patch_5">
    <path d="M 358.160511 1166.717659 
L 515.25142 1166.717659 
L 515.25142 120.162674 
L 358.160511 120.162674 
z
" clip-path="url(#p25926dcb45)" style="fill: #db6e59; stroke: #ffffff; stroke-width: 0.48; stroke-linejoin: miter"/>
   </g>
   <g id="patch_6">
    <path d="M 750.887784 1166.717659 
L 907.978693 1166.717659 
L 907.978693 206.919142 
L 750.887784 206.919142 
z
" clip-path="url(#p25926dcb45)" style="fill: #db6e59; stroke: #ffffff; stroke-width: 0.48; stroke-linejoin: miter"/>
   </g>
   <g id="line2d_1">
    <path d="M 279.615057 364.443559 
L 279.615057 345.240722 
" clip-path="url(#p25926dcb45)" style="fill: none; stroke: #424242; stroke-width: 10.8; stroke-linecap: round"/>
   </g>
   <g id="line2d_2">
    <path d="M 672.34233 447.560202 
L 672.34233 429.602356 
" clip-path="url(#p25926dcb45)" style="fill: none; stroke: #424242; stroke-width: 10.8; stroke-linecap: round"/>
   </g>
   <g id="line2d_3">
    <path d="M 436.705966 132.504992 
L 436.705966 108.836705 
" clip-path="url(#p25926dcb45)" style="fill: none; stroke: #424242; stroke-width: 10.8; stroke-linecap: round"/>
   </g>
   <g id="line2d_4">
    <path d="M 829.433239 217.98717 
L 829.433239 194.968964 
" clip-path="url(#p25926dcb45)" style="fill: none; stroke: #424242; stroke-width: 10.8; stroke-linecap: round"/>
   </g>
   <g id="patch_7">
    <path d="M 161.796875 616.036615 
L 161.796875 65.355572 
" style="fill: none; stroke: #262626; stroke-width: 0.8; stroke-linejoin: miter; stroke-linecap: square"/>
   </g>
   <g id="patch_8">
    <path d="M 161.796875 616.036615 
L 947.25142 616.036615 
" style="fill: none; stroke: #262626; stroke-width: 0.8; stroke-linejoin: miter; stroke-linecap: square"/>
   </g>
   <g id="text_11">
    <!-- A -->
    <g style="fill: #262626" transform="translate(83.25142 53.234343)scale(0.6 -0.6)">
     <defs>
      <path id="ArialMT-41" d="M -9 0 
L 1750 4581 
L 2403 4581 
L 4278 0 
L 3588 0 
L 3053 1388 
L 1138 1388 
L 634 0 
L -9 0 
z
M 1313 1881 
L 2866 1881 
L 2388 3150 
Q 2169 3728 2063 4100 
Q 1975 3659 1816 3225 
L 1313 1881 
z
" transform="scale(0.015625)"/>
     </defs>
     <use xlink:href="#ArialMT-41"/>
    </g>
   </g>
   <g id="legend_1">
    <g id="patch_9">
     <path d="M 765.25142 121.907916 
L 835.25142 121.907916 
L 835.25142 97.407916 
L 765.25142 97.407916 
z
" style="fill: #772b58; stroke: #ffffff; stroke-width: 0.48; stroke-linejoin: miter"/>
    </g>
    <g id="text_12">
     <!-- CO -->
     <g style="fill: #262626" transform="translate(863.25142 121.907916)scale(0.35 -0.35)">
      <defs>
       <path id="ArialMT-43" d="M 3763 1606 
L 4369 1453 
Q 4178 706 3683 314 
Q 3188 -78 2472 -78 
Q 1731 -78 1267 223 
Q 803 525 561 1097 
Q 319 1669 319 2325 
Q 319 3041 592 3573 
Q 866 4106 1370 4382 
Q 1875 4659 2481 4659 
Q 3169 4659 3637 4309 
Q 4106 3959 4291 3325 
L 3694 3184 
Q 3534 3684 3231 3912 
Q 2928 4141 2469 4141 
Q 1941 4141 1586 3887 
Q 1231 3634 1087 3207 
Q 944 2781 944 2328 
Q 944 1744 1114 1308 
Q 1284 872 1643 656 
Q 2003 441 2422 441 
Q 2931 441 3284 734 
Q 3638 1028 3763 1606 
z
" transform="scale(0.015625)"/>
       <path id="ArialMT-4f" d="M 309 2231 
Q 309 3372 921 4017 
Q 1534 4663 2503 4663 
Q 3138 4663 3647 4359 
Q 4156 4056 4423 3514 
Q 4691 2972 4691 2284 
Q 4691 1588 4409 1038 
Q 4128 488 3612 205 
Q 3097 -78 2500 -78 
Q 1853 -78 1343 234 
Q 834 547 571 1087 
Q 309 1628 309 2231 
z
M 934 2222 
Q 934 1394 1379 917 
Q 1825 441 2497 441 
Q 3181 441 3623 922 
Q 4066 1403 4066 2288 
Q 4066 2847 3877 3264 
Q 3688 3681 3323 3911 
Q 2959 4141 2506 4141 
Q 1863 4141 1398 3698 
Q 934 3256 934 2222 
z
" transform="scale(0.015625)"/>
      </defs>
      <use xlink:href="#ArialMT-43"/>
      <use xlink:href="#ArialMT-4f" x="72.216797"/>
     </g>
    </g>
    <g id="patch_10">
     <path d="M 765.25142 171.41651 
L 835.25142 171.41651 
L 835.25142 146.91651 
L 765.25142 146.91651 
z
" style="fill: #db6e59; stroke: #ffffff; stroke-width: 0.48; stroke-linejoin: miter"/>
    </g>
    <g id="text_13">
     <!-- CD -->
     <g style="fill: #262626" transform="translate(863.25142 171.41651)scale(0.35 -0.35)">
      <defs>
       <path id="ArialMT-44" d="M 494 0 
L 494 4581 
L 2072 4581 
Q 2606 4581 2888 4516 
Q 3281 4425 3559 4188 
Q 3922 3881 4101 3404 
Q 4281 2928 4281 2316 
Q 4281 1794 4159 1391 
Q 4038 988 3847 723 
Q 3656 459 3429 307 
Q 3203 156 2883 78 
Q 2563 0 2147 0 
L 494 0 
z
M 1100 541 
L 2078 541 
Q 2531 541 2789 625 
Q 3047 709 3200 863 
Q 3416 1078 3536 1442 
Q 3656 1806 3656 2325 
Q 3656 3044 3420 3430 
Q 3184 3816 2847 3947 
Q 2603 4041 2063 4041 
L 1100 4041 
L 1100 541 
z
" transform="scale(0.015625)"/>
      </defs>
      <use xlink:href="#ArialMT-43"/>
      <use xlink:href="#ArialMT-44" x="72.216797"/>
     </g>
    </g>
   </g>
  </g>
  <g id="axes_2">
   <g id="patch_11">
    <path d="M 161.796875 1331.921972 
L 947.25142 1331.921972 
L 947.25142 781.240929 
L 161.796875 781.240929 
z
" style="fill: #ffffff"/>
   </g>
   <g id="matplotlib.axis_3">
    <g id="xtick_3">
     <g id="text_14">
      <!-- non-CoRT -->
      <g style="fill: #262626" transform="translate(266.260511 1375.253222)scale(0.4 -0.4)">
       <defs>
        <path id="ArialMT-2d" d="M 203 1375 
L 203 1941 
L 1931 1941 
L 1931 1375 
L 203 1375 
z
" transform="scale(0.015625)"/>
       </defs>
       <use xlink:href="#ArialMT-6e"/>
       <use xlink:href="#ArialMT-6f" x="55.615234"/>
       <use xlink:href="#ArialMT-6e" x="111.230469"/>
       <use xlink:href="#ArialMT-2d" x="166.845703"/>
       <use xlink:href="#ArialMT-43" x="200.146484"/>
       <use xlink:href="#ArialMT-6f" x="272.363281"/>
       <use xlink:href="#ArialMT-52" x="327.978516"/>
       <use xlink:href="#ArialMT-54" x="398.445312"/>
      </g>
     </g>
    </g>
    <g id="xtick_4">
     <g id="text_15">
      <!-- CoRT -->
      <g style="fill: #262626" transform="translate(699.012784 1375.253222)scale(0.4 -0.4)">
       <use xlink:href="#ArialMT-43"/>
       <use xlink:href="#ArialMT-6f" x="72.216797"/>
       <use xlink:href="#ArialMT-52" x="127.832031"/>
       <use xlink:href="#ArialMT-54" x="198.298828"/>
      </g>
     </g>
    </g>
    <g id="text_16">
     <!-- CoRT -->
     <g style="fill: #262626" transform="translate(489.680398 1422.992285)scale(0.5 -0.5)">
      <use xlink:href="#ArialMT-43"/>
      <use xlink:href="#ArialMT-6f" x="72.216797"/>
      <use xlink:href="#ArialMT-52" x="127.832031"/>
      <use xlink:href="#ArialMT-54" x="198.298828"/>
     </g>
    </g>
   </g>
   <g id="matplotlib.axis_4">
    <g id="ytick_7">
     <g id="text_17">
      <!-- 500 -->
      <g style="fill: #262626" transform="translate(80.365625 1346.237597)scale(0.4 -0.4)">
       <use xlink:href="#ArialMT-35"/>
       <use xlink:href="#ArialMT-30" x="55.615234"/>
       <use xlink:href="#ArialMT-30" x="111.230469"/>
      </g>
     </g>
    </g>
    <g id="ytick_8">
     <g id="text_18">
      <!-- 600 -->
      <g style="fill: #262626" transform="translate(80.365625 1236.101388)scale(0.4 -0.4)">
       <use xlink:href="#ArialMT-36"/>
       <use xlink:href="#ArialMT-30" x="55.615234"/>
       <use xlink:href="#ArialMT-30" x="111.230469"/>
      </g>
     </g>
    </g>
    <g id="ytick_9">
     <g id="text_19">
      <!-- 700 -->
      <g style="fill: #262626" transform="translate(80.365625 1125.96518)scale(0.4 -0.4)">
       <use xlink:href="#ArialMT-37"/>
       <use xlink:href="#ArialMT-30" x="55.615234"/>
       <use xlink:href="#ArialMT-30" x="111.230469"/>
      </g>
     </g>
    </g>
    <g id="ytick_10">
     <g id="text_20">
      <!-- 800 -->
      <g style="fill: #262626" transform="translate(80.365625 1015.828971)scale(0.4 -0.4)">
       <use xlink:href="#ArialMT-38"/>
       <use xlink:href="#ArialMT-30" x="55.615234"/>
       <use xlink:href="#ArialMT-30" x="111.230469"/>
      </g>
     </g>
    </g>
    <g id="ytick_11">
     <g id="text_21">
      <!-- 900 -->
      <g style="fill: #262626" transform="translate(80.365625 905.692762)scale(0.4 -0.4)">
       <use xlink:href="#ArialMT-39"/>
       <use xlink:href="#ArialMT-30" x="55.615234"/>
       <use xlink:href="#ArialMT-30" x="111.230469"/>
      </g>
     </g>
    </g>
    <g id="ytick_12">
     <g id="text_22">
      <!-- 1000 -->
      <g style="fill: #262626" transform="translate(58.121875 795.556554)scale(0.4 -0.4)">
       <use xlink:href="#ArialMT-31"/>
       <use xlink:href="#ArialMT-30" x="55.615234"/>
       <use xlink:href="#ArialMT-30" x="111.230469"/>
       <use xlink:href="#ArialMT-30" x="166.845703"/>
      </g>
     </g>
    </g>
    <g id="text_23">
     <!-- Mean RT (ms) -->
     <g style="fill: #262626" transform="translate(43.598438 1215.4252)rotate(-90)scale(0.5 -0.5)">
      <use xlink:href="#ArialMT-4d"/>
      <use xlink:href="#ArialMT-65" x="83.300781"/>
      <use xlink:href="#ArialMT-61" x="138.916016"/>
      <use xlink:href="#ArialMT-6e" x="194.53125"/>
      <use xlink:href="#ArialMT-20" x="250.146484"/>
      <use xlink:href="#ArialMT-52" x="277.929688"/>
      <use xlink:href="#ArialMT-54" x="348.396484"/>
      <use xlink:href="#ArialMT-20" x="407.730469"/>
      <use xlink:href="#ArialMT-28" x="435.513672"/>
      <use xlink:href="#ArialMT-6d" x="468.814453"/>
      <use xlink:href="#ArialMT-73" x="552.115234"/>
      <use xlink:href="#ArialMT-29" x="602.115234"/>
     </g>
    </g>
   </g>
   <g id="patch_12">
    <path d="M 201.069602 1882.603015 
L 358.160511 1882.603015 
L 358.160511 1114.054804 
L 201.069602 1114.054804 
z
" clip-path="url(#p13dd93e172)" style="fill: #772b58; stroke: #ffffff; stroke-width: 0.48; stroke-linejoin: miter"/>
   </g>
   <g id="patch_13">
    <path d="M 593.796875 1882.603015 
L 750.887784 1882.603015 
L 750.887784 1112.632403 
L 593.796875 1112.632403 
z
" clip-path="url(#p13dd93e172)" style="fill: #772b58; stroke: #ffffff; stroke-width: 0.48; stroke-linejoin: miter"/>
   </g>
   <g id="patch_14">
    <path d="M 358.160511 1882.603015 
L 515.25142 1882.603015 
L 515.25142 876.124914 
L 358.160511 876.124914 
z
" clip-path="url(#p13dd93e172)" style="fill: #db6e59; stroke: #ffffff; stroke-width: 0.48; stroke-linejoin: miter"/>
   </g>
   <g id="patch_15">
    <path d="M 750.887784 1882.603015 
L 907.978693 1882.603015 
L 907.978693 885.292153 
L 750.887784 885.292153 
z
" clip-path="url(#p13dd93e172)" style="fill: #db6e59; stroke: #ffffff; stroke-width: 0.48; stroke-linejoin: miter"/>
   </g>
   <g id="line2d_5">
    <path d="M 279.615057 1123.006012 
L 279.615057 1104.767103 
" clip-path="url(#p13dd93e172)" style="fill: none; stroke: #424242; stroke-width: 10.8; stroke-linecap: round"/>
   </g>
   <g id="line2d_6">
    <path d="M 672.34233 1121.652912 
L 672.34233 1103.831392 
" clip-path="url(#p13dd93e172)" style="fill: none; stroke: #424242; stroke-width: 10.8; stroke-linecap: round"/>
   </g>
   <g id="line2d_7">
    <path d="M 436.705966 887.444298 
L 436.705966 864.031774 
" clip-path="url(#p13dd93e172)" style="fill: none; stroke: #424242; stroke-width: 10.8; stroke-linecap: round"/>
   </g>
   <g id="line2d_8">
    <path d="M 829.433239 896.939157 
L 829.433239 873.649173 
" clip-path="url(#p13dd93e172)" style="fill: none; stroke: #424242; stroke-width: 10.8; stroke-linecap: round"/>
   </g>
   <g id="patch_16">
    <path d="M 161.796875 1331.921972 
L 161.796875 781.240929 
" style="fill: none; stroke: #262626; stroke-width: 0.8; stroke-linejoin: miter; stroke-linecap: square"/>
   </g>
   <g id="patch_17">
    <path d="M 161.796875 1331.921972 
L 947.25142 1331.921972 
" style="fill: none; stroke: #262626; stroke-width: 0.8; stroke-linejoin: miter; stroke-linecap: square"/>
   </g>
   <g id="text_24">
    <!-- B -->
    <g style="fill: #262626" transform="translate(83.25142 769.119699)scale(0.6 -0.6)">
     <defs>
      <path id="ArialMT-42" d="M 469 0 
L 469 4581 
L 2188 4581 
Q 2713 4581 3030 4442 
Q 3347 4303 3526 4014 
Q 3706 3725 3706 3409 
Q 3706 3116 3547 2856 
Q 3388 2597 3066 2438 
Q 3481 2316 3704 2022 
Q 3928 1728 3928 1328 
Q 3928 1006 3792 729 
Q 3656 453 3456 303 
Q 3256 153 2954 76 
Q 2653 0 2216 0 
L 469 0 
z
M 1075 2656 
L 2066 2656 
Q 2469 2656 2644 2709 
Q 2875 2778 2992 2937 
Q 3109 3097 3109 3338 
Q 3109 3566 3000 3739 
Q 2891 3913 2687 3977 
Q 2484 4041 1991 4041 
L 1075 4041 
L 1075 2656 
z
M 1075 541 
L 2216 541 
Q 2509 541 2628 563 
Q 2838 600 2978 687 
Q 3119 775 3209 942 
Q 3300 1109 3300 1328 
Q 3300 1584 3169 1773 
Q 3038 1963 2805 2039 
Q 2572 2116 2134 2116 
L 1075 2116 
L 1075 541 
z
" transform="scale(0.015625)"/>
     </defs>
     <use xlink:href="#ArialMT-42"/>
    </g>
   </g>
   <g id="legend_2">
    <g id="patch_18">
     <path d="M 193.296875 837.793272 
L 263.296875 837.793272 
L 263.296875 813.293272 
L 193.296875 813.293272 
z
" style="fill: #772b58; stroke: #ffffff; stroke-width: 0.48; stroke-linejoin: miter"/>
    </g>
    <g id="text_25">
     <!-- CO -->
     <g style="fill: #262626" transform="translate(291.296875 837.793272)scale(0.35 -0.35)">
      <use xlink:href="#ArialMT-43"/>
      <use xlink:href="#ArialMT-4f" x="72.216797"/>
     </g>
    </g>
    <g id="patch_19">
     <path d="M 193.296875 887.301866 
L 263.296875 887.301866 
L 263.296875 862.801866 
L 193.296875 862.801866 
z
" style="fill: #db6e59; stroke: #ffffff; stroke-width: 0.48; stroke-linejoin: miter"/>
    </g>
    <g id="text_26">
     <!-- CD -->
     <g style="fill: #262626" transform="translate(291.296875 887.301866)scale(0.35 -0.35)">
      <use xlink:href="#ArialMT-43"/>
      <use xlink:href="#ArialMT-44" x="72.216797"/>
     </g>
    </g>
   </g>
  </g>
  <g id="axes_3">
   <g id="patch_20">
    <path d="M 1104.34233 616.036615 
L 1889.796875 616.036615 
L 1889.796875 65.355572 
L 1104.34233 65.355572 
z
" style="fill: #ffffff"/>
   </g>
   <g id="matplotlib.axis_5">
    <g id="xtick_5">
     <g id="text_27">
      <!-- CO -->
      <g style="fill: #262626" transform="translate(1270.705966 659.367865)scale(0.4 -0.4)">
       <use xlink:href="#ArialMT-43"/>
       <use xlink:href="#ArialMT-4f" x="72.216797"/>
      </g>
     </g>
    </g>
    <g id="xtick_6">
     <g id="text_28">
      <!-- CD -->
      <g style="fill: #262626" transform="translate(1664.545739 659.367865)scale(0.4 -0.4)">
       <use xlink:href="#ArialMT-43"/>
       <use xlink:href="#ArialMT-44" x="72.216797"/>
      </g>
     </g>
    </g>
   </g>
   <g id="matplotlib.axis_6">
    <g id="ytick_13">
     <g id="text_29">
      <!-- 0 -->
      <g style="fill: #262626" transform="translate(1067.39858 630.35224)scale(0.4 -0.4)">
       <use xlink:href="#ArialMT-30"/>
      </g>
     </g>
    </g>
    <g id="ytick_14">
     <g id="text_30">
      <!-- 50 -->
      <g style="fill: #262626" transform="translate(1045.15483 478.727821)scale(0.4 -0.4)">
       <use xlink:href="#ArialMT-35"/>
       <use xlink:href="#ArialMT-30" x="55.615234"/>
      </g>
     </g>
    </g>
    <g id="ytick_15">
     <g id="text_31">
      <!-- 100 -->
      <g style="fill: #262626" transform="translate(1022.91108 327.103401)scale(0.4 -0.4)">
       <use xlink:href="#ArialMT-31"/>
       <use xlink:href="#ArialMT-30" x="55.615234"/>
       <use xlink:href="#ArialMT-30" x="111.230469"/>
      </g>
     </g>
    </g>
    <g id="ytick_16">
     <g id="text_32">
      <!-- 150 -->
      <g style="fill: #262626" transform="translate(1022.91108 175.478981)scale(0.4 -0.4)">
       <use xlink:href="#ArialMT-31"/>
       <use xlink:href="#ArialMT-35" x="55.615234"/>
       <use xlink:href="#ArialMT-30" x="111.230469"/>
      </g>
     </g>
    </g>
    <g id="text_33">
     <!-- RT diff (low cloze - high cloze) -->
     <g style="fill: #262626" transform="translate(1008.387642 674.192187)rotate(-90)scale(0.5 -0.5)">
      <defs>
       <path id="ArialMT-64" d="M 2575 0 
L 2575 419 
Q 2259 -75 1647 -75 
Q 1250 -75 917 144 
Q 584 363 401 755 
Q 219 1147 219 1656 
Q 219 2153 384 2558 
Q 550 2963 881 3178 
Q 1213 3394 1622 3394 
Q 1922 3394 2156 3267 
Q 2391 3141 2538 2938 
L 2538 4581 
L 3097 4581 
L 3097 0 
L 2575 0 
z
M 797 1656 
Q 797 1019 1065 703 
Q 1334 388 1700 388 
Q 2069 388 2326 689 
Q 2584 991 2584 1609 
Q 2584 2291 2321 2609 
Q 2059 2928 1675 2928 
Q 1300 2928 1048 2622 
Q 797 2316 797 1656 
z
" transform="scale(0.015625)"/>
       <path id="ArialMT-66" d="M 556 0 
L 556 2881 
L 59 2881 
L 59 3319 
L 556 3319 
L 556 3672 
Q 556 4006 616 4169 
Q 697 4388 901 4523 
Q 1106 4659 1475 4659 
Q 1713 4659 2000 4603 
L 1916 4113 
Q 1741 4144 1584 4144 
Q 1328 4144 1222 4034 
Q 1116 3925 1116 3625 
L 1116 3319 
L 1763 3319 
L 1763 2881 
L 1116 2881 
L 1116 0 
L 556 0 
z
" transform="scale(0.015625)"/>
      </defs>
      <use xlink:href="#ArialMT-52"/>
      <use xlink:href="#ArialMT-54" x="70.466797"/>
      <use xlink:href="#ArialMT-20" x="129.800781"/>
      <use xlink:href="#ArialMT-64" x="157.583984"/>
      <use xlink:href="#ArialMT-69" x="213.199219"/>
      <use xlink:href="#ArialMT-66" x="235.416016"/>
      <use xlink:href="#ArialMT-66" x="261.449219"/>
      <use xlink:href="#ArialMT-20" x="289.232422"/>
      <use xlink:href="#ArialMT-28" x="317.015625"/>
      <use xlink:href="#ArialMT-6c" x="350.316406"/>
      <use xlink:href="#ArialMT-6f" x="372.533203"/>
      <use xlink:href="#ArialMT-77" x="428.148438"/>
      <use xlink:href="#ArialMT-20" x="500.365234"/>
      <use xlink:href="#ArialMT-63" x="528.148438"/>
      <use xlink:href="#ArialMT-6c" x="578.148438"/>
      <use xlink:href="#ArialMT-6f" x="600.365234"/>
      <use xlink:href="#ArialMT-7a" x="655.980469"/>
      <use xlink:href="#ArialMT-65" x="705.980469"/>
      <use xlink:href="#ArialMT-20" x="761.595703"/>
      <use xlink:href="#ArialMT-2d" x="789.378906"/>
      <use xlink:href="#ArialMT-20" x="822.679688"/>
      <use xlink:href="#ArialMT-68" x="850.462891"/>
      <use xlink:href="#ArialMT-69" x="906.078125"/>
      <use xlink:href="#ArialMT-67" x="928.294922"/>
      <use xlink:href="#ArialMT-68" x="983.910156"/>
      <use xlink:href="#ArialMT-20" x="1039.525391"/>
      <use xlink:href="#ArialMT-63" x="1067.308594"/>
      <use xlink:href="#ArialMT-6c" x="1117.308594"/>
      <use xlink:href="#ArialMT-6f" x="1139.525391"/>
      <use xlink:href="#ArialMT-7a" x="1195.140625"/>
      <use xlink:href="#ArialMT-65" x="1245.140625"/>
      <use xlink:href="#ArialMT-29" x="1300.755859"/>
     </g>
    </g>
   </g>
   <g id="patch_21">
    <path d="M 1143.615057 616.036615 
L 1457.796875 616.036615 
L 1457.796875 385.500263 
L 1143.615057 385.500263 
z
" clip-path="url(#p7624f013df)" style="fill: #772b58; stroke: #ffffff; stroke-width: 0.48; stroke-linejoin: miter"/>
   </g>
   <g id="patch_22">
    <path d="M 1536.34233 616.036615 
L 1850.524148 616.036615 
L 1850.524148 377.160478 
L 1536.34233 377.160478 
z
" clip-path="url(#p7624f013df)" style="fill: #db6e59; stroke: #ffffff; stroke-width: 0.48; stroke-linejoin: miter"/>
   </g>
   <g id="line2d_9">
    <path d="M 1300.705966 437.000819 
L 1300.705966 328.605305 
" clip-path="url(#p7624f013df)" style="fill: none; stroke: #424242; stroke-width: 10.8; stroke-linecap: round"/>
   </g>
   <g id="line2d_10">
    <path d="M 1693.433239 427.493675 
L 1693.433239 325.744047 
" clip-path="url(#p7624f013df)" style="fill: none; stroke: #424242; stroke-width: 10.8; stroke-linecap: round"/>
   </g>
   <g id="patch_23">
    <path d="M 1104.34233 616.036615 
L 1104.34233 65.355572 
" style="fill: none; stroke: #262626; stroke-width: 0.8; stroke-linejoin: miter; stroke-linecap: square"/>
   </g>
   <g id="patch_24">
    <path d="M 1104.34233 616.036615 
L 1889.796875 616.036615 
" style="fill: none; stroke: #262626; stroke-width: 0.8; stroke-linejoin: miter; stroke-linecap: square"/>
   </g>
   <g id="PathCollection_1">
    <defs>
     <path id="C0_0_885e6d6ab6" d="M 0 5 
C 1.326016 5 2.597899 4.473168 3.535534 3.535534 
C 4.473168 2.597899 5 1.326016 5 -0 
C 5 -1.326016 4.473168 -2.597899 3.535534 -3.535534 
C 2.597899 -4.473168 1.326016 -5 0 -5 
C -1.326016 -5 -2.597899 -4.473168 -3.535534 -3.535534 
C -4.473168 -2.597899 -5 -1.326016 -5 0 
C -5 1.326016 -4.473168 2.597899 -3.535534 3.535534 
C -2.597899 4.473168 -1.326016 5 0 5 
z
"/>
    </defs>
    <g clip-path="url(#p7624f013df)">
     <use xlink:href="#C0_0_885e6d6ab6" x="1300.705966" y="574.785283" style="fill: #404040"/>
    </g>
    <g clip-path="url(#p7624f013df)">
     <use xlink:href="#C0_0_885e6d6ab6" x="1300.705966" y="527.586518" style="fill: #404040"/>
    </g>
    <g clip-path="url(#p7624f013df)">
     <use xlink:href="#C0_0_885e6d6ab6" x="1280.413012" y="514.971872" style="fill: #404040"/>
    </g>
    <g clip-path="url(#p7624f013df)">
     <use xlink:href="#C0_0_885e6d6ab6" x="1300.705966" y="480.086288" style="fill: #404040"/>
    </g>
    <g clip-path="url(#p7624f013df)">
     <use xlink:href="#C0_0_885e6d6ab6" x="1278.694782" y="474.277988" style="fill: #404040"/>
    </g>
    <g clip-path="url(#p7624f013df)">
     <use xlink:href="#C0_0_885e6d6ab6" x="1322.348574" y="472.244577" style="fill: #404040"/>
    </g>
    <g clip-path="url(#p7624f013df)">
     <use xlink:href="#C0_0_885e6d6ab6" x="1259.053858" y="459.993486" style="fill: #404040"/>
    </g>
    <g clip-path="url(#p7624f013df)">
     <use xlink:href="#C0_0_885e6d6ab6" x="1300.705966" y="408.095717" style="fill: #404040"/>
    </g>
    <g clip-path="url(#p7624f013df)">
     <use xlink:href="#C0_0_885e6d6ab6" x="1286.556971" y="385.200893" style="fill: #404040"/>
    </g>
    <g clip-path="url(#p7624f013df)">
     <use xlink:href="#C0_0_885e6d6ab6" x="1304.662781" y="367.76508" style="fill: #404040"/>
    </g>
    <g clip-path="url(#p7624f013df)">
     <use xlink:href="#C0_0_885e6d6ab6" x="1326.524709" y="361.054433" style="fill: #404040"/>
    </g>
    <g clip-path="url(#p7624f013df)">
     <use xlink:href="#C0_0_885e6d6ab6" x="1286.279388" y="350.837746" style="fill: #404040"/>
    </g>
    <g clip-path="url(#p7624f013df)">
     <use xlink:href="#C0_0_885e6d6ab6" x="1302.724729" y="330.763452" style="fill: #404040"/>
    </g>
    <g clip-path="url(#p7624f013df)">
     <use xlink:href="#C0_0_885e6d6ab6" x="1324.78713" y="325.300642" style="fill: #404040"/>
    </g>
    <g clip-path="url(#p7624f013df)">
     <use xlink:href="#C0_0_885e6d6ab6" x="1283.170037" y="316.276297" style="fill: #404040"/>
    </g>
    <g clip-path="url(#p7624f013df)">
     <use xlink:href="#C0_0_885e6d6ab6" x="1300.705966" y="269.667776" style="fill: #404040"/>
    </g>
    <g clip-path="url(#p7624f013df)">
     <use xlink:href="#C0_0_885e6d6ab6" x="1300.705966" y="228.518216" style="fill: #404040"/>
    </g>
    <g clip-path="url(#p7624f013df)">
     <use xlink:href="#C0_0_885e6d6ab6" x="1300.705966" y="91.578479" style="fill: #404040"/>
    </g>
   </g>
   <g id="PathCollection_2">
    <defs>
     <path id="C1_0_1fb3020c58" d="M 0 5 
C 1.326016 5 2.597899 4.473168 3.535534 3.535534 
C 4.473168 2.597899 5 1.326016 5 -0 
C 5 -1.326016 4.473168 -2.597899 3.535534 -3.535534 
C 2.597899 -4.473168 1.326016 -5 0 -5 
C -1.326016 -5 -2.597899 -4.473168 -3.535534 -3.535534 
C -4.473168 -2.597899 -5 -1.326016 -5 0 
C -5 1.326016 -4.473168 2.597899 -3.535534 3.535534 
C -2.597899 4.473168 -1.326016 5 0 5 
z
"/>
    </defs>
    <g clip-path="url(#p7624f013df)">
     <use xlink:href="#C1_0_1fb3020c58" x="1693.433239" y="544.405857" style="fill: #404040"/>
    </g>
    <g clip-path="url(#p7624f013df)">
     <use xlink:href="#C1_0_1fb3020c58" x="1693.433239" y="497.749667" style="fill: #404040"/>
    </g>
    <g clip-path="url(#p7624f013df)">
     <use xlink:href="#C1_0_1fb3020c58" x="1671.578484" y="490.998839" style="fill: #404040"/>
    </g>
    <g clip-path="url(#p7624f013df)">
     <use xlink:href="#C1_0_1fb3020c58" x="1714.252777" y="486.714145" style="fill: #404040"/>
    </g>
    <g clip-path="url(#p7624f013df)">
     <use xlink:href="#C1_0_1fb3020c58" x="1693.433239" y="449.982188" style="fill: #404040"/>
    </g>
    <g clip-path="url(#p7624f013df)">
     <use xlink:href="#C1_0_1fb3020c58" x="1693.433239" y="383.11639" style="fill: #404040"/>
    </g>
    <g clip-path="url(#p7624f013df)">
     <use xlink:href="#C1_0_1fb3020c58" x="1677.49736" y="362.345355" style="fill: #404040"/>
    </g>
    <g clip-path="url(#p7624f013df)">
     <use xlink:href="#C1_0_1fb3020c58" x="1709.363565" y="362.33801" style="fill: #404040"/>
    </g>
    <g clip-path="url(#p7624f013df)">
     <use xlink:href="#C1_0_1fb3020c58" x="1730.844376" y="353.763123" style="fill: #404040"/>
    </g>
    <g clip-path="url(#p7624f013df)">
     <use xlink:href="#C1_0_1fb3020c58" x="1693.433239" y="329.821423" style="fill: #404040"/>
    </g>
    <g clip-path="url(#p7624f013df)">
     <use xlink:href="#C1_0_1fb3020c58" x="1693.433239" y="288.906308" style="fill: #404040"/>
    </g>
    <g clip-path="url(#p7624f013df)">
     <use xlink:href="#C1_0_1fb3020c58" x="1671.240736" y="284.444254" style="fill: #404040"/>
    </g>
    <g clip-path="url(#p7624f013df)">
     <use xlink:href="#C1_0_1fb3020c58" x="1703.211554" y="262.362397" style="fill: #404040"/>
    </g>
    <g clip-path="url(#p7624f013df)">
     <use xlink:href="#C1_0_1fb3020c58" x="1693.433239" y="183.298731" style="fill: #404040"/>
    </g>
   </g>
   <g id="text_34">
    <!-- C -->
    <g style="fill: #262626" transform="translate(1025.796875 53.234343)scale(0.6 -0.6)">
     <use xlink:href="#ArialMT-43"/>
    </g>
   </g>
  </g>
  <g id="axes_4">
   <g id="patch_25">
    <path d="M 1104.34233 1331.921972 
L 1889.796875 1331.921972 
L 1889.796875 781.240929 
L 1104.34233 781.240929 
z
" style="fill: #ffffff"/>
   </g>
   <g id="matplotlib.axis_7">
    <g id="xtick_7">
     <g id="text_35">
      <!-- CO -->
      <g style="fill: #262626" transform="translate(1270.705966 1375.253222)scale(0.4 -0.4)">
       <use xlink:href="#ArialMT-43"/>
       <use xlink:href="#ArialMT-4f" x="72.216797"/>
      </g>
     </g>
    </g>
    <g id="xtick_8">
     <g id="text_36">
      <!-- CD -->
      <g style="fill: #262626" transform="translate(1664.545739 1375.253222)scale(0.4 -0.4)">
       <use xlink:href="#ArialMT-43"/>
       <use xlink:href="#ArialMT-44" x="72.216797"/>
      </g>
     </g>
    </g>
   </g>
   <g id="matplotlib.axis_8">
    <g id="ytick_17">
     <g id="text_37">
      <!-- −40 -->
      <g style="fill: #262626" transform="translate(1021.79233 1286.807495)scale(0.4 -0.4)">
       <defs>
        <path id="ArialMT-2212" d="M 3381 1997 
L 356 1997 
L 356 2522 
L 3381 2522 
L 3381 1997 
z
" transform="scale(0.015625)"/>
        <path id="ArialMT-34" d="M 2069 0 
L 2069 1097 
L 81 1097 
L 81 1613 
L 2172 4581 
L 2631 4581 
L 2631 1613 
L 3250 1613 
L 3250 1097 
L 2631 1097 
L 2631 0 
L 2069 0 
z
M 2069 1613 
L 2069 3678 
L 634 1613 
L 2069 1613 
z
" transform="scale(0.015625)"/>
       </defs>
       <use xlink:href="#ArialMT-2212"/>
       <use xlink:href="#ArialMT-34" x="58.398438"/>
       <use xlink:href="#ArialMT-30" x="114.013672"/>
      </g>
     </g>
    </g>
    <g id="ytick_18">
     <g id="text_38">
      <!-- −20 -->
      <g style="fill: #262626" transform="translate(1021.79233 1181.378088)scale(0.4 -0.4)">
       <defs>
        <path id="ArialMT-32" d="M 3222 541 
L 3222 0 
L 194 0 
Q 188 203 259 391 
Q 375 700 629 1000 
Q 884 1300 1366 1694 
Q 2113 2306 2375 2664 
Q 2638 3022 2638 3341 
Q 2638 3675 2398 3904 
Q 2159 4134 1775 4134 
Q 1369 4134 1125 3890 
Q 881 3647 878 3216 
L 300 3275 
Q 359 3922 746 4261 
Q 1134 4600 1788 4600 
Q 2447 4600 2831 4234 
Q 3216 3869 3216 3328 
Q 3216 3053 3103 2787 
Q 2991 2522 2730 2228 
Q 2469 1934 1863 1422 
Q 1356 997 1212 845 
Q 1069 694 975 541 
L 3222 541 
z
" transform="scale(0.015625)"/>
       </defs>
       <use xlink:href="#ArialMT-2212"/>
       <use xlink:href="#ArialMT-32" x="58.398438"/>
       <use xlink:href="#ArialMT-30" x="114.013672"/>
      </g>
     </g>
    </g>
    <g id="ytick_19">
     <g id="text_39">
      <!-- 0 -->
      <g style="fill: #262626" transform="translate(1067.39858 1075.94868)scale(0.4 -0.4)">
       <use xlink:href="#ArialMT-30"/>
      </g>
     </g>
    </g>
    <g id="ytick_20">
     <g id="text_40">
      <!-- 20 -->
      <g style="fill: #262626" transform="translate(1045.15483 970.519272)scale(0.4 -0.4)">
       <use xlink:href="#ArialMT-32"/>
       <use xlink:href="#ArialMT-30" x="55.615234"/>
      </g>
     </g>
    </g>
    <g id="ytick_21">
     <g id="text_41">
      <!-- 40 -->
      <g style="fill: #262626" transform="translate(1045.15483 865.089864)scale(0.4 -0.4)">
       <use xlink:href="#ArialMT-34"/>
       <use xlink:href="#ArialMT-30" x="55.615234"/>
      </g>
     </g>
    </g>
    <g id="text_42">
     <!-- RT diff (non-CoRT - CoRT) -->
     <g style="fill: #262626" transform="translate(1007.268892 1353.975982)rotate(-90)scale(0.5 -0.5)">
      <use xlink:href="#ArialMT-52"/>
      <use xlink:href="#ArialMT-54" x="70.466797"/>
      <use xlink:href="#ArialMT-20" x="129.800781"/>
      <use xlink:href="#ArialMT-64" x="157.583984"/>
      <use xlink:href="#ArialMT-69" x="213.199219"/>
      <use xlink:href="#ArialMT-66" x="235.416016"/>
      <use xlink:href="#ArialMT-66" x="261.449219"/>
      <use xlink:href="#ArialMT-20" x="289.232422"/>
      <use xlink:href="#ArialMT-28" x="317.015625"/>
      <use xlink:href="#ArialMT-6e" x="350.316406"/>
      <use xlink:href="#ArialMT-6f" x="405.931641"/>
      <use xlink:href="#ArialMT-6e" x="461.546875"/>
      <use xlink:href="#ArialMT-2d" x="517.162109"/>
      <use xlink:href="#ArialMT-43" x="550.462891"/>
      <use xlink:href="#ArialMT-6f" x="622.679688"/>
      <use xlink:href="#ArialMT-52" x="678.294922"/>
      <use xlink:href="#ArialMT-54" x="748.761719"/>
      <use xlink:href="#ArialMT-20" x="808.095703"/>
      <use xlink:href="#ArialMT-2d" x="835.878906"/>
      <use xlink:href="#ArialMT-20" x="869.179688"/>
      <use xlink:href="#ArialMT-43" x="896.962891"/>
      <use xlink:href="#ArialMT-6f" x="969.179688"/>
      <use xlink:href="#ArialMT-52" x="1024.794922"/>
      <use xlink:href="#ArialMT-54" x="1095.261719"/>
      <use xlink:href="#ArialMT-29" x="1156.345703"/>
     </g>
    </g>
   </g>
   <g id="patch_26">
    <path d="M 1143.615057 1061.633055 
L 1457.796875 1061.633055 
L 1457.796875 1069.509645 
L 1143.615057 1069.509645 
z
" clip-path="url(#p5eaf27019b)" style="fill: #772b58; stroke: #ffffff; stroke-width: 0.48; stroke-linejoin: miter"/>
   </g>
   <g id="patch_27">
    <path d="M 1536.34233 1061.633055 
L 1850.524148 1061.633055 
L 1850.524148 1012.514295 
L 1536.34233 1012.514295 
z
" clip-path="url(#p5eaf27019b)" style="fill: #db6e59; stroke: #ffffff; stroke-width: 0.48; stroke-linejoin: miter"/>
   </g>
   <g id="line2d_11">
    <path d="M 1300.705966 1122.722164 
L 1300.705966 1016.476334 
" clip-path="url(#p5eaf27019b)" style="fill: none; stroke: #424242; stroke-width: 10.8; stroke-linecap: round"/>
   </g>
   <g id="line2d_12">
    <path d="M 1693.433239 1062.068114 
L 1693.433239 958.813541 
" clip-path="url(#p5eaf27019b)" style="fill: none; stroke: #424242; stroke-width: 10.8; stroke-linecap: round"/>
   </g>
   <g id="patch_28">
    <path d="M 1104.34233 1331.921972 
L 1104.34233 781.240929 
" style="fill: none; stroke: #262626; stroke-width: 0.8; stroke-linejoin: miter; stroke-linecap: square"/>
   </g>
   <g id="patch_29">
    <path d="M 1104.34233 1331.921972 
L 1889.796875 1331.921972 
" style="fill: none; stroke: #262626; stroke-width: 0.8; stroke-linejoin: miter; stroke-linecap: square"/>
   </g>
   <g id="PathCollection_3">
    <defs>
     <path id="C2_0_8934496008" d="M 0 5 
C 1.326016 5 2.597899 4.473168 3.535534 3.535534 
C 4.473168 2.597899 5 1.326016 5 -0 
C 5 -1.326016 4.473168 -2.597899 3.535534 -3.535534 
C 2.597899 -4.473168 1.326016 -5 0 -5 
C -1.326016 -5 -2.597899 -4.473168 -3.535534 -3.535534 
C -4.473168 -2.597899 -5 -1.326016 -5 0 
C -5 1.326016 -4.473168 2.597899 -3.535534 3.535534 
C -2.597899 4.473168 -1.326016 5 0 5 
z
"/>
    </defs>
    <g clip-path="url(#p5eaf27019b)">
     <use xlink:href="#C2_0_8934496008" x="1300.705966" y="1306.891015" style="fill: #404040"/>
    </g>
    <g clip-path="url(#p5eaf27019b)">
     <use xlink:href="#C2_0_8934496008" x="1300.705966" y="1247.342408" style="fill: #404040"/>
    </g>
    <g clip-path="url(#p5eaf27019b)">
     <use xlink:href="#C2_0_8934496008" x="1300.705966" y="1187.505494" style="fill: #404040"/>
    </g>
    <g clip-path="url(#p5eaf27019b)">
     <use xlink:href="#C2_0_8934496008" x="1276.342281" y="1173.555534" style="fill: #404040"/>
    </g>
    <g clip-path="url(#p5eaf27019b)">
     <use xlink:href="#C2_0_8934496008" x="1300.705966" y="1126.028951" style="fill: #404040"/>
    </g>
    <g clip-path="url(#p5eaf27019b)">
     <use xlink:href="#C2_0_8934496008" x="1273.404948" y="1123.637802" style="fill: #404040"/>
    </g>
    <g clip-path="url(#p5eaf27019b)">
     <use xlink:href="#C2_0_8934496008" x="1327.894529" y="1122.375957" style="fill: #404040"/>
    </g>
    <g clip-path="url(#p5eaf27019b)">
     <use xlink:href="#C2_0_8934496008" x="1247.544631" y="1113.585692" style="fill: #404040"/>
    </g>
    <g clip-path="url(#p5eaf27019b)">
     <use xlink:href="#C2_0_8934496008" x="1300.705966" y="1070.703541" style="fill: #404040"/>
    </g>
    <g clip-path="url(#p5eaf27019b)">
     <use xlink:href="#C2_0_8934496008" x="1276.318835" y="1056.804667" style="fill: #404040"/>
    </g>
    <g clip-path="url(#p5eaf27019b)">
     <use xlink:href="#C2_0_8934496008" x="1300.705966" y="1032.865575" style="fill: #404040"/>
    </g>
    <g clip-path="url(#p5eaf27019b)">
     <use xlink:href="#C2_0_8934496008" x="1276.603948" y="1018.360892" style="fill: #404040"/>
    </g>
    <g clip-path="url(#p5eaf27019b)">
     <use xlink:href="#C2_0_8934496008" x="1321.374262" y="1012.822509" style="fill: #404040"/>
    </g>
    <g clip-path="url(#p5eaf27019b)">
     <use xlink:href="#C2_0_8934496008" x="1348.220193" y="1006.790282" style="fill: #404040"/>
    </g>
    <g clip-path="url(#p5eaf27019b)">
     <use xlink:href="#C2_0_8934496008" x="1300.705966" y="990.024136" style="fill: #404040"/>
    </g>
    <g clip-path="url(#p5eaf27019b)">
     <use xlink:href="#C2_0_8934496008" x="1300.705966" y="954.821805" style="fill: #404040"/>
    </g>
    <g clip-path="url(#p5eaf27019b)">
     <use xlink:href="#C2_0_8934496008" x="1300.705966" y="900.785457" style="fill: #404040"/>
    </g>
    <g clip-path="url(#p5eaf27019b)">
     <use xlink:href="#C2_0_8934496008" x="1300.705966" y="806.271885" style="fill: #404040"/>
    </g>
   </g>
   <g id="PathCollection_4">
    <defs>
     <path id="C3_0_2d37ebbdda" d="M 0 5 
C 1.326016 5 2.597899 4.473168 3.535534 3.535534 
C 4.473168 2.597899 5 1.326016 5 -0 
C 5 -1.326016 4.473168 -2.597899 3.535534 -3.535534 
C 2.597899 -4.473168 1.326016 -5 0 -5 
C -1.326016 -5 -2.597899 -4.473168 -3.535534 -3.535534 
C -4.473168 -2.597899 -5 -1.326016 -5 0 
C -5 1.326016 -4.473168 2.597899 -3.535534 3.535534 
C -2.597899 4.473168 -1.326016 5 0 5 
z
"/>
    </defs>
    <g clip-path="url(#p5eaf27019b)">
     <use xlink:href="#C3_0_2d37ebbdda" x="1693.433239" y="1169.999026" style="fill: #404040"/>
    </g>
    <g clip-path="url(#p5eaf27019b)">
     <use xlink:href="#C3_0_2d37ebbdda" x="1687.924081" y="1140.071844" style="fill: #404040"/>
    </g>
    <g clip-path="url(#p5eaf27019b)">
     <use xlink:href="#C3_0_2d37ebbdda" x="1693.433239" y="1091.425175" style="fill: #404040"/>
    </g>
    <g clip-path="url(#p5eaf27019b)">
     <use xlink:href="#C3_0_2d37ebbdda" x="1666.961467" y="1083.601" style="fill: #404040"/>
    </g>
    <g clip-path="url(#p5eaf27019b)">
     <use xlink:href="#C3_0_2d37ebbdda" x="1713.24073" y="1070.328012" style="fill: #404040"/>
    </g>
    <g clip-path="url(#p5eaf27019b)">
     <use xlink:href="#C3_0_2d37ebbdda" x="1687.238769" y="1060.741475" style="fill: #404040"/>
    </g>
    <g clip-path="url(#p5eaf27019b)">
     <use xlink:href="#C3_0_2d37ebbdda" x="1665.015631" y="1042.888758" style="fill: #404040"/>
    </g>
    <g clip-path="url(#p5eaf27019b)">
     <use xlink:href="#C3_0_2d37ebbdda" x="1693.433239" y="1026.731567" style="fill: #404040"/>
    </g>
    <g clip-path="url(#p5eaf27019b)">
     <use xlink:href="#C3_0_2d37ebbdda" x="1672.517681" y="1007.010337" style="fill: #404040"/>
    </g>
    <g clip-path="url(#p5eaf27019b)">
     <use xlink:href="#C3_0_2d37ebbdda" x="1693.433239" y="954.664189" style="fill: #404040"/>
    </g>
    <g clip-path="url(#p5eaf27019b)">
     <use xlink:href="#C3_0_2d37ebbdda" x="1688.571386" y="924.597732" style="fill: #404040"/>
    </g>
    <g clip-path="url(#p5eaf27019b)">
     <use xlink:href="#C3_0_2d37ebbdda" x="1706.511781" y="901.515012" style="fill: #404040"/>
    </g>
    <g clip-path="url(#p5eaf27019b)">
     <use xlink:href="#C3_0_2d37ebbdda" x="1693.433239" y="851.733079" style="fill: #404040"/>
    </g>
    <g clip-path="url(#p5eaf27019b)">
     <use xlink:href="#C3_0_2d37ebbdda" x="1666.097936" y="849.892923" style="fill: #404040"/>
    </g>
   </g>
   <g id="text_43">
    <!-- D -->
    <g style="fill: #262626" transform="translate(1025.796875 769.119699)scale(0.6 -0.6)">
     <use xlink:href="#ArialMT-44"/>
    </g>
   </g>
  </g>
 </g>
 <defs>
  <clipPath id="p25926dcb45">
   <rect x="161.796875" y="65.355572" width="785.454545" height="550.681043"/>
  </clipPath>
  <clipPath id="p13dd93e172">
   <rect x="161.796875" y="781.240929" width="785.454545" height="550.681043"/>
  </clipPath>
  <clipPath id="p7624f013df">
   <rect x="1104.34233" y="65.355572" width="785.454545" height="550.681043"/>
  </clipPath>
  <clipPath id="p5eaf27019b">
   <rect x="1104.34233" y="781.240929" width="785.454545" height="550.681043"/>
  </clipPath>
 </defs>
</svg>
