<?xml version="1.0" encoding="utf-8"?>
<!-- Generator: Adobe Illustrator 24.1.0, SVG Export Plug-In . SVG Version: 6.00 Build 0)  -->
<svg version="1.1" id="Layer_1" xmlns="http://www.w3.org/2000/svg" xmlns:xlink="http://www.w3.org/1999/xlink" x="0px" y="0px"
	 viewBox="0 0 744 454" style="enable-background:new 0 0 744 454;" xml:space="preserve">
<style type="text/css">
	.st0{fill:#FFFFFF;}
	.st1{fill:#262626;}
	.st2{clip-path:url(#SVGID_2_);fill:#772B58;stroke:#FFFFFF;stroke-width:0.24;}
	.st3{clip-path:url(#SVGID_4_);fill:#DB6E59;stroke:#FFFFFF;stroke-width:0.24;}
	.st4{clip-path:url(#SVGID_6_);fill:none;stroke:#424242;stroke-linecap:round;stroke-linejoin:round;}
	.st5{clip-path:url(#SVGID_8_);fill:none;stroke:#424242;stroke-linecap:round;stroke-linejoin:round;}
	.st6{fill:none;stroke:#262626;stroke-width:0.8;stroke-linecap:square;}
	.st7{clip-path:url(#SVGID_10_);}
	.st8{fill:#404040;}
	.st9{clip-path:url(#SVGID_12_);}
	.st10{clip-path:url(#SVGID_14_);}
	.st11{clip-path:url(#SVGID_16_);}
	.st12{clip-path:url(#SVGID_18_);}
	.st13{clip-path:url(#SVGID_20_);}
	.st14{clip-path:url(#SVGID_22_);}
	.st15{clip-path:url(#SVGID_24_);}
	.st16{clip-path:url(#SVGID_26_);}
	.st17{clip-path:url(#SVGID_28_);}
	.st18{clip-path:url(#SVGID_30_);}
	.st19{clip-path:url(#SVGID_32_);}
	.st20{clip-path:url(#SVGID_34_);}
	.st21{clip-path:url(#SVGID_36_);}
	.st22{clip-path:url(#SVGID_38_);}
	.st23{clip-path:url(#SVGID_40_);}
	.st24{clip-path:url(#SVGID_42_);}
	.st25{clip-path:url(#SVGID_44_);}
	.st26{clip-path:url(#SVGID_46_);}
	.st27{clip-path:url(#SVGID_48_);}
	.st28{clip-path:url(#SVGID_50_);}
	.st29{clip-path:url(#SVGID_52_);}
	.st30{clip-path:url(#SVGID_54_);}
	.st31{clip-path:url(#SVGID_56_);}
	.st32{clip-path:url(#SVGID_58_);}
	.st33{clip-path:url(#SVGID_60_);}
	.st34{clip-path:url(#SVGID_62_);}
	.st35{clip-path:url(#SVGID_64_);}
	.st36{clip-path:url(#SVGID_66_);}
	.st37{clip-path:url(#SVGID_68_);}
	.st38{clip-path:url(#SVGID_70_);}
	.st39{fill:none;stroke:#262626;stroke-width:5;}
	.st40{clip-path:url(#SVGID_72_);fill:#772B58;stroke:#FFFFFF;stroke-width:0.24;}
	.st41{clip-path:url(#SVGID_74_);fill:#DB6E59;stroke:#FFFFFF;stroke-width:0.24;}
	.st42{clip-path:url(#SVGID_76_);fill:none;stroke:#424242;stroke-linecap:round;stroke-linejoin:round;}
	.st43{clip-path:url(#SVGID_78_);fill:none;stroke:#424242;stroke-linecap:round;stroke-linejoin:round;}
	.st44{clip-path:url(#SVGID_80_);}
	.st45{clip-path:url(#SVGID_82_);}
	.st46{clip-path:url(#SVGID_84_);}
	.st47{clip-path:url(#SVGID_86_);}
	.st48{clip-path:url(#SVGID_88_);}
	.st49{clip-path:url(#SVGID_90_);}
	.st50{clip-path:url(#SVGID_92_);}
	.st51{clip-path:url(#SVGID_94_);}
	.st52{clip-path:url(#SVGID_96_);}
	.st53{clip-path:url(#SVGID_98_);}
	.st54{clip-path:url(#SVGID_100_);}
	.st55{clip-path:url(#SVGID_102_);}
	.st56{clip-path:url(#SVGID_104_);}
	.st57{clip-path:url(#SVGID_106_);}
	.st58{clip-path:url(#SVGID_108_);}
	.st59{clip-path:url(#SVGID_110_);}
	.st60{clip-path:url(#SVGID_112_);}
	.st61{clip-path:url(#SVGID_114_);}
	.st62{clip-path:url(#SVGID_116_);}
	.st63{clip-path:url(#SVGID_118_);}
	.st64{clip-path:url(#SVGID_120_);}
	.st65{clip-path:url(#SVGID_122_);}
	.st66{clip-path:url(#SVGID_124_);}
	.st67{clip-path:url(#SVGID_126_);}
	.st68{clip-path:url(#SVGID_128_);}
	.st69{clip-path:url(#SVGID_130_);}
	.st70{clip-path:url(#SVGID_132_);}
	.st71{clip-path:url(#SVGID_134_);}
	.st72{clip-path:url(#SVGID_136_);}
	.st73{clip-path:url(#SVGID_138_);}
	.st74{clip-path:url(#SVGID_140_);}
	.st75{font-family:'ArialMT';}
	.st76{font-size:40px;}
	.st77{fill:none;stroke:#FFFFFF;stroke-width:6;}
</style>
<g id="patch_20">
	<path class="st0" d="M120.2-85.3h613.6v-375.5H120.2V-85.3z"/>
</g>
<g id="matplotlib.axis_5">
	<g id="xtick_5">
		<g id="text_21">
			<g transform="translate(1011.277415 532.809908)scale(0.4 -0.4)">
				<g>
					<path id="ArialMT-43_7_" class="st1" d="M-1860.5,1476l9.5-2.4c-2-7.8-5.6-13.7-10.7-17.8s-11.5-6.1-18.9-6.1
						c-7.7,0-14,1.6-18.8,4.7c-4.8,3.1-8.5,7.7-11,13.7c-2.7,5.9-3.9,12.3-3.9,19.2c0,7.5,1.4,14,4.3,19.5
						c2.9,5.6,6.9,9.8,12.2,12.6c5.3,2.9,11,4.3,17.4,4.3c7.2,0,13.2-1.8,18.1-5.5c4.9-3.6,8.3-8.8,10.2-15.4l-9.3-2.2
						c-1.7,5.2-4.1,9-7.2,11.4c-3.2,2.4-7.1,3.6-11.9,3.6c-5.5,0-10.1-1.3-13.8-4c-3.7-2.6-6.3-6.2-7.8-10.6s-2.2-9-2.2-13.7
						c0-6.1,0.9-11.4,2.7-15.9c1.8-4.5,4.5-7.9,8.3-10.2c3.8-2.2,7.8-3.4,12.2-3.4c5.3,0,9.8,1.5,13.5,4.6
						C-1864.3,1465.5-1861.8,1470-1860.5,1476z"/>
				</g>
				<g>
					<path id="ArialMT-4f_2_" class="st1" d="M-1842.3,1485.8c0,11.9,3.2,21.2,9.6,27.9c6.4,6.7,14.6,10.1,24.7,10.1
						c6.6,0,12.6-1.6,17.9-4.8c5.3-3.2,9.3-7.6,12.1-13.2c2.8-5.6,4.2-12.1,4.2-19.2c0-7.2-1.5-13.7-4.4-19.5
						c-2.9-5.7-7.1-10.1-12.5-13s-11.2-4.4-17.4-4.4c-6.7,0-12.8,1.6-18.1,4.9c-5.3,3.3-9.3,7.7-12.1,13.3
						C-1840.9,1473.6-1842.3,1479.5-1842.3,1485.8z M-1832.5,1485.6c0-8.6,2.3-15.4,7-20.4c4.6-5,10.5-7.4,17.5-7.4
						c7.1,0,13,2.5,17.6,7.5s6.9,12.1,6.9,21.3c0,5.8-1,10.9-3,15.2s-4.9,7.7-8.7,10.1c-3.8,2.4-8,3.6-12.8,3.6
						c-6.7,0-12.5-2.3-17.3-6.9C-1830.1,1504.1-1832.5,1496.4-1832.5,1485.6z"/>
				</g>
			</g>
		</g>
	</g>
	<g id="xtick_6">
		<g id="text_22">
			<g transform="translate(1319.208097 532.809908)scale(0.4 -0.4)">
				<g>
					<path id="ArialMT-43_8_" class="st1" d="M-1860.5,1476l9.5-2.4c-2-7.8-5.6-13.7-10.7-17.8s-11.5-6.1-18.9-6.1
						c-7.7,0-14,1.6-18.8,4.7c-4.8,3.1-8.5,7.7-11,13.7c-2.7,5.9-3.9,12.3-3.9,19.2c0,7.5,1.4,14,4.3,19.5
						c2.9,5.6,6.9,9.8,12.2,12.6c5.3,2.9,11,4.3,17.4,4.3c7.2,0,13.2-1.8,18.1-5.5c4.9-3.6,8.3-8.8,10.2-15.4l-9.3-2.2
						c-1.7,5.2-4.1,9-7.2,11.4c-3.2,2.4-7.1,3.6-11.9,3.6c-5.5,0-10.1-1.3-13.8-4c-3.7-2.6-6.3-6.2-7.8-10.6s-2.2-9-2.2-13.7
						c0-6.1,0.9-11.4,2.7-15.9c1.8-4.5,4.5-7.9,8.3-10.2c3.8-2.2,7.8-3.4,12.2-3.4c5.3,0,9.8,1.5,13.5,4.6
						C-1864.3,1465.5-1861.8,1470-1860.5,1476z"/>
				</g>
				<g>
					<path id="ArialMT-44_2_" class="st1" d="M-1839.4,1450.9v71.6h24.7c5.6,0,9.8-0.3,12.8-1c4.1-0.9,7.6-2.7,10.5-5.1
						c3.8-3.2,6.6-7.3,8.5-12.2c1.9-5,2.8-10.6,2.8-17c0-5.4-0.6-10.3-1.9-14.5c-1.3-4.2-2.9-7.7-4.9-10.4c-2-2.8-4.2-4.9-6.5-6.5
						c-2.4-1.6-5.2-2.8-8.5-3.6c-3.3-0.8-7.2-1.2-11.5-1.2L-1839.4,1450.9L-1839.4,1450.9z M-1829.9,1459.4h15.3
						c4.7,0,8.4,0.4,11.1,1.3c2.7,0.9,4.8,2.1,6.4,3.7c2.2,2.2,4,5.3,5.2,9c1.2,3.8,1.9,8.4,1.9,13.8c0,7.5-1.2,13.2-3.7,17.3
						s-5.4,6.7-9,8.1c-2.5,1-6.6,1.5-12.2,1.5h-15C-1829.9,1514.1-1829.9,1459.4-1829.9,1459.4z"/>
				</g>
			</g>
		</g>
	</g>
</g>
<g id="ytick_7">
	<g id="text_23">
		<g transform="translate(856.524574 476.986912)scale(0.4 -0.4)">
			<g>
				<path id="ArialMT-30_14_" class="st1" d="M-1915.1,1486.2c0,8.5,0.9,15.3,2.6,20.4c1.7,5.2,4.3,9.1,7.8,11.9
					c3.4,2.8,7.8,4.2,13,4.2c3.8,0,7.2-0.8,10.1-2.3c2.9-1.5,5.3-3.8,7.2-6.7s3.4-6.5,4.5-10.6c1.1-4.2,1.6-9.8,1.6-16.9
					c0-8.4-0.9-15.2-2.6-20.3c-1.7-5.2-4.3-9.1-7.7-12c-3.4-2.8-7.8-4.2-13-4.2c-6.9,0-12.3,2.5-16.2,7.4
					C-1912.8,1463.1-1915.1,1472.8-1915.1,1486.2z M-1906.1,1486.2c0-11.8,1.4-19.6,4.1-23.5c2.8-3.9,6.1-5.8,10.2-5.8
					c4,0,7.4,2,10.2,5.9c2.8,3.9,4.1,11.7,4.1,23.4c0,11.8-1.4,19.6-4.1,23.5c-2.8,3.9-6.2,5.8-10.3,5.8c-4,0-7.3-1.7-9.7-5.1
					C-1904.6,1506-1906.1,1498-1906.1,1486.2z"/>
			</g>
		</g>
	</g>
</g>
<g id="ytick_8">
	<g id="text_24">
		<g transform="translate(834.280824 382.729441)scale(0.4 -0.4)">
			<g>
				<path id="ArialMT-35" class="st1" d="M-1915.1,1469.7l9.2,0.8c0.7-4.5,2.3-7.9,4.8-10.1c2.5-2.3,5.5-3.4,9-3.4
					c4.2,0,7.8,1.6,10.7,4.8c2.9,3.2,4.4,7.4,4.4,12.7c0,5-1.4,9-4.2,11.9c-2.8,2.9-6.5,4.4-11.1,4.4c-2.8,0-5.4-0.6-7.7-1.9
					c-2.3-1.3-4.1-2.9-5.4-5l-8.2,1.1l6.9,36.8h35.6v-8.4h-28.5l-3.8-19.2c4.3,3,8.8,4.5,13.5,4.5c6.2,0,11.5-2.2,15.8-6.5
					c4.3-4.3,6.5-9.9,6.5-16.7c0-6.5-1.9-12.1-5.7-16.8c-4.6-5.8-10.9-8.7-18.8-8.7c-6.5,0-11.8,1.8-16,5.5
					C-1912.2,1458.8-1914.6,1463.7-1915.1,1469.7z"/>
			</g>
			<g>
				<path id="ArialMT-30_15_" class="st1" d="M-1859.5,1486.2c0,8.5,0.9,15.3,2.6,20.4c1.7,5.2,4.3,9.1,7.8,11.9
					c3.4,2.8,7.8,4.2,13,4.2c3.8,0,7.2-0.8,10.1-2.3c2.9-1.5,5.3-3.8,7.2-6.7s3.4-6.5,4.5-10.6c1.1-4.2,1.6-9.8,1.6-16.9
					c0-8.4-0.9-15.2-2.6-20.3c-1.7-5.2-4.3-9.1-7.7-12c-3.4-2.8-7.8-4.2-13-4.2c-6.9,0-12.3,2.5-16.2,7.4
					C-1857.2,1463.1-1859.5,1472.8-1859.5,1486.2z M-1850.5,1486.2c0-11.8,1.4-19.6,4.1-23.5c2.8-3.9,6.1-5.8,10.2-5.8
					c4,0,7.4,2,10.2,5.9c2.8,3.9,4.1,11.7,4.1,23.4c0,11.8-1.4,19.6-4.1,23.5c-2.8,3.9-6.2,5.8-10.3,5.8c-4,0-7.3-1.7-9.7-5.1
					C-1849,1506-1850.5,1498-1850.5,1486.2z"/>
			</g>
		</g>
	</g>
</g>
<g id="ytick_9">
	<g id="text_25">
		<g transform="translate(812.037074 288.471971)scale(0.4 -0.4)">
			<g>
				<path id="ArialMT-31_2_" class="st1" d="M-1882.1,1450.9h-8.8v56c-2.1-2-4.9-4-8.3-6s-6.5-3.5-9.3-4.5v8.5
					c4.9,2.3,9.2,5.1,12.9,8.4c3.7,3.3,6.3,6.5,7.8,9.6h5.7V1450.9z"/>
			</g>
			<g>
				<path id="ArialMT-30_16_" class="st1" d="M-1859.5,1486.2c0,8.5,0.9,15.3,2.6,20.4c1.7,5.2,4.3,9.1,7.8,11.9
					c3.4,2.8,7.8,4.2,13,4.2c3.8,0,7.2-0.8,10.1-2.3c2.9-1.5,5.3-3.8,7.2-6.7s3.4-6.5,4.5-10.6c1.1-4.2,1.6-9.8,1.6-16.9
					c0-8.4-0.9-15.2-2.6-20.3c-1.7-5.2-4.3-9.1-7.7-12c-3.4-2.8-7.8-4.2-13-4.2c-6.9,0-12.3,2.5-16.2,7.4
					C-1857.2,1463.1-1859.5,1472.8-1859.5,1486.2z M-1850.5,1486.2c0-11.8,1.4-19.6,4.1-23.5c2.8-3.9,6.1-5.8,10.2-5.8
					c4,0,7.4,2,10.2,5.9c2.8,3.9,4.1,11.7,4.1,23.4c0,11.8-1.4,19.6-4.1,23.5c-2.8,3.9-6.2,5.8-10.3,5.8c-4,0-7.3-1.7-9.7-5.1
					C-1849,1506-1850.5,1498-1850.5,1486.2z"/>
			</g>
			<g>
				<path id="ArialMT-30_17_" class="st1" d="M-1803.9,1486.2c0,8.5,0.9,15.3,2.6,20.4c1.7,5.2,4.3,9.1,7.8,11.9
					c3.4,2.8,7.8,4.2,13,4.2c3.8,0,7.2-0.8,10.1-2.3s5.3-3.8,7.2-6.7s3.4-6.5,4.5-10.6c1.1-4.2,1.6-9.8,1.6-16.9
					c0-8.4-0.9-15.2-2.6-20.3c-1.7-5.2-4.3-9.1-7.7-12c-3.4-2.8-7.8-4.2-13-4.2c-6.9,0-12.3,2.5-16.2,7.4
					C-1801.6,1463.1-1803.9,1472.8-1803.9,1486.2z M-1794.9,1486.2c0-11.8,1.4-19.6,4.1-23.5c2.8-3.9,6.1-5.8,10.2-5.8
					c4,0,7.4,2,10.2,5.9c2.8,3.9,4.1,11.7,4.1,23.4c0,11.8-1.4,19.6-4.1,23.5c-2.8,3.9-6.2,5.8-10.3,5.8c-4,0-7.3-1.7-9.7-5.1
					C-1793.4,1506-1794.9,1498-1794.9,1486.2z"/>
			</g>
		</g>
	</g>
</g>
<g id="ytick_10">
	<g id="text_26">
		<g transform="translate(812.037074 194.2145)scale(0.4 -0.4)">
			<g>
				<path id="ArialMT-31_3_" class="st1" d="M-1882.1,1450.9h-8.8v56c-2.1-2-4.9-4-8.3-6s-6.5-3.5-9.3-4.5v8.5
					c4.9,2.3,9.2,5.1,12.9,8.4c3.7,3.3,6.3,6.5,7.8,9.6h5.7V1450.9z"/>
			</g>
			<g>
				<path id="ArialMT-35_1_" class="st1" d="M-1859.5,1469.7l9.2,0.8c0.7-4.5,2.3-7.9,4.8-10.1c2.5-2.3,5.5-3.4,9-3.4
					c4.2,0,7.8,1.6,10.7,4.8c2.9,3.2,4.4,7.4,4.4,12.7c0,5-1.4,9-4.2,11.9c-2.8,2.9-6.5,4.4-11.1,4.4c-2.8,0-5.4-0.6-7.7-1.9
					c-2.3-1.3-4.1-2.9-5.4-5l-8.2,1.1l6.9,36.8h35.6v-8.4h-28.5l-3.8-19.2c4.3,3,8.8,4.5,13.5,4.5c6.2,0,11.5-2.2,15.8-6.5
					c4.3-4.3,6.5-9.9,6.5-16.7c0-6.5-1.9-12.1-5.7-16.8c-4.6-5.8-10.9-8.7-18.8-8.7c-6.5,0-11.8,1.8-16,5.5
					C-1856.6,1458.8-1858.9,1463.7-1859.5,1469.7z"/>
			</g>
			<g>
				<path id="ArialMT-30_18_" class="st1" d="M-1803.9,1486.2c0,8.5,0.9,15.3,2.6,20.4c1.7,5.2,4.3,9.1,7.8,11.9
					c3.4,2.8,7.8,4.2,13,4.2c3.8,0,7.2-0.8,10.1-2.3s5.3-3.8,7.2-6.7s3.4-6.5,4.5-10.6c1.1-4.2,1.6-9.8,1.6-16.9
					c0-8.4-0.9-15.2-2.6-20.3c-1.7-5.2-4.3-9.1-7.7-12c-3.4-2.8-7.8-4.2-13-4.2c-6.9,0-12.3,2.5-16.2,7.4
					C-1801.6,1463.1-1803.9,1472.8-1803.9,1486.2z M-1794.9,1486.2c0-11.8,1.4-19.6,4.1-23.5c2.8-3.9,6.1-5.8,10.2-5.8
					c4,0,7.4,2,10.2,5.9c2.8,3.9,4.1,11.7,4.1,23.4c0,11.8-1.4,19.6-4.1,23.5c-2.8,3.9-6.2,5.8-10.3,5.8c-4,0-7.3-1.7-9.7-5.1
					C-1793.4,1506-1794.9,1498-1794.9,1486.2z"/>
			</g>
		</g>
	</g>
</g>
<g id="patch_21">
	<g>
		<g>
			<defs>
				<rect id="SVGID_1_" x="120.2" y="-460.8" width="613.6" height="375.5"/>
			</defs>
			<clipPath id="SVGID_2_">
				<use xlink:href="#SVGID_1_"  style="overflow:visible;"/>
			</clipPath>
			<path class="st2" d="M150.9-117.7h245.4v-141.2H150.9V-117.7z"/>
		</g>
	</g>
</g>
<g id="patch_22">
	<g>
		<g>
			<defs>
				<rect id="SVGID_3_" x="120.2" y="-460.8" width="613.6" height="375.5"/>
			</defs>
			<clipPath id="SVGID_4_">
				<use xlink:href="#SVGID_3_"  style="overflow:visible;"/>
			</clipPath>
			<path class="st3" d="M457.7-117.7h245.5v-148.8H457.7V-117.7z"/>
		</g>
	</g>
</g>
<g id="line2d_9">
	<g>
		<g>
			<defs>
				<rect id="SVGID_5_" x="120.2" y="-460.8" width="613.6" height="375.5"/>
			</defs>
			<clipPath id="SVGID_6_">
				<use xlink:href="#SVGID_5_"  style="overflow:visible;"/>
			</clipPath>
			<path class="st4" d="M273.6-226.1v-69.7"/>
		</g>
	</g>
</g>
<g id="line2d_10">
	<g>
		<g>
			<defs>
				<rect id="SVGID_7_" x="120.2" y="-460.8" width="613.6" height="375.5"/>
			</defs>
			<clipPath id="SVGID_8_">
				<use xlink:href="#SVGID_7_"  style="overflow:visible;"/>
			</clipPath>
			<path class="st5" d="M580.4-233.1v-63.2"/>
		</g>
	</g>
</g>
<g id="patch_23">
	<path class="st6" d="M120.2-85.3v-375.5"/>
</g>
<g id="patch_24">
	<path class="st6" d="M120.2-85.3h613.6"/>
</g>
<g id="PathCollection_1">
	<g>
		<g>
			<defs>
				<rect id="SVGID_9_" x="120.2" y="-460.8" width="613.6" height="375.5"/>
			</defs>
			<clipPath id="SVGID_10_">
				<use xlink:href="#SVGID_9_"  style="overflow:visible;"/>
			</clipPath>
			<g class="st7">
				<g>
					<path id="C0_0_5e3c3488fb" class="st8" d="M273.6-97.4c1.3,0,2.6-0.5,3.5-1.5c0.9-0.9,1.5-2.2,1.5-3.5s-0.5-2.6-1.5-3.5
						c-0.9-0.9-2.2-1.5-3.5-1.5s-2.6,0.5-3.5,1.5c-0.9,0.9-1.5,2.2-1.5,3.5s0.5,2.6,1.5,3.5C271-97.9,272.3-97.4,273.6-97.4z"/>
				</g>
			</g>
		</g>
	</g>
	<g>
		<g>
			<defs>
				<rect id="SVGID_11_" x="120.2" y="-460.8" width="613.6" height="375.5"/>
			</defs>
			<clipPath id="SVGID_12_">
				<use xlink:href="#SVGID_11_"  style="overflow:visible;"/>
			</clipPath>
			<g class="st9">
				<g>
					<path id="C0_0_5e3c3488fb_1_" class="st8" d="M273.6-167.9c1.3,0,2.6-0.5,3.5-1.5c0.9-0.9,1.5-2.2,1.5-3.5s-0.5-2.6-1.5-3.5
						c-0.9-0.9-2.2-1.5-3.5-1.5s-2.6,0.5-3.5,1.5c-0.9,0.9-1.5,2.2-1.5,3.5s0.5,2.6,1.5,3.5C271-168.5,272.3-167.9,273.6-167.9z"/>
				</g>
			</g>
		</g>
	</g>
	<g>
		<g>
			<defs>
				<rect id="SVGID_13_" x="120.2" y="-460.8" width="613.6" height="375.5"/>
			</defs>
			<clipPath id="SVGID_14_">
				<use xlink:href="#SVGID_13_"  style="overflow:visible;"/>
			</clipPath>
			<g class="st10">
				<g>
					<path id="C0_0_5e3c3488fb_2_" class="st8" d="M249.2-176.5c1.3,0,2.6-0.5,3.5-1.5c0.9-0.9,1.5-2.2,1.5-3.5s-0.5-2.6-1.5-3.5
						c-0.9-0.9-2.2-1.5-3.5-1.5s-2.6,0.5-3.5,1.5c-0.9,0.9-1.5,2.2-1.5,3.5s0.5,2.6,1.5,3.5C246.6-177,247.9-176.5,249.2-176.5z"/>
				</g>
			</g>
		</g>
	</g>
	<g>
		<g>
			<defs>
				<rect id="SVGID_15_" x="120.2" y="-460.8" width="613.6" height="375.5"/>
			</defs>
			<clipPath id="SVGID_16_">
				<use xlink:href="#SVGID_15_"  style="overflow:visible;"/>
			</clipPath>
			<g class="st11">
				<g>
					<path id="C0_0_5e3c3488fb_3_" class="st8" d="M290.4-197c1.3,0,2.6-0.5,3.5-1.5c0.9-0.9,1.5-2.2,1.5-3.5s-0.5-2.6-1.5-3.5
						c-0.9-0.9-2.2-1.5-3.5-1.5s-2.6,0.5-3.5,1.5c-0.9,0.9-1.5,2.2-1.5,3.5s0.5,2.6,1.5,3.5C287.8-197.5,289.1-197,290.4-197z"/>
				</g>
			</g>
		</g>
	</g>
	<g>
		<g>
			<defs>
				<rect id="SVGID_17_" x="120.2" y="-460.8" width="613.6" height="375.5"/>
			</defs>
			<clipPath id="SVGID_18_">
				<use xlink:href="#SVGID_17_"  style="overflow:visible;"/>
			</clipPath>
			<g class="st12">
				<g>
					<path id="C0_0_5e3c3488fb_4_" class="st8" d="M315.3-200.6c1.3,0,2.6-0.5,3.5-1.5c0.9-0.9,1.5-2.2,1.5-3.5s-0.5-2.6-1.5-3.5
						c-0.9-0.9-2.2-1.5-3.5-1.5s-2.6,0.5-3.5,1.5c-0.9,0.9-1.5,2.2-1.5,3.5s0.5,2.6,1.5,3.5C312.7-201.1,313.9-200.6,315.3-200.6z"
						/>
				</g>
			</g>
		</g>
	</g>
	<g>
		<g>
			<defs>
				<rect id="SVGID_19_" x="120.2" y="-460.8" width="613.6" height="375.5"/>
			</defs>
			<clipPath id="SVGID_20_">
				<use xlink:href="#SVGID_19_"  style="overflow:visible;"/>
			</clipPath>
			<g class="st13">
				<g>
					<path id="C0_0_5e3c3488fb_5_" class="st8" d="M230.5-202.4c1.3,0,2.6-0.5,3.5-1.5c0.9-0.9,1.5-2.2,1.5-3.5s-0.5-2.6-1.5-3.5
						c-0.9-0.9-2.2-1.5-3.5-1.5s-2.6,0.5-3.5,1.5c-0.9,0.9-1.5,2.2-1.5,3.5s0.5,2.6,1.5,3.5C227.9-202.9,229.1-202.4,230.5-202.4z"
						/>
				</g>
			</g>
		</g>
	</g>
	<g>
		<g>
			<defs>
				<rect id="SVGID_21_" x="120.2" y="-460.8" width="613.6" height="375.5"/>
			</defs>
			<clipPath id="SVGID_22_">
				<use xlink:href="#SVGID_21_"  style="overflow:visible;"/>
			</clipPath>
			<g class="st14">
				<g>
					<path id="C0_0_5e3c3488fb_6_" class="st8" d="M266.7-209.1c1.3,0,2.6-0.5,3.5-1.5c0.9-0.9,1.5-2.2,1.5-3.5s-0.5-2.6-1.5-3.5
						c-0.9-0.9-2.2-1.5-3.5-1.5s-2.6,0.5-3.5,1.5c-0.9,0.9-1.5,2.2-1.5,3.5s0.5,2.6,1.5,3.5C264.1-209.7,265.4-209.1,266.7-209.1z"
						/>
				</g>
			</g>
		</g>
	</g>
	<g>
		<g>
			<defs>
				<rect id="SVGID_23_" x="120.2" y="-460.8" width="613.6" height="375.5"/>
			</defs>
			<clipPath id="SVGID_24_">
				<use xlink:href="#SVGID_23_"  style="overflow:visible;"/>
			</clipPath>
			<g class="st15">
				<g>
					<path id="C0_0_5e3c3488fb_7_" class="st8" d="M280.5-242c1.3,0,2.6-0.5,3.5-1.5c0.9-0.9,1.5-2.2,1.5-3.5s-0.5-2.6-1.5-3.5
						s-2.2-1.5-3.5-1.5s-2.6,0.5-3.5,1.5s-1.5,2.2-1.5,3.5s0.5,2.6,1.5,3.5C277.9-242.5,279.1-242,280.5-242z"/>
				</g>
			</g>
		</g>
	</g>
	<g>
		<g>
			<defs>
				<rect id="SVGID_25_" x="120.2" y="-460.8" width="613.6" height="375.5"/>
			</defs>
			<clipPath id="SVGID_26_">
				<use xlink:href="#SVGID_25_"  style="overflow:visible;"/>
			</clipPath>
			<g class="st16">
				<g>
					<path id="C0_0_5e3c3488fb_8_" class="st8" d="M257.2-256.3c1.3,0,2.6-0.5,3.5-1.5c0.9-0.9,1.5-2.2,1.5-3.5
						c0-1.3-0.5-2.6-1.5-3.5s-2.2-1.5-3.5-1.5c-1.3,0-2.6,0.5-3.5,1.5s-1.5,2.2-1.5,3.5c0,1.3,0.5,2.6,1.5,3.5
						C254.6-256.8,255.9-256.3,257.2-256.3z"/>
				</g>
			</g>
		</g>
	</g>
	<g>
		<g>
			<defs>
				<rect id="SVGID_27_" x="120.2" y="-460.8" width="613.6" height="375.5"/>
			</defs>
			<clipPath id="SVGID_28_">
				<use xlink:href="#SVGID_27_"  style="overflow:visible;"/>
			</clipPath>
			<g class="st17">
				<g>
					<path id="C0_0_5e3c3488fb_9_" class="st8" d="M299.3-267.8c1.3,0,2.6-0.5,3.5-1.5c0.9-0.9,1.5-2.2,1.5-3.5
						c0-1.3-0.5-2.6-1.5-3.5s-2.2-1.5-3.5-1.5s-2.6,0.5-3.5,1.5s-1.5,2.2-1.5,3.5c0,1.3,0.5,2.6,1.5,3.5
						C296.7-268.3,298-267.8,299.3-267.8z"/>
				</g>
			</g>
		</g>
	</g>
	<g>
		<g>
			<defs>
				<rect id="SVGID_29_" x="120.2" y="-460.8" width="613.6" height="375.5"/>
			</defs>
			<clipPath id="SVGID_30_">
				<use xlink:href="#SVGID_29_"  style="overflow:visible;"/>
			</clipPath>
			<g class="st18">
				<g>
					<path id="C0_0_5e3c3488fb_10_" class="st8" d="M234.2-271.2c1.3,0,2.6-0.5,3.5-1.5c0.9-0.9,1.5-2.2,1.5-3.5
						c0-1.3-0.5-2.6-1.5-3.5s-2.2-1.5-3.5-1.5s-2.6,0.5-3.5,1.5s-1.5,2.2-1.5,3.5c0,1.3,0.5,2.6,1.5,3.5
						C231.6-271.7,232.8-271.2,234.2-271.2z"/>
				</g>
			</g>
		</g>
	</g>
	<g>
		<g>
			<defs>
				<rect id="SVGID_31_" x="120.2" y="-460.8" width="613.6" height="375.5"/>
			</defs>
			<clipPath id="SVGID_32_">
				<use xlink:href="#SVGID_31_"  style="overflow:visible;"/>
			</clipPath>
			<g class="st19">
				<g>
					<path id="C0_0_5e3c3488fb_11_" class="st8" d="M323.5-277.3c1.3,0,2.6-0.5,3.5-1.5c0.9-0.9,1.5-2.2,1.5-3.5
						c0-1.3-0.5-2.6-1.5-3.5s-2.2-1.5-3.5-1.5s-2.6,0.5-3.5,1.5s-1.5,2.2-1.5,3.5c0,1.3,0.5,2.6,1.5,3.5
						C320.9-277.9,322.2-277.3,323.5-277.3z"/>
				</g>
			</g>
		</g>
	</g>
	<g>
		<g>
			<defs>
				<rect id="SVGID_33_" x="120.2" y="-460.8" width="613.6" height="375.5"/>
			</defs>
			<clipPath id="SVGID_34_">
				<use xlink:href="#SVGID_33_"  style="overflow:visible;"/>
			</clipPath>
			<g class="st20">
				<g>
					<path id="C0_0_5e3c3488fb_12_" class="st8" d="M273.6-289.6c1.3,0,2.6-0.5,3.5-1.5c0.9-0.9,1.5-2.2,1.5-3.5
						c0-1.3-0.5-2.6-1.5-3.5s-2.2-1.5-3.5-1.5s-2.6,0.5-3.5,1.5s-1.5,2.2-1.5,3.5c0,1.3,0.5,2.6,1.5,3.5
						C271-290.1,272.3-289.6,273.6-289.6z"/>
				</g>
			</g>
		</g>
	</g>
	<g>
		<g>
			<defs>
				<rect id="SVGID_35_" x="120.2" y="-460.8" width="613.6" height="375.5"/>
			</defs>
			<clipPath id="SVGID_36_">
				<use xlink:href="#SVGID_35_"  style="overflow:visible;"/>
			</clipPath>
			<g class="st21">
				<g>
					<path id="C0_0_5e3c3488fb_13_" class="st8" d="M214-294.4c1.3,0,2.6-0.5,3.5-1.5c0.9-0.9,1.5-2.2,1.5-3.5
						c0-1.3-0.5-2.6-1.5-3.5s-2.2-1.5-3.5-1.5s-2.6,0.5-3.5,1.5s-1.5,2.2-1.5,3.5c0,1.3,0.5,2.6,1.5,3.5
						C211.4-294.9,212.7-294.4,214-294.4z"/>
				</g>
			</g>
		</g>
	</g>
	<g>
		<g>
			<defs>
				<rect id="SVGID_37_" x="120.2" y="-460.8" width="613.6" height="375.5"/>
			</defs>
			<clipPath id="SVGID_38_">
				<use xlink:href="#SVGID_37_"  style="overflow:visible;"/>
			</clipPath>
			<g class="st22">
				<g>
					<path id="C0_0_5e3c3488fb_14_" class="st8" d="M344.3-299c1.3,0,2.6-0.5,3.5-1.5c0.9-0.9,1.5-2.2,1.5-3.5
						c0-1.3-0.5-2.6-1.5-3.5s-2.2-1.5-3.5-1.5s-2.6,0.5-3.5,1.5s-1.5,2.2-1.5,3.5c0,1.3,0.5,2.6,1.5,3.5
						C341.7-299.6,343-299,344.3-299z"/>
				</g>
			</g>
		</g>
	</g>
	<g>
		<g>
			<defs>
				<rect id="SVGID_39_" x="120.2" y="-460.8" width="613.6" height="375.5"/>
			</defs>
			<clipPath id="SVGID_40_">
				<use xlink:href="#SVGID_39_"  style="overflow:visible;"/>
			</clipPath>
			<g class="st23">
				<g>
					<path id="C0_0_5e3c3488fb_15_" class="st8" d="M269.7-328.5c1.3,0,2.6-0.5,3.5-1.5c0.9-0.9,1.5-2.2,1.5-3.5
						c0-1.3-0.5-2.6-1.5-3.5s-2.2-1.5-3.5-1.5s-2.6,0.5-3.5,1.5s-1.5,2.2-1.5,3.5c0,1.3,0.5,2.6,1.5,3.5
						C267.1-329,268.3-328.5,269.7-328.5z"/>
				</g>
			</g>
		</g>
	</g>
	<g>
		<g>
			<defs>
				<rect id="SVGID_41_" x="120.2" y="-460.8" width="613.6" height="375.5"/>
			</defs>
			<clipPath id="SVGID_42_">
				<use xlink:href="#SVGID_41_"  style="overflow:visible;"/>
			</clipPath>
			<g class="st24">
				<g>
					<path id="C0_0_5e3c3488fb_16_" class="st8" d="M287.9-355.4c1.3,0,2.6-0.5,3.5-1.5c0.9-0.9,1.5-2.2,1.5-3.5
						c0-1.3-0.5-2.6-1.5-3.5s-2.2-1.5-3.5-1.5s-2.6,0.5-3.5,1.5s-1.5,2.2-1.5,3.5c0,1.3,0.5,2.6,1.5,3.5
						C285.3-355.9,286.6-355.4,287.9-355.4z"/>
				</g>
			</g>
		</g>
	</g>
	<g>
		<g>
			<defs>
				<rect id="SVGID_43_" x="120.2" y="-460.8" width="613.6" height="375.5"/>
			</defs>
			<clipPath id="SVGID_44_">
				<use xlink:href="#SVGID_43_"  style="overflow:visible;"/>
			</clipPath>
			<g class="st25">
				<g>
					<path id="C0_0_5e3c3488fb_17_" class="st8" d="M273.6-438.7c1.3,0,2.6-0.5,3.5-1.5c0.9-0.9,1.5-2.2,1.5-3.5
						c0-1.3-0.5-2.6-1.5-3.5c-1-0.9-2.2-1.5-3.5-1.5s-2.6,0.5-3.5,1.5s-1.5,2.2-1.5,3.5c0,1.3,0.5,2.6,1.5,3.5
						C271-439.2,272.3-438.7,273.6-438.7z"/>
				</g>
			</g>
		</g>
	</g>
</g>
<g>
	<g>
		<defs>
			<rect id="SVGID_45_" x="120.2" y="-460.8" width="613.6" height="375.5"/>
		</defs>
		<clipPath id="SVGID_46_">
			<use xlink:href="#SVGID_45_"  style="overflow:visible;"/>
		</clipPath>
		<g class="st26">
			<g>
				<path id="C1_0_7923e66e68" class="st8" d="M580.4-157.2c1.3,0,2.6-0.5,3.5-1.5c0.9-0.9,1.5-2.2,1.5-3.5s-0.5-2.6-1.5-3.5
					c-0.9-0.9-2.2-1.5-3.5-1.5s-2.6,0.5-3.5,1.5c-0.9,0.9-1.5,2.2-1.5,3.5s0.5,2.6,1.5,3.5C577.8-157.7,579.1-157.2,580.4-157.2z"/>
			</g>
		</g>
	</g>
</g>
<g>
	<g>
		<defs>
			<rect id="SVGID_47_" x="120.2" y="-460.8" width="613.6" height="375.5"/>
		</defs>
		<clipPath id="SVGID_48_">
			<use xlink:href="#SVGID_47_"  style="overflow:visible;"/>
		</clipPath>
		<g class="st27">
			<g>
				<path id="C1_0_7923e66e68_1_" class="st8" d="M563.4-186c1.3,0,2.6-0.5,3.5-1.5c0.9-0.9,1.5-2.2,1.5-3.5s-0.5-2.6-1.5-3.5
					c-0.9-0.9-2.2-1.5-3.5-1.5s-2.6,0.5-3.5,1.5c-0.9,0.9-1.5,2.2-1.5,3.5s0.5,2.6,1.5,3.5C560.8-186.5,562.1-186,563.4-186z"/>
			</g>
		</g>
	</g>
</g>
<g>
	<g>
		<defs>
			<rect id="SVGID_49_" x="120.2" y="-460.8" width="613.6" height="375.5"/>
		</defs>
		<clipPath id="SVGID_50_">
			<use xlink:href="#SVGID_49_"  style="overflow:visible;"/>
		</clipPath>
		<g class="st28">
			<g>
				<path id="C1_0_7923e66e68_2_" class="st8" d="M591.4-192.5c1.3,0,2.6-0.5,3.5-1.5c0.9-0.9,1.5-2.2,1.5-3.5s-0.5-2.6-1.5-3.5
					c-0.9-0.9-2.2-1.5-3.5-1.5s-2.6,0.5-3.5,1.5c-0.9,0.9-1.5,2.2-1.5,3.5s0.5,2.6,1.5,3.5C588.8-193.1,590.1-192.5,591.4-192.5z"/>
			</g>
		</g>
	</g>
</g>
<g>
	<g>
		<defs>
			<rect id="SVGID_51_" x="120.2" y="-460.8" width="613.6" height="375.5"/>
		</defs>
		<clipPath id="SVGID_52_">
			<use xlink:href="#SVGID_51_"  style="overflow:visible;"/>
		</clipPath>
		<g class="st29">
			<g>
				<path id="C1_0_7923e66e68_3_" class="st8" d="M616.3-193.3c1.3,0,2.6-0.5,3.5-1.5c0.9-0.9,1.5-2.2,1.5-3.5s-0.5-2.6-1.5-3.5
					c-0.9-0.9-2.2-1.5-3.5-1.5s-2.6,0.5-3.5,1.5c-0.9,0.9-1.5,2.2-1.5,3.5s0.5,2.6,1.5,3.5C613.7-193.8,615-193.3,616.3-193.3z"/>
			</g>
		</g>
	</g>
</g>
<g>
	<g>
		<defs>
			<rect id="SVGID_53_" x="120.2" y="-460.8" width="613.6" height="375.5"/>
		</defs>
		<clipPath id="SVGID_54_">
			<use xlink:href="#SVGID_53_"  style="overflow:visible;"/>
		</clipPath>
		<g class="st30">
			<g>
				<path id="C1_0_7923e66e68_4_" class="st8" d="M547.1-215.8c1.3,0,2.6-0.5,3.5-1.5c0.9-0.9,1.5-2.2,1.5-3.5s-0.5-2.6-1.5-3.5
					c-0.9-0.9-2.2-1.5-3.5-1.5s-2.6,0.5-3.5,1.5c-0.9,0.9-1.5,2.2-1.5,3.5s0.5,2.6,1.5,3.5C544.5-216.3,545.7-215.8,547.1-215.8z"/>
			</g>
		</g>
	</g>
</g>
<g>
	<g>
		<defs>
			<rect id="SVGID_55_" x="120.2" y="-460.8" width="613.6" height="375.5"/>
		</defs>
		<clipPath id="SVGID_56_">
			<use xlink:href="#SVGID_55_"  style="overflow:visible;"/>
		</clipPath>
		<g class="st31">
			<g>
				<path id="C1_0_7923e66e68_5_" class="st8" d="M580.4-257.5c1.3,0,2.6-0.5,3.5-1.5c0.9-0.9,1.5-2.2,1.5-3.5
					c0-1.3-0.5-2.6-1.5-3.5s-2.2-1.5-3.5-1.5s-2.6,0.5-3.5,1.5s-1.5,2.2-1.5,3.5c0,1.3,0.5,2.6,1.5,3.5
					C577.8-258,579.1-257.5,580.4-257.5z"/>
			</g>
		</g>
	</g>
</g>
<g>
	<g>
		<defs>
			<rect id="SVGID_57_" x="120.2" y="-460.8" width="613.6" height="375.5"/>
		</defs>
		<clipPath id="SVGID_58_">
			<use xlink:href="#SVGID_57_"  style="overflow:visible;"/>
		</clipPath>
		<g class="st32">
			<g>
				<path id="C1_0_7923e66e68_6_" class="st8" d="M556.8-270.2c1.3,0,2.6-0.5,3.5-1.5c0.9-0.9,1.5-2.2,1.5-3.5
					c0-1.3-0.5-2.6-1.5-3.5s-2.2-1.5-3.5-1.5s-2.6,0.5-3.5,1.5s-1.5,2.2-1.5,3.5c0,1.3,0.5,2.6,1.5,3.5
					C554.2-270.7,555.5-270.2,556.8-270.2z"/>
			</g>
		</g>
	</g>
</g>
<g>
	<g>
		<defs>
			<rect id="SVGID_59_" x="120.2" y="-460.8" width="613.6" height="375.5"/>
		</defs>
		<clipPath id="SVGID_60_">
			<use xlink:href="#SVGID_59_"  style="overflow:visible;"/>
		</clipPath>
		<g class="st33">
			<g>
				<path id="C1_0_7923e66e68_7_" class="st8" d="M603.9-270.8c1.3,0,2.6-0.5,3.5-1.5c0.9-0.9,1.5-2.2,1.5-3.5
					c0-1.3-0.5-2.6-1.5-3.5s-2.2-1.5-3.5-1.5s-2.6,0.5-3.5,1.5s-1.5,2.2-1.5,3.5c0,1.3,0.5,2.6,1.5,3.5
					C601.3-271.3,602.5-270.8,603.9-270.8z"/>
			</g>
		</g>
	</g>
</g>
<g>
	<g>
		<defs>
			<rect id="SVGID_61_" x="120.2" y="-460.8" width="613.6" height="375.5"/>
		</defs>
		<clipPath id="SVGID_62_">
			<use xlink:href="#SVGID_61_"  style="overflow:visible;"/>
		</clipPath>
		<g class="st34">
			<g>
				<path id="C1_0_7923e66e68_8_" class="st8" d="M628.6-276.1c1.3,0,2.6-0.5,3.5-1.5c0.9-0.9,1.5-2.2,1.5-3.5
					c0-1.3-0.5-2.6-1.5-3.5s-2.2-1.5-3.5-1.5s-2.6,0.5-3.5,1.5s-1.5,2.2-1.5,3.5c0,1.3,0.5,2.6,1.5,3.5
					C626-276.6,627.2-276.1,628.6-276.1z"/>
			</g>
		</g>
	</g>
</g>
<g>
	<g>
		<defs>
			<rect id="SVGID_63_" x="120.2" y="-460.8" width="613.6" height="375.5"/>
		</defs>
		<clipPath id="SVGID_64_">
			<use xlink:href="#SVGID_63_"  style="overflow:visible;"/>
		</clipPath>
		<g class="st35">
			<g>
				<path id="C1_0_7923e66e68_9_" class="st8" d="M535.9-291.6c1.3,0,2.6-0.5,3.5-1.5c0.9-0.9,1.5-2.2,1.5-3.5
					c0-1.3-0.5-2.6-1.5-3.5s-2.2-1.5-3.5-1.5s-2.6,0.5-3.5,1.5s-1.5,2.2-1.5,3.5c0,1.3,0.5,2.6,1.5,3.5
					C533.3-292.1,534.5-291.6,535.9-291.6z"/>
			</g>
		</g>
	</g>
</g>
<g>
	<g>
		<defs>
			<rect id="SVGID_65_" x="120.2" y="-460.8" width="613.6" height="375.5"/>
		</defs>
		<clipPath id="SVGID_66_">
			<use xlink:href="#SVGID_65_"  style="overflow:visible;"/>
		</clipPath>
		<g class="st36">
			<g>
				<path id="C1_0_7923e66e68_10_" class="st8" d="M580.4-316c1.3,0,2.6-0.5,3.5-1.5c0.9-0.9,1.5-2.2,1.5-3.5c0-1.3-0.5-2.6-1.5-3.5
					s-2.2-1.5-3.5-1.5s-2.6,0.5-3.5,1.5s-1.5,2.2-1.5,3.5c0,1.3,0.5,2.6,1.5,3.5C577.8-316.5,579.1-316,580.4-316z"/>
			</g>
		</g>
	</g>
</g>
<g>
	<g>
		<defs>
			<rect id="SVGID_67_" x="120.2" y="-460.8" width="613.6" height="375.5"/>
		</defs>
		<clipPath id="SVGID_68_">
			<use xlink:href="#SVGID_67_"  style="overflow:visible;"/>
		</clipPath>
		<g class="st37">
			<g>
				<path id="C1_0_7923e66e68_11_" class="st8" d="M605.2-319.1c1.3,0,2.6-0.5,3.5-1.5c0.9-0.9,1.5-2.2,1.5-3.5
					c0-1.3-0.5-2.6-1.5-3.5s-2.2-1.5-3.5-1.5s-2.6,0.5-3.5,1.5s-1.5,2.2-1.5,3.5c0,1.3,0.5,2.6,1.5,3.5
					C602.7-319.6,603.9-319.1,605.2-319.1z"/>
			</g>
		</g>
	</g>
</g>
<g>
	<g>
		<defs>
			<rect id="SVGID_69_" x="120.2" y="-460.8" width="613.6" height="375.5"/>
		</defs>
		<clipPath id="SVGID_70_">
			<use xlink:href="#SVGID_69_"  style="overflow:visible;"/>
		</clipPath>
		<g class="st38">
			<g>
				<path id="C1_0_7923e66e68_12_" class="st8" d="M558-333.4c1.3,0,2.6-0.5,3.5-1.5c0.9-0.9,1.5-2.2,1.5-3.5c0-1.3-0.5-2.6-1.5-3.5
					s-2.2-1.5-3.5-1.5s-2.6,0.5-3.5,1.5s-1.5,2.2-1.5,3.5c0,1.3,0.5,2.6,1.5,3.5C555.4-334,556.7-333.4,558-333.4z"/>
			</g>
		</g>
	</g>
</g>
<rect x="120.2" y="-460.8" class="st39" width="613.6" height="375.5"/>
<g>
	<g>
		<path id="C1_0_7923e66e68_13_" class="st8" d="M580.4-381.3c1.3,0,2.6-0.5,3.5-1.5c0.9-0.9,1.5-2.2,1.5-3.5c0-1.3-0.5-2.6-1.5-3.5
			s-2.2-1.5-3.5-1.5s-2.6,0.5-3.5,1.5s-1.5,2.2-1.5,3.5c0,1.3,0.5,2.6,1.5,3.5C577.8-381.8,579.1-381.3,580.4-381.3z"/>
	</g>
</g>
<g id="patch_25">
	<path class="st0" d="M120.2,402.8h613.6V27.3H120.2V402.8z"/>
</g>
<g id="matplotlib.axis_7">
	<g id="xtick_7">
		<g id="text_29">
			<g transform="translate(1011.277415 1020.91356)scale(0.4 -0.4)">
				<g>
					<path id="ArialMT-43_10_" class="st1" d="M-1860.5,1476l9.5-2.4c-2-7.8-5.6-13.7-10.7-17.8c-5.2-4.1-11.5-6.1-18.9-6.1
						c-7.7,0-14,1.6-18.8,4.7c-4.8,3.1-8.5,7.7-11,13.7s-3.9,12.3-3.9,19.2c0,7.5,1.4,14,4.3,19.5c2.9,5.6,6.9,9.8,12.2,12.6
						c5.3,2.9,11,4.3,17.4,4.3c7.2,0,13.2-1.8,18.1-5.5c4.9-3.6,8.3-8.8,10.2-15.4l-9.3-2.2c-1.7,5.2-4.1,9-7.2,11.4
						c-3.2,2.4-7.1,3.6-11.9,3.6c-5.5,0-10.1-1.3-13.8-4c-3.7-2.6-6.3-6.2-7.8-10.6s-2.2-9-2.2-13.7c0-6.1,0.9-11.4,2.7-15.9
						c1.8-4.5,4.5-7.9,8.3-10.2c3.8-2.2,7.8-3.4,12.2-3.4c5.3,0,9.8,1.5,13.5,4.6C-1864.3,1465.5-1861.8,1470-1860.5,1476z"/>
				</g>
				<g>
					<path id="ArialMT-4f_3_" class="st1" d="M-1842.3,1485.8c0,11.9,3.2,21.2,9.6,27.9c6.4,6.7,14.6,10.1,24.7,10.1
						c6.6,0,12.6-1.6,17.9-4.8c5.3-3.2,9.3-7.6,12.1-13.2c2.8-5.6,4.2-12.1,4.2-19.2c0-7.2-1.5-13.7-4.4-19.5
						c-2.9-5.7-7.1-10.1-12.5-13s-11.2-4.4-17.4-4.4c-6.7,0-12.8,1.6-18.1,4.9c-5.3,3.3-9.3,7.7-12.1,13.3
						C-1840.9,1473.6-1842.3,1479.5-1842.3,1485.8z M-1832.5,1485.6c0-8.6,2.3-15.4,7-20.4c4.6-5,10.5-7.4,17.5-7.4
						c7.1,0,13,2.5,17.6,7.5s6.9,12.1,6.9,21.3c0,5.8-1,10.9-3,15.2s-4.9,7.7-8.7,10.1c-3.8,2.4-8,3.6-12.8,3.6
						c-6.7,0-12.5-2.3-17.3-6.9C-1830.1,1504.1-1832.5,1496.4-1832.5,1485.6z"/>
				</g>
			</g>
		</g>
	</g>
	<g id="xtick_8">
		<g id="text_30">
			<g transform="translate(1319.208097 1020.91356)scale(0.4 -0.4)">
				<g>
					<path id="ArialMT-43_11_" class="st1" d="M-1860.5,1476l9.5-2.4c-2-7.8-5.6-13.7-10.7-17.8c-5.2-4.1-11.5-6.1-18.9-6.1
						c-7.7,0-14,1.6-18.8,4.7c-4.8,3.1-8.5,7.7-11,13.7s-3.9,12.3-3.9,19.2c0,7.5,1.4,14,4.3,19.5c2.9,5.6,6.9,9.8,12.2,12.6
						c5.3,2.9,11,4.3,17.4,4.3c7.2,0,13.2-1.8,18.1-5.5c4.9-3.6,8.3-8.8,10.2-15.4l-9.3-2.2c-1.7,5.2-4.1,9-7.2,11.4
						c-3.2,2.4-7.1,3.6-11.9,3.6c-5.5,0-10.1-1.3-13.8-4c-3.7-2.6-6.3-6.2-7.8-10.6s-2.2-9-2.2-13.7c0-6.1,0.9-11.4,2.7-15.9
						c1.8-4.5,4.5-7.9,8.3-10.2c3.8-2.2,7.8-3.4,12.2-3.4c5.3,0,9.8,1.5,13.5,4.6C-1864.3,1465.5-1861.8,1470-1860.5,1476z"/>
				</g>
				<g>
					<path id="ArialMT-44_3_" class="st1" d="M-1839.4,1450.9v71.6h24.7c5.6,0,9.8-0.3,12.8-1c4.1-0.9,7.6-2.7,10.5-5.1
						c3.8-3.2,6.6-7.3,8.5-12.2c1.9-5,2.8-10.6,2.8-17c0-5.4-0.6-10.3-1.9-14.5c-1.3-4.2-2.9-7.7-4.9-10.4c-2-2.8-4.2-4.9-6.5-6.5
						c-2.4-1.6-5.2-2.8-8.5-3.6c-3.3-0.8-7.2-1.2-11.5-1.2L-1839.4,1450.9L-1839.4,1450.9z M-1829.9,1459.4h15.3
						c4.7,0,8.4,0.4,11.1,1.3c2.7,0.9,4.8,2.1,6.4,3.7c2.2,2.2,4,5.3,5.2,9c1.2,3.8,1.9,8.4,1.9,13.8c0,7.5-1.2,13.2-3.7,17.3
						s-5.4,6.7-9,8.1c-2.5,1-6.6,1.5-12.2,1.5h-15C-1829.9,1514.1-1829.9,1459.4-1829.9,1459.4z"/>
				</g>
			</g>
		</g>
	</g>
</g>
<g id="ytick_11">
	<g id="text_31">
		<g transform="translate(810.918324 991.990155)scale(0.4 -0.4)">
			<g>
				<path id="ArialMT-2212" class="st1" d="M-1866.5,1482.1h-47.2v8.2h47.3L-1866.5,1482.1L-1866.5,1482.1z"/>
			</g>
			<g>
				<path id="ArialMT-35_2_" class="st1" d="M-1856.7,1469.7l9.2,0.8c0.7-4.5,2.3-7.9,4.8-10.1c2.5-2.3,5.5-3.4,9-3.4
					c4.2,0,7.8,1.6,10.7,4.8c2.9,3.2,4.4,7.4,4.4,12.7c0,5-1.4,9-4.2,11.9s-6.5,4.4-11.1,4.4c-2.8,0-5.4-0.6-7.7-1.9
					c-2.3-1.3-4.1-2.9-5.4-5l-8.2,1.1l6.9,36.8h35.6v-8.4h-28.5l-3.8-19.2c4.3,3,8.8,4.5,13.5,4.5c6.2,0,11.5-2.2,15.8-6.5
					c4.3-4.3,6.5-9.9,6.5-16.7c0-6.5-1.9-12.1-5.7-16.8c-4.6-5.8-10.9-8.7-18.8-8.7c-6.5,0-11.8,1.8-16,5.5
					C-1853.8,1458.8-1856.2,1463.7-1856.7,1469.7z"/>
			</g>
			<g>
				<path id="ArialMT-30_19_" class="st1" d="M-1801.1,1486.2c0,8.5,0.9,15.3,2.6,20.4c1.7,5.2,4.3,9.1,7.8,11.9
					c3.4,2.8,7.8,4.2,13,4.2c3.8,0,7.2-0.8,10.1-2.3s5.3-3.8,7.2-6.7c1.9-2.9,3.4-6.5,4.5-10.6c1.1-4.2,1.6-9.8,1.6-16.9
					c0-8.4-0.9-15.2-2.6-20.3c-1.7-5.2-4.3-9.1-7.7-12c-3.4-2.8-7.8-4.2-13-4.2c-6.9,0-12.3,2.5-16.2,7.4
					C-1798.8,1463.1-1801.1,1472.8-1801.1,1486.2z M-1792.1,1486.2c0-11.8,1.4-19.6,4.1-23.5c2.8-3.9,6.1-5.8,10.2-5.8
					c4,0,7.4,2,10.2,5.9c2.8,3.9,4.1,11.7,4.1,23.4c0,11.8-1.4,19.6-4.1,23.5c-2.8,3.9-6.2,5.8-10.3,5.8c-4,0-7.3-1.7-9.7-5.1
					C-1790.6,1506-1792.1,1498-1792.1,1486.2z"/>
			</g>
		</g>
	</g>
</g>
<g id="ytick_12">
	<g id="text_32">
		<g transform="translate(856.524574 815.08529)scale(0.4 -0.4)">
			<g>
				<path id="ArialMT-30_20_" class="st1" d="M-1915.1,1486.2c0,8.5,0.9,15.3,2.6,20.4c1.7,5.2,4.3,9.1,7.8,11.9
					c3.4,2.8,7.8,4.2,13,4.2c3.8,0,7.2-0.8,10.1-2.3c2.9-1.5,5.3-3.8,7.2-6.7s3.4-6.5,4.5-10.6c1.1-4.2,1.6-9.8,1.6-16.9
					c0-8.4-0.9-15.2-2.6-20.3c-1.7-5.2-4.3-9.1-7.7-12c-3.4-2.8-7.8-4.2-13-4.2c-6.9,0-12.3,2.5-16.2,7.4
					C-1912.8,1463.1-1915.1,1472.8-1915.1,1486.2z M-1906.1,1486.2c0-11.8,1.4-19.6,4.1-23.5c2.8-3.9,6.1-5.8,10.2-5.8
					c4,0,7.4,2,10.2,5.9c2.8,3.9,4.1,11.7,4.1,23.4c0,11.8-1.4,19.6-4.1,23.5c-2.8,3.9-6.2,5.8-10.3,5.8c-4,0-7.3-1.7-9.7-5.1
					C-1904.6,1506-1906.1,1498-1906.1,1486.2z"/>
			</g>
		</g>
	</g>
</g>
<g id="ytick_13">
	<g id="text_33">
		<g transform="translate(834.280824 638.180424)scale(0.4 -0.4)">
			<g>
				<path id="ArialMT-35_3_" class="st1" d="M-1915.1,1469.7l9.2,0.8c0.7-4.5,2.3-7.9,4.8-10.1c2.5-2.3,5.5-3.4,9-3.4
					c4.2,0,7.8,1.6,10.7,4.8c2.9,3.2,4.4,7.4,4.4,12.7c0,5-1.4,9-4.2,11.9c-2.8,2.9-6.5,4.4-11.1,4.4c-2.8,0-5.4-0.6-7.7-1.9
					c-2.3-1.3-4.1-2.9-5.4-5l-8.2,1.1l6.9,36.8h35.6v-8.4h-28.5l-3.8-19.2c4.3,3,8.8,4.5,13.5,4.5c6.2,0,11.5-2.2,15.8-6.5
					c4.3-4.3,6.5-9.9,6.5-16.7c0-6.5-1.9-12.1-5.7-16.8c-4.6-5.8-10.9-8.7-18.8-8.7c-6.5,0-11.8,1.8-16,5.5
					C-1912.2,1458.8-1914.6,1463.7-1915.1,1469.7z"/>
			</g>
			<g>
				<path id="ArialMT-30_21_" class="st1" d="M-1859.5,1486.2c0,8.5,0.9,15.3,2.6,20.4c1.7,5.2,4.3,9.1,7.8,11.9
					c3.4,2.8,7.8,4.2,13,4.2c3.8,0,7.2-0.8,10.1-2.3c2.9-1.5,5.3-3.8,7.2-6.7s3.4-6.5,4.5-10.6c1.1-4.2,1.6-9.8,1.6-16.9
					c0-8.4-0.9-15.2-2.6-20.3c-1.7-5.2-4.3-9.1-7.7-12c-3.4-2.8-7.8-4.2-13-4.2c-6.9,0-12.3,2.5-16.2,7.4
					C-1857.2,1463.1-1859.5,1472.8-1859.5,1486.2z M-1850.5,1486.2c0-11.8,1.4-19.6,4.1-23.5c2.8-3.9,6.1-5.8,10.2-5.8
					c4,0,7.4,2,10.2,5.9c2.8,3.9,4.1,11.7,4.1,23.4c0,11.8-1.4,19.6-4.1,23.5c-2.8,3.9-6.2,5.8-10.3,5.8c-4,0-7.3-1.7-9.7-5.1
					C-1849,1506-1850.5,1498-1850.5,1486.2z"/>
			</g>
		</g>
	</g>
</g>
<g id="patch_26">
	<g>
		<g>
			<defs>
				<rect id="SVGID_71_" x="120.2" y="27.3" width="613.6" height="375.5"/>
			</defs>
			<clipPath id="SVGID_72_">
				<use xlink:href="#SVGID_71_"  style="overflow:visible;"/>
			</clipPath>
			<path class="st40" d="M150.9,220.4h245.4v8.7H150.9V220.4z"/>
		</g>
	</g>
</g>
<g id="patch_27">
	<g>
		<g>
			<defs>
				<rect id="SVGID_73_" x="120.2" y="27.3" width="613.6" height="375.5"/>
			</defs>
			<clipPath id="SVGID_74_">
				<use xlink:href="#SVGID_73_"  style="overflow:visible;"/>
			</clipPath>
			<path class="st41" d="M457.7,220.4h245.5V187H457.7V220.4z"/>
		</g>
	</g>
</g>
<g id="line2d_11">
	<g>
		<g>
			<defs>
				<rect id="SVGID_75_" x="120.2" y="27.3" width="613.6" height="375.5"/>
			</defs>
			<clipPath id="SVGID_76_">
				<use xlink:href="#SVGID_75_"  style="overflow:visible;"/>
			</clipPath>
			<path class="st42" d="M273.6,262.9v-71.5"/>
		</g>
	</g>
</g>
<g id="line2d_12">
	<g>
		<g>
			<defs>
				<rect id="SVGID_77_" x="120.2" y="27.3" width="613.6" height="375.5"/>
			</defs>
			<clipPath id="SVGID_78_">
				<use xlink:href="#SVGID_77_"  style="overflow:visible;"/>
			</clipPath>
			<path class="st43" d="M580.4,219.2v-65.4"/>
		</g>
	</g>
</g>
<g id="patch_28">
	<path class="st6" d="M120.2,402.8V27.3"/>
</g>
<g id="patch_29">
	<path class="st6" d="M120.2,402.8h613.6"/>
</g>
<g id="PathCollection_3">
	<g>
		<g>
			<defs>
				<rect id="SVGID_79_" x="120.2" y="27.3" width="613.6" height="375.5"/>
			</defs>
			<clipPath id="SVGID_80_">
				<use xlink:href="#SVGID_79_"  style="overflow:visible;"/>
			</clipPath>
			<g class="st44">
				<g>
					<path id="C2_0_63f88283db" class="st8" d="M273.6,390.7c1.3,0,2.6-0.5,3.5-1.5c0.9-0.9,1.5-2.2,1.5-3.5s-0.5-2.6-1.5-3.5
						s-2.2-1.5-3.5-1.5s-2.6,0.5-3.5,1.5s-1.5,2.2-1.5,3.5s0.5,2.6,1.5,3.5C271,390.2,272.3,390.7,273.6,390.7z"/>
				</g>
			</g>
		</g>
	</g>
	<g>
		<g>
			<defs>
				<rect id="SVGID_81_" x="120.2" y="27.3" width="613.6" height="375.5"/>
			</defs>
			<clipPath id="SVGID_82_">
				<use xlink:href="#SVGID_81_"  style="overflow:visible;"/>
			</clipPath>
			<g class="st45">
				<g>
					<path id="C2_0_63f88283db_1_" class="st8" d="M270.2,351.2c1.3,0,2.6-0.5,3.5-1.5c0.9-0.9,1.5-2.2,1.5-3.5s-0.5-2.6-1.5-3.5
						s-2.2-1.5-3.5-1.5s-2.6,0.5-3.5,1.5s-1.5,2.2-1.5,3.5s0.5,2.6,1.5,3.5C267.6,350.6,268.9,351.2,270.2,351.2z"/>
				</g>
			</g>
		</g>
	</g>
	<g>
		<g>
			<defs>
				<rect id="SVGID_83_" x="120.2" y="27.3" width="613.6" height="375.5"/>
			</defs>
			<clipPath id="SVGID_84_">
				<use xlink:href="#SVGID_83_"  style="overflow:visible;"/>
			</clipPath>
			<g class="st46">
				<g>
					<path id="C2_0_63f88283db_2_" class="st8" d="M273.6,310.1c1.3,0,2.6-0.5,3.5-1.5c0.9-0.9,1.5-2.2,1.5-3.5s-0.5-2.6-1.5-3.5
						s-2.2-1.5-3.5-1.5s-2.6,0.5-3.5,1.5s-1.5,2.2-1.5,3.5s0.5,2.6,1.5,3.5C271,309.5,272.3,310.1,273.6,310.1z"/>
				</g>
			</g>
		</g>
	</g>
	<g>
		<g>
			<defs>
				<rect id="SVGID_85_" x="120.2" y="27.3" width="613.6" height="375.5"/>
			</defs>
			<clipPath id="SVGID_86_">
				<use xlink:href="#SVGID_85_"  style="overflow:visible;"/>
			</clipPath>
			<g class="st47">
				<g>
					<path id="C2_0_63f88283db_3_" class="st8" d="M242.9,298.9c1.3,0,2.6-0.5,3.5-1.5c0.9-0.9,1.5-2.2,1.5-3.5s-0.5-2.6-1.5-3.5
						s-2.2-1.5-3.5-1.5s-2.6,0.5-3.5,1.5s-1.5,2.2-1.5,3.5s0.5,2.6,1.5,3.5C240.3,298.4,241.6,298.9,242.9,298.9z"/>
				</g>
			</g>
		</g>
	</g>
	<g>
		<g>
			<defs>
				<rect id="SVGID_87_" x="120.2" y="27.3" width="613.6" height="375.5"/>
			</defs>
			<clipPath id="SVGID_88_">
				<use xlink:href="#SVGID_87_"  style="overflow:visible;"/>
			</clipPath>
			<g class="st48">
				<g>
					<path id="C2_0_63f88283db_4_" class="st8" d="M273.6,270.1c1.3,0,2.6-0.5,3.5-1.5c0.9-0.9,1.5-2.2,1.5-3.5s-0.5-2.6-1.5-3.5
						s-2.2-1.5-3.5-1.5s-2.6,0.5-3.5,1.5s-1.5,2.2-1.5,3.5s0.5,2.6,1.5,3.5C271,269.6,272.3,270.1,273.6,270.1z"/>
				</g>
			</g>
		</g>
	</g>
	<g>
		<g>
			<defs>
				<rect id="SVGID_89_" x="120.2" y="27.3" width="613.6" height="375.5"/>
			</defs>
			<clipPath id="SVGID_90_">
				<use xlink:href="#SVGID_89_"  style="overflow:visible;"/>
			</clipPath>
			<g class="st49">
				<g>
					<path id="C2_0_63f88283db_5_" class="st8" d="M305.5,269.5c1.3,0,2.6-0.5,3.5-1.5c0.9-0.9,1.5-2.2,1.5-3.5s-0.5-2.6-1.5-3.5
						s-2.2-1.5-3.5-1.5s-2.6,0.5-3.5,1.5s-1.5,2.2-1.5,3.5s0.5,2.6,1.5,3.5C302.9,268.9,304.2,269.5,305.5,269.5z"/>
				</g>
			</g>
		</g>
	</g>
	<g>
		<g>
			<defs>
				<rect id="SVGID_91_" x="120.2" y="27.3" width="613.6" height="375.5"/>
			</defs>
			<clipPath id="SVGID_92_">
				<use xlink:href="#SVGID_91_"  style="overflow:visible;"/>
			</clipPath>
			<g class="st50">
				<g>
					<path id="C2_0_63f88283db_6_" class="st8" d="M227.1,264.3c1.3,0,2.6-0.5,3.5-1.5c0.9-0.9,1.5-2.2,1.5-3.5s-0.5-2.6-1.5-3.5
						s-2.2-1.5-3.5-1.5s-2.6,0.5-3.5,1.5s-1.5,2.2-1.5,3.5s0.5,2.6,1.5,3.5C224.5,263.8,225.8,264.3,227.1,264.3z"/>
				</g>
			</g>
		</g>
	</g>
	<g>
		<g>
			<defs>
				<rect id="SVGID_93_" x="120.2" y="27.3" width="613.6" height="375.5"/>
			</defs>
			<clipPath id="SVGID_94_">
				<use xlink:href="#SVGID_93_"  style="overflow:visible;"/>
			</clipPath>
			<g class="st51">
				<g>
					<path id="C2_0_63f88283db_7_" class="st8" d="M336.5,260.1c1.3,0,2.6-0.5,3.5-1.5c0.9-0.9,1.5-2.2,1.5-3.5s-0.5-2.6-1.5-3.5
						s-2.2-1.5-3.5-1.5s-2.6,0.5-3.5,1.5s-1.5,2.2-1.5,3.5s0.5,2.6,1.5,3.5C333.9,259.5,335.2,260.1,336.5,260.1z"/>
				</g>
			</g>
		</g>
	</g>
	<g>
		<g>
			<defs>
				<rect id="SVGID_95_" x="120.2" y="27.3" width="613.6" height="375.5"/>
			</defs>
			<clipPath id="SVGID_96_">
				<use xlink:href="#SVGID_95_"  style="overflow:visible;"/>
			</clipPath>
			<g class="st52">
				<g>
					<path id="C2_0_63f88283db_8_" class="st8" d="M266.7,231.2c1.3,0,2.6-0.5,3.5-1.5c0.9-0.9,1.5-2.2,1.5-3.5s-0.5-2.6-1.5-3.5
						s-2.2-1.5-3.5-1.5s-2.6,0.5-3.5,1.5s-1.5,2.2-1.5,3.5s0.5,2.6,1.5,3.5C264.1,230.7,265.4,231.2,266.7,231.2z"/>
				</g>
			</g>
		</g>
	</g>
	<g>
		<g>
			<defs>
				<rect id="SVGID_97_" x="120.2" y="27.3" width="613.6" height="375.5"/>
			</defs>
			<clipPath id="SVGID_98_">
				<use xlink:href="#SVGID_97_"  style="overflow:visible;"/>
			</clipPath>
			<g class="st53">
				<g>
					<path id="C2_0_63f88283db_9_" class="st8" d="M298,223.1c1.3,0,2.6-0.5,3.5-1.5c0.9-0.9,1.5-2.2,1.5-3.5s-0.5-2.6-1.5-3.5
						s-2.2-1.5-3.5-1.5s-2.6,0.5-3.5,1.5s-1.5,2.2-1.5,3.5s0.5,2.6,1.5,3.5C295.4,222.6,296.7,223.1,298,223.1z"/>
				</g>
			</g>
		</g>
	</g>
	<g>
		<g>
			<defs>
				<rect id="SVGID_99_" x="120.2" y="27.3" width="613.6" height="375.5"/>
			</defs>
			<clipPath id="SVGID_100_">
				<use xlink:href="#SVGID_99_"  style="overflow:visible;"/>
			</clipPath>
			<g class="st54">
				<g>
					<path id="C2_0_63f88283db_10_" class="st8" d="M238.9,211.8c1.3,0,2.6-0.5,3.5-1.5c0.9-0.9,1.5-2.2,1.5-3.5s-0.5-2.6-1.5-3.5
						s-2.2-1.5-3.5-1.5s-2.6,0.5-3.5,1.5s-1.5,2.2-1.5,3.5s0.5,2.6,1.5,3.5C236.3,211.3,237.5,211.8,238.9,211.8z"/>
				</g>
			</g>
		</g>
	</g>
	<g>
		<g>
			<defs>
				<rect id="SVGID_101_" x="120.2" y="27.3" width="613.6" height="375.5"/>
			</defs>
			<clipPath id="SVGID_102_">
				<use xlink:href="#SVGID_101_"  style="overflow:visible;"/>
			</clipPath>
			<g class="st55">
				<g>
					<path id="C2_0_63f88283db_11_" class="st8" d="M327.4,207.5c1.3,0,2.6-0.5,3.5-1.5c0.9-0.9,1.5-2.2,1.5-3.5s-0.5-2.6-1.5-3.5
						s-2.2-1.5-3.5-1.5s-2.6,0.5-3.5,1.5s-1.5,2.2-1.5,3.5s0.5,2.6,1.5,3.5C324.8,207,326,207.5,327.4,207.5z"/>
				</g>
			</g>
		</g>
	</g>
	<g>
		<g>
			<defs>
				<rect id="SVGID_103_" x="120.2" y="27.3" width="613.6" height="375.5"/>
			</defs>
			<clipPath id="SVGID_104_">
				<use xlink:href="#SVGID_103_"  style="overflow:visible;"/>
			</clipPath>
			<g class="st56">
				<g>
					<path id="C2_0_63f88283db_12_" class="st8" d="M207.3,205.5c1.3,0,2.6-0.5,3.5-1.5c0.9-0.9,1.5-2.2,1.5-3.5s-0.5-2.6-1.5-3.5
						s-2.2-1.5-3.5-1.5s-2.6,0.5-3.5,1.5s-1.5,2.2-1.5,3.5s0.5,2.6,1.5,3.5C204.7,204.9,206,205.5,207.3,205.5z"/>
				</g>
			</g>
		</g>
	</g>
	<g>
		<g>
			<defs>
				<rect id="SVGID_105_" x="120.2" y="27.3" width="613.6" height="375.5"/>
			</defs>
			<clipPath id="SVGID_106_">
				<use xlink:href="#SVGID_105_"  style="overflow:visible;"/>
			</clipPath>
			<g class="st57">
				<g>
					<path id="C2_0_63f88283db_13_" class="st8" d="M273.6,192.5c1.3,0,2.6-0.5,3.5-1.5c0.9-0.9,1.5-2.2,1.5-3.5s-0.5-2.6-1.5-3.5
						s-2.2-1.5-3.5-1.5s-2.6,0.5-3.5,1.5s-1.5,2.2-1.5,3.5s0.5,2.6,1.5,3.5C271,191.9,272.3,192.5,273.6,192.5z"/>
				</g>
			</g>
		</g>
	</g>
	<g>
		<g>
			<defs>
				<rect id="SVGID_107_" x="120.2" y="27.3" width="613.6" height="375.5"/>
			</defs>
			<clipPath id="SVGID_108_">
				<use xlink:href="#SVGID_107_"  style="overflow:visible;"/>
			</clipPath>
			<g class="st58">
				<g>
					<path id="C2_0_63f88283db_14_" class="st8" d="M356.2,190.4c1.3,0,2.6-0.5,3.5-1.5c0.9-0.9,1.5-2.2,1.5-3.5s-0.5-2.6-1.5-3.5
						s-2.2-1.5-3.5-1.5s-2.6,0.5-3.5,1.5s-1.5,2.2-1.5,3.5s0.5,2.6,1.5,3.5C353.6,189.9,354.9,190.4,356.2,190.4z"/>
				</g>
			</g>
		</g>
	</g>
	<g>
		<g>
			<defs>
				<rect id="SVGID_109_" x="120.2" y="27.3" width="613.6" height="375.5"/>
			</defs>
			<clipPath id="SVGID_110_">
				<use xlink:href="#SVGID_109_"  style="overflow:visible;"/>
			</clipPath>
			<g class="st59">
				<g>
					<path id="C2_0_63f88283db_15_" class="st8" d="M303.7,180.7c1.3,0,2.6-0.5,3.5-1.5c0.9-0.9,1.5-2.2,1.5-3.5s-0.5-2.6-1.5-3.5
						s-2.2-1.5-3.5-1.5s-2.6,0.5-3.5,1.5s-1.5,2.2-1.5,3.5s0.5,2.6,1.5,3.5C301.1,180.2,302.4,180.7,303.7,180.7z"/>
				</g>
			</g>
		</g>
	</g>
	<g>
		<g>
			<defs>
				<rect id="SVGID_111_" x="120.2" y="27.3" width="613.6" height="375.5"/>
			</defs>
			<clipPath id="SVGID_112_">
				<use xlink:href="#SVGID_111_"  style="overflow:visible;"/>
			</clipPath>
			<g class="st60">
				<g>
					<path id="C2_0_63f88283db_16_" class="st8" d="M273.6,107.5c1.3,0,2.6-0.5,3.5-1.5c0.9-0.9,1.5-2.2,1.5-3.5s-0.5-2.6-1.5-3.5
						s-2.2-1.5-3.5-1.5S271,98,270.1,99s-1.5,2.2-1.5,3.5s0.5,2.6,1.5,3.5C271,107,272.3,107.5,273.6,107.5z"/>
				</g>
			</g>
		</g>
	</g>
	<g>
		<g>
			<defs>
				<rect id="SVGID_113_" x="120.2" y="27.3" width="613.6" height="375.5"/>
			</defs>
			<clipPath id="SVGID_114_">
				<use xlink:href="#SVGID_113_"  style="overflow:visible;"/>
			</clipPath>
			<g class="st61">
				<g>
					<path id="C2_0_63f88283db_17_" class="st8" d="M273.6,49.4c1.3,0,2.6-0.5,3.5-1.5c0.9-0.9,1.5-2.2,1.5-3.5s-0.5-2.6-1.5-3.5
						s-2.2-1.5-3.5-1.5s-2.6,0.5-3.5,1.5s-1.5,2.2-1.5,3.5s0.5,2.6,1.5,3.5C271,48.9,272.3,49.4,273.6,49.4z"/>
				</g>
			</g>
		</g>
	</g>
</g>
<g>
	<g>
		<defs>
			<rect id="SVGID_115_" x="120.2" y="27.3" width="613.6" height="375.5"/>
		</defs>
		<clipPath id="SVGID_116_">
			<use xlink:href="#SVGID_115_"  style="overflow:visible;"/>
		</clipPath>
		<g class="st62">
			<g>
				<path id="C3_0_90f3264d64" class="st8" d="M580.4,296.7c1.3,0,2.6-0.5,3.5-1.5c0.9-0.9,1.5-2.2,1.5-3.5s-0.5-2.6-1.5-3.5
					s-2.2-1.5-3.5-1.5s-2.6,0.5-3.5,1.5s-1.5,2.2-1.5,3.5s0.5,2.6,1.5,3.5C577.8,296.2,579.1,296.7,580.4,296.7z"/>
			</g>
		</g>
	</g>
</g>
<g>
	<g>
		<defs>
			<rect id="SVGID_117_" x="120.2" y="27.3" width="613.6" height="375.5"/>
		</defs>
		<clipPath id="SVGID_118_">
			<use xlink:href="#SVGID_117_"  style="overflow:visible;"/>
		</clipPath>
		<g class="st63">
			<g>
				<path id="C3_0_90f3264d64_1_" class="st8" d="M557.4,269.1c1.3,0,2.6-0.5,3.5-1.5c0.9-0.9,1.5-2.2,1.5-3.5s-0.5-2.6-1.5-3.5
					s-2.2-1.5-3.5-1.5s-2.6,0.5-3.5,1.5s-1.5,2.2-1.5,3.5s0.5,2.6,1.5,3.5C554.8,268.6,556.1,269.1,557.4,269.1z"/>
			</g>
		</g>
	</g>
</g>
<g>
	<g>
		<defs>
			<rect id="SVGID_119_" x="120.2" y="27.3" width="613.6" height="375.5"/>
		</defs>
		<clipPath id="SVGID_120_">
			<use xlink:href="#SVGID_119_"  style="overflow:visible;"/>
		</clipPath>
		<g class="st64">
			<g>
				<path id="C3_0_90f3264d64_2_" class="st8" d="M582.7,244.7c1.3,0,2.6-0.5,3.5-1.5c0.9-0.9,1.5-2.2,1.5-3.5s-0.5-2.6-1.5-3.5
					s-2.2-1.5-3.5-1.5s-2.6,0.5-3.5,1.5s-1.5,2.2-1.5,3.5s0.5,2.6,1.5,3.5C580.1,244.2,581.4,244.7,582.7,244.7z"/>
			</g>
		</g>
	</g>
</g>
<g>
	<g>
		<defs>
			<rect id="SVGID_121_" x="120.2" y="27.3" width="613.6" height="375.5"/>
		</defs>
		<clipPath id="SVGID_122_">
			<use xlink:href="#SVGID_121_"  style="overflow:visible;"/>
		</clipPath>
		<g class="st65">
			<g>
				<path id="C3_0_90f3264d64_3_" class="st8" d="M614.2,238.3c1.3,0,2.6-0.5,3.5-1.5c0.9-0.9,1.5-2.2,1.5-3.5s-0.5-2.6-1.5-3.5
					s-2.2-1.5-3.5-1.5s-2.6,0.5-3.5,1.5s-1.5,2.2-1.5,3.5s0.5,2.6,1.5,3.5C611.6,237.8,612.9,238.3,614.2,238.3z"/>
			</g>
		</g>
	</g>
</g>
<g>
	<g>
		<defs>
			<rect id="SVGID_123_" x="120.2" y="27.3" width="613.6" height="375.5"/>
		</defs>
		<clipPath id="SVGID_124_">
			<use xlink:href="#SVGID_123_"  style="overflow:visible;"/>
		</clipPath>
		<g class="st66">
			<g>
				<path id="C3_0_90f3264d64_4_" class="st8" d="M548.4,230.9c1.3,0,2.6-0.5,3.5-1.5c0.9-0.9,1.5-2.2,1.5-3.5s-0.5-2.6-1.5-3.5
					s-2.2-1.5-3.5-1.5s-2.6,0.5-3.5,1.5s-1.5,2.2-1.5,3.5s0.5,2.6,1.5,3.5C545.8,230.4,547.1,230.9,548.4,230.9z"/>
			</g>
		</g>
	</g>
</g>
<g>
	<g>
		<defs>
			<rect id="SVGID_125_" x="120.2" y="27.3" width="613.6" height="375.5"/>
		</defs>
		<clipPath id="SVGID_126_">
			<use xlink:href="#SVGID_125_"  style="overflow:visible;"/>
		</clipPath>
		<g class="st67">
			<g>
				<path id="C3_0_90f3264d64_5_" class="st8" d="M640.3,215.4c1.3,0,2.6-0.5,3.5-1.5c0.9-0.9,1.5-2.2,1.5-3.5s-0.5-2.6-1.5-3.5
					s-2.2-1.5-3.5-1.5s-2.6,0.5-3.5,1.5s-1.5,2.2-1.5,3.5s0.5,2.6,1.5,3.5C637.7,214.9,639,215.4,640.3,215.4z"/>
			</g>
		</g>
	</g>
</g>
<g>
	<g>
		<defs>
			<rect id="SVGID_127_" x="120.2" y="27.3" width="613.6" height="375.5"/>
		</defs>
		<clipPath id="SVGID_128_">
			<use xlink:href="#SVGID_127_"  style="overflow:visible;"/>
		</clipPath>
		<g class="st68">
			<g>
				<path id="C3_0_90f3264d64_6_" class="st8" d="M521.2,210.2c1.3,0,2.6-0.5,3.5-1.5c0.9-0.9,1.5-2.2,1.5-3.5s-0.5-2.6-1.5-3.5
					s-2.2-1.5-3.5-1.5s-2.6,0.5-3.5,1.5s-1.5,2.2-1.5,3.5s0.5,2.6,1.5,3.5C518.6,209.7,519.8,210.2,521.2,210.2z"/>
			</g>
		</g>
	</g>
</g>
<g>
	<g>
		<defs>
			<rect id="SVGID_129_" x="120.2" y="27.3" width="613.6" height="375.5"/>
		</defs>
		<clipPath id="SVGID_130_">
			<use xlink:href="#SVGID_129_"  style="overflow:visible;"/>
		</clipPath>
		<g class="st69">
			<g>
				<path id="C3_0_90f3264d64_7_" class="st8" d="M580.4,203.3c1.3,0,2.6-0.5,3.5-1.5c0.9-0.9,1.5-2.2,1.5-3.5s-0.5-2.6-1.5-3.5
					s-2.2-1.5-3.5-1.5s-2.6,0.5-3.5,1.5s-1.5,2.2-1.5,3.5s0.5,2.6,1.5,3.5C577.8,202.8,579.1,203.3,580.4,203.3z"/>
			</g>
		</g>
	</g>
</g>
<g>
	<g>
		<defs>
			<rect id="SVGID_131_" x="120.2" y="27.3" width="613.6" height="375.5"/>
		</defs>
		<clipPath id="SVGID_132_">
			<use xlink:href="#SVGID_131_"  style="overflow:visible;"/>
		</clipPath>
		<g class="st70">
			<g>
				<path id="C3_0_90f3264d64_8_" class="st8" d="M670.5,202.5c1.3,0,2.6-0.5,3.5-1.5c0.9-0.9,1.5-2.2,1.5-3.5s-0.5-2.6-1.5-3.5
					s-2.2-1.5-3.5-1.5s-2.6,0.5-3.5,1.5s-1.5,2.2-1.5,3.5s0.5,2.6,1.5,3.5C667.9,202,669.2,202.5,670.5,202.5z"/>
			</g>
		</g>
	</g>
</g>
<g>
	<g>
		<defs>
			<rect id="SVGID_133_" x="120.2" y="27.3" width="613.6" height="375.5"/>
		</defs>
		<clipPath id="SVGID_134_">
			<use xlink:href="#SVGID_133_"  style="overflow:visible;"/>
		</clipPath>
		<g class="st71">
			<g>
				<path id="C3_0_90f3264d64_9_" class="st8" d="M580.4,153.6c1.3,0,2.6-0.5,3.5-1.5c0.9-0.9,1.5-2.2,1.5-3.5s-0.5-2.6-1.5-3.5
					s-2.2-1.5-3.5-1.5s-2.6,0.5-3.5,1.5s-1.5,2.2-1.5,3.5s0.5,2.6,1.5,3.5C577.8,153.1,579.1,153.6,580.4,153.6z"/>
			</g>
		</g>
	</g>
</g>
<g>
	<g>
		<defs>
			<rect id="SVGID_135_" x="120.2" y="27.3" width="613.6" height="375.5"/>
		</defs>
		<clipPath id="SVGID_136_">
			<use xlink:href="#SVGID_135_"  style="overflow:visible;"/>
		</clipPath>
		<g class="st72">
			<g>
				<path id="C3_0_90f3264d64_10_" class="st8" d="M551.1,137.8c1.3,0,2.6-0.5,3.5-1.5c0.9-0.9,1.5-2.2,1.5-3.5s-0.5-2.6-1.5-3.5
					s-2.2-1.5-3.5-1.5s-2.6,0.5-3.5,1.5s-1.5,2.2-1.5,3.5s0.5,2.6,1.5,3.5C548.5,137.3,549.8,137.8,551.1,137.8z"/>
			</g>
		</g>
	</g>
</g>
<g>
	<g>
		<defs>
			<rect id="SVGID_137_" x="120.2" y="27.3" width="613.6" height="375.5"/>
		</defs>
		<clipPath id="SVGID_138_">
			<use xlink:href="#SVGID_137_"  style="overflow:visible;"/>
		</clipPath>
		<g class="st73">
			<g>
				<path id="C3_0_90f3264d64_11_" class="st8" d="M590.4,115.9c1.3,0,2.6-0.5,3.5-1.5c0.9-0.9,1.5-2.2,1.5-3.5s-0.5-2.6-1.5-3.5
					s-2.2-1.5-3.5-1.5s-2.6,0.5-3.5,1.5s-1.5,2.2-1.5,3.5s0.5,2.6,1.5,3.5C587.8,115.3,589.1,115.9,590.4,115.9z"/>
			</g>
		</g>
	</g>
</g>
<g>
	<g>
		<defs>
			<rect id="SVGID_139_" x="120.2" y="27.3" width="613.6" height="375.5"/>
		</defs>
		<clipPath id="SVGID_140_">
			<use xlink:href="#SVGID_139_"  style="overflow:visible;"/>
		</clipPath>
		<g class="st74">
			<g>
				<path id="C3_0_90f3264d64_12_" class="st8" d="M568.8,86.6c1.3,0,2.6-0.5,3.5-1.5c0.9-0.9,1.5-2.2,1.5-3.5s-0.5-2.6-1.5-3.5
					s-2.2-1.5-3.5-1.5s-2.6,0.5-3.5,1.5s-1.5,2.2-1.5,3.5s0.5,2.6,1.5,3.5C566.2,86,567.5,86.6,568.8,86.6z"/>
			</g>
		</g>
	</g>
</g>
<rect x="120.2" y="27.3" class="st39" width="613.6" height="375.5"/>
<g>
	<g>
		<path id="C3_0_90f3264d64_13_" class="st8" d="M608.3,82.8c1.3,0,2.6-0.5,3.5-1.5c0.9-0.9,1.5-2.2,1.5-3.5s-0.5-2.6-1.5-3.5
			s-2.2-1.5-3.5-1.5s-2.6,0.5-3.5,1.5s-1.5,2.2-1.5,3.5s0.5,2.6,1.5,3.5C605.7,82.3,606.9,82.8,608.3,82.8z"/>
	</g>
</g>
<text transform="matrix(4.489659e-11 -1 1 4.489659e-11 43.8029 401.7237)" class="st75 st76">static - dynamic (RT)</text>
<text transform="matrix(4.489659e-11 -1 1 4.489659e-11 43.803 -129.2323)" class="st75 st76">low - high (RT)</text>
<line class="st77" x1="99.8" y1="-460.8" x2="733.8" y2="-460.8"/>
<line class="st77" x1="733.8" y1="426.2" x2="733.8" y2="-475.2"/>
<line class="st77" x1="110" y1="27.3" x2="744" y2="27.3"/>
</svg>
