<?xml version="1.0" encoding="utf-8" standalone="no"?>
<!DOCTYPE svg PUBLIC "-//W3C//DTD SVG 1.1//EN"
  "http://www.w3.org/Graphics/SVG/1.1/DTD/svg11.dtd">
<svg xmlns:xlink="http://www.w3.org/1999/xlink" width="1118.828906pt" height="825.451719pt" viewBox="0 0 1118.828906 825.451719" xmlns="http://www.w3.org/2000/svg" version="1.1">
 <metadata>
  <rdf:RDF xmlns:dc="http://purl.org/dc/elements/1.1/" xmlns:cc="http://creativecommons.org/ns#" xmlns:rdf="http://www.w3.org/1999/02/22-rdf-syntax-ns#">
   <cc:Work>
    <dc:type rdf:resource="http://purl.org/dc/dcmitype/StillImage"/>
    <dc:date>2022-04-13T20:00:17.228036</dc:date>
    <dc:format>image/svg+xml</dc:format>
    <dc:creator>
     <cc:Agent>
      <dc:title>Matplotlib v3.5.1, https://matplotlib.org/</dc:title>
     </cc:Agent>
    </dc:creator>
   </cc:Work>
  </rdf:RDF>
 </metadata>
 <defs>
  <style type="text/css">*{stroke-linejoin: round; stroke-linecap: butt}</style>
 </defs>
 <g id="figure_1">
  <g id="patch_1">
   <path d="M 0 825.451719 
L 1118.828906 825.451719 
L 1118.828906 0 
L 0 0 
z
" style="fill: #ffffff"/>
  </g>
  <g id="axes_1">
   <g id="patch_2">
    <path d="M 150.428906 726.84 
L 1111.628906 726.84 
L 1111.628906 7.2 
L 150.428906 7.2 
z
" style="fill: #ffffff"/>
   </g>
   <g id="matplotlib.axis_1">
    <g id="xtick_1">
     <g id="text_1">
      <!-- 20 -->
      <g style="fill: #262626" transform="translate(251.314082 764.57125)scale(0.4 -0.4)">
       <defs>
        <path id="ArialMT-32" d="M 3222 541 
L 3222 0 
L 194 0 
Q 188 203 259 391 
Q 375 700 629 1000 
Q 884 1300 1366 1694 
Q 2113 2306 2375 2664 
Q 2638 3022 2638 3341 
Q 2638 3675 2398 3904 
Q 2159 4134 1775 4134 
Q 1369 4134 1125 3890 
Q 881 3647 878 3216 
L 300 3275 
Q 359 3922 746 4261 
Q 1134 4600 1788 4600 
Q 2447 4600 2831 4234 
Q 3216 3869 3216 3328 
Q 3216 3053 3103 2787 
Q 2991 2522 2730 2228 
Q 2469 1934 1863 1422 
Q 1356 997 1212 845 
Q 1069 694 975 541 
L 3222 541 
z
" transform="scale(0.015625)"/>
        <path id="ArialMT-30" d="M 266 2259 
Q 266 3072 433 3567 
Q 600 4063 929 4331 
Q 1259 4600 1759 4600 
Q 2128 4600 2406 4451 
Q 2684 4303 2865 4023 
Q 3047 3744 3150 3342 
Q 3253 2941 3253 2259 
Q 3253 1453 3087 958 
Q 2922 463 2592 192 
Q 2263 -78 1759 -78 
Q 1097 -78 719 397 
Q 266 969 266 2259 
z
M 844 2259 
Q 844 1131 1108 757 
Q 1372 384 1759 384 
Q 2147 384 2411 759 
Q 2675 1134 2675 2259 
Q 2675 3391 2411 3762 
Q 2147 4134 1753 4134 
Q 1366 4134 1134 3806 
Q 844 3388 844 2259 
z
" transform="scale(0.015625)"/>
       </defs>
       <use xlink:href="#ArialMT-32"/>
       <use xlink:href="#ArialMT-30" x="55.615234"/>
      </g>
     </g>
    </g>
    <g id="xtick_2">
     <g id="text_2">
      <!-- 22 -->
      <g style="fill: #262626" transform="translate(410.190115 764.57125)scale(0.4 -0.4)">
       <use xlink:href="#ArialMT-32"/>
       <use xlink:href="#ArialMT-32" x="55.615234"/>
      </g>
     </g>
    </g>
    <g id="xtick_3">
     <g id="text_3">
      <!-- 24 -->
      <g style="fill: #262626" transform="translate(569.066148 764.57125)scale(0.4 -0.4)">
       <defs>
        <path id="ArialMT-34" d="M 2069 0 
L 2069 1097 
L 81 1097 
L 81 1613 
L 2172 4581 
L 2631 4581 
L 2631 1613 
L 3250 1613 
L 3250 1097 
L 2631 1097 
L 2631 0 
L 2069 0 
z
M 2069 1613 
L 2069 3678 
L 634 1613 
L 2069 1613 
z
" transform="scale(0.015625)"/>
       </defs>
       <use xlink:href="#ArialMT-32"/>
       <use xlink:href="#ArialMT-34" x="55.615234"/>
      </g>
     </g>
    </g>
    <g id="xtick_4">
     <g id="text_4">
      <!-- 26 -->
      <g style="fill: #262626" transform="translate(727.942181 764.57125)scale(0.4 -0.4)">
       <defs>
        <path id="ArialMT-36" d="M 3184 3459 
L 2625 3416 
Q 2550 3747 2413 3897 
Q 2184 4138 1850 4138 
Q 1581 4138 1378 3988 
Q 1113 3794 959 3422 
Q 806 3050 800 2363 
Q 1003 2672 1297 2822 
Q 1591 2972 1913 2972 
Q 2475 2972 2870 2558 
Q 3266 2144 3266 1488 
Q 3266 1056 3080 686 
Q 2894 316 2569 119 
Q 2244 -78 1831 -78 
Q 1128 -78 684 439 
Q 241 956 241 2144 
Q 241 3472 731 4075 
Q 1159 4600 1884 4600 
Q 2425 4600 2770 4297 
Q 3116 3994 3184 3459 
z
M 888 1484 
Q 888 1194 1011 928 
Q 1134 663 1356 523 
Q 1578 384 1822 384 
Q 2178 384 2434 671 
Q 2691 959 2691 1453 
Q 2691 1928 2437 2201 
Q 2184 2475 1800 2475 
Q 1419 2475 1153 2201 
Q 888 1928 888 1484 
z
" transform="scale(0.015625)"/>
       </defs>
       <use xlink:href="#ArialMT-32"/>
       <use xlink:href="#ArialMT-36" x="55.615234"/>
      </g>
     </g>
    </g>
    <g id="xtick_5">
     <g id="text_5">
      <!-- 28 -->
      <g style="fill: #262626" transform="translate(886.818214 764.57125)scale(0.4 -0.4)">
       <defs>
        <path id="ArialMT-38" d="M 1131 2484 
Q 781 2613 612 2850 
Q 444 3088 444 3419 
Q 444 3919 803 4259 
Q 1163 4600 1759 4600 
Q 2359 4600 2725 4251 
Q 3091 3903 3091 3403 
Q 3091 3084 2923 2848 
Q 2756 2613 2416 2484 
Q 2838 2347 3058 2040 
Q 3278 1734 3278 1309 
Q 3278 722 2862 322 
Q 2447 -78 1769 -78 
Q 1091 -78 675 323 
Q 259 725 259 1325 
Q 259 1772 486 2073 
Q 713 2375 1131 2484 
z
M 1019 3438 
Q 1019 3113 1228 2906 
Q 1438 2700 1772 2700 
Q 2097 2700 2305 2904 
Q 2513 3109 2513 3406 
Q 2513 3716 2298 3927 
Q 2084 4138 1766 4138 
Q 1444 4138 1231 3931 
Q 1019 3725 1019 3438 
z
M 838 1322 
Q 838 1081 952 856 
Q 1066 631 1291 507 
Q 1516 384 1775 384 
Q 2178 384 2440 643 
Q 2703 903 2703 1303 
Q 2703 1709 2433 1975 
Q 2163 2241 1756 2241 
Q 1359 2241 1098 1978 
Q 838 1716 838 1322 
z
" transform="scale(0.015625)"/>
       </defs>
       <use xlink:href="#ArialMT-32"/>
       <use xlink:href="#ArialMT-38" x="55.615234"/>
      </g>
     </g>
    </g>
    <g id="xtick_6">
     <g id="text_6">
      <!-- 30 -->
      <g style="fill: #262626" transform="translate(1045.694247 764.57125)scale(0.4 -0.4)">
       <defs>
        <path id="ArialMT-33" d="M 269 1209 
L 831 1284 
Q 928 806 1161 595 
Q 1394 384 1728 384 
Q 2125 384 2398 659 
Q 2672 934 2672 1341 
Q 2672 1728 2419 1979 
Q 2166 2231 1775 2231 
Q 1616 2231 1378 2169 
L 1441 2663 
Q 1497 2656 1531 2656 
Q 1891 2656 2178 2843 
Q 2466 3031 2466 3422 
Q 2466 3731 2256 3934 
Q 2047 4138 1716 4138 
Q 1388 4138 1169 3931 
Q 950 3725 888 3313 
L 325 3413 
Q 428 3978 793 4289 
Q 1159 4600 1703 4600 
Q 2078 4600 2393 4439 
Q 2709 4278 2876 4000 
Q 3044 3722 3044 3409 
Q 3044 3113 2884 2869 
Q 2725 2625 2413 2481 
Q 2819 2388 3044 2092 
Q 3269 1797 3269 1353 
Q 3269 753 2831 336 
Q 2394 -81 1725 -81 
Q 1122 -81 723 278 
Q 325 638 269 1209 
z
" transform="scale(0.015625)"/>
       </defs>
       <use xlink:href="#ArialMT-33"/>
       <use xlink:href="#ArialMT-30" x="55.615234"/>
      </g>
     </g>
    </g>
    <g id="text_7">
     <!-- MOCA_total_score -->
     <g style="fill: #262626" transform="translate(440.963672 809.307969)scale(0.45 -0.45)">
      <defs>
       <path id="ArialMT-4d" d="M 475 0 
L 475 4581 
L 1388 4581 
L 2472 1338 
Q 2622 884 2691 659 
Q 2769 909 2934 1394 
L 4031 4581 
L 4847 4581 
L 4847 0 
L 4263 0 
L 4263 3834 
L 2931 0 
L 2384 0 
L 1059 3900 
L 1059 0 
L 475 0 
z
" transform="scale(0.015625)"/>
       <path id="ArialMT-4f" d="M 309 2231 
Q 309 3372 921 4017 
Q 1534 4663 2503 4663 
Q 3138 4663 3647 4359 
Q 4156 4056 4423 3514 
Q 4691 2972 4691 2284 
Q 4691 1588 4409 1038 
Q 4128 488 3612 205 
Q 3097 -78 2500 -78 
Q 1853 -78 1343 234 
Q 834 547 571 1087 
Q 309 1628 309 2231 
z
M 934 2222 
Q 934 1394 1379 917 
Q 1825 441 2497 441 
Q 3181 441 3623 922 
Q 4066 1403 4066 2288 
Q 4066 2847 3877 3264 
Q 3688 3681 3323 3911 
Q 2959 4141 2506 4141 
Q 1863 4141 1398 3698 
Q 934 3256 934 2222 
z
" transform="scale(0.015625)"/>
       <path id="ArialMT-43" d="M 3763 1606 
L 4369 1453 
Q 4178 706 3683 314 
Q 3188 -78 2472 -78 
Q 1731 -78 1267 223 
Q 803 525 561 1097 
Q 319 1669 319 2325 
Q 319 3041 592 3573 
Q 866 4106 1370 4382 
Q 1875 4659 2481 4659 
Q 3169 4659 3637 4309 
Q 4106 3959 4291 3325 
L 3694 3184 
Q 3534 3684 3231 3912 
Q 2928 4141 2469 4141 
Q 1941 4141 1586 3887 
Q 1231 3634 1087 3207 
Q 944 2781 944 2328 
Q 944 1744 1114 1308 
Q 1284 872 1643 656 
Q 2003 441 2422 441 
Q 2931 441 3284 734 
Q 3638 1028 3763 1606 
z
" transform="scale(0.015625)"/>
       <path id="ArialMT-41" d="M -9 0 
L 1750 4581 
L 2403 4581 
L 4278 0 
L 3588 0 
L 3053 1388 
L 1138 1388 
L 634 0 
L -9 0 
z
M 1313 1881 
L 2866 1881 
L 2388 3150 
Q 2169 3728 2063 4100 
Q 1975 3659 1816 3225 
L 1313 1881 
z
" transform="scale(0.015625)"/>
       <path id="ArialMT-5f" d="M -97 -1272 
L -97 -866 
L 3631 -866 
L 3631 -1272 
L -97 -1272 
z
" transform="scale(0.015625)"/>
       <path id="ArialMT-74" d="M 1650 503 
L 1731 6 
Q 1494 -44 1306 -44 
Q 1000 -44 831 53 
Q 663 150 594 308 
Q 525 466 525 972 
L 525 2881 
L 113 2881 
L 113 3319 
L 525 3319 
L 525 4141 
L 1084 4478 
L 1084 3319 
L 1650 3319 
L 1650 2881 
L 1084 2881 
L 1084 941 
Q 1084 700 1114 631 
Q 1144 563 1211 522 
Q 1278 481 1403 481 
Q 1497 481 1650 503 
z
" transform="scale(0.015625)"/>
       <path id="ArialMT-6f" d="M 213 1659 
Q 213 2581 725 3025 
Q 1153 3394 1769 3394 
Q 2453 3394 2887 2945 
Q 3322 2497 3322 1706 
Q 3322 1066 3130 698 
Q 2938 331 2570 128 
Q 2203 -75 1769 -75 
Q 1072 -75 642 372 
Q 213 819 213 1659 
z
M 791 1659 
Q 791 1022 1069 705 
Q 1347 388 1769 388 
Q 2188 388 2466 706 
Q 2744 1025 2744 1678 
Q 2744 2294 2464 2611 
Q 2184 2928 1769 2928 
Q 1347 2928 1069 2612 
Q 791 2297 791 1659 
z
" transform="scale(0.015625)"/>
       <path id="ArialMT-61" d="M 2588 409 
Q 2275 144 1986 34 
Q 1697 -75 1366 -75 
Q 819 -75 525 192 
Q 231 459 231 875 
Q 231 1119 342 1320 
Q 453 1522 633 1644 
Q 813 1766 1038 1828 
Q 1203 1872 1538 1913 
Q 2219 1994 2541 2106 
Q 2544 2222 2544 2253 
Q 2544 2597 2384 2738 
Q 2169 2928 1744 2928 
Q 1347 2928 1158 2789 
Q 969 2650 878 2297 
L 328 2372 
Q 403 2725 575 2942 
Q 747 3159 1072 3276 
Q 1397 3394 1825 3394 
Q 2250 3394 2515 3294 
Q 2781 3194 2906 3042 
Q 3031 2891 3081 2659 
Q 3109 2516 3109 2141 
L 3109 1391 
Q 3109 606 3145 398 
Q 3181 191 3288 0 
L 2700 0 
Q 2613 175 2588 409 
z
M 2541 1666 
Q 2234 1541 1622 1453 
Q 1275 1403 1131 1340 
Q 988 1278 909 1158 
Q 831 1038 831 891 
Q 831 666 1001 516 
Q 1172 366 1500 366 
Q 1825 366 2078 508 
Q 2331 650 2450 897 
Q 2541 1088 2541 1459 
L 2541 1666 
z
" transform="scale(0.015625)"/>
       <path id="ArialMT-6c" d="M 409 0 
L 409 4581 
L 972 4581 
L 972 0 
L 409 0 
z
" transform="scale(0.015625)"/>
       <path id="ArialMT-73" d="M 197 991 
L 753 1078 
Q 800 744 1014 566 
Q 1228 388 1613 388 
Q 2000 388 2187 545 
Q 2375 703 2375 916 
Q 2375 1106 2209 1216 
Q 2094 1291 1634 1406 
Q 1016 1563 777 1677 
Q 538 1791 414 1992 
Q 291 2194 291 2438 
Q 291 2659 392 2848 
Q 494 3038 669 3163 
Q 800 3259 1026 3326 
Q 1253 3394 1513 3394 
Q 1903 3394 2198 3281 
Q 2494 3169 2634 2976 
Q 2775 2784 2828 2463 
L 2278 2388 
Q 2241 2644 2061 2787 
Q 1881 2931 1553 2931 
Q 1166 2931 1000 2803 
Q 834 2675 834 2503 
Q 834 2394 903 2306 
Q 972 2216 1119 2156 
Q 1203 2125 1616 2013 
Q 2213 1853 2448 1751 
Q 2684 1650 2818 1456 
Q 2953 1263 2953 975 
Q 2953 694 2789 445 
Q 2625 197 2315 61 
Q 2006 -75 1616 -75 
Q 969 -75 630 194 
Q 291 463 197 991 
z
" transform="scale(0.015625)"/>
       <path id="ArialMT-63" d="M 2588 1216 
L 3141 1144 
Q 3050 572 2676 248 
Q 2303 -75 1759 -75 
Q 1078 -75 664 370 
Q 250 816 250 1647 
Q 250 2184 428 2587 
Q 606 2991 970 3192 
Q 1334 3394 1763 3394 
Q 2303 3394 2647 3120 
Q 2991 2847 3088 2344 
L 2541 2259 
Q 2463 2594 2264 2762 
Q 2066 2931 1784 2931 
Q 1359 2931 1093 2626 
Q 828 2322 828 1663 
Q 828 994 1084 691 
Q 1341 388 1753 388 
Q 2084 388 2306 591 
Q 2528 794 2588 1216 
z
" transform="scale(0.015625)"/>
       <path id="ArialMT-72" d="M 416 0 
L 416 3319 
L 922 3319 
L 922 2816 
Q 1116 3169 1280 3281 
Q 1444 3394 1641 3394 
Q 1925 3394 2219 3213 
L 2025 2691 
Q 1819 2813 1613 2813 
Q 1428 2813 1281 2702 
Q 1134 2591 1072 2394 
Q 978 2094 978 1738 
L 978 0 
L 416 0 
z
" transform="scale(0.015625)"/>
       <path id="ArialMT-65" d="M 2694 1069 
L 3275 997 
Q 3138 488 2766 206 
Q 2394 -75 1816 -75 
Q 1088 -75 661 373 
Q 234 822 234 1631 
Q 234 2469 665 2931 
Q 1097 3394 1784 3394 
Q 2450 3394 2872 2941 
Q 3294 2488 3294 1666 
Q 3294 1616 3291 1516 
L 816 1516 
Q 847 969 1125 678 
Q 1403 388 1819 388 
Q 2128 388 2347 550 
Q 2566 713 2694 1069 
z
M 847 1978 
L 2700 1978 
Q 2663 2397 2488 2606 
Q 2219 2931 1791 2931 
Q 1403 2931 1139 2672 
Q 875 2413 847 1978 
z
" transform="scale(0.015625)"/>
      </defs>
      <use xlink:href="#ArialMT-4d"/>
      <use xlink:href="#ArialMT-4f" x="83.300781"/>
      <use xlink:href="#ArialMT-43" x="161.083984"/>
      <use xlink:href="#ArialMT-41" x="233.300781"/>
      <use xlink:href="#ArialMT-5f" x="300"/>
      <use xlink:href="#ArialMT-74" x="355.615234"/>
      <use xlink:href="#ArialMT-6f" x="383.398438"/>
      <use xlink:href="#ArialMT-74" x="439.013672"/>
      <use xlink:href="#ArialMT-61" x="466.796875"/>
      <use xlink:href="#ArialMT-6c" x="522.412109"/>
      <use xlink:href="#ArialMT-5f" x="544.628906"/>
      <use xlink:href="#ArialMT-73" x="600.244141"/>
      <use xlink:href="#ArialMT-63" x="650.244141"/>
      <use xlink:href="#ArialMT-6f" x="700.244141"/>
      <use xlink:href="#ArialMT-72" x="755.859375"/>
      <use xlink:href="#ArialMT-65" x="789.160156"/>
     </g>
    </g>
   </g>
   <g id="matplotlib.axis_2">
    <g id="ytick_1">
     <g id="text_8">
      <!-- 700 -->
      <g style="fill: #262626" transform="translate(74.597656 637.198074)scale(0.4 -0.4)">
       <defs>
        <path id="ArialMT-37" d="M 303 3981 
L 303 4522 
L 3269 4522 
L 3269 4084 
Q 2831 3619 2401 2847 
Q 1972 2075 1738 1259 
Q 1569 684 1522 0 
L 944 0 
Q 953 541 1156 1306 
Q 1359 2072 1739 2783 
Q 2119 3494 2547 3981 
L 303 3981 
z
" transform="scale(0.015625)"/>
       </defs>
       <use xlink:href="#ArialMT-37"/>
       <use xlink:href="#ArialMT-30" x="55.615234"/>
       <use xlink:href="#ArialMT-30" x="111.230469"/>
      </g>
     </g>
    </g>
    <g id="ytick_2">
     <g id="text_9">
      <!-- 800 -->
      <g style="fill: #262626" transform="translate(74.597656 532.096831)scale(0.4 -0.4)">
       <use xlink:href="#ArialMT-38"/>
       <use xlink:href="#ArialMT-30" x="55.615234"/>
       <use xlink:href="#ArialMT-30" x="111.230469"/>
      </g>
     </g>
    </g>
    <g id="ytick_3">
     <g id="text_10">
      <!-- 900 -->
      <g style="fill: #262626" transform="translate(74.597656 426.995587)scale(0.4 -0.4)">
       <defs>
        <path id="ArialMT-39" d="M 350 1059 
L 891 1109 
Q 959 728 1153 556 
Q 1347 384 1650 384 
Q 1909 384 2104 503 
Q 2300 622 2425 820 
Q 2550 1019 2634 1356 
Q 2719 1694 2719 2044 
Q 2719 2081 2716 2156 
Q 2547 1888 2255 1720 
Q 1963 1553 1622 1553 
Q 1053 1553 659 1965 
Q 266 2378 266 3053 
Q 266 3750 677 4175 
Q 1088 4600 1706 4600 
Q 2153 4600 2523 4359 
Q 2894 4119 3086 3673 
Q 3278 3228 3278 2384 
Q 3278 1506 3087 986 
Q 2897 466 2520 194 
Q 2144 -78 1638 -78 
Q 1100 -78 759 220 
Q 419 519 350 1059 
z
M 2653 3081 
Q 2653 3566 2395 3850 
Q 2138 4134 1775 4134 
Q 1400 4134 1122 3828 
Q 844 3522 844 3034 
Q 844 2597 1108 2323 
Q 1372 2050 1759 2050 
Q 2150 2050 2401 2323 
Q 2653 2597 2653 3081 
z
" transform="scale(0.015625)"/>
       </defs>
       <use xlink:href="#ArialMT-39"/>
       <use xlink:href="#ArialMT-30" x="55.615234"/>
       <use xlink:href="#ArialMT-30" x="111.230469"/>
      </g>
     </g>
    </g>
    <g id="ytick_4">
     <g id="text_11">
      <!-- 1000 -->
      <g style="fill: #262626" transform="translate(52.353906 321.894343)scale(0.4 -0.4)">
       <defs>
        <path id="ArialMT-31" d="M 2384 0 
L 1822 0 
L 1822 3584 
Q 1619 3391 1289 3197 
Q 959 3003 697 2906 
L 697 3450 
Q 1169 3672 1522 3987 
Q 1875 4303 2022 4600 
L 2384 4600 
L 2384 0 
z
" transform="scale(0.015625)"/>
       </defs>
       <use xlink:href="#ArialMT-31"/>
       <use xlink:href="#ArialMT-30" x="55.615234"/>
       <use xlink:href="#ArialMT-30" x="111.230469"/>
       <use xlink:href="#ArialMT-30" x="166.845703"/>
      </g>
     </g>
    </g>
    <g id="ytick_5">
     <g id="text_12">
      <!-- 1100 -->
      <g style="fill: #262626" transform="translate(55.303906 216.7931)scale(0.4 -0.4)">
       <use xlink:href="#ArialMT-31"/>
       <use xlink:href="#ArialMT-31" x="48.240234"/>
       <use xlink:href="#ArialMT-30" x="103.855469"/>
       <use xlink:href="#ArialMT-30" x="159.470703"/>
      </g>
     </g>
    </g>
    <g id="ytick_6">
     <g id="text_13">
      <!-- 1200 -->
      <g style="fill: #262626" transform="translate(52.353906 111.691856)scale(0.4 -0.4)">
       <use xlink:href="#ArialMT-31"/>
       <use xlink:href="#ArialMT-32" x="55.615234"/>
       <use xlink:href="#ArialMT-30" x="111.230469"/>
       <use xlink:href="#ArialMT-30" x="166.845703"/>
      </g>
     </g>
    </g>
    <g id="text_14">
     <!-- rt -->
     <g style="fill: #262626" transform="translate(39.410156 380.762578)rotate(-90)scale(0.45 -0.45)">
      <use xlink:href="#ArialMT-72"/>
      <use xlink:href="#ArialMT-74" x="33.300781"/>
     </g>
    </g>
   </g>
   <g id="PathCollection_1">
    <defs>
     <path id="m0226a57eb0" d="M 0 10 
C 2.652031 10 5.195799 8.946337 7.071068 7.071068 
C 8.946337 5.195799 10 2.652031 10 0 
C 10 -2.652031 8.946337 -5.195799 7.071068 -7.071068 
C 5.195799 -8.946337 2.652031 -10 0 -10 
C -2.652031 -10 -5.195799 -8.946337 -7.071068 -7.071068 
C -8.946337 -5.195799 -10 -2.652031 -10 0 
C -10 2.652031 -8.946337 5.195799 -7.071068 7.071068 
C -5.195799 8.946337 -2.652031 10 0 10 
z
"/>
    </defs>
    <g clip-path="url(#p37fd195109)">
     <use xlink:href="#m0226a57eb0" x="909.061964" y="665.578078" style="fill: #841e5a; fill-opacity: 0.8"/>
     <use xlink:href="#m0226a57eb0" x="750.185931" y="333.817441" style="fill: #841e5a; fill-opacity: 0.8"/>
     <use xlink:href="#m0226a57eb0" x="750.185931" y="440.503539" style="fill: #841e5a; fill-opacity: 0.8"/>
     <use xlink:href="#m0226a57eb0" x="432.433865" y="503.417532" style="fill: #841e5a; fill-opacity: 0.8"/>
     <use xlink:href="#m0226a57eb0" x="194.119815" y="572.821861" style="fill: #841e5a; fill-opacity: 0.8"/>
     <use xlink:href="#m0226a57eb0" x="829.623948" y="467.841389" style="fill: #841e5a; fill-opacity: 0.8"/>
     <use xlink:href="#m0226a57eb0" x="670.747915" y="584.381953" style="fill: #841e5a; fill-opacity: 0.8"/>
     <use xlink:href="#m0226a57eb0" x="670.747915" y="688.726685" style="fill: #841e5a; fill-opacity: 0.8"/>
     <use xlink:href="#m0226a57eb0" x="591.309898" y="545.072102" style="fill: #841e5a; fill-opacity: 0.8"/>
     <use xlink:href="#m0226a57eb0" x="909.061964" y="641.37255" style="fill: #841e5a; fill-opacity: 0.8"/>
     <use xlink:href="#m0226a57eb0" x="909.061964" y="532.273791" style="fill: #841e5a; fill-opacity: 0.8"/>
     <use xlink:href="#m0226a57eb0" x="988.499981" y="465.068056" style="fill: #841e5a; fill-opacity: 0.8"/>
     <use xlink:href="#m0226a57eb0" x="909.061964" y="603.624931" style="fill: #841e5a; fill-opacity: 0.8"/>
     <use xlink:href="#m0226a57eb0" x="1067.937997" y="376.956963" style="fill: #841e5a; fill-opacity: 0.8"/>
     <use xlink:href="#m0226a57eb0" x="988.499981" y="565.890858" style="fill: #841e5a; fill-opacity: 0.8"/>
     <use xlink:href="#m0226a57eb0" x="909.061964" y="532.496593" style="fill: #841e5a; fill-opacity: 0.8"/>
     <use xlink:href="#m0226a57eb0" x="710.466923" y="605.78372" style="fill: #841e5a; fill-opacity: 0.8"/>
     <use xlink:href="#m0226a57eb0" x="988.499981" y="506.048917" style="fill: #841e5a; fill-opacity: 0.8"/>
    </g>
   </g>
   <g id="PolyCollection_1">
    <defs>
     <path id="mae4e2b9b27" d="M 194.119815 -364.892313 
L 194.119815 -131.322628 
L 202.946262 -133.20227 
L 211.772708 -135.081912 
L 220.599154 -136.961554 
L 229.4256 -138.841196 
L 238.252047 -140.720838 
L 247.078493 -142.60048 
L 255.904939 -144.480122 
L 264.731386 -146.454195 
L 273.557832 -148.739507 
L 282.384278 -151.02482 
L 291.210724 -153.310132 
L 300.037171 -155.595444 
L 308.863617 -157.880756 
L 317.690063 -160.166068 
L 326.51651 -162.45138 
L 335.342956 -164.736693 
L 344.169402 -167.022005 
L 352.995848 -169.322248 
L 361.822295 -171.627288 
L 370.648741 -173.920738 
L 379.475187 -175.734106 
L 388.301634 -177.547474 
L 397.12808 -179.360842 
L 405.954526 -181.581926 
L 414.780972 -182.951121 
L 423.607419 -184.722109 
L 432.433865 -186.493295 
L 441.260311 -188.299493 
L 450.086757 -190.105691 
L 458.913204 -191.911889 
L 467.73965 -193.980513 
L 476.566096 -195.618582 
L 485.392543 -197.288034 
L 494.218989 -199.075803 
L 503.045435 -200.863572 
L 511.871881 -202.651341 
L 520.698328 -204.439111 
L 529.524774 -206.236361 
L 538.35122 -208.872026 
L 547.177667 -211.859747 
L 556.004113 -213.64797 
L 564.830559 -215.028759 
L 573.657005 -216.409549 
L 582.483452 -217.797036 
L 591.309898 -219.665679 
L 600.136344 -220.580326 
L 608.962791 -222.930794 
L 617.789237 -225.361875 
L 626.615683 -226.85656 
L 635.442129 -227.737696 
L 644.268576 -229.618608 
L 653.095022 -231.307887 
L 661.921468 -232.156029 
L 670.747915 -233.338881 
L 679.574361 -234.241722 
L 688.400807 -236.043338 
L 697.227253 -237.92974 
L 706.0537 -239.919938 
L 714.880146 -241.660375 
L 723.706592 -243.15214 
L 732.533038 -243.865913 
L 741.359485 -244.236862 
L 750.185931 -244.60145 
L 759.012377 -245.87079 
L 767.838824 -245.773016 
L 776.66527 -246.338646 
L 785.491716 -246.788178 
L 794.318162 -247.353795 
L 803.144609 -247.462341 
L 811.971055 -247.935987 
L 820.797501 -248.064434 
L 829.623948 -248.172641 
L 838.450394 -248.279866 
L 847.27684 -248.723579 
L 856.103286 -248.909231 
L 864.929733 -248.603607 
L 873.756179 -248.699232 
L 882.582625 -248.800421 
L 891.409072 -248.905563 
L 900.235518 -249.010704 
L 909.061964 -249.115845 
L 917.88841 -249.220986 
L 926.714857 -249.326127 
L 935.541303 -247.910153 
L 944.367749 -247.891825 
L 953.194196 -247.88642 
L 962.020642 -247.537744 
L 970.847088 -247.59721 
L 979.673534 -247.109293 
L 988.499981 -246.59554 
L 997.326427 -246.337447 
L 1006.152873 -245.724214 
L 1014.979319 -245.081088 
L 1023.805766 -244.195833 
L 1032.632212 -243.424105 
L 1041.458658 -242.652377 
L 1050.285105 -241.888928 
L 1059.111551 -241.127357 
L 1067.937997 -240.365786 
L 1067.937997 -372.954636 
L 1067.937997 -372.954636 
L 1059.111551 -371.696629 
L 1050.285105 -370.507629 
L 1041.458658 -368.731789 
L 1032.632212 -367.134605 
L 1023.805766 -365.618758 
L 1014.979319 -363.400776 
L 1006.152873 -361.995381 
L 997.326427 -359.687507 
L 988.499981 -358.709668 
L 979.673534 -357.226003 
L 970.847088 -355.465565 
L 962.020642 -353.697938 
L 953.194196 -352.460227 
L 944.367749 -350.948064 
L 935.541303 -349.192698 
L 926.714857 -347.498478 
L 917.88841 -345.765737 
L 909.061964 -344.360204 
L 900.235518 -343.178343 
L 891.409072 -341.871348 
L 882.582625 -340.735729 
L 873.756179 -339.696484 
L 864.929733 -339.301302 
L 856.103286 -338.161506 
L 847.27684 -337.390327 
L 838.450394 -336.345662 
L 829.623948 -335.384604 
L 820.797501 -334.548444 
L 811.971055 -333.735312 
L 803.144609 -332.99094 
L 794.318162 -332.256616 
L 785.491716 -331.497424 
L 776.66527 -330.753712 
L 767.838824 -330.023589 
L 759.012377 -329.531742 
L 750.185931 -328.521592 
L 741.359485 -329.058979 
L 732.533038 -329.451247 
L 723.706592 -330.078529 
L 714.880146 -328.471012 
L 706.0537 -328.065536 
L 697.227253 -327.296331 
L 688.400807 -327.29805 
L 679.574361 -327.483123 
L 670.747915 -327.109584 
L 661.921468 -327.160158 
L 653.095022 -327.965949 
L 644.268576 -327.990822 
L 635.442129 -327.996489 
L 626.615683 -328.696119 
L 617.789237 -328.087384 
L 608.962791 -327.953675 
L 600.136344 -328.594806 
L 591.309898 -329.42471 
L 582.483452 -329.749754 
L 573.657005 -330.06229 
L 564.830559 -330.596131 
L 556.004113 -331.117601 
L 547.177667 -332.288311 
L 538.35122 -332.242313 
L 529.524774 -332.744622 
L 520.698328 -333.293332 
L 511.871881 -333.842042 
L 503.045435 -334.373697 
L 494.218989 -334.888471 
L 485.392543 -335.403245 
L 476.566096 -335.934006 
L 467.73965 -336.473005 
L 458.913204 -336.473934 
L 450.086757 -336.331812 
L 441.260311 -337.732191 
L 432.433865 -338.625241 
L 423.607419 -339.530908 
L 414.780972 -340.702825 
L 405.954526 -341.89121 
L 397.12808 -343.079595 
L 388.301634 -344.26798 
L 379.475187 -345.44879 
L 370.648741 -346.599947 
L 361.822295 -347.742052 
L 352.995848 -348.459559 
L 344.169402 -349.68702 
L 335.342956 -350.914482 
L 326.51651 -352.135731 
L 317.690063 -352.88279 
L 308.863617 -353.57816 
L 300.037171 -354.273531 
L 291.210724 -354.968901 
L 282.384278 -355.664271 
L 273.557832 -356.697418 
L 264.731386 -357.79244 
L 255.904939 -358.873476 
L 247.078493 -359.951926 
L 238.252047 -361.030377 
L 229.4256 -362.108827 
L 220.599154 -363.187278 
L 211.772708 -363.840398 
L 202.946262 -364.366356 
L 194.119815 -364.892313 
z
" style="stroke: #ffffff; stroke-opacity: 0.15; stroke-width: 0.24"/>
    </defs>
    <g clip-path="url(#p37fd195109)">
     <use xlink:href="#mae4e2b9b27" x="0" y="825.451719" style="fill: #841e5a; fill-opacity: 0.15; stroke: #ffffff; stroke-opacity: 0.15; stroke-width: 0.24"/>
    </g>
   </g>
   <g id="PathCollection_2">
    <defs>
     <path id="m2c3be1d384" d="M 0 10 
C 2.652031 10 5.195799 8.946337 7.071068 7.071068 
C 8.946337 5.195799 10 2.652031 10 0 
C 10 -2.652031 8.946337 -5.195799 7.071068 -7.071068 
C 5.195799 -8.946337 2.652031 -10 0 -10 
C -2.652031 -10 -5.195799 -8.946337 -7.071068 -7.071068 
C -8.946337 -5.195799 -10 -2.652031 -10 0 
C -10 2.652031 -8.946337 5.195799 -7.071068 7.071068 
C -5.195799 8.946337 -2.652031 10 0 10 
z
"/>
    </defs>
    <g clip-path="url(#p37fd195109)">
     <use xlink:href="#m2c3be1d384" x="1028.218989" y="425.716129" style="fill: #f06043; fill-opacity: 0.8"/>
     <use xlink:href="#m2c3be1d384" x="829.623948" y="296.654772" style="fill: #f06043; fill-opacity: 0.8"/>
     <use xlink:href="#m2c3be1d384" x="750.185931" y="499.500541" style="fill: #f06043; fill-opacity: 0.8"/>
     <use xlink:href="#m2c3be1d384" x="829.623948" y="221.795255" style="fill: #f06043; fill-opacity: 0.8"/>
     <use xlink:href="#m2c3be1d384" x="750.185931" y="81.379999" style="fill: #f06043; fill-opacity: 0.8"/>
     <use xlink:href="#m2c3be1d384" x="988.499981" y="295.544174" style="fill: #f06043; fill-opacity: 0.8"/>
     <use xlink:href="#m2c3be1d384" x="882.582625" y="469.932722" style="fill: #f06043; fill-opacity: 0.8"/>
     <use xlink:href="#m2c3be1d384" x="909.061964" y="77.150811" style="fill: #f06043; fill-opacity: 0.8"/>
     <use xlink:href="#m2c3be1d384" x="889.20246" y="302.640178" style="fill: #f06043; fill-opacity: 0.8"/>
     <use xlink:href="#m2c3be1d384" x="591.309898" y="247.854937" style="fill: #f06043; fill-opacity: 0.8"/>
     <use xlink:href="#m2c3be1d384" x="432.433865" y="387.361377" style="fill: #f06043; fill-opacity: 0.8"/>
     <use xlink:href="#m2c3be1d384" x="829.623948" y="358.637183" style="fill: #f06043; fill-opacity: 0.8"/>
     <use xlink:href="#m2c3be1d384" x="829.623948" y="553.821876" style="fill: #f06043; fill-opacity: 0.8"/>
    </g>
   </g>
   <g id="PolyCollection_2">
    <defs>
     <path id="m7226284acd" d="M 432.433865 -785.54081 
L 432.433865 -285.490564 
L 438.451896 -287.478677 
L 444.469928 -289.46679 
L 450.48796 -291.454903 
L 456.505991 -293.443017 
L 462.524023 -295.448044 
L 468.542054 -297.457269 
L 474.560086 -301.510008 
L 480.578117 -303.828931 
L 486.596149 -305.942961 
L 492.61418 -310.396261 
L 498.632212 -315.033557 
L 504.650244 -317.888286 
L 510.668275 -320.156682 
L 516.686307 -322.811522 
L 522.704338 -326.157931 
L 528.72237 -329.50434 
L 534.740401 -332.850749 
L 540.758433 -336.197158 
L 546.776464 -339.446579 
L 552.794496 -341.567107 
L 558.812528 -343.687634 
L 564.830559 -345.808162 
L 570.848591 -347.92869 
L 576.866622 -350.049217 
L 582.884654 -352.169745 
L 588.902685 -354.290273 
L 594.920717 -356.421596 
L 600.938748 -358.565374 
L 606.95678 -360.709152 
L 612.974812 -362.852929 
L 618.992843 -364.996707 
L 625.010875 -367.799921 
L 631.028906 -370.943645 
L 637.046938 -374.135481 
L 643.064969 -377.478918 
L 649.083001 -380.173824 
L 655.101032 -381.97369 
L 661.119064 -384.185367 
L 667.137096 -386.397044 
L 673.155127 -387.815129 
L 679.173159 -388.258819 
L 685.19119 -390.270061 
L 691.209222 -392.675254 
L 697.227253 -395.724478 
L 703.245285 -398.764812 
L 709.263316 -401.839967 
L 715.281348 -403.202697 
L 721.29938 -403.916731 
L 727.317411 -407.324316 
L 733.335443 -407.108605 
L 739.353474 -407.343092 
L 745.371506 -409.432603 
L 751.389537 -411.585684 
L 757.407569 -412.533971 
L 763.4256 -414.232965 
L 769.443632 -414.033551 
L 775.461664 -413.794309 
L 781.479695 -415.834485 
L 787.497727 -415.603136 
L 793.515758 -416.76501 
L 799.53379 -415.906505 
L 805.551821 -418.618231 
L 811.569853 -418.657771 
L 817.587884 -422.765033 
L 823.605916 -423.360332 
L 829.623948 -422.369908 
L 835.641979 -422.207856 
L 841.660011 -420.967138 
L 847.678042 -421.800562 
L 853.696074 -422.368475 
L 859.714105 -421.855906 
L 865.732137 -423.093844 
L 871.750168 -422.988776 
L 877.7682 -423.800106 
L 883.786232 -422.413213 
L 889.804263 -421.374332 
L 895.822295 -420.280416 
L 901.840326 -420.008332 
L 907.858358 -418.899282 
L 913.876389 -417.268035 
L 919.894421 -413.082893 
L 925.912452 -411.272297 
L 931.930484 -409.101272 
L 937.948516 -407.453106 
L 943.966547 -406.583072 
L 949.984579 -404.993547 
L 956.00261 -403.413241 
L 962.020642 -401.858866 
L 968.038673 -399.949923 
L 974.056705 -398.486605 
L 980.074736 -396.556714 
L 986.092768 -394.467412 
L 992.1108 -391.982223 
L 998.128831 -389.574539 
L 1004.146863 -387.195015 
L 1010.164894 -384.81549 
L 1016.182926 -382.748795 
L 1022.200957 -379.954455 
L 1028.218989 -376.731647 
L 1028.218989 -636.180587 
L 1028.218989 -636.180587 
L 1022.200957 -632.865069 
L 1016.182926 -628.312183 
L 1010.164894 -626.474677 
L 1004.146863 -623.337682 
L 998.128831 -620.200686 
L 992.1108 -617.167244 
L 986.092768 -615.275899 
L 980.074736 -612.888912 
L 974.056705 -611.574368 
L 968.038673 -610.610753 
L 962.020642 -609.317204 
L 956.00261 -606.419485 
L 949.984579 -604.299424 
L 943.966547 -602.191658 
L 937.948516 -597.282036 
L 931.930484 -594.881852 
L 925.912452 -596.534144 
L 919.894421 -593.578861 
L 913.876389 -592.302287 
L 907.858358 -589.112998 
L 901.840326 -588.914285 
L 895.822295 -587.793522 
L 889.804263 -587.390511 
L 883.786232 -587.047111 
L 877.7682 -586.832828 
L 871.750168 -585.1807 
L 865.732137 -586.340108 
L 859.714105 -585.682563 
L 853.696074 -584.515363 
L 847.678042 -583.167056 
L 841.660011 -583.383368 
L 835.641979 -583.23187 
L 829.623948 -583.665354 
L 823.605916 -583.440768 
L 817.587884 -583.340054 
L 811.569853 -583.676954 
L 805.551821 -585.394453 
L 799.53379 -587.35154 
L 793.515758 -590.88111 
L 787.497727 -592.910245 
L 781.479695 -594.868424 
L 775.461664 -598.638244 
L 769.443632 -598.744821 
L 763.4256 -600.295392 
L 757.407569 -601.090601 
L 751.389537 -601.600738 
L 745.371506 -604.75317 
L 739.353474 -606.593789 
L 733.335443 -610.453491 
L 727.317411 -614.313193 
L 721.29938 -618.202165 
L 715.281348 -621.668957 
L 709.263316 -624.180573 
L 703.245285 -628.200755 
L 697.227253 -631.121065 
L 691.209222 -634.075867 
L 685.19119 -637.88904 
L 679.173159 -642.379266 
L 673.155127 -645.568221 
L 667.137096 -649.392569 
L 661.119064 -653.216917 
L 655.101032 -657.041265 
L 649.083001 -660.863727 
L 643.064969 -664.115297 
L 637.046938 -667.040089 
L 631.028906 -669.964202 
L 625.010875 -672.888316 
L 618.992843 -675.81243 
L 612.974812 -679.994823 
L 606.95678 -684.374339 
L 600.938748 -688.753855 
L 594.920717 -692.337349 
L 588.902685 -695.676825 
L 582.884654 -698.132803 
L 576.866622 -701.59947 
L 570.848591 -704.520907 
L 564.830559 -707.442343 
L 558.812528 -710.815248 
L 552.794496 -714.359027 
L 546.776464 -718.389387 
L 540.758433 -722.081761 
L 534.740401 -725.146936 
L 528.72237 -728.397163 
L 522.704338 -731.913163 
L 516.686307 -735.429163 
L 510.668275 -738.945163 
L 504.650244 -742.461163 
L 498.632212 -745.977163 
L 492.61418 -749.493163 
L 486.596149 -753.009163 
L 480.578117 -756.525163 
L 474.560086 -760.041163 
L 468.542054 -763.557163 
L 462.524023 -767.073163 
L 456.505991 -770.772646 
L 450.48796 -774.84458 
L 444.469928 -778.606998 
L 438.451896 -782.073904 
L 432.433865 -785.54081 
z
" style="stroke: #ffffff; stroke-opacity: 0.15; stroke-width: 0.24"/>
    </defs>
    <g clip-path="url(#p37fd195109)">
     <use xlink:href="#m7226284acd" x="0" y="825.451719" style="fill: #f06043; fill-opacity: 0.15; stroke: #ffffff; stroke-opacity: 0.15; stroke-width: 0.24"/>
    </g>
   </g>
   <g id="line2d_1">
    <path d="M 194.119815 574.976287 
L 202.946262 574.383229 
L 211.772708 573.790171 
L 220.599154 573.197114 
L 229.4256 572.604056 
L 238.252047 572.010999 
L 247.078493 571.417941 
L 255.904939 570.824884 
L 264.731386 570.231826 
L 273.557832 569.638768 
L 282.384278 569.045711 
L 291.210724 568.452653 
L 300.037171 567.859596 
L 308.863617 567.266538 
L 317.690063 566.67348 
L 326.51651 566.080423 
L 335.342956 565.487365 
L 344.169402 564.894308 
L 352.995848 564.30125 
L 361.822295 563.708193 
L 370.648741 563.115135 
L 379.475187 562.522077 
L 388.301634 561.92902 
L 397.12808 561.335962 
L 405.954526 560.742905 
L 414.780972 560.149847 
L 423.607419 559.55679 
L 432.433865 558.963732 
L 441.260311 558.370674 
L 450.086757 557.777617 
L 458.913204 557.184559 
L 467.73965 556.591502 
L 476.566096 555.998444 
L 485.392543 555.405387 
L 494.218989 554.812329 
L 503.045435 554.219271 
L 511.871881 553.626214 
L 520.698328 553.033156 
L 529.524774 552.440099 
L 538.35122 551.847041 
L 547.177667 551.253983 
L 556.004113 550.660926 
L 564.830559 550.067868 
L 573.657005 549.474811 
L 582.483452 548.881753 
L 591.309898 548.288696 
L 600.136344 547.695638 
L 608.962791 547.10258 
L 617.789237 546.509523 
L 626.615683 545.916465 
L 635.442129 545.323408 
L 644.268576 544.73035 
L 653.095022 544.137293 
L 661.921468 543.544235 
L 670.747915 542.951177 
L 679.574361 542.35812 
L 688.400807 541.765062 
L 697.227253 541.172005 
L 706.0537 540.578947 
L 714.880146 539.985889 
L 723.706592 539.392832 
L 732.533038 538.799774 
L 741.359485 538.206717 
L 750.185931 537.613659 
L 759.012377 537.020602 
L 767.838824 536.427544 
L 776.66527 535.834486 
L 785.491716 535.241429 
L 794.318162 534.648371 
L 803.144609 534.055314 
L 811.971055 533.462256 
L 820.797501 532.869199 
L 829.623948 532.276141 
L 838.450394 531.683083 
L 847.27684 531.090026 
L 856.103286 530.496968 
L 864.929733 529.903911 
L 873.756179 529.310853 
L 882.582625 528.717795 
L 891.409072 528.124738 
L 900.235518 527.53168 
L 909.061964 526.938623 
L 917.88841 526.345565 
L 926.714857 525.752508 
L 935.541303 525.15945 
L 944.367749 524.566392 
L 953.194196 523.973335 
L 962.020642 523.380277 
L 970.847088 522.78722 
L 979.673534 522.194162 
L 988.499981 521.601105 
L 997.326427 521.008047 
L 1006.152873 520.414989 
L 1014.979319 519.821932 
L 1023.805766 519.228874 
L 1032.632212 518.635817 
L 1041.458658 518.042759 
L 1050.285105 517.449701 
L 1059.111551 516.856644 
L 1067.937997 516.263586 
" clip-path="url(#p37fd195109)" style="fill: none; stroke: #841e5a; stroke-width: 9; stroke-linecap: round"/>
   </g>
   <g id="line2d_2">
    <path d="M 432.433865 323.261528 
L 438.451896 323.280603 
L 444.469928 323.299678 
L 450.48796 323.318753 
L 456.505991 323.337828 
L 462.524023 323.356903 
L 468.542054 323.375978 
L 474.560086 323.395053 
L 480.578117 323.414129 
L 486.596149 323.433204 
L 492.61418 323.452279 
L 498.632212 323.471354 
L 504.650244 323.490429 
L 510.668275 323.509504 
L 516.686307 323.528579 
L 522.704338 323.547654 
L 528.72237 323.566729 
L 534.740401 323.585805 
L 540.758433 323.60488 
L 546.776464 323.623955 
L 552.794496 323.64303 
L 558.812528 323.662105 
L 564.830559 323.68118 
L 570.848591 323.700255 
L 576.866622 323.71933 
L 582.884654 323.738406 
L 588.902685 323.757481 
L 594.920717 323.776556 
L 600.938748 323.795631 
L 606.95678 323.814706 
L 612.974812 323.833781 
L 618.992843 323.852856 
L 625.010875 323.871931 
L 631.028906 323.891006 
L 637.046938 323.910082 
L 643.064969 323.929157 
L 649.083001 323.948232 
L 655.101032 323.967307 
L 661.119064 323.986382 
L 667.137096 324.005457 
L 673.155127 324.024532 
L 679.173159 324.043607 
L 685.19119 324.062683 
L 691.209222 324.081758 
L 697.227253 324.100833 
L 703.245285 324.119908 
L 709.263316 324.138983 
L 715.281348 324.158058 
L 721.29938 324.177133 
L 727.317411 324.196208 
L 733.335443 324.215284 
L 739.353474 324.234359 
L 745.371506 324.253434 
L 751.389537 324.272509 
L 757.407569 324.291584 
L 763.4256 324.310659 
L 769.443632 324.329734 
L 775.461664 324.348809 
L 781.479695 324.367884 
L 787.497727 324.38696 
L 793.515758 324.406035 
L 799.53379 324.42511 
L 805.551821 324.444185 
L 811.569853 324.46326 
L 817.587884 324.482335 
L 823.605916 324.50141 
L 829.623948 324.520485 
L 835.641979 324.539561 
L 841.660011 324.558636 
L 847.678042 324.577711 
L 853.696074 324.596786 
L 859.714105 324.615861 
L 865.732137 324.634936 
L 871.750168 324.654011 
L 877.7682 324.673086 
L 883.786232 324.692161 
L 889.804263 324.711237 
L 895.822295 324.730312 
L 901.840326 324.749387 
L 907.858358 324.768462 
L 913.876389 324.787537 
L 919.894421 324.806612 
L 925.912452 324.825687 
L 931.930484 324.844762 
L 937.948516 324.863838 
L 943.966547 324.882913 
L 949.984579 324.901988 
L 956.00261 324.921063 
L 962.020642 324.940138 
L 968.038673 324.959213 
L 974.056705 324.978288 
L 980.074736 324.997363 
L 986.092768 325.016439 
L 992.1108 325.035514 
L 998.128831 325.054589 
L 1004.146863 325.073664 
L 1010.164894 325.092739 
L 1016.182926 325.111814 
L 1022.200957 325.130889 
L 1028.218989 325.149964 
" clip-path="url(#p37fd195109)" style="fill: none; stroke: #f06043; stroke-width: 9; stroke-linecap: round"/>
   </g>
   <g id="patch_3">
    <path d="M 150.428906 726.84 
L 150.428906 7.2 
" style="fill: none; stroke: #262626; stroke-width: 0.8; stroke-linejoin: miter; stroke-linecap: square"/>
   </g>
   <g id="patch_4">
    <path d="M 150.428906 726.84 
L 1111.628906 726.84 
" style="fill: none; stroke: #262626; stroke-width: 0.8; stroke-linejoin: miter; stroke-linecap: square"/>
   </g>
   <g id="legend_1">
    <g id="patch_5">
     <path d="M 949.628906 116.071875 
L 1090.628906 116.071875 
Q 1096.628906 116.071875 1096.628906 110.071875 
L 1096.628906 28.2 
Q 1096.628906 22.2 1090.628906 22.2 
L 949.628906 22.2 
Q 943.628906 22.2 943.628906 28.2 
L 943.628906 110.071875 
Q 943.628906 116.071875 949.628906 116.071875 
z
" style="fill: #ffffff; opacity: 0.8; stroke: #cccccc; stroke-width: 0.24; stroke-linejoin: miter"/>
    </g>
    <g id="PathCollection_3">
     <g>
      <use xlink:href="#m0226a57eb0" x="985.628906" y="47.798437" style="fill: #841e5a; fill-opacity: 0.8"/>
     </g>
    </g>
    <g id="text_15">
     <!-- CO -->
     <g style="fill: #262626" transform="translate(1039.628906 55.673437)scale(0.3 -0.3)">
      <use xlink:href="#ArialMT-43"/>
      <use xlink:href="#ArialMT-4f" x="72.216797"/>
     </g>
    </g>
    <g id="PathCollection_4">
     <g>
      <use xlink:href="#m2c3be1d384" x="985.628906" y="90.234375" style="fill: #f06043; fill-opacity: 0.8"/>
     </g>
    </g>
    <g id="text_16">
     <!-- CD -->
     <g style="fill: #262626" transform="translate(1039.628906 98.109375)scale(0.3 -0.3)">
      <defs>
       <path id="ArialMT-44" d="M 494 0 
L 494 4581 
L 2072 4581 
Q 2606 4581 2888 4516 
Q 3281 4425 3559 4188 
Q 3922 3881 4101 3404 
Q 4281 2928 4281 2316 
Q 4281 1794 4159 1391 
Q 4038 988 3847 723 
Q 3656 459 3429 307 
Q 3203 156 2883 78 
Q 2563 0 2147 0 
L 494 0 
z
M 1100 541 
L 2078 541 
Q 2531 541 2789 625 
Q 3047 709 3200 863 
Q 3416 1078 3536 1442 
Q 3656 1806 3656 2325 
Q 3656 3044 3420 3430 
Q 3184 3816 2847 3947 
Q 2603 4041 2063 4041 
L 1100 4041 
L 1100 541 
z
" transform="scale(0.015625)"/>
      </defs>
      <use xlink:href="#ArialMT-43"/>
      <use xlink:href="#ArialMT-44" x="72.216797"/>
     </g>
    </g>
   </g>
  </g>
  <g id="legend_2">
   <g id="text_17">
    <!-- group -->
    <g style="fill: #262626" transform="translate(1014.542187 372.816484)scale(0.1 -0.1)">
     <defs>
      <path id="ArialMT-67" d="M 319 -275 
L 866 -356 
Q 900 -609 1056 -725 
Q 1266 -881 1628 -881 
Q 2019 -881 2231 -725 
Q 2444 -569 2519 -288 
Q 2563 -116 2559 434 
Q 2191 0 1641 0 
Q 956 0 581 494 
Q 206 988 206 1678 
Q 206 2153 378 2554 
Q 550 2956 876 3175 
Q 1203 3394 1644 3394 
Q 2231 3394 2613 2919 
L 2613 3319 
L 3131 3319 
L 3131 450 
Q 3131 -325 2973 -648 
Q 2816 -972 2473 -1159 
Q 2131 -1347 1631 -1347 
Q 1038 -1347 672 -1080 
Q 306 -813 319 -275 
z
M 784 1719 
Q 784 1066 1043 766 
Q 1303 466 1694 466 
Q 2081 466 2343 764 
Q 2606 1063 2606 1700 
Q 2606 2309 2336 2618 
Q 2066 2928 1684 2928 
Q 1309 2928 1046 2623 
Q 784 2319 784 1719 
z
" transform="scale(0.015625)"/>
      <path id="ArialMT-75" d="M 2597 0 
L 2597 488 
Q 2209 -75 1544 -75 
Q 1250 -75 995 37 
Q 741 150 617 320 
Q 494 491 444 738 
Q 409 903 409 1263 
L 409 3319 
L 972 3319 
L 972 1478 
Q 972 1038 1006 884 
Q 1059 663 1231 536 
Q 1403 409 1656 409 
Q 1909 409 2131 539 
Q 2353 669 2445 892 
Q 2538 1116 2538 1541 
L 2538 3319 
L 3100 3319 
L 3100 0 
L 2597 0 
z
" transform="scale(0.015625)"/>
      <path id="ArialMT-70" d="M 422 -1272 
L 422 3319 
L 934 3319 
L 934 2888 
Q 1116 3141 1344 3267 
Q 1572 3394 1897 3394 
Q 2322 3394 2647 3175 
Q 2972 2956 3137 2557 
Q 3303 2159 3303 1684 
Q 3303 1175 3120 767 
Q 2938 359 2589 142 
Q 2241 -75 1856 -75 
Q 1575 -75 1351 44 
Q 1128 163 984 344 
L 984 -1272 
L 422 -1272 
z
M 931 1641 
Q 931 1000 1190 694 
Q 1450 388 1819 388 
Q 2194 388 2461 705 
Q 2728 1022 2728 1688 
Q 2728 2322 2467 2637 
Q 2206 2953 1844 2953 
Q 1484 2953 1207 2617 
Q 931 2281 931 1641 
z
" transform="scale(0.015625)"/>
     </defs>
     <use xlink:href="#ArialMT-67"/>
     <use xlink:href="#ArialMT-72" x="55.615234"/>
     <use xlink:href="#ArialMT-6f" x="88.916016"/>
     <use xlink:href="#ArialMT-75" x="144.53125"/>
     <use xlink:href="#ArialMT-70" x="200.146484"/>
    </g>
   </g>
   <g id="PathCollection_5">
    <g>
     <use xlink:href="#m0226a57eb0" x="992.828906" y="403.519609" style="fill: #841e5a; fill-opacity: 0.8"/>
    </g>
   </g>
   <g id="text_18">
    <!-- CO -->
    <g style="fill: #262626" transform="translate(1046.828906 411.394609)scale(0.3 -0.3)">
     <use xlink:href="#ArialMT-43"/>
     <use xlink:href="#ArialMT-4f" x="72.216797"/>
    </g>
   </g>
   <g id="PathCollection_6">
    <g>
     <use xlink:href="#m2c3be1d384" x="992.828906" y="445.955547" style="fill: #f06043; fill-opacity: 0.8"/>
    </g>
   </g>
   <g id="text_19">
    <!-- CD -->
    <g style="fill: #262626" transform="translate(1046.828906 453.830547)scale(0.3 -0.3)">
     <use xlink:href="#ArialMT-43"/>
     <use xlink:href="#ArialMT-44" x="72.216797"/>
    </g>
   </g>
  </g>
 </g>
 <defs>
  <clipPath id="p37fd195109">
   <rect x="150.428906" y="7.2" width="961.2" height="719.64"/>
  </clipPath>
 </defs>
</svg>
