<?xml version="1.0" encoding="utf-8" standalone="no"?>
<!DOCTYPE svg PUBLIC "-//W3C//DTD SVG 1.1//EN"
  "http://www.w3.org/Graphics/SVG/1.1/DTD/svg11.dtd">
<svg xmlns:xlink="http://www.w3.org/1999/xlink" width="1085.453906pt" height="825.451719pt" viewBox="0 0 1085.453906 825.451719" xmlns="http://www.w3.org/2000/svg" version="1.1">
 <metadata>
  <rdf:RDF xmlns:dc="http://purl.org/dc/elements/1.1/" xmlns:cc="http://creativecommons.org/ns#" xmlns:rdf="http://www.w3.org/1999/02/22-rdf-syntax-ns#">
   <cc:Work>
    <dc:type rdf:resource="http://purl.org/dc/dcmitype/StillImage"/>
    <dc:date>2022-04-13T20:00:16.371805</dc:date>
    <dc:format>image/svg+xml</dc:format>
    <dc:creator>
     <cc:Agent>
      <dc:title>Matplotlib v3.5.1, https://matplotlib.org/</dc:title>
     </cc:Agent>
    </dc:creator>
   </cc:Work>
  </rdf:RDF>
 </metadata>
 <defs>
  <style type="text/css">*{stroke-linejoin: round; stroke-linecap: butt}</style>
 </defs>
 <g id="figure_1">
  <g id="patch_1">
   <path d="M 0 825.451719 
L 1085.453906 825.451719 
L 1085.453906 0 
L 0 0 
z
" style="fill: #ffffff"/>
  </g>
  <g id="axes_1">
   <g id="patch_2">
    <path d="M 117.053906 726.84 
L 1078.253906 726.84 
L 1078.253906 7.2 
L 117.053906 7.2 
z
" style="fill: #ffffff"/>
   </g>
   <g id="matplotlib.axis_1">
    <g id="xtick_1">
     <g id="text_1">
      <!-- 20 -->
      <g style="fill: #262626" transform="translate(217.939082 764.57125)scale(0.4 -0.4)">
       <defs>
        <path id="ArialMT-32" d="M 3222 541 
L 3222 0 
L 194 0 
Q 188 203 259 391 
Q 375 700 629 1000 
Q 884 1300 1366 1694 
Q 2113 2306 2375 2664 
Q 2638 3022 2638 3341 
Q 2638 3675 2398 3904 
Q 2159 4134 1775 4134 
Q 1369 4134 1125 3890 
Q 881 3647 878 3216 
L 300 3275 
Q 359 3922 746 4261 
Q 1134 4600 1788 4600 
Q 2447 4600 2831 4234 
Q 3216 3869 3216 3328 
Q 3216 3053 3103 2787 
Q 2991 2522 2730 2228 
Q 2469 1934 1863 1422 
Q 1356 997 1212 845 
Q 1069 694 975 541 
L 3222 541 
z
" transform="scale(0.015625)"/>
        <path id="ArialMT-30" d="M 266 2259 
Q 266 3072 433 3567 
Q 600 4063 929 4331 
Q 1259 4600 1759 4600 
Q 2128 4600 2406 4451 
Q 2684 4303 2865 4023 
Q 3047 3744 3150 3342 
Q 3253 2941 3253 2259 
Q 3253 1453 3087 958 
Q 2922 463 2592 192 
Q 2263 -78 1759 -78 
Q 1097 -78 719 397 
Q 266 969 266 2259 
z
M 844 2259 
Q 844 1131 1108 757 
Q 1372 384 1759 384 
Q 2147 384 2411 759 
Q 2675 1134 2675 2259 
Q 2675 3391 2411 3762 
Q 2147 4134 1753 4134 
Q 1366 4134 1134 3806 
Q 844 3388 844 2259 
z
" transform="scale(0.015625)"/>
       </defs>
       <use xlink:href="#ArialMT-32"/>
       <use xlink:href="#ArialMT-30" x="55.615234"/>
      </g>
     </g>
    </g>
    <g id="xtick_2">
     <g id="text_2">
      <!-- 22 -->
      <g style="fill: #262626" transform="translate(376.815115 764.57125)scale(0.4 -0.4)">
       <use xlink:href="#ArialMT-32"/>
       <use xlink:href="#ArialMT-32" x="55.615234"/>
      </g>
     </g>
    </g>
    <g id="xtick_3">
     <g id="text_3">
      <!-- 24 -->
      <g style="fill: #262626" transform="translate(535.691148 764.57125)scale(0.4 -0.4)">
       <defs>
        <path id="ArialMT-34" d="M 2069 0 
L 2069 1097 
L 81 1097 
L 81 1613 
L 2172 4581 
L 2631 4581 
L 2631 1613 
L 3250 1613 
L 3250 1097 
L 2631 1097 
L 2631 0 
L 2069 0 
z
M 2069 1613 
L 2069 3678 
L 634 1613 
L 2069 1613 
z
" transform="scale(0.015625)"/>
       </defs>
       <use xlink:href="#ArialMT-32"/>
       <use xlink:href="#ArialMT-34" x="55.615234"/>
      </g>
     </g>
    </g>
    <g id="xtick_4">
     <g id="text_4">
      <!-- 26 -->
      <g style="fill: #262626" transform="translate(694.567181 764.57125)scale(0.4 -0.4)">
       <defs>
        <path id="ArialMT-36" d="M 3184 3459 
L 2625 3416 
Q 2550 3747 2413 3897 
Q 2184 4138 1850 4138 
Q 1581 4138 1378 3988 
Q 1113 3794 959 3422 
Q 806 3050 800 2363 
Q 1003 2672 1297 2822 
Q 1591 2972 1913 2972 
Q 2475 2972 2870 2558 
Q 3266 2144 3266 1488 
Q 3266 1056 3080 686 
Q 2894 316 2569 119 
Q 2244 -78 1831 -78 
Q 1128 -78 684 439 
Q 241 956 241 2144 
Q 241 3472 731 4075 
Q 1159 4600 1884 4600 
Q 2425 4600 2770 4297 
Q 3116 3994 3184 3459 
z
M 888 1484 
Q 888 1194 1011 928 
Q 1134 663 1356 523 
Q 1578 384 1822 384 
Q 2178 384 2434 671 
Q 2691 959 2691 1453 
Q 2691 1928 2437 2201 
Q 2184 2475 1800 2475 
Q 1419 2475 1153 2201 
Q 888 1928 888 1484 
z
" transform="scale(0.015625)"/>
       </defs>
       <use xlink:href="#ArialMT-32"/>
       <use xlink:href="#ArialMT-36" x="55.615234"/>
      </g>
     </g>
    </g>
    <g id="xtick_5">
     <g id="text_5">
      <!-- 28 -->
      <g style="fill: #262626" transform="translate(853.443214 764.57125)scale(0.4 -0.4)">
       <defs>
        <path id="ArialMT-38" d="M 1131 2484 
Q 781 2613 612 2850 
Q 444 3088 444 3419 
Q 444 3919 803 4259 
Q 1163 4600 1759 4600 
Q 2359 4600 2725 4251 
Q 3091 3903 3091 3403 
Q 3091 3084 2923 2848 
Q 2756 2613 2416 2484 
Q 2838 2347 3058 2040 
Q 3278 1734 3278 1309 
Q 3278 722 2862 322 
Q 2447 -78 1769 -78 
Q 1091 -78 675 323 
Q 259 725 259 1325 
Q 259 1772 486 2073 
Q 713 2375 1131 2484 
z
M 1019 3438 
Q 1019 3113 1228 2906 
Q 1438 2700 1772 2700 
Q 2097 2700 2305 2904 
Q 2513 3109 2513 3406 
Q 2513 3716 2298 3927 
Q 2084 4138 1766 4138 
Q 1444 4138 1231 3931 
Q 1019 3725 1019 3438 
z
M 838 1322 
Q 838 1081 952 856 
Q 1066 631 1291 507 
Q 1516 384 1775 384 
Q 2178 384 2440 643 
Q 2703 903 2703 1303 
Q 2703 1709 2433 1975 
Q 2163 2241 1756 2241 
Q 1359 2241 1098 1978 
Q 838 1716 838 1322 
z
" transform="scale(0.015625)"/>
       </defs>
       <use xlink:href="#ArialMT-32"/>
       <use xlink:href="#ArialMT-38" x="55.615234"/>
      </g>
     </g>
    </g>
    <g id="xtick_6">
     <g id="text_6">
      <!-- 30 -->
      <g style="fill: #262626" transform="translate(1012.319247 764.57125)scale(0.4 -0.4)">
       <defs>
        <path id="ArialMT-33" d="M 269 1209 
L 831 1284 
Q 928 806 1161 595 
Q 1394 384 1728 384 
Q 2125 384 2398 659 
Q 2672 934 2672 1341 
Q 2672 1728 2419 1979 
Q 2166 2231 1775 2231 
Q 1616 2231 1378 2169 
L 1441 2663 
Q 1497 2656 1531 2656 
Q 1891 2656 2178 2843 
Q 2466 3031 2466 3422 
Q 2466 3731 2256 3934 
Q 2047 4138 1716 4138 
Q 1388 4138 1169 3931 
Q 950 3725 888 3313 
L 325 3413 
Q 428 3978 793 4289 
Q 1159 4600 1703 4600 
Q 2078 4600 2393 4439 
Q 2709 4278 2876 4000 
Q 3044 3722 3044 3409 
Q 3044 3113 2884 2869 
Q 2725 2625 2413 2481 
Q 2819 2388 3044 2092 
Q 3269 1797 3269 1353 
Q 3269 753 2831 336 
Q 2394 -81 1725 -81 
Q 1122 -81 723 278 
Q 325 638 269 1209 
z
" transform="scale(0.015625)"/>
       </defs>
       <use xlink:href="#ArialMT-33"/>
       <use xlink:href="#ArialMT-30" x="55.615234"/>
      </g>
     </g>
    </g>
    <g id="text_7">
     <!-- MOCA_total_score -->
     <g style="fill: #262626" transform="translate(407.588672 809.307969)scale(0.45 -0.45)">
      <defs>
       <path id="ArialMT-4d" d="M 475 0 
L 475 4581 
L 1388 4581 
L 2472 1338 
Q 2622 884 2691 659 
Q 2769 909 2934 1394 
L 4031 4581 
L 4847 4581 
L 4847 0 
L 4263 0 
L 4263 3834 
L 2931 0 
L 2384 0 
L 1059 3900 
L 1059 0 
L 475 0 
z
" transform="scale(0.015625)"/>
       <path id="ArialMT-4f" d="M 309 2231 
Q 309 3372 921 4017 
Q 1534 4663 2503 4663 
Q 3138 4663 3647 4359 
Q 4156 4056 4423 3514 
Q 4691 2972 4691 2284 
Q 4691 1588 4409 1038 
Q 4128 488 3612 205 
Q 3097 -78 2500 -78 
Q 1853 -78 1343 234 
Q 834 547 571 1087 
Q 309 1628 309 2231 
z
M 934 2222 
Q 934 1394 1379 917 
Q 1825 441 2497 441 
Q 3181 441 3623 922 
Q 4066 1403 4066 2288 
Q 4066 2847 3877 3264 
Q 3688 3681 3323 3911 
Q 2959 4141 2506 4141 
Q 1863 4141 1398 3698 
Q 934 3256 934 2222 
z
" transform="scale(0.015625)"/>
       <path id="ArialMT-43" d="M 3763 1606 
L 4369 1453 
Q 4178 706 3683 314 
Q 3188 -78 2472 -78 
Q 1731 -78 1267 223 
Q 803 525 561 1097 
Q 319 1669 319 2325 
Q 319 3041 592 3573 
Q 866 4106 1370 4382 
Q 1875 4659 2481 4659 
Q 3169 4659 3637 4309 
Q 4106 3959 4291 3325 
L 3694 3184 
Q 3534 3684 3231 3912 
Q 2928 4141 2469 4141 
Q 1941 4141 1586 3887 
Q 1231 3634 1087 3207 
Q 944 2781 944 2328 
Q 944 1744 1114 1308 
Q 1284 872 1643 656 
Q 2003 441 2422 441 
Q 2931 441 3284 734 
Q 3638 1028 3763 1606 
z
" transform="scale(0.015625)"/>
       <path id="ArialMT-41" d="M -9 0 
L 1750 4581 
L 2403 4581 
L 4278 0 
L 3588 0 
L 3053 1388 
L 1138 1388 
L 634 0 
L -9 0 
z
M 1313 1881 
L 2866 1881 
L 2388 3150 
Q 2169 3728 2063 4100 
Q 1975 3659 1816 3225 
L 1313 1881 
z
" transform="scale(0.015625)"/>
       <path id="ArialMT-5f" d="M -97 -1272 
L -97 -866 
L 3631 -866 
L 3631 -1272 
L -97 -1272 
z
" transform="scale(0.015625)"/>
       <path id="ArialMT-74" d="M 1650 503 
L 1731 6 
Q 1494 -44 1306 -44 
Q 1000 -44 831 53 
Q 663 150 594 308 
Q 525 466 525 972 
L 525 2881 
L 113 2881 
L 113 3319 
L 525 3319 
L 525 4141 
L 1084 4478 
L 1084 3319 
L 1650 3319 
L 1650 2881 
L 1084 2881 
L 1084 941 
Q 1084 700 1114 631 
Q 1144 563 1211 522 
Q 1278 481 1403 481 
Q 1497 481 1650 503 
z
" transform="scale(0.015625)"/>
       <path id="ArialMT-6f" d="M 213 1659 
Q 213 2581 725 3025 
Q 1153 3394 1769 3394 
Q 2453 3394 2887 2945 
Q 3322 2497 3322 1706 
Q 3322 1066 3130 698 
Q 2938 331 2570 128 
Q 2203 -75 1769 -75 
Q 1072 -75 642 372 
Q 213 819 213 1659 
z
M 791 1659 
Q 791 1022 1069 705 
Q 1347 388 1769 388 
Q 2188 388 2466 706 
Q 2744 1025 2744 1678 
Q 2744 2294 2464 2611 
Q 2184 2928 1769 2928 
Q 1347 2928 1069 2612 
Q 791 2297 791 1659 
z
" transform="scale(0.015625)"/>
       <path id="ArialMT-61" d="M 2588 409 
Q 2275 144 1986 34 
Q 1697 -75 1366 -75 
Q 819 -75 525 192 
Q 231 459 231 875 
Q 231 1119 342 1320 
Q 453 1522 633 1644 
Q 813 1766 1038 1828 
Q 1203 1872 1538 1913 
Q 2219 1994 2541 2106 
Q 2544 2222 2544 2253 
Q 2544 2597 2384 2738 
Q 2169 2928 1744 2928 
Q 1347 2928 1158 2789 
Q 969 2650 878 2297 
L 328 2372 
Q 403 2725 575 2942 
Q 747 3159 1072 3276 
Q 1397 3394 1825 3394 
Q 2250 3394 2515 3294 
Q 2781 3194 2906 3042 
Q 3031 2891 3081 2659 
Q 3109 2516 3109 2141 
L 3109 1391 
Q 3109 606 3145 398 
Q 3181 191 3288 0 
L 2700 0 
Q 2613 175 2588 409 
z
M 2541 1666 
Q 2234 1541 1622 1453 
Q 1275 1403 1131 1340 
Q 988 1278 909 1158 
Q 831 1038 831 891 
Q 831 666 1001 516 
Q 1172 366 1500 366 
Q 1825 366 2078 508 
Q 2331 650 2450 897 
Q 2541 1088 2541 1459 
L 2541 1666 
z
" transform="scale(0.015625)"/>
       <path id="ArialMT-6c" d="M 409 0 
L 409 4581 
L 972 4581 
L 972 0 
L 409 0 
z
" transform="scale(0.015625)"/>
       <path id="ArialMT-73" d="M 197 991 
L 753 1078 
Q 800 744 1014 566 
Q 1228 388 1613 388 
Q 2000 388 2187 545 
Q 2375 703 2375 916 
Q 2375 1106 2209 1216 
Q 2094 1291 1634 1406 
Q 1016 1563 777 1677 
Q 538 1791 414 1992 
Q 291 2194 291 2438 
Q 291 2659 392 2848 
Q 494 3038 669 3163 
Q 800 3259 1026 3326 
Q 1253 3394 1513 3394 
Q 1903 3394 2198 3281 
Q 2494 3169 2634 2976 
Q 2775 2784 2828 2463 
L 2278 2388 
Q 2241 2644 2061 2787 
Q 1881 2931 1553 2931 
Q 1166 2931 1000 2803 
Q 834 2675 834 2503 
Q 834 2394 903 2306 
Q 972 2216 1119 2156 
Q 1203 2125 1616 2013 
Q 2213 1853 2448 1751 
Q 2684 1650 2818 1456 
Q 2953 1263 2953 975 
Q 2953 694 2789 445 
Q 2625 197 2315 61 
Q 2006 -75 1616 -75 
Q 969 -75 630 194 
Q 291 463 197 991 
z
" transform="scale(0.015625)"/>
       <path id="ArialMT-63" d="M 2588 1216 
L 3141 1144 
Q 3050 572 2676 248 
Q 2303 -75 1759 -75 
Q 1078 -75 664 370 
Q 250 816 250 1647 
Q 250 2184 428 2587 
Q 606 2991 970 3192 
Q 1334 3394 1763 3394 
Q 2303 3394 2647 3120 
Q 2991 2847 3088 2344 
L 2541 2259 
Q 2463 2594 2264 2762 
Q 2066 2931 1784 2931 
Q 1359 2931 1093 2626 
Q 828 2322 828 1663 
Q 828 994 1084 691 
Q 1341 388 1753 388 
Q 2084 388 2306 591 
Q 2528 794 2588 1216 
z
" transform="scale(0.015625)"/>
       <path id="ArialMT-72" d="M 416 0 
L 416 3319 
L 922 3319 
L 922 2816 
Q 1116 3169 1280 3281 
Q 1444 3394 1641 3394 
Q 1925 3394 2219 3213 
L 2025 2691 
Q 1819 2813 1613 2813 
Q 1428 2813 1281 2702 
Q 1134 2591 1072 2394 
Q 978 2094 978 1738 
L 978 0 
L 416 0 
z
" transform="scale(0.015625)"/>
       <path id="ArialMT-65" d="M 2694 1069 
L 3275 997 
Q 3138 488 2766 206 
Q 2394 -75 1816 -75 
Q 1088 -75 661 373 
Q 234 822 234 1631 
Q 234 2469 665 2931 
Q 1097 3394 1784 3394 
Q 2450 3394 2872 2941 
Q 3294 2488 3294 1666 
Q 3294 1616 3291 1516 
L 816 1516 
Q 847 969 1125 678 
Q 1403 388 1819 388 
Q 2128 388 2347 550 
Q 2566 713 2694 1069 
z
M 847 1978 
L 2700 1978 
Q 2663 2397 2488 2606 
Q 2219 2931 1791 2931 
Q 1403 2931 1139 2672 
Q 875 2413 847 1978 
z
" transform="scale(0.015625)"/>
      </defs>
      <use xlink:href="#ArialMT-4d"/>
      <use xlink:href="#ArialMT-4f" x="83.300781"/>
      <use xlink:href="#ArialMT-43" x="161.083984"/>
      <use xlink:href="#ArialMT-41" x="233.300781"/>
      <use xlink:href="#ArialMT-5f" x="300"/>
      <use xlink:href="#ArialMT-74" x="355.615234"/>
      <use xlink:href="#ArialMT-6f" x="383.398438"/>
      <use xlink:href="#ArialMT-74" x="439.013672"/>
      <use xlink:href="#ArialMT-61" x="466.796875"/>
      <use xlink:href="#ArialMT-6c" x="522.412109"/>
      <use xlink:href="#ArialMT-5f" x="544.628906"/>
      <use xlink:href="#ArialMT-73" x="600.244141"/>
      <use xlink:href="#ArialMT-63" x="650.244141"/>
      <use xlink:href="#ArialMT-6f" x="700.244141"/>
      <use xlink:href="#ArialMT-72" x="755.859375"/>
      <use xlink:href="#ArialMT-65" x="789.160156"/>
     </g>
    </g>
   </g>
   <g id="matplotlib.axis_2">
    <g id="ytick_1">
     <g id="text_8">
      <!-- 0.0 -->
      <g style="fill: #262626" transform="translate(52.353906 708.444716)scale(0.4 -0.4)">
       <defs>
        <path id="ArialMT-2e" d="M 581 0 
L 581 641 
L 1222 641 
L 1222 0 
L 581 0 
z
" transform="scale(0.015625)"/>
       </defs>
       <use xlink:href="#ArialMT-30"/>
       <use xlink:href="#ArialMT-2e" x="55.615234"/>
       <use xlink:href="#ArialMT-30" x="83.398438"/>
      </g>
     </g>
    </g>
    <g id="ytick_2">
     <g id="text_9">
      <!-- 0.2 -->
      <g style="fill: #262626" transform="translate(52.353906 607.983818)scale(0.4 -0.4)">
       <use xlink:href="#ArialMT-30"/>
       <use xlink:href="#ArialMT-2e" x="55.615234"/>
       <use xlink:href="#ArialMT-32" x="83.398438"/>
      </g>
     </g>
    </g>
    <g id="ytick_3">
     <g id="text_10">
      <!-- 0.4 -->
      <g style="fill: #262626" transform="translate(52.353906 507.522921)scale(0.4 -0.4)">
       <use xlink:href="#ArialMT-30"/>
       <use xlink:href="#ArialMT-2e" x="55.615234"/>
       <use xlink:href="#ArialMT-34" x="83.398438"/>
      </g>
     </g>
    </g>
    <g id="ytick_4">
     <g id="text_11">
      <!-- 0.6 -->
      <g style="fill: #262626" transform="translate(52.353906 407.062023)scale(0.4 -0.4)">
       <use xlink:href="#ArialMT-30"/>
       <use xlink:href="#ArialMT-2e" x="55.615234"/>
       <use xlink:href="#ArialMT-36" x="83.398438"/>
      </g>
     </g>
    </g>
    <g id="ytick_5">
     <g id="text_12">
      <!-- 0.8 -->
      <g style="fill: #262626" transform="translate(52.353906 306.601126)scale(0.4 -0.4)">
       <use xlink:href="#ArialMT-30"/>
       <use xlink:href="#ArialMT-2e" x="55.615234"/>
       <use xlink:href="#ArialMT-38" x="83.398438"/>
      </g>
     </g>
    </g>
    <g id="ytick_6">
     <g id="text_13">
      <!-- 1.0 -->
      <g style="fill: #262626" transform="translate(52.353906 206.140229)scale(0.4 -0.4)">
       <defs>
        <path id="ArialMT-31" d="M 2384 0 
L 1822 0 
L 1822 3584 
Q 1619 3391 1289 3197 
Q 959 3003 697 2906 
L 697 3450 
Q 1169 3672 1522 3987 
Q 1875 4303 2022 4600 
L 2384 4600 
L 2384 0 
z
" transform="scale(0.015625)"/>
       </defs>
       <use xlink:href="#ArialMT-31"/>
       <use xlink:href="#ArialMT-2e" x="55.615234"/>
       <use xlink:href="#ArialMT-30" x="83.398438"/>
      </g>
     </g>
    </g>
    <g id="ytick_7">
     <g id="text_14">
      <!-- 1.2 -->
      <g style="fill: #262626" transform="translate(52.353906 105.679331)scale(0.4 -0.4)">
       <use xlink:href="#ArialMT-31"/>
       <use xlink:href="#ArialMT-2e" x="55.615234"/>
       <use xlink:href="#ArialMT-32" x="83.398438"/>
      </g>
     </g>
    </g>
    <g id="text_15">
     <!-- correct -->
     <g style="fill: #262626" transform="translate(39.410156 435.778594)rotate(-90)scale(0.45 -0.45)">
      <use xlink:href="#ArialMT-63"/>
      <use xlink:href="#ArialMT-6f" x="50"/>
      <use xlink:href="#ArialMT-72" x="105.615234"/>
      <use xlink:href="#ArialMT-72" x="138.916016"/>
      <use xlink:href="#ArialMT-65" x="172.216797"/>
      <use xlink:href="#ArialMT-63" x="227.832031"/>
      <use xlink:href="#ArialMT-74" x="277.832031"/>
     </g>
    </g>
   </g>
   <g id="PathCollection_1">
    <defs>
     <path id="m90218a70fb" d="M 0 10 
C 2.652031 10 5.195799 8.946337 7.071068 7.071068 
C 8.946337 5.195799 10 2.652031 10 0 
C 10 -2.652031 8.946337 -5.195799 7.071068 -7.071068 
C 5.195799 -8.946337 2.652031 -10 0 -10 
C -2.652031 -10 -5.195799 -8.946337 -7.071068 -7.071068 
C -8.946337 -5.195799 -10 -2.652031 -10 0 
C -10 2.652031 -8.946337 5.195799 -7.071068 7.071068 
C -5.195799 8.946337 -2.652031 10 0 10 
z
"/>
    </defs>
    <g clip-path="url(#p1a376f1107)">
     <use xlink:href="#m90218a70fb" x="875.686964" y="191.824604" style="fill: #841e5a; fill-opacity: 0.8"/>
     <use xlink:href="#m90218a70fb" x="716.810931" y="230.043423" style="fill: #841e5a; fill-opacity: 0.8"/>
     <use xlink:href="#m90218a70fb" x="716.810931" y="197.056942" style="fill: #841e5a; fill-opacity: 0.8"/>
     <use xlink:href="#m90218a70fb" x="399.058865" y="223.218634" style="fill: #841e5a; fill-opacity: 0.8"/>
     <use xlink:href="#m90218a70fb" x="160.744815" y="207.855598" style="fill: #841e5a; fill-opacity: 0.8"/>
     <use xlink:href="#m90218a70fb" x="796.248948" y="197.112019" style="fill: #841e5a; fill-opacity: 0.8"/>
     <use xlink:href="#m90218a70fb" x="637.372915" y="218.261682" style="fill: #841e5a; fill-opacity: 0.8"/>
     <use xlink:href="#m90218a70fb" x="637.372915" y="217.986296" style="fill: #841e5a; fill-opacity: 0.8"/>
     <use xlink:href="#m90218a70fb" x="557.934898" y="213.429098" style="fill: #841e5a; fill-opacity: 0.8"/>
     <use xlink:href="#m90218a70fb" x="875.686964" y="191.824604" style="fill: #841e5a; fill-opacity: 0.8"/>
     <use xlink:href="#m90218a70fb" x="875.686964" y="202.626851" style="fill: #841e5a; fill-opacity: 0.8"/>
     <use xlink:href="#m90218a70fb" x="955.124981" y="191.824604" style="fill: #841e5a; fill-opacity: 0.8"/>
     <use xlink:href="#m90218a70fb" x="875.686964" y="202.28928" style="fill: #841e5a; fill-opacity: 0.8"/>
     <use xlink:href="#m90218a70fb" x="1034.562997" y="207.521619" style="fill: #841e5a; fill-opacity: 0.8"/>
     <use xlink:href="#m90218a70fb" x="955.124981" y="202.181397" style="fill: #841e5a; fill-opacity: 0.8"/>
     <use xlink:href="#m90218a70fb" x="875.686964" y="247.022899" style="fill: #841e5a; fill-opacity: 0.8"/>
     <use xlink:href="#m90218a70fb" x="677.091923" y="191.824604" style="fill: #841e5a; fill-opacity: 0.8"/>
     <use xlink:href="#m90218a70fb" x="955.124981" y="384.196535" style="fill: #841e5a; fill-opacity: 0.8"/>
    </g>
   </g>
   <g id="PolyCollection_1">
    <defs>
     <path id="m0de2d4319b" d="M 160.744815 -693.680943 
L 160.744815 -589.950627 
L 169.571262 -590.344303 
L 178.397708 -590.737979 
L 187.224154 -591.133086 
L 196.0506 -591.534918 
L 204.877047 -591.936751 
L 213.703493 -592.338583 
L 222.529939 -592.723082 
L 231.356386 -593.10663 
L 240.182832 -593.492327 
L 249.009278 -593.885534 
L 257.835724 -594.27874 
L 266.662171 -594.671947 
L 275.488617 -595.065154 
L 284.315063 -595.458361 
L 293.14151 -595.851568 
L 301.967956 -596.244775 
L 310.794402 -596.637982 
L 319.620848 -596.939398 
L 328.447295 -597.318271 
L 337.273741 -597.697144 
L 346.100187 -598.076017 
L 354.926634 -598.45489 
L 363.75308 -598.836127 
L 372.579526 -599.219557 
L 381.405972 -599.604743 
L 390.232419 -599.989928 
L 399.058865 -600.375114 
L 407.885311 -600.726716 
L 416.711757 -601.027437 
L 425.538204 -601.50712 
L 434.36465 -601.915856 
L 443.191096 -602.301041 
L 452.017543 -602.686227 
L 460.843989 -603.071412 
L 469.670435 -603.488715 
L 478.496881 -603.777276 
L 487.323328 -603.378078 
L 496.149774 -603.669431 
L 504.97622 -603.901597 
L 513.802667 -603.833627 
L 522.629113 -603.981734 
L 531.455559 -604.153324 
L 540.282005 -604.052549 
L 549.108452 -603.571481 
L 557.934898 -603.18732 
L 566.761344 -602.705334 
L 575.587791 -602.305879 
L 584.414237 -601.653658 
L 593.240683 -600.847331 
L 602.067129 -600.229748 
L 610.893576 -599.54753 
L 619.720022 -598.779682 
L 628.546468 -597.809589 
L 637.372915 -597.056034 
L 646.199361 -596.229269 
L 655.025807 -595.502918 
L 663.852253 -594.954083 
L 672.6787 -594.3319 
L 681.505146 -593.319203 
L 690.331592 -592.585234 
L 699.158038 -591.541995 
L 707.984485 -590.146574 
L 716.810931 -589.252561 
L 725.637377 -588.333192 
L 734.463824 -587.385601 
L 743.29027 -586.613956 
L 752.116716 -585.497689 
L 760.943162 -584.05666 
L 769.769609 -583.306447 
L 778.596055 -582.575687 
L 787.422501 -581.685886 
L 796.248948 -580.528499 
L 805.075394 -579.661281 
L 813.90184 -578.810816 
L 822.728286 -577.964251 
L 831.554733 -576.963816 
L 840.381179 -575.994172 
L 849.207625 -574.81213 
L 858.034072 -573.638273 
L 866.860518 -572.41951 
L 875.686964 -571.036103 
L 884.51341 -569.600941 
L 893.339857 -567.943416 
L 902.166303 -566.207525 
L 910.992749 -564.280578 
L 919.819196 -562.896004 
L 928.645642 -560.868757 
L 937.472088 -558.828652 
L 946.298534 -556.835892 
L 955.124981 -555.662439 
L 963.951427 -554.584906 
L 972.777873 -553.374191 
L 981.604319 -551.797501 
L 990.430766 -550.188277 
L 999.257212 -548.738309 
L 1008.083658 -547.482271 
L 1016.910105 -545.905356 
L 1025.736551 -544.342904 
L 1034.562997 -542.780451 
L 1034.562997 -632.11162 
L 1034.562997 -632.11162 
L 1025.736551 -631.800817 
L 1016.910105 -631.422769 
L 1008.083658 -631.106241 
L 999.257212 -630.768926 
L 990.430766 -630.3362 
L 981.604319 -629.9655 
L 972.777873 -629.652996 
L 963.951427 -629.197955 
L 955.124981 -628.984021 
L 946.298534 -628.769956 
L 937.472088 -628.526146 
L 928.645642 -628.223715 
L 919.819196 -627.961189 
L 910.992749 -627.810408 
L 902.166303 -627.448902 
L 893.339857 -627.199041 
L 884.51341 -626.748428 
L 875.686964 -626.476659 
L 866.860518 -626.119932 
L 858.034072 -625.875536 
L 849.207625 -625.494189 
L 840.381179 -625.169226 
L 831.554733 -624.870018 
L 822.728286 -624.602771 
L 813.90184 -624.277392 
L 805.075394 -624.105141 
L 796.248948 -623.893134 
L 787.422501 -623.742293 
L 778.596055 -623.513719 
L 769.769609 -623.383656 
L 760.943162 -623.279378 
L 752.116716 -623.003108 
L 743.29027 -622.838364 
L 734.463824 -622.837907 
L 725.637377 -622.686005 
L 716.810931 -622.534103 
L 707.984485 -622.558623 
L 699.158038 -622.48746 
L 690.331592 -622.277106 
L 681.505146 -622.236581 
L 672.6787 -622.201633 
L 663.852253 -622.339435 
L 655.025807 -622.651033 
L 646.199361 -623.070415 
L 637.372915 -623.587122 
L 628.546468 -624.244175 
L 619.720022 -624.609085 
L 610.893576 -625.477465 
L 602.067129 -626.120218 
L 593.240683 -627.996473 
L 584.414237 -629.595073 
L 575.587791 -630.553513 
L 566.761344 -631.828038 
L 557.934898 -633.158548 
L 549.108452 -635.000747 
L 540.282005 -635.822937 
L 531.455559 -637.936852 
L 522.629113 -639.397002 
L 513.802667 -640.678231 
L 504.97622 -641.949544 
L 496.149774 -643.210834 
L 487.323328 -644.472125 
L 478.496881 -645.733415 
L 469.670435 -646.994706 
L 460.843989 -648.255996 
L 452.017543 -649.517287 
L 443.191096 -650.778577 
L 434.36465 -652.039868 
L 425.538204 -653.301158 
L 416.711757 -654.562449 
L 407.885311 -655.823739 
L 399.058865 -657.08503 
L 390.232419 -658.34632 
L 381.405972 -659.619521 
L 372.579526 -660.979493 
L 363.75308 -662.339465 
L 354.926634 -663.847948 
L 346.100187 -665.411796 
L 337.273741 -666.975643 
L 328.447295 -668.53949 
L 319.620848 -670.103337 
L 310.794402 -671.524342 
L 301.967956 -672.784048 
L 293.14151 -674.043754 
L 284.315063 -675.303251 
L 275.488617 -676.527778 
L 266.662171 -677.752305 
L 257.835724 -678.976832 
L 249.009278 -680.201359 
L 240.182832 -681.425886 
L 231.356386 -682.739043 
L 222.529939 -684.099015 
L 213.703493 -685.390327 
L 204.877047 -686.825413 
L 196.0506 -688.196519 
L 187.224154 -689.567625 
L 178.397708 -690.938731 
L 169.571262 -692.309837 
L 160.744815 -693.680943 
z
" style="stroke: #ffffff; stroke-opacity: 0.15; stroke-width: 0.24"/>
    </defs>
    <g clip-path="url(#p1a376f1107)">
     <use xlink:href="#m0de2d4319b" x="0" y="825.451719" style="fill: #841e5a; fill-opacity: 0.15; stroke: #ffffff; stroke-opacity: 0.15; stroke-width: 0.24"/>
    </g>
   </g>
   <g id="PathCollection_2">
    <defs>
     <path id="m6525d75866" d="M 0 10 
C 2.652031 10 5.195799 8.946337 7.071068 7.071068 
C 8.946337 5.195799 10 2.652031 10 0 
C 10 -2.652031 8.946337 -5.195799 7.071068 -7.071068 
C 5.195799 -8.946337 2.652031 -10 0 -10 
C -2.652031 -10 -5.195799 -8.946337 -7.071068 -7.071068 
C -8.946337 -5.195799 -10 -2.652031 -10 0 
C -10 2.652031 -8.946337 5.195799 -7.071068 7.071068 
C -5.195799 8.946337 -2.652031 10 0 10 
z
"/>
    </defs>
    <g clip-path="url(#p1a376f1107)">
     <use xlink:href="#m6525d75866" x="994.843989" y="191.824604" style="fill: #f06043; fill-opacity: 0.8"/>
     <use xlink:href="#m6525d75866" x="796.248948" y="191.824604" style="fill: #f06043; fill-opacity: 0.8"/>
     <use xlink:href="#m6525d75866" x="716.810931" y="191.824604" style="fill: #f06043; fill-opacity: 0.8"/>
     <use xlink:href="#m6525d75866" x="796.248948" y="197.168268" style="fill: #f06043; fill-opacity: 0.8"/>
     <use xlink:href="#m6525d75866" x="716.810931" y="197.168268" style="fill: #f06043; fill-opacity: 0.8"/>
     <use xlink:href="#m6525d75866" x="399.058865" y="694.129091" style="fill: #f06043; fill-opacity: 0.8"/>
     <use xlink:href="#m6525d75866" x="955.124981" y="191.824604" style="fill: #f06043; fill-opacity: 0.8"/>
     <use xlink:href="#m6525d75866" x="849.207625" y="197.112019" style="fill: #f06043; fill-opacity: 0.8"/>
     <use xlink:href="#m6525d75866" x="875.686964" y="230.043423" style="fill: #f06043; fill-opacity: 0.8"/>
     <use xlink:href="#m6525d75866" x="855.82746" y="224.583592" style="fill: #f06043; fill-opacity: 0.8"/>
     <use xlink:href="#m6525d75866" x="557.934898" y="246.422917" style="fill: #f06043; fill-opacity: 0.8"/>
     <use xlink:href="#m6525d75866" x="399.058865" y="218.830221" style="fill: #f06043; fill-opacity: 0.8"/>
     <use xlink:href="#m6525d75866" x="796.248948" y="294.335723" style="fill: #f06043; fill-opacity: 0.8"/>
     <use xlink:href="#m6525d75866" x="796.248948" y="202.28928" style="fill: #f06043; fill-opacity: 0.8"/>
    </g>
   </g>
   <g id="PolyCollection_2">
    <defs>
     <path id="me45c914906" d="M 399.058865 -613.202627 
L 399.058865 -202.574438 
L 405.076896 -207.649021 
L 411.094928 -212.723604 
L 417.11296 -217.995128 
L 423.130991 -223.516591 
L 429.149023 -229.038055 
L 435.167054 -234.559518 
L 441.185086 -240.097447 
L 447.203117 -245.636611 
L 453.221149 -251.175775 
L 459.23918 -256.714939 
L 465.257212 -262.104607 
L 471.275244 -267.55008 
L 477.293275 -273.305718 
L 483.311307 -278.848045 
L 489.329338 -284.415315 
L 495.34737 -290.637189 
L 501.365401 -296.3986 
L 507.383433 -302.163058 
L 513.401464 -307.937475 
L 519.419496 -313.711893 
L 525.437528 -319.48631 
L 531.455559 -325.062565 
L 537.473591 -330.374574 
L 543.491622 -336.004418 
L 549.509654 -341.096864 
L 555.527685 -346.298155 
L 561.545717 -351.611798 
L 567.563748 -357.754061 
L 573.58178 -364.073828 
L 579.599812 -370.308574 
L 585.617843 -375.594793 
L 591.635875 -380.881011 
L 597.653906 -386.138771 
L 603.671938 -391.383644 
L 609.689969 -396.635796 
L 615.708001 -402.326953 
L 621.726032 -408.357672 
L 627.744064 -414.138024 
L 633.762096 -420.319514 
L 639.780127 -426.091883 
L 645.798159 -430.959978 
L 651.81619 -435.626299 
L 657.834222 -440.684068 
L 663.852253 -445.614977 
L 669.870285 -451.481645 
L 675.888316 -456.880166 
L 681.906348 -462.276599 
L 687.92438 -467.186585 
L 693.942411 -473.069465 
L 699.960443 -478.465898 
L 705.978474 -483.586046 
L 711.996506 -489.113543 
L 718.014537 -494.772215 
L 724.032569 -500.191045 
L 730.0506 -505.720761 
L 736.068632 -511.250477 
L 742.086664 -516.215449 
L 748.104695 -521.310065 
L 754.122727 -525.341277 
L 760.140758 -530.240024 
L 766.15879 -534.10539 
L 772.176821 -538.651458 
L 778.194853 -543.857618 
L 784.212884 -548.040142 
L 790.230916 -553.189751 
L 796.248948 -557.309166 
L 802.266979 -561.768922 
L 808.285011 -566.285802 
L 814.303042 -570.776233 
L 820.321074 -574.616585 
L 826.339105 -578.543397 
L 832.357137 -581.691607 
L 838.375168 -584.907368 
L 844.3932 -588.48431 
L 850.411232 -591.539297 
L 856.429263 -594.357331 
L 862.447295 -596.907927 
L 868.465326 -598.934992 
L 874.483358 -601.321895 
L 880.501389 -602.151577 
L 886.519421 -603.011896 
L 892.537452 -603.555809 
L 898.555484 -603.675631 
L 904.573516 -603.878945 
L 910.591547 -604.082259 
L 916.609579 -604.285573 
L 922.62761 -604.490594 
L 928.645642 -604.699213 
L 934.663673 -604.845405 
L 940.681705 -604.953985 
L 946.699736 -605.057678 
L 952.717768 -605.156521 
L 958.7358 -605.254396 
L 964.753831 -604.799112 
L 970.771863 -604.60973 
L 976.789894 -604.682722 
L 982.807926 -604.77246 
L 988.825957 -604.863142 
L 994.843989 -604.953824 
L 994.843989 -785.54081 
L 994.843989 -785.54081 
L 988.825957 -779.989547 
L 982.807926 -774.222188 
L 976.789894 -768.454829 
L 970.771863 -762.687469 
L 964.753831 -757.219842 
L 958.7358 -752.848222 
L 952.717768 -747.76546 
L 946.699736 -742.853 
L 940.681705 -736.96972 
L 934.663673 -731.187719 
L 928.645642 -725.618816 
L 922.62761 -720.59712 
L 916.609579 -714.867992 
L 910.591547 -709.664866 
L 904.573516 -704.56724 
L 898.555484 -699.183636 
L 892.537452 -693.816305 
L 886.519421 -689.858391 
L 880.501389 -684.371388 
L 874.483358 -679.082728 
L 868.465326 -673.933248 
L 862.447295 -668.727994 
L 856.429263 -663.711618 
L 850.411232 -659.476227 
L 844.3932 -654.729597 
L 838.375168 -650.255398 
L 832.357137 -645.767389 
L 826.339105 -641.28121 
L 820.321074 -637.234053 
L 814.303042 -633.441526 
L 808.285011 -629.454786 
L 802.266979 -627.224251 
L 796.248948 -625.875179 
L 790.230916 -624.813812 
L 784.212884 -624.208887 
L 778.194853 -623.507333 
L 772.176821 -623.181611 
L 766.15879 -622.829096 
L 760.140758 -622.273358 
L 754.122727 -622.10438 
L 748.104695 -621.90599 
L 742.086664 -621.861259 
L 736.068632 -621.779107 
L 730.0506 -621.535389 
L 724.032569 -621.343233 
L 718.014537 -621.039663 
L 711.996506 -620.790941 
L 705.978474 -620.511343 
L 699.960443 -620.200423 
L 693.942411 -620.028348 
L 687.92438 -619.803281 
L 681.906348 -619.558353 
L 675.888316 -619.313277 
L 669.870285 -619.068201 
L 663.852253 -618.844584 
L 657.834222 -618.822351 
L 651.81619 -618.793569 
L 645.798159 -618.710227 
L 639.780127 -618.493008 
L 633.762096 -618.277265 
L 627.744064 -618.138276 
L 621.726032 -618.150368 
L 615.708001 -618.163937 
L 609.689969 -618.174128 
L 603.671938 -618.177329 
L 597.653906 -618.012263 
L 591.635875 -617.773203 
L 585.617843 -617.534143 
L 579.599812 -617.295083 
L 573.58178 -617.056023 
L 567.563748 -616.816963 
L 561.545717 -616.577903 
L 555.527685 -616.338843 
L 549.509654 -616.099782 
L 543.491622 -615.860722 
L 537.473591 -615.621662 
L 531.455559 -615.420614 
L 525.437528 -615.181885 
L 519.419496 -614.943155 
L 513.401464 -614.704425 
L 507.383433 -614.465695 
L 501.365401 -614.247193 
L 495.34737 -614.241424 
L 489.329338 -614.235654 
L 483.311307 -614.076469 
L 477.293275 -613.905051 
L 471.275244 -613.753115 
L 465.257212 -613.637487 
L 459.23918 -613.653465 
L 453.221149 -613.669444 
L 447.203117 -613.637297 
L 441.185086 -613.458662 
L 435.167054 -613.280026 
L 429.149023 -613.303611 
L 423.130991 -613.543029 
L 417.11296 -613.51791 
L 411.094928 -613.486948 
L 405.076896 -613.392626 
L 399.058865 -613.202627 
z
" style="stroke: #ffffff; stroke-opacity: 0.15; stroke-width: 0.24"/>
    </defs>
    <g clip-path="url(#p1a376f1107)">
     <use xlink:href="#me45c914906" x="0" y="825.451719" style="fill: #f06043; fill-opacity: 0.15; stroke: #ffffff; stroke-opacity: 0.15; stroke-width: 0.24"/>
    </g>
   </g>
   <g id="line2d_1">
    <path d="M 160.744815 201.964063 
L 169.571262 202.197642 
L 178.397708 202.431221 
L 187.224154 202.6648 
L 196.0506 202.898379 
L 204.877047 203.131959 
L 213.703493 203.365538 
L 222.529939 203.599117 
L 231.356386 203.832696 
L 240.182832 204.066275 
L 249.009278 204.299854 
L 257.835724 204.533433 
L 266.662171 204.767013 
L 275.488617 205.000592 
L 284.315063 205.234171 
L 293.14151 205.46775 
L 301.967956 205.701329 
L 310.794402 205.934908 
L 319.620848 206.168487 
L 328.447295 206.402067 
L 337.273741 206.635646 
L 346.100187 206.869225 
L 354.926634 207.102804 
L 363.75308 207.336383 
L 372.579526 207.569962 
L 381.405972 207.803541 
L 390.232419 208.037121 
L 399.058865 208.2707 
L 407.885311 208.504279 
L 416.711757 208.737858 
L 425.538204 208.971437 
L 434.36465 209.205016 
L 443.191096 209.438595 
L 452.017543 209.672175 
L 460.843989 209.905754 
L 469.670435 210.139333 
L 478.496881 210.372912 
L 487.323328 210.606491 
L 496.149774 210.84007 
L 504.97622 211.073649 
L 513.802667 211.307229 
L 522.629113 211.540808 
L 531.455559 211.774387 
L 540.282005 212.007966 
L 549.108452 212.241545 
L 557.934898 212.475124 
L 566.761344 212.708703 
L 575.587791 212.942283 
L 584.414237 213.175862 
L 593.240683 213.409441 
L 602.067129 213.64302 
L 610.893576 213.876599 
L 619.720022 214.110178 
L 628.546468 214.343758 
L 637.372915 214.577337 
L 646.199361 214.810916 
L 655.025807 215.044495 
L 663.852253 215.278074 
L 672.6787 215.511653 
L 681.505146 215.745232 
L 690.331592 215.978812 
L 699.158038 216.212391 
L 707.984485 216.44597 
L 716.810931 216.679549 
L 725.637377 216.913128 
L 734.463824 217.146707 
L 743.29027 217.380286 
L 752.116716 217.613866 
L 760.943162 217.847445 
L 769.769609 218.081024 
L 778.596055 218.314603 
L 787.422501 218.548182 
L 796.248948 218.781761 
L 805.075394 219.01534 
L 813.90184 219.24892 
L 822.728286 219.482499 
L 831.554733 219.716078 
L 840.381179 219.949657 
L 849.207625 220.183236 
L 858.034072 220.416815 
L 866.860518 220.650394 
L 875.686964 220.883974 
L 884.51341 221.117553 
L 893.339857 221.351132 
L 902.166303 221.584711 
L 910.992749 221.81829 
L 919.819196 222.051869 
L 928.645642 222.285448 
L 937.472088 222.519028 
L 946.298534 222.752607 
L 955.124981 222.986186 
L 963.951427 223.219765 
L 972.777873 223.453344 
L 981.604319 223.686923 
L 990.430766 223.920502 
L 999.257212 224.154082 
L 1008.083658 224.387661 
L 1016.910105 224.62124 
L 1025.736551 224.854819 
L 1034.562997 225.088398 
" clip-path="url(#p1a376f1107)" style="fill: none; stroke: #841e5a; stroke-width: 9; stroke-linecap: round"/>
   </g>
   <g id="line2d_2">
    <path d="M 399.058865 395.90917 
L 405.076896 393.372345 
L 411.094928 390.83552 
L 417.11296 388.298695 
L 423.130991 385.76187 
L 429.149023 383.225045 
L 435.167054 380.688219 
L 441.185086 378.151394 
L 447.203117 375.614569 
L 453.221149 373.077744 
L 459.23918 370.540919 
L 465.257212 368.004094 
L 471.275244 365.467269 
L 477.293275 362.930444 
L 483.311307 360.393619 
L 489.329338 357.856793 
L 495.34737 355.319968 
L 501.365401 352.783143 
L 507.383433 350.246318 
L 513.401464 347.709493 
L 519.419496 345.172668 
L 525.437528 342.635843 
L 531.455559 340.099018 
L 537.473591 337.562193 
L 543.491622 335.025367 
L 549.509654 332.488542 
L 555.527685 329.951717 
L 561.545717 327.414892 
L 567.563748 324.878067 
L 573.58178 322.341242 
L 579.599812 319.804417 
L 585.617843 317.267592 
L 591.635875 314.730767 
L 597.653906 312.193941 
L 603.671938 309.657116 
L 609.689969 307.120291 
L 615.708001 304.583466 
L 621.726032 302.046641 
L 627.744064 299.509816 
L 633.762096 296.972991 
L 639.780127 294.436166 
L 645.798159 291.899341 
L 651.81619 289.362515 
L 657.834222 286.82569 
L 663.852253 284.288865 
L 669.870285 281.75204 
L 675.888316 279.215215 
L 681.906348 276.67839 
L 687.92438 274.141565 
L 693.942411 271.60474 
L 699.960443 269.067915 
L 705.978474 266.531089 
L 711.996506 263.994264 
L 718.014537 261.457439 
L 724.032569 258.920614 
L 730.0506 256.383789 
L 736.068632 253.846964 
L 742.086664 251.310139 
L 748.104695 248.773314 
L 754.122727 246.236489 
L 760.140758 243.699663 
L 766.15879 241.162838 
L 772.176821 238.626013 
L 778.194853 236.089188 
L 784.212884 233.552363 
L 790.230916 231.015538 
L 796.248948 228.478713 
L 802.266979 225.941888 
L 808.285011 223.405063 
L 814.303042 220.868237 
L 820.321074 218.331412 
L 826.339105 215.794587 
L 832.357137 213.257762 
L 838.375168 210.720937 
L 844.3932 208.184112 
L 850.411232 205.647287 
L 856.429263 203.110462 
L 862.447295 200.573637 
L 868.465326 198.036811 
L 874.483358 195.499986 
L 880.501389 192.963161 
L 886.519421 190.426336 
L 892.537452 187.889511 
L 898.555484 185.352686 
L 904.573516 182.815861 
L 910.591547 180.279036 
L 916.609579 177.74221 
L 922.62761 175.205385 
L 928.645642 172.66856 
L 934.663673 170.131735 
L 940.681705 167.59491 
L 946.699736 165.058085 
L 952.717768 162.52126 
L 958.7358 159.984435 
L 964.753831 157.44761 
L 970.771863 154.910784 
L 976.789894 152.373959 
L 982.807926 149.837134 
L 988.825957 147.300309 
L 994.843989 144.763484 
" clip-path="url(#p1a376f1107)" style="fill: none; stroke: #f06043; stroke-width: 9; stroke-linecap: round"/>
   </g>
   <g id="patch_3">
    <path d="M 117.053906 726.84 
L 117.053906 7.2 
" style="fill: none; stroke: #262626; stroke-width: 0.8; stroke-linejoin: miter; stroke-linecap: square"/>
   </g>
   <g id="patch_4">
    <path d="M 117.053906 726.84 
L 1078.253906 726.84 
" style="fill: none; stroke: #262626; stroke-width: 0.8; stroke-linejoin: miter; stroke-linecap: square"/>
   </g>
   <g id="legend_1">
    <g id="patch_5">
     <path d="M 916.253906 116.071875 
L 1057.253906 116.071875 
Q 1063.253906 116.071875 1063.253906 110.071875 
L 1063.253906 28.2 
Q 1063.253906 22.2 1057.253906 22.2 
L 916.253906 22.2 
Q 910.253906 22.2 910.253906 28.2 
L 910.253906 110.071875 
Q 910.253906 116.071875 916.253906 116.071875 
z
" style="fill: #ffffff; opacity: 0.8; stroke: #cccccc; stroke-width: 0.24; stroke-linejoin: miter"/>
    </g>
    <g id="PathCollection_3">
     <g>
      <use xlink:href="#m90218a70fb" x="952.253906" y="47.798437" style="fill: #841e5a; fill-opacity: 0.8"/>
     </g>
    </g>
    <g id="text_16">
     <!-- CO -->
     <g style="fill: #262626" transform="translate(1006.253906 55.673437)scale(0.3 -0.3)">
      <use xlink:href="#ArialMT-43"/>
      <use xlink:href="#ArialMT-4f" x="72.216797"/>
     </g>
    </g>
    <g id="PathCollection_4">
     <g>
      <use xlink:href="#m6525d75866" x="952.253906" y="90.234375" style="fill: #f06043; fill-opacity: 0.8"/>
     </g>
    </g>
    <g id="text_17">
     <!-- CD -->
     <g style="fill: #262626" transform="translate(1006.253906 98.109375)scale(0.3 -0.3)">
      <defs>
       <path id="ArialMT-44" d="M 494 0 
L 494 4581 
L 2072 4581 
Q 2606 4581 2888 4516 
Q 3281 4425 3559 4188 
Q 3922 3881 4101 3404 
Q 4281 2928 4281 2316 
Q 4281 1794 4159 1391 
Q 4038 988 3847 723 
Q 3656 459 3429 307 
Q 3203 156 2883 78 
Q 2563 0 2147 0 
L 494 0 
z
M 1100 541 
L 2078 541 
Q 2531 541 2789 625 
Q 3047 709 3200 863 
Q 3416 1078 3536 1442 
Q 3656 1806 3656 2325 
Q 3656 3044 3420 3430 
Q 3184 3816 2847 3947 
Q 2603 4041 2063 4041 
L 1100 4041 
L 1100 541 
z
" transform="scale(0.015625)"/>
      </defs>
      <use xlink:href="#ArialMT-43"/>
      <use xlink:href="#ArialMT-44" x="72.216797"/>
     </g>
    </g>
   </g>
  </g>
  <g id="legend_2">
   <g id="text_18">
    <!-- group -->
    <g style="fill: #262626" transform="translate(981.167187 372.816484)scale(0.1 -0.1)">
     <defs>
      <path id="ArialMT-67" d="M 319 -275 
L 866 -356 
Q 900 -609 1056 -725 
Q 1266 -881 1628 -881 
Q 2019 -881 2231 -725 
Q 2444 -569 2519 -288 
Q 2563 -116 2559 434 
Q 2191 0 1641 0 
Q 956 0 581 494 
Q 206 988 206 1678 
Q 206 2153 378 2554 
Q 550 2956 876 3175 
Q 1203 3394 1644 3394 
Q 2231 3394 2613 2919 
L 2613 3319 
L 3131 3319 
L 3131 450 
Q 3131 -325 2973 -648 
Q 2816 -972 2473 -1159 
Q 2131 -1347 1631 -1347 
Q 1038 -1347 672 -1080 
Q 306 -813 319 -275 
z
M 784 1719 
Q 784 1066 1043 766 
Q 1303 466 1694 466 
Q 2081 466 2343 764 
Q 2606 1063 2606 1700 
Q 2606 2309 2336 2618 
Q 2066 2928 1684 2928 
Q 1309 2928 1046 2623 
Q 784 2319 784 1719 
z
" transform="scale(0.015625)"/>
      <path id="ArialMT-75" d="M 2597 0 
L 2597 488 
Q 2209 -75 1544 -75 
Q 1250 -75 995 37 
Q 741 150 617 320 
Q 494 491 444 738 
Q 409 903 409 1263 
L 409 3319 
L 972 3319 
L 972 1478 
Q 972 1038 1006 884 
Q 1059 663 1231 536 
Q 1403 409 1656 409 
Q 1909 409 2131 539 
Q 2353 669 2445 892 
Q 2538 1116 2538 1541 
L 2538 3319 
L 3100 3319 
L 3100 0 
L 2597 0 
z
" transform="scale(0.015625)"/>
      <path id="ArialMT-70" d="M 422 -1272 
L 422 3319 
L 934 3319 
L 934 2888 
Q 1116 3141 1344 3267 
Q 1572 3394 1897 3394 
Q 2322 3394 2647 3175 
Q 2972 2956 3137 2557 
Q 3303 2159 3303 1684 
Q 3303 1175 3120 767 
Q 2938 359 2589 142 
Q 2241 -75 1856 -75 
Q 1575 -75 1351 44 
Q 1128 163 984 344 
L 984 -1272 
L 422 -1272 
z
M 931 1641 
Q 931 1000 1190 694 
Q 1450 388 1819 388 
Q 2194 388 2461 705 
Q 2728 1022 2728 1688 
Q 2728 2322 2467 2637 
Q 2206 2953 1844 2953 
Q 1484 2953 1207 2617 
Q 931 2281 931 1641 
z
" transform="scale(0.015625)"/>
     </defs>
     <use xlink:href="#ArialMT-67"/>
     <use xlink:href="#ArialMT-72" x="55.615234"/>
     <use xlink:href="#ArialMT-6f" x="88.916016"/>
     <use xlink:href="#ArialMT-75" x="144.53125"/>
     <use xlink:href="#ArialMT-70" x="200.146484"/>
    </g>
   </g>
   <g id="PathCollection_5">
    <g>
     <use xlink:href="#m90218a70fb" x="959.453906" y="403.519609" style="fill: #841e5a; fill-opacity: 0.8"/>
    </g>
   </g>
   <g id="text_19">
    <!-- CO -->
    <g style="fill: #262626" transform="translate(1013.453906 411.394609)scale(0.3 -0.3)">
     <use xlink:href="#ArialMT-43"/>
     <use xlink:href="#ArialMT-4f" x="72.216797"/>
    </g>
   </g>
   <g id="PathCollection_6">
    <g>
     <use xlink:href="#m6525d75866" x="959.453906" y="445.955547" style="fill: #f06043; fill-opacity: 0.8"/>
    </g>
   </g>
   <g id="text_20">
    <!-- CD -->
    <g style="fill: #262626" transform="translate(1013.453906 453.830547)scale(0.3 -0.3)">
     <use xlink:href="#ArialMT-43"/>
     <use xlink:href="#ArialMT-44" x="72.216797"/>
    </g>
   </g>
  </g>
 </g>
 <defs>
  <clipPath id="p1a376f1107">
   <rect x="117.053906" y="7.2" width="961.2" height="719.64"/>
  </clipPath>
 </defs>
</svg>
