<svg id="Layer_1" data-name="Layer 1" xmlns="http://www.w3.org/2000/svg" xmlns:xlink="http://www.w3.org/1999/xlink" viewBox="0 0 1514.51 1741.69"><defs><style>.cls-1,.cls-10,.cls-12{fill:none;}.cls-2{fill:#fff;}.cls-3{fill:#262626;}.cls-4{clip-path:url(#clip-path);}.cls-5{fill:#2c2c75;}.cls-5,.cls-8{stroke:#fff;stroke-width:0.24px;}.cls-6{clip-path:url(#clip-path-2);}.cls-7{clip-path:url(#clip-path-3);}.cls-8{fill:#e8b921;}.cls-9{clip-path:url(#clip-path-7);}.cls-10{stroke:#424242;stroke-linecap:round;stroke-linejoin:round;stroke-width:10.8px;}.cls-11{clip-path:url(#clip-path-11);}.cls-12{stroke:#262626;stroke-linecap:square;stroke-width:0.8px;}.cls-13{font-size:50px;font-family:MyriadPro-Regular, Myriad Pro;}.cls-14{letter-spacing:-0.01em;}.cls-15{letter-spacing:-0.01em;}.cls-16{letter-spacing:-0.01em;}.cls-17{letter-spacing:0.01em;}.cls-18{letter-spacing:0em;}.cls-19{letter-spacing:-0.02em;}</style><clipPath id="clip-path" transform="translate(-7.2 -7.08)"><rect class="cls-1" x="171.71" y="21.52" width="1350" height="863.57"/></clipPath><clipPath id="clip-path-2" transform="translate(-7.2 -7.08)"><rect class="cls-1" x="532.41" y="21.49" width="1350" height="863.57"/></clipPath><clipPath id="clip-path-3" transform="translate(-7.2 -7.08)"><rect class="cls-1" x="-168.72" y="21.52" width="1350" height="863.57"/></clipPath><clipPath id="clip-path-7" transform="translate(-7.2 -7.08)"><rect class="cls-1" x="-168.72" y="21.49" width="1350" height="863.57"/></clipPath><clipPath id="clip-path-11" transform="translate(-7.2 -7.08)"><rect class="cls-1" x="-168.72" y="31.61" width="1350" height="863.57"/></clipPath></defs><g id="patch_2" data-name="patch 2"><path class="cls-2" d="M171.71,885.08h1350V21.52h-1350Z" transform="translate(-7.2 -7.08)"/></g><g id="matplotlib.axis_2" data-name="matplotlib.axis 2"><g id="ytick_1" data-name="ytick 1"><g id="text_6" data-name="text 6"><path id="ArialMT-53" class="cls-3" d="M77.34,891.9l3.68-.31a6.66,6.66,0,0,0,1.91,4A5.17,5.17,0,0,0,86.54,897a5.62,5.62,0,0,0,4.29-1.91A7.25,7.25,0,0,0,92.59,890a6.55,6.55,0,0,0-1.69-4.75,5.9,5.9,0,0,0-4.43-1.74,6.22,6.22,0,0,0-3.07.77,6.06,6.06,0,0,0-2.14,2l-3.3-.43,2.77-14.7H95v3.36H83.54L82,882.21a9.3,9.3,0,0,1,5.41-1.8,8.59,8.59,0,0,1,6.33,2.6,9.09,9.09,0,0,1,2.58,6.68,10.44,10.44,0,0,1-2.27,6.72,9.06,9.06,0,0,1-7.51,3.48,9.28,9.28,0,0,1-6.39-2.19A8.54,8.54,0,0,1,77.34,891.9Z" transform="translate(-7.2 -7.08)"/><path id="ArialMT-48" class="cls-3" d="M99.58,885.28a26,26,0,0,1,1-8.17,10,10,0,0,1,3.1-4.78,7.92,7.92,0,0,1,5.18-1.68,8.47,8.47,0,0,1,4,.93,7.74,7.74,0,0,1,2.87,2.68,14.43,14.43,0,0,1,1.78,4.25,28.3,28.3,0,0,1,.64,6.77,26.21,26.21,0,0,1-1,8.13,10.17,10.17,0,0,1-3.09,4.79,8,8,0,0,1-5.21,1.69,7.85,7.85,0,0,1-6.5-3C100.53,894.53,99.58,890.66,99.58,885.28Zm3.61,0q0,7.05,1.65,9.39a4.72,4.72,0,0,0,8.15,0c1.1-1.57,1.65-4.69,1.65-9.38s-.55-7.85-1.65-9.39a4.9,4.9,0,0,0-4.11-2.33,4.51,4.51,0,0,0-3.87,2.05C103.8,877.35,103.19,880.58,103.19,885.28Z" transform="translate(-7.2 -7.08)"/><path id="ArialMT-48-2" data-name="ArialMT-48" class="cls-3" d="M121.83,885.28a26.35,26.35,0,0,1,1-8.17,10.2,10.2,0,0,1,3.1-4.78,8,8,0,0,1,5.19-1.68,8.42,8.42,0,0,1,4,.93,7.66,7.66,0,0,1,2.87,2.68,14.17,14.17,0,0,1,1.78,4.25,28.23,28.23,0,0,1,.65,6.77,26.21,26.21,0,0,1-1,8.13,10.24,10.24,0,0,1-3.09,4.79,8,8,0,0,1-5.21,1.69,7.84,7.84,0,0,1-6.5-3C122.77,894.53,121.83,890.66,121.83,885.28Zm3.61,0q0,7.05,1.65,9.39a4.71,4.71,0,0,0,8.14,0c1.1-1.57,1.65-4.69,1.65-9.38s-.55-7.85-1.65-9.39a4.9,4.9,0,0,0-4.11-2.33,4.54,4.54,0,0,0-3.87,2.05C126,877.35,125.44,880.58,125.44,885.28Z" transform="translate(-7.2 -7.08)"/></g></g><g id="ytick_2" data-name="ytick 2"><g id="text_7" data-name="text 7"><path id="ArialMT-54" class="cls-3" d="M95.57,705.07l-3.49.27a6.51,6.51,0,0,0-1.33-3,4.66,4.66,0,0,0-3.51-1.51,4.85,4.85,0,0,0-2.95.94,8,8,0,0,0-2.62,3.54,18.48,18.48,0,0,0-1,6.62,8.09,8.09,0,0,1,3.11-2.87,8.29,8.29,0,0,1,3.85-.94,7.94,7.94,0,0,1,6,2.59,9.27,9.27,0,0,1,2.48,6.69,10.93,10.93,0,0,1-1.17,5,8.46,8.46,0,0,1-3.19,3.54,8.71,8.71,0,0,1-4.61,1.23A9,9,0,0,1,80,723.94q-2.78-3.23-2.77-10.65,0-8.31,3.06-12.07a8.82,8.82,0,0,1,7.21-3.28A8.11,8.11,0,0,1,93,699.83,8,8,0,0,1,95.57,705.07ZM81.22,717.41a8.25,8.25,0,0,0,.77,3.48,5.79,5.79,0,0,0,2.16,2.53,5.37,5.37,0,0,0,2.91.87,5,5,0,0,0,3.83-1.8,7.08,7.08,0,0,0,1.6-4.89,6.59,6.59,0,0,0-1.59-4.67,5.18,5.18,0,0,0-4-1.71,5.43,5.43,0,0,0-4,1.71A6.18,6.18,0,0,0,81.22,717.41Z" transform="translate(-7.2 -7.08)"/><path id="ArialMT-48-3" data-name="ArialMT-48" class="cls-3" d="M99.58,712.57a26.09,26.09,0,0,1,1-8.18,10,10,0,0,1,3.1-4.77,7.92,7.92,0,0,1,5.18-1.68,8.47,8.47,0,0,1,4,.93,7.71,7.71,0,0,1,2.87,2.67,14.38,14.38,0,0,1,1.78,4.26,28.3,28.3,0,0,1,.64,6.77,26.21,26.21,0,0,1-1,8.13,10.17,10.17,0,0,1-3.09,4.79,8,8,0,0,1-5.21,1.68,7.85,7.85,0,0,1-6.5-3Q99.59,720.63,99.58,712.57Zm3.61,0q0,7,1.65,9.38a4.71,4.71,0,0,0,8.15,0c1.1-1.56,1.65-4.69,1.65-9.37s-.55-7.85-1.65-9.4a4.89,4.89,0,0,0-4.11-2.32,4.49,4.49,0,0,0-3.87,2Q103.2,705.51,103.19,712.57Z" transform="translate(-7.2 -7.08)"/><path id="ArialMT-48-4" data-name="ArialMT-48" class="cls-3" d="M121.83,712.57a26.42,26.42,0,0,1,1-8.18,10.16,10.16,0,0,1,3.1-4.77,8,8,0,0,1,5.19-1.68,8.42,8.42,0,0,1,4,.93,7.64,7.64,0,0,1,2.87,2.67,14.12,14.12,0,0,1,1.78,4.26,28.23,28.23,0,0,1,.65,6.77,26.21,26.21,0,0,1-1,8.13,10.24,10.24,0,0,1-3.09,4.79,8,8,0,0,1-5.21,1.68,7.84,7.84,0,0,1-6.5-3Q121.82,720.63,121.83,712.57Zm3.61,0q0,7,1.65,9.38a4.7,4.7,0,0,0,8.14,0c1.1-1.56,1.65-4.69,1.65-9.37s-.55-7.85-1.65-9.4a4.89,4.89,0,0,0-4.11-2.32,4.52,4.52,0,0,0-3.87,2Q125.44,705.51,125.44,712.57Z" transform="translate(-7.2 -7.08)"/></g></g><g id="ytick_3" data-name="ytick 3"><g id="text_8" data-name="text 8"><path id="ArialMT-55" class="cls-3" d="M77.57,529.09v-3.38H96.1v2.74a38.71,38.71,0,0,0-5.42,7.73,46.56,46.56,0,0,0-4.14,9.92A36.18,36.18,0,0,0,85.19,554H81.57a35,35,0,0,1,1.33-8.16,42.61,42.61,0,0,1,3.64-9.23,40.16,40.16,0,0,1,5-7.49Z" transform="translate(-7.2 -7.08)"/><path id="ArialMT-48-5" data-name="ArialMT-48" class="cls-3" d="M99.58,539.85a26.06,26.06,0,0,1,1-8.17,10,10,0,0,1,3.1-4.78,7.92,7.92,0,0,1,5.18-1.68,8.47,8.47,0,0,1,4,.93,7.74,7.74,0,0,1,2.87,2.68,14.43,14.43,0,0,1,1.78,4.25,28.36,28.36,0,0,1,.64,6.77,26.21,26.21,0,0,1-1,8.13,10.12,10.12,0,0,1-3.09,4.79,8.71,8.71,0,0,1-11.71-1.28Q99.59,547.92,99.58,539.85Zm3.61,0q0,7,1.65,9.39a4.72,4.72,0,0,0,8.15,0q1.65-2.34,1.65-9.38T113,530.46a4.9,4.9,0,0,0-4.11-2.33,4.51,4.51,0,0,0-3.87,2Q103.2,532.8,103.19,539.85Z" transform="translate(-7.2 -7.08)"/><path id="ArialMT-48-6" data-name="ArialMT-48" class="cls-3" d="M121.83,539.85a26.4,26.4,0,0,1,1-8.17,10.2,10.2,0,0,1,3.1-4.78,8,8,0,0,1,5.19-1.68,8.42,8.42,0,0,1,4,.93,7.66,7.66,0,0,1,2.87,2.68,14.17,14.17,0,0,1,1.78,4.25,28.28,28.28,0,0,1,.65,6.77,26.21,26.21,0,0,1-1,8.13,10.19,10.19,0,0,1-3.09,4.79,7.94,7.94,0,0,1-5.21,1.69,7.84,7.84,0,0,1-6.5-3Q121.82,547.92,121.83,539.85Zm3.61,0q0,7,1.65,9.39a4.71,4.71,0,0,0,8.14,0q1.65-2.34,1.65-9.38t-1.65-9.39a4.9,4.9,0,0,0-4.11-2.33,4.54,4.54,0,0,0-3.87,2Q125.44,532.8,125.44,539.85Z" transform="translate(-7.2 -7.08)"/></g></g><g id="ytick_4" data-name="ytick 4"><g id="text_9" data-name="text 9"><path id="ArialMT-56" class="cls-3" d="M82.74,365.73a6.62,6.62,0,0,1-3.24-2.28,6,6,0,0,1-1-3.56,7,7,0,0,1,2.24-5.25,9.44,9.44,0,0,1,12,.05A7,7,0,0,1,95,360a5.82,5.82,0,0,1-1,3.47,6.53,6.53,0,0,1-3.17,2.27,7.3,7.3,0,0,1,5.39,7.35,8.25,8.25,0,0,1-2.6,6.17,10.58,10.58,0,0,1-13.67,0,8.37,8.37,0,0,1-2.6-6.26,7.59,7.59,0,0,1,1.42-4.68A7.12,7.12,0,0,1,82.74,365.73Zm-.7-6a4.5,4.5,0,0,0,1.31,3.33,4.67,4.67,0,0,0,3.4,1.28,4.56,4.56,0,0,0,3.33-1.27,4.23,4.23,0,0,0,1.3-3.14A4.41,4.41,0,0,0,90,356.71a4.93,4.93,0,0,0-6.67,0A4.14,4.14,0,0,0,82,359.77ZM80.91,373a6.44,6.44,0,0,0,.71,2.91,5.07,5.07,0,0,0,2.12,2.18,6.26,6.26,0,0,0,3,.77,5.65,5.65,0,0,0,4.15-1.62,5.55,5.55,0,0,0,1.65-4.13,5.67,5.67,0,0,0-1.69-4.2,5.83,5.83,0,0,0-4.23-1.66A5.61,5.61,0,0,0,80.91,373Z" transform="translate(-7.2 -7.08)"/><path id="ArialMT-48-7" data-name="ArialMT-48" class="cls-3" d="M99.58,367.14a26.13,26.13,0,0,1,1-8.18,10.07,10.07,0,0,1,3.1-4.77,7.92,7.92,0,0,1,5.18-1.68,8.47,8.47,0,0,1,4,.93,7.79,7.79,0,0,1,2.87,2.67,14.61,14.61,0,0,1,1.78,4.26,28.3,28.3,0,0,1,.64,6.77,26.21,26.21,0,0,1-1,8.13,10.17,10.17,0,0,1-3.09,4.79,8,8,0,0,1-5.21,1.69,7.85,7.85,0,0,1-6.5-3Q99.59,375.2,99.58,367.14Zm3.61,0q0,7,1.65,9.39a4.72,4.72,0,0,0,8.15,0q1.65-2.34,1.65-9.37T113,357.75a4.9,4.9,0,0,0-4.11-2.33,4.49,4.49,0,0,0-3.87,2.05C103.8,359.21,103.19,362.44,103.19,367.14Z" transform="translate(-7.2 -7.08)"/><path id="ArialMT-48-8" data-name="ArialMT-48" class="cls-3" d="M121.83,367.14a26.47,26.47,0,0,1,1-8.18,10.22,10.22,0,0,1,3.1-4.77,8,8,0,0,1,5.19-1.68,8.42,8.42,0,0,1,4,.93,7.72,7.72,0,0,1,2.87,2.67,14.34,14.34,0,0,1,1.78,4.26,28.23,28.23,0,0,1,.65,6.77,26.21,26.21,0,0,1-1,8.13,10.24,10.24,0,0,1-3.09,4.79,8,8,0,0,1-5.21,1.69,7.84,7.84,0,0,1-6.5-3Q121.82,375.2,121.83,367.14Zm3.61,0q0,7,1.65,9.39a4.71,4.71,0,0,0,8.14,0q1.65-2.34,1.65-9.37t-1.65-9.39a4.9,4.9,0,0,0-4.11-2.33,4.52,4.52,0,0,0-3.87,2.05C126,359.21,125.44,362.44,125.44,367.14Z" transform="translate(-7.2 -7.08)"/></g></g><g id="ytick_5" data-name="ytick 5"><g id="text_10" data-name="text 10"><path id="ArialMT-57" class="cls-3" d="M77.86,201.93l3.38-.32a5.89,5.89,0,0,0,1.64,3.46A4.49,4.49,0,0,0,86,206.14a5.26,5.26,0,0,0,2.83-.74,6,6,0,0,0,2-2,11.74,11.74,0,0,0,1.31-3.35,17.77,17.77,0,0,0,.53-4.3c0-.15,0-.39,0-.7a8.18,8.18,0,0,1-2.88,2.72,7.82,7.82,0,0,1-4,1.05,8,8,0,0,1-6-2.58,9.43,9.43,0,0,1-2.45-6.8,9.67,9.67,0,0,1,2.56-7,8.61,8.61,0,0,1,6.44-2.66,9.18,9.18,0,0,1,5.1,1.51A9.33,9.33,0,0,1,95,185.59a21.1,21.1,0,0,1,1.2,8A26.15,26.15,0,0,1,95,202.38a10.19,10.19,0,0,1-3.55,5,9.09,9.09,0,0,1-5.51,1.7,7.56,7.56,0,0,1-8-7.1Zm14.39-12.64a6.88,6.88,0,0,0-1.61-4.81,5,5,0,0,0-3.87-1.77,5.31,5.31,0,0,0-4.08,1.91,7.08,7.08,0,0,0-1.74,5A6.17,6.17,0,0,0,82.6,194a5.45,5.45,0,0,0,4.07,1.7,5.23,5.23,0,0,0,4-1.7A6.75,6.75,0,0,0,92.25,189.29Z" transform="translate(-7.2 -7.08)"/><path id="ArialMT-48-9" data-name="ArialMT-48" class="cls-3" d="M99.58,194.43a26.09,26.09,0,0,1,1-8.18,10,10,0,0,1,3.1-4.77,7.93,7.93,0,0,1,5.18-1.69,8.47,8.47,0,0,1,4,.94,7.63,7.63,0,0,1,2.87,2.67,14.38,14.38,0,0,1,1.78,4.26,28.25,28.25,0,0,1,.64,6.77,26.3,26.3,0,0,1-1,8.13,10.09,10.09,0,0,1-3.09,4.78,8.71,8.71,0,0,1-11.71-1.28Q99.59,202.49,99.58,194.43Zm3.61,0q0,7,1.65,9.38a4.72,4.72,0,0,0,8.15,0c1.1-1.56,1.65-4.69,1.65-9.37s-.55-7.85-1.65-9.4a4.89,4.89,0,0,0-4.11-2.32,4.49,4.49,0,0,0-3.87,2Q103.2,187.37,103.19,194.43Z" transform="translate(-7.2 -7.08)"/><path id="ArialMT-48-10" data-name="ArialMT-48" class="cls-3" d="M121.83,194.43a26.42,26.42,0,0,1,1-8.18,10.11,10.11,0,0,1,3.1-4.77,8,8,0,0,1,5.19-1.69,8.43,8.43,0,0,1,4,.94,7.56,7.56,0,0,1,2.87,2.67,14.12,14.12,0,0,1,1.78,4.26,28.17,28.17,0,0,1,.65,6.77,26.3,26.3,0,0,1-1,8.13,10.16,10.16,0,0,1-3.09,4.78,7.94,7.94,0,0,1-5.21,1.69,7.84,7.84,0,0,1-6.5-3Q121.82,202.49,121.83,194.43Zm3.61,0q0,7,1.65,9.38a4.71,4.71,0,0,0,8.14,0c1.1-1.56,1.65-4.69,1.65-9.37s-.55-7.85-1.65-9.4a4.89,4.89,0,0,0-4.11-2.32,4.52,4.52,0,0,0-3.87,2Q125.44,187.37,125.44,194.43Z" transform="translate(-7.2 -7.08)"/></g></g><g id="ytick_6" data-name="ytick 6"><g id="text_11" data-name="text 11"><path id="ArialMT-49" class="cls-3" d="M68.33,35.83H64.82V13.43a18.43,18.43,0,0,1-3.33,2.42,24.43,24.43,0,0,1-3.7,1.82v-3.4a21.61,21.61,0,0,0,5.15-3.36,13.29,13.29,0,0,0,3.13-3.83h2.26Z" transform="translate(-7.2 -7.08)"/><path id="ArialMT-48-11" data-name="ArialMT-48" class="cls-3" d="M77.34,21.71a26.35,26.35,0,0,1,1-8.17,10.2,10.2,0,0,1,3.1-4.78,8,8,0,0,1,5.19-1.68,8.42,8.42,0,0,1,4,.93,7.66,7.66,0,0,1,2.87,2.68,14.17,14.17,0,0,1,1.78,4.25A28.23,28.23,0,0,1,96,21.71a26.21,26.21,0,0,1-1,8.13,10.19,10.19,0,0,1-3.09,4.79,7.94,7.94,0,0,1-5.21,1.69,7.84,7.84,0,0,1-6.5-3Q77.34,29.78,77.34,21.71Zm3.61,0q0,7,1.65,9.39a4.71,4.71,0,0,0,8.14,0c1.1-1.57,1.65-4.69,1.65-9.38s-.55-7.85-1.65-9.39A4.9,4.9,0,0,0,86.63,10a4.54,4.54,0,0,0-3.87,2Q80.94,14.67,81,21.71Z" transform="translate(-7.2 -7.08)"/><path id="ArialMT-48-12" data-name="ArialMT-48" class="cls-3" d="M99.58,21.71a26,26,0,0,1,1-8.17,10.12,10.12,0,0,1,3.1-4.78,7.93,7.93,0,0,1,5.19-1.68A8.45,8.45,0,0,1,113,8a7.74,7.74,0,0,1,2.87,2.68,14.17,14.17,0,0,1,1.78,4.25,28.3,28.3,0,0,1,.64,6.77,26.24,26.24,0,0,1-1,8.13,10.13,10.13,0,0,1-3.1,4.79,8.7,8.7,0,0,1-11.7-1.28Q99.59,29.78,99.58,21.71Zm3.62,0q0,7,1.65,9.39a4.71,4.71,0,0,0,8.14,0c1.1-1.57,1.65-4.69,1.65-9.38s-.55-7.85-1.65-9.39A4.9,4.9,0,0,0,108.88,10,4.54,4.54,0,0,0,105,12Q103.2,14.67,103.2,21.71Z" transform="translate(-7.2 -7.08)"/><path id="ArialMT-48-13" data-name="ArialMT-48" class="cls-3" d="M121.83,21.71a26.35,26.35,0,0,1,1-8.17A10.2,10.2,0,0,1,126,8.76a8,8,0,0,1,5.19-1.68,8.47,8.47,0,0,1,4.05.93,7.71,7.71,0,0,1,2.86,2.68,14.17,14.17,0,0,1,1.79,4.25,28.83,28.83,0,0,1,.64,6.77,26.21,26.21,0,0,1-1,8.13,10.19,10.19,0,0,1-3.09,4.79,8.71,8.71,0,0,1-11.71-1.28Q121.82,29.78,121.83,21.71Zm3.61,0q0,7,1.65,9.39a4.72,4.72,0,0,0,8.15,0c1.1-1.57,1.65-4.69,1.65-9.38s-.55-7.85-1.65-9.39A4.91,4.91,0,0,0,131.12,10a4.51,4.51,0,0,0-3.86,2Q125.45,14.67,125.44,21.71Z" transform="translate(-7.2 -7.08)"/></g></g><g id="text_12" data-name="text 12"><path id="ArialMT-77" class="cls-3" d="M40,592.92H7.75V586.5l22.8-7.62q3.19-1.07,4.78-1.54-1.77-.55-5.17-1.71L7.75,567.92v-5.74H40v4.1H13l27,9.37v3.85l-27.42,9.31H40Z" transform="translate(-7.2 -7.08)"/><path id="ArialMT-101" class="cls-3" d="M32.44,539.83l.51-4.08a9.94,9.94,0,0,1,5.56,3.58,12.14,12.14,0,0,1-1.17,14.8q-3.17,3-8.85,3-5.89,0-9.14-3a10.29,10.29,0,0,1-3.26-7.87,10,10,0,0,1,3.19-7.65q3.18-3,9-3l1.06,0V553a9,9,0,0,0,5.89-2.18,6.48,6.48,0,0,0,2-4.88,6.08,6.08,0,0,0-1.14-3.71A7.55,7.55,0,0,0,32.44,539.83Zm-6.39,13v-13a7.82,7.82,0,0,0-4.41,1.49,6,6,0,0,0-2.29,4.9,6.32,6.32,0,0,0,1.82,4.59A7.25,7.25,0,0,0,26.05,552.82Z" transform="translate(-7.2 -7.08)"/><path id="ArialMT-97" class="cls-3" d="M37.08,515.55a14.94,14.94,0,0,1,2.64,4.23,12.3,12.3,0,0,1,.77,4.36,8.52,8.52,0,0,1-1.88,5.92,6.21,6.21,0,0,1-4.8,2.06,6.35,6.35,0,0,1-3.13-.78,6.43,6.43,0,0,1-2.28-2,9.72,9.72,0,0,1-1.29-2.85,27.17,27.17,0,0,1-.6-3.52,36,36,0,0,0-1.36-7l-1,0A4.35,4.35,0,0,0,20.71,517a6.63,6.63,0,0,0-1.34,4.5,7,7,0,0,0,1,4.12,5.91,5.91,0,0,0,3.46,2l-.53,3.87a9.55,9.55,0,0,1-4-1.74,7.65,7.65,0,0,1-2.35-3.49,15.56,15.56,0,0,1-.83-5.3,14,14,0,0,1,.71-4.85,6.49,6.49,0,0,1,1.77-2.75,6.37,6.37,0,0,1,2.69-1.23,22.68,22.68,0,0,1,3.64-.19h5.28a55.07,55.07,0,0,0,7-.26,8.88,8.88,0,0,0,2.8-1v4.13A8.45,8.45,0,0,1,37.08,515.55Zm-8.84.33a28.8,28.8,0,0,1,1.5,6.46,14.66,14.66,0,0,0,.8,3.45,3.44,3.44,0,0,0,1.28,1.57,3.52,3.52,0,0,0,4.51-.65,5.18,5.18,0,0,0,1.06-3.51,8.2,8.2,0,0,0-1-4.06,6.18,6.18,0,0,0-2.74-2.62,9.43,9.43,0,0,0-3.95-.64Z" transform="translate(-7.2 -7.08)"/><path id="ArialMT-110" class="cls-3" d="M40,505.75H16.62v-3.56h3.32a8.39,8.39,0,0,1-3.85-7.42,9.84,9.84,0,0,1,.76-3.88,6.11,6.11,0,0,1,2-2.65A7.54,7.54,0,0,1,21.76,487a22.4,22.4,0,0,1,3.85-.22H40v4H25.76a10.58,10.58,0,0,0-3.61.46,3.82,3.82,0,0,0-1.91,1.63,5.18,5.18,0,0,0-.71,2.76,6.43,6.43,0,0,0,1.6,4.37q1.61,1.83,6.08,1.83H40Z" transform="translate(-7.2 -7.08)"/><path id="ArialMT-32" class="cls-3" d="M40,483.69" transform="translate(-7.2 -7.08)"/><path id="ArialMT-82" class="cls-3" d="M40,467.65H7.75V453.37a18.9,18.9,0,0,1,.87-6.54,7.17,7.17,0,0,1,3.07-3.59,9.15,9.15,0,0,1,4.85-1.34,8.12,8.12,0,0,1,5.78,2.22q2.34,2.22,3,6.86a10.71,10.71,0,0,1,1.6-2.58,22.2,22.2,0,0,1,4.28-3.53L40,439.26v5.37l-6.7,4.26q-2.91,1.86-4.44,3.08a9.37,9.37,0,0,0-2.15,2.16,6.56,6.56,0,0,0-.87,1.94,14.5,14.5,0,0,0-.14,2.37v4.95H40Zm-18-4.26v-9.17a13.77,13.77,0,0,0-.61-4.56,4.88,4.88,0,0,0-1.93-2.51,5.25,5.25,0,0,0-2.89-.86A4.81,4.81,0,0,0,12.78,448q-1.47,1.67-1.47,5.25v10.19Z" transform="translate(-7.2 -7.08)"/><path id="ArialMT-84" class="cls-3" d="M40,427.82H11.55v10.61H7.75V412.9h3.8v10.65H40Z" transform="translate(-7.2 -7.08)"/><path id="ArialMT-32-2" data-name="ArialMT-32" class="cls-3" d="M40,412.78" transform="translate(-7.2 -7.08)"/><path id="ArialMT-40" class="cls-3" d="M49.43,389.75a39.5,39.5,0,0,1-9.67,5.54,30.38,30.38,0,0,1-21.49.57A41.83,41.83,0,0,1,7.2,389.75v-2.83c3.05,1.77,5.22,2.94,6.53,3.51a34.74,34.74,0,0,0,6.32,2.11,36.73,36.73,0,0,0,8.26.95q10.58,0,21.12-6.57Z" transform="translate(-7.2 -7.08)"/><path id="ArialMT-109" class="cls-3" d="M40,382.33H16.62v-3.54H19.9a8.32,8.32,0,0,1-2.76-2.92,8.18,8.18,0,0,1-1.05-4.15,7.69,7.69,0,0,1,1.08-4.26,5.73,5.73,0,0,1,3-2.34,8.4,8.4,0,0,1-4.09-7.21A7.09,7.09,0,0,1,18,352.58q1.92-1.87,5.92-1.87H40v3.93H25.26a10.62,10.62,0,0,0-3.41.39,3.25,3.25,0,0,0-1.68,1.39,4.29,4.29,0,0,0-.64,2.37,5.52,5.52,0,0,0,1.63,4.09q1.64,1.64,5.24,1.63H40v3.95H24.8a6.59,6.59,0,0,0-3.95,1,3.65,3.65,0,0,0-1.32,3.16,5.82,5.82,0,0,0,.87,3.09A5,5,0,0,0,23,377.73a14.26,14.26,0,0,0,4.87.64H40Z" transform="translate(-7.2 -7.08)"/><path id="ArialMT-115" class="cls-3" d="M33,346.42l-.61-3.91a5.5,5.5,0,0,0,3.6-1.83,6.44,6.44,0,0,0,1.25-4.21,6.23,6.23,0,0,0-1.1-4,3.32,3.32,0,0,0-2.61-1.32,2.4,2.4,0,0,0-2.11,1.17,16.76,16.76,0,0,0-1.34,4,37.23,37.23,0,0,1-1.9,6A6,6,0,0,1,26,344.9a5.94,5.94,0,0,1-3.13.86,6.09,6.09,0,0,1-2.89-.71,6.38,6.38,0,0,1-2.21-1.95,8.29,8.29,0,0,1-1.15-2.51,11.78,11.78,0,0,1-.48-3.42,13.45,13.45,0,0,1,.8-4.82A6.42,6.42,0,0,1,19,329.29a8.39,8.39,0,0,1,3.61-1.37l.53,3.87a4.17,4.17,0,0,0-2.81,1.53,5.6,5.6,0,0,0-1,3.57,6.49,6.49,0,0,0,.9,3.89,2.63,2.63,0,0,0,2.11,1.16,2.19,2.19,0,0,0,1.38-.48,3.52,3.52,0,0,0,1.06-1.52c.14-.39.48-1.56,1-3.5a48.29,48.29,0,0,1,1.85-5.85,5.9,5.9,0,0,1,2.07-2.6A5.78,5.78,0,0,1,33.1,327a6.67,6.67,0,0,1,3.73,1.16,7.51,7.51,0,0,1,2.7,3.33,12.05,12.05,0,0,1,1,4.91q0,4.56-1.9,6.94A8.77,8.77,0,0,1,33,346.42Z" transform="translate(-7.2 -7.08)"/><path id="ArialMT-41" class="cls-3" d="M49.43,319.75v2.83Q38.89,316,28.31,316a36.62,36.62,0,0,0-8.19.94A35.57,35.57,0,0,0,13.79,319a73.66,73.66,0,0,0-6.59,3.54v-2.83a42.12,42.12,0,0,1,11.07-6.11,30.25,30.25,0,0,1,21.49.59A40.11,40.11,0,0,1,49.43,319.75Z" transform="translate(-7.2 -7.08)"/></g></g><g id="patch_3" data-name="patch 3"><g class="cls-4"><path class="cls-5" d="M205.46,1748.65h135V477.33h-135Z" transform="translate(-7.2 -7.08)"/></g></g><g class="cls-6"><path class="cls-5" d="M903.66,1748.63h135V608.08h-135Z" transform="translate(-7.2 -7.08)"/></g><g class="cls-7"><path class="cls-5" d="M540,1748.65H675V91.71H540Z" transform="translate(-7.2 -7.08)"/></g><g id="patch_6" data-name="patch 6"><g class="cls-4"><path class="cls-5" d="M1218,1748.65h135V244H1218Z" transform="translate(-7.2 -7.08)"/></g></g><g id="patch_7" data-name="patch 7"><g class="cls-4"><path class="cls-8" d="M340.46,1748.65h135V473.26h-135Z" transform="translate(-7.2 -7.08)"/></g></g><g class="cls-6"><path class="cls-8" d="M1038.66,1748.63h135V606.72h-135Z" transform="translate(-7.2 -7.08)"/></g><g class="cls-9"><path class="cls-8" d="M675,1748.63H810V123.1H675Z" transform="translate(-7.2 -7.08)"/></g><g id="patch_10" data-name="patch 10"><g class="cls-4"><path class="cls-8" d="M1353,1748.65h135V243.05H1353Z" transform="translate(-7.2 -7.08)"/></g></g><g id="line2d_1" data-name="line2d 1"><g class="cls-4"><path class="cls-10" d="M273,497.94V456.07" transform="translate(-7.2 -7.08)"/></g></g><g id="line2d_2" data-name="line2d 2"><g class="cls-6"><path class="cls-10" d="M971.16,627.66V587.24" transform="translate(-7.2 -7.08)"/></g></g><g id="line2d_3" data-name="line2d 3"><g class="cls-11"><path class="cls-10" d="M607.53,124.69V74.88" transform="translate(-7.2 -7.08)"/></g></g><g id="line2d_4" data-name="line2d 4"><g class="cls-4"><path class="cls-10" d="M1285.46,270.47V217.29" transform="translate(-7.2 -7.08)"/></g></g><g id="line2d_5" data-name="line2d 5"><g class="cls-4"><path class="cls-10" d="M408,493.93V452.26" transform="translate(-7.2 -7.08)"/></g></g><g id="line2d_6" data-name="line2d 6"><g class="cls-6"><path class="cls-10" d="M1106.16,626.33V585.76" transform="translate(-7.2 -7.08)"/></g></g><g id="line2d_7" data-name="line2d 7"><g class="cls-9"><path class="cls-10" d="M742.53,149.77V96.1" transform="translate(-7.2 -7.08)"/></g></g><g id="line2d_8" data-name="line2d 8"><g class="cls-4"><path class="cls-10" d="M1420.46,270.65V217.47" transform="translate(-7.2 -7.08)"/></g></g><g id="patch_11" data-name="patch 11"><path class="cls-12" d="M151.5,885.08V21.52" transform="translate(-7.2 -7.08)"/></g><g id="patch_12" data-name="patch 12"><path class="cls-12" d="M151.5,885.08h1350" transform="translate(-7.2 -7.08)"/></g><g id="patch_13" data-name="patch 13"><path class="cls-5" d="M1171.32,52.31h90V20.81h-90Z" transform="translate(-7.2 -7.08)"/></g><g id="text_13" data-name="text 13"><path id="ArialMT-110-2" data-name="ArialMT-110" class="cls-3" d="M1300.29,52.31V29h3.56v3.32a8.38,8.38,0,0,1,7.42-3.84,9.66,9.66,0,0,1,3.88.76,6,6,0,0,1,2.66,2,7.81,7.81,0,0,1,1.23,2.91,23.82,23.82,0,0,1,.21,3.85V52.31h-4V38.11a10.58,10.58,0,0,0-.46-3.61,3.77,3.77,0,0,0-1.63-1.91,5.25,5.25,0,0,0-2.76-.71,6.4,6.4,0,0,0-4.36,1.6q-1.85,1.6-1.84,6.08V52.31Z" transform="translate(-7.2 -7.08)"/><path id="ArialMT-111" class="cls-3" d="M1323.85,40.65q0-6.49,3.6-9.61a10.83,10.83,0,0,1,7.34-2.59,10.48,10.48,0,0,1,7.86,3.15c2,2.1,3.06,5,3.06,8.71a15.47,15.47,0,0,1-1.35,7.09,9.52,9.52,0,0,1-3.94,4,11.47,11.47,0,0,1-5.63,1.43,10.5,10.5,0,0,1-7.93-3.15Q1323.84,46.56,1323.85,40.65Zm4.06,0c0,3,.65,5.22,2,6.7a6.52,6.52,0,0,0,9.82,0q1.95-2.25,2-6.84c0-2.89-.65-5.07-2-6.56a6.51,6.51,0,0,0-9.8,0C1328.56,35.42,1327.91,37.65,1327.91,40.65Z" transform="translate(-7.2 -7.08)"/><path id="ArialMT-110-3" data-name="ArialMT-110" class="cls-3" d="M1350.34,52.31V29h3.56v3.32a8.4,8.4,0,0,1,7.43-3.84,9.7,9.7,0,0,1,3.88.76,6,6,0,0,1,2.65,2,7.81,7.81,0,0,1,1.23,2.91,23.5,23.5,0,0,1,.22,3.85V52.31h-4V38.11a10.54,10.54,0,0,0-.47-3.61,3.73,3.73,0,0,0-1.63-1.91,5.24,5.24,0,0,0-2.75-.71,6.41,6.41,0,0,0-4.37,1.6q-1.83,1.6-1.83,6.08V52.31Z" transform="translate(-7.2 -7.08)"/><path id="ArialMT-45" class="cls-3" d="M1373.83,42.64v-4H1386v4Z" transform="translate(-7.2 -7.08)"/><path id="ArialMT-67" class="cls-3" d="M1413.85,41l4.26,1.07a14.37,14.37,0,0,1-4.82,8,13.3,13.3,0,0,1-8.52,2.76,15.32,15.32,0,0,1-8.47-2.12,13.23,13.23,0,0,1-5-6.14,22,22,0,0,1-1.7-8.64,19,19,0,0,1,1.92-8.77A13.2,13.2,0,0,1,1397,21.5a16,16,0,0,1,7.81-1.95A13.18,13.18,0,0,1,1413,22a12.81,12.81,0,0,1,4.6,6.92l-4.2,1a10,10,0,0,0-3.25-5.12,8.66,8.66,0,0,0-5.36-1.61,10.39,10.39,0,0,0-6.21,1.79,9.47,9.47,0,0,0-3.51,4.78,19.32,19.32,0,0,0-1,6.18,19.59,19.59,0,0,0,1.19,7.17,8.94,8.94,0,0,0,3.72,4.59,10.47,10.47,0,0,0,5.48,1.51,9.21,9.21,0,0,0,6.06-2.06A10.58,10.58,0,0,0,1413.85,41Z" transform="translate(-7.2 -7.08)"/><path id="ArialMT-111-2" data-name="ArialMT-111" class="cls-3" d="M1421.38,40.65q0-6.49,3.6-9.61a10.87,10.87,0,0,1,7.34-2.59,10.49,10.49,0,0,1,7.87,3.15c2,2.1,3,5,3,8.71a15.47,15.47,0,0,1-1.35,7.09,9.55,9.55,0,0,1-3.93,4,11.48,11.48,0,0,1-5.64,1.43,10.49,10.49,0,0,1-7.92-3.15Q1421.39,46.56,1421.38,40.65Zm4.07,0c0,3,.65,5.22,2,6.7a6.53,6.53,0,0,0,9.83,0q1.95-2.25,2-6.84c0-2.89-.66-5.07-2-6.56a6.52,6.52,0,0,0-9.81,0C1426.1,35.42,1425.45,37.65,1425.45,40.65Z" transform="translate(-7.2 -7.08)"/><path id="ArialMT-82-2" data-name="ArialMT-82" class="cls-3" d="M1448.45,52.31V20.1h14.28a19,19,0,0,1,6.55.87,7.15,7.15,0,0,1,3.58,3.07,9.07,9.07,0,0,1,1.35,4.85,8.12,8.12,0,0,1-2.23,5.78q-2.22,2.34-6.85,3a10.73,10.73,0,0,1,2.57,1.6,22.59,22.59,0,0,1,3.54,4.28l5.6,8.77h-5.36l-4.26-6.7q-1.87-2.91-3.08-4.44A9.58,9.58,0,0,0,1462,39a6.43,6.43,0,0,0-2-.86,13,13,0,0,0-2.37-.15h-5v14.3Zm4.26-18h9.17a13.43,13.43,0,0,0,4.56-.61,4.88,4.88,0,0,0,2.51-1.93,5.17,5.17,0,0,0,.86-2.89,4.8,4.8,0,0,0-1.66-3.76q-1.65-1.47-5.24-1.47h-10.2Z" transform="translate(-7.2 -7.08)"/><path id="ArialMT-84-2" data-name="ArialMT-84" class="cls-3" d="M1488.29,52.31V23.9h-10.61V20.1h25.53v3.8h-10.65V52.31Z" transform="translate(-7.2 -7.08)"/></g><g id="patch_14" data-name="patch 14"><path class="cls-8" d="M1171.32,116h90V84.46h-90Z" transform="translate(-7.2 -7.08)"/></g><g id="text_14" data-name="text 14"><path id="ArialMT-67-2" data-name="ArialMT-67" class="cls-3" d="M1323.78,104.67l4.26,1.08a14.35,14.35,0,0,1-4.82,8,13.33,13.33,0,0,1-8.52,2.75,15.34,15.34,0,0,1-8.47-2.11,13.29,13.29,0,0,1-5-6.15,21.82,21.82,0,0,1-1.7-8.63,19,19,0,0,1,1.92-8.78,13.14,13.14,0,0,1,5.47-5.69,15.93,15.93,0,0,1,7.81-1.94,13.22,13.22,0,0,1,8.13,2.46,12.76,12.76,0,0,1,4.59,6.92l-4.19,1a10,10,0,0,0-3.26-5.12,8.6,8.6,0,0,0-5.36-1.61,10.43,10.43,0,0,0-6.21,1.78,9.4,9.4,0,0,0-3.5,4.78,19.35,19.35,0,0,0-1,6.19,19.66,19.66,0,0,0,1.2,7.17,8.85,8.85,0,0,0,3.72,4.58,10.44,10.44,0,0,0,5.47,1.51,9.12,9.12,0,0,0,6.06-2.06A10.5,10.5,0,0,0,1323.78,104.67Z" transform="translate(-7.2 -7.08)"/><path id="ArialMT-111-3" data-name="ArialMT-111" class="cls-3" d="M1331.32,104.3q0-6.48,3.6-9.61a10.83,10.83,0,0,1,7.34-2.59,10.42,10.42,0,0,1,7.86,3.16q3.06,3.15,3.06,8.71a15.5,15.5,0,0,1-1.35,7.09,9.5,9.5,0,0,1-3.94,4,11.36,11.36,0,0,1-5.63,1.43,10.53,10.53,0,0,1-7.93-3.14Q1331.32,110.2,1331.32,104.3Zm4.06,0c0,3,.65,5.22,2,6.71a6.51,6.51,0,0,0,9.82,0c1.3-1.5,1.95-3.77,1.95-6.83q0-4.33-2-6.56a6.52,6.52,0,0,0-9.81,0Q1335.38,99.82,1335.38,104.3Z" transform="translate(-7.2 -7.08)"/><path id="ArialMT-82-3" data-name="ArialMT-82" class="cls-3" d="M1358.38,116V83.75h14.28a18.65,18.65,0,0,1,6.55.88,7.1,7.1,0,0,1,3.59,3.06,9.15,9.15,0,0,1,1.34,4.85,8.1,8.1,0,0,1-2.22,5.78c-1.48,1.57-3.77,2.56-6.86,3a11,11,0,0,1,2.58,1.6,22,22,0,0,1,3.53,4.29l5.61,8.76h-5.37l-4.26-6.7c-1.25-1.93-2.27-3.41-3.08-4.43a9.17,9.17,0,0,0-2.16-2.15,6.13,6.13,0,0,0-2-.87,13,13,0,0,0-2.36-.15h-4.95V116Zm4.27-18h9.16a13.83,13.83,0,0,0,4.57-.6,4.89,4.89,0,0,0,2.51-1.94,5.23,5.23,0,0,0,.86-2.89,4.81,4.81,0,0,0-1.66-3.75q-1.66-1.49-5.25-1.48h-10.19Z" transform="translate(-7.2 -7.08)"/><path id="ArialMT-84-3" data-name="ArialMT-84" class="cls-3" d="M1398.22,116V87.55h-10.61v-3.8h25.53v3.8h-10.65V116Z" transform="translate(-7.2 -7.08)"/></g><text x="-7.2" y="-7.08"/><text class="cls-13" transform="translate(382.98 965.12)"><tspan class="cls-14">L</tspan><tspan class="cls-15" x="22.9" y="0">o</tspan><tspan x="50" y="0">w Cl</tspan><tspan class="cls-16" x="138.2" y="0">oz</tspan><tspan x="186.35" y="0">e</tspan></text><text class="cls-13" transform="translate(1101.82 965.12)"><tspan class="cls-17">H</tspan><tspan class="cls-18" x="33.1" y="0">igh Cl</tspan><tspan class="cls-16" x="151.9" y="0">oz</tspan><tspan x="200.05" y="0">e</tspan></text><text class="cls-13" transform="translate(994.53 925.58)"><tspan class="cls-19">C</tspan><tspan x="27.95" y="0">O</tspan></text><text class="cls-13" transform="translate(1333.71 925.58)">CD</text><text class="cls-13" transform="translate(307.27 925.58)"><tspan class="cls-19">C</tspan><tspan x="27.95" y="0">O</tspan></text><text class="cls-13" transform="translate(646.45 925.58)">CD</text></svg>