<?xml version="1.0" encoding="utf-8" standalone="no"?>
<!DOCTYPE svg PUBLIC "-//W3C//DTD SVG 1.1//EN"
  "http://www.w3.org/Graphics/SVG/1.1/DTD/svg11.dtd">
<svg xmlns:xlink="http://www.w3.org/1999/xlink" width="1118.828906pt" height="825.451719pt" viewBox="0 0 1118.828906 825.451719" xmlns="http://www.w3.org/2000/svg" version="1.1">
 <metadata>
  <rdf:RDF xmlns:dc="http://purl.org/dc/elements/1.1/" xmlns:cc="http://creativecommons.org/ns#" xmlns:rdf="http://www.w3.org/1999/02/22-rdf-syntax-ns#">
   <cc:Work>
    <dc:type rdf:resource="http://purl.org/dc/dcmitype/StillImage"/>
    <dc:date>2022-05-04T18:38:22.310473</dc:date>
    <dc:format>image/svg+xml</dc:format>
    <dc:creator>
     <cc:Agent>
      <dc:title>Matplotlib v3.5.1, https://matplotlib.org/</dc:title>
     </cc:Agent>
    </dc:creator>
   </cc:Work>
  </rdf:RDF>
 </metadata>
 <defs>
  <style type="text/css">*{stroke-linejoin: round; stroke-linecap: butt}</style>
 </defs>
 <g id="figure_1">
  <g id="patch_1">
   <path d="M 0 825.451719 
L 1118.828906 825.451719 
L 1118.828906 0 
L 0 0 
z
" style="fill: #ffffff"/>
  </g>
  <g id="axes_1">
   <g id="patch_2">
    <path d="M 150.428906 726.84 
L 1111.628906 726.84 
L 1111.628906 7.2 
L 150.428906 7.2 
z
" style="fill: #ffffff"/>
   </g>
   <g id="matplotlib.axis_1">
    <g id="xtick_1">
     <g id="text_1">
      <!-- 20 -->
      <g style="fill: #262626" transform="translate(251.314082 764.57125)scale(0.4 -0.4)">
       <defs>
        <path id="ArialMT-32" d="M 3222 541 
L 3222 0 
L 194 0 
Q 188 203 259 391 
Q 375 700 629 1000 
Q 884 1300 1366 1694 
Q 2113 2306 2375 2664 
Q 2638 3022 2638 3341 
Q 2638 3675 2398 3904 
Q 2159 4134 1775 4134 
Q 1369 4134 1125 3890 
Q 881 3647 878 3216 
L 300 3275 
Q 359 3922 746 4261 
Q 1134 4600 1788 4600 
Q 2447 4600 2831 4234 
Q 3216 3869 3216 3328 
Q 3216 3053 3103 2787 
Q 2991 2522 2730 2228 
Q 2469 1934 1863 1422 
Q 1356 997 1212 845 
Q 1069 694 975 541 
L 3222 541 
z
" transform="scale(0.015625)"/>
        <path id="ArialMT-30" d="M 266 2259 
Q 266 3072 433 3567 
Q 600 4063 929 4331 
Q 1259 4600 1759 4600 
Q 2128 4600 2406 4451 
Q 2684 4303 2865 4023 
Q 3047 3744 3150 3342 
Q 3253 2941 3253 2259 
Q 3253 1453 3087 958 
Q 2922 463 2592 192 
Q 2263 -78 1759 -78 
Q 1097 -78 719 397 
Q 266 969 266 2259 
z
M 844 2259 
Q 844 1131 1108 757 
Q 1372 384 1759 384 
Q 2147 384 2411 759 
Q 2675 1134 2675 2259 
Q 2675 3391 2411 3762 
Q 2147 4134 1753 4134 
Q 1366 4134 1134 3806 
Q 844 3388 844 2259 
z
" transform="scale(0.015625)"/>
       </defs>
       <use xlink:href="#ArialMT-32"/>
       <use xlink:href="#ArialMT-30" x="55.615234"/>
      </g>
     </g>
    </g>
    <g id="xtick_2">
     <g id="text_2">
      <!-- 22 -->
      <g style="fill: #262626" transform="translate(410.190115 764.57125)scale(0.4 -0.4)">
       <use xlink:href="#ArialMT-32"/>
       <use xlink:href="#ArialMT-32" x="55.615234"/>
      </g>
     </g>
    </g>
    <g id="xtick_3">
     <g id="text_3">
      <!-- 24 -->
      <g style="fill: #262626" transform="translate(569.066148 764.57125)scale(0.4 -0.4)">
       <defs>
        <path id="ArialMT-34" d="M 2069 0 
L 2069 1097 
L 81 1097 
L 81 1613 
L 2172 4581 
L 2631 4581 
L 2631 1613 
L 3250 1613 
L 3250 1097 
L 2631 1097 
L 2631 0 
L 2069 0 
z
M 2069 1613 
L 2069 3678 
L 634 1613 
L 2069 1613 
z
" transform="scale(0.015625)"/>
       </defs>
       <use xlink:href="#ArialMT-32"/>
       <use xlink:href="#ArialMT-34" x="55.615234"/>
      </g>
     </g>
    </g>
    <g id="xtick_4">
     <g id="text_4">
      <!-- 26 -->
      <g style="fill: #262626" transform="translate(727.942181 764.57125)scale(0.4 -0.4)">
       <defs>
        <path id="ArialMT-36" d="M 3184 3459 
L 2625 3416 
Q 2550 3747 2413 3897 
Q 2184 4138 1850 4138 
Q 1581 4138 1378 3988 
Q 1113 3794 959 3422 
Q 806 3050 800 2363 
Q 1003 2672 1297 2822 
Q 1591 2972 1913 2972 
Q 2475 2972 2870 2558 
Q 3266 2144 3266 1488 
Q 3266 1056 3080 686 
Q 2894 316 2569 119 
Q 2244 -78 1831 -78 
Q 1128 -78 684 439 
Q 241 956 241 2144 
Q 241 3472 731 4075 
Q 1159 4600 1884 4600 
Q 2425 4600 2770 4297 
Q 3116 3994 3184 3459 
z
M 888 1484 
Q 888 1194 1011 928 
Q 1134 663 1356 523 
Q 1578 384 1822 384 
Q 2178 384 2434 671 
Q 2691 959 2691 1453 
Q 2691 1928 2437 2201 
Q 2184 2475 1800 2475 
Q 1419 2475 1153 2201 
Q 888 1928 888 1484 
z
" transform="scale(0.015625)"/>
       </defs>
       <use xlink:href="#ArialMT-32"/>
       <use xlink:href="#ArialMT-36" x="55.615234"/>
      </g>
     </g>
    </g>
    <g id="xtick_5">
     <g id="text_5">
      <!-- 28 -->
      <g style="fill: #262626" transform="translate(886.818214 764.57125)scale(0.4 -0.4)">
       <defs>
        <path id="ArialMT-38" d="M 1131 2484 
Q 781 2613 612 2850 
Q 444 3088 444 3419 
Q 444 3919 803 4259 
Q 1163 4600 1759 4600 
Q 2359 4600 2725 4251 
Q 3091 3903 3091 3403 
Q 3091 3084 2923 2848 
Q 2756 2613 2416 2484 
Q 2838 2347 3058 2040 
Q 3278 1734 3278 1309 
Q 3278 722 2862 322 
Q 2447 -78 1769 -78 
Q 1091 -78 675 323 
Q 259 725 259 1325 
Q 259 1772 486 2073 
Q 713 2375 1131 2484 
z
M 1019 3438 
Q 1019 3113 1228 2906 
Q 1438 2700 1772 2700 
Q 2097 2700 2305 2904 
Q 2513 3109 2513 3406 
Q 2513 3716 2298 3927 
Q 2084 4138 1766 4138 
Q 1444 4138 1231 3931 
Q 1019 3725 1019 3438 
z
M 838 1322 
Q 838 1081 952 856 
Q 1066 631 1291 507 
Q 1516 384 1775 384 
Q 2178 384 2440 643 
Q 2703 903 2703 1303 
Q 2703 1709 2433 1975 
Q 2163 2241 1756 2241 
Q 1359 2241 1098 1978 
Q 838 1716 838 1322 
z
" transform="scale(0.015625)"/>
       </defs>
       <use xlink:href="#ArialMT-32"/>
       <use xlink:href="#ArialMT-38" x="55.615234"/>
      </g>
     </g>
    </g>
    <g id="xtick_6">
     <g id="text_6">
      <!-- 30 -->
      <g style="fill: #262626" transform="translate(1045.694247 764.57125)scale(0.4 -0.4)">
       <defs>
        <path id="ArialMT-33" d="M 269 1209 
L 831 1284 
Q 928 806 1161 595 
Q 1394 384 1728 384 
Q 2125 384 2398 659 
Q 2672 934 2672 1341 
Q 2672 1728 2419 1979 
Q 2166 2231 1775 2231 
Q 1616 2231 1378 2169 
L 1441 2663 
Q 1497 2656 1531 2656 
Q 1891 2656 2178 2843 
Q 2466 3031 2466 3422 
Q 2466 3731 2256 3934 
Q 2047 4138 1716 4138 
Q 1388 4138 1169 3931 
Q 950 3725 888 3313 
L 325 3413 
Q 428 3978 793 4289 
Q 1159 4600 1703 4600 
Q 2078 4600 2393 4439 
Q 2709 4278 2876 4000 
Q 3044 3722 3044 3409 
Q 3044 3113 2884 2869 
Q 2725 2625 2413 2481 
Q 2819 2388 3044 2092 
Q 3269 1797 3269 1353 
Q 3269 753 2831 336 
Q 2394 -81 1725 -81 
Q 1122 -81 723 278 
Q 325 638 269 1209 
z
" transform="scale(0.015625)"/>
       </defs>
       <use xlink:href="#ArialMT-33"/>
       <use xlink:href="#ArialMT-30" x="55.615234"/>
      </g>
     </g>
    </g>
    <g id="text_7">
     <!-- MOCA_total_score -->
     <g style="fill: #262626" transform="translate(440.963672 809.307969)scale(0.45 -0.45)">
      <defs>
       <path id="ArialMT-4d" d="M 475 0 
L 475 4581 
L 1388 4581 
L 2472 1338 
Q 2622 884 2691 659 
Q 2769 909 2934 1394 
L 4031 4581 
L 4847 4581 
L 4847 0 
L 4263 0 
L 4263 3834 
L 2931 0 
L 2384 0 
L 1059 3900 
L 1059 0 
L 475 0 
z
" transform="scale(0.015625)"/>
       <path id="ArialMT-4f" d="M 309 2231 
Q 309 3372 921 4017 
Q 1534 4663 2503 4663 
Q 3138 4663 3647 4359 
Q 4156 4056 4423 3514 
Q 4691 2972 4691 2284 
Q 4691 1588 4409 1038 
Q 4128 488 3612 205 
Q 3097 -78 2500 -78 
Q 1853 -78 1343 234 
Q 834 547 571 1087 
Q 309 1628 309 2231 
z
M 934 2222 
Q 934 1394 1379 917 
Q 1825 441 2497 441 
Q 3181 441 3623 922 
Q 4066 1403 4066 2288 
Q 4066 2847 3877 3264 
Q 3688 3681 3323 3911 
Q 2959 4141 2506 4141 
Q 1863 4141 1398 3698 
Q 934 3256 934 2222 
z
" transform="scale(0.015625)"/>
       <path id="ArialMT-43" d="M 3763 1606 
L 4369 1453 
Q 4178 706 3683 314 
Q 3188 -78 2472 -78 
Q 1731 -78 1267 223 
Q 803 525 561 1097 
Q 319 1669 319 2325 
Q 319 3041 592 3573 
Q 866 4106 1370 4382 
Q 1875 4659 2481 4659 
Q 3169 4659 3637 4309 
Q 4106 3959 4291 3325 
L 3694 3184 
Q 3534 3684 3231 3912 
Q 2928 4141 2469 4141 
Q 1941 4141 1586 3887 
Q 1231 3634 1087 3207 
Q 944 2781 944 2328 
Q 944 1744 1114 1308 
Q 1284 872 1643 656 
Q 2003 441 2422 441 
Q 2931 441 3284 734 
Q 3638 1028 3763 1606 
z
" transform="scale(0.015625)"/>
       <path id="ArialMT-41" d="M -9 0 
L 1750 4581 
L 2403 4581 
L 4278 0 
L 3588 0 
L 3053 1388 
L 1138 1388 
L 634 0 
L -9 0 
z
M 1313 1881 
L 2866 1881 
L 2388 3150 
Q 2169 3728 2063 4100 
Q 1975 3659 1816 3225 
L 1313 1881 
z
" transform="scale(0.015625)"/>
       <path id="ArialMT-5f" d="M -97 -1272 
L -97 -866 
L 3631 -866 
L 3631 -1272 
L -97 -1272 
z
" transform="scale(0.015625)"/>
       <path id="ArialMT-74" d="M 1650 503 
L 1731 6 
Q 1494 -44 1306 -44 
Q 1000 -44 831 53 
Q 663 150 594 308 
Q 525 466 525 972 
L 525 2881 
L 113 2881 
L 113 3319 
L 525 3319 
L 525 4141 
L 1084 4478 
L 1084 3319 
L 1650 3319 
L 1650 2881 
L 1084 2881 
L 1084 941 
Q 1084 700 1114 631 
Q 1144 563 1211 522 
Q 1278 481 1403 481 
Q 1497 481 1650 503 
z
" transform="scale(0.015625)"/>
       <path id="ArialMT-6f" d="M 213 1659 
Q 213 2581 725 3025 
Q 1153 3394 1769 3394 
Q 2453 3394 2887 2945 
Q 3322 2497 3322 1706 
Q 3322 1066 3130 698 
Q 2938 331 2570 128 
Q 2203 -75 1769 -75 
Q 1072 -75 642 372 
Q 213 819 213 1659 
z
M 791 1659 
Q 791 1022 1069 705 
Q 1347 388 1769 388 
Q 2188 388 2466 706 
Q 2744 1025 2744 1678 
Q 2744 2294 2464 2611 
Q 2184 2928 1769 2928 
Q 1347 2928 1069 2612 
Q 791 2297 791 1659 
z
" transform="scale(0.015625)"/>
       <path id="ArialMT-61" d="M 2588 409 
Q 2275 144 1986 34 
Q 1697 -75 1366 -75 
Q 819 -75 525 192 
Q 231 459 231 875 
Q 231 1119 342 1320 
Q 453 1522 633 1644 
Q 813 1766 1038 1828 
Q 1203 1872 1538 1913 
Q 2219 1994 2541 2106 
Q 2544 2222 2544 2253 
Q 2544 2597 2384 2738 
Q 2169 2928 1744 2928 
Q 1347 2928 1158 2789 
Q 969 2650 878 2297 
L 328 2372 
Q 403 2725 575 2942 
Q 747 3159 1072 3276 
Q 1397 3394 1825 3394 
Q 2250 3394 2515 3294 
Q 2781 3194 2906 3042 
Q 3031 2891 3081 2659 
Q 3109 2516 3109 2141 
L 3109 1391 
Q 3109 606 3145 398 
Q 3181 191 3288 0 
L 2700 0 
Q 2613 175 2588 409 
z
M 2541 1666 
Q 2234 1541 1622 1453 
Q 1275 1403 1131 1340 
Q 988 1278 909 1158 
Q 831 1038 831 891 
Q 831 666 1001 516 
Q 1172 366 1500 366 
Q 1825 366 2078 508 
Q 2331 650 2450 897 
Q 2541 1088 2541 1459 
L 2541 1666 
z
" transform="scale(0.015625)"/>
       <path id="ArialMT-6c" d="M 409 0 
L 409 4581 
L 972 4581 
L 972 0 
L 409 0 
z
" transform="scale(0.015625)"/>
       <path id="ArialMT-73" d="M 197 991 
L 753 1078 
Q 800 744 1014 566 
Q 1228 388 1613 388 
Q 2000 388 2187 545 
Q 2375 703 2375 916 
Q 2375 1106 2209 1216 
Q 2094 1291 1634 1406 
Q 1016 1563 777 1677 
Q 538 1791 414 1992 
Q 291 2194 291 2438 
Q 291 2659 392 2848 
Q 494 3038 669 3163 
Q 800 3259 1026 3326 
Q 1253 3394 1513 3394 
Q 1903 3394 2198 3281 
Q 2494 3169 2634 2976 
Q 2775 2784 2828 2463 
L 2278 2388 
Q 2241 2644 2061 2787 
Q 1881 2931 1553 2931 
Q 1166 2931 1000 2803 
Q 834 2675 834 2503 
Q 834 2394 903 2306 
Q 972 2216 1119 2156 
Q 1203 2125 1616 2013 
Q 2213 1853 2448 1751 
Q 2684 1650 2818 1456 
Q 2953 1263 2953 975 
Q 2953 694 2789 445 
Q 2625 197 2315 61 
Q 2006 -75 1616 -75 
Q 969 -75 630 194 
Q 291 463 197 991 
z
" transform="scale(0.015625)"/>
       <path id="ArialMT-63" d="M 2588 1216 
L 3141 1144 
Q 3050 572 2676 248 
Q 2303 -75 1759 -75 
Q 1078 -75 664 370 
Q 250 816 250 1647 
Q 250 2184 428 2587 
Q 606 2991 970 3192 
Q 1334 3394 1763 3394 
Q 2303 3394 2647 3120 
Q 2991 2847 3088 2344 
L 2541 2259 
Q 2463 2594 2264 2762 
Q 2066 2931 1784 2931 
Q 1359 2931 1093 2626 
Q 828 2322 828 1663 
Q 828 994 1084 691 
Q 1341 388 1753 388 
Q 2084 388 2306 591 
Q 2528 794 2588 1216 
z
" transform="scale(0.015625)"/>
       <path id="ArialMT-72" d="M 416 0 
L 416 3319 
L 922 3319 
L 922 2816 
Q 1116 3169 1280 3281 
Q 1444 3394 1641 3394 
Q 1925 3394 2219 3213 
L 2025 2691 
Q 1819 2813 1613 2813 
Q 1428 2813 1281 2702 
Q 1134 2591 1072 2394 
Q 978 2094 978 1738 
L 978 0 
L 416 0 
z
" transform="scale(0.015625)"/>
       <path id="ArialMT-65" d="M 2694 1069 
L 3275 997 
Q 3138 488 2766 206 
Q 2394 -75 1816 -75 
Q 1088 -75 661 373 
Q 234 822 234 1631 
Q 234 2469 665 2931 
Q 1097 3394 1784 3394 
Q 2450 3394 2872 2941 
Q 3294 2488 3294 1666 
Q 3294 1616 3291 1516 
L 816 1516 
Q 847 969 1125 678 
Q 1403 388 1819 388 
Q 2128 388 2347 550 
Q 2566 713 2694 1069 
z
M 847 1978 
L 2700 1978 
Q 2663 2397 2488 2606 
Q 2219 2931 1791 2931 
Q 1403 2931 1139 2672 
Q 875 2413 847 1978 
z
" transform="scale(0.015625)"/>
      </defs>
      <use xlink:href="#ArialMT-4d"/>
      <use xlink:href="#ArialMT-4f" x="83.300781"/>
      <use xlink:href="#ArialMT-43" x="161.083984"/>
      <use xlink:href="#ArialMT-41" x="233.300781"/>
      <use xlink:href="#ArialMT-5f" x="300"/>
      <use xlink:href="#ArialMT-74" x="355.615234"/>
      <use xlink:href="#ArialMT-6f" x="383.398438"/>
      <use xlink:href="#ArialMT-74" x="439.013672"/>
      <use xlink:href="#ArialMT-61" x="466.796875"/>
      <use xlink:href="#ArialMT-6c" x="522.412109"/>
      <use xlink:href="#ArialMT-5f" x="544.628906"/>
      <use xlink:href="#ArialMT-73" x="600.244141"/>
      <use xlink:href="#ArialMT-63" x="650.244141"/>
      <use xlink:href="#ArialMT-6f" x="700.244141"/>
      <use xlink:href="#ArialMT-72" x="755.859375"/>
      <use xlink:href="#ArialMT-65" x="789.160156"/>
     </g>
    </g>
   </g>
   <g id="matplotlib.axis_2">
    <g id="ytick_1">
     <g id="text_8">
      <!-- 600 -->
      <g style="fill: #262626" transform="translate(74.597656 718.341377)scale(0.4 -0.4)">
       <use xlink:href="#ArialMT-36"/>
       <use xlink:href="#ArialMT-30" x="55.615234"/>
       <use xlink:href="#ArialMT-30" x="111.230469"/>
      </g>
     </g>
    </g>
    <g id="ytick_2">
     <g id="text_9">
      <!-- 700 -->
      <g style="fill: #262626" transform="translate(74.597656 613.004839)scale(0.4 -0.4)">
       <defs>
        <path id="ArialMT-37" d="M 303 3981 
L 303 4522 
L 3269 4522 
L 3269 4084 
Q 2831 3619 2401 2847 
Q 1972 2075 1738 1259 
Q 1569 684 1522 0 
L 944 0 
Q 953 541 1156 1306 
Q 1359 2072 1739 2783 
Q 2119 3494 2547 3981 
L 303 3981 
z
" transform="scale(0.015625)"/>
       </defs>
       <use xlink:href="#ArialMT-37"/>
       <use xlink:href="#ArialMT-30" x="55.615234"/>
       <use xlink:href="#ArialMT-30" x="111.230469"/>
      </g>
     </g>
    </g>
    <g id="ytick_3">
     <g id="text_10">
      <!-- 800 -->
      <g style="fill: #262626" transform="translate(74.597656 507.668301)scale(0.4 -0.4)">
       <use xlink:href="#ArialMT-38"/>
       <use xlink:href="#ArialMT-30" x="55.615234"/>
       <use xlink:href="#ArialMT-30" x="111.230469"/>
      </g>
     </g>
    </g>
    <g id="ytick_4">
     <g id="text_11">
      <!-- 900 -->
      <g style="fill: #262626" transform="translate(74.597656 402.331763)scale(0.4 -0.4)">
       <defs>
        <path id="ArialMT-39" d="M 350 1059 
L 891 1109 
Q 959 728 1153 556 
Q 1347 384 1650 384 
Q 1909 384 2104 503 
Q 2300 622 2425 820 
Q 2550 1019 2634 1356 
Q 2719 1694 2719 2044 
Q 2719 2081 2716 2156 
Q 2547 1888 2255 1720 
Q 1963 1553 1622 1553 
Q 1053 1553 659 1965 
Q 266 2378 266 3053 
Q 266 3750 677 4175 
Q 1088 4600 1706 4600 
Q 2153 4600 2523 4359 
Q 2894 4119 3086 3673 
Q 3278 3228 3278 2384 
Q 3278 1506 3087 986 
Q 2897 466 2520 194 
Q 2144 -78 1638 -78 
Q 1100 -78 759 220 
Q 419 519 350 1059 
z
M 2653 3081 
Q 2653 3566 2395 3850 
Q 2138 4134 1775 4134 
Q 1400 4134 1122 3828 
Q 844 3522 844 3034 
Q 844 2597 1108 2323 
Q 1372 2050 1759 2050 
Q 2150 2050 2401 2323 
Q 2653 2597 2653 3081 
z
" transform="scale(0.015625)"/>
       </defs>
       <use xlink:href="#ArialMT-39"/>
       <use xlink:href="#ArialMT-30" x="55.615234"/>
       <use xlink:href="#ArialMT-30" x="111.230469"/>
      </g>
     </g>
    </g>
    <g id="ytick_5">
     <g id="text_12">
      <!-- 1000 -->
      <g style="fill: #262626" transform="translate(52.353906 296.995225)scale(0.4 -0.4)">
       <defs>
        <path id="ArialMT-31" d="M 2384 0 
L 1822 0 
L 1822 3584 
Q 1619 3391 1289 3197 
Q 959 3003 697 2906 
L 697 3450 
Q 1169 3672 1522 3987 
Q 1875 4303 2022 4600 
L 2384 4600 
L 2384 0 
z
" transform="scale(0.015625)"/>
       </defs>
       <use xlink:href="#ArialMT-31"/>
       <use xlink:href="#ArialMT-30" x="55.615234"/>
       <use xlink:href="#ArialMT-30" x="111.230469"/>
       <use xlink:href="#ArialMT-30" x="166.845703"/>
      </g>
     </g>
    </g>
    <g id="ytick_6">
     <g id="text_13">
      <!-- 1100 -->
      <g style="fill: #262626" transform="translate(55.303906 191.658687)scale(0.4 -0.4)">
       <use xlink:href="#ArialMT-31"/>
       <use xlink:href="#ArialMT-31" x="48.240234"/>
       <use xlink:href="#ArialMT-30" x="103.855469"/>
       <use xlink:href="#ArialMT-30" x="159.470703"/>
      </g>
     </g>
    </g>
    <g id="ytick_7">
     <g id="text_14">
      <!-- 1200 -->
      <g style="fill: #262626" transform="translate(52.353906 86.322149)scale(0.4 -0.4)">
       <use xlink:href="#ArialMT-31"/>
       <use xlink:href="#ArialMT-32" x="55.615234"/>
       <use xlink:href="#ArialMT-30" x="111.230469"/>
       <use xlink:href="#ArialMT-30" x="166.845703"/>
      </g>
     </g>
    </g>
    <g id="text_15">
     <!-- rt -->
     <g style="fill: #262626" transform="translate(39.410156 380.762578)rotate(-90)scale(0.45 -0.45)">
      <use xlink:href="#ArialMT-72"/>
      <use xlink:href="#ArialMT-74" x="33.300781"/>
     </g>
    </g>
   </g>
   <g id="PathCollection_1">
    <defs>
     <path id="m029a8c4e13" d="M 0 10 
C 2.652031 10 5.195799 8.946337 7.071068 7.071068 
C 8.946337 5.195799 10 2.652031 10 0 
C 10 -2.652031 8.946337 -5.195799 7.071068 -7.071068 
C 5.195799 -8.946337 2.652031 -10 0 -10 
C -2.652031 -10 -5.195799 -8.946337 -7.071068 -7.071068 
C -8.946337 -5.195799 -10 -2.652031 -10 0 
C -10 2.652031 -8.946337 5.195799 -7.071068 7.071068 
C -5.195799 8.946337 -2.652031 10 0 10 
z
"/>
    </defs>
    <g clip-path="url(#p5f912a7b76)">
     <use xlink:href="#m029a8c4e13" x="909.061964" y="641.480426" style="fill: #841e5a; fill-opacity: 0.8"/>
     <use xlink:href="#m029a8c4e13" x="750.185931" y="308.977064" style="fill: #841e5a; fill-opacity: 0.8"/>
     <use xlink:href="#m029a8c4e13" x="750.185931" y="415.902004" style="fill: #841e5a; fill-opacity: 0.8"/>
     <use xlink:href="#m029a8c4e13" x="432.433865" y="478.956845" style="fill: #841e5a; fill-opacity: 0.8"/>
     <use xlink:href="#m029a8c4e13" x="194.119815" y="548.516552" style="fill: #841e5a; fill-opacity: 0.8"/>
     <use xlink:href="#m029a8c4e13" x="829.623948" y="443.301057" style="fill: #841e5a; fill-opacity: 0.8"/>
     <use xlink:href="#m029a8c4e13" x="670.747915" y="560.102524" style="fill: #841e5a; fill-opacity: 0.8"/>
     <use xlink:href="#m029a8c4e13" x="670.747915" y="664.680857" style="fill: #841e5a; fill-opacity: 0.8"/>
     <use xlink:href="#m029a8c4e13" x="591.309898" y="520.704669" style="fill: #841e5a; fill-opacity: 0.8"/>
     <use xlink:href="#m029a8c4e13" x="909.061964" y="617.220709" style="fill: #841e5a; fill-opacity: 0.8"/>
     <use xlink:href="#m029a8c4e13" x="909.061964" y="507.877706" style="fill: #841e5a; fill-opacity: 0.8"/>
     <use xlink:href="#m029a8c4e13" x="988.499981" y="440.521515" style="fill: #841e5a; fill-opacity: 0.8"/>
     <use xlink:href="#m029a8c4e13" x="909.061964" y="579.388583" style="fill: #841e5a; fill-opacity: 0.8"/>
     <use xlink:href="#m029a8c4e13" x="1067.937997" y="352.213164" style="fill: #841e5a; fill-opacity: 0.8"/>
     <use xlink:href="#m029a8c4e13" x="988.499981" y="541.570032" style="fill: #841e5a; fill-opacity: 0.8"/>
     <use xlink:href="#m029a8c4e13" x="909.061964" y="508.101006" style="fill: #841e5a; fill-opacity: 0.8"/>
     <use xlink:href="#m029a8c4e13" x="710.466923" y="581.552205" style="fill: #841e5a; fill-opacity: 0.8"/>
     <use xlink:href="#m029a8c4e13" x="988.499981" y="481.594121" style="fill: #841e5a; fill-opacity: 0.8"/>
    </g>
   </g>
   <g id="PolyCollection_1">
    <defs>
     <path id="m6da61f81a6" d="M 194.119815 -399.427986 
L 194.119815 -131.322628 
L 202.946262 -133.873442 
L 211.772708 -136.424256 
L 220.599154 -138.769057 
L 229.4256 -140.836578 
L 238.252047 -142.904098 
L 247.078493 -144.971618 
L 255.904939 -147.039139 
L 264.731386 -149.106659 
L 273.557832 -151.174179 
L 282.384278 -153.2417 
L 291.210724 -155.30922 
L 300.037171 -157.376741 
L 308.863617 -159.444261 
L 317.690063 -161.511781 
L 326.51651 -163.582249 
L 335.342956 -165.989978 
L 344.169402 -168.831011 
L 352.995848 -171.672044 
L 361.822295 -174.524964 
L 370.648741 -177.079265 
L 379.475187 -179.231208 
L 388.301634 -181.763706 
L 397.12808 -184.919701 
L 405.954526 -188.082504 
L 414.780972 -191.253184 
L 423.607419 -194.423864 
L 432.433865 -197.382674 
L 441.260311 -200.239888 
L 450.086757 -203.097102 
L 458.913204 -205.954316 
L 467.73965 -208.81153 
L 476.566096 -210.79371 
L 485.392543 -212.619733 
L 494.218989 -214.453211 
L 503.045435 -216.631071 
L 511.871881 -219.918328 
L 520.698328 -223.219255 
L 529.524774 -226.520182 
L 538.35122 -229.699411 
L 547.177667 -231.633289 
L 556.004113 -233.567167 
L 564.830559 -235.501045 
L 573.657005 -237.441867 
L 582.483452 -239.595518 
L 591.309898 -240.718161 
L 600.136344 -242.906114 
L 608.962791 -244.634567 
L 617.789237 -245.915217 
L 626.615683 -247.195867 
L 635.442129 -248.476517 
L 644.268576 -249.783592 
L 653.095022 -251.103085 
L 661.921468 -252.372193 
L 670.747915 -253.613053 
L 679.574361 -254.926926 
L 688.400807 -256.763403 
L 697.227253 -257.938633 
L 706.0537 -258.822208 
L 714.880146 -260.10719 
L 723.706592 -261.348364 
L 732.533038 -261.830787 
L 741.359485 -263.493319 
L 750.185931 -265.24643 
L 759.012377 -267.577621 
L 767.838824 -269.248238 
L 776.66527 -269.858557 
L 785.491716 -270.513047 
L 794.318162 -271.879755 
L 803.144609 -272.395967 
L 811.971055 -273.187069 
L 820.797501 -273.562427 
L 829.623948 -273.47421 
L 838.450394 -273.23102 
L 847.27684 -274.634362 
L 856.103286 -274.670039 
L 864.929733 -274.840768 
L 873.756179 -274.842561 
L 882.582625 -275.021664 
L 891.409072 -274.273609 
L 900.235518 -273.658663 
L 909.061964 -273.188811 
L 917.88841 -272.677792 
L 926.714857 -272.317967 
L 935.541303 -271.805836 
L 944.367749 -271.580155 
L 953.194196 -270.947667 
L 962.020642 -270.450957 
L 970.847088 -269.44868 
L 979.673534 -269.087588 
L 988.499981 -268.541057 
L 997.326427 -267.765212 
L 1006.152873 -267.560491 
L 1014.979319 -267.356146 
L 1023.805766 -266.291443 
L 1032.632212 -265.965055 
L 1041.458658 -265.638667 
L 1050.285105 -265.133395 
L 1059.111551 -264.446328 
L 1067.937997 -263.76836 
L 1067.937997 -403.477106 
L 1067.937997 -403.477106 
L 1059.111551 -402.064072 
L 1050.285105 -400.603614 
L 1041.458658 -398.5331 
L 1032.632212 -397.212936 
L 1023.805766 -395.878217 
L 1014.979319 -394.270751 
L 1006.152873 -392.966365 
L 997.326427 -391.242821 
L 988.499981 -389.457763 
L 979.673534 -388.359357 
L 970.847088 -387.239401 
L 962.020642 -386.107039 
L 953.194196 -384.999048 
L 944.367749 -382.270357 
L 935.541303 -379.153659 
L 926.714857 -377.926188 
L 917.88841 -377.258116 
L 909.061964 -376.561298 
L 900.235518 -375.448094 
L 891.409072 -373.867168 
L 882.582625 -372.21822 
L 873.756179 -370.300227 
L 864.929733 -370.047552 
L 856.103286 -368.776192 
L 847.27684 -367.169449 
L 838.450394 -365.655312 
L 829.623948 -365.132185 
L 820.797501 -363.900895 
L 811.971055 -364.188018 
L 803.144609 -363.432423 
L 794.318162 -363.232168 
L 785.491716 -362.766008 
L 776.66527 -362.541122 
L 767.838824 -361.798754 
L 759.012377 -361.310926 
L 750.185931 -360.650538 
L 741.359485 -361.132885 
L 732.533038 -361.029156 
L 723.706592 -359.972562 
L 714.880146 -358.926349 
L 706.0537 -358.779711 
L 697.227253 -360.541802 
L 688.400807 -359.901742 
L 679.574361 -359.553149 
L 670.747915 -359.290883 
L 661.921468 -359.25197 
L 653.095022 -359.098969 
L 644.268576 -360.18235 
L 635.442129 -361.66626 
L 626.615683 -362.963831 
L 617.789237 -361.653363 
L 608.962791 -362.358262 
L 600.136344 -362.104388 
L 591.309898 -362.594258 
L 582.483452 -362.56398 
L 573.657005 -362.860618 
L 564.830559 -363.157 
L 556.004113 -363.581631 
L 547.177667 -365.053742 
L 538.35122 -365.662683 
L 529.524774 -366.15606 
L 520.698328 -366.136711 
L 511.871881 -367.167725 
L 503.045435 -367.681029 
L 494.218989 -368.186194 
L 485.392543 -368.716634 
L 476.566096 -369.478083 
L 467.73965 -369.834481 
L 458.913204 -370.239455 
L 450.086757 -370.756446 
L 441.260311 -371.541305 
L 432.433865 -372.561541 
L 423.607419 -373.561225 
L 414.780972 -373.806002 
L 405.954526 -374.969776 
L 397.12808 -376.133549 
L 388.301634 -377.297322 
L 379.475187 -378.461095 
L 370.648741 -379.623904 
L 361.822295 -380.35392 
L 352.995848 -380.961913 
L 344.169402 -382.229285 
L 335.342956 -383.084108 
L 326.51651 -383.855925 
L 317.690063 -384.029591 
L 308.863617 -384.750206 
L 300.037171 -385.802983 
L 291.210724 -386.85576 
L 282.384278 -388.114496 
L 273.557832 -389.04626 
L 264.731386 -390.061678 
L 255.904939 -391.124347 
L 247.078493 -392.181471 
L 238.252047 -393.238595 
L 229.4256 -394.43542 
L 220.599154 -395.683562 
L 211.772708 -396.931703 
L 202.946262 -398.179845 
L 194.119815 -399.427986 
z
" style="stroke: #ffffff; stroke-opacity: 0.15; stroke-width: 0.24"/>
    </defs>
    <g clip-path="url(#p5f912a7b76)">
     <use xlink:href="#m6da61f81a6" x="0" y="825.451719" style="fill: #841e5a; fill-opacity: 0.15; stroke: #ffffff; stroke-opacity: 0.15; stroke-width: 0.24"/>
    </g>
   </g>
   <g id="PathCollection_2">
    <defs>
     <path id="m51f959d06b" d="M 0 10 
C 2.652031 10 5.195799 8.946337 7.071068 7.071068 
C 8.946337 5.195799 10 2.652031 10 0 
C 10 -2.652031 8.946337 -5.195799 7.071068 -7.071068 
C 5.195799 -8.946337 2.652031 -10 0 -10 
C -2.652031 -10 -5.195799 -8.946337 -7.071068 -7.071068 
C -8.946337 -5.195799 -10 -2.652031 -10 0 
C -10 2.652031 -8.946337 5.195799 -7.071068 7.071068 
C -5.195799 8.946337 -2.652031 10 0 10 
z
"/>
    </defs>
    <g clip-path="url(#p5f912a7b76)">
     <use xlink:href="#m51f959d06b" x="1028.218989" y="401.081489" style="fill: #f06043; fill-opacity: 0.8"/>
     <use xlink:href="#m51f959d06b" x="829.623948" y="271.731197" style="fill: #f06043; fill-opacity: 0.8"/>
     <use xlink:href="#m51f959d06b" x="750.185931" y="475.031086" style="fill: #f06043; fill-opacity: 0.8"/>
     <use xlink:href="#m51f959d06b" x="829.623948" y="196.704089" style="fill: #f06043; fill-opacity: 0.8"/>
     <use xlink:href="#m51f959d06b" x="750.185931" y="55.97448" style="fill: #f06043; fill-opacity: 0.8"/>
     <use xlink:href="#m51f959d06b" x="988.499981" y="270.618113" style="fill: #f06043; fill-opacity: 0.8"/>
     <use xlink:href="#m51f959d06b" x="882.582625" y="445.397072" style="fill: #f06043; fill-opacity: 0.8"/>
     <use xlink:href="#m51f959d06b" x="909.061964" y="51.735824" style="fill: #f06043; fill-opacity: 0.8"/>
     <use xlink:href="#m51f959d06b" x="889.20246" y="277.730003" style="fill: #f06043; fill-opacity: 0.8"/>
     <use xlink:href="#m51f959d06b" x="591.309898" y="222.822112" style="fill: #f06043; fill-opacity: 0.8"/>
     <use xlink:href="#m51f959d06b" x="432.433865" y="362.64087" style="fill: #f06043; fill-opacity: 0.8"/>
     <use xlink:href="#m51f959d06b" x="829.623948" y="333.852371" style="fill: #f06043; fill-opacity: 0.8"/>
     <use xlink:href="#m51f959d06b" x="829.623948" y="529.474031" style="fill: #f06043; fill-opacity: 0.8"/>
    </g>
   </g>
   <g id="PolyCollection_2">
    <defs>
     <path id="mfe38482ee8" d="M 432.433865 -785.54081 
L 432.433865 -346.729277 
L 438.451896 -348.554074 
L 444.469928 -351.009875 
L 450.48796 -353.488373 
L 456.505991 -355.991761 
L 462.524023 -358.495149 
L 468.542054 -360.941151 
L 474.560086 -363.381002 
L 480.578117 -365.505208 
L 486.596149 -366.726008 
L 492.61418 -369.076238 
L 498.632212 -371.873852 
L 504.650244 -373.5574 
L 510.668275 -375.240948 
L 516.686307 -376.924496 
L 522.704338 -378.608044 
L 528.72237 -380.291592 
L 534.740401 -381.97514 
L 540.758433 -383.658688 
L 546.776464 -385.342236 
L 552.794496 -387.025784 
L 558.812528 -388.709332 
L 564.830559 -390.39288 
L 570.848591 -392.124695 
L 576.866622 -393.891554 
L 582.884654 -395.658413 
L 588.902685 -398.439894 
L 594.920717 -400.562902 
L 600.938748 -401.384367 
L 606.95678 -402.482058 
L 612.974812 -404.156529 
L 618.992843 -405.831 
L 625.010875 -407.505471 
L 631.028906 -409.179942 
L 637.046938 -410.854413 
L 643.064969 -412.528884 
L 649.083001 -414.042883 
L 655.101032 -415.336982 
L 661.119064 -417.391365 
L 667.137096 -419.418013 
L 673.155127 -421.106632 
L 679.173159 -422.226538 
L 685.19119 -424.446303 
L 691.209222 -426.158741 
L 697.227253 -426.826759 
L 703.245285 -426.95729 
L 709.263316 -428.806709 
L 715.281348 -428.901797 
L 721.29938 -431.676078 
L 727.317411 -434.244712 
L 733.335443 -434.306299 
L 739.353474 -437.178213 
L 745.371506 -437.646008 
L 751.389537 -438.096609 
L 757.407569 -438.54721 
L 763.4256 -439.836633 
L 769.443632 -439.923846 
L 775.461664 -440.280848 
L 781.479695 -441.683361 
L 787.497727 -443.683805 
L 793.515758 -443.413905 
L 799.53379 -444.217024 
L 805.551821 -442.724946 
L 811.569853 -442.841822 
L 817.587884 -443.298749 
L 823.605916 -443.810655 
L 829.623948 -444.288555 
L 835.641979 -444.16898 
L 841.660011 -444.195931 
L 847.678042 -443.337167 
L 853.696074 -444.724667 
L 859.714105 -445.642309 
L 865.732137 -444.555986 
L 871.750168 -442.246762 
L 877.7682 -443.279451 
L 883.786232 -442.971652 
L 889.804263 -441.733738 
L 895.822295 -441.147962 
L 901.840326 -441.328762 
L 907.858358 -440.183685 
L 913.876389 -438.759451 
L 919.894421 -437.451913 
L 925.912452 -434.56443 
L 931.930484 -433.377322 
L 937.948516 -432.623852 
L 943.966547 -430.310081 
L 949.984579 -430.373906 
L 956.00261 -429.301238 
L 962.020642 -428.155818 
L 968.038673 -426.188359 
L 974.056705 -424.149377 
L 980.074736 -421.06788 
L 986.092768 -418.94168 
L 992.1108 -416.248864 
L 998.128831 -412.855649 
L 1004.146863 -410.422971 
L 1010.164894 -408.727439 
L 1016.182926 -407.004037 
L 1022.200957 -405.215912 
L 1028.218989 -402.724617 
L 1028.218989 -663.587262 
L 1028.218989 -663.587262 
L 1022.200957 -662.132031 
L 1016.182926 -660.008111 
L 1010.164894 -658.286427 
L 1004.146863 -655.80502 
L 998.128831 -653.58388 
L 992.1108 -651.438042 
L 986.092768 -645.954262 
L 980.074736 -644.072122 
L 974.056705 -642.572309 
L 968.038673 -641.072495 
L 962.020642 -639.572681 
L 956.00261 -638.072868 
L 949.984579 -636.373914 
L 943.966547 -634.243967 
L 937.948516 -632.07784 
L 931.930484 -631.820148 
L 925.912452 -630.656012 
L 919.894421 -625.807453 
L 913.876389 -623.510314 
L 907.858358 -622.576395 
L 901.840326 -621.437518 
L 895.822295 -619.782865 
L 889.804263 -618.520102 
L 883.786232 -617.299625 
L 877.7682 -616.211561 
L 871.750168 -615.105074 
L 865.732137 -615.828566 
L 859.714105 -616.383855 
L 853.696074 -616.79036 
L 847.678042 -616.129654 
L 841.660011 -614.631131 
L 835.641979 -616.030942 
L 829.623948 -616.50045 
L 823.605916 -615.246691 
L 817.587884 -613.745531 
L 811.569853 -612.811688 
L 805.551821 -614.966475 
L 799.53379 -616.019596 
L 793.515758 -615.864499 
L 787.497727 -616.987345 
L 781.479695 -618.101555 
L 775.461664 -618.252866 
L 769.443632 -620.910134 
L 763.4256 -622.066476 
L 757.407569 -621.740347 
L 751.389537 -622.912214 
L 745.371506 -625.887173 
L 739.353474 -629.655985 
L 733.335443 -632.97217 
L 727.317411 -634.866251 
L 721.29938 -636.759111 
L 715.281348 -638.610233 
L 709.263316 -641.792441 
L 703.245285 -645.511329 
L 697.227253 -647.942301 
L 691.209222 -651.22483 
L 685.19119 -653.333633 
L 679.173159 -655.401263 
L 673.155127 -657.440126 
L 667.137096 -659.965672 
L 661.119064 -661.657336 
L 655.101032 -663.748142 
L 649.083001 -666.354166 
L 643.064969 -669.737874 
L 637.046938 -673.121582 
L 631.028906 -676.50529 
L 625.010875 -679.888998 
L 618.992843 -683.036732 
L 612.974812 -685.260127 
L 606.95678 -687.491159 
L 600.938748 -689.924149 
L 594.920717 -693.580091 
L 588.902685 -697.236034 
L 582.884654 -700.891977 
L 576.866622 -704.54792 
L 570.848591 -708.203863 
L 564.830559 -711.859806 
L 558.812528 -715.495685 
L 552.794496 -718.59416 
L 546.776464 -720.599309 
L 540.758433 -722.819439 
L 534.740401 -726.779523 
L 528.72237 -730.341246 
L 522.704338 -732.54235 
L 516.686307 -734.743454 
L 510.668275 -738.347739 
L 504.650244 -741.989004 
L 498.632212 -746.668723 
L 492.61418 -751.570359 
L 486.596149 -756.468982 
L 480.578117 -759.602376 
L 474.560086 -762.509857 
L 468.542054 -765.407585 
L 462.524023 -768.305314 
L 456.505991 -771.203042 
L 450.48796 -774.661433 
L 444.469928 -778.287892 
L 438.451896 -781.914351 
L 432.433865 -785.54081 
z
" style="stroke: #ffffff; stroke-opacity: 0.15; stroke-width: 0.24"/>
    </defs>
    <g clip-path="url(#p5f912a7b76)">
     <use xlink:href="#mfe38482ee8" x="0" y="825.451719" style="fill: #f06043; fill-opacity: 0.15; stroke: #ffffff; stroke-opacity: 0.15; stroke-width: 0.24"/>
    </g>
   </g>
   <g id="line2d_1">
    <path d="M 194.119815 550.675801 
L 202.946262 550.081416 
L 211.772708 549.487031 
L 220.599154 548.892645 
L 229.4256 548.29826 
L 238.252047 547.703875 
L 247.078493 547.10949 
L 255.904939 546.515104 
L 264.731386 545.920719 
L 273.557832 545.326334 
L 282.384278 544.731948 
L 291.210724 544.137563 
L 300.037171 543.543178 
L 308.863617 542.948793 
L 317.690063 542.354407 
L 326.51651 541.760022 
L 335.342956 541.165637 
L 344.169402 540.571251 
L 352.995848 539.976866 
L 361.822295 539.382481 
L 370.648741 538.788096 
L 379.475187 538.19371 
L 388.301634 537.599325 
L 397.12808 537.00494 
L 405.954526 536.410555 
L 414.780972 535.816169 
L 423.607419 535.221784 
L 432.433865 534.627399 
L 441.260311 534.033013 
L 450.086757 533.438628 
L 458.913204 532.844243 
L 467.73965 532.249858 
L 476.566096 531.655472 
L 485.392543 531.061087 
L 494.218989 530.466702 
L 503.045435 529.872316 
L 511.871881 529.277931 
L 520.698328 528.683546 
L 529.524774 528.089161 
L 538.35122 527.494775 
L 547.177667 526.90039 
L 556.004113 526.306005 
L 564.830559 525.71162 
L 573.657005 525.117234 
L 582.483452 524.522849 
L 591.309898 523.928464 
L 600.136344 523.334078 
L 608.962791 522.739693 
L 617.789237 522.145308 
L 626.615683 521.550923 
L 635.442129 520.956537 
L 644.268576 520.362152 
L 653.095022 519.767767 
L 661.921468 519.173381 
L 670.747915 518.578996 
L 679.574361 517.984611 
L 688.400807 517.390226 
L 697.227253 516.79584 
L 706.0537 516.201455 
L 714.880146 515.60707 
L 723.706592 515.012684 
L 732.533038 514.418299 
L 741.359485 513.823914 
L 750.185931 513.229529 
L 759.012377 512.635143 
L 767.838824 512.040758 
L 776.66527 511.446373 
L 785.491716 510.851988 
L 794.318162 510.257602 
L 803.144609 509.663217 
L 811.971055 509.068832 
L 820.797501 508.474446 
L 829.623948 507.880061 
L 838.450394 507.285676 
L 847.27684 506.691291 
L 856.103286 506.096905 
L 864.929733 505.50252 
L 873.756179 504.908135 
L 882.582625 504.313749 
L 891.409072 503.719364 
L 900.235518 503.124979 
L 909.061964 502.530594 
L 917.88841 501.936208 
L 926.714857 501.341823 
L 935.541303 500.747438 
L 944.367749 500.153052 
L 953.194196 499.558667 
L 962.020642 498.964282 
L 970.847088 498.369897 
L 979.673534 497.775511 
L 988.499981 497.181126 
L 997.326427 496.586741 
L 1006.152873 495.992356 
L 1014.979319 495.39797 
L 1023.805766 494.803585 
L 1032.632212 494.2092 
L 1041.458658 493.614814 
L 1050.285105 493.020429 
L 1059.111551 492.426044 
L 1067.937997 491.831659 
" clip-path="url(#p5f912a7b76)" style="fill: none; stroke: #841e5a; stroke-width: 9; stroke-linecap: round"/>
   </g>
   <g id="line2d_2">
    <path d="M 432.433865 298.397518 
L 438.451896 298.416636 
L 444.469928 298.435754 
L 450.48796 298.454872 
L 456.505991 298.47399 
L 462.524023 298.493108 
L 468.542054 298.512225 
L 474.560086 298.531343 
L 480.578117 298.550461 
L 486.596149 298.569579 
L 492.61418 298.588697 
L 498.632212 298.607814 
L 504.650244 298.626932 
L 510.668275 298.64605 
L 516.686307 298.665168 
L 522.704338 298.684286 
L 528.72237 298.703404 
L 534.740401 298.722521 
L 540.758433 298.741639 
L 546.776464 298.760757 
L 552.794496 298.779875 
L 558.812528 298.798993 
L 564.830559 298.818111 
L 570.848591 298.837228 
L 576.866622 298.856346 
L 582.884654 298.875464 
L 588.902685 298.894582 
L 594.920717 298.9137 
L 600.938748 298.932817 
L 606.95678 298.951935 
L 612.974812 298.971053 
L 618.992843 298.990171 
L 625.010875 299.009289 
L 631.028906 299.028407 
L 637.046938 299.047524 
L 643.064969 299.066642 
L 649.083001 299.08576 
L 655.101032 299.104878 
L 661.119064 299.123996 
L 667.137096 299.143114 
L 673.155127 299.162231 
L 679.173159 299.181349 
L 685.19119 299.200467 
L 691.209222 299.219585 
L 697.227253 299.238703 
L 703.245285 299.25782 
L 709.263316 299.276938 
L 715.281348 299.296056 
L 721.29938 299.315174 
L 727.317411 299.334292 
L 733.335443 299.35341 
L 739.353474 299.372527 
L 745.371506 299.391645 
L 751.389537 299.410763 
L 757.407569 299.429881 
L 763.4256 299.448999 
L 769.443632 299.468117 
L 775.461664 299.487234 
L 781.479695 299.506352 
L 787.497727 299.52547 
L 793.515758 299.544588 
L 799.53379 299.563706 
L 805.551821 299.582823 
L 811.569853 299.601941 
L 817.587884 299.621059 
L 823.605916 299.640177 
L 829.623948 299.659295 
L 835.641979 299.678413 
L 841.660011 299.69753 
L 847.678042 299.716648 
L 853.696074 299.735766 
L 859.714105 299.754884 
L 865.732137 299.774002 
L 871.750168 299.79312 
L 877.7682 299.812237 
L 883.786232 299.831355 
L 889.804263 299.850473 
L 895.822295 299.869591 
L 901.840326 299.888709 
L 907.858358 299.907826 
L 913.876389 299.926944 
L 919.894421 299.946062 
L 925.912452 299.96518 
L 931.930484 299.984298 
L 937.948516 300.003416 
L 943.966547 300.022533 
L 949.984579 300.041651 
L 956.00261 300.060769 
L 962.020642 300.079887 
L 968.038673 300.099005 
L 974.056705 300.118123 
L 980.074736 300.13724 
L 986.092768 300.156358 
L 992.1108 300.175476 
L 998.128831 300.194594 
L 1004.146863 300.213712 
L 1010.164894 300.232829 
L 1016.182926 300.251947 
L 1022.200957 300.271065 
L 1028.218989 300.290183 
" clip-path="url(#p5f912a7b76)" style="fill: none; stroke: #f06043; stroke-width: 9; stroke-linecap: round"/>
   </g>
   <g id="patch_3">
    <path d="M 150.428906 726.84 
L 150.428906 7.2 
" style="fill: none; stroke: #262626; stroke-width: 0.8; stroke-linejoin: miter; stroke-linecap: square"/>
   </g>
   <g id="patch_4">
    <path d="M 150.428906 726.84 
L 1111.628906 726.84 
" style="fill: none; stroke: #262626; stroke-width: 0.8; stroke-linejoin: miter; stroke-linecap: square"/>
   </g>
   <g id="legend_1">
    <g id="patch_5">
     <path d="M 949.628906 116.071875 
L 1090.628906 116.071875 
Q 1096.628906 116.071875 1096.628906 110.071875 
L 1096.628906 28.2 
Q 1096.628906 22.2 1090.628906 22.2 
L 949.628906 22.2 
Q 943.628906 22.2 943.628906 28.2 
L 943.628906 110.071875 
Q 943.628906 116.071875 949.628906 116.071875 
z
" style="fill: #ffffff; opacity: 0.8; stroke: #cccccc; stroke-width: 0.24; stroke-linejoin: miter"/>
    </g>
    <g id="PathCollection_3">
     <g>
      <use xlink:href="#m029a8c4e13" x="985.628906" y="47.798437" style="fill: #841e5a; fill-opacity: 0.8"/>
     </g>
    </g>
    <g id="text_16">
     <!-- CO -->
     <g style="fill: #262626" transform="translate(1039.628906 55.673437)scale(0.3 -0.3)">
      <use xlink:href="#ArialMT-43"/>
      <use xlink:href="#ArialMT-4f" x="72.216797"/>
     </g>
    </g>
    <g id="PathCollection_4">
     <g>
      <use xlink:href="#m51f959d06b" x="985.628906" y="90.234375" style="fill: #f06043; fill-opacity: 0.8"/>
     </g>
    </g>
    <g id="text_17">
     <!-- CD -->
     <g style="fill: #262626" transform="translate(1039.628906 98.109375)scale(0.3 -0.3)">
      <defs>
       <path id="ArialMT-44" d="M 494 0 
L 494 4581 
L 2072 4581 
Q 2606 4581 2888 4516 
Q 3281 4425 3559 4188 
Q 3922 3881 4101 3404 
Q 4281 2928 4281 2316 
Q 4281 1794 4159 1391 
Q 4038 988 3847 723 
Q 3656 459 3429 307 
Q 3203 156 2883 78 
Q 2563 0 2147 0 
L 494 0 
z
M 1100 541 
L 2078 541 
Q 2531 541 2789 625 
Q 3047 709 3200 863 
Q 3416 1078 3536 1442 
Q 3656 1806 3656 2325 
Q 3656 3044 3420 3430 
Q 3184 3816 2847 3947 
Q 2603 4041 2063 4041 
L 1100 4041 
L 1100 541 
z
" transform="scale(0.015625)"/>
      </defs>
      <use xlink:href="#ArialMT-43"/>
      <use xlink:href="#ArialMT-44" x="72.216797"/>
     </g>
    </g>
   </g>
  </g>
  <g id="legend_2">
   <g id="text_18">
    <!-- group -->
    <g style="fill: #262626" transform="translate(1014.542187 372.816484)scale(0.1 -0.1)">
     <defs>
      <path id="ArialMT-67" d="M 319 -275 
L 866 -356 
Q 900 -609 1056 -725 
Q 1266 -881 1628 -881 
Q 2019 -881 2231 -725 
Q 2444 -569 2519 -288 
Q 2563 -116 2559 434 
Q 2191 0 1641 0 
Q 956 0 581 494 
Q 206 988 206 1678 
Q 206 2153 378 2554 
Q 550 2956 876 3175 
Q 1203 3394 1644 3394 
Q 2231 3394 2613 2919 
L 2613 3319 
L 3131 3319 
L 3131 450 
Q 3131 -325 2973 -648 
Q 2816 -972 2473 -1159 
Q 2131 -1347 1631 -1347 
Q 1038 -1347 672 -1080 
Q 306 -813 319 -275 
z
M 784 1719 
Q 784 1066 1043 766 
Q 1303 466 1694 466 
Q 2081 466 2343 764 
Q 2606 1063 2606 1700 
Q 2606 2309 2336 2618 
Q 2066 2928 1684 2928 
Q 1309 2928 1046 2623 
Q 784 2319 784 1719 
z
" transform="scale(0.015625)"/>
      <path id="ArialMT-75" d="M 2597 0 
L 2597 488 
Q 2209 -75 1544 -75 
Q 1250 -75 995 37 
Q 741 150 617 320 
Q 494 491 444 738 
Q 409 903 409 1263 
L 409 3319 
L 972 3319 
L 972 1478 
Q 972 1038 1006 884 
Q 1059 663 1231 536 
Q 1403 409 1656 409 
Q 1909 409 2131 539 
Q 2353 669 2445 892 
Q 2538 1116 2538 1541 
L 2538 3319 
L 3100 3319 
L 3100 0 
L 2597 0 
z
" transform="scale(0.015625)"/>
      <path id="ArialMT-70" d="M 422 -1272 
L 422 3319 
L 934 3319 
L 934 2888 
Q 1116 3141 1344 3267 
Q 1572 3394 1897 3394 
Q 2322 3394 2647 3175 
Q 2972 2956 3137 2557 
Q 3303 2159 3303 1684 
Q 3303 1175 3120 767 
Q 2938 359 2589 142 
Q 2241 -75 1856 -75 
Q 1575 -75 1351 44 
Q 1128 163 984 344 
L 984 -1272 
L 422 -1272 
z
M 931 1641 
Q 931 1000 1190 694 
Q 1450 388 1819 388 
Q 2194 388 2461 705 
Q 2728 1022 2728 1688 
Q 2728 2322 2467 2637 
Q 2206 2953 1844 2953 
Q 1484 2953 1207 2617 
Q 931 2281 931 1641 
z
" transform="scale(0.015625)"/>
     </defs>
     <use xlink:href="#ArialMT-67"/>
     <use xlink:href="#ArialMT-72" x="55.615234"/>
     <use xlink:href="#ArialMT-6f" x="88.916016"/>
     <use xlink:href="#ArialMT-75" x="144.53125"/>
     <use xlink:href="#ArialMT-70" x="200.146484"/>
    </g>
   </g>
   <g id="PathCollection_5">
    <g>
     <use xlink:href="#m029a8c4e13" x="992.828906" y="403.519609" style="fill: #841e5a; fill-opacity: 0.8"/>
    </g>
   </g>
   <g id="text_19">
    <!-- CO -->
    <g style="fill: #262626" transform="translate(1046.828906 411.394609)scale(0.3 -0.3)">
     <use xlink:href="#ArialMT-43"/>
     <use xlink:href="#ArialMT-4f" x="72.216797"/>
    </g>
   </g>
   <g id="PathCollection_6">
    <g>
     <use xlink:href="#m51f959d06b" x="992.828906" y="445.955547" style="fill: #f06043; fill-opacity: 0.8"/>
    </g>
   </g>
   <g id="text_20">
    <!-- CD -->
    <g style="fill: #262626" transform="translate(1046.828906 453.830547)scale(0.3 -0.3)">
     <use xlink:href="#ArialMT-43"/>
     <use xlink:href="#ArialMT-44" x="72.216797"/>
    </g>
   </g>
  </g>
 </g>
 <defs>
  <clipPath id="p5f912a7b76">
   <rect x="150.428906" y="7.2" width="961.2" height="719.64"/>
  </clipPath>
 </defs>
</svg>
