<?xml version="1.0" encoding="utf-8" standalone="no"?>
<!DOCTYPE svg PUBLIC "-//W3C//DTD SVG 1.1//EN"
  "http://www.w3.org/Graphics/SVG/1.1/DTD/svg11.dtd">
<svg xmlns:xlink="http://www.w3.org/1999/xlink" width="1085.453906pt" height="825.451719pt" viewBox="0 0 1085.453906 825.451719" xmlns="http://www.w3.org/2000/svg" version="1.1">
 <metadata>
  <rdf:RDF xmlns:dc="http://purl.org/dc/elements/1.1/" xmlns:cc="http://creativecommons.org/ns#" xmlns:rdf="http://www.w3.org/1999/02/22-rdf-syntax-ns#">
   <cc:Work>
    <dc:type rdf:resource="http://purl.org/dc/dcmitype/StillImage"/>
    <dc:date>2022-05-04T18:38:21.536144</dc:date>
    <dc:format>image/svg+xml</dc:format>
    <dc:creator>
     <cc:Agent>
      <dc:title>Matplotlib v3.5.1, https://matplotlib.org/</dc:title>
     </cc:Agent>
    </dc:creator>
   </cc:Work>
  </rdf:RDF>
 </metadata>
 <defs>
  <style type="text/css">*{stroke-linejoin: round; stroke-linecap: butt}</style>
 </defs>
 <g id="figure_1">
  <g id="patch_1">
   <path d="M 0 825.451719 
L 1085.453906 825.451719 
L 1085.453906 0 
L 0 0 
z
" style="fill: #ffffff"/>
  </g>
  <g id="axes_1">
   <g id="patch_2">
    <path d="M 117.053906 726.84 
L 1078.253906 726.84 
L 1078.253906 7.2 
L 117.053906 7.2 
z
" style="fill: #ffffff"/>
   </g>
   <g id="matplotlib.axis_1">
    <g id="xtick_1">
     <g id="text_1">
      <!-- 20 -->
      <g style="fill: #262626" transform="translate(217.939082 764.57125)scale(0.4 -0.4)">
       <defs>
        <path id="ArialMT-32" d="M 3222 541 
L 3222 0 
L 194 0 
Q 188 203 259 391 
Q 375 700 629 1000 
Q 884 1300 1366 1694 
Q 2113 2306 2375 2664 
Q 2638 3022 2638 3341 
Q 2638 3675 2398 3904 
Q 2159 4134 1775 4134 
Q 1369 4134 1125 3890 
Q 881 3647 878 3216 
L 300 3275 
Q 359 3922 746 4261 
Q 1134 4600 1788 4600 
Q 2447 4600 2831 4234 
Q 3216 3869 3216 3328 
Q 3216 3053 3103 2787 
Q 2991 2522 2730 2228 
Q 2469 1934 1863 1422 
Q 1356 997 1212 845 
Q 1069 694 975 541 
L 3222 541 
z
" transform="scale(0.015625)"/>
        <path id="ArialMT-30" d="M 266 2259 
Q 266 3072 433 3567 
Q 600 4063 929 4331 
Q 1259 4600 1759 4600 
Q 2128 4600 2406 4451 
Q 2684 4303 2865 4023 
Q 3047 3744 3150 3342 
Q 3253 2941 3253 2259 
Q 3253 1453 3087 958 
Q 2922 463 2592 192 
Q 2263 -78 1759 -78 
Q 1097 -78 719 397 
Q 266 969 266 2259 
z
M 844 2259 
Q 844 1131 1108 757 
Q 1372 384 1759 384 
Q 2147 384 2411 759 
Q 2675 1134 2675 2259 
Q 2675 3391 2411 3762 
Q 2147 4134 1753 4134 
Q 1366 4134 1134 3806 
Q 844 3388 844 2259 
z
" transform="scale(0.015625)"/>
       </defs>
       <use xlink:href="#ArialMT-32"/>
       <use xlink:href="#ArialMT-30" x="55.615234"/>
      </g>
     </g>
    </g>
    <g id="xtick_2">
     <g id="text_2">
      <!-- 22 -->
      <g style="fill: #262626" transform="translate(376.815115 764.57125)scale(0.4 -0.4)">
       <use xlink:href="#ArialMT-32"/>
       <use xlink:href="#ArialMT-32" x="55.615234"/>
      </g>
     </g>
    </g>
    <g id="xtick_3">
     <g id="text_3">
      <!-- 24 -->
      <g style="fill: #262626" transform="translate(535.691148 764.57125)scale(0.4 -0.4)">
       <defs>
        <path id="ArialMT-34" d="M 2069 0 
L 2069 1097 
L 81 1097 
L 81 1613 
L 2172 4581 
L 2631 4581 
L 2631 1613 
L 3250 1613 
L 3250 1097 
L 2631 1097 
L 2631 0 
L 2069 0 
z
M 2069 1613 
L 2069 3678 
L 634 1613 
L 2069 1613 
z
" transform="scale(0.015625)"/>
       </defs>
       <use xlink:href="#ArialMT-32"/>
       <use xlink:href="#ArialMT-34" x="55.615234"/>
      </g>
     </g>
    </g>
    <g id="xtick_4">
     <g id="text_4">
      <!-- 26 -->
      <g style="fill: #262626" transform="translate(694.567181 764.57125)scale(0.4 -0.4)">
       <defs>
        <path id="ArialMT-36" d="M 3184 3459 
L 2625 3416 
Q 2550 3747 2413 3897 
Q 2184 4138 1850 4138 
Q 1581 4138 1378 3988 
Q 1113 3794 959 3422 
Q 806 3050 800 2363 
Q 1003 2672 1297 2822 
Q 1591 2972 1913 2972 
Q 2475 2972 2870 2558 
Q 3266 2144 3266 1488 
Q 3266 1056 3080 686 
Q 2894 316 2569 119 
Q 2244 -78 1831 -78 
Q 1128 -78 684 439 
Q 241 956 241 2144 
Q 241 3472 731 4075 
Q 1159 4600 1884 4600 
Q 2425 4600 2770 4297 
Q 3116 3994 3184 3459 
z
M 888 1484 
Q 888 1194 1011 928 
Q 1134 663 1356 523 
Q 1578 384 1822 384 
Q 2178 384 2434 671 
Q 2691 959 2691 1453 
Q 2691 1928 2437 2201 
Q 2184 2475 1800 2475 
Q 1419 2475 1153 2201 
Q 888 1928 888 1484 
z
" transform="scale(0.015625)"/>
       </defs>
       <use xlink:href="#ArialMT-32"/>
       <use xlink:href="#ArialMT-36" x="55.615234"/>
      </g>
     </g>
    </g>
    <g id="xtick_5">
     <g id="text_5">
      <!-- 28 -->
      <g style="fill: #262626" transform="translate(853.443214 764.57125)scale(0.4 -0.4)">
       <defs>
        <path id="ArialMT-38" d="M 1131 2484 
Q 781 2613 612 2850 
Q 444 3088 444 3419 
Q 444 3919 803 4259 
Q 1163 4600 1759 4600 
Q 2359 4600 2725 4251 
Q 3091 3903 3091 3403 
Q 3091 3084 2923 2848 
Q 2756 2613 2416 2484 
Q 2838 2347 3058 2040 
Q 3278 1734 3278 1309 
Q 3278 722 2862 322 
Q 2447 -78 1769 -78 
Q 1091 -78 675 323 
Q 259 725 259 1325 
Q 259 1772 486 2073 
Q 713 2375 1131 2484 
z
M 1019 3438 
Q 1019 3113 1228 2906 
Q 1438 2700 1772 2700 
Q 2097 2700 2305 2904 
Q 2513 3109 2513 3406 
Q 2513 3716 2298 3927 
Q 2084 4138 1766 4138 
Q 1444 4138 1231 3931 
Q 1019 3725 1019 3438 
z
M 838 1322 
Q 838 1081 952 856 
Q 1066 631 1291 507 
Q 1516 384 1775 384 
Q 2178 384 2440 643 
Q 2703 903 2703 1303 
Q 2703 1709 2433 1975 
Q 2163 2241 1756 2241 
Q 1359 2241 1098 1978 
Q 838 1716 838 1322 
z
" transform="scale(0.015625)"/>
       </defs>
       <use xlink:href="#ArialMT-32"/>
       <use xlink:href="#ArialMT-38" x="55.615234"/>
      </g>
     </g>
    </g>
    <g id="xtick_6">
     <g id="text_6">
      <!-- 30 -->
      <g style="fill: #262626" transform="translate(1012.319247 764.57125)scale(0.4 -0.4)">
       <defs>
        <path id="ArialMT-33" d="M 269 1209 
L 831 1284 
Q 928 806 1161 595 
Q 1394 384 1728 384 
Q 2125 384 2398 659 
Q 2672 934 2672 1341 
Q 2672 1728 2419 1979 
Q 2166 2231 1775 2231 
Q 1616 2231 1378 2169 
L 1441 2663 
Q 1497 2656 1531 2656 
Q 1891 2656 2178 2843 
Q 2466 3031 2466 3422 
Q 2466 3731 2256 3934 
Q 2047 4138 1716 4138 
Q 1388 4138 1169 3931 
Q 950 3725 888 3313 
L 325 3413 
Q 428 3978 793 4289 
Q 1159 4600 1703 4600 
Q 2078 4600 2393 4439 
Q 2709 4278 2876 4000 
Q 3044 3722 3044 3409 
Q 3044 3113 2884 2869 
Q 2725 2625 2413 2481 
Q 2819 2388 3044 2092 
Q 3269 1797 3269 1353 
Q 3269 753 2831 336 
Q 2394 -81 1725 -81 
Q 1122 -81 723 278 
Q 325 638 269 1209 
z
" transform="scale(0.015625)"/>
       </defs>
       <use xlink:href="#ArialMT-33"/>
       <use xlink:href="#ArialMT-30" x="55.615234"/>
      </g>
     </g>
    </g>
    <g id="text_7">
     <!-- MOCA_total_score -->
     <g style="fill: #262626" transform="translate(407.588672 809.307969)scale(0.45 -0.45)">
      <defs>
       <path id="ArialMT-4d" d="M 475 0 
L 475 4581 
L 1388 4581 
L 2472 1338 
Q 2622 884 2691 659 
Q 2769 909 2934 1394 
L 4031 4581 
L 4847 4581 
L 4847 0 
L 4263 0 
L 4263 3834 
L 2931 0 
L 2384 0 
L 1059 3900 
L 1059 0 
L 475 0 
z
" transform="scale(0.015625)"/>
       <path id="ArialMT-4f" d="M 309 2231 
Q 309 3372 921 4017 
Q 1534 4663 2503 4663 
Q 3138 4663 3647 4359 
Q 4156 4056 4423 3514 
Q 4691 2972 4691 2284 
Q 4691 1588 4409 1038 
Q 4128 488 3612 205 
Q 3097 -78 2500 -78 
Q 1853 -78 1343 234 
Q 834 547 571 1087 
Q 309 1628 309 2231 
z
M 934 2222 
Q 934 1394 1379 917 
Q 1825 441 2497 441 
Q 3181 441 3623 922 
Q 4066 1403 4066 2288 
Q 4066 2847 3877 3264 
Q 3688 3681 3323 3911 
Q 2959 4141 2506 4141 
Q 1863 4141 1398 3698 
Q 934 3256 934 2222 
z
" transform="scale(0.015625)"/>
       <path id="ArialMT-43" d="M 3763 1606 
L 4369 1453 
Q 4178 706 3683 314 
Q 3188 -78 2472 -78 
Q 1731 -78 1267 223 
Q 803 525 561 1097 
Q 319 1669 319 2325 
Q 319 3041 592 3573 
Q 866 4106 1370 4382 
Q 1875 4659 2481 4659 
Q 3169 4659 3637 4309 
Q 4106 3959 4291 3325 
L 3694 3184 
Q 3534 3684 3231 3912 
Q 2928 4141 2469 4141 
Q 1941 4141 1586 3887 
Q 1231 3634 1087 3207 
Q 944 2781 944 2328 
Q 944 1744 1114 1308 
Q 1284 872 1643 656 
Q 2003 441 2422 441 
Q 2931 441 3284 734 
Q 3638 1028 3763 1606 
z
" transform="scale(0.015625)"/>
       <path id="ArialMT-41" d="M -9 0 
L 1750 4581 
L 2403 4581 
L 4278 0 
L 3588 0 
L 3053 1388 
L 1138 1388 
L 634 0 
L -9 0 
z
M 1313 1881 
L 2866 1881 
L 2388 3150 
Q 2169 3728 2063 4100 
Q 1975 3659 1816 3225 
L 1313 1881 
z
" transform="scale(0.015625)"/>
       <path id="ArialMT-5f" d="M -97 -1272 
L -97 -866 
L 3631 -866 
L 3631 -1272 
L -97 -1272 
z
" transform="scale(0.015625)"/>
       <path id="ArialMT-74" d="M 1650 503 
L 1731 6 
Q 1494 -44 1306 -44 
Q 1000 -44 831 53 
Q 663 150 594 308 
Q 525 466 525 972 
L 525 2881 
L 113 2881 
L 113 3319 
L 525 3319 
L 525 4141 
L 1084 4478 
L 1084 3319 
L 1650 3319 
L 1650 2881 
L 1084 2881 
L 1084 941 
Q 1084 700 1114 631 
Q 1144 563 1211 522 
Q 1278 481 1403 481 
Q 1497 481 1650 503 
z
" transform="scale(0.015625)"/>
       <path id="ArialMT-6f" d="M 213 1659 
Q 213 2581 725 3025 
Q 1153 3394 1769 3394 
Q 2453 3394 2887 2945 
Q 3322 2497 3322 1706 
Q 3322 1066 3130 698 
Q 2938 331 2570 128 
Q 2203 -75 1769 -75 
Q 1072 -75 642 372 
Q 213 819 213 1659 
z
M 791 1659 
Q 791 1022 1069 705 
Q 1347 388 1769 388 
Q 2188 388 2466 706 
Q 2744 1025 2744 1678 
Q 2744 2294 2464 2611 
Q 2184 2928 1769 2928 
Q 1347 2928 1069 2612 
Q 791 2297 791 1659 
z
" transform="scale(0.015625)"/>
       <path id="ArialMT-61" d="M 2588 409 
Q 2275 144 1986 34 
Q 1697 -75 1366 -75 
Q 819 -75 525 192 
Q 231 459 231 875 
Q 231 1119 342 1320 
Q 453 1522 633 1644 
Q 813 1766 1038 1828 
Q 1203 1872 1538 1913 
Q 2219 1994 2541 2106 
Q 2544 2222 2544 2253 
Q 2544 2597 2384 2738 
Q 2169 2928 1744 2928 
Q 1347 2928 1158 2789 
Q 969 2650 878 2297 
L 328 2372 
Q 403 2725 575 2942 
Q 747 3159 1072 3276 
Q 1397 3394 1825 3394 
Q 2250 3394 2515 3294 
Q 2781 3194 2906 3042 
Q 3031 2891 3081 2659 
Q 3109 2516 3109 2141 
L 3109 1391 
Q 3109 606 3145 398 
Q 3181 191 3288 0 
L 2700 0 
Q 2613 175 2588 409 
z
M 2541 1666 
Q 2234 1541 1622 1453 
Q 1275 1403 1131 1340 
Q 988 1278 909 1158 
Q 831 1038 831 891 
Q 831 666 1001 516 
Q 1172 366 1500 366 
Q 1825 366 2078 508 
Q 2331 650 2450 897 
Q 2541 1088 2541 1459 
L 2541 1666 
z
" transform="scale(0.015625)"/>
       <path id="ArialMT-6c" d="M 409 0 
L 409 4581 
L 972 4581 
L 972 0 
L 409 0 
z
" transform="scale(0.015625)"/>
       <path id="ArialMT-73" d="M 197 991 
L 753 1078 
Q 800 744 1014 566 
Q 1228 388 1613 388 
Q 2000 388 2187 545 
Q 2375 703 2375 916 
Q 2375 1106 2209 1216 
Q 2094 1291 1634 1406 
Q 1016 1563 777 1677 
Q 538 1791 414 1992 
Q 291 2194 291 2438 
Q 291 2659 392 2848 
Q 494 3038 669 3163 
Q 800 3259 1026 3326 
Q 1253 3394 1513 3394 
Q 1903 3394 2198 3281 
Q 2494 3169 2634 2976 
Q 2775 2784 2828 2463 
L 2278 2388 
Q 2241 2644 2061 2787 
Q 1881 2931 1553 2931 
Q 1166 2931 1000 2803 
Q 834 2675 834 2503 
Q 834 2394 903 2306 
Q 972 2216 1119 2156 
Q 1203 2125 1616 2013 
Q 2213 1853 2448 1751 
Q 2684 1650 2818 1456 
Q 2953 1263 2953 975 
Q 2953 694 2789 445 
Q 2625 197 2315 61 
Q 2006 -75 1616 -75 
Q 969 -75 630 194 
Q 291 463 197 991 
z
" transform="scale(0.015625)"/>
       <path id="ArialMT-63" d="M 2588 1216 
L 3141 1144 
Q 3050 572 2676 248 
Q 2303 -75 1759 -75 
Q 1078 -75 664 370 
Q 250 816 250 1647 
Q 250 2184 428 2587 
Q 606 2991 970 3192 
Q 1334 3394 1763 3394 
Q 2303 3394 2647 3120 
Q 2991 2847 3088 2344 
L 2541 2259 
Q 2463 2594 2264 2762 
Q 2066 2931 1784 2931 
Q 1359 2931 1093 2626 
Q 828 2322 828 1663 
Q 828 994 1084 691 
Q 1341 388 1753 388 
Q 2084 388 2306 591 
Q 2528 794 2588 1216 
z
" transform="scale(0.015625)"/>
       <path id="ArialMT-72" d="M 416 0 
L 416 3319 
L 922 3319 
L 922 2816 
Q 1116 3169 1280 3281 
Q 1444 3394 1641 3394 
Q 1925 3394 2219 3213 
L 2025 2691 
Q 1819 2813 1613 2813 
Q 1428 2813 1281 2702 
Q 1134 2591 1072 2394 
Q 978 2094 978 1738 
L 978 0 
L 416 0 
z
" transform="scale(0.015625)"/>
       <path id="ArialMT-65" d="M 2694 1069 
L 3275 997 
Q 3138 488 2766 206 
Q 2394 -75 1816 -75 
Q 1088 -75 661 373 
Q 234 822 234 1631 
Q 234 2469 665 2931 
Q 1097 3394 1784 3394 
Q 2450 3394 2872 2941 
Q 3294 2488 3294 1666 
Q 3294 1616 3291 1516 
L 816 1516 
Q 847 969 1125 678 
Q 1403 388 1819 388 
Q 2128 388 2347 550 
Q 2566 713 2694 1069 
z
M 847 1978 
L 2700 1978 
Q 2663 2397 2488 2606 
Q 2219 2931 1791 2931 
Q 1403 2931 1139 2672 
Q 875 2413 847 1978 
z
" transform="scale(0.015625)"/>
      </defs>
      <use xlink:href="#ArialMT-4d"/>
      <use xlink:href="#ArialMT-4f" x="83.300781"/>
      <use xlink:href="#ArialMT-43" x="161.083984"/>
      <use xlink:href="#ArialMT-41" x="233.300781"/>
      <use xlink:href="#ArialMT-5f" x="300"/>
      <use xlink:href="#ArialMT-74" x="355.615234"/>
      <use xlink:href="#ArialMT-6f" x="383.398438"/>
      <use xlink:href="#ArialMT-74" x="439.013672"/>
      <use xlink:href="#ArialMT-61" x="466.796875"/>
      <use xlink:href="#ArialMT-6c" x="522.412109"/>
      <use xlink:href="#ArialMT-5f" x="544.628906"/>
      <use xlink:href="#ArialMT-73" x="600.244141"/>
      <use xlink:href="#ArialMT-63" x="650.244141"/>
      <use xlink:href="#ArialMT-6f" x="700.244141"/>
      <use xlink:href="#ArialMT-72" x="755.859375"/>
      <use xlink:href="#ArialMT-65" x="789.160156"/>
     </g>
    </g>
   </g>
   <g id="matplotlib.axis_2">
    <g id="ytick_1">
     <g id="text_8">
      <!-- 0.6 -->
      <g style="fill: #262626" transform="translate(52.353906 729.937357)scale(0.4 -0.4)">
       <defs>
        <path id="ArialMT-2e" d="M 581 0 
L 581 641 
L 1222 641 
L 1222 0 
L 581 0 
z
" transform="scale(0.015625)"/>
       </defs>
       <use xlink:href="#ArialMT-30"/>
       <use xlink:href="#ArialMT-2e" x="55.615234"/>
       <use xlink:href="#ArialMT-36" x="83.398438"/>
      </g>
     </g>
    </g>
    <g id="ytick_2">
     <g id="text_9">
      <!-- 0.7 -->
      <g style="fill: #262626" transform="translate(52.353906 603.668092)scale(0.4 -0.4)">
       <defs>
        <path id="ArialMT-37" d="M 303 3981 
L 303 4522 
L 3269 4522 
L 3269 4084 
Q 2831 3619 2401 2847 
Q 1972 2075 1738 1259 
Q 1569 684 1522 0 
L 944 0 
Q 953 541 1156 1306 
Q 1359 2072 1739 2783 
Q 2119 3494 2547 3981 
L 303 3981 
z
" transform="scale(0.015625)"/>
       </defs>
       <use xlink:href="#ArialMT-30"/>
       <use xlink:href="#ArialMT-2e" x="55.615234"/>
       <use xlink:href="#ArialMT-37" x="83.398438"/>
      </g>
     </g>
    </g>
    <g id="ytick_3">
     <g id="text_10">
      <!-- 0.8 -->
      <g style="fill: #262626" transform="translate(52.353906 477.398827)scale(0.4 -0.4)">
       <use xlink:href="#ArialMT-30"/>
       <use xlink:href="#ArialMT-2e" x="55.615234"/>
       <use xlink:href="#ArialMT-38" x="83.398438"/>
      </g>
     </g>
    </g>
    <g id="ytick_4">
     <g id="text_11">
      <!-- 0.9 -->
      <g style="fill: #262626" transform="translate(52.353906 351.129562)scale(0.4 -0.4)">
       <defs>
        <path id="ArialMT-39" d="M 350 1059 
L 891 1109 
Q 959 728 1153 556 
Q 1347 384 1650 384 
Q 1909 384 2104 503 
Q 2300 622 2425 820 
Q 2550 1019 2634 1356 
Q 2719 1694 2719 2044 
Q 2719 2081 2716 2156 
Q 2547 1888 2255 1720 
Q 1963 1553 1622 1553 
Q 1053 1553 659 1965 
Q 266 2378 266 3053 
Q 266 3750 677 4175 
Q 1088 4600 1706 4600 
Q 2153 4600 2523 4359 
Q 2894 4119 3086 3673 
Q 3278 3228 3278 2384 
Q 3278 1506 3087 986 
Q 2897 466 2520 194 
Q 2144 -78 1638 -78 
Q 1100 -78 759 220 
Q 419 519 350 1059 
z
M 2653 3081 
Q 2653 3566 2395 3850 
Q 2138 4134 1775 4134 
Q 1400 4134 1122 3828 
Q 844 3522 844 3034 
Q 844 2597 1108 2323 
Q 1372 2050 1759 2050 
Q 2150 2050 2401 2323 
Q 2653 2597 2653 3081 
z
" transform="scale(0.015625)"/>
       </defs>
       <use xlink:href="#ArialMT-30"/>
       <use xlink:href="#ArialMT-2e" x="55.615234"/>
       <use xlink:href="#ArialMT-39" x="83.398438"/>
      </g>
     </g>
    </g>
    <g id="ytick_5">
     <g id="text_12">
      <!-- 1.0 -->
      <g style="fill: #262626" transform="translate(52.353906 224.860297)scale(0.4 -0.4)">
       <defs>
        <path id="ArialMT-31" d="M 2384 0 
L 1822 0 
L 1822 3584 
Q 1619 3391 1289 3197 
Q 959 3003 697 2906 
L 697 3450 
Q 1169 3672 1522 3987 
Q 1875 4303 2022 4600 
L 2384 4600 
L 2384 0 
z
" transform="scale(0.015625)"/>
       </defs>
       <use xlink:href="#ArialMT-31"/>
       <use xlink:href="#ArialMT-2e" x="55.615234"/>
       <use xlink:href="#ArialMT-30" x="83.398438"/>
      </g>
     </g>
    </g>
    <g id="ytick_6">
     <g id="text_13">
      <!-- 1.1 -->
      <g style="fill: #262626" transform="translate(52.353906 98.591032)scale(0.4 -0.4)">
       <use xlink:href="#ArialMT-31"/>
       <use xlink:href="#ArialMT-2e" x="55.615234"/>
       <use xlink:href="#ArialMT-31" x="83.398438"/>
      </g>
     </g>
    </g>
    <g id="text_14">
     <!-- correct -->
     <g style="fill: #262626" transform="translate(39.410156 435.778594)rotate(-90)scale(0.45 -0.45)">
      <use xlink:href="#ArialMT-63"/>
      <use xlink:href="#ArialMT-6f" x="50"/>
      <use xlink:href="#ArialMT-72" x="105.615234"/>
      <use xlink:href="#ArialMT-72" x="138.916016"/>
      <use xlink:href="#ArialMT-65" x="172.216797"/>
      <use xlink:href="#ArialMT-63" x="227.832031"/>
      <use xlink:href="#ArialMT-74" x="277.832031"/>
     </g>
    </g>
   </g>
   <g id="PathCollection_1">
    <defs>
     <path id="m8817e96396" d="M 0 10 
C 2.652031 10 5.195799 8.946337 7.071068 7.071068 
C 8.946337 5.195799 10 2.652031 10 0 
C 10 -2.652031 8.946337 -5.195799 7.071068 -7.071068 
C 5.195799 -8.946337 2.652031 -10 0 -10 
C -2.652031 -10 -5.195799 -8.946337 -7.071068 -7.071068 
C -8.946337 -5.195799 -10 -2.652031 -10 0 
C -10 2.652031 -8.946337 5.195799 -7.071068 7.071068 
C -5.195799 8.946337 -2.652031 10 0 10 
z
"/>
    </defs>
    <g clip-path="url(#p22fa0b977c)">
     <use xlink:href="#m8817e96396" x="875.686964" y="210.544672" style="fill: #841e5a; fill-opacity: 0.8"/>
     <use xlink:href="#m8817e96396" x="716.810931" y="306.619113" style="fill: #841e5a; fill-opacity: 0.8"/>
     <use xlink:href="#m8817e96396" x="716.810931" y="223.697721" style="fill: #841e5a; fill-opacity: 0.8"/>
     <use xlink:href="#m8817e96396" x="399.058865" y="289.462963" style="fill: #841e5a; fill-opacity: 0.8"/>
     <use xlink:href="#m8817e96396" x="160.744815" y="250.843374" style="fill: #841e5a; fill-opacity: 0.8"/>
     <use xlink:href="#m8817e96396" x="796.248948" y="223.836174" style="fill: #841e5a; fill-opacity: 0.8"/>
     <use xlink:href="#m8817e96396" x="637.372915" y="277.00218" style="fill: #841e5a; fill-opacity: 0.8"/>
     <use xlink:href="#m8817e96396" x="637.372915" y="276.309914" style="fill: #841e5a; fill-opacity: 0.8"/>
     <use xlink:href="#m8817e96396" x="557.934898" y="264.854034" style="fill: #841e5a; fill-opacity: 0.8"/>
     <use xlink:href="#m8817e96396" x="875.686964" y="210.544672" style="fill: #841e5a; fill-opacity: 0.8"/>
     <use xlink:href="#m8817e96396" x="875.686964" y="237.699353" style="fill: #841e5a; fill-opacity: 0.8"/>
     <use xlink:href="#m8817e96396" x="955.124981" y="210.544672" style="fill: #841e5a; fill-opacity: 0.8"/>
     <use xlink:href="#m8817e96396" x="875.686964" y="236.850769" style="fill: #841e5a; fill-opacity: 0.8"/>
     <use xlink:href="#m8817e96396" x="1034.562997" y="250.003818" style="fill: #841e5a; fill-opacity: 0.8"/>
     <use xlink:href="#m8817e96396" x="955.124981" y="236.579572" style="fill: #841e5a; fill-opacity: 0.8"/>
     <use xlink:href="#m8817e96396" x="875.686964" y="349.302106" style="fill: #841e5a; fill-opacity: 0.8"/>
     <use xlink:href="#m8817e96396" x="677.091923" y="210.544672" style="fill: #841e5a; fill-opacity: 0.8"/>
     <use xlink:href="#m8817e96396" x="955.124981" y="694.129091" style="fill: #841e5a; fill-opacity: 0.8"/>
    </g>
   </g>
   <g id="PolyCollection_1">
    <defs>
     <path id="m7085885080" d="M 160.744815 -785.54081 
L 160.744815 -506.526778 
L 169.571262 -507.517928 
L 178.397708 -508.563535 
L 187.224154 -509.678759 
L 196.0506 -510.793984 
L 204.877047 -511.909209 
L 213.703493 -513.024434 
L 222.529939 -514.139659 
L 231.356386 -515.193894 
L 240.182832 -516.074313 
L 249.009278 -516.954733 
L 257.835724 -517.736994 
L 266.662171 -518.480692 
L 275.488617 -519.370536 
L 284.315063 -520.360399 
L 293.14151 -521.35683 
L 301.967956 -522.335453 
L 310.794402 -523.320582 
L 319.620848 -524.305712 
L 328.447295 -525.290841 
L 337.273741 -526.275971 
L 346.100187 -527.261101 
L 354.926634 -528.24623 
L 363.75308 -529.23136 
L 372.579526 -530.216489 
L 381.405972 -531.201619 
L 390.232419 -532.186749 
L 399.058865 -533.174943 
L 407.885311 -534.167964 
L 416.711757 -535.160984 
L 425.538204 -536.154004 
L 434.36465 -537.147024 
L 443.191096 -538.140044 
L 452.017543 -539.12156 
L 460.843989 -539.917783 
L 469.670435 -541.101386 
L 478.496881 -541.905433 
L 487.323328 -541.878177 
L 496.149774 -542.771869 
L 504.97622 -542.412188 
L 513.802667 -542.490312 
L 522.629113 -542.118061 
L 531.455559 -542.222319 
L 540.282005 -541.462958 
L 549.108452 -540.875343 
L 557.934898 -539.323505 
L 566.761344 -538.310245 
L 575.587791 -536.398122 
L 584.414237 -534.865875 
L 593.240683 -533.685783 
L 602.067129 -531.81602 
L 610.893576 -530.01641 
L 619.720022 -528.379085 
L 628.546468 -526.768973 
L 637.372915 -525.299783 
L 646.199361 -523.482887 
L 655.025807 -521.612187 
L 663.852253 -519.782012 
L 672.6787 -518.114453 
L 681.505146 -516.23952 
L 690.331592 -514.323736 
L 699.158038 -512.469833 
L 707.984485 -510.76751 
L 716.810931 -509.269908 
L 725.637377 -507.180765 
L 734.463824 -504.988845 
L 743.29027 -501.404347 
L 752.116716 -499.278751 
L 760.943162 -497.233813 
L 769.769609 -494.775479 
L 778.596055 -491.516574 
L 787.422501 -487.843468 
L 796.248948 -485.476556 
L 805.075394 -483.372683 
L 813.90184 -481.030196 
L 822.728286 -477.861094 
L 831.554733 -475.246677 
L 840.381179 -471.508068 
L 849.207625 -469.289332 
L 858.034072 -465.689542 
L 866.860518 -461.460588 
L 875.686964 -458.7627 
L 884.51341 -455.603674 
L 893.339857 -452.289817 
L 902.166303 -449.256464 
L 910.992749 -446.090433 
L 919.819196 -443.753919 
L 928.645642 -441.031632 
L 937.472088 -436.807896 
L 946.298534 -434.0285 
L 955.124981 -431.255464 
L 963.951427 -428.001433 
L 972.777873 -424.078009 
L 981.604319 -421.34817 
L 990.430766 -418.596557 
L 999.257212 -415.163569 
L 1008.083658 -411.146932 
L 1016.910105 -407.964319 
L 1025.736551 -404.795505 
L 1034.562997 -401.611433 
L 1034.562997 -610.721059 
L 1034.562997 -610.721059 
L 1025.736551 -609.735914 
L 1016.910105 -608.74987 
L 1008.083658 -607.763825 
L 999.257212 -606.777781 
L 990.430766 -605.791736 
L 981.604319 -604.891363 
L 972.777873 -604.227457 
L 963.951427 -603.316767 
L 955.124981 -602.377695 
L 946.298534 -601.42974 
L 937.472088 -600.697321 
L 928.645642 -600.216616 
L 919.819196 -599.215412 
L 910.992749 -598.448224 
L 902.166303 -597.552088 
L 893.339857 -596.71767 
L 884.51341 -595.683274 
L 875.686964 -594.845157 
L 866.860518 -594.200238 
L 858.034072 -593.707092 
L 849.207625 -593.05587 
L 840.381179 -592.336822 
L 831.554733 -591.713717 
L 822.728286 -591.102082 
L 813.90184 -590.668614 
L 805.075394 -590.233791 
L 796.248948 -589.798716 
L 787.422501 -589.109043 
L 778.596055 -588.800259 
L 769.769609 -588.487162 
L 760.943162 -588.033527 
L 752.116716 -587.373504 
L 743.29027 -587.009895 
L 734.463824 -586.494463 
L 725.637377 -585.900792 
L 716.810931 -585.247893 
L 707.984485 -585.099291 
L 699.158038 -586.069107 
L 690.331592 -585.777799 
L 681.505146 -586.261481 
L 672.6787 -587.082243 
L 663.852253 -588.004788 
L 655.025807 -589.678415 
L 646.199361 -591.437562 
L 637.372915 -593.497155 
L 628.546468 -595.514453 
L 619.720022 -597.586648 
L 610.893576 -600.093822 
L 602.067129 -603.777052 
L 593.240683 -606.448757 
L 584.414237 -610.034741 
L 575.587791 -614.044666 
L 566.761344 -616.104587 
L 557.934898 -619.841131 
L 549.108452 -624.478464 
L 540.282005 -627.642022 
L 531.455559 -631.201663 
L 522.629113 -634.735599 
L 513.802667 -637.907 
L 504.97622 -640.860239 
L 496.149774 -643.801426 
L 487.323328 -646.732105 
L 478.496881 -649.773241 
L 469.670435 -653.059515 
L 460.843989 -656.982242 
L 452.017543 -660.661585 
L 443.191096 -664.38641 
L 434.36465 -668.162042 
L 425.538204 -671.498312 
L 416.711757 -674.522013 
L 407.885311 -678.27156 
L 399.058865 -681.952471 
L 390.232419 -686.179626 
L 381.405972 -690.291876 
L 372.579526 -693.111022 
L 363.75308 -695.927868 
L 354.926634 -698.880424 
L 346.100187 -702.262605 
L 337.273741 -705.711836 
L 328.447295 -709.826541 
L 319.620848 -713.941246 
L 310.794402 -718.055951 
L 301.967956 -722.170656 
L 293.14151 -726.285361 
L 284.315063 -730.400066 
L 275.488617 -734.514771 
L 266.662171 -738.629476 
L 257.835724 -742.74418 
L 249.009278 -746.858885 
L 240.182832 -750.97359 
L 231.356386 -755.088295 
L 222.529939 -759.023096 
L 213.703493 -762.81751 
L 204.877047 -766.300453 
L 196.0506 -769.146617 
L 187.224154 -773.377196 
L 178.397708 -777.692021 
L 169.571262 -781.741264 
L 160.744815 -785.54081 
z
" style="stroke: #ffffff; stroke-opacity: 0.15; stroke-width: 0.24"/>
    </defs>
    <g clip-path="url(#p22fa0b977c)">
     <use xlink:href="#m7085885080" x="0" y="825.451719" style="fill: #841e5a; fill-opacity: 0.15; stroke: #ffffff; stroke-opacity: 0.15; stroke-width: 0.24"/>
    </g>
   </g>
   <g id="PathCollection_2">
    <defs>
     <path id="m618628b31b" d="M 0 10 
C 2.652031 10 5.195799 8.946337 7.071068 7.071068 
C 8.946337 5.195799 10 2.652031 10 0 
C 10 -2.652031 8.946337 -5.195799 7.071068 -7.071068 
C 5.195799 -8.946337 2.652031 -10 0 -10 
C -2.652031 -10 -5.195799 -8.946337 -7.071068 -7.071068 
C -8.946337 -5.195799 -10 -2.652031 -10 0 
C -10 2.652031 -8.946337 5.195799 -7.071068 7.071068 
C -5.195799 8.946337 -2.652031 10 0 10 
z
"/>
    </defs>
    <g clip-path="url(#p22fa0b977c)">
     <use xlink:href="#m618628b31b" x="994.843989" y="210.544672" style="fill: #f06043; fill-opacity: 0.8"/>
     <use xlink:href="#m618628b31b" x="796.248948" y="210.544672" style="fill: #f06043; fill-opacity: 0.8"/>
     <use xlink:href="#m618628b31b" x="716.810931" y="210.544672" style="fill: #f06043; fill-opacity: 0.8"/>
     <use xlink:href="#m618628b31b" x="796.248948" y="223.977573" style="fill: #f06043; fill-opacity: 0.8"/>
     <use xlink:href="#m618628b31b" x="716.810931" y="223.977573" style="fill: #f06043; fill-opacity: 0.8"/>
     <use xlink:href="#m618628b31b" x="955.124981" y="210.544672" style="fill: #f06043; fill-opacity: 0.8"/>
     <use xlink:href="#m618628b31b" x="849.207625" y="223.836174" style="fill: #f06043; fill-opacity: 0.8"/>
     <use xlink:href="#m618628b31b" x="875.686964" y="306.619113" style="fill: #f06043; fill-opacity: 0.8"/>
     <use xlink:href="#m618628b31b" x="855.82746" y="292.894193" style="fill: #f06043; fill-opacity: 0.8"/>
     <use xlink:href="#m618628b31b" x="557.934898" y="347.793873" style="fill: #f06043; fill-opacity: 0.8"/>
     <use xlink:href="#m618628b31b" x="399.058865" y="278.431374" style="fill: #f06043; fill-opacity: 0.8"/>
     <use xlink:href="#m618628b31b" x="796.248948" y="468.23705" style="fill: #f06043; fill-opacity: 0.8"/>
     <use xlink:href="#m618628b31b" x="796.248948" y="236.850769" style="fill: #f06043; fill-opacity: 0.8"/>
    </g>
   </g>
   <g id="PolyCollection_2">
    <defs>
     <path id="mcfcc95d2b0" d="M 399.058865 -605.747456 
L 399.058865 -409.799923 
L 405.076896 -411.51493 
L 411.094928 -413.229936 
L 417.11296 -414.944943 
L 423.130991 -416.65995 
L 429.149023 -418.46211 
L 435.167054 -420.320922 
L 441.185086 -422.179735 
L 447.203117 -424.038548 
L 453.221149 -425.897361 
L 459.23918 -427.756173 
L 465.257212 -429.614986 
L 471.275244 -431.473799 
L 477.293275 -433.332612 
L 483.311307 -435.191424 
L 489.329338 -437.053179 
L 495.34737 -438.918545 
L 501.365401 -440.783911 
L 507.383433 -442.649277 
L 513.401464 -444.430274 
L 519.419496 -445.768367 
L 525.437528 -447.434009 
L 531.455559 -449.391063 
L 537.473591 -451.348118 
L 543.491622 -453.305172 
L 549.509654 -455.042147 
L 555.527685 -456.615647 
L 561.545717 -458.189148 
L 567.563748 -459.762648 
L 573.58178 -461.336149 
L 579.599812 -462.909649 
L 585.617843 -464.486633 
L 591.635875 -466.071387 
L 597.653906 -467.656142 
L 603.671938 -469.4162 
L 609.689969 -470.780093 
L 615.708001 -472.350652 
L 621.726032 -473.927609 
L 627.744064 -475.575241 
L 633.762096 -477.863598 
L 639.780127 -480.151954 
L 645.798159 -482.447179 
L 651.81619 -484.745721 
L 657.834222 -487.044263 
L 663.852253 -489.081564 
L 669.870285 -489.833591 
L 675.888316 -490.585618 
L 681.906348 -492.632798 
L 687.92438 -494.685896 
L 693.942411 -496.317178 
L 699.960443 -498.291329 
L 705.978474 -500.266196 
L 711.996506 -501.981216 
L 718.014537 -503.155202 
L 724.032569 -504.17654 
L 730.0506 -506.210406 
L 736.068632 -507.742239 
L 742.086664 -509.207215 
L 748.104695 -510.485155 
L 754.122727 -510.990392 
L 760.140758 -512.253511 
L 766.15879 -512.517727 
L 772.176821 -513.720576 
L 778.194853 -514.727963 
L 784.212884 -515.885849 
L 790.230916 -517.414069 
L 796.248948 -517.606471 
L 802.266979 -517.73627 
L 808.285011 -518.252318 
L 814.303042 -519.848354 
L 820.321074 -520.213099 
L 826.339105 -519.983432 
L 832.357137 -521.456111 
L 838.375168 -520.10434 
L 844.3932 -521.969267 
L 850.411232 -522.402347 
L 856.429263 -521.569327 
L 862.447295 -521.102725 
L 868.465326 -522.435179 
L 874.483358 -521.219698 
L 880.501389 -520.933312 
L 886.519421 -521.403568 
L 892.537452 -521.877248 
L 898.555484 -521.413382 
L 904.573516 -521.807771 
L 910.591547 -521.566533 
L 916.609579 -521.874659 
L 922.62761 -521.205966 
L 928.645642 -520.765358 
L 934.663673 -521.158078 
L 940.681705 -521.312112 
L 946.699736 -521.467584 
L 952.717768 -521.623055 
L 958.7358 -521.778527 
L 964.753831 -521.805655 
L 970.771863 -520.82312 
L 976.789894 -520.066873 
L 982.807926 -520.120007 
L 988.825957 -519.804134 
L 994.843989 -519.234211 
L 994.843989 -631.957447 
L 994.843989 -631.957447 
L 988.825957 -630.470436 
L 982.807926 -628.975476 
L 976.789894 -628.007162 
L 970.771863 -626.199653 
L 964.753831 -624.715368 
L 958.7358 -623.623798 
L 952.717768 -622.516788 
L 946.699736 -621.238913 
L 940.681705 -620.327244 
L 934.663673 -618.607346 
L 928.645642 -617.393198 
L 922.62761 -616.419699 
L 916.609579 -615.502993 
L 910.591547 -614.251939 
L 904.573516 -612.801656 
L 898.555484 -611.70942 
L 892.537452 -610.677755 
L 886.519421 -609.731069 
L 880.501389 -608.789351 
L 874.483358 -607.877703 
L 868.465326 -606.918999 
L 862.447295 -605.979989 
L 856.429263 -605.08483 
L 850.411232 -604.38034 
L 844.3932 -603.251007 
L 838.375168 -602.437365 
L 832.357137 -602.223849 
L 826.339105 -601.560682 
L 820.321074 -600.66979 
L 814.303042 -599.653463 
L 808.285011 -598.676869 
L 802.266979 -598.323115 
L 796.248948 -598.034834 
L 790.230916 -597.712907 
L 784.212884 -597.457226 
L 778.194853 -597.179424 
L 772.176821 -596.887199 
L 766.15879 -596.718583 
L 760.140758 -596.496246 
L 754.122727 -596.021796 
L 748.104695 -596.104603 
L 742.086664 -596.233259 
L 736.068632 -596.282238 
L 730.0506 -596.565743 
L 724.032569 -596.738389 
L 718.014537 -596.881668 
L 711.996506 -596.805805 
L 705.978474 -597.09257 
L 699.960443 -597.348845 
L 693.942411 -597.504571 
L 687.92438 -597.660296 
L 681.906348 -597.90302 
L 675.888316 -598.067999 
L 669.870285 -598.127473 
L 663.852253 -598.342753 
L 657.834222 -598.568966 
L 651.81619 -598.73143 
L 645.798159 -598.750376 
L 639.780127 -598.906101 
L 633.762096 -599.061827 
L 627.744064 -599.217553 
L 621.726032 -599.393845 
L 615.708001 -599.529004 
L 609.689969 -599.68473 
L 603.671938 -599.840455 
L 597.653906 -599.996181 
L 591.635875 -600.14861 
L 585.617843 -600.14913 
L 579.599812 -600.037533 
L 573.58178 -599.925936 
L 567.563748 -599.814338 
L 561.545717 -599.702741 
L 555.527685 -599.982342 
L 549.509654 -600.526157 
L 543.491622 -601.069973 
L 537.473591 -601.546471 
L 531.455559 -601.701569 
L 525.437528 -601.707522 
L 519.419496 -601.658636 
L 513.401464 -601.602833 
L 507.383433 -601.67458 
L 501.365401 -601.531365 
L 495.34737 -601.463006 
L 489.329338 -601.418332 
L 483.311307 -601.371113 
L 477.293275 -601.323055 
L 471.275244 -601.274996 
L 465.257212 -601.226938 
L 459.23918 -601.855309 
L 453.221149 -602.572769 
L 447.203117 -603.290229 
L 441.185086 -604.00769 
L 435.167054 -604.194243 
L 429.149023 -604.346606 
L 423.130991 -604.498969 
L 417.11296 -604.978904 
L 411.094928 -605.394719 
L 405.076896 -605.571087 
L 399.058865 -605.747456 
z
" style="stroke: #ffffff; stroke-opacity: 0.15; stroke-width: 0.24"/>
    </defs>
    <g clip-path="url(#p22fa0b977c)">
     <use xlink:href="#mcfcc95d2b0" x="0" y="825.451719" style="fill: #f06043; fill-opacity: 0.15; stroke: #ffffff; stroke-opacity: 0.15; stroke-width: 0.24"/>
    </g>
   </g>
   <g id="line2d_1">
    <path d="M 160.744815 236.033238 
L 169.571262 236.620409 
L 178.397708 237.20758 
L 187.224154 237.794751 
L 196.0506 238.381922 
L 204.877047 238.969093 
L 213.703493 239.556264 
L 222.529939 240.143435 
L 231.356386 240.730606 
L 240.182832 241.317777 
L 249.009278 241.904948 
L 257.835724 242.49212 
L 266.662171 243.079291 
L 275.488617 243.666462 
L 284.315063 244.253633 
L 293.14151 244.840804 
L 301.967956 245.427975 
L 310.794402 246.015146 
L 319.620848 246.602317 
L 328.447295 247.189488 
L 337.273741 247.776659 
L 346.100187 248.36383 
L 354.926634 248.951001 
L 363.75308 249.538173 
L 372.579526 250.125344 
L 381.405972 250.712515 
L 390.232419 251.299686 
L 399.058865 251.886857 
L 407.885311 252.474028 
L 416.711757 253.061199 
L 425.538204 253.64837 
L 434.36465 254.235541 
L 443.191096 254.822712 
L 452.017543 255.409883 
L 460.843989 255.997054 
L 469.670435 256.584225 
L 478.496881 257.171397 
L 487.323328 257.758568 
L 496.149774 258.345739 
L 504.97622 258.93291 
L 513.802667 259.520081 
L 522.629113 260.107252 
L 531.455559 260.694423 
L 540.282005 261.281594 
L 549.108452 261.868765 
L 557.934898 262.455936 
L 566.761344 263.043107 
L 575.587791 263.630278 
L 584.414237 264.21745 
L 593.240683 264.804621 
L 602.067129 265.391792 
L 610.893576 265.978963 
L 619.720022 266.566134 
L 628.546468 267.153305 
L 637.372915 267.740476 
L 646.199361 268.327647 
L 655.025807 268.914818 
L 663.852253 269.501989 
L 672.6787 270.08916 
L 681.505146 270.676331 
L 690.331592 271.263502 
L 699.158038 271.850674 
L 707.984485 272.437845 
L 716.810931 273.025016 
L 725.637377 273.612187 
L 734.463824 274.199358 
L 743.29027 274.786529 
L 752.116716 275.3737 
L 760.943162 275.960871 
L 769.769609 276.548042 
L 778.596055 277.135213 
L 787.422501 277.722384 
L 796.248948 278.309555 
L 805.075394 278.896727 
L 813.90184 279.483898 
L 822.728286 280.071069 
L 831.554733 280.65824 
L 840.381179 281.245411 
L 849.207625 281.832582 
L 858.034072 282.419753 
L 866.860518 283.006924 
L 875.686964 283.594095 
L 884.51341 284.181266 
L 893.339857 284.768437 
L 902.166303 285.355608 
L 910.992749 285.942779 
L 919.819196 286.529951 
L 928.645642 287.117122 
L 937.472088 287.704293 
L 946.298534 288.291464 
L 955.124981 288.878635 
L 963.951427 289.465806 
L 972.777873 290.052977 
L 981.604319 290.640148 
L 990.430766 291.227319 
L 999.257212 291.81449 
L 1008.083658 292.401661 
L 1016.910105 292.988832 
L 1025.736551 293.576004 
L 1034.562997 294.163175 
" clip-path="url(#p22fa0b977c)" style="fill: none; stroke: #841e5a; stroke-width: 9; stroke-linecap: round"/>
   </g>
   <g id="line2d_2">
    <path d="M 399.058865 308.083227 
L 405.076896 307.397695 
L 411.094928 306.712162 
L 417.11296 306.02663 
L 423.130991 305.341098 
L 429.149023 304.655565 
L 435.167054 303.970033 
L 441.185086 303.284501 
L 447.203117 302.598968 
L 453.221149 301.913436 
L 459.23918 301.227904 
L 465.257212 300.542371 
L 471.275244 299.856839 
L 477.293275 299.171307 
L 483.311307 298.485775 
L 489.329338 297.800242 
L 495.34737 297.11471 
L 501.365401 296.429178 
L 507.383433 295.743645 
L 513.401464 295.058113 
L 519.419496 294.372581 
L 525.437528 293.687048 
L 531.455559 293.001516 
L 537.473591 292.315984 
L 543.491622 291.630451 
L 549.509654 290.944919 
L 555.527685 290.259387 
L 561.545717 289.573854 
L 567.563748 288.888322 
L 573.58178 288.20279 
L 579.599812 287.517257 
L 585.617843 286.831725 
L 591.635875 286.146193 
L 597.653906 285.46066 
L 603.671938 284.775128 
L 609.689969 284.089596 
L 615.708001 283.404063 
L 621.726032 282.718531 
L 627.744064 282.032999 
L 633.762096 281.347466 
L 639.780127 280.661934 
L 645.798159 279.976402 
L 651.81619 279.290869 
L 657.834222 278.605337 
L 663.852253 277.919805 
L 669.870285 277.234272 
L 675.888316 276.54874 
L 681.906348 275.863208 
L 687.92438 275.177675 
L 693.942411 274.492143 
L 699.960443 273.806611 
L 705.978474 273.121078 
L 711.996506 272.435546 
L 718.014537 271.750014 
L 724.032569 271.064481 
L 730.0506 270.378949 
L 736.068632 269.693417 
L 742.086664 269.007884 
L 748.104695 268.322352 
L 754.122727 267.63682 
L 760.140758 266.951287 
L 766.15879 266.265755 
L 772.176821 265.580223 
L 778.194853 264.89469 
L 784.212884 264.209158 
L 790.230916 263.523626 
L 796.248948 262.838093 
L 802.266979 262.152561 
L 808.285011 261.467029 
L 814.303042 260.781496 
L 820.321074 260.095964 
L 826.339105 259.410432 
L 832.357137 258.724899 
L 838.375168 258.039367 
L 844.3932 257.353835 
L 850.411232 256.668302 
L 856.429263 255.98277 
L 862.447295 255.297238 
L 868.465326 254.611705 
L 874.483358 253.926173 
L 880.501389 253.240641 
L 886.519421 252.555109 
L 892.537452 251.869576 
L 898.555484 251.184044 
L 904.573516 250.498512 
L 910.591547 249.812979 
L 916.609579 249.127447 
L 922.62761 248.441915 
L 928.645642 247.756382 
L 934.663673 247.07085 
L 940.681705 246.385318 
L 946.699736 245.699785 
L 952.717768 245.014253 
L 958.7358 244.328721 
L 964.753831 243.643188 
L 970.771863 242.957656 
L 976.789894 242.272124 
L 982.807926 241.586591 
L 988.825957 240.901059 
L 994.843989 240.215527 
" clip-path="url(#p22fa0b977c)" style="fill: none; stroke: #f06043; stroke-width: 9; stroke-linecap: round"/>
   </g>
   <g id="patch_3">
    <path d="M 117.053906 726.84 
L 117.053906 7.2 
" style="fill: none; stroke: #262626; stroke-width: 0.8; stroke-linejoin: miter; stroke-linecap: square"/>
   </g>
   <g id="patch_4">
    <path d="M 117.053906 726.84 
L 1078.253906 726.84 
" style="fill: none; stroke: #262626; stroke-width: 0.8; stroke-linejoin: miter; stroke-linecap: square"/>
   </g>
   <g id="legend_1">
    <g id="patch_5">
     <path d="M 916.253906 116.071875 
L 1057.253906 116.071875 
Q 1063.253906 116.071875 1063.253906 110.071875 
L 1063.253906 28.2 
Q 1063.253906 22.2 1057.253906 22.2 
L 916.253906 22.2 
Q 910.253906 22.2 910.253906 28.2 
L 910.253906 110.071875 
Q 910.253906 116.071875 916.253906 116.071875 
z
" style="fill: #ffffff; opacity: 0.8; stroke: #cccccc; stroke-width: 0.24; stroke-linejoin: miter"/>
    </g>
    <g id="PathCollection_3">
     <g>
      <use xlink:href="#m8817e96396" x="952.253906" y="47.798438" style="fill: #841e5a; fill-opacity: 0.8"/>
     </g>
    </g>
    <g id="text_15">
     <!-- CO -->
     <g style="fill: #262626" transform="translate(1006.253906 55.673438)scale(0.3 -0.3)">
      <use xlink:href="#ArialMT-43"/>
      <use xlink:href="#ArialMT-4f" x="72.216797"/>
     </g>
    </g>
    <g id="PathCollection_4">
     <g>
      <use xlink:href="#m618628b31b" x="952.253906" y="90.234375" style="fill: #f06043; fill-opacity: 0.8"/>
     </g>
    </g>
    <g id="text_16">
     <!-- CD -->
     <g style="fill: #262626" transform="translate(1006.253906 98.109375)scale(0.3 -0.3)">
      <defs>
       <path id="ArialMT-44" d="M 494 0 
L 494 4581 
L 2072 4581 
Q 2606 4581 2888 4516 
Q 3281 4425 3559 4188 
Q 3922 3881 4101 3404 
Q 4281 2928 4281 2316 
Q 4281 1794 4159 1391 
Q 4038 988 3847 723 
Q 3656 459 3429 307 
Q 3203 156 2883 78 
Q 2563 0 2147 0 
L 494 0 
z
M 1100 541 
L 2078 541 
Q 2531 541 2789 625 
Q 3047 709 3200 863 
Q 3416 1078 3536 1442 
Q 3656 1806 3656 2325 
Q 3656 3044 3420 3430 
Q 3184 3816 2847 3947 
Q 2603 4041 2063 4041 
L 1100 4041 
L 1100 541 
z
" transform="scale(0.015625)"/>
      </defs>
      <use xlink:href="#ArialMT-43"/>
      <use xlink:href="#ArialMT-44" x="72.216797"/>
     </g>
    </g>
   </g>
  </g>
  <g id="legend_2">
   <g id="text_17">
    <!-- group -->
    <g style="fill: #262626" transform="translate(981.167187 372.816484)scale(0.1 -0.1)">
     <defs>
      <path id="ArialMT-67" d="M 319 -275 
L 866 -356 
Q 900 -609 1056 -725 
Q 1266 -881 1628 -881 
Q 2019 -881 2231 -725 
Q 2444 -569 2519 -288 
Q 2563 -116 2559 434 
Q 2191 0 1641 0 
Q 956 0 581 494 
Q 206 988 206 1678 
Q 206 2153 378 2554 
Q 550 2956 876 3175 
Q 1203 3394 1644 3394 
Q 2231 3394 2613 2919 
L 2613 3319 
L 3131 3319 
L 3131 450 
Q 3131 -325 2973 -648 
Q 2816 -972 2473 -1159 
Q 2131 -1347 1631 -1347 
Q 1038 -1347 672 -1080 
Q 306 -813 319 -275 
z
M 784 1719 
Q 784 1066 1043 766 
Q 1303 466 1694 466 
Q 2081 466 2343 764 
Q 2606 1063 2606 1700 
Q 2606 2309 2336 2618 
Q 2066 2928 1684 2928 
Q 1309 2928 1046 2623 
Q 784 2319 784 1719 
z
" transform="scale(0.015625)"/>
      <path id="ArialMT-75" d="M 2597 0 
L 2597 488 
Q 2209 -75 1544 -75 
Q 1250 -75 995 37 
Q 741 150 617 320 
Q 494 491 444 738 
Q 409 903 409 1263 
L 409 3319 
L 972 3319 
L 972 1478 
Q 972 1038 1006 884 
Q 1059 663 1231 536 
Q 1403 409 1656 409 
Q 1909 409 2131 539 
Q 2353 669 2445 892 
Q 2538 1116 2538 1541 
L 2538 3319 
L 3100 3319 
L 3100 0 
L 2597 0 
z
" transform="scale(0.015625)"/>
      <path id="ArialMT-70" d="M 422 -1272 
L 422 3319 
L 934 3319 
L 934 2888 
Q 1116 3141 1344 3267 
Q 1572 3394 1897 3394 
Q 2322 3394 2647 3175 
Q 2972 2956 3137 2557 
Q 3303 2159 3303 1684 
Q 3303 1175 3120 767 
Q 2938 359 2589 142 
Q 2241 -75 1856 -75 
Q 1575 -75 1351 44 
Q 1128 163 984 344 
L 984 -1272 
L 422 -1272 
z
M 931 1641 
Q 931 1000 1190 694 
Q 1450 388 1819 388 
Q 2194 388 2461 705 
Q 2728 1022 2728 1688 
Q 2728 2322 2467 2637 
Q 2206 2953 1844 2953 
Q 1484 2953 1207 2617 
Q 931 2281 931 1641 
z
" transform="scale(0.015625)"/>
     </defs>
     <use xlink:href="#ArialMT-67"/>
     <use xlink:href="#ArialMT-72" x="55.615234"/>
     <use xlink:href="#ArialMT-6f" x="88.916016"/>
     <use xlink:href="#ArialMT-75" x="144.53125"/>
     <use xlink:href="#ArialMT-70" x="200.146484"/>
    </g>
   </g>
   <g id="PathCollection_5">
    <g>
     <use xlink:href="#m8817e96396" x="959.453906" y="403.519609" style="fill: #841e5a; fill-opacity: 0.8"/>
    </g>
   </g>
   <g id="text_18">
    <!-- CO -->
    <g style="fill: #262626" transform="translate(1013.453906 411.394609)scale(0.3 -0.3)">
     <use xlink:href="#ArialMT-43"/>
     <use xlink:href="#ArialMT-4f" x="72.216797"/>
    </g>
   </g>
   <g id="PathCollection_6">
    <g>
     <use xlink:href="#m618628b31b" x="959.453906" y="445.955547" style="fill: #f06043; fill-opacity: 0.8"/>
    </g>
   </g>
   <g id="text_19">
    <!-- CD -->
    <g style="fill: #262626" transform="translate(1013.453906 453.830547)scale(0.3 -0.3)">
     <use xlink:href="#ArialMT-43"/>
     <use xlink:href="#ArialMT-44" x="72.216797"/>
    </g>
   </g>
  </g>
 </g>
 <defs>
  <clipPath id="p22fa0b977c">
   <rect x="117.053906" y="7.2" width="961.2" height="719.64"/>
  </clipPath>
 </defs>
</svg>
