<svg id="Layer_1" data-name="Layer 1" xmlns="http://www.w3.org/2000/svg" xmlns:xlink="http://www.w3.org/1999/xlink" viewBox="0 0 1534.39 1001.71"><defs><style>.cls-1,.cls-5,.cls-7,.cls-9{fill:none;}.cls-2{fill:#fff;}.cls-3{fill:#262626;}.cls-4{clip-path:url(#clip-path);}.cls-5{stroke:#841e5a;stroke-linecap:round;}.cls-5,.cls-6,.cls-7{stroke-linejoin:round;}.cls-5,.cls-7{stroke-width:6px;}.cls-10,.cls-6{fill:#841e5a;}.cls-6,.cls-8{stroke:#fff;stroke-width:0.75px;}.cls-7{stroke:#f06043;stroke-dasharray:24 9;}.cls-11,.cls-8{fill:#f06043;}.cls-9{stroke:#262626;stroke-linecap:square;stroke-width:0.8px;}.cls-12{clip-path:url(#clip-path-5);}</style><clipPath id="clip-path" transform="translate(-6.46 -4.97)"><rect class="cls-1" x="150.76" y="51.83" width="613.64" height="863.57"/></clipPath><clipPath id="clip-path-5" transform="translate(-6.46 -4.97)"><rect class="cls-1" x="917.68" y="53.99" width="613.64" height="863.57"/></clipPath></defs><g id="patch_2" data-name="patch 2"><path class="cls-2" d="M150.76,915.4H764.4V51.83H150.76Z" transform="translate(-6.46 -4.97)"/></g><g id="xtick_1" data-name="xtick 1"><g id="text_1" data-name="text 1"><path id="ArialMT-30" class="cls-3" d="M144.43,939a26,26,0,0,1,1-8.18,10.15,10.15,0,0,1,3.1-4.77,7.93,7.93,0,0,1,5.19-1.68,8.55,8.55,0,0,1,4,.93,7.75,7.75,0,0,1,2.87,2.67,14.26,14.26,0,0,1,1.78,4.26,28.52,28.52,0,0,1,.64,6.77,26.26,26.26,0,0,1-1,8.13,10.21,10.21,0,0,1-3.1,4.79,8,8,0,0,1-5.2,1.69,7.83,7.83,0,0,1-6.5-3Q144.44,947.07,144.43,939Zm3.62,0q0,7.05,1.65,9.39a4.71,4.71,0,0,0,6.44,1.7,4.77,4.77,0,0,0,1.7-1.7q1.65-2.34,1.65-9.37t-1.65-9.39a4.89,4.89,0,0,0-4.11-2.33,4.52,4.52,0,0,0-3.87,2.05C148.65,931.09,148,934.3,148.05,939Z" transform="translate(-6.46 -4.97)"/><path id="ArialMT-2e" class="cls-3" d="M168.65,953.13v-4h4v4Z" transform="translate(-6.46 -4.97)"/><path id="ArialMT-33" class="cls-3" d="M177.81,945.57l3.52-.47a7.71,7.71,0,0,0,2.06,4.31,5.08,5.08,0,0,0,3.54,1.32,5.7,5.7,0,0,0,4.19-1.72,5.82,5.82,0,0,0,1.71-4.26,5.4,5.4,0,0,0-1.58-4,5.48,5.48,0,0,0-4-1.58,10.51,10.51,0,0,0-2.49.39l.4-3.09h.56a7.19,7.19,0,0,0,4-1.17,4,4,0,0,0,1.8-3.62,4.25,4.25,0,0,0-1.26-3.16,4.63,4.63,0,0,0-3.37-1.27,4.75,4.75,0,0,0-3.42,1.29,6.39,6.39,0,0,0-1.76,3.86l-3.52-.62a9.07,9.07,0,0,1,2.93-5.48,8.49,8.49,0,0,1,5.69-1.94,9.35,9.35,0,0,1,4.31,1,7.37,7.37,0,0,1,3,2.75,7,7,0,0,1,1,3.69,6.05,6.05,0,0,1-1,3.38,6.83,6.83,0,0,1-3,2.42,6.67,6.67,0,0,1,4,2.43,7.42,7.42,0,0,1,1.4,4.62,8.47,8.47,0,0,1-2.73,6.36,9.64,9.64,0,0,1-6.92,2.6,9,9,0,0,1-6.26-2.24A8.7,8.7,0,0,1,177.81,945.57Z" transform="translate(-6.46 -4.97)"/></g></g><g id="xtick_2" data-name="xtick 2"><g id="text_2" data-name="text 2"><path id="ArialMT-30-2" class="cls-3" d="M225.26,939a26.31,26.31,0,0,1,1-8.18,10.15,10.15,0,0,1,3.1-4.77,7.94,7.94,0,0,1,5.18-1.68,8.49,8.49,0,0,1,4.05.93,7.75,7.75,0,0,1,2.87,2.67,14.26,14.26,0,0,1,1.78,4.26,28.52,28.52,0,0,1,.64,6.77,26,26,0,0,1-1,8.13,10.11,10.11,0,0,1-3.09,4.79,8,8,0,0,1-5.21,1.69,7.89,7.89,0,0,1-6.5-3Q225.26,947.07,225.26,939Zm3.62,0q0,7.05,1.65,9.39a4.71,4.71,0,0,0,6.44,1.7,4.77,4.77,0,0,0,1.7-1.7q1.65-2.34,1.65-9.37t-1.65-9.39a4.89,4.89,0,0,0-4.11-2.33,4.5,4.5,0,0,0-3.87,2.05c-1.19,1.73-1.79,4.94-1.79,9.65Z" transform="translate(-6.46 -4.97)"/><path id="ArialMT-2e-2" class="cls-3" d="M249.5,953.13v-4h4v4Z" transform="translate(-6.46 -4.97)"/><path id="ArialMT-34" class="cls-3" d="M269.91,953.13v-6.86H257.49v-3.22l13.06-18.53h2.87v18.55h3.84v3.22h-3.87v6.86Zm0-10.08V930.14l-9,12.91Z" transform="translate(-6.46 -4.97)"/></g></g><g id="xtick_3" data-name="xtick 3"><g id="text_3" data-name="text 3"><path id="ArialMT-30-3" class="cls-3" d="M306.13,939a26.31,26.31,0,0,1,1-8.18,10.23,10.23,0,0,1,3.1-4.77,8,8,0,0,1,5.19-1.68,8.49,8.49,0,0,1,4.05.93,7.8,7.8,0,0,1,2.86,2.67,14.28,14.28,0,0,1,1.79,4.26,28.52,28.52,0,0,1,.64,6.77,26.26,26.26,0,0,1-1,8.13,10.27,10.27,0,0,1-3.09,4.79,8,8,0,0,1-5.21,1.69,7.86,7.86,0,0,1-6.5-3Q306.13,947.07,306.13,939Zm3.61,0q0,7.05,1.65,9.39a4.72,4.72,0,0,0,8.15,0q1.65-2.34,1.65-9.37t-1.65-9.39a4.91,4.91,0,0,0-4.12-2.33,4.47,4.47,0,0,0-3.86,2.05c-1.21,1.73-1.82,4.94-1.82,9.65Z" transform="translate(-6.46 -4.97)"/><path id="ArialMT-2e-3" class="cls-3" d="M330.35,953.13v-4h4v4Z" transform="translate(-6.46 -4.97)"/><path id="ArialMT-35" class="cls-3" d="M339.49,945.63l3.69-.31a6.68,6.68,0,0,0,1.9,4,5.18,5.18,0,0,0,3.61,1.36,5.62,5.62,0,0,0,4.29-1.91,7.24,7.24,0,0,0,1.76-5.09,6.48,6.48,0,0,0-1.69-4.74,5.85,5.85,0,0,0-4.42-1.74,6.12,6.12,0,0,0-3.07.77,5.87,5.87,0,0,0-2.14,2l-3.3-.43,2.76-14.71h14.25v3.37H345.7l-1.54,7.69a9.31,9.31,0,0,1,5.41-1.8,8.54,8.54,0,0,1,6.32,2.6,9.08,9.08,0,0,1,2.58,6.68,10.48,10.48,0,0,1-2.26,6.72,9.08,9.08,0,0,1-7.52,3.48,9.28,9.28,0,0,1-6.38-2.19A8.48,8.48,0,0,1,339.49,945.63Z" transform="translate(-6.46 -4.97)"/></g></g><g id="xtick_4" data-name="xtick 4"><g id="text_4" data-name="text 4"><path id="ArialMT-30-4" class="cls-3" d="M387,939a26.31,26.31,0,0,1,1-8.18,10.23,10.23,0,0,1,3.1-4.77,8,8,0,0,1,5.19-1.68,8.32,8.32,0,0,1,4,.93,7.75,7.75,0,0,1,2.87,2.67,14.26,14.26,0,0,1,1.78,4.26,28,28,0,0,1,.65,6.77,26.26,26.26,0,0,1-1,8.13,10.27,10.27,0,0,1-3.09,4.79,8,8,0,0,1-5.21,1.69,7.86,7.86,0,0,1-6.5-3Q387,947.07,387,939Zm3.61,0q0,7.05,1.65,9.39a4.72,4.72,0,0,0,8.15,0Q402,946.06,402,939t-1.65-9.39a4.92,4.92,0,0,0-4.12-2.33,4.52,4.52,0,0,0-3.87,2.05C391.2,931.08,390.59,934.3,390.59,939Z" transform="translate(-6.46 -4.97)"/><path id="ArialMT-2e-4" class="cls-3" d="M411.19,953.13v-4h4v4Z" transform="translate(-6.46 -4.97)"/><path id="ArialMT-36" class="cls-3" d="M438.58,931.52l-3.5.27a6.66,6.66,0,0,0-1.32-3,4.7,4.7,0,0,0-3.52-1.5,4.88,4.88,0,0,0-3,.93,7.94,7.94,0,0,0-2.62,3.54,18.18,18.18,0,0,0-1,6.62,8.15,8.15,0,0,1,3.1-2.87,8.45,8.45,0,0,1,3.85-.94,8,8,0,0,1,6,2.59,9.29,9.29,0,0,1,2.48,6.69,11.12,11.12,0,0,1-1.16,5,8.55,8.55,0,0,1-3.2,3.54,8.79,8.79,0,0,1-4.61,1.24,9,9,0,0,1-7.17-3.24q-2.78-3.23-2.77-10.65,0-8.31,3.06-12.07a8.82,8.82,0,0,1,7.21-3.28,7.67,7.67,0,0,1,8.13,7.13Zm-14.32,12.33a8.36,8.36,0,0,0,.76,3.48,5.89,5.89,0,0,0,2.16,2.53,5.48,5.48,0,0,0,2.91.87,5,5,0,0,0,3.83-1.8,7,7,0,0,0,1.6-4.88,6.61,6.61,0,0,0-1.58-4.68,5.2,5.2,0,0,0-4-1.71,5.44,5.44,0,0,0-4.05,1.71A6.18,6.18,0,0,0,424.26,943.85Z" transform="translate(-6.46 -4.97)"/></g></g><g id="xtick_5" data-name="xtick 5"><g id="text_5" data-name="text 5"><path id="ArialMT-30-5" class="cls-3" d="M467.83,939a26.31,26.31,0,0,1,1-8.18,10.23,10.23,0,0,1,3.1-4.77,8,8,0,0,1,5.19-1.68,8.43,8.43,0,0,1,4,.93A7.75,7.75,0,0,1,484,928a14.26,14.26,0,0,1,1.78,4.26,28,28,0,0,1,.65,6.77,26.26,26.26,0,0,1-1,8.13,10.21,10.21,0,0,1-3.1,4.79,8,8,0,0,1-5.2,1.69,7.83,7.83,0,0,1-6.5-3Q467.83,947.07,467.83,939Zm3.61,0q0,7.05,1.65,9.39a4.71,4.71,0,0,0,6.44,1.7,4.77,4.77,0,0,0,1.7-1.7q1.65-2.34,1.65-9.37c0-4.69-.54-7.82-1.62-9.41a4.89,4.89,0,0,0-4.11-2.33,4.52,4.52,0,0,0-3.87,2.05C472.05,931.08,471.43,934.3,471.44,939Z" transform="translate(-6.46 -4.97)"/><path id="ArialMT-2e-5" class="cls-3" d="M492,953.13v-4h4v4Z" transform="translate(-6.46 -4.97)"/><path id="ArialMT-37" class="cls-3" d="M501.42,928.25v-3.38H520v2.73a38.85,38.85,0,0,0-5.43,7.73,46.43,46.43,0,0,0-4.14,9.93,36.22,36.22,0,0,0-1.35,7.87h-3.62a34.77,34.77,0,0,1,1.33-8.16,42.7,42.7,0,0,1,3.64-9.24,40.33,40.33,0,0,1,5-7.48Z" transform="translate(-6.46 -4.97)"/></g></g><g id="xtick_6" data-name="xtick 6"><g id="text_6" data-name="text 6"><path id="ArialMT-30-6" class="cls-3" d="M548.68,939a26.31,26.31,0,0,1,1-8.18,10.15,10.15,0,0,1,3.1-4.77,7.91,7.91,0,0,1,5.19-1.68,8.55,8.55,0,0,1,4,.93,7.75,7.75,0,0,1,2.87,2.67,14.26,14.26,0,0,1,1.78,4.26,28.52,28.52,0,0,1,.64,6.77,26.26,26.26,0,0,1-1,8.13,10.21,10.21,0,0,1-3.1,4.79,8,8,0,0,1-5.2,1.69,7.83,7.83,0,0,1-6.5-3Q548.68,947.07,548.68,939Zm3.61,0q0,7.05,1.65,9.39a4.71,4.71,0,0,0,6.44,1.7,4.77,4.77,0,0,0,1.7-1.7q1.65-2.34,1.65-9.37t-1.65-9.39a4.89,4.89,0,0,0-4.11-2.33,4.52,4.52,0,0,0-3.87,2.05c-1.23,1.73-1.84,4.94-1.84,9.65Z" transform="translate(-6.46 -4.97)"/><path id="ArialMT-2e-6" class="cls-3" d="M572.89,953.13v-4h4v4Z" transform="translate(-6.46 -4.97)"/><path id="ArialMT-38" class="cls-3" d="M587.44,937.6a6.61,6.61,0,0,1-3.24-2.28,6,6,0,0,1-1.05-3.56,6.93,6.93,0,0,1,2.24-5.25,9.44,9.44,0,0,1,12,0,7,7,0,0,1,2.29,5.3,5.87,5.87,0,0,1-1,3.47,6.58,6.58,0,0,1-3.17,2.27,7.32,7.32,0,0,1,5.39,7.35,8.27,8.27,0,0,1-2.6,6.17,10.58,10.58,0,0,1-13.67,0,8.36,8.36,0,0,1-2.6-6.26,7.55,7.55,0,0,1,1.42-4.68A7.1,7.1,0,0,1,587.44,937.6Zm-.7-6a4.51,4.51,0,0,0,1.31,3.33,4.65,4.65,0,0,0,3.4,1.28,4.53,4.53,0,0,0,3.33-1.27,4.27,4.27,0,0,0,1.3-3.14,4.36,4.36,0,0,0-1.35-3.26,4.52,4.52,0,0,0-3.32-1.31,4.61,4.61,0,0,0-3.34,1.29,4.11,4.11,0,0,0-1.33,3.12Zm-1.13,13.23a6.41,6.41,0,0,0,.71,2.91,5.07,5.07,0,0,0,2.12,2.18,6.29,6.29,0,0,0,3,.77,5.67,5.67,0,0,0,4.15-1.62,5.56,5.56,0,0,0,1.65-4.13,5.69,5.69,0,0,0-1.69-4.2,5.85,5.85,0,0,0-4.23-1.66,5.59,5.59,0,0,0-5.74,5.44v.31Z" transform="translate(-6.46 -4.97)"/></g></g><g id="xtick_7" data-name="xtick 7"><g id="text_7" data-name="text 7"><path id="ArialMT-30-7" class="cls-3" d="M629.52,939a26.31,26.31,0,0,1,1-8.18,10.15,10.15,0,0,1,3.1-4.77,7.94,7.94,0,0,1,5.18-1.68,8.55,8.55,0,0,1,4,.93,7.75,7.75,0,0,1,2.87,2.67,14.26,14.26,0,0,1,1.78,4.26,28.52,28.52,0,0,1,.64,6.77,26,26,0,0,1-1,8.13,10.11,10.11,0,0,1-3.09,4.79,8,8,0,0,1-5.21,1.69,7.89,7.89,0,0,1-6.5-3Q629.53,947.07,629.52,939Zm3.62,0q0,7.05,1.65,9.39a4.71,4.71,0,0,0,6.44,1.7,4.77,4.77,0,0,0,1.7-1.7q1.65-2.34,1.65-9.37t-1.65-9.39a4.89,4.89,0,0,0-4.11-2.33,4.5,4.5,0,0,0-3.87,2.05C633.74,931.09,633.14,934.3,633.14,939Z" transform="translate(-6.46 -4.97)"/><path id="ArialMT-2e-7" class="cls-3" d="M653.74,953.13v-4h4v4Z" transform="translate(-6.46 -4.97)"/><path id="ArialMT-39" class="cls-3" d="M663.41,946.52l3.38-.31a5.8,5.8,0,0,0,1.64,3.45,4.46,4.46,0,0,0,3.1,1.08,5.35,5.35,0,0,0,2.84-.75,6,6,0,0,0,2-2,11.78,11.78,0,0,0,1.3-3.35,17.34,17.34,0,0,0,.53-4.3v-.7a8,8,0,0,1-2.88,2.73,7.82,7.82,0,0,1-4,1,8,8,0,0,1-6-2.57,9.47,9.47,0,0,1-2.46-6.8,9.69,9.69,0,0,1,2.57-7,8.6,8.6,0,0,1,6.43-2.65,9.28,9.28,0,0,1,5.11,1.5,9.41,9.41,0,0,1,3.52,4.29,21,21,0,0,1,1.2,8.06,25.88,25.88,0,0,1-1.2,8.74,10.25,10.25,0,0,1-3.54,4.95,9.22,9.22,0,0,1-5.51,1.7,7.56,7.56,0,0,1-8-7v-.07Zm14.39-12.64a6.88,6.88,0,0,0-1.61-4.8,5,5,0,0,0-3.88-1.78,5.39,5.39,0,0,0-4.08,1.91,7.09,7.09,0,0,0-1.74,5,6.13,6.13,0,0,0,1.65,4.44,5.41,5.41,0,0,0,4.12,1.67,5.23,5.23,0,0,0,4-1.71,6.74,6.74,0,0,0,1.54-4.74Z" transform="translate(-6.46 -4.97)"/></g></g><g id="xtick_8" data-name="xtick 8"><g id="text_8" data-name="text 8"><path id="ArialMT-31" class="cls-3" d="M723.61,953.13H720.1v-22.4a18.47,18.47,0,0,1-3.34,2.42,24.41,24.41,0,0,1-3.7,1.82v-3.4a21.71,21.71,0,0,0,5.16-3.36,13.47,13.47,0,0,0,3.13-3.83h2.26Z" transform="translate(-6.46 -4.97)"/><path id="ArialMT-2e-8" class="cls-3" d="M734.59,953.13v-4h4v4Z" transform="translate(-6.46 -4.97)"/><path id="ArialMT-30-8" class="cls-3" d="M743.73,939a26.31,26.31,0,0,1,1-8.18,10.23,10.23,0,0,1,3.1-4.77,8,8,0,0,1,5.19-1.68,8.49,8.49,0,0,1,4.05.93,7.8,7.8,0,0,1,2.86,2.67,14.28,14.28,0,0,1,1.79,4.26,29.05,29.05,0,0,1,.64,6.77,26.26,26.26,0,0,1-1,8.13,10.27,10.27,0,0,1-3.09,4.79,8,8,0,0,1-5.21,1.69,7.86,7.86,0,0,1-6.5-3Q743.72,947.07,743.73,939Zm3.61,0q0,7.05,1.65,9.39a4.72,4.72,0,0,0,8.15,0q1.65-2.34,1.65-9.37t-1.65-9.39a4.91,4.91,0,0,0-4.12-2.33,4.47,4.47,0,0,0-3.86,2.05c-1.21,1.73-1.81,4.94-1.82,9.65Z" transform="translate(-6.46 -4.97)"/></g></g><path id="ArialMT-63" class="cls-3" d="M308.19,988.74l3.89.5a10,10,0,0,1-3.27,6.3,9.45,9.45,0,0,1-6.45,2.28,10,10,0,0,1-7.69-3.13c-2-2.09-2.92-5.09-2.92-9a16.11,16.11,0,0,1,1.26-6.61,8.64,8.64,0,0,1,3.81-4.26,11.4,11.4,0,0,1,5.57-1.42,9.73,9.73,0,0,1,6.22,1.93,8.82,8.82,0,0,1,3.1,5.46l-3.85.59a6.3,6.3,0,0,0-1.94-3.53,5,5,0,0,0-3.38-1.19,6.15,6.15,0,0,0-4.86,2.14q-1.86,2.15-1.86,6.78c0,3.09.6,5.36,1.8,6.83a5.84,5.84,0,0,0,4.7,2.13,5.57,5.57,0,0,0,3.89-1.43A7.07,7.07,0,0,0,308.19,988.74Z" transform="translate(-6.46 -4.97)"/><path id="ArialMT-6c" class="cls-3" d="M315.37,997.29V965.08h4v32.21Z" transform="translate(-6.46 -4.97)"/><path id="ArialMT-6f" class="cls-3" d="M324,985.62q0-6.48,3.6-9.6a10.89,10.89,0,0,1,7.34-2.6,10.49,10.49,0,0,1,7.86,3.16q3.06,3.15,3.06,8.71a15.56,15.56,0,0,1-1.35,7.09,9.56,9.56,0,0,1-3.94,4,11.42,11.42,0,0,1-5.63,1.43,10.48,10.48,0,0,1-7.92-3.15Q324,991.53,324,985.62Zm4.07,0q0,4.49,1.95,6.71a6.51,6.51,0,0,0,9.82,0q2-2.24,2-6.83c0-2.89-.66-5.07-2-6.56a6.52,6.52,0,0,0-9.2-.61,5.85,5.85,0,0,0-.61.61c-1.31,1.47-2,3.69-2,6.68Z" transform="translate(-6.46 -4.97)"/><path id="ArialMT-7a" class="cls-3" d="M348.4,997.29v-3.21l14.86-17c-1.69.09-3.18.13-4.47.13h-9.53V974h19.07v2.62l-12.63,14.8-2.44,2.71c1.77-.13,3.43-.2,5-.2h10.8v3.41Z" transform="translate(-6.46 -4.97)"/><path id="ArialMT-65" class="cls-3" d="M389,989.77l4.09.51a10,10,0,0,1-3.58,5.56,12.15,12.15,0,0,1-14.8-1.17q-3-3.17-3-8.85,0-5.9,3-9.14a10.27,10.27,0,0,1,7.86-3.26,10,10,0,0,1,7.65,3.19q3,3.18,3,9v1.06H375.76a9,9,0,0,0,2.17,5.89,6.45,6.45,0,0,0,4.88,2,6,6,0,0,0,3.71-1.14A7.52,7.52,0,0,0,389,989.77Zm-13-6.39h13a7.91,7.91,0,0,0-1.5-4.42,6.06,6.06,0,0,0-4.9-2.28A6.32,6.32,0,0,0,378,978.5a7.17,7.17,0,0,0-2,4.88Z" transform="translate(-6.46 -4.97)"/><path id="ArialMT-70" class="cls-3" d="M423,1006.23V974h3.6v3a8.93,8.93,0,0,1,2.88-2.66,7.87,7.87,0,0,1,3.89-.9,9.26,9.26,0,0,1,5.28,1.54,9.44,9.44,0,0,1,3.44,4.35,16.72,16.72,0,0,1-.12,12.59,9.79,9.79,0,0,1-8.89,5.92,7.4,7.4,0,0,1-3.55-.84,8.35,8.35,0,0,1-2.58-2.11v11.36Zm3.58-20.48q0,4.5,1.82,6.66a5.6,5.6,0,0,0,4.42,2.15,5.72,5.72,0,0,0,4.52-2.23c1.25-1.48,1.88-3.79,1.88-6.91s-.62-5.2-1.84-6.67a5.52,5.52,0,0,0-4.38-2.23,5.7,5.7,0,0,0-4.48,2.37C427.27,980.46,426.63,982.75,426.62,985.75Z" transform="translate(-6.46 -4.97)"/><path id="ArialMT-72" class="cls-3" d="M448,997.29V974h3.55v3.57a9.49,9.49,0,0,1,2.52-3.27,4.42,4.42,0,0,1,2.54-.8,7.73,7.73,0,0,1,4.06,1.28l-1.36,3.67a5.71,5.71,0,0,0-2.9-.86,3.78,3.78,0,0,0-2.33.78,4.17,4.17,0,0,0-1.47,2.17,15.3,15.3,0,0,0-.66,4.61v12.22Z" transform="translate(-6.46 -4.97)"/><path id="ArialMT-6f-2" class="cls-3" d="M461.58,985.62q0-6.48,3.6-9.6a10.9,10.9,0,0,1,7.35-2.6,10.49,10.49,0,0,1,7.86,3.16c2,2.1,3.05,5,3.05,8.71a15.56,15.56,0,0,1-1.35,7.09,9.53,9.53,0,0,1-3.93,4,11.52,11.52,0,0,1-5.63,1.43,10.48,10.48,0,0,1-7.93-3.15Q461.58,991.53,461.58,985.62Zm4.07,0q0,4.49,2,6.71a6.52,6.52,0,0,0,9.2.63,7.49,7.49,0,0,0,.63-.63q1.95-2.24,1.95-6.83c0-2.89-.66-5.07-2-6.56a6.24,6.24,0,0,0-4.88-2.23,6.32,6.32,0,0,0-4.93,2.22Q465.65,981.14,465.65,985.62Z" transform="translate(-6.46 -4.97)"/><path id="ArialMT-62" class="cls-3" d="M491.73,997.29h-3.67V965.08H492v11.49a7.81,7.81,0,0,1,6.4-3.15,9.56,9.56,0,0,1,4.07.88,8.15,8.15,0,0,1,3.16,2.44,11.57,11.57,0,0,1,1.95,3.79,15.52,15.52,0,0,1,.71,4.74q0,6-3,9.28a9.29,9.29,0,0,1-7.12,3.27,7.44,7.44,0,0,1-6.48-3.46Zm-.05-11.84q0,4.18,1.15,6.06a5.64,5.64,0,0,0,9.53.8q1.89-2.25,1.89-6.71t-1.81-6.75a5.49,5.49,0,0,0-4.38-2.17,5.71,5.71,0,0,0-4.49,2.25Q491.68,981.18,491.68,985.45Z" transform="translate(-6.46 -4.97)"/><path id="ArialMT-61" class="cls-3" d="M528.34,994.41a15.16,15.16,0,0,1-4.24,2.64,12.2,12.2,0,0,1-4.35.77,8.52,8.52,0,0,1-5.92-1.88,6.18,6.18,0,0,1-2.07-4.8,6.25,6.25,0,0,1,.79-3.13,6.36,6.36,0,0,1,2-2.28,9.94,9.94,0,0,1,2.85-1.3,28,28,0,0,1,3.51-.59,36.1,36.1,0,0,0,7.06-1.36v-1a4.35,4.35,0,0,0-1.13-3.41,6.63,6.63,0,0,0-4.5-1.34,7,7,0,0,0-4.12,1,6,6,0,0,0-2,3.46l-3.86-.53a9.62,9.62,0,0,1,1.73-4,7.57,7.57,0,0,1,3.5-2.35,15.58,15.58,0,0,1,5.29-.83,14,14,0,0,1,4.85.71,6.41,6.41,0,0,1,2.75,1.77,6.12,6.12,0,0,1,1.23,2.69,21.11,21.11,0,0,1,.2,3.64v5.23a58.42,58.42,0,0,0,.25,7,8.77,8.77,0,0,0,1,2.8H529A8.36,8.36,0,0,1,528.34,994.41Zm-.33-8.84a28.73,28.73,0,0,1-6.46,1.5,15.25,15.25,0,0,0-3.46.8A3.38,3.38,0,0,0,516,991a3.35,3.35,0,0,0,1.2,2.64,5.15,5.15,0,0,0,3.51,1.05,8.2,8.2,0,0,0,4.06-1,6.2,6.2,0,0,0,2.62-2.74,9.75,9.75,0,0,0,.64-4Z" transform="translate(-6.46 -4.97)"/><path id="ArialMT-62-2" class="cls-3" d="M541.78,997.29h-3.67V965.08h4v11.49a7.8,7.8,0,0,1,6.39-3.15,9.56,9.56,0,0,1,4.07.88,8.25,8.25,0,0,1,3.17,2.44,11.57,11.57,0,0,1,2,3.79,15.51,15.51,0,0,1,.7,4.74q0,6-3,9.28a9.29,9.29,0,0,1-7.11,3.27,7.44,7.44,0,0,1-6.49-3.46Zm0-11.84c0,2.79.39,4.81,1.15,6.06a5.67,5.67,0,0,0,9.54.8q1.89-2.25,1.89-6.71t-1.82-6.75a5.49,5.49,0,0,0-4.38-2.17,5.67,5.67,0,0,0-4.48,2.25c-1.31,1.5-1.95,3.67-1.95,6.52Z" transform="translate(-6.46 -4.97)"/><path id="ArialMT-69" class="cls-3" d="M563.18,969.63v-4.55h4v4.55Zm0,27.66V974h4v23.34Z" transform="translate(-6.46 -4.97)"/><path id="ArialMT-6c-2" class="cls-3" d="M573.07,997.29V965.08h4v32.21Z" transform="translate(-6.46 -4.97)"/><path id="ArialMT-69-2" class="cls-3" d="M583.18,969.63v-4.55h4v4.55Zm0,27.66V974h4v23.34Z" transform="translate(-6.46 -4.97)"/><path id="ArialMT-74" class="cls-3" d="M601.79,993.75l.57,3.5a15.17,15.17,0,0,1-3,.35,6.78,6.78,0,0,1-3.34-.68,3.89,3.89,0,0,1-1.67-1.8,14.16,14.16,0,0,1-.48-4.67V977H591V974h2.9v-5.78l3.93-2.37V974h4V977h-4v13.64a6.68,6.68,0,0,0,.21,2.18,1.69,1.69,0,0,0,.68.77,2.74,2.74,0,0,0,1.35.29A14.59,14.59,0,0,0,601.79,993.75Z" transform="translate(-6.46 -4.97)"/><path id="ArialMT-79" class="cls-3" d="M605.48,1006.27l-.44-3.71a8.59,8.59,0,0,0,2.26.35,4.16,4.16,0,0,0,2.11-.44,3.62,3.62,0,0,0,1.3-1.22,20.45,20.45,0,0,0,1.21-3c.07-.22.19-.54.35-1l-8.86-23.38h4.26l4.86,13.52c.63,1.71,1.19,3.51,1.7,5.4a49.24,49.24,0,0,1,1.62-5.31l5-13.61h4L616,997.6a46.35,46.35,0,0,1-2.22,5.3,7.81,7.81,0,0,1-2.42,2.87,5.76,5.76,0,0,1-3.25.91A7.94,7.94,0,0,1,605.48,1006.27Z" transform="translate(-6.46 -4.97)"/><g id="matplotlib.axis_2" data-name="matplotlib.axis 2"><g id="ytick_1" data-name="ytick 1"><g id="text_10" data-name="text 10"><path id="ArialMT-36-2" class="cls-3" d="M94.83,853.72l-3.49.26A6.52,6.52,0,0,0,90,851a4.62,4.62,0,0,0-3.51-1.46,4.81,4.81,0,0,0-3,.94A7.94,7.94,0,0,0,80.93,854a18.62,18.62,0,0,0-1,6.62A8,8,0,0,1,83,857.75a8.33,8.33,0,0,1,3.85-.94,8,8,0,0,1,6,2.59,9.27,9.27,0,0,1,2.48,6.68,11,11,0,0,1-1.17,5A8.46,8.46,0,0,1,91,874.62a8.69,8.69,0,0,1-4.61,1.23,9,9,0,0,1-7.14-3.26q-2.78-3.23-2.77-10.66,0-8.29,3.06-12.06a8.85,8.85,0,0,1,7.21-3.29,7.72,7.72,0,0,1,8.07,7.14ZM80.48,866.06a8.1,8.1,0,0,0,.78,3.46,5.73,5.73,0,0,0,2.16,2.54,5.38,5.38,0,0,0,2.91.86,5,5,0,0,0,3.83-1.79,7.06,7.06,0,0,0,1.6-4.89,6.63,6.63,0,0,0-1.59-4.67,5.2,5.2,0,0,0-4-1.71,5.46,5.46,0,0,0-4,1.71A6.18,6.18,0,0,0,80.48,866.06Z" transform="translate(-6.46 -4.97)"/><path id="ArialMT-30-9" class="cls-3" d="M98.84,861.22a26,26,0,0,1,1-8.18,10,10,0,0,1,3.1-4.77,7.89,7.89,0,0,1,5.18-1.69,8.41,8.41,0,0,1,4,.94,7.67,7.67,0,0,1,2.87,2.67,14.26,14.26,0,0,1,1.78,4.26,28.52,28.52,0,0,1,.64,6.77,26.26,26.26,0,0,1-1,8.13,10.16,10.16,0,0,1-3.09,4.78,8.71,8.71,0,0,1-11.71-1.28Q98.85,869.28,98.84,861.22Zm3.61,0c0,4.7.55,7.82,1.65,9.38a4.72,4.72,0,0,0,8.15,0c1.1-1.56,1.65-4.69,1.65-9.37s-.55-7.85-1.65-9.4a4.88,4.88,0,0,0-4.11-2.32,4.48,4.48,0,0,0-3.87,2C103.06,853.28,102.46,856.51,102.45,861.22Z" transform="translate(-6.46 -4.97)"/><path id="ArialMT-30-10" class="cls-3" d="M121.09,861.22a26.31,26.31,0,0,1,1-8.18,10.08,10.08,0,0,1,3.1-4.77,7.9,7.9,0,0,1,5.19-1.69,8.3,8.3,0,0,1,4,.94,7.59,7.59,0,0,1,2.87,2.67,14.26,14.26,0,0,1,1.78,4.26,28,28,0,0,1,.65,6.77,26.26,26.26,0,0,1-1,8.13,10.29,10.29,0,0,1-3.09,4.78,8,8,0,0,1-5.21,1.69,7.83,7.83,0,0,1-6.5-3Q121.08,869.28,121.09,861.22Zm3.61,0c0,4.7.55,7.82,1.65,9.38a4.71,4.71,0,0,0,6.44,1.7,4.77,4.77,0,0,0,1.7-1.7c1.1-1.56,1.65-4.69,1.65-9.37s-.55-7.85-1.65-9.4a4.88,4.88,0,0,0-4.11-2.32,4.5,4.5,0,0,0-3.87,2C125.3,853.28,124.7,856.51,124.7,861.22Z" transform="translate(-6.46 -4.97)"/></g></g><g id="ytick_2" data-name="ytick 2"><g id="text_11" data-name="text 11"><path id="ArialMT-37-2" class="cls-3" d="M76.83,674.19v-3.38H95.36v2.71a38.4,38.4,0,0,0-5.42,7.73,46.35,46.35,0,0,0-4.14,9.92A36.22,36.22,0,0,0,84.45,699H80.83a35.3,35.3,0,0,1,1.33-8.16,42.42,42.42,0,0,1,3.64-9.23,39.59,39.59,0,0,1,5-7.49Z" transform="translate(-6.46 -4.97)"/><path id="ArialMT-30-11" class="cls-3" d="M98.84,685a25.92,25.92,0,0,1,1-8.17,10,10,0,0,1,3.1-4.78,7.94,7.94,0,0,1,5.18-1.68,8.55,8.55,0,0,1,4,.93,7.69,7.69,0,0,1,2.87,2.68,14.31,14.31,0,0,1,1.78,4.25,28.52,28.52,0,0,1,.64,6.77,26.26,26.26,0,0,1-1,8.13,10.11,10.11,0,0,1-3.09,4.79,8.71,8.71,0,0,1-11.71-1.28Q98.85,693,98.84,685Zm3.61,0q0,7,1.65,9.39a4.72,4.72,0,0,0,8.15,0c1.1-1.57,1.65-4.69,1.65-9.38s-.55-7.85-1.65-9.39a4.89,4.89,0,0,0-4.11-2.33,4.5,4.5,0,0,0-3.87,2C103.06,677,102.45,680.25,102.45,685Z" transform="translate(-6.46 -4.97)"/><path id="ArialMT-30-12" class="cls-3" d="M121.09,685a26.21,26.21,0,0,1,1-8.17,10.18,10.18,0,0,1,3.1-4.78,8,8,0,0,1,5.19-1.68,8.43,8.43,0,0,1,4,.93,7.69,7.69,0,0,1,2.87,2.68,14.31,14.31,0,0,1,1.78,4.25,28,28,0,0,1,.65,6.77,26.26,26.26,0,0,1-1,8.13,10.19,10.19,0,0,1-3.09,4.79,8,8,0,0,1-5.21,1.69,7.83,7.83,0,0,1-6.5-3Q121.08,693,121.09,685Zm3.61,0q0,7,1.65,9.39a4.71,4.71,0,0,0,6.44,1.7,4.77,4.77,0,0,0,1.7-1.7c1.1-1.57,1.65-4.69,1.65-9.38s-.55-7.85-1.65-9.39a4.89,4.89,0,0,0-4.11-2.33,4.53,4.53,0,0,0-3.87,2C125.26,677,124.7,680.25,124.7,685Z" transform="translate(-6.46 -4.97)"/></g></g><g id="ytick_3" data-name="ytick 3"><g id="text_12" data-name="text 12"><path id="ArialMT-38-2" class="cls-3" d="M82,507.28A6.56,6.56,0,0,1,78.76,505a6,6,0,0,1-1-3.55A6.93,6.93,0,0,1,80,496.19a9.45,9.45,0,0,1,12,.05,7,7,0,0,1,2.26,5.28,5.87,5.87,0,0,1-1,3.47,6.58,6.58,0,0,1-3.17,2.27,7.3,7.3,0,0,1,5.39,7.35,8.2,8.2,0,0,1-2.6,6.16,10.6,10.6,0,0,1-13.67,0,8.36,8.36,0,0,1-2.6-6.26A7.55,7.55,0,0,1,78,509.83,7,7,0,0,1,82,507.28Zm-.7-6a4.48,4.48,0,0,0,1.31,3.32,4.66,4.66,0,0,0,3.4,1.29,4.53,4.53,0,0,0,3.33-1.27,4.27,4.27,0,0,0,1.3-3.14,4.45,4.45,0,0,0-1.38-3.22,4.89,4.89,0,0,0-6.67,0,4.1,4.1,0,0,0-1.33,3.06Zm-1.13,13.24a6.42,6.42,0,0,0,.71,2.92A5.18,5.18,0,0,0,83,519.62a6.29,6.29,0,0,0,3,.77,5.63,5.63,0,0,0,4.15-1.62,5.56,5.56,0,0,0,1.65-4.13,5.69,5.69,0,0,0-1.69-4.2,5.77,5.77,0,0,0-4.23-1.66,5.59,5.59,0,0,0-5.71,5.47Z" transform="translate(-6.46 -4.97)"/><path id="ArialMT-30-13" class="cls-3" d="M98.84,508.69a26.31,26.31,0,0,1,1-8.18,10,10,0,0,1,3.1-4.77,7.94,7.94,0,0,1,5.18-1.68,8.55,8.55,0,0,1,4,.93,7.75,7.75,0,0,1,2.87,2.67,14.37,14.37,0,0,1,1.78,4.26,28.52,28.52,0,0,1,.64,6.77,26.26,26.26,0,0,1-1,8.13,10.19,10.19,0,0,1-3.09,4.79,8,8,0,0,1-5.21,1.68,7.89,7.89,0,0,1-6.5-3Q98.85,516.73,98.84,508.69Zm3.61,0q0,7.05,1.65,9.39a4.72,4.72,0,0,0,8.15,0q1.65-2.34,1.65-9.37t-1.65-9.4a4.88,4.88,0,0,0-4.11-2.32,4.48,4.48,0,0,0-3.87,2C103.06,500.75,102.46,504,102.45,508.69Z" transform="translate(-6.46 -4.97)"/><path id="ArialMT-30-14" class="cls-3" d="M121.09,508.69a26.31,26.31,0,0,1,1-8.18,10.15,10.15,0,0,1,3.1-4.77,8,8,0,0,1,5.19-1.68,8.43,8.43,0,0,1,4,.93,7.75,7.75,0,0,1,2.87,2.67,14.26,14.26,0,0,1,1.78,4.26,28,28,0,0,1,.65,6.77,26.26,26.26,0,0,1-1,8.13,10.27,10.27,0,0,1-3.09,4.79,8,8,0,0,1-5.21,1.68,7.86,7.86,0,0,1-6.5-3Q121.08,516.73,121.09,508.69Zm3.61,0q0,7.05,1.65,9.39a4.71,4.71,0,0,0,6.44,1.7,4.77,4.77,0,0,0,1.7-1.7q1.65-2.34,1.65-9.37t-1.65-9.4a4.88,4.88,0,0,0-4.11-2.32,4.5,4.5,0,0,0-3.87,2Q124.7,501.63,124.7,508.69Z" transform="translate(-6.46 -4.97)"/></g></g><g id="ytick_4" data-name="ytick 4"><g id="text_13" data-name="text 13"><path id="ArialMT-39-2" class="cls-3" d="M77.12,339.92l3.38-.31a5.91,5.91,0,0,0,1.64,3.46,4.5,4.5,0,0,0,3.12,1.07,5.24,5.24,0,0,0,2.83-.74,6.16,6.16,0,0,0,2-2,11.51,11.51,0,0,0,1.31-3.35,17.83,17.83,0,0,0,.53-4.3v-.7a8.16,8.16,0,0,1-2.88,2.72,7.82,7.82,0,0,1-4,1.05,8,8,0,0,1-6-2.58,9.42,9.42,0,0,1-2.45-6.8,9.64,9.64,0,0,1,2.56-7,8.63,8.63,0,0,1,6.44-2.66,9.15,9.15,0,0,1,5.1,1.51,9.35,9.35,0,0,1,3.56,4.3,21,21,0,0,1,1.2,8.05,26.13,26.13,0,0,1-1.2,8.74,10.2,10.2,0,0,1-3.55,4.95A9.15,9.15,0,0,1,85.2,347a7.56,7.56,0,0,1-8-7.09v0Zm14.39-12.63a6.85,6.85,0,0,0-1.61-4.77A5,5,0,0,0,86,320.75,5.31,5.31,0,0,0,82,322.66a7,7,0,0,0-1.74,5,6.13,6.13,0,0,0,1.65,4.44,5.43,5.43,0,0,0,4.07,1.71,5.2,5.2,0,0,0,4-1.71A6.74,6.74,0,0,0,91.51,327.29Z" transform="translate(-6.46 -4.97)"/><path id="ArialMT-30-15" class="cls-3" d="M98.84,332.42a26.21,26.21,0,0,1,1-8.17,10,10,0,0,1,3.1-4.78,7.94,7.94,0,0,1,5.18-1.68,8.55,8.55,0,0,1,4,.93A7.69,7.69,0,0,1,115,321.4a14.26,14.26,0,0,1,1.78,4.26,28.44,28.44,0,0,1,.64,6.76,26.32,26.32,0,0,1-1,8.14,10.16,10.16,0,0,1-3.09,4.78,8.71,8.71,0,0,1-11.71-1.28Q98.85,340.52,98.84,332.42Zm3.61,0q0,7.05,1.65,9.39a4.72,4.72,0,0,0,8.15,0q1.65-2.34,1.65-9.38c0-4.69-.55-7.83-1.64-9.4a4.88,4.88,0,0,0-4.11-2.32,4.5,4.5,0,0,0-3.87,2.05Q102.46,325.37,102.45,332.42Z" transform="translate(-6.46 -4.97)"/><path id="ArialMT-30-16" class="cls-3" d="M121.09,332.42a26.21,26.21,0,0,1,1-8.17,10.22,10.22,0,0,1,3.17-4.73,8,8,0,0,1,5.19-1.68,8.43,8.43,0,0,1,4,.93,7.69,7.69,0,0,1,2.87,2.68,14.26,14.26,0,0,1,1.78,4.26,27.94,27.94,0,0,1,.65,6.76,26.32,26.32,0,0,1-1,8.14,10.29,10.29,0,0,1-3.09,4.78,8,8,0,0,1-5.21,1.69,7.83,7.83,0,0,1-6.5-3Q121.09,340.53,121.09,332.42Zm3.61,0q0,7.05,1.65,9.39a4.71,4.71,0,0,0,6.44,1.7,4.77,4.77,0,0,0,1.7-1.7q1.65-2.34,1.65-9.38T134.49,323a4.88,4.88,0,0,0-4.11-2.32,4.52,4.52,0,0,0-3.87,2Q124.7,325.37,124.7,332.42Z" transform="translate(-6.46 -4.97)"/></g></g><g id="ytick_5" data-name="ytick 5"><g id="text_14" data-name="text 14"><path id="ArialMT-31-2" class="cls-3" d="M67.59,170.28H64.08v-22.4a18.75,18.75,0,0,1-3.33,2.42,24.41,24.41,0,0,1-3.7,1.82v-3.4a21.65,21.65,0,0,0,5.15-3.36,13.51,13.51,0,0,0,3.13-3.84h2.26Z" transform="translate(-6.46 -4.97)"/><path id="ArialMT-30-17" class="cls-3" d="M76.6,156.16a26.21,26.21,0,0,1,1-8.17,10.18,10.18,0,0,1,3.1-4.78,8,8,0,0,1,5.23-1.69,8.43,8.43,0,0,1,4,.93,7.69,7.69,0,0,1,2.87,2.68,14.31,14.31,0,0,1,1.78,4.25,28,28,0,0,1,.65,6.77,26.26,26.26,0,0,1-1,8.13,10.27,10.27,0,0,1-3.09,4.79,8,8,0,0,1-5.21,1.69,7.83,7.83,0,0,1-6.5-3Q76.6,164.24,76.6,156.16Zm3.61,0q0,7.05,1.65,9.39a4.71,4.71,0,0,0,6.44,1.7,4.77,4.77,0,0,0,1.7-1.7c1.1-1.57,1.65-4.69,1.65-9.38s-.55-7.85-1.65-9.39a4.89,4.89,0,0,0-4.11-2.33A4.54,4.54,0,0,0,82,146.52c-1.21,1.71-1.76,4.94-1.76,9.64Z" transform="translate(-6.46 -4.97)"/><path id="ArialMT-30-18" class="cls-3" d="M98.84,156.16a25.92,25.92,0,0,1,1-8.17,10.06,10.06,0,0,1,3.1-4.78,7.93,7.93,0,0,1,5.19-1.68,8.55,8.55,0,0,1,4,.93,7.69,7.69,0,0,1,2.87,2.68,14.31,14.31,0,0,1,1.78,4.25,28.52,28.52,0,0,1,.64,6.77,26.26,26.26,0,0,1-1,8.13,10.21,10.21,0,0,1-3.1,4.79,8,8,0,0,1-5.2,1.69,7.83,7.83,0,0,1-6.5-3Q98.85,164.23,98.84,156.16Zm3.62,0q0,7.05,1.65,9.39a4.71,4.71,0,0,0,6.44,1.7,4.77,4.77,0,0,0,1.7-1.7c1.1-1.57,1.65-4.69,1.65-9.38s-.55-7.85-1.65-9.39a4.89,4.89,0,0,0-4.11-2.33,4.56,4.56,0,0,0-3.88,2.07C103.06,148.23,102.46,151.46,102.46,156.16Z" transform="translate(-6.46 -4.97)"/><path id="ArialMT-30-19" class="cls-3" d="M121.09,156.16a26.21,26.21,0,0,1,1-8.17,10.18,10.18,0,0,1,3.1-4.78,8,8,0,0,1,5.19-1.68,8.49,8.49,0,0,1,4.05.93,7.75,7.75,0,0,1,2.86,2.68,14.34,14.34,0,0,1,1.79,4.25,29.05,29.05,0,0,1,.64,6.77,26.26,26.26,0,0,1-1,8.13,10.27,10.27,0,0,1-3.09,4.79,8,8,0,0,1-5.21,1.69,7.86,7.86,0,0,1-6.5-3Q121.09,164.23,121.09,156.16Zm3.61,0q0,7.05,1.65,9.39a4.72,4.72,0,0,0,8.15,0c1.1-1.57,1.65-4.69,1.65-9.38s-.55-7.85-1.65-9.39a4.91,4.91,0,0,0-4.12-2.33,4.52,4.52,0,0,0-3.86,2.05C125.31,148.23,124.7,151.46,124.7,156.16Z" transform="translate(-6.46 -4.97)"/></g></g><g id="text_15" data-name="text 15"><path id="ArialMT-4d" class="cls-3" d="M39.26,623.23H7v-6.42l22.8-7.62c2.13-.7,3.72-1.22,4.78-1.54q-1.77-.54-5.17-1.71L7,598.23v-5.71H39.26v4.11h-27l27,9.36v3.85l-27.42,9.32H39.26Z" transform="translate(-6.46 -4.97)"/><path id="ArialMT-65-2" class="cls-3" d="M31.7,570.14l.51-4.08a9.93,9.93,0,0,1,5.56,3.58,12.15,12.15,0,0,1-1.17,14.8q-3.16,3-8.85,3-5.89,0-9.14-3a10.26,10.26,0,0,1-3.26-7.92,10,10,0,0,1,3.19-7.65c2.12-2,5.11-3,9-3H28.6v17.4a9,9,0,0,0,5.89-2.17,6.49,6.49,0,0,0,2-4.88,6,6,0,0,0-1.14-3.72A7.68,7.68,0,0,0,31.7,570.14Zm-6.39,13v-13a7.87,7.87,0,0,0-4.41,1.49,6.05,6.05,0,0,0-2.29,4.9,6.35,6.35,0,0,0,1.82,4.59,7.22,7.22,0,0,0,4.88,2Z" transform="translate(-6.46 -4.97)"/><path id="ArialMT-61-2" class="cls-3" d="M36.34,545.86A14.8,14.8,0,0,1,39,550.1a12.22,12.22,0,0,1,.77,4.36,8.48,8.48,0,0,1-1.88,5.91,6.22,6.22,0,0,1-4.8,2.07,6.35,6.35,0,0,1-3.13-.78,6.46,6.46,0,0,1-2.28-2,9.41,9.41,0,0,1-1.29-2.85,26.27,26.27,0,0,1-.6-3.51,36.1,36.1,0,0,0-1.36-7.06h-1A4.35,4.35,0,0,0,20,547.37a6.63,6.63,0,0,0-1.34,4.5,7,7,0,0,0,1,4.12,6,6,0,0,0,3.46,2l-.53,3.86a9.62,9.62,0,0,1-4-1.73,7.62,7.62,0,0,1-2.35-3.5,15.58,15.58,0,0,1-.83-5.29,14,14,0,0,1,.71-4.85,6.35,6.35,0,0,1,1.77-2.75,6.12,6.12,0,0,1,2.69-1.23,22.16,22.16,0,0,1,3.64-.2H29.5a56.41,56.41,0,0,0,7-.25,8.77,8.77,0,0,0,2.8-1v4.14A8.39,8.39,0,0,1,36.34,545.86Zm-8.84.33a28.69,28.69,0,0,1,1.5,6.47,15,15,0,0,0,.8,3.45A3.38,3.38,0,0,0,33,558.22a3.35,3.35,0,0,0,2.64-1.2,5.18,5.18,0,0,0,1.06-3.5,8.2,8.2,0,0,0-1-4.06,6.19,6.19,0,0,0-2.74-2.62A9.52,9.52,0,0,0,29,546.2Z" transform="translate(-6.46 -4.97)"/><path id="ArialMT-6e" class="cls-3" d="M39.26,536.07H15.88v-3.55H19.2a8.42,8.42,0,0,1-3.85-7.43,9.94,9.94,0,0,1,.76-3.88,6.1,6.1,0,0,1,2-2.65A7.56,7.56,0,0,1,21,517.33a23.55,23.55,0,0,1,3.85-.22H39.26v4H25a10.77,10.77,0,0,0-3.61.47,3.72,3.72,0,0,0-1.91,1.63,5.09,5.09,0,0,0-.71,2.75,6.42,6.42,0,0,0,1.6,4.37q1.61,1.83,6.08,1.83H39.26Z" transform="translate(-6.46 -4.97)"/><path id="ArialMT-20" class="cls-3" d="M39.26,514" transform="translate(-6.46 -4.97)"/><path id="ArialMT-52" class="cls-3" d="M39.26,498H7V483.69a18.89,18.89,0,0,1,.87-6.55A7.21,7.21,0,0,1,11,473.52a9.12,9.12,0,0,1,4.85-1.34,8.16,8.16,0,0,1,5.78,2.22q2.34,2.22,3,6.86a10.06,10.06,0,0,1,1.6-2.57,21.68,21.68,0,0,1,4.28-3.54l8.8-5.58v5.37l-6.7,4.26c-1.94,1.25-3.42,2.27-4.44,3.08A9.38,9.38,0,0,0,26,484.44a6.7,6.7,0,0,0-.87,1.95,14.44,14.44,0,0,0-.14,2.37v5h14.3Zm-18-4.26v-9.19a13.86,13.86,0,0,0-.61-4.57,4.92,4.92,0,0,0-1.93-2.51,5.2,5.2,0,0,0-2.89-.85,4.79,4.79,0,0,0-3.76,1.66q-1.47,1.65-1.47,5.24v10.2Z" transform="translate(-6.46 -4.97)"/><path id="ArialMT-54" class="cls-3" d="M39.26,458.13H10.81v10.61H7V443.21h3.8v10.65H39.26Z" transform="translate(-6.46 -4.97)"/><path id="ArialMT-20-2" class="cls-3" d="M39.26,443.09" transform="translate(-6.46 -4.97)"/><path id="ArialMT-28" class="cls-3" d="M48.69,420.07A39.7,39.7,0,0,1,39,425.61a30.54,30.54,0,0,1-21.49.57,42.15,42.15,0,0,1-11.07-6.11v-2.84A63.76,63.76,0,0,0,13,420.75a35.26,35.26,0,0,0,6.32,2.11,37,37,0,0,0,8.26.94q10.57,0,21.12-6.57Z" transform="translate(-6.46 -4.97)"/><path id="ArialMT-6d" class="cls-3" d="M39.26,412.64H15.88V409.1h3.28A8.25,8.25,0,0,1,15.35,402a7.68,7.68,0,0,1,1.08-4.26,5.85,5.85,0,0,1,3-2.34,8.38,8.38,0,0,1-4.09-7.2,7.08,7.08,0,0,1,1.92-5.34Q19.18,381,23.18,381H39.26V385H24.52a11.21,11.21,0,0,0-3.41.38,3.25,3.25,0,0,0-1.68,1.4,4.28,4.28,0,0,0-.64,2.36,5.52,5.52,0,0,0,1.63,4.1q1.63,1.62,5.24,1.62h13.6v3.95H24.06a6.62,6.62,0,0,0-3.95,1,3.67,3.67,0,0,0-1.32,3.17,5.68,5.68,0,0,0,.87,3.08,5,5,0,0,0,2.6,2,14.58,14.58,0,0,0,4.87.64H39.26Z" transform="translate(-6.46 -4.97)"/><path id="ArialMT-73" class="cls-3" d="M32.26,376.73l-.61-3.9a5.51,5.51,0,0,0,3.6-1.84,6.41,6.41,0,0,0,1.25-4.21,6.26,6.26,0,0,0-1.1-4,3.31,3.31,0,0,0-2.61-1.32,2.4,2.4,0,0,0-2.11,1.17,17.12,17.12,0,0,0-1.34,4,37,37,0,0,1-1.9,6,6,6,0,0,1-2.18,2.58,5.86,5.86,0,0,1-3.13.86,6,6,0,0,1-2.89-.71A6.25,6.25,0,0,1,17,373.42a8.4,8.4,0,0,1-1.15-2.51,11.7,11.7,0,0,1-.48-3.43,13.36,13.36,0,0,1,.8-4.81,6.45,6.45,0,0,1,2.06-3.07,8.28,8.28,0,0,1,3.61-1.36l.53,3.86a4.21,4.21,0,0,0-2.81,1.53,5.6,5.6,0,0,0-1,3.57,6.47,6.47,0,0,0,.9,3.89,2.61,2.61,0,0,0,2.11,1.17,2.18,2.18,0,0,0,1.38-.49A3.53,3.53,0,0,0,24,370.25c.14-.39.48-1.56,1-3.49a47.85,47.85,0,0,1,1.85-5.85,5.8,5.8,0,0,1,2.07-2.6,5.73,5.73,0,0,1,3.38-1,6.72,6.72,0,0,1,3.75,1.21,7.53,7.53,0,0,1,2.7,3.33,12.23,12.23,0,0,1,1,4.92q0,4.55-1.9,6.93A8.81,8.81,0,0,1,32.26,376.73Z" transform="translate(-6.46 -4.97)"/><path id="ArialMT-29" class="cls-3" d="M48.69,350.06v2.83q-10.55-6.57-21.12-6.57a35.8,35.8,0,0,0-8.19.95,34.52,34.52,0,0,0-6.33,2.09c-1.32.57-3.51,1.75-6.59,3.53v-2.83A41.84,41.84,0,0,1,17.53,344a30.16,30.16,0,0,1,21.49.58A40.14,40.14,0,0,1,48.69,350.06Z" transform="translate(-6.46 -4.97)"/></g></g><g class="cls-4"><path class="cls-5" d="M178.66,229.41l8.08,25.64,8.09-95.32,8.08,96.55L211,270.33l8.08-66.91,8.09,155.72L235.26,117l8.09,80,8.08-54.36,8.09,117.65,8.08,2.34,8.08-84.26,8.09,62.87,8.08,84.66,8.09-1.25L308,261l8.09-169.9,8.08,200,8.09-13.3,242.54,79.07,8.09-78.73L591,300.8l8.09,77,8.08-30.05,8.1-110.46,8.08,89.88,8.07,64.35,8.08,38.31,8.09-61,8.08,84.69L663.75,414l8.08-14.07,8.08,47L688,407.25l8.08,56.43L704.17,421l8.09,102.83,8.09-8.72,8.08-133.23,8.09,59.59" transform="translate(-6.46 -4.97)"/></g><g class="cls-4"><path id="m7cb1ec5a70" class="cls-6" d="M178.66,239.41a10,10,0,1,0-7.07-2.93A10,10,0,0,0,178.66,239.41Z" transform="translate(-6.46 -4.97)"/><path id="m7cb1ec5a70-2" class="cls-6" d="M186.74,265.05a10,10,0,1,0-7.07-2.93A10,10,0,0,0,186.74,265.05Z" transform="translate(-6.46 -4.97)"/><path id="m7cb1ec5a70-3" class="cls-6" d="M194.83,169.73a10,10,0,1,0-7.07-2.93A10,10,0,0,0,194.83,169.73Z" transform="translate(-6.46 -4.97)"/><path id="m7cb1ec5a70-4" class="cls-6" d="M202.91,266.28a10,10,0,1,0-7.07-2.93A10,10,0,0,0,202.91,266.28Z" transform="translate(-6.46 -4.97)"/><path id="m7cb1ec5a70-5" class="cls-6" d="M211,280.33a10,10,0,1,0-7.07-2.93A10,10,0,0,0,211,280.33Z" transform="translate(-6.46 -4.97)"/><path id="m7cb1ec5a70-6" class="cls-6" d="M219.08,213.42a10,10,0,1,0-7.07-2.93A10,10,0,0,0,219.08,213.42Z" transform="translate(-6.46 -4.97)"/><path id="m7cb1ec5a70-7" class="cls-6" d="M227.17,369.14a10,10,0,1,0-7.08-2.93A10,10,0,0,0,227.17,369.14Z" transform="translate(-6.46 -4.97)"/><path id="m7cb1ec5a70-8" class="cls-6" d="M235.26,127a10,10,0,1,0-7.07-2.92A10,10,0,0,0,235.26,127Z" transform="translate(-6.46 -4.97)"/><path id="m7cb1ec5a70-9" class="cls-6" d="M243.34,207a10,10,0,1,0-7.08-2.93A10,10,0,0,0,243.34,207Z" transform="translate(-6.46 -4.97)"/><path id="m7cb1ec5a70-10" class="cls-6" d="M251.42,152.59a10,10,0,1,0-7.07-2.92A10,10,0,0,0,251.42,152.59Z" transform="translate(-6.46 -4.97)"/><path id="m7cb1ec5a70-11" class="cls-6" d="M259.51,270.24a10,10,0,1,0-7.08-2.93A10,10,0,0,0,259.51,270.24Z" transform="translate(-6.46 -4.97)"/><path id="m7cb1ec5a70-12" class="cls-6" d="M267.59,272.58a10,10,0,1,0-7.07-2.93A10,10,0,0,0,267.59,272.58Z" transform="translate(-6.46 -4.97)"/><path id="m7cb1ec5a70-13" class="cls-6" d="M275.67,188.32a10,10,0,1,0-7.07-2.93A10,10,0,0,0,275.67,188.32Z" transform="translate(-6.46 -4.97)"/><path id="m7cb1ec5a70-14" class="cls-6" d="M283.76,251.19a10,10,0,1,0-7.07-2.93A10,10,0,0,0,283.76,251.19Z" transform="translate(-6.46 -4.97)"/><path id="m7cb1ec5a70-15" class="cls-6" d="M291.84,335.85a10,10,0,1,0-7.07-2.92A10,10,0,0,0,291.84,335.85Z" transform="translate(-6.46 -4.97)"/><path id="m7cb1ec5a70-16" class="cls-6" d="M299.93,334.6a10,10,0,1,0-7.07-2.92A10,10,0,0,0,299.93,334.6Z" transform="translate(-6.46 -4.97)"/><path id="m7cb1ec5a70-17" class="cls-6" d="M308,271a10,10,0,1,0-7.07-2.93A10,10,0,0,0,308,271Z" transform="translate(-6.46 -4.97)"/><path id="m7cb1ec5a70-18" class="cls-6" d="M316.1,101.08A10,10,0,1,0,309,98.15,10,10,0,0,0,316.1,101.08Z" transform="translate(-6.46 -4.97)"/><path id="m7cb1ec5a70-19" class="cls-6" d="M324.18,301a10,10,0,1,0-7.07-2.93A10,10,0,0,0,324.18,301Z" transform="translate(-6.46 -4.97)"/><path id="m7cb1ec5a70-20" class="cls-6" d="M332.26,287.74a10,10,0,1,0-7.07-2.93A10,10,0,0,0,332.26,287.74Z" transform="translate(-6.46 -4.97)"/><path id="m7cb1ec5a70-21" class="cls-6" d="M574.81,366.81a10,10,0,1,0-7.07-2.93A10,10,0,0,0,574.81,366.81Z" transform="translate(-6.46 -4.97)"/><path id="m7cb1ec5a70-22" class="cls-6" d="M582.9,288.08a10,10,0,1,0-7.07-2.93A10,10,0,0,0,582.9,288.08Z" transform="translate(-6.46 -4.97)"/><path id="m7cb1ec5a70-23" class="cls-6" d="M591,310.76a10,10,0,1,0-7.07-2.92A10,10,0,0,0,591,310.76Z" transform="translate(-6.46 -4.97)"/><path id="m7cb1ec5a70-24" class="cls-6" d="M599.07,387.75a10,10,0,1,0-7.07-2.93A10,10,0,0,0,599.07,387.75Z" transform="translate(-6.46 -4.97)"/><path id="m7cb1ec5a70-25" class="cls-6" d="M607.15,357.7a10,10,0,1,0-7.07-2.93A10,10,0,0,0,607.15,357.7Z" transform="translate(-6.46 -4.97)"/><path id="m7cb1ec5a70-26" class="cls-6" d="M615.26,247.29a10,10,0,1,0-7.07-2.93A10,10,0,0,0,615.26,247.29Z" transform="translate(-6.46 -4.97)"/><path id="m7cb1ec5a70-27" class="cls-6" d="M623.32,337.17a10,10,0,1,0-7.07-2.93A10,10,0,0,0,623.32,337.17Z" transform="translate(-6.46 -4.97)"/><path id="m7cb1ec5a70-28" class="cls-6" d="M631.41,401.52a10,10,0,1,0-7.08-2.93A10,10,0,0,0,631.41,401.52Z" transform="translate(-6.46 -4.97)"/><path id="m7cb1ec5a70-29" class="cls-6" d="M639.49,439.85a10,10,0,1,0-7.07-2.93A10,10,0,0,0,639.49,439.85Z" transform="translate(-6.46 -4.97)"/><path id="m7cb1ec5a70-30" class="cls-6" d="M647.58,378.85a10,10,0,1,0-7.08-2.93A10,10,0,0,0,647.58,378.85Z" transform="translate(-6.46 -4.97)"/><path id="m7cb1ec5a70-31" class="cls-6" d="M655.66,463.52a10,10,0,1,0-7.07-2.93A10,10,0,0,0,655.66,463.52Z" transform="translate(-6.46 -4.97)"/><path id="m7cb1ec5a70-32" class="cls-6" d="M663.75,423.94a10,10,0,1,0-7.08-2.93A10,10,0,0,0,663.75,423.94Z" transform="translate(-6.46 -4.97)"/><path id="m7cb1ec5a70-33" class="cls-6" d="M671.83,409.87a10,10,0,1,0-7.07-2.93A10,10,0,0,0,671.83,409.87Z" transform="translate(-6.46 -4.97)"/><path id="m7cb1ec5a70-34" class="cls-6" d="M679.91,456.85a10,10,0,1,0-7.07-2.93A10,10,0,0,0,679.91,456.85Z" transform="translate(-6.46 -4.97)"/><path id="m7cb1ec5a70-35" class="cls-6" d="M688,417.22a10,10,0,1,0-7.07-2.93A10,10,0,0,0,688,417.22Z" transform="translate(-6.46 -4.97)"/><path id="m7cb1ec5a70-36" class="cls-6" d="M696.08,473.65a10,10,0,1,0-7.07-2.93A10,10,0,0,0,696.08,473.65Z" transform="translate(-6.46 -4.97)"/><path id="m7cb1ec5a70-37" class="cls-6" d="M704.17,430.92A10,10,0,1,0,697.1,428,10,10,0,0,0,704.17,430.92Z" transform="translate(-6.46 -4.97)"/><path id="m7cb1ec5a70-38" class="cls-6" d="M712.26,533.78a10,10,0,1,0-7.07-2.93A10,10,0,0,0,712.26,533.78Z" transform="translate(-6.46 -4.97)"/><path id="m7cb1ec5a70-39" class="cls-6" d="M720.34,525.06a10,10,0,1,0-7.07-2.93A10,10,0,0,0,720.34,525.06Z" transform="translate(-6.46 -4.97)"/><path id="m7cb1ec5a70-40" class="cls-6" d="M728.42,391.83a10,10,0,1,0-7.07-2.93A10,10,0,0,0,728.42,391.83Z" transform="translate(-6.46 -4.97)"/><path id="m7cb1ec5a70-41" class="cls-6" d="M736.51,451.42a10,10,0,1,0-7.07-2.92A10,10,0,0,0,736.51,451.42Z" transform="translate(-6.46 -4.97)"/></g><g id="line2d_2" data-name="line2d 2"><g class="cls-4"><path class="cls-7" d="M178.66,599.28l8.08,29.16,8.09,15.77,8.08,13.19,8.09-33,8.08-17.87,8.09,49,8.09-133.89,8.09,29.76,8.08,9.71,8.09,51.6L267.6,625l8.08-32.22,8.09,77.6,8.08,20.71,8.09-6.63L308,673.13l8.09-116.75,8.08,54,8.07-13.77L574.81,730.52l8.09-34.28L591,673l8.09,65.4,8.08,5.92L615.26,627l8.08,136.4,8.09-27,8.08,18.86,8.09-21.4,8.08,108,8.09-83.56,8.08,39.81,8.08,36.14L688,763.92l8.08,87,8.09-78.14,8.07,103.36,8.08-110.62L728.42,728l8.09,105.67" transform="translate(-6.46 -4.97)"/></g><g class="cls-4"><path id="mb9e596af7c" class="cls-8" d="M173.66,609.28l5-5,5,5,5-5-5-5,5-5-5-5-5,5-5-5-5,5,5,5-5,5Z" transform="translate(-6.46 -4.97)"/><path id="mb9e596af7c-2" class="cls-8" d="M181.74,638.44l5-5,5,5,5-5-5-5,5-5-5-5-5,5-5-5-5,5,5,5-5,5Z" transform="translate(-6.46 -4.97)"/><path id="mb9e596af7c-3" class="cls-8" d="M189.83,654.21l5-5,5,5,5-5-5-5,5-5-5-5-5,5-5-5-5,5,5,5-5,5Z" transform="translate(-6.46 -4.97)"/><path id="mb9e596af7c-4" class="cls-8" d="M197.91,667.4l5-5,5,5,5-5-5-5,5-5-5-5-5,5-5-5-5,5,5,5-5,5Z" transform="translate(-6.46 -4.97)"/><path id="mb9e596af7c-5" class="cls-8" d="M206,634.45l5-5,5,5,5-5-5-5,5-5-5-5-5,5-5-5-5,5,5,5-5,5Z" transform="translate(-6.46 -4.97)"/><path id="mb9e596af7c-6" class="cls-8" d="M214.08,616.58l5-5,5,5,5-5-5-5,5-5-5-5-5,5-5-5-5,5,5,5-5,5Z" transform="translate(-6.46 -4.97)"/><path id="mb9e596af7c-7" class="cls-8" d="M222.17,665.58l5-5,5,5,5-5-5-5,5-5-5-5-5,5-5-5-5,5,5,5-5,5Z" transform="translate(-6.46 -4.97)"/><path id="mb9e596af7c-8" class="cls-8" d="M230.26,531.64l5-5,5,5,5-5-5-5,5-5-5-5-5,5-5-5-5,5,5,5-5,5Z" transform="translate(-6.46 -4.97)"/><path id="mb9e596af7c-9" class="cls-8" d="M238.34,561.4l5-5,5,5,5-5-5-5,5-5-5-5-5,5-5-5-5,5,5,5-5,5Z" transform="translate(-6.46 -4.97)"/><path id="mb9e596af7c-10" class="cls-8" d="M246.42,571.11l5-5,5,5,5-5-5-5,5-5-5-5-5,5-5-5-5,5,5,5-5,5Z" transform="translate(-6.46 -4.97)"/><path id="mb9e596af7c-11" class="cls-8" d="M254.51,622.71l5-5,5,5,5-5-5-5,5-5-5-5-5,5-5-5-5,5,5,5-5,5Z" transform="translate(-6.46 -4.97)"/><path id="mb9e596af7c-12" class="cls-8" d="M262.59,635l5-5,5,5,5-5-5-5,5-5-5-5-5,5-5-5-5,5,5,5-5,5Z" transform="translate(-6.46 -4.97)"/><path id="mb9e596af7c-13" class="cls-8" d="M270.67,602.76l5-5,5,5,5-5-5-5,5-5-5-5-5,5-5-5-5,5,5,5-5,5Z" transform="translate(-6.46 -4.97)"/><path id="mb9e596af7c-14" class="cls-8" d="M278.76,680.36l5-5,5,5,5-5-5-5,5-5-5-5-5,5-5-5-5,5,5,5-5,5Z" transform="translate(-6.46 -4.97)"/><path id="mb9e596af7c-15" class="cls-8" d="M286.84,701.07l5-5,5,5,5-5-5-5,5-5-5-5-5,5-5-5-5,5,5,5-5,5Z" transform="translate(-6.46 -4.97)"/><path id="mb9e596af7c-16" class="cls-8" d="M294.93,694.44l5-5,5,5,5-5-5-5,5-5-5-5-5,5-5-5-5,5,5,5-5,5Z" transform="translate(-6.46 -4.97)"/><path id="mb9e596af7c-17" class="cls-8" d="M303,683.13l5-5,5,5,5-5-5-5,5-5-5-5-5,5-5-5-5,5,5,5-5,5Z" transform="translate(-6.46 -4.97)"/><path id="mb9e596af7c-18" class="cls-8" d="M311.1,566.38l5-5,5,5,5-5-5-5,5-5-5-5-5,5-5-5-5,5,5,5-5,5Z" transform="translate(-6.46 -4.97)"/><path id="mb9e596af7c-19" class="cls-8" d="M319.18,620.37l5-5,5,5,5-5-5-5,5-5-5-5-5,5-5-5-5,5,5,5-5,5Z" transform="translate(-6.46 -4.97)"/><path id="mb9e596af7c-20" class="cls-8" d="M327.26,606.61l5-5,5,5,5-5-5-5,5-5-5-5-5,5-5-5-5,5,5,5-5,5Z" transform="translate(-6.46 -4.97)"/><path id="mb9e596af7c-21" class="cls-8" d="M569.81,740.52l5-5,5,5,5-5-5-5,5-5-5-5-5,5-5-5-5,5,5,5-5,5Z" transform="translate(-6.46 -4.97)"/><path id="mb9e596af7c-22" class="cls-8" d="M577.9,706.26l5-5,5,5,5-5-5-5,5-5-5-5-5,5-5-5-5,5,5,5-5,5Z" transform="translate(-6.46 -4.97)"/><path id="mb9e596af7c-23" class="cls-8" d="M586,683.05l5-5,5,5,5-5-5-5,5-5-5-5-5,5-5-5-5,5,5,5-5,5Z" transform="translate(-6.46 -4.97)"/><path id="mb9e596af7c-24" class="cls-8" d="M594.07,748.45l5-5,5,5,5-5-5-5,5-5-5-5-5,5-5-5-5,5,5,5-5,5Z" transform="translate(-6.46 -4.97)"/><path id="mb9e596af7c-25" class="cls-8" d="M602.15,754.37l5-5,5,5,5-5-5-5,5-5-5-5-5,5-5-5-5,5,5,5-5,5Z" transform="translate(-6.46 -4.97)"/><path id="mb9e596af7c-26" class="cls-8" d="M610.26,637l5-5,5,5,5-5-5-5,5-5-5-5-5,5-5-5-5,5,5,5-5,5Z" transform="translate(-6.46 -4.97)"/><path id="mb9e596af7c-27" class="cls-8" d="M618.32,773.38l5-5,5,5,5-5-5-5,5-5-5-5-5,5-5-5-5,5,5,5-5,5Z" transform="translate(-6.46 -4.97)"/><path id="mb9e596af7c-28" class="cls-8" d="M626.41,746.4l5-5,5,5,5-5-5-5,5-5-5-5-5,5-5-5-5,5,5,5-5,5Z" transform="translate(-6.46 -4.97)"/><path id="mb9e596af7c-29" class="cls-8" d="M634.49,765.26l5-5,5,5,5-5-5-5,5-5-5-5-5,5-5-5-5,5,5,5-5,5Z" transform="translate(-6.46 -4.97)"/><path id="mb9e596af7c-30" class="cls-8" d="M642.58,743.86l5-5,5,5,5-5-5-5,5-5-5-5-5,5-5-5-5,5,5,5-5,5Z" transform="translate(-6.46 -4.97)"/><path id="mb9e596af7c-31" class="cls-8" d="M650.66,851.91l5-5,5,5,5-5-5-5,5-5-5-5-5,5-5-5-5,5,5,5-5,5Z" transform="translate(-6.46 -4.97)"/><path id="mb9e596af7c-32" class="cls-8" d="M658.75,768.35l5-5,5,5,5-5-5-5,5-5-5-5-5,5-5-5-5,5,5,5-5,5Z" transform="translate(-6.46 -4.97)"/><path id="mb9e596af7c-33" class="cls-8" d="M666.83,808.16l5-5,5,5,5-5-5-5,5-5-5-5-5,5-5-5-5,5,5,5-5,5Z" transform="translate(-6.46 -4.97)"/><path id="mb9e596af7c-34" class="cls-8" d="M674.91,844.3l5-5,5,5,5-5-5-5,5-5-5-5-5,5-5-5-5,5,5,5-5,5Z" transform="translate(-6.46 -4.97)"/><path id="mb9e596af7c-35" class="cls-8" d="M683,774l5-5,5,5,5-5-5-5,5-5-5-5-5,5-5-5-5,5,5,5-5,5Z" transform="translate(-6.46 -4.97)"/><path id="mb9e596af7c-36" class="cls-8" d="M691.08,861l5-5,5,5,5-5-5-5,5-5-5-5-5,5-5-5-5,5,5,5-5,5Z" transform="translate(-6.46 -4.97)"/><path id="mb9e596af7c-37" class="cls-8" d="M699.17,782.85l5-5,5,5,5-5-5-5,5-5-5-5-5,5-5-5-5,5,5,5-5,5Z" transform="translate(-6.46 -4.97)"/><path id="mb9e596af7c-38" class="cls-8" d="M707.26,886.14l5-5,5,5,5-5-5-5,5-5-5-5-5,5-5-5-5,5,5,5-5,5Z" transform="translate(-6.46 -4.97)"/><path id="mb9e596af7c-39" class="cls-8" d="M715.34,775.52l5-5,5,5,5-5-5-5,5-5-5-5-5,5-5-5-5,5,5,5-5,5Z" transform="translate(-6.46 -4.97)"/><path id="mb9e596af7c-40" class="cls-8" d="M723.42,738l5-5,5,5,5-5-5-5,5-5-5-5-5,5-5-5-5,5,5,5-5,5Z" transform="translate(-6.46 -4.97)"/><path id="mb9e596af7c-41" class="cls-8" d="M731.51,843.66l5-5,5,5,5-5-5-5,5-5-5-5-5,5-5-5-5,5,5,5-5,5Z" transform="translate(-6.46 -4.97)"/></g></g><g id="patch_3" data-name="patch 3"><path class="cls-9" d="M150.76,915.4V51.83" transform="translate(-6.46 -4.97)"/></g><g id="patch_4" data-name="patch 4"><path class="cls-9" d="M150.76,915.4H764.4" transform="translate(-6.46 -4.97)"/></g><g id="text_16" data-name="text 16"><path id="ArialMT-41" class="cls-3" d="M19.16,62.93,40.65,7.1h8L71.41,62.93H63L56.48,46H33.14L27,62.93ZM35.27,40H54.2L48.37,24.54q-2.65-7-4-11.58a70.75,70.75,0,0,1-3,10.67Z" transform="translate(-6.46 -4.97)"/></g><g id="legend_1" data-name="legend 1"><g id="line2d_5" data-name="line2d 5"><path class="cls-5" d="M558,86.36h78" transform="translate(-6.46 -4.97)"/><path id="m2b606557f2" class="cls-10" d="M597,99.36a13,13,0,1,0-9.19-3.81A13,13,0,0,0,597,99.36Z" transform="translate(-6.46 -4.97)"/></g><g id="text_17" data-name="text 17"><path id="ArialMT-43" class="cls-3" d="M690.12,90.22l3.7.94a12.59,12.59,0,0,1-4.18,6.94,11.51,11.51,0,0,1-7.38,2.42,13.33,13.33,0,0,1-7.35-1.83,11.53,11.53,0,0,1-4.3-5.33,19,19,0,0,1-1.47-7.48,16.38,16.38,0,0,1,1.66-7.6,11.4,11.4,0,0,1,4.74-4.93,13.8,13.8,0,0,1,6.77-1.69,11.4,11.4,0,0,1,7.05,2.13,11.13,11.13,0,0,1,4,6l-3.64.86a8.64,8.64,0,0,0-2.82-4.44,7.51,7.51,0,0,0-4.64-1.43,9,9,0,0,0-5.38,1.54,8.14,8.14,0,0,0-3,4.15A18.36,18.36,0,0,0,674,92a7.75,7.75,0,0,0,3.22,4A9,9,0,0,0,682,97.35a7.89,7.89,0,0,0,5.25-1.78A9.09,9.09,0,0,0,690.12,90.22Z" transform="translate(-6.46 -4.97)"/><path id="ArialMT-44" class="cls-3" d="M698.37,100V72.09H708a23.94,23.94,0,0,1,5,.4,9.52,9.52,0,0,1,4.08,2,11.38,11.38,0,0,1,3.31,4.78,18.72,18.72,0,0,1,1.09,6.63,19.49,19.49,0,0,1-.74,5.63,13.39,13.39,0,0,1-1.9,4.07A9.35,9.35,0,0,1,713,99.53a18.83,18.83,0,0,1-4.49.48Zm3.69-3.3h6a14.39,14.39,0,0,0,4.33-.51,6,6,0,0,0,2.51-1.45,8.74,8.74,0,0,0,2-3.53,17.19,17.19,0,0,0,.74-5.38,13,13,0,0,0-1.44-6.73A7.23,7.23,0,0,0,712.71,76a14.59,14.59,0,0,0-4.78-.58h-5.87Z" transform="translate(-6.46 -4.97)"/></g><g id="line2d_6" data-name="line2d 6"><path class="cls-7" d="M558,141.52h78" transform="translate(-6.46 -4.97)"/><path id="m59258d740a" class="cls-11" d="M590.49,154.52,597,148l6.5,6.5L610,148l-6.5-6.5L610,135l-6.5-6.5L597,135l-6.5-6.5L584,135l6.5,6.5L584,148Z" transform="translate(-6.46 -4.97)"/></g><g id="text_18" data-name="text 18"><path id="ArialMT-43-2" class="cls-3" d="M690.12,145.39l3.7.93a12.44,12.44,0,0,1-4.18,6.94,11.5,11.5,0,0,1-7.38,2.39,13.33,13.33,0,0,1-7.35-1.83,11.53,11.53,0,0,1-4.3-5.33,19,19,0,0,1-1.47-7.48,16.45,16.45,0,0,1,1.66-7.61,11.4,11.4,0,0,1,4.74-4.93,13.92,13.92,0,0,1,6.77-1.68,11.4,11.4,0,0,1,7.05,2.13,11.13,11.13,0,0,1,4,6l-3.64.86a8.66,8.66,0,0,0-2.82-4.43,7.48,7.48,0,0,0-4.64-1.4,9,9,0,0,0-5.4,1.57,8.11,8.11,0,0,0-3,4.14A16.86,16.86,0,0,0,673,141a17.09,17.09,0,0,0,1,6.22,7.75,7.75,0,0,0,3.22,4,9.14,9.14,0,0,0,4.75,1.31,8,8,0,0,0,5.25-1.79A9.09,9.09,0,0,0,690.12,145.39Z" transform="translate(-6.46 -4.97)"/><path id="ArialMT-4f" class="cls-3" d="M697.26,141.58q0-6.95,3.73-10.88a12.68,12.68,0,0,1,9.64-3.94,13.35,13.35,0,0,1,7,1.85,12,12,0,0,1,4.73,5.15,16.64,16.64,0,0,1,1.63,7.5,16.24,16.24,0,0,1-1.72,7.59,11.72,11.72,0,0,1-4.85,5.08,13.86,13.86,0,0,1-6.78,1.72,13.24,13.24,0,0,1-7-1.9,12.3,12.3,0,0,1-4.7-5.2A15.75,15.75,0,0,1,697.26,141.58Zm3.81.06a11.22,11.22,0,0,0,2.71,8,9.47,9.47,0,0,0,13.39.28l.28-.28c1.8-2,2.7-4.73,2.7-8.33a14.24,14.24,0,0,0-1.15-5.94,8.93,8.93,0,0,0-3.37-4,9.2,9.2,0,0,0-5-1.4,9.45,9.45,0,0,0-6.75,2.7q-2.83,2.72-2.83,9Z" transform="translate(-6.46 -4.97)"/></g></g><g id="patch_5" data-name="patch 5"><path class="cls-2" d="M917.68,917.52h613.64V54H917.68Z" transform="translate(-6.46 -4.97)"/></g><g id="xtick_9" data-name="xtick 9"><g id="text_19" data-name="text 19"><path id="ArialMT-31-3" class="cls-3" d="M949.26,955.29h-3.51v-22.4a18.47,18.47,0,0,1-3.34,2.42,22.28,22.28,0,0,1-3.7,1.82v-3.4a21.11,21.11,0,0,0,5.16-3.36,13.47,13.47,0,0,0,3.13-3.83h2.26Z" transform="translate(-6.46 -4.97)"/></g></g><g id="xtick_10" data-name="xtick 10"><g id="text_20" data-name="text 20"><path id="ArialMT-32" class="cls-3" d="M1101,951.91v3.38h-18.93a6.18,6.18,0,0,1,.41-2.44,12.83,12.83,0,0,1,2.31-3.81,36.38,36.38,0,0,1,4.61-4.34,39.27,39.27,0,0,0,6.3-6.06,7.23,7.23,0,0,0,1.65-4.23,4.7,4.7,0,0,0-1.5-3.52,6.08,6.08,0,0,0-8,.09,5.7,5.7,0,0,0-1.54,4.21l-3.61-.37a8.9,8.9,0,0,1,2.78-6.16,9.58,9.58,0,0,1,6.52-2.12,9,9,0,0,1,6.51,2.29,7.44,7.44,0,0,1,2.41,5.66,8.57,8.57,0,0,1-.71,3.38,12.89,12.89,0,0,1-2.33,3.5,54.51,54.51,0,0,1-5.42,5c-2.11,1.78-3.47,3-4.06,3.61a11.88,11.88,0,0,0-1.49,1.9Z" transform="translate(-6.46 -4.97)"/></g></g><g id="xtick_11" data-name="xtick 11"><g id="text_21" data-name="text 21"><path id="ArialMT-33-2" class="cls-3" d="M1229,947.74l3.52-.47a7.72,7.72,0,0,0,2.06,4.3,5.08,5.08,0,0,0,3.54,1.32,5.7,5.7,0,0,0,4.19-1.72,5.79,5.79,0,0,0,1.71-4.26,5.39,5.39,0,0,0-5.58-5.57,10.43,10.43,0,0,0-2.48.39l.39-3.09h.56a7.27,7.27,0,0,0,4-1.17,4,4,0,0,0,1.8-3.62,4.27,4.27,0,0,0-1.32-3.2,4.63,4.63,0,0,0-3.37-1.27,4.75,4.75,0,0,0-3.42,1.29,6.44,6.44,0,0,0-1.76,3.87l-3.52-.63a9,9,0,0,1,2.92-5.39,8.45,8.45,0,0,1,5.69-2,9.35,9.35,0,0,1,4.31,1,7.28,7.28,0,0,1,3,2.74,7,7,0,0,1,1,3.7,6,6,0,0,1-1,3.37,6.8,6.8,0,0,1-3,2.43,6.57,6.57,0,0,1,4,2.43,7.42,7.42,0,0,1,1.4,4.62,8.45,8.45,0,0,1-2.73,6.35,9.6,9.6,0,0,1-6.92,2.61,9,9,0,0,1-6.26-2.25A8.71,8.71,0,0,1,1229,947.74Z" transform="translate(-6.46 -4.97)"/></g></g><g id="xtick_12" data-name="xtick 12"><g id="text_22" data-name="text 22"><path id="ArialMT-34-2" class="cls-3" d="M1386.68,955.29v-6.85h-12.42v-3.23l13.07-18.55h2.87v18.55h3.87v3.23h-3.87v6.85Zm0-10.08V932.3l-9,12.91Z" transform="translate(-6.46 -4.97)"/></g></g><g id="xtick_13" data-name="xtick 13"><g id="text_23" data-name="text 23"><path id="ArialMT-35-2" class="cls-3" d="M1521.86,947.79l3.69-.31a6.65,6.65,0,0,0,1.9,4.06,5.19,5.19,0,0,0,3.61,1.35,5.62,5.62,0,0,0,4.29-1.91,7.2,7.2,0,0,0,1.76-5.08,6.48,6.48,0,0,0-1.69-4.75,5.85,5.85,0,0,0-4.42-1.74,6,6,0,0,0-3.07.78,5.87,5.87,0,0,0-2.14,2l-3.3-.44,2.76-14.7h14.25v3.36h-11.43l-1.54,7.69a9.31,9.31,0,0,1,5.41-1.8,8.54,8.54,0,0,1,6.32,2.6,9.1,9.1,0,0,1,2.58,6.69,10.45,10.45,0,0,1-2.26,6.71,9.08,9.08,0,0,1-7.52,3.48,9.28,9.28,0,0,1-6.38-2.19A8.48,8.48,0,0,1,1521.86,947.79Z" transform="translate(-6.46 -4.97)"/></g></g><path id="ArialMT-43-3" class="cls-3" d="M1197.8,993l4.26,1.07a14.3,14.3,0,0,1-4.82,8,13.31,13.31,0,0,1-8.52,2.76,15.35,15.35,0,0,1-8.47-2.12,13.2,13.2,0,0,1-5-6.14,21.69,21.69,0,0,1-1.7-8.64,19,19,0,0,1,1.92-8.77,13.07,13.07,0,0,1,5.47-5.69,15.93,15.93,0,0,1,7.81-2,13.21,13.21,0,0,1,8.13,2.46,12.79,12.79,0,0,1,4.59,6.92l-4.19,1a10,10,0,0,0-3.26-5.12,8.63,8.63,0,0,0-5.36-1.61,10.36,10.36,0,0,0-6.2,1.79,9.34,9.34,0,0,0-3.51,4.78,19.09,19.09,0,0,0-1,6.18,19.69,19.69,0,0,0,1.2,7.17,8.87,8.87,0,0,0,3.72,4.59,10.44,10.44,0,0,0,5.47,1.51,9.21,9.21,0,0,0,6.06-2.06A10.53,10.53,0,0,0,1197.8,993Z" transform="translate(-6.46 -4.97)"/><path id="ArialMT-6f-3" class="cls-3" d="M1205.34,992.67q0-6.49,3.6-9.61a10.85,10.85,0,0,1,7.32-2.54,10.44,10.44,0,0,1,7.86,3.15c2,2.1,3.06,5,3.06,8.71a15.56,15.56,0,0,1-1.35,7.09,9.56,9.56,0,0,1-3.94,4,11.52,11.52,0,0,1-5.63,1.43,10.45,10.45,0,0,1-7.92-3.15Q1205.32,998.59,1205.34,992.67Zm4.06,0c0,3,.65,5.22,2,6.7a6.52,6.52,0,0,0,9.2.62,6,6,0,0,0,.62-.62q2-2.25,2-6.84c0-2.89-.65-5.07-2-6.56a6.52,6.52,0,0,0-9.2-.61,5.85,5.85,0,0,0-.61.61Q1209.4,988.18,1209.4,992.67Z" transform="translate(-6.46 -4.97)"/><path id="ArialMT-52-2" class="cls-3" d="M1232.4,1004.33V972.12h14.29a18.83,18.83,0,0,1,6.54.87,7.19,7.19,0,0,1,3.59,3.07,9.21,9.21,0,0,1,1.34,4.85,8.16,8.16,0,0,1-2.22,5.78q-2.22,2.34-6.86,3a10.91,10.91,0,0,1,2.58,1.6,22,22,0,0,1,3.53,4.28l5.61,8.77h-5.37l-4.26-6.7c-1.25-1.94-2.27-3.42-3.08-4.44a9.58,9.58,0,0,0-2.16-2.15,6.26,6.26,0,0,0-1.94-.86,13.42,13.42,0,0,0-2.37-.15h-4.95v14.3Zm4.27-18h9.16a13.6,13.6,0,0,0,4.57-.61,4.92,4.92,0,0,0,2.51-1.93,5.29,5.29,0,0,0,.86-2.89,4.85,4.85,0,0,0-1.66-3.76q-1.66-1.47-5.25-1.47h-10.19Z" transform="translate(-6.46 -4.97)"/><path id="ArialMT-54-2" class="cls-3" d="M1272.26,1004.33V975.92h-10.61v-3.8h25.53v3.8h-10.65v28.41Z" transform="translate(-6.46 -4.97)"/><g id="ytick_6" data-name="ytick 6"><g id="text_25" data-name="text 25"><path id="ArialMT-36-3" class="cls-3" d="M861.75,810.27l-3.49.25a6.63,6.63,0,0,0-1.33-3,4.67,4.67,0,0,0-3.52-1.5,4.88,4.88,0,0,0-2.95.93,8.13,8.13,0,0,0-2.61,3.54,18.62,18.62,0,0,0-1,6.62,8.19,8.19,0,0,1,7-3.81,8,8,0,0,1,6,2.59,9.29,9.29,0,0,1,2.47,6.69,10.83,10.83,0,0,1-1.16,5,8.37,8.37,0,0,1-7.8,4.78,9,9,0,0,1-7.17-3.23q-2.77-3.24-2.77-10.66,0-8.29,3.06-12.07a8.82,8.82,0,0,1,7.21-3.28,8.08,8.08,0,0,1,5.53,1.89A8,8,0,0,1,861.75,810.27ZM847.4,822.61a8.21,8.21,0,0,0,.77,3.48,5.65,5.65,0,0,0,2.16,2.53,5.38,5.38,0,0,0,2.93.9,5,5,0,0,0,3.82-1.79,7,7,0,0,0,1.61-4.89,6.57,6.57,0,0,0-1.59-4.68,5.2,5.2,0,0,0-4-1.71,5.46,5.46,0,0,0-4,1.71A6.13,6.13,0,0,0,847.4,822.61Z" transform="translate(-6.46 -4.97)"/><path id="ArialMT-35-3" class="cls-3" d="M865.76,824.39l3.69-.31a6.68,6.68,0,0,0,1.9,4,5.19,5.19,0,0,0,3.61,1.39,5.62,5.62,0,0,0,4.29-1.91,7.2,7.2,0,0,0,1.76-5.08,6.48,6.48,0,0,0-1.69-4.75A5.85,5.85,0,0,0,874.9,816a6.22,6.22,0,0,0-3.07.77,6,6,0,0,0-2.14,2l-3.3-.43,2.76-14.7H883.4V807H872l-1.54,7.69a9.31,9.31,0,0,1,5.41-1.8,8.54,8.54,0,0,1,6.32,2.6,9.08,9.08,0,0,1,2.58,6.68,10.48,10.48,0,0,1-2.26,6.72,9.08,9.08,0,0,1-7.52,3.48,9.28,9.28,0,0,1-6.38-2.19A8.5,8.5,0,0,1,865.76,824.39Z" transform="translate(-6.46 -4.97)"/><path id="ArialMT-30-20" class="cls-3" d="M888,817.77a26.21,26.21,0,0,1,1-8.17,10.18,10.18,0,0,1,3.1-4.78,8,8,0,0,1,5.19-1.68,8.43,8.43,0,0,1,4,.93,7.69,7.69,0,0,1,2.87,2.68A14.31,14.31,0,0,1,906,811a28,28,0,0,1,.65,6.77,26.26,26.26,0,0,1-1,8.13,10.21,10.21,0,0,1-3.1,4.79,8,8,0,0,1-5.2,1.69,7.83,7.83,0,0,1-6.5-3C889,827,888,823.15,888,817.77Zm3.61,0q0,7.05,1.65,9.39a4.71,4.71,0,0,0,6.44,1.7,4.77,4.77,0,0,0,1.7-1.7c1.1-1.57,1.65-4.69,1.65-9.38s-.55-7.85-1.65-9.39a4.89,4.89,0,0,0-4.11-2.33,4.52,4.52,0,0,0-3.87,2.05C892.26,809.84,891.62,813.07,891.62,817.77Z" transform="translate(-6.46 -4.97)"/></g></g><g id="ytick_7" data-name="ytick 7"><g id="text_26" data-name="text 26"><path id="ArialMT-37-3" class="cls-3" d="M843.75,700.32v-3.38h18.51v2.74a38.4,38.4,0,0,0-5.42,7.73,47.11,47.11,0,0,0-4.15,9.92,37.58,37.58,0,0,0-1.35,7.87h-3.61a35.3,35.3,0,0,1,1.33-8.16,42.42,42.42,0,0,1,3.64-9.23,39.12,39.12,0,0,1,5-7.49Z" transform="translate(-6.46 -4.97)"/><path id="ArialMT-30-21" class="cls-3" d="M865.76,711.08a26.21,26.21,0,0,1,1-8.17,10.18,10.18,0,0,1,3.1-4.78,8,8,0,0,1,5.19-1.68,8.55,8.55,0,0,1,4,.93,7.75,7.75,0,0,1,2.86,2.68,14.34,14.34,0,0,1,1.79,4.25,28.52,28.52,0,0,1,.64,6.77,26.26,26.26,0,0,1-1,8.13,10.19,10.19,0,0,1-3.09,4.79,8.71,8.71,0,0,1-11.71-1.28Q865.77,719.15,865.76,711.08Zm3.61,0q0,7,1.65,9.39a4.72,4.72,0,0,0,8.15,0c1.1-1.57,1.65-4.69,1.65-9.38s-.55-7.85-1.65-9.39a4.91,4.91,0,0,0-4.12-2.33,4.52,4.52,0,0,0-3.86,2C870,703.15,869.38,706.39,869.37,711.08Z" transform="translate(-6.46 -4.97)"/><path id="ArialMT-30-22" class="cls-3" d="M888,711.08a26.21,26.21,0,0,1,1-8.17,10.18,10.18,0,0,1,3.1-4.78,8,8,0,0,1,5.19-1.68,8.43,8.43,0,0,1,4,.93,7.69,7.69,0,0,1,2.87,2.68,14.31,14.31,0,0,1,1.78,4.25,28,28,0,0,1,.65,6.77,26.26,26.26,0,0,1-1,8.13,10.13,10.13,0,0,1-3.1,4.79,8.7,8.7,0,0,1-11.7-1.28Q888,719.15,888,711.08Zm3.61,0q0,7,1.65,9.39a4.71,4.71,0,0,0,6.44,1.7,4.77,4.77,0,0,0,1.7-1.7c1.1-1.57,1.65-4.69,1.65-9.38s-.55-7.85-1.65-9.39a4.89,4.89,0,0,0-4.11-2.33,4.53,4.53,0,0,0-3.87,2Q891.62,704,891.62,711.08Z" transform="translate(-6.46 -4.97)"/></g></g><g id="ytick_8" data-name="ytick 8"><g id="text_27" data-name="text 27"><path id="ArialMT-37-4" class="cls-3" d="M843.75,593.63v-3.38h18.51V593a38.4,38.4,0,0,0-5.42,7.73,47.11,47.11,0,0,0-4.15,9.92,37.53,37.53,0,0,0-1.33,7.88h-3.61a35.3,35.3,0,0,1,1.33-8.16,42.42,42.42,0,0,1,3.64-9.23,39.59,39.59,0,0,1,5-7.49Z" transform="translate(-6.46 -4.97)"/><path id="ArialMT-35-4" class="cls-3" d="M865.76,611l3.69-.31a6.65,6.65,0,0,0,1.9,4.06,5.19,5.19,0,0,0,3.61,1.35,5.62,5.62,0,0,0,4.29-1.91,7.2,7.2,0,0,0,1.76-5.08,6.48,6.48,0,0,0-1.69-4.75,5.85,5.85,0,0,0-4.42-1.74,6,6,0,0,0-3.07.78,5.87,5.87,0,0,0-2.14,2l-3.3-.44,2.76-14.7H883.4v3.36H872l-1.54,7.69a9.31,9.31,0,0,1,5.41-1.8,8.54,8.54,0,0,1,6.32,2.6,9.1,9.1,0,0,1,2.58,6.69,10.45,10.45,0,0,1-2.26,6.71A9.08,9.08,0,0,1,875,619a9.28,9.28,0,0,1-6.38-2.19A8.48,8.48,0,0,1,865.76,611Z" transform="translate(-6.46 -4.97)"/><path id="ArialMT-30-23" class="cls-3" d="M888,604.39a26.21,26.21,0,0,1,1-8.17,10.18,10.18,0,0,1,3.1-4.78,8,8,0,0,1,5.19-1.68,8.43,8.43,0,0,1,4,.93,7.69,7.69,0,0,1,2.87,2.68,14.31,14.31,0,0,1,1.78,4.25,28,28,0,0,1,.65,6.77,26.26,26.26,0,0,1-1,8.13,10.13,10.13,0,0,1-3.1,4.79A8.7,8.7,0,0,1,890.8,616Q888,612.46,888,604.39Zm3.61,0q0,7.05,1.65,9.39a4.71,4.71,0,0,0,6.44,1.7,4.77,4.77,0,0,0,1.7-1.7q1.65-2.34,1.65-9.38T901.41,595a4.89,4.89,0,0,0-4.11-2.33,4.52,4.52,0,0,0-3.87,2.05Q891.62,597.36,891.62,604.39Z" transform="translate(-6.46 -4.97)"/></g></g><g id="ytick_9" data-name="ytick 9"><g id="text_28" data-name="text 28"><path id="ArialMT-38-3" class="cls-3" d="M848.92,496.3a6.56,6.56,0,0,1-3.24-2.29,6,6,0,0,1-1-3.55,6.93,6.93,0,0,1,2.24-5.25,9.4,9.4,0,0,1,12,.05,7,7,0,0,1,2.29,5.3,5.83,5.83,0,0,1-1,3.46A6.6,6.6,0,0,1,857,496.3a7.3,7.3,0,0,1,5.39,7.34,8.24,8.24,0,0,1-2.6,6.17,10.6,10.6,0,0,1-13.67,0,8.38,8.38,0,0,1-2.6-6.27,7.5,7.5,0,0,1,1.42-4.67A7.06,7.06,0,0,1,848.92,496.3Zm-.7-6a4.48,4.48,0,0,0,1.31,3.32,4.66,4.66,0,0,0,3.4,1.29,4.57,4.57,0,0,0,3.33-1.28,4.24,4.24,0,0,0,1.3-3.13,4.36,4.36,0,0,0-1.35-3.26,4.88,4.88,0,0,0-6.66,0,4.12,4.12,0,0,0-1.29,3.1Zm-1.13,13.22a6.41,6.41,0,0,0,.71,2.91,5.15,5.15,0,0,0,2.12,2.19,6.28,6.28,0,0,0,3,.76,5.69,5.69,0,0,0,4.15-1.61,5.56,5.56,0,0,0,1.65-4.13,5.69,5.69,0,0,0-1.69-4.2,5.77,5.77,0,0,0-4.23-1.66,5.56,5.56,0,0,0-5.74,5.39v.35Z" transform="translate(-6.46 -4.97)"/><path id="ArialMT-30-24" class="cls-3" d="M865.76,497.71a26.31,26.31,0,0,1,1-8.18,10.08,10.08,0,0,1,3.1-4.77,7.9,7.9,0,0,1,5.19-1.69,8.41,8.41,0,0,1,4,.94,7.64,7.64,0,0,1,2.86,2.67,14,14,0,0,1,1.79,4.26,28.52,28.52,0,0,1,.64,6.77,26.26,26.26,0,0,1-1,8.13,10.19,10.19,0,0,1-3.08,4.78,8.71,8.71,0,0,1-11.71-1.28Q865.76,505.77,865.76,497.71Zm3.61,0c0,4.7.55,7.82,1.65,9.38a4.72,4.72,0,0,0,8.15,0c1.1-1.56,1.65-4.69,1.65-9.37s-.55-7.85-1.65-9.4a4.88,4.88,0,0,0-4.12-2.32,4.49,4.49,0,0,0-3.86,2C870,489.77,869.38,493,869.37,497.71Z" transform="translate(-6.46 -4.97)"/><path id="ArialMT-30-25" class="cls-3" d="M888,497.71a26.31,26.31,0,0,1,1-8.18,10.08,10.08,0,0,1,3.1-4.77,7.9,7.9,0,0,1,5.19-1.69,8.3,8.3,0,0,1,4,.94,7.59,7.59,0,0,1,2.87,2.67,14.26,14.26,0,0,1,1.78,4.26,28,28,0,0,1,.65,6.77,26.26,26.26,0,0,1-1,8.13,10.13,10.13,0,0,1-3.1,4.78,8.7,8.7,0,0,1-11.7-1.28Q888,505.77,888,497.71Zm3.61,0c0,4.7.55,7.82,1.65,9.38a4.71,4.71,0,0,0,6.44,1.7,4.77,4.77,0,0,0,1.7-1.7c1.1-1.56,1.65-4.69,1.65-9.37s-.55-7.85-1.65-9.4A4.88,4.88,0,0,0,897.3,486a4.5,4.5,0,0,0-3.87,2C892.22,489.77,891.62,493,891.62,497.71Z" transform="translate(-6.46 -4.97)"/></g></g><g id="ytick_10" data-name="ytick 10"><g id="text_29" data-name="text 29"><path id="ArialMT-38-4" class="cls-3" d="M848.92,389.61a6.56,6.56,0,0,1-3.24-2.29,6,6,0,0,1-1-3.55,6.93,6.93,0,0,1,2.24-5.25,9.45,9.45,0,0,1,12,.05,7,7,0,0,1,2.29,5.3,5.87,5.87,0,0,1-1,3.47,6.62,6.62,0,0,1-3.17,2.27,7.34,7.34,0,0,1,5.39,7.34,8.22,8.22,0,0,1-2.6,6.17,10.6,10.6,0,0,1-13.67,0,8.38,8.38,0,0,1-2.6-6.27,7.5,7.5,0,0,1,1.42-4.67A7.06,7.06,0,0,1,848.92,389.61Zm-.7-6a4.48,4.48,0,0,0,1.31,3.32,4.66,4.66,0,0,0,3.4,1.29,4.53,4.53,0,0,0,3.33-1.27,4.27,4.27,0,0,0,1.3-3.14,4.36,4.36,0,0,0-1.35-3.26,4.88,4.88,0,0,0-6.66,0,4.12,4.12,0,0,0-1.29,3.1Zm-1.13,13.22a6.42,6.42,0,0,0,.71,2.92,5.18,5.18,0,0,0,2.12,2.18,6.29,6.29,0,0,0,3,.77,5.63,5.63,0,0,0,4.15-1.62,5.56,5.56,0,0,0,1.65-4.13,5.69,5.69,0,0,0-1.69-4.2,5.77,5.77,0,0,0-4.23-1.66,5.56,5.56,0,0,0-5.74,5.39v.35Z" transform="translate(-6.46 -4.97)"/><path id="ArialMT-35-5" class="cls-3" d="M865.76,397.64l3.69-.32a6.65,6.65,0,0,0,1.9,4.06,5.18,5.18,0,0,0,3.61,1.36,5.6,5.6,0,0,0,4.3-1.92,7.2,7.2,0,0,0,1.76-5.08,6.48,6.48,0,0,0-1.69-4.74,5.9,5.9,0,0,0-4.42-1.75,6,6,0,0,0-3.07.78,5.87,5.87,0,0,0-2.14,2l-3.3-.43,2.76-14.71h14.25v3.36H872l-1.54,7.7a9.31,9.31,0,0,1,5.41-1.8,8.53,8.53,0,0,1,6.32,2.6,9.08,9.08,0,0,1,2.58,6.68,10.48,10.48,0,0,1-2.26,6.72,9.07,9.07,0,0,1-7.52,3.47,9.29,9.29,0,0,1-6.38-2.18A8.52,8.52,0,0,1,865.76,397.64Z" transform="translate(-6.46 -4.97)"/><path id="ArialMT-30-26" class="cls-3" d="M888,391a26.31,26.31,0,0,1,1-8.18,10.08,10.08,0,0,1,3.1-4.77,8,8,0,0,1,5.19-1.68,8.43,8.43,0,0,1,4,.93,7.59,7.59,0,0,1,2.87,2.67,14.26,14.26,0,0,1,1.78,4.26,28,28,0,0,1,.65,6.77,26.26,26.26,0,0,1-1,8.13,10.21,10.21,0,0,1-3.1,4.79,7.94,7.94,0,0,1-5.2,1.68,7.83,7.83,0,0,1-6.5-3Q888,399.08,888,391Zm3.61,0c0,4.67.55,7.79,1.65,9.38a4.7,4.7,0,0,0,8.14,0c1.1-1.56,1.65-4.69,1.65-9.37s-.55-7.85-1.65-9.4a4.88,4.88,0,0,0-4.11-2.32,4.52,4.52,0,0,0-3.87,2.05Q891.62,384,891.62,391Z" transform="translate(-6.46 -4.97)"/></g></g><g id="ytick_11" data-name="ytick 11"><g id="text_30" data-name="text 30"><path id="ArialMT-39-3" class="cls-3" d="M844,291.83l3.38-.31a5.8,5.8,0,0,0,1.64,3.45,4.51,4.51,0,0,0,3.1,1.08,5.35,5.35,0,0,0,2.84-.75,6,6,0,0,0,2-2,11.78,11.78,0,0,0,1.3-3.35,17.35,17.35,0,0,0,.54-4.3V285a8.19,8.19,0,0,1-2.88,2.73,7.87,7.87,0,0,1-4,1,8,8,0,0,1-6-2.57,9.47,9.47,0,0,1-2.46-6.8,9.69,9.69,0,0,1,2.57-7,8.6,8.6,0,0,1,6.43-2.65,9.19,9.19,0,0,1,5.11,1.5,9.35,9.35,0,0,1,3.52,4.29,21,21,0,0,1,1.2,8.06,26.07,26.07,0,0,1-1.19,8.73,10.27,10.27,0,0,1-3.55,4.95,9.06,9.06,0,0,1-5.51,1.7,7.56,7.56,0,0,1-8.05-7v0Zm14.39-12.64a6.9,6.9,0,0,0-1.61-4.81,5,5,0,0,0-3.87-1.77,5.34,5.34,0,0,0-4.09,1.91,7.09,7.09,0,0,0-1.73,5,6.16,6.16,0,0,0,1.65,4.45,5.39,5.39,0,0,0,4.07,1.7,5.19,5.19,0,0,0,4-1.7,6.76,6.76,0,0,0,1.58-4.78Z" transform="translate(-6.46 -4.97)"/><path id="ArialMT-30-27" class="cls-3" d="M865.76,284.33a26.31,26.31,0,0,1,1-8.18,10.15,10.15,0,0,1,3.1-4.77,8,8,0,0,1,5.19-1.68,8.55,8.55,0,0,1,4,.93,7.72,7.72,0,0,1,2.86,2.67,14.28,14.28,0,0,1,1.79,4.26,28.52,28.52,0,0,1,.64,6.77,26.26,26.26,0,0,1-1,8.13,10.27,10.27,0,0,1-3.09,4.79,8,8,0,0,1-5.21,1.68,7.89,7.89,0,0,1-6.5-3Q865.77,292.39,865.76,284.33Zm3.61,0q0,7.05,1.65,9.39a4.72,4.72,0,0,0,8.15,0q1.65-2.34,1.65-9.37t-1.65-9.4a4.88,4.88,0,0,0-4.12-2.32,4.47,4.47,0,0,0-3.86,2.05C870,276.41,869.38,279.62,869.37,284.33Z" transform="translate(-6.46 -4.97)"/><path id="ArialMT-30-28" class="cls-3" d="M888,284.33a26.31,26.31,0,0,1,1-8.18,10.15,10.15,0,0,1,3.1-4.77,8,8,0,0,1,5.19-1.68,8.43,8.43,0,0,1,4,.93,7.75,7.75,0,0,1,2.87,2.67,14.26,14.26,0,0,1,1.78,4.26,28,28,0,0,1,.65,6.77,26.26,26.26,0,0,1-1,8.13,10.21,10.21,0,0,1-3.1,4.79A8.73,8.73,0,0,1,890.8,296Q888,292.39,888,284.33Zm3.61,0q0,7.05,1.65,9.39a4.71,4.71,0,0,0,6.44,1.7,4.77,4.77,0,0,0,1.7-1.7q1.65-2.34,1.65-9.37t-1.65-9.4a4.88,4.88,0,0,0-4.11-2.32,4.52,4.52,0,0,0-3.87,2.05C892.22,276.41,891.62,279.62,891.62,284.33Z" transform="translate(-6.46 -4.97)"/></g></g><g id="ytick_12" data-name="ytick 12"><g id="text_31" data-name="text 31"><path id="ArialMT-39-4" class="cls-3" d="M844,185.14l3.38-.31a5.8,5.8,0,0,0,1.64,3.45,4.51,4.51,0,0,0,3.1,1.08,5.35,5.35,0,0,0,2.84-.75,6,6,0,0,0,2-2,11.78,11.78,0,0,0,1.3-3.35,17.35,17.35,0,0,0,.54-4.3v-.7A8.19,8.19,0,0,1,856,181a7.87,7.87,0,0,1-4,1,8,8,0,0,1-6-2.57,9.47,9.47,0,0,1-2.46-6.8,9.69,9.69,0,0,1,2.57-7A8.6,8.6,0,0,1,852.5,163a9.19,9.19,0,0,1,5.11,1.5,9.35,9.35,0,0,1,3.52,4.29,21,21,0,0,1,1.2,8.06,26.16,26.16,0,0,1-1.19,8.74,10.38,10.38,0,0,1-3.55,4.95,9.15,9.15,0,0,1-5.51,1.7,7.57,7.57,0,0,1-8.05-7.06v0Zm14.39-12.62a6.82,6.82,0,0,0-1.61-4.8,5,5,0,0,0-3.87-1.78,5.34,5.34,0,0,0-4.09,1.91,7.13,7.13,0,0,0-1.73,5,6.13,6.13,0,0,0,1.65,4.44,5.43,5.43,0,0,0,4.07,1.71,5.2,5.2,0,0,0,4-1.71A6.75,6.75,0,0,0,858.43,172.52Z" transform="translate(-6.46 -4.97)"/><path id="ArialMT-35-6" class="cls-3" d="M865.76,184.26l3.69-.31a6.68,6.68,0,0,0,1.9,4,5.18,5.18,0,0,0,3.61,1.36,5.62,5.62,0,0,0,4.29-1.91,7.24,7.24,0,0,0,1.76-5.09,6.48,6.48,0,0,0-1.69-4.74,5.85,5.85,0,0,0-4.42-1.74,6.22,6.22,0,0,0-3.07.77,5.87,5.87,0,0,0-2.14,2l-3.3-.43,2.76-14.65H883.4v3.37H872l-1.54,7.69a9.31,9.31,0,0,1,5.41-1.8,8.54,8.54,0,0,1,6.32,2.6,9.08,9.08,0,0,1,2.58,6.68,10.48,10.48,0,0,1-2.26,6.72,9.08,9.08,0,0,1-7.52,3.48,9.28,9.28,0,0,1-6.38-2.19A8.5,8.5,0,0,1,865.76,184.26Z" transform="translate(-6.46 -4.97)"/><path id="ArialMT-30-29" class="cls-3" d="M888,177.64a26.31,26.31,0,0,1,1-8.18,10.23,10.23,0,0,1,3.1-4.77A8,8,0,0,1,897.3,163a8.43,8.43,0,0,1,4,.93,7.75,7.75,0,0,1,2.87,2.67,14.26,14.26,0,0,1,1.78,4.26,28,28,0,0,1,.65,6.77,26.26,26.26,0,0,1-1,8.13,10.21,10.21,0,0,1-3.1,4.79,8,8,0,0,1-5.2,1.69,7.83,7.83,0,0,1-6.5-3Q888,185.7,888,177.64Zm3.61,0q0,7,1.65,9.39a4.71,4.71,0,0,0,6.44,1.7,4.77,4.77,0,0,0,1.7-1.7q1.65-2.34,1.65-9.37t-1.65-9.39a4.89,4.89,0,0,0-4.15-2.35,4.5,4.5,0,0,0-3.87,2C892.26,169.71,891.62,172.94,891.62,177.64Z" transform="translate(-6.46 -4.97)"/></g></g><g id="ytick_13" data-name="ytick 13"><g id="text_32" data-name="text 32"><path id="ArialMT-31-4" class="cls-3" d="M834.51,85.07H831V62.67a18.47,18.47,0,0,1-3.34,2.42,24.41,24.41,0,0,1-3.7,1.82V63.52a21.71,21.71,0,0,0,5.16-3.36,13.38,13.38,0,0,0,3.14-3.84h2.26Z" transform="translate(-6.46 -4.97)"/><path id="ArialMT-30-30" class="cls-3" d="M843.52,71a26.21,26.21,0,0,1,1-8.17,10.18,10.18,0,0,1,3.1-4.78,8,8,0,0,1,5.19-1.68,8.43,8.43,0,0,1,4,.93,7.69,7.69,0,0,1,2.87,2.68,14.31,14.31,0,0,1,1.78,4.25,28,28,0,0,1,.65,6.77,26.26,26.26,0,0,1-1,8.13,10.21,10.21,0,0,1-3.1,4.79,8,8,0,0,1-5.2,1.69,7.83,7.83,0,0,1-6.5-3Q843.52,79,843.52,71Zm3.61,0q0,7,1.65,9.39a4.71,4.71,0,0,0,6.44,1.7,4.77,4.77,0,0,0,1.7-1.7c1.1-1.57,1.65-4.69,1.65-9.38s-.55-7.85-1.65-9.39a4.89,4.89,0,0,0-4.11-2.33,4.52,4.52,0,0,0-3.87,2C847.73,63,847.13,66.25,847.13,71Z" transform="translate(-6.46 -4.97)"/><path id="ArialMT-30-31" class="cls-3" d="M865.76,71a25.92,25.92,0,0,1,1-8.17,10.06,10.06,0,0,1,3.1-4.78A7.94,7.94,0,0,1,875,56.32a8.55,8.55,0,0,1,4,.93,7.69,7.69,0,0,1,2.87,2.68,14.31,14.31,0,0,1,1.78,4.25,28.52,28.52,0,0,1,.64,6.77,26,26,0,0,1-1,8.13,10.11,10.11,0,0,1-3.09,4.79A8,8,0,0,1,875,85.56a7.89,7.89,0,0,1-6.5-3Q865.77,79,865.76,71Zm3.62,0q0,7,1.65,9.39a4.71,4.71,0,0,0,6.44,1.7,4.77,4.77,0,0,0,1.7-1.7c1.1-1.57,1.65-4.69,1.65-9.38s-.56-7.86-1.65-9.44a4.89,4.89,0,0,0-4.11-2.33,4.5,4.5,0,0,0-3.87,2.05C870,63,869.38,66.25,869.38,71Z" transform="translate(-6.46 -4.97)"/><path id="ArialMT-30-32" class="cls-3" d="M888,71a26.21,26.21,0,0,1,1-8.17,10.18,10.18,0,0,1,3.1-4.78,8,8,0,0,1,5.19-1.68,8.32,8.32,0,0,1,4,.93,7.64,7.64,0,0,1,3,2.68A14,14,0,0,1,906,64.18a28,28,0,0,1,.65,6.77,26.26,26.26,0,0,1-1,8.13,10.27,10.27,0,0,1-3.09,4.79,8,8,0,0,1-5.21,1.69,7.86,7.86,0,0,1-6.5-3Q888,79,888,71Zm3.61,0q0,7,1.65,9.39a4.72,4.72,0,0,0,8.15,0c1.1-1.57,1.65-4.69,1.65-9.38s-.55-7.85-1.65-9.39a4.91,4.91,0,0,0-4.16-2.34,4.52,4.52,0,0,0-3.87,2.05C892.26,63,891.62,66.25,891.62,71Z" transform="translate(-6.46 -4.97)"/></g></g><g id="text_33" data-name="text 33"><path id="ArialMT-4d-2" class="cls-3" d="M806.14,625.4H773.93V619l22.8-7.62c2.13-.71,3.72-1.23,4.77-1.54q-1.75-.55-5.16-1.71l-22.41-7.72v-5.73h32.21v4.1h-27l27,9.37V612l-27.42,9.32h27.42Z" transform="translate(-6.46 -4.97)"/><path id="ArialMT-65-3" class="cls-3" d="M798.62,572.31l.51-4.09a10,10,0,0,1,5.56,3.58,12.16,12.16,0,0,1-1.18,14.8q-3.15,3-8.84,3-5.89,0-9.14-3a10.31,10.31,0,0,1-3.26-7.87,10,10,0,0,1,3.19-7.65q3.18-3,9-3h1.06v17.44a9,9,0,0,0,5.89-2.17,6.49,6.49,0,0,0,2-4.88,6,6,0,0,0-1.14-3.71A7.61,7.61,0,0,0,798.62,572.31Zm-6.39,13v-13a7.9,7.9,0,0,0-4.42,1.49,6.06,6.06,0,0,0-2.28,4.9,6.27,6.27,0,0,0,1.82,4.58,7.26,7.26,0,0,0,4.91,2Z" transform="translate(-6.46 -4.97)"/><path id="ArialMT-61-3" class="cls-3" d="M803.26,548a15,15,0,0,1,2.64,4.23,12.25,12.25,0,0,1,.76,4.36,8.52,8.52,0,0,1-1.87,5.91,6.22,6.22,0,0,1-4.8,2.07,6.52,6.52,0,0,1-5.41-2.83,9.38,9.38,0,0,1-1.3-2.84,28.1,28.1,0,0,1-.59-3.52,37,37,0,0,0-1.36-7h-1a4.35,4.35,0,0,0-3.41,1.12,6.63,6.63,0,0,0-1.34,4.5,7,7,0,0,0,1,4.12,6,6,0,0,0,3.46,2l-.53,3.87a9.51,9.51,0,0,1-4-1.74,7.59,7.59,0,0,1-2.35-3.49,15.67,15.67,0,0,1-.83-5.3,14,14,0,0,1,.71-4.85,6.41,6.41,0,0,1,1.77-2.75,6.29,6.29,0,0,1,2.69-1.23,22.16,22.16,0,0,1,3.64-.2h5.28a56.41,56.41,0,0,0,7-.25,8.77,8.77,0,0,0,2.8-1v4.13A8.42,8.42,0,0,1,803.26,548Zm-8.84.33a28.73,28.73,0,0,1,1.5,6.46,14.54,14.54,0,0,0,.8,3.45,3.37,3.37,0,0,0,1.28,1.56,3.25,3.25,0,0,0,1.87.55,3.4,3.4,0,0,0,2.64-1.19,5.25,5.25,0,0,0,1-3.51,8.26,8.26,0,0,0-1-4.07,6.23,6.23,0,0,0-2.74-2.61,9.43,9.43,0,0,0-4-.64Z" transform="translate(-6.46 -4.97)"/><path id="ArialMT-6e-2" class="cls-3" d="M806.14,538.23H782.8v-3.56h3.32a8.39,8.39,0,0,1-3.85-7.42,9.94,9.94,0,0,1,.76-3.88,6,6,0,0,1,2-2.65,7.8,7.8,0,0,1,2.92-1.24,24.72,24.72,0,0,1,3.85-.21h14.35v4H792a10.52,10.52,0,0,0-3.61.46,3.76,3.76,0,0,0-1.91,1.63,5.14,5.14,0,0,0-.72,2.76,6.42,6.42,0,0,0,1.61,4.36c1.07,1.23,3.09,1.84,6.08,1.84h12.75Z" transform="translate(-6.46 -4.97)"/><path id="ArialMT-20-3" class="cls-3" d="M806.14,516.17" transform="translate(-6.46 -4.97)"/><path id="ArialMT-52-3" class="cls-3" d="M806.14,500.13H773.93V485.85a18.89,18.89,0,0,1,.87-6.55,7.24,7.24,0,0,1,3.06-3.58,9.06,9.06,0,0,1,4.86-1.34,8.16,8.16,0,0,1,5.78,2.22q2.34,2.22,3,6.85a10.89,10.89,0,0,1,1.61-2.57,22.4,22.4,0,0,1,4.28-3.54l8.77-5.6v5.36l-6.7,4.27c-1.94,1.24-3.42,2.27-4.44,3.07a9.58,9.58,0,0,0-2.15,2.16,6.7,6.7,0,0,0-.87,1.95,14.44,14.44,0,0,0-.14,2.37v5h14.3Zm-18-4.26V486.7a13.83,13.83,0,0,0-.6-4.56,4.92,4.92,0,0,0-1.93-2.51,5.29,5.29,0,0,0-2.89-.86,4.79,4.79,0,0,0-3.76,1.66c-1,1.11-1.47,2.85-1.47,5.25v10.19Z" transform="translate(-6.46 -4.97)"/><path id="ArialMT-54-3" class="cls-3" d="M806.14,460.29H777.72V470.9h-3.79V445.37h3.79V456h28.42Z" transform="translate(-6.46 -4.97)"/><path id="ArialMT-20-4" class="cls-3" d="M806.14,445.26" transform="translate(-6.46 -4.97)"/><path id="ArialMT-28-2" class="cls-3" d="M815.61,422.23a39.7,39.7,0,0,1-9.67,5.54,30.37,30.37,0,0,1-21.49.57,42.15,42.15,0,0,1-11.07-6.11V419.4q4.57,2.66,6.52,3.51a34.88,34.88,0,0,0,6.36,2.11,36.46,36.46,0,0,0,8.26.94q10.58,0,21.12-6.56Z" transform="translate(-6.46 -4.97)"/><path id="ArialMT-6d-2" class="cls-3" d="M806.14,414.8H782.8v-3.53h3.28a8.3,8.3,0,0,1-2.76-2.92,8.15,8.15,0,0,1-1-4.16,7.65,7.65,0,0,1,1.08-4.25,5.72,5.72,0,0,1,3-2.34,8.39,8.39,0,0,1-4.09-7.21,7.08,7.08,0,0,1,1.93-5.34c1.28-1.24,3.25-1.87,5.92-1.87h16v3.94h-14.7a11,11,0,0,0-3.42.39,3.28,3.28,0,0,0-1.68,1.39,4.31,4.31,0,0,0-.64,2.37,5.55,5.55,0,0,0,1.64,4.09c1.09,1.08,2.84,1.63,5.24,1.63h13.56v3.95H791a6.62,6.62,0,0,0-4,1,3.66,3.66,0,0,0-1.33,3.16,5.83,5.83,0,0,0,.88,3.09,5.08,5.08,0,0,0,2.58,2.05,14.32,14.32,0,0,0,4.87.64h12.11Z" transform="translate(-6.46 -4.97)"/><path id="ArialMT-73-2" class="cls-3" d="M799.17,378.9l-.61-3.91a5.47,5.47,0,0,0,3.6-1.84,6.41,6.41,0,0,0,1.25-4.21,6.26,6.26,0,0,0-1.1-4,3.34,3.34,0,0,0-2.61-1.32,2.39,2.39,0,0,0-2.11,1.16,17.12,17.12,0,0,0-1.34,4,37,37,0,0,1-1.9,6A5.77,5.77,0,0,1,789,378.2a6.06,6.06,0,0,1-2.89-.71,6.38,6.38,0,0,1-2.21-1.95,8.29,8.29,0,0,1-1.15-2.51,11.63,11.63,0,0,1-.48-3.42,13.41,13.41,0,0,1,.8-4.82,6.51,6.51,0,0,1,2.14-3.07,8.28,8.28,0,0,1,3.61-1.36l.53,3.87a4.2,4.2,0,0,0-2.81,1.52,5.64,5.64,0,0,0-1,3.58,6.44,6.44,0,0,0,.9,3.88,2.61,2.61,0,0,0,2.11,1.17,2.23,2.23,0,0,0,1.38-.48,3.53,3.53,0,0,0,1.06-1.52c.14-.4.48-1.56,1-3.5a47.85,47.85,0,0,1,1.85-5.85,5.87,5.87,0,0,1,2.07-2.6,5.77,5.77,0,0,1,3.35-.91,6.78,6.78,0,0,1,3.73,1.15,7.48,7.48,0,0,1,2.7,3.34,12,12,0,0,1,.95,4.91c0,3-.63,5.35-1.89,6.93A8.83,8.83,0,0,1,799.17,378.9Z" transform="translate(-6.46 -4.97)"/><path id="ArialMT-29-2" class="cls-3" d="M815.61,352.22v2.84q-10.54-6.54-21.12-6.54a35.79,35.79,0,0,0-8.19.94,34.52,34.52,0,0,0-6.33,2.09,73.1,73.1,0,0,0-6.59,3.54v-2.87a42.12,42.12,0,0,1,11.07-6.1,30.32,30.32,0,0,1,21.49.58A41,41,0,0,1,815.61,352.22Z" transform="translate(-6.46 -4.97)"/></g><g id="line2d_7" data-name="line2d 7"><g class="cls-12"><path class="cls-5" d="M945.51,243.52l20.92.81,3.49-14.65,4.88-70.84,7.32,121,5.23,100.38,7-278.61,9.76,100.45,4.15,114.38,10.47-176,10.46,188.63,4.18-63.16,9.76-172.61V295.86l7,87.22,5.23-97,7.32-113,4.88,39.28V327l3.49,69.64L1092,256l292.91,63.33,20.92-3,8.37,11.31,7.31-133.12,5.23,156.62,7-16.1,9.77-109.94,4.18,164.56L1458.12,145l10.46,337,4.19-258.28,9.76-8L1494.74,175l7.32,62.27" transform="translate(-6.46 -4.97)"/></g><g class="cls-12"><path id="m7cb1ec5a70-42" class="cls-6" d="M945.51,253.52a10,10,0,1,0-7.07-2.93A10,10,0,0,0,945.51,253.52Z" transform="translate(-6.46 -4.97)"/><path id="m7cb1ec5a70-43" class="cls-6" d="M966.43,254.35a10,10,0,1,0-7.07-2.93A10,10,0,0,0,966.43,254.35Z" transform="translate(-6.46 -4.97)"/><path id="m7cb1ec5a70-44" class="cls-6" d="M969.92,239.7a10,10,0,1,0-7.07-2.93A10,10,0,0,0,969.92,239.7Z" transform="translate(-6.46 -4.97)"/><path id="m7cb1ec5a70-45" class="cls-6" d="M974.8,168.86a10,10,0,1,0-7.07-2.92A10,10,0,0,0,974.8,168.86Z" transform="translate(-6.46 -4.97)"/><path id="m7cb1ec5a70-46" class="cls-6" d="M982.12,289.87a10,10,0,1,0-7.07-2.93A10,10,0,0,0,982.12,289.87Z" transform="translate(-6.46 -4.97)"/><path id="m7cb1ec5a70-47" class="cls-6" d="M987.35,390.25a10,10,0,1,0-7.09-2.93A10,10,0,0,0,987.35,390.25Z" transform="translate(-6.46 -4.97)"/><path id="m7cb1ec5a70-48" class="cls-6" d="M994.33,111.64a10,10,0,1,0-7.07-2.93A10,10,0,0,0,994.33,111.64Z" transform="translate(-6.46 -4.97)"/><path id="m7cb1ec5a70-49" class="cls-6" d="M1004.09,212.09a10,10,0,1,0-7.07-2.93A10,10,0,0,0,1004.09,212.09Z" transform="translate(-6.46 -4.97)"/><path id="m7cb1ec5a70-50" class="cls-6" d="M1008.26,326.44a10,10,0,1,0-7.07-2.93A10,10,0,0,0,1008.26,326.44Z" transform="translate(-6.46 -4.97)"/><path id="m7cb1ec5a70-51" class="cls-6" d="M1018.74,150.39a10,10,0,1,0-7.08-2.93A10,10,0,0,0,1018.74,150.39Z" transform="translate(-6.46 -4.97)"/><path id="m7cb1ec5a70-52" class="cls-6" d="M1029.2,339a10,10,0,1,0-7.07-2.93A10,10,0,0,0,1029.2,339Z" transform="translate(-6.46 -4.97)"/><path id="m7cb1ec5a70-53" class="cls-6" d="M1033.38,275.86a10,10,0,1,0-7.07-2.92A10,10,0,0,0,1033.38,275.86Z" transform="translate(-6.46 -4.97)"/><path id="m7cb1ec5a70-54" class="cls-6" d="M1043.14,103.25a10,10,0,1,0-7.07-2.93A10,10,0,0,0,1043.14,103.25Z" transform="translate(-6.46 -4.97)"/><path id="m7cb1ec5a70-55" class="cls-6" d="M1043.14,305.86a10,10,0,1,0-7.07-2.93A10,10,0,0,0,1043.14,305.86Z" transform="translate(-6.46 -4.97)"/><path id="m7cb1ec5a70-56" class="cls-6" d="M1050.12,393.08a10,10,0,1,0-7.07-2.93A10,10,0,0,0,1050.12,393.08Z" transform="translate(-6.46 -4.97)"/><path id="m7cb1ec5a70-57" class="cls-6" d="M1055.35,296.06a10,10,0,1,0-7.07-2.93A10,10,0,0,0,1055.35,296.06Z" transform="translate(-6.46 -4.97)"/><path id="m7cb1ec5a70-58" class="cls-6" d="M1062.67,183.1a10,10,0,1,0-7.07-2.93A10,10,0,0,0,1062.67,183.1Z" transform="translate(-6.46 -4.97)"/><path id="m7cb1ec5a70-59" class="cls-6" d="M1067.55,222.38a10,10,0,1,0-7.07-2.93A10,10,0,0,0,1067.55,222.38Z" transform="translate(-6.46 -4.97)"/><path id="m7cb1ec5a70-60" class="cls-6" d="M1067.55,337a10,10,0,1,0-7.07-2.93A10,10,0,0,0,1067.55,337Z" transform="translate(-6.46 -4.97)"/><path id="m7cb1ec5a70-61" class="cls-6" d="M1071,406.63a10,10,0,1,0-7.07-2.93A10,10,0,0,0,1071,406.63Z" transform="translate(-6.46 -4.97)"/><path id="m7cb1ec5a70-62" class="cls-6" d="M1092,266a10,10,0,1,0-7.07-2.93A10,10,0,0,0,1092,266Z" transform="translate(-6.46 -4.97)"/><path id="m7cb1ec5a70-63" class="cls-6" d="M1384.87,329.33a10,10,0,1,0-7.07-2.93A10,10,0,0,0,1384.87,329.33Z" transform="translate(-6.46 -4.97)"/><path id="m7cb1ec5a70-64" class="cls-6" d="M1405.79,326.31a10,10,0,1,0-7.07-2.93A10,10,0,0,0,1405.79,326.31Z" transform="translate(-6.46 -4.97)"/><path id="m7cb1ec5a70-65" class="cls-6" d="M1414.16,337.62a10,10,0,1,0-7.07-2.93A10,10,0,0,0,1414.16,337.62Z" transform="translate(-6.46 -4.97)"/><path id="m7cb1ec5a70-66" class="cls-6" d="M1421.48,204.52a10,10,0,1,0-7.07-2.93A10,10,0,0,0,1421.48,204.52Z" transform="translate(-6.46 -4.97)"/><path id="m7cb1ec5a70-67" class="cls-6" d="M1426.71,361.09a10,10,0,1,0-7.07-2.93A10,10,0,0,0,1426.71,361.09Z" transform="translate(-6.46 -4.97)"/><path id="m7cb1ec5a70-68" class="cls-6" d="M1433.68,345a10,10,0,1,0-7.07-2.93A10,10,0,0,0,1433.68,345Z" transform="translate(-6.46 -4.97)"/><path id="m7cb1ec5a70-69" class="cls-6" d="M1443.45,235.05a10,10,0,1,0-7.07-2.93A10,10,0,0,0,1443.45,235.05Z" transform="translate(-6.46 -4.97)"/><path id="m7cb1ec5a70-70" class="cls-6" d="M1447.63,399.61a10,10,0,1,0-7.07-2.93A10,10,0,0,0,1447.63,399.61Z" transform="translate(-6.46 -4.97)"/><path id="m7cb1ec5a70-71" class="cls-6" d="M1458.09,154.91A10,10,0,1,0,1451,152,10,10,0,0,0,1458.09,154.91Z" transform="translate(-6.46 -4.97)"/><path id="m7cb1ec5a70-72" class="cls-6" d="M1468.55,491.93a10,10,0,1,0-7.07-2.93A10,10,0,0,0,1468.55,491.93Z" transform="translate(-6.46 -4.97)"/><path id="m7cb1ec5a70-73" class="cls-6" d="M1472.74,233.65a10,10,0,1,0-7.07-2.93A10,10,0,0,0,1472.74,233.65Z" transform="translate(-6.46 -4.97)"/><path id="m7cb1ec5a70-74" class="cls-6" d="M1482.5,225.66a10,10,0,1,0-7.07-2.93A10,10,0,0,0,1482.5,225.66Z" transform="translate(-6.46 -4.97)"/><path id="m7cb1ec5a70-75" class="cls-6" d="M1494.71,185a10,10,0,1,0-7.07-2.92A10,10,0,0,0,1494.71,185Z" transform="translate(-6.46 -4.97)"/><path id="m7cb1ec5a70-76" class="cls-6" d="M1502,247.29a10,10,0,1,0-7.07-2.93A10,10,0,0,0,1502,247.29Z" transform="translate(-6.46 -4.97)"/></g></g><g id="line2d_8" data-name="line2d 8"><g class="cls-12"><path class="cls-7" d="M945.51,726l20.92,152.3,3.49-131.54,4.88-93.48,7.32,58,5.23,148.36,7-149.94,9.76,9.25,4.18-3.85,10.47-60.64,10.46,173,4.18-84,9.76-79.82V624l7,204.16,5.23-137.94,7.32-58.4,4.88,37.56V873.79l3.49-79.52L1092,713.52l292.91,37.54,20.92,43,8.37-74.73,7.32-52.3,5.23,161.79,7-181.08,9.77,15.68,4.18,191,10.43-266.9,10.46,254.38,4.19-163.61L1482.5,655l12.21,27.29L1502,647" transform="translate(-6.46 -4.97)"/></g><g class="cls-12"><path id="mb9e596af7c-42" class="cls-8" d="M940.51,736l5-5,5,5,5-5-5-5,5-5-5-5-5,5-5-5-5,5,5,5-5,5Z" transform="translate(-6.46 -4.97)"/><path id="mb9e596af7c-43" class="cls-8" d="M961.43,888.31l5-5,5,5,5-5-5-5,5-5-5-5-5,5-5-5-5,5,5,5-5,5Z" transform="translate(-6.46 -4.97)"/><path id="mb9e596af7c-44" class="cls-8" d="M964.92,756.77l5-5,5,5,5-5-5-5,5-5-5-5-5,5-5-5-5,5,5,5-5,5Z" transform="translate(-6.46 -4.97)"/><path id="mb9e596af7c-45" class="cls-8" d="M969.8,663.29l5-5,5,5,5-5-5-5,5-5-5-5-5,5-5-5-5,5,5,5-5,5Z" transform="translate(-6.46 -4.97)"/><path id="mb9e596af7c-46" class="cls-8" d="M977.12,721.28l5-5,5,5,5-5-5-5,5-5-5-5-5,5-5-5-5,5,5,5-5,5Z" transform="translate(-6.46 -4.97)"/><path id="mb9e596af7c-47" class="cls-8" d="M982.35,869.64l5-5,5,5,5-5-5-5,5-5-5-5-5,5-5-5-5,5,5,5-5,5Z" transform="translate(-6.46 -4.97)"/><path id="mb9e596af7c-48" class="cls-8" d="M989.33,719.7l5-5,5,5,5-5-5-5,5-5-5-5-5,5-5-5-5,5,5,5-5,5Z" transform="translate(-6.46 -4.97)"/><path id="mb9e596af7c-49" class="cls-8" d="M999.09,729l5-5,5,5,5-5-5-5,5-5-5-5-5,5-5-5-5,5,5,5-5,5Z" transform="translate(-6.46 -4.97)"/><path id="mb9e596af7c-50" class="cls-8" d="M1003.26,725.1l5-5,5,5,5-5-5-5,5-5-5-5-5,5-5-5-5,5,5,5-5,5Z" transform="translate(-6.46 -4.97)"/><path id="mb9e596af7c-51" class="cls-8" d="M1013.74,664.46l5-5,5,5,5-5-5-5,5-5-5-5-5,5-5-5-5,5,5,5-5,5Z" transform="translate(-6.46 -4.97)"/><path id="mb9e596af7c-52" class="cls-8" d="M1024.2,837.43l5-5,5,5,5-5-5-5,5-5-5-5-5,5-5-5-5,5,5,5-5,5Z" transform="translate(-6.46 -4.97)"/><path id="mb9e596af7c-53" class="cls-8" d="M1028.38,753.52l5-5,5,5,5-5-5-5,5-5-5-5-5,5-5-5-5,5,5,5-5,5Z" transform="translate(-6.46 -4.97)"/><path id="mb9e596af7c-54" class="cls-8" d="M1038.14,673.65l5-5,5,5,5-5-5-5,5-5-5-5-5,5-5-5-5,5,5,5-5,5Z" transform="translate(-6.46 -4.97)"/><path id="mb9e596af7c-55" class="cls-8" d="M1038.14,634l5-5,5,5,5-5-5-5,5-5-5-5-5,5-5-5-5,5,5,5-5,5Z" transform="translate(-6.46 -4.97)"/><path id="mb9e596af7c-56" class="cls-8" d="M1045.12,838.18l5-5,5,5,5-5-5-5,5-5-5-5-5,5-5-5-5,5,5,5-5,5Z" transform="translate(-6.46 -4.97)"/><path id="mb9e596af7c-57" class="cls-8" d="M1050.35,700.24l5-5,5,5,5-5-5-5,5-5-5-5-5,5-5-5-5,5,5,5-5,5Z" transform="translate(-6.46 -4.97)"/><path id="mb9e596af7c-58" class="cls-8" d="M1057.67,641.84l5-5,5,5,5-5-5-5,5-5-5-5-5,5-5-5-5,5,5,5-5,5Z" transform="translate(-6.46 -4.97)"/><path id="mb9e596af7c-59" class="cls-8" d="M1062.55,679.4l5-5,5,5,5-5-5-5,5-5-5-5-5,5-5-5-5,5,5,5-5,5Z" transform="translate(-6.46 -4.97)"/><path id="mb9e596af7c-60" class="cls-8" d="M1062.55,883.79l5-5,5,5,5-5-5-5,5-5-5-5-5,5-5-5-5,5,5,5-5,5Z" transform="translate(-6.46 -4.97)"/><path id="mb9e596af7c-61" class="cls-8" d="M1066,804.27l5-5,5,5,5-5-5-5,5-5-5-5-5,5-5-5-5,5,5,5-5,5Z" transform="translate(-6.46 -4.97)"/><path id="mb9e596af7c-62" class="cls-8" d="M1087,723.52l5-5,5,5,5-5-5-5,5-5-5-5-5,5-5-5-5,5,5,5-5,5Z" transform="translate(-6.46 -4.97)"/><path id="mb9e596af7c-63" class="cls-8" d="M1379.87,761l5-5,5,5,5-5-5-5,5-5-5-5-5,5-5-5-5,5,5,5-5,5Z" transform="translate(-6.46 -4.97)"/><path id="mb9e596af7c-64" class="cls-8" d="M1400.79,804.05l5-5,5,5,5-5-5-5,5-5-5-5-5,5-5-5-5,5,5,5-5,5Z" transform="translate(-6.46 -4.97)"/><path id="mb9e596af7c-65" class="cls-8" d="M1409.16,729.32l5-5,5,5,5-5-5-5,5-5-5-5-5,5-5-5-5,5,5,5-5,5Z" transform="translate(-6.46 -4.97)"/><path id="mb9e596af7c-66" class="cls-8" d="M1416.48,677l5-5,5,5,5-5-5-5,5-5-5-5-5,5-5-5-5,5,5,5-5,5Z" transform="translate(-6.46 -4.97)"/><path id="mb9e596af7c-67" class="cls-8" d="M1421.71,838.81l5-5,5,5,5-5-5-5,5-5-5-5-5,5-5-5-5,5,5,5-5,5Z" transform="translate(-6.46 -4.97)"/><path id="mb9e596af7c-68" class="cls-8" d="M1428.68,657.73l5-5,5,5,5-5-5-5,5-5-5-5-5,5-5-5-5,5,5,5-5,5Z" transform="translate(-6.46 -4.97)"/><path id="mb9e596af7c-69" class="cls-8" d="M1438.45,673.41l5-5,5,5,5-5-5-5,5-5-5-5-5,5-5-5-5,5,5,5-5,5Z" transform="translate(-6.46 -4.97)"/><path id="mb9e596af7c-70" class="cls-8" d="M1442.63,864.41l5-5,5,5,5-5-5-5,5-5-5-5-5,5-5-5-5,5,5,5-5,5Z" transform="translate(-6.46 -4.97)"/><path id="mb9e596af7c-71" class="cls-8" d="M1453.09,597.52l5-5,5,5,5-5-5-5,5-5-5-5-5,5-5-5-5,5,5,5-5,5Z" transform="translate(-6.46 -4.97)"/><path id="mb9e596af7c-72" class="cls-8" d="M1463.55,851.9l5-5,5,5,5-5-5-5,5-5-5-5-5,5-5-5-5,5,5,5-5,5Z" transform="translate(-6.46 -4.97)"/><path id="mb9e596af7c-73" class="cls-8" d="M1467.74,688.29l5-5,5,5,5-5-5-5,5-5-5-5-5,5-5-5-5,5,5,5-5,5Z" transform="translate(-6.46 -4.97)"/><path id="mb9e596af7c-74" class="cls-8" d="M1477.5,665l5-5,5,5,5-5-5-5,5-5-5-5-5,5-5-5-5,5,5,5-5,5Z" transform="translate(-6.46 -4.97)"/><path id="mb9e596af7c-75" class="cls-8" d="M1489.71,692.29l5-5,5,5,5-5-5-5,5-5-5-5-5,5-5-5-5,5,5,5-5,5Z" transform="translate(-6.46 -4.97)"/><path id="mb9e596af7c-76" class="cls-8" d="M1497,657l5-5,5,5,5-5-5-5,5-5-5-5-5,5-5-5-5,5,5,5-5,5Z" transform="translate(-6.46 -4.97)"/></g></g><g id="patch_6" data-name="patch 6"><path class="cls-9" d="M917.68,917.52V54" transform="translate(-6.46 -4.97)"/></g><g id="patch_7" data-name="patch 7"><path class="cls-9" d="M917.68,917.52h613.64" transform="translate(-6.46 -4.97)"/></g><g id="text_34" data-name="text 34"><path id="ArialMT-42" class="cls-3" d="M775.41,60.82V5h21a26,26,0,0,1,10.26,1.69,13.13,13.13,0,0,1,6,5.22,13.77,13.77,0,0,1,2.2,7.37A12.76,12.76,0,0,1,812.93,26a13.79,13.79,0,0,1-5.86,5.1,14.55,14.55,0,0,1,7.77,5.07,13.55,13.55,0,0,1,2.73,8.46,16.45,16.45,0,0,1-1.65,7.3,14.13,14.13,0,0,1-4.1,5.19,17,17,0,0,1-6.12,2.76,36.8,36.8,0,0,1-9,.93Zm7.38-32.37h12.08a26.56,26.56,0,0,0,7-.65A7.87,7.87,0,0,0,806.12,25a8,8,0,0,0,1.42-4.89,9,9,0,0,0-1.28-4.89,6.71,6.71,0,0,0-3.81-2.9,31.82,31.82,0,0,0-8.48-.78H782.79Zm0,25.78H796.7a32.17,32.17,0,0,0,5-.27A12,12,0,0,0,806,52.45a8,8,0,0,0,2.82-3.11,9.72,9.72,0,0,0,1.11-4.7,9.22,9.22,0,0,0-1.6-5.43A8.34,8.34,0,0,0,803.86,36a27.19,27.19,0,0,0-8.18-.94H782.79Z" transform="translate(-6.46 -4.97)"/></g></svg>