<svg id="Layer_1" data-name="Layer 1" xmlns="http://www.w3.org/2000/svg" xmlns:xlink="http://www.w3.org/1999/xlink" viewBox="0 0 787.48 981.75"><defs><style>.cls-1,.cls-5,.cls-6,.cls-7{fill:none;}.cls-2{fill:#fff;}.cls-3{fill:#262626;}.cls-4{clip-path:url(#clip-path);}.cls-5{stroke:#841e5a;}.cls-5,.cls-6{stroke-linecap:round;stroke-linejoin:round;stroke-width:6px;}.cls-6{stroke:#f06043;}.cls-7{stroke:#262626;stroke-linecap:square;stroke-width:0.8px;}</style><clipPath id="clip-path"><rect class="cls-1" x="166.64" y="20.14" width="613.64" height="863.57"/></clipPath></defs><g id="patch_7" data-name="patch 7"><path class="cls-2" d="M166.64,883.71H780.27V20.14H166.64Z"/></g><g id="matplotlib.axis_3" data-name="matplotlib.axis 3"><g id="xtick_3" data-name="xtick 3"><g id="text_14" data-name="text 14"><path id="ArialMT-31" class="cls-3" d="M198.31,921.44H194.8V899a18.43,18.43,0,0,1-3.33,2.42,24.43,24.43,0,0,1-3.7,1.82v-3.4a21.3,21.3,0,0,0,5.15-3.36,13.29,13.29,0,0,0,3.13-3.83h2.26Z"/></g></g><g id="xtick_4" data-name="xtick 4"><g id="text_15" data-name="text 15"><path id="ArialMT-32" class="cls-3" d="M343,918.06v3.38H324.08a6.52,6.52,0,0,1,.41-2.44,13.09,13.09,0,0,1,2.31-3.81,37.42,37.42,0,0,1,4.61-4.34,39.34,39.34,0,0,0,6.31-6.06,7.28,7.28,0,0,0,1.64-4.23,4.69,4.69,0,0,0-1.5-3.52A5.37,5.37,0,0,0,334,895.6a5.49,5.49,0,0,0-4.07,1.53,5.75,5.75,0,0,0-1.54,4.21l-3.61-.37a8.87,8.87,0,0,1,2.78-6.16,9.58,9.58,0,0,1,6.52-2.12,9.05,9.05,0,0,1,6.52,2.29,7.5,7.5,0,0,1,2.4,5.66,8.57,8.57,0,0,1-.7,3.38,13.17,13.17,0,0,1-2.34,3.5,56.3,56.3,0,0,1-5.41,5c-2.12,1.77-3.47,3-4.07,3.61a11.27,11.27,0,0,0-1.48,1.9Z"/></g></g><g id="xtick_5" data-name="xtick 5"><g id="text_16" data-name="text 16"><path id="ArialMT-33" class="cls-3" d="M464,913.89l3.51-.47a7.71,7.71,0,0,0,2.06,4.3,5.08,5.08,0,0,0,3.54,1.32,5.66,5.66,0,0,0,4.19-1.72,5.78,5.78,0,0,0,1.71-4.26,5.37,5.37,0,0,0-1.58-4,5.44,5.44,0,0,0-4-1.57,10.14,10.14,0,0,0-2.48.39l.39-3.09a4.41,4.41,0,0,0,.56,0,7.27,7.27,0,0,0,4.05-1.17,4,4,0,0,0,1.8-3.62,4.27,4.27,0,0,0-1.32-3.2,4.61,4.61,0,0,0-3.37-1.27,4.78,4.78,0,0,0-3.42,1.29,6.49,6.49,0,0,0-1.76,3.87l-3.51-.63a9,9,0,0,1,2.92-5.47,8.47,8.47,0,0,1,5.69-1.95,9.34,9.34,0,0,1,4.31,1,7.25,7.25,0,0,1,3,2.74,7,7,0,0,1,1.05,3.7,6,6,0,0,1-1,3.37,6.75,6.75,0,0,1-2.94,2.43,6.55,6.55,0,0,1,3.94,2.43,7.39,7.39,0,0,1,1.41,4.62,8.45,8.45,0,0,1-2.74,6.35,9.61,9.61,0,0,1-6.91,2.61,9,9,0,0,1-6.27-2.25A8.71,8.71,0,0,1,464,913.89Z"/></g></g><g id="xtick_6" data-name="xtick 6"><g id="text_17" data-name="text 17"><path id="ArialMT-34" class="cls-3" d="M614.73,921.44v-6.85H602.3v-3.23l13.07-18.55h2.87v18.55h3.87v3.23h-3.87v6.85Zm0-10.08V898.45l-9,12.91Z"/></g></g><g id="xtick_7" data-name="xtick 7"><g id="text_18" data-name="text 18"><path id="ArialMT-35" class="cls-3" d="M742.92,913.94l3.69-.31a6.69,6.69,0,0,0,1.91,4.06,5.16,5.16,0,0,0,3.6,1.35,5.64,5.64,0,0,0,4.3-1.91,7.23,7.23,0,0,0,1.75-5.08,6.55,6.55,0,0,0-1.68-4.75,5.9,5.9,0,0,0-4.43-1.74,6.09,6.09,0,0,0-3.07.78,5.81,5.81,0,0,0-2.14,2l-3.3-.44,2.77-14.7h14.24v3.36H749.13l-1.54,7.69a9.3,9.3,0,0,1,5.41-1.8,8.55,8.55,0,0,1,6.32,2.6,9.1,9.1,0,0,1,2.58,6.69,10.39,10.39,0,0,1-2.26,6.71,9.07,9.07,0,0,1-7.52,3.48,9.28,9.28,0,0,1-6.38-2.19A8.59,8.59,0,0,1,742.92,913.94Z"/></g></g><g id="text_19" data-name="text 19"><path id="ArialMT-42" class="cls-3" d="M410.48,965.6V933.39h12.09a15,15,0,0,1,5.92,1,7.54,7.54,0,0,1,3.49,3,7.94,7.94,0,0,1,1.27,4.25,7.37,7.37,0,0,1-1.12,3.89,8.11,8.11,0,0,1-3.38,2.94,8.41,8.41,0,0,1,4.48,2.92,7.84,7.84,0,0,1,1.58,4.88,9.43,9.43,0,0,1-1,4.22,8.24,8.24,0,0,1-2.36,3,10,10,0,0,1-3.53,1.6,21.87,21.87,0,0,1-5.19.53Zm4.27-18.67h7a15.47,15.47,0,0,0,4.07-.38,4.44,4.44,0,0,0,2.44-1.6,4.64,4.64,0,0,0,.83-2.82,5.18,5.18,0,0,0-.77-2.82,3.88,3.88,0,0,0-2.2-1.67,18.29,18.29,0,0,0-4.89-.45h-6.44Zm0,14.87h8a17.45,17.45,0,0,0,2.9-.16,6.85,6.85,0,0,0,2.46-.87,4.63,4.63,0,0,0,1.62-1.79,5.55,5.55,0,0,0,.64-2.72,5.34,5.34,0,0,0-.92-3.12,4.74,4.74,0,0,0-2.56-1.87,15.45,15.45,0,0,0-4.72-.55h-7.44Z"/><path id="ArialMT-6c" class="cls-3" d="M440.08,965.6V933.39h4V965.6Z"/><path id="ArialMT-6f" class="cls-3" d="M448.7,953.94q0-6.48,3.6-9.61a10.83,10.83,0,0,1,7.34-2.59,10.48,10.48,0,0,1,7.86,3.15q3.06,3.15,3.06,8.72a15.43,15.43,0,0,1-1.35,7.08,9.58,9.58,0,0,1-3.94,4,11.47,11.47,0,0,1-5.63,1.43,10.53,10.53,0,0,1-7.93-3.14Q448.7,959.84,448.7,953.94Zm4.06,0c0,3,.65,5.22,2,6.7a6.52,6.52,0,0,0,9.82,0q1.95-2.25,1.95-6.84c0-2.88-.65-5.07-2-6.56a6.5,6.5,0,0,0-9.8,0C453.41,948.71,452.76,951,452.76,953.94Z"/><path id="ArialMT-63" class="cls-3" d="M490.42,957.05l3.89.51a10.1,10.1,0,0,1-3.27,6.3,9.53,9.53,0,0,1-6.45,2.27A10,10,0,0,1,476.9,963q-2.92-3.13-2.92-9a16.14,16.14,0,0,1,1.26-6.61,8.66,8.66,0,0,1,3.81-4.25,11.23,11.23,0,0,1,5.57-1.42,9.7,9.7,0,0,1,6.22,1.92,8.84,8.84,0,0,1,3.1,5.46l-3.85.6a6.34,6.34,0,0,0-1.94-3.54,5.06,5.06,0,0,0-3.38-1.19,6.16,6.16,0,0,0-4.86,2.15q-1.86,2.13-1.86,6.77t1.8,6.83a5.86,5.86,0,0,0,4.7,2.13,5.55,5.55,0,0,0,3.89-1.42A7.13,7.13,0,0,0,490.42,957.05Z"/><path id="ArialMT-6b" class="cls-3" d="M497.71,965.6V933.39h4v18.37l9.36-9.49h5.12l-8.92,8.65,9.82,14.68h-4.88l-7.71-11.93-2.79,2.68v9.25Z"/><path id="ArialMT-73" class="cls-3" d="M518.61,958.63l3.91-.61a5.42,5.42,0,0,0,1.84,3.6,6.35,6.35,0,0,0,4.21,1.25,6.14,6.14,0,0,0,4-1.1,3.33,3.33,0,0,0,1.33-2.61,2.41,2.41,0,0,0-1.17-2.11,16.79,16.79,0,0,0-4-1.33,37.89,37.89,0,0,1-6-1.91,5.84,5.84,0,0,1-2.55-2.21,5.92,5.92,0,0,1-.87-3.14,6,6,0,0,1,.71-2.88,6.5,6.5,0,0,1,1.95-2.22,8.06,8.06,0,0,1,2.51-1.14,11.83,11.83,0,0,1,3.42-.48,13.42,13.42,0,0,1,4.82.79,6.52,6.52,0,0,1,3.07,2.15,8.35,8.35,0,0,1,1.36,3.6l-3.87.53a4.17,4.17,0,0,0-1.52-2.8,5.58,5.58,0,0,0-3.57-1,6.47,6.47,0,0,0-3.89.9,2.63,2.63,0,0,0-1.17,2.11,2.17,2.17,0,0,0,.49,1.39,3.55,3.55,0,0,0,1.51,1.05c.4.15,1.56.48,3.5,1a47.55,47.55,0,0,1,5.85,1.84,5.56,5.56,0,0,1,3.55,5.46,6.62,6.62,0,0,1-1.15,3.72,7.35,7.35,0,0,1-3.34,2.7,12,12,0,0,1-4.91,1q-4.55,0-6.93-1.89A8.8,8.8,0,0,1,518.61,958.63Z"/></g></g><g id="matplotlib.axis_4" data-name="matplotlib.axis 4"><g id="ytick_9" data-name="ytick 9"><g id="text_20" data-name="text 20"><path id="ArialMT-37" class="cls-3" d="M92.7,834.21v-3.38h18.54v2.73a39.31,39.31,0,0,0-5.43,7.73,47.38,47.38,0,0,0-4.14,9.93,37.42,37.42,0,0,0-1.35,7.87H96.71A34.71,34.71,0,0,1,98,850.93a42.72,42.72,0,0,1,3.65-9.24,39.11,39.11,0,0,1,5-7.48Z"/><path id="ArialMT-35-2" data-name="ArialMT-35" class="cls-3" d="M114.72,851.59l3.68-.31a6.66,6.66,0,0,0,1.91,4.05,5.17,5.17,0,0,0,3.61,1.36,5.62,5.62,0,0,0,4.29-1.91,7.26,7.26,0,0,0,1.76-5.09,6.54,6.54,0,0,0-1.69-4.74,5.9,5.9,0,0,0-4.43-1.74,6.22,6.22,0,0,0-3.07.77,6,6,0,0,0-2.14,2l-3.3-.43,2.77-14.71h14.24v3.37H120.92l-1.54,7.69a9.3,9.3,0,0,1,5.41-1.8,8.59,8.59,0,0,1,6.33,2.6,9.08,9.08,0,0,1,2.58,6.68,10.44,10.44,0,0,1-2.27,6.72,9.06,9.06,0,0,1-7.51,3.48,9.28,9.28,0,0,1-6.39-2.19A8.54,8.54,0,0,1,114.72,851.59Z"/><path id="ArialMT-30" class="cls-3" d="M137,845a26.13,26.13,0,0,1,1-8.18,10.07,10.07,0,0,1,3.1-4.77,7.92,7.92,0,0,1,5.18-1.68,8.47,8.47,0,0,1,4.05.93,7.79,7.79,0,0,1,2.87,2.67A14.61,14.61,0,0,1,155,838.2a28.3,28.3,0,0,1,.64,6.77,26.21,26.21,0,0,1-1,8.13,10.17,10.17,0,0,1-3.09,4.79,8,8,0,0,1-5.21,1.69,7.85,7.85,0,0,1-6.5-3Q137,853,137,845Zm3.61,0q0,7,1.65,9.39a4.72,4.72,0,0,0,8.15,0Q152,852,152,845t-1.65-9.39a4.9,4.9,0,0,0-4.11-2.33,4.49,4.49,0,0,0-3.87,2C141.18,837,140.57,840.27,140.57,845Z"/></g></g><g id="ytick_10" data-name="ytick 10"><g id="text_21" data-name="text 21"><path id="ArialMT-38" class="cls-3" d="M97.88,708.18a6.71,6.71,0,0,1-3.25-2.29,6,6,0,0,1-1-3.56,6.94,6.94,0,0,1,2.25-5.25,8.33,8.33,0,0,1,6-2.13,8.42,8.42,0,0,1,6,2.18,7.06,7.06,0,0,1,2.29,5.3,5.82,5.82,0,0,1-1,3.47,6.71,6.71,0,0,1-3.17,2.28,7.28,7.28,0,0,1,5.38,7.34,8.2,8.2,0,0,1-2.6,6.17,10.56,10.56,0,0,1-13.66,0,8.32,8.32,0,0,1-2.6-6.26,7.56,7.56,0,0,1,1.41-4.67A7.07,7.07,0,0,1,97.88,708.18Zm-.7-6a4.48,4.48,0,0,0,1.3,3.33,4.65,4.65,0,0,0,3.4,1.29,4.54,4.54,0,0,0,3.33-1.28,4.22,4.22,0,0,0,1.3-3.14,4.35,4.35,0,0,0-1.34-3.25,4.55,4.55,0,0,0-3.33-1.32,4.61,4.61,0,0,0-3.34,1.29A4.16,4.16,0,0,0,97.18,702.21ZM96,715.44a6.32,6.32,0,0,0,.72,2.91,5,5,0,0,0,2.12,2.18,6.09,6.09,0,0,0,3,.77,5.67,5.67,0,0,0,4.16-1.62,5.57,5.57,0,0,0,1.64-4.12,5.64,5.64,0,0,0-1.69-4.2,5.76,5.76,0,0,0-4.23-1.66,5.54,5.54,0,0,0-4.11,1.64A5.6,5.6,0,0,0,96,715.44Z"/><path id="ArialMT-30-2" data-name="ArialMT-30" class="cls-3" d="M114.72,709.58a26.1,26.1,0,0,1,1-8.17,10.2,10.2,0,0,1,3.1-4.78,7.93,7.93,0,0,1,5.19-1.68,8.45,8.45,0,0,1,4,.93,7.66,7.66,0,0,1,2.87,2.68,14.17,14.17,0,0,1,1.78,4.25,28.3,28.3,0,0,1,.64,6.77,26.24,26.24,0,0,1-1,8.13,10.13,10.13,0,0,1-3.1,4.79,8.7,8.7,0,0,1-11.7-1.28Q114.72,717.65,114.72,709.58Zm3.61,0q0,7,1.65,9.39a4.71,4.71,0,0,0,8.14,0q1.65-2.34,1.65-9.38c0-4.71-.55-7.85-1.65-9.39a4.9,4.9,0,0,0-4.11-2.33,4.54,4.54,0,0,0-3.87,2Q118.33,702.54,118.33,709.58Z"/><path id="ArialMT-30-3" data-name="ArialMT-30" class="cls-3" d="M137,709.58a26.06,26.06,0,0,1,1-8.17,10,10,0,0,1,3.1-4.78,7.92,7.92,0,0,1,5.18-1.68,8.47,8.47,0,0,1,4.05.93,7.74,7.74,0,0,1,2.87,2.68,14.43,14.43,0,0,1,1.78,4.25,28.3,28.3,0,0,1,.64,6.77,26.21,26.21,0,0,1-1,8.13,10.12,10.12,0,0,1-3.09,4.79,8.71,8.71,0,0,1-11.71-1.28Q137,717.65,137,709.58Zm3.61,0q0,7,1.65,9.39a4.72,4.72,0,0,0,8.15,0q1.65-2.34,1.65-9.38c0-4.71-.55-7.85-1.65-9.39a4.9,4.9,0,0,0-4.11-2.33,4.51,4.51,0,0,0-3.87,2Q140.58,702.54,140.57,709.58Z"/></g></g><g id="ytick_11" data-name="ytick 11"><g id="text_22" data-name="text 22"><path id="ArialMT-38-2" data-name="ArialMT-38" class="cls-3" d="M97.88,572.79a6.71,6.71,0,0,1-3.25-2.29,6,6,0,0,1-1-3.55,6.91,6.91,0,0,1,2.25-5.25,8.29,8.29,0,0,1,6-2.14,8.38,8.38,0,0,1,6,2.19,7,7,0,0,1,2.29,5.3,5.81,5.81,0,0,1-1,3.46,6.71,6.71,0,0,1-3.17,2.28,7.7,7.7,0,0,1,4,2.77,7.61,7.61,0,0,1,1.37,4.57,8.18,8.18,0,0,1-2.6,6.17,10.58,10.58,0,0,1-13.66,0,8.35,8.35,0,0,1-2.6-6.27,7.56,7.56,0,0,1,1.41-4.67A7.07,7.07,0,0,1,97.88,572.79Zm-.7-6a4.47,4.47,0,0,0,1.3,3.32,4.65,4.65,0,0,0,3.4,1.29,4.54,4.54,0,0,0,3.33-1.28,4.21,4.21,0,0,0,1.3-3.13,4.38,4.38,0,0,0-1.34-3.26,4.9,4.9,0,0,0-6.67,0A4.13,4.13,0,0,0,97.18,566.83ZM96,580.05a6.26,6.26,0,0,0,.72,2.91,5,5,0,0,0,2.12,2.19,6.19,6.19,0,0,0,3,.76,5.7,5.7,0,0,0,4.16-1.61,6,6,0,0,0,0-8.33,5.76,5.76,0,0,0-4.23-1.66A5.59,5.59,0,0,0,96,580.05Z"/><path id="ArialMT-35-3" data-name="ArialMT-35" class="cls-3" d="M114.72,580.81l3.68-.31a6.66,6.66,0,0,0,1.91,4.06,5.2,5.2,0,0,0,3.61,1.35,5.58,5.58,0,0,0,4.29-1.91,7.23,7.23,0,0,0,1.76-5.08,6.54,6.54,0,0,0-1.69-4.74,5.87,5.87,0,0,0-4.43-1.75,6.12,6.12,0,0,0-3.07.78,6,6,0,0,0-2.14,2l-3.3-.43,2.77-14.71h14.24v3.36H120.92l-1.54,7.7a9.3,9.3,0,0,1,5.41-1.8,8.55,8.55,0,0,1,6.33,2.6,9.08,9.08,0,0,1,2.58,6.68,10.44,10.44,0,0,1-2.27,6.72,9.07,9.07,0,0,1-7.51,3.47,9.28,9.28,0,0,1-6.39-2.19A8.51,8.51,0,0,1,114.72,580.81Z"/><path id="ArialMT-30-4" data-name="ArialMT-30" class="cls-3" d="M137,574.2a26.09,26.09,0,0,1,1-8.18,10,10,0,0,1,3.1-4.77,7.87,7.87,0,0,1,5.18-1.69,8.35,8.35,0,0,1,4.05.94,7.63,7.63,0,0,1,2.87,2.67,14.38,14.38,0,0,1,1.78,4.26,28.25,28.25,0,0,1,.64,6.77,26.3,26.3,0,0,1-1,8.13,10.09,10.09,0,0,1-3.09,4.78,8.71,8.71,0,0,1-11.71-1.28Q137,582.26,137,574.2Zm3.61,0c0,4.7.55,7.82,1.65,9.38a4.72,4.72,0,0,0,8.15,0c1.1-1.56,1.65-4.69,1.65-9.37s-.55-7.85-1.65-9.4a4.89,4.89,0,0,0-4.11-2.32,4.49,4.49,0,0,0-3.87,2Q140.58,567.14,140.57,574.2Z"/></g></g><g id="ytick_12" data-name="ytick 12"><g id="text_23" data-name="text 23"><path id="ArialMT-39" class="cls-3" d="M93,446.31l3.39-.31A5.86,5.86,0,0,0,98,449.45a4.51,4.51,0,0,0,3.11,1.08,5.33,5.33,0,0,0,2.84-.75,6,6,0,0,0,2-2,11.63,11.63,0,0,0,1.31-3.35,17.77,17.77,0,0,0,.53-4.3c0-.15,0-.38,0-.7a8,8,0,0,1-2.88,2.73,7.89,7.89,0,0,1-4,1,8,8,0,0,1-6-2.57,9.45,9.45,0,0,1-2.46-6.8,9.68,9.68,0,0,1,2.57-7,8.56,8.56,0,0,1,6.43-2.65,9.23,9.23,0,0,1,5.11,1.5,9.37,9.37,0,0,1,3.51,4.29,21.15,21.15,0,0,1,1.2,8.06,25.94,25.94,0,0,1-1.19,8.74,10.26,10.26,0,0,1-3.54,5,9.2,9.2,0,0,1-5.52,1.7A7.57,7.57,0,0,1,93,446.31Zm14.4-12.64a6.88,6.88,0,0,0-1.61-4.8,5,5,0,0,0-3.88-1.78A5.37,5.37,0,0,0,97.82,429a7.1,7.1,0,0,0-1.74,5,6.13,6.13,0,0,0,1.65,4.44,5.44,5.44,0,0,0,4.07,1.71,5.19,5.19,0,0,0,4-1.71A6.73,6.73,0,0,0,107.39,433.67Z"/><path id="ArialMT-30-5" data-name="ArialMT-30" class="cls-3" d="M114.72,438.81a26.17,26.17,0,0,1,1-8.18,10.22,10.22,0,0,1,3.1-4.77,7.93,7.93,0,0,1,5.19-1.68,8.45,8.45,0,0,1,4,.93,7.72,7.72,0,0,1,2.87,2.67,14.34,14.34,0,0,1,1.78,4.26,28.3,28.3,0,0,1,.64,6.77,26.24,26.24,0,0,1-1,8.13,10.18,10.18,0,0,1-3.1,4.79,8,8,0,0,1-5.2,1.69,7.84,7.84,0,0,1-6.5-3Q114.72,446.87,114.72,438.81Zm3.61,0q0,7.05,1.65,9.39a4.71,4.71,0,0,0,8.14,0q1.65-2.34,1.65-9.37t-1.65-9.39a4.9,4.9,0,0,0-4.11-2.33,4.52,4.52,0,0,0-3.87,2.05Q118.33,431.75,118.33,438.81Z"/><path id="ArialMT-30-6" data-name="ArialMT-30" class="cls-3" d="M137,438.81a26.13,26.13,0,0,1,1-8.18,10.07,10.07,0,0,1,3.1-4.77,7.92,7.92,0,0,1,5.18-1.68,8.47,8.47,0,0,1,4.05.93,7.79,7.79,0,0,1,2.87,2.67A14.61,14.61,0,0,1,155,432a28.3,28.3,0,0,1,.64,6.77,26.21,26.21,0,0,1-1,8.13,10.17,10.17,0,0,1-3.09,4.79,8,8,0,0,1-5.21,1.69,7.85,7.85,0,0,1-6.5-3Q137,446.87,137,438.81Zm3.61,0q0,7.05,1.65,9.39a4.72,4.72,0,0,0,8.15,0q1.65-2.34,1.65-9.37t-1.65-9.39a4.9,4.9,0,0,0-4.11-2.33,4.49,4.49,0,0,0-3.87,2.05Q140.58,431.75,140.57,438.81Z"/></g></g><g id="ytick_13" data-name="ytick 13"><g id="text_24" data-name="text 24"><path id="ArialMT-39-2" data-name="ArialMT-39" class="cls-3" d="M93,310.92l3.39-.31A5.89,5.89,0,0,0,98,314.07a4.55,4.55,0,0,0,3.11,1.07,5.42,5.42,0,0,0,2.84-.74,6.2,6.2,0,0,0,2-2,11.74,11.74,0,0,0,1.31-3.35,17.83,17.83,0,0,0,.53-4.3c0-.16,0-.39,0-.7a8.1,8.1,0,0,1-2.88,2.72,7.79,7.79,0,0,1-4,1,8,8,0,0,1-6-2.57,9.45,9.45,0,0,1-2.46-6.8,9.67,9.67,0,0,1,2.57-7,8.57,8.57,0,0,1,6.43-2.66,9.16,9.16,0,0,1,5.11,1.51,9.39,9.39,0,0,1,3.51,4.28,21.15,21.15,0,0,1,1.2,8.06,25.94,25.94,0,0,1-1.19,8.74,10.17,10.17,0,0,1-3.54,4.95A9.2,9.2,0,0,1,101,318,7.56,7.56,0,0,1,93,310.92Zm14.4-12.64a6.88,6.88,0,0,0-1.61-4.8,5.07,5.07,0,0,0-3.88-1.78,5.35,5.35,0,0,0-4.08,1.92,7.08,7.08,0,0,0-1.74,5A6.13,6.13,0,0,0,97.73,303a5.44,5.44,0,0,0,4.07,1.71,5.19,5.19,0,0,0,4-1.71A6.73,6.73,0,0,0,107.39,298.28Z"/><path id="ArialMT-35-4" data-name="ArialMT-35" class="cls-3" d="M114.72,310l3.68-.31a6.63,6.63,0,0,0,1.91,4,5.17,5.17,0,0,0,3.61,1.36,5.62,5.62,0,0,0,4.29-1.91,7.23,7.23,0,0,0,1.76-5.08,6.55,6.55,0,0,0-1.69-4.75,5.9,5.9,0,0,0-4.43-1.74,6.22,6.22,0,0,0-3.07.77,6.06,6.06,0,0,0-2.14,2l-3.3-.43,2.77-14.7h14.24v3.36H120.92l-1.54,7.69a9.3,9.3,0,0,1,5.41-1.8,8.59,8.59,0,0,1,6.33,2.6,9.09,9.09,0,0,1,2.58,6.68,10.4,10.4,0,0,1-2.27,6.72,9.06,9.06,0,0,1-7.51,3.48,9.28,9.28,0,0,1-6.39-2.19A8.54,8.54,0,0,1,114.72,310Z"/><path id="ArialMT-30-7" data-name="ArialMT-30" class="cls-3" d="M137,303.42a26,26,0,0,1,1-8.17,10,10,0,0,1,3.1-4.78,7.92,7.92,0,0,1,5.18-1.68,8.47,8.47,0,0,1,4.05.93,7.74,7.74,0,0,1,2.87,2.68,14.43,14.43,0,0,1,1.78,4.25,28.3,28.3,0,0,1,.64,6.77,26.21,26.21,0,0,1-1,8.13,10.12,10.12,0,0,1-3.09,4.79,8.71,8.71,0,0,1-11.71-1.28Q137,311.49,137,303.42Zm3.61,0q0,7.05,1.65,9.39a4.72,4.72,0,0,0,8.15,0c1.1-1.57,1.65-4.69,1.65-9.38s-.55-7.85-1.65-9.39a4.9,4.9,0,0,0-4.11-2.33,4.51,4.51,0,0,0-3.87,2.05Q140.58,296.38,140.57,303.42Z"/></g></g><g id="ytick_14" data-name="ytick 14"><g id="text_25" data-name="text 25"><path id="ArialMT-31-2" data-name="ArialMT-31" class="cls-3" d="M83.46,182.15H80v-22.4a18.08,18.08,0,0,1-3.33,2.42,23.52,23.52,0,0,1-3.7,1.82v-3.4a21.15,21.15,0,0,0,5.16-3.35,13.23,13.23,0,0,0,3.12-3.84h2.26Z"/><path id="ArialMT-30-8" data-name="ArialMT-30" class="cls-3" d="M92.47,168a26.09,26.09,0,0,1,1-8.18,10,10,0,0,1,3.1-4.77,7.87,7.87,0,0,1,5.18-1.69,8.35,8.35,0,0,1,4,.94,7.63,7.63,0,0,1,2.87,2.67,14.38,14.38,0,0,1,1.78,4.26,28.25,28.25,0,0,1,.64,6.77,26,26,0,0,1-1,8.13A10.09,10.09,0,0,1,107,181a8.71,8.71,0,0,1-11.71-1.28Q92.48,176.1,92.47,168Zm3.61,0c0,4.7.55,7.82,1.65,9.38a4.72,4.72,0,0,0,8.15,0c1.1-1.56,1.65-4.69,1.65-9.37s-.55-7.85-1.65-9.4a4.89,4.89,0,0,0-4.11-2.32,4.49,4.49,0,0,0-3.87,2.05Q96.09,161,96.08,168Z"/><path id="ArialMT-30-9" data-name="ArialMT-30" class="cls-3" d="M114.72,168a26.42,26.42,0,0,1,1-8.18,10.11,10.11,0,0,1,3.1-4.77,7.92,7.92,0,0,1,5.19-1.69,8.29,8.29,0,0,1,4,.94A7.56,7.56,0,0,1,131,157a14.12,14.12,0,0,1,1.78,4.26,28.17,28.17,0,0,1,.65,6.77,26.3,26.3,0,0,1-1,8.13,10.16,10.16,0,0,1-3.09,4.78,8.71,8.71,0,0,1-11.71-1.28Q114.72,176.1,114.72,168Zm3.61,0c0,4.7.55,7.82,1.65,9.38a4.71,4.71,0,0,0,8.14,0c1.1-1.56,1.65-4.69,1.65-9.37s-.55-7.85-1.65-9.4a4.89,4.89,0,0,0-4.11-2.32,4.52,4.52,0,0,0-3.87,2.05C118.94,160.11,118.33,163.33,118.33,168Z"/><path id="ArialMT-30-10" data-name="ArialMT-30" class="cls-3" d="M137,168a26.09,26.09,0,0,1,1-8.18,10,10,0,0,1,3.1-4.77,7.88,7.88,0,0,1,5.19-1.69,8.34,8.34,0,0,1,4,.94,7.63,7.63,0,0,1,2.87,2.67,14.12,14.12,0,0,1,1.78,4.26,28.25,28.25,0,0,1,.64,6.77,26.33,26.33,0,0,1-1,8.13,10.1,10.1,0,0,1-3.1,4.78,8.7,8.7,0,0,1-11.7-1.28Q137,176.1,137,168Zm3.62,0c0,4.7.55,7.82,1.65,9.38a4.71,4.71,0,0,0,8.14,0c1.1-1.56,1.65-4.69,1.65-9.37s-.55-7.85-1.65-9.4a4.89,4.89,0,0,0-4.11-2.32,4.52,4.52,0,0,0-3.87,2.05Q140.58,161,140.58,168Z"/></g></g><g id="ytick_15" data-name="ytick 15"><g id="text_26" data-name="text 26"><path id="ArialMT-31-3" data-name="ArialMT-31" class="cls-3" d="M83.46,46.77H80V24.37a18.55,18.55,0,0,1-3.33,2.42,24.28,24.28,0,0,1-3.7,1.81V25.2a21.15,21.15,0,0,0,5.16-3.35A13.34,13.34,0,0,0,81.2,18h2.26Z"/><path id="ArialMT-30-11" data-name="ArialMT-30" class="cls-3" d="M92.47,32.65a26.13,26.13,0,0,1,1-8.18,10.14,10.14,0,0,1,3.1-4.77A7.92,7.92,0,0,1,101.8,18a8.47,8.47,0,0,1,4,.93,7.79,7.79,0,0,1,2.87,2.67,14.49,14.49,0,0,1,1.78,4.26,28.3,28.3,0,0,1,.64,6.77,25.91,25.91,0,0,1-1,8.13A10.17,10.17,0,0,1,107,45.57a8,8,0,0,1-5.21,1.68,7.86,7.86,0,0,1-6.5-3Q92.48,40.71,92.47,32.65Zm3.61,0q0,7.05,1.65,9.39a4.72,4.72,0,0,0,8.15,0q1.65-2.34,1.65-9.37t-1.65-9.4a4.89,4.89,0,0,0-4.11-2.32A4.49,4.49,0,0,0,97.9,23Q96.09,25.59,96.08,32.65Z"/><path id="ArialMT-35-5" data-name="ArialMT-35" class="cls-3" d="M114.72,39.27l3.69-.32a6.66,6.66,0,0,0,1.9,4.06,5.17,5.17,0,0,0,3.61,1.36,5.59,5.59,0,0,0,4.29-1.92A7.22,7.22,0,0,0,130,37.37a6.5,6.5,0,0,0-1.69-4.74,5.87,5.87,0,0,0-4.42-1.74,6.06,6.06,0,0,0-3.07.77,5.92,5.92,0,0,0-2.15,2l-3.3-.43,2.77-14.71h14.25v3.37H120.92l-1.53,7.69a9.28,9.28,0,0,1,5.4-1.8,8.59,8.59,0,0,1,6.33,2.6,9.08,9.08,0,0,1,2.58,6.68,10.43,10.43,0,0,1-2.26,6.72,9.08,9.08,0,0,1-7.52,3.47,9.25,9.25,0,0,1-6.38-2.18A8.5,8.5,0,0,1,114.72,39.27Z"/><path id="ArialMT-30-12" data-name="ArialMT-30" class="cls-3" d="M137,32.65a26.13,26.13,0,0,1,1-8.18,10.14,10.14,0,0,1,3.1-4.77A7.93,7.93,0,0,1,146.3,18a8.45,8.45,0,0,1,4,.93,7.79,7.79,0,0,1,2.87,2.67A14.23,14.23,0,0,1,155,25.88a28.3,28.3,0,0,1,.64,6.77,26.24,26.24,0,0,1-1,8.13,10.18,10.18,0,0,1-3.1,4.79,7.94,7.94,0,0,1-5.2,1.68,7.83,7.83,0,0,1-6.5-3Q137,40.71,137,32.65Zm3.62,0q0,7.05,1.65,9.39a4.71,4.71,0,0,0,8.14,0Q152,39.68,152,32.65t-1.65-9.4a4.89,4.89,0,0,0-4.11-2.32A4.52,4.52,0,0,0,142.39,23Q140.58,25.59,140.58,32.65Z"/></g></g><g id="text_27" data-name="text 27"><path id="ArialMT-4d" class="cls-3" d="M55.09,591.55H22.88v-6.42l22.8-7.63q3.2-1.05,4.78-1.54c-1.17-.36-2.9-.93-5.17-1.7l-22.41-7.72v-5.73H55.09v4.1h-27l27,9.37v3.84l-27.42,9.32H55.09Z"/><path id="ArialMT-65" class="cls-3" d="M47.58,538.46l.5-4.09A10,10,0,0,1,53.64,538a12.14,12.14,0,0,1-1.17,14.8q-3.15,3-8.85,3-5.88,0-9.14-3a10.24,10.24,0,0,1-3.25-7.86,10,10,0,0,1,3.18-7.65q3.2-3,9-3l1,0v17.4a9,9,0,0,0,5.9-2.17,6.5,6.5,0,0,0,2-4.88,6.1,6.1,0,0,0-1.13-3.71A7.65,7.65,0,0,0,47.58,538.46Zm-6.4,13v-13a7.84,7.84,0,0,0-4.41,1.49,6.07,6.07,0,0,0-2.29,4.9,6.27,6.27,0,0,0,1.83,4.58A7.18,7.18,0,0,0,41.18,551.44Z"/><path id="ArialMT-61" class="cls-3" d="M52.22,514.18a14.62,14.62,0,0,1,2.63,4.23,12.26,12.26,0,0,1,.77,4.36,8.51,8.51,0,0,1-1.88,5.91,6.19,6.19,0,0,1-4.8,2.07,6.37,6.37,0,0,1-3.13-.78,6.45,6.45,0,0,1-2.28-2.05,9.55,9.55,0,0,1-1.29-2.84,27.17,27.17,0,0,1-.6-3.52,36,36,0,0,0-1.36-7l-1,0a4.37,4.37,0,0,0-3.41,1.12,6.63,6.63,0,0,0-1.33,4.5,7,7,0,0,0,1,4.12,6,6,0,0,0,3.46,2l-.53,3.87a9.45,9.45,0,0,1-4-1.74,7.63,7.63,0,0,1-2.35-3.49,15.6,15.6,0,0,1-.83-5.3,14,14,0,0,1,.7-4.85,6.42,6.42,0,0,1,1.77-2.75,6.12,6.12,0,0,1,2.7-1.23,22.25,22.25,0,0,1,3.64-.2h5.27a55.86,55.86,0,0,0,7-.25,8.58,8.58,0,0,0,2.8-1v4.14A8.46,8.46,0,0,1,52.22,514.18Zm-8.84.33a30,30,0,0,1,1.5,6.46,14.78,14.78,0,0,0,.79,3.45A3.47,3.47,0,0,0,47,526a3.34,3.34,0,0,0,1.88.55,3.38,3.38,0,0,0,2.63-1.19,5.17,5.17,0,0,0,1.06-3.51,8.13,8.13,0,0,0-1-4.07,6.14,6.14,0,0,0-2.73-2.61,9.52,9.52,0,0,0-4-.64Z"/><path id="ArialMT-6e" class="cls-3" d="M55.09,504.38H31.76v-3.56h3.31a8.38,8.38,0,0,1-3.84-7.42,9.66,9.66,0,0,1,.76-3.88,6.07,6.07,0,0,1,2-2.66,7.79,7.79,0,0,1,2.92-1.23,23.59,23.59,0,0,1,3.84-.21H55.09v3.95H40.9a10.56,10.56,0,0,0-3.62.47,3.75,3.75,0,0,0-1.9,1.63,5.16,5.16,0,0,0-.72,2.76,6.4,6.4,0,0,0,1.6,4.36q1.6,1.85,6.08,1.84H55.09Z"/><path id="ArialMT-52" class="cls-3" d="M55.09,466.28H22.88V452a19,19,0,0,1,.87-6.55,7.15,7.15,0,0,1,3.07-3.58,9.06,9.06,0,0,1,4.85-1.34,8.12,8.12,0,0,1,5.78,2.22c1.57,1.48,2.56,3.76,3,6.85A10.73,10.73,0,0,1,42,447a22.59,22.59,0,0,1,4.28-3.54l8.77-5.6v5.36l-6.7,4.26q-2.89,1.88-4.43,3.08a9.65,9.65,0,0,0-2.16,2.16,6.43,6.43,0,0,0-.86,1.95,13,13,0,0,0-.15,2.37V462h14.3ZM37.1,462v-9.17a13.47,13.47,0,0,0-.61-4.56,4.83,4.83,0,0,0-1.93-2.51,5.23,5.23,0,0,0-2.89-.86,4.78,4.78,0,0,0-3.75,1.66c-1,1.11-1.48,2.85-1.48,5.24V462Z"/><path id="ArialMT-54" class="cls-3" d="M55.09,426.44H26.68v10.61h-3.8V411.52h3.8v10.65H55.09Z"/><path id="ArialMT-28" class="cls-3" d="M64.56,388.38a39.75,39.75,0,0,1-9.66,5.54,30.38,30.38,0,0,1-21.49.57,42.3,42.3,0,0,1-11.08-6.11v-2.83q4.58,2.65,6.53,3.51a34.84,34.84,0,0,0,6.33,2.11,36.66,36.66,0,0,0,8.26.94q10.56,0,21.11-6.56Z"/><path id="ArialMT-6d" class="cls-3" d="M55.09,381H31.76v-3.53H35a8.37,8.37,0,0,1-2.75-2.92,8.22,8.22,0,0,1-1.05-4.16,7.72,7.72,0,0,1,1.07-4.25,5.73,5.73,0,0,1,3-2.34,8.39,8.39,0,0,1-4.08-7.21,7.06,7.06,0,0,1,1.93-5.34c1.27-1.24,3.25-1.87,5.92-1.87h16v3.94H40.39a10.62,10.62,0,0,0-3.41.39,3.2,3.2,0,0,0-1.68,1.39,4.29,4.29,0,0,0-.64,2.37,5.55,5.55,0,0,0,1.64,4.09c1.09,1.08,2.83,1.62,5.24,1.62H55.09v4H39.93a6.63,6.63,0,0,0-4,1,3.64,3.64,0,0,0-1.32,3.16,5.74,5.74,0,0,0,.88,3.09,5,5,0,0,0,2.57,2.05A14.3,14.3,0,0,0,43,377H55.09Z"/><path id="ArialMT-73-2" data-name="ArialMT-73" class="cls-3" d="M48.12,345.05l-.61-3.91a5.42,5.42,0,0,0,3.6-1.84,6.35,6.35,0,0,0,1.25-4.21,6.14,6.14,0,0,0-1.1-4,3.33,3.33,0,0,0-2.61-1.33,2.41,2.41,0,0,0-2.11,1.17,17.28,17.28,0,0,0-1.33,4,36.85,36.85,0,0,1-1.91,6,5.84,5.84,0,0,1-2.21,2.55,5.92,5.92,0,0,1-3.14.87,6,6,0,0,1-2.88-.71,6.5,6.5,0,0,1-2.22-1.95,8.06,8.06,0,0,1-1.14-2.51,11.83,11.83,0,0,1-.48-3.42A13.42,13.42,0,0,1,32,331a6.52,6.52,0,0,1,2.15-3.07,8.35,8.35,0,0,1,3.6-1.36l.53,3.87a4.17,4.17,0,0,0-2.8,1.52,5.58,5.58,0,0,0-1,3.57,6.47,6.47,0,0,0,.9,3.89,2.63,2.63,0,0,0,2.11,1.17,2.17,2.17,0,0,0,1.39-.49,3.55,3.55,0,0,0,1-1.51c.15-.4.48-1.56,1-3.5a47.55,47.55,0,0,1,1.84-5.85,5.92,5.92,0,0,1,2.08-2.6,5.76,5.76,0,0,1,3.38-.95A6.62,6.62,0,0,1,52,326.82a7.35,7.35,0,0,1,2.7,3.34,12,12,0,0,1,1,4.91c0,3-.63,5.35-1.89,6.93A8.8,8.8,0,0,1,48.12,345.05Z"/><path id="ArialMT-29" class="cls-3" d="M64.56,318.37v2.84Q54,314.64,43.45,314.64a36.07,36.07,0,0,0-8.2.94,34.79,34.79,0,0,0-6.33,2.09q-2,.85-6.59,3.54v-2.84a42.26,42.26,0,0,1,11.08-6.1,30.17,30.17,0,0,1,21.49.58A40.72,40.72,0,0,1,64.56,318.37Z"/></g></g><g id="line2d_3" data-name="line2d 3"><g class="cls-4"><path class="cls-5" d="M194.53,678.06,334,719.89l139.47,67.26,139.46,13.56,139.46-6"/></g></g><g id="LineCollection_1" data-name="LineCollection 1"><g class="cls-4"><path class="cls-5" d="M194.53,721.4V631.48"/></g><g class="cls-4"><path class="cls-5" d="M334,764.05V672.68"/></g><g class="cls-4"><path class="cls-5" d="M473.46,826.93V745.47"/></g><g class="cls-4"><path class="cls-5" d="M612.92,844.46V757.34"/></g><g class="cls-4"><path class="cls-5" d="M752.38,838.76V753.28"/></g></g><g id="line2d_4" data-name="line2d 4"><g class="cls-4"><path class="cls-6" d="M194.53,124.76,334,190.6l139.47,41.6,139.46-17.74,139.46,34.93"/></g></g><g id="LineCollection_2" data-name="LineCollection 2"><g class="cls-4"><path class="cls-6" d="M194.53,190.77V59.4"/></g><g class="cls-4"><path class="cls-6" d="M334,259.35V124.15"/></g><g class="cls-4"><path class="cls-6" d="M473.46,299.46V166.66"/></g><g class="cls-4"><path class="cls-6" d="M612.92,284.39V149.83"/></g><g class="cls-4"><path class="cls-6" d="M752.38,319.22V177.4"/></g></g><g id="patch_8" data-name="patch 8"><path class="cls-7" d="M166.64,883.71V20.14"/></g><g id="patch_9" data-name="patch 9"><path class="cls-7" d="M166.64,883.71H780.27"/></g><g id="legend_1" data-name="legend 1"><g id="line2d_9" data-name="line2d 9"><path class="cls-5" d="M624.27,58.12h60"/></g><g id="text_29" data-name="text 29"><path id="ArialMT-43" class="cls-3" d="M725.91,61.09l2.84.71a9.48,9.48,0,0,1-3.21,5.34A8.84,8.84,0,0,1,719.86,69a10.24,10.24,0,0,1-5.65-1.41,8.84,8.84,0,0,1-3.31-4.1,14.67,14.67,0,0,1-1.13-5.75,12.68,12.68,0,0,1,1.28-5.85,8.74,8.74,0,0,1,3.65-3.79,10.56,10.56,0,0,1,5.2-1.3,8.75,8.75,0,0,1,5.42,1.64A8.51,8.51,0,0,1,728.39,53l-2.8.66a6.62,6.62,0,0,0-2.17-3.41,5.74,5.74,0,0,0-3.57-1.08,6.9,6.9,0,0,0-4.14,1.2,6.26,6.26,0,0,0-2.34,3.18,12.79,12.79,0,0,0-.67,4.12,13.11,13.11,0,0,0,.8,4.78A5.87,5.87,0,0,0,716,65.54a7,7,0,0,0,3.65,1,6.14,6.14,0,0,0,4-1.37A7.1,7.1,0,0,0,725.91,61.09Z"/><path id="ArialMT-4f" class="cls-3" d="M731.39,58.16c0-3.57,1-6.36,2.87-8.37a9.74,9.74,0,0,1,7.41-3A10.29,10.29,0,0,1,747,48.18a9.27,9.27,0,0,1,3.63,4,12.84,12.84,0,0,1,1.26,5.77,12.65,12.65,0,0,1-1.32,5.84,9,9,0,0,1-3.74,3.9A10.6,10.6,0,0,1,741.66,69a10.21,10.21,0,0,1-5.42-1.46,9.4,9.4,0,0,1-3.62-4A12.13,12.13,0,0,1,731.39,58.16Zm2.93,0a8.62,8.62,0,0,0,2.08,6.12,6.91,6.91,0,0,0,5.24,2.23,6.83,6.83,0,0,0,5.28-2.26,9.06,9.06,0,0,0,2.08-6.4,11,11,0,0,0-.89-4.57,6.78,6.78,0,0,0-2.59-3,7,7,0,0,0-3.83-1.08,7.32,7.32,0,0,0-5.2,2.08Q734.32,53.35,734.32,58.2Z"/></g><g id="line2d_10" data-name="line2d 10"><path class="cls-6" d="M624.27,100.55h60"/></g><g id="text_30" data-name="text 30"><path id="ArialMT-43-2" data-name="ArialMT-43" class="cls-3" d="M725.91,103.52l2.84.72a9.51,9.51,0,0,1-3.21,5.34,8.9,8.9,0,0,1-5.68,1.84,10.24,10.24,0,0,1-5.65-1.41,8.89,8.89,0,0,1-3.31-4.1,14.76,14.76,0,0,1-1.13-5.76,12.73,12.73,0,0,1,1.28-5.85,8.8,8.8,0,0,1,3.65-3.79,10.67,10.67,0,0,1,5.2-1.3,8.81,8.81,0,0,1,5.42,1.64,8.54,8.54,0,0,1,3.07,4.62l-2.8.66a6.65,6.65,0,0,0-2.17-3.42,5.8,5.8,0,0,0-3.57-1.07,7,7,0,0,0-4.14,1.19A6.24,6.24,0,0,0,713.37,96a12.75,12.75,0,0,0-.67,4.12,13.15,13.15,0,0,0,.8,4.78A6,6,0,0,0,716,108a7,7,0,0,0,3.65,1,6.09,6.09,0,0,0,4-1.37A7.07,7.07,0,0,0,725.91,103.52Z"/><path id="ArialMT-44" class="cls-3" d="M732.26,111.05V89.58h7.39a18.47,18.47,0,0,1,3.83.3,7.35,7.35,0,0,1,3.14,1.54,8.64,8.64,0,0,1,2.54,3.68,14.13,14.13,0,0,1,.85,5.1,15,15,0,0,1-.57,4.33,10.47,10.47,0,0,1-1.47,3.13,7.55,7.55,0,0,1-2,2,8.1,8.1,0,0,1-2.56,1.08,14.86,14.86,0,0,1-3.45.36Zm2.84-2.53h4.58a11.16,11.16,0,0,0,3.33-.4,4.7,4.7,0,0,0,1.93-1.11,6.79,6.79,0,0,0,1.58-2.72,13.46,13.46,0,0,0,.56-4.14A10,10,0,0,0,746,95a5.6,5.6,0,0,0-2.68-2.42,11.24,11.24,0,0,0-3.68-.44H735.1Z"/></g></g></svg>