<?xml version="1.0" encoding="utf-8"?>
<!-- Generator: Adobe Illustrator 24.1.0, SVG Export Plug-In . SVG Version: 6.00 Build 0)  -->
<svg version="1.1" id="Layer_1" xmlns="http://www.w3.org/2000/svg" xmlns:xlink="http://www.w3.org/1999/xlink" x="0px" y="0px"
	 viewBox="0 0 406.3 273.3" style="enable-background:new 0 0 406.3 273.3;" xml:space="preserve">
<style type="text/css">
	.st0{fill:#D1D1D1;}
	.st1{fill:none;stroke:#231F20;stroke-width:1.5;stroke-miterlimit:10;}
	.st2{fill:#231F20;}
	.st3{fill:#D1D1D1;stroke:#231F20;stroke-miterlimit:10;}
	.st4{font-family:'ArialMT';}
	.st5{font-size:10px;}
	.st6{font-size:8px;}
	.st7{font-size:24px;}
	.st8{font-size:7.2px;}
	.st9{fill:none;stroke:#231F20;stroke-width:2;stroke-miterlimit:10;}
	.st10{font-size:12px;}
	.st11{font-size:20px;}
</style>
<rect x="267" y="45.2" class="st0" width="123.7" height="26.4"/>
<rect x="267" y="75.1" class="st0" width="123.7" height="26.4"/>
<rect x="267" y="13.8" class="st0" width="123.7" height="26.4"/>
<rect x="141.8" y="45.2" class="st0" width="123.7" height="26.4"/>
<rect x="141.8" y="75.1" class="st0" width="123.7" height="26.4"/>
<rect x="141.6" y="13.8" class="st0" width="123.7" height="26.4"/>
<rect x="16.6" y="45.2" class="st0" width="123.7" height="26.4"/>
<rect x="16.6" y="75.2" class="st0" width="123.7" height="26.4"/>
<g>
	<g>
		<line class="st1" x1="13.8" y1="167.8" x2="344.7" y2="249.8"/>
		<g>
			<path class="st2" d="M353.5,251.9c-4.5,0.5-10.3,1.9-14.2,3.8l4.2-6.3l-0.8-7.5C345.3,245.5,349.8,249.4,353.5,251.9z"/>
		</g>
	</g>
</g>
<path class="st3" d="M52.1,156.6h-31c-6.6,0-12-5.4-12-12v-12.3c0-6.6,5.4-12,12-12H52c6.6,0,12,5.4,12,12v12.3
	C64.1,151.2,58.7,156.6,52.1,156.6z"/>
<text transform="matrix(1 0 0 1 28.8409 141.2141)" class="st2 st4 st5">The</text>
<path class="st3" d="M90.9,165.9H60c-6.6,0-12-5.4-12-12v-12.3c0-6.6,5.4-12,12-12h30.9c6.6,0,12,5.4,12,12v12.3
	C102.9,160.5,97.5,165.9,90.9,165.9z"/>
<path class="st3" d="M129.9,175.6H99c-6.6,0-12-5.4-12-12v-12.3c0-6.6,5.4-12,12-12h30.9c6.6,0,12,5.4,12,12v12.3
	C141.9,170.2,136.5,175.6,129.9,175.6z"/>
<path class="st3" d="M176,182.9h-30.9c-6.6,0-12-5.4-12-12v-12.3c0-6.6,5.4-12,12-12H176c6.6,0,12,5.4,12,12v12.3
	C188,177.5,182.6,182.9,176,182.9z"/>
<path class="st3" d="M212.8,193.1h-30.9c-6.6,0-12-5.4-12-12v-12.3c0-6.6,5.4-12,12-12h30.9c6.6,0,12,5.4,12,12v12.3
	C224.8,187.7,219.4,193.1,212.8,193.1z"/>
<path class="st3" d="M249.5,202.6h-30.9c-6.6,0-12-5.4-12-12v-12.3c0-6.6,5.4-12,12-12h30.9c6.6,0,12,5.4,12,12v12.3
	C261.5,197.2,256.1,202.6,249.5,202.6z"/>
<text transform="matrix(1 0 0 1 155.2633 139.3547)" class="st2 st4 st6">Context Phrase</text>
<text transform="matrix(1 0 0 1 350.1202 182.9152)" class="st2 st4 st6">Target </text>
<text transform="matrix(1 0 0 1 22.2818 163.9748)" class="st2 st4 st6">500 ms</text>
<text transform="matrix(1 0 0 1 62.2325 173.424)" class="st2 st4 st6">500 ms</text>
<text transform="matrix(1 0 0 1 102.9649 182.9162)" class="st2 st4 st6">500 ms</text>
<text transform="matrix(1 0 0 1 144.69 190.4719)" class="st2 st4 st6">500 ms</text>
<text transform="matrix(1 0 0 1 181.0528 201.1115)" class="st2 st4 st6">500 ms</text>
<text transform="matrix(1 0 0 1 330.5206 241.0236)" class="st2 st4 st6">2000 ms (Key Press)</text>
<path class="st3" d="M293.1,211.9h-30.9c-6.6,0-12-5.4-12-12v-12.3c0-6.6,5.4-12,12-12h30.9c6.6,0,12,5.4,12,12v12.3
	C305.1,206.5,299.7,211.9,293.1,211.9z"/>
<path class="st3" d="M331.2,221.3h-30.9c-6.6,0-12-5.4-12-12V197c0-6.6,5.4-12,12-12h30.9c6.6,0,12,5.4,12,12v12.3
	C343.2,215.9,337.8,221.3,331.2,221.3z"/>
<text transform="matrix(1 0 0 1 64.8014 151.2453)" class="st2 st4 st5">man</text>
<text transform="matrix(1 0 0 1 91.5328 160.3039)" class="st2 st4 st5">loosened</text>
<text transform="matrix(1 0 0 1 147.2374 168.4084)" class="st2 st4 st5">the</text>
<text transform="matrix(1 0 0 1 187.6466 177.9436)" class="st2 st4 st5">tie</text>
<text transform="matrix(1 0 0 1 216.7447 188.7268)" class="st2 st4 st5">around</text>
<text transform="matrix(1 0 0 1 267.9474 197.0139)" class="st2 st4 st5">his</text>
<path class="st3" d="M375.4,230.1h-30.9c-6.6,0-12-5.4-12-12v-12.3c0-6.6,5.4-12,12-12h30.9c6.6,0,12,5.4,12,12v12.3
	C387.4,224.7,382,230.1,375.4,230.1z"/>
<text transform="matrix(1 0 0 1 219.9605 211.9172)" class="st2 st4 st6">500 ms</text>
<text transform="matrix(1 0 0 1 261.9483 221.3469)" class="st2 st4 st6">500 ms</text>
<text transform="matrix(1 0 0 1 300.8351 230.0578)" class="st2 st4 st6">500 ms</text>
<text transform="matrix(1 0 0 1 350.0538 215.6818)" class="st2 st4 st5">neck</text>
<text transform="matrix(1 0 0 1 307.6563 209.8811)" class="st2 st4 st7">+</text>
<text transform="matrix(1 0 0 1 338.7545 225.1425)" class="st2 st4 st8">False</text>
<text transform="matrix(1 0 0 1 368.6349 225.1428)" class="st2 st4 st8">True</text>
<text transform="matrix(1 0 0 1 339.1446 262.6177)" class="st2 st4 st8">False = Meaningless</text>
<text transform="matrix(1 0 0 1 339.1446 271.2177)" class="st2 st4 st8">True  = Meaningful</text>
<rect x="16.6" y="13.8" class="st0" width="123.7" height="26.4"/>
<line class="st9" x1="17.4" y1="13" x2="17.4" y2="106.7"/>
<line class="st9" x1="16.5" y1="106.7" x2="390.6" y2="106.7"/>
<line class="st9" x1="16.7" y1="13" x2="390.6" y2="13.8"/>
<line class="st9" x1="390.6" y1="13.4" x2="390.6" y2="107.1"/>
<line class="st9" x1="16.6" y1="40.2" x2="390.7" y2="40.2"/>
<text transform="matrix(1 0 0 1 44.0873 30.3957)" class="st4 st10">Predictability</text>
<text transform="matrix(1 0 0 1 44.0872 62.7542)" class="st4 st10">High</text>
<text transform="matrix(1 0 0 1 44.0869 95.8446)" class="st4 st10">Low</text>
<text transform="matrix(1 0 0 1 181.9439 30.3953)" class="st4 st10">Dynamic</text>
<text transform="matrix(1 0 0 1 308.0024 30.3957)" class="st4 st10">Static</text>
<text transform="matrix(1 0 0 1 147.623 55.3336)" class="st4 st5">He loosened the tie</text>
<text transform="matrix(1 0 0 1 147.623 68.5336)" class="st4 st5">around his ___</text>
<text transform="matrix(1 0 0 1 147.2372 85.0583)" class="st4 st5">A large stone blocked the</text>
<text transform="matrix(1 0 0 1 147.2372 98.2583)" class="st4 st5">entrance of the ___</text>
<text transform="matrix(1 0 0 1 272.1421 55.3331)" class="st4 st5">Her job was easy most</text>
<text transform="matrix(1 0 0 1 272.1421 68.5331)" class="st4 st5">of the ___</text>
<text transform="matrix(1 0 0 1 272.1417 85.0582)" class="st4 st5">The state park was</text>
<text transform="matrix(1 0 0 1 272.1417 98.2582)" class="st4 st5">popular for its large ___</text>
<text transform="matrix(1 0 0 1 3.0545 15.4808)" class="st4 st11">A</text>
<text transform="matrix(1 0 0 1 3.0545 120.3244)" class="st4 st11">B</text>
</svg>
