<svg id="Layer_1" data-name="Layer 1" xmlns="http://www.w3.org/2000/svg" viewBox="0 0 384.32 178.67"><defs><style>.cls-1,.cls-2{fill:none;stroke:#231f20;stroke-miterlimit:10;}.cls-2{stroke-width:2px;}.cls-22,.cls-25,.cls-3{font-size:12px;font-family:MyriadPro-Regular, Myriad Pro;}.cls-4{letter-spacing:-0.04em;}.cls-5{letter-spacing:-0.01em;}.cls-6{letter-spacing:0em;}.cls-7{letter-spacing:0em;}.cls-8{letter-spacing:0em;}.cls-9{letter-spacing:-0.01em;}.cls-10{letter-spacing:0.01em;}.cls-11{letter-spacing:-0.01em;}.cls-12{letter-spacing:-0.01em;}.cls-13{letter-spacing:0.01em;}.cls-14{letter-spacing:0em;}.cls-15{letter-spacing:0em;}.cls-16{letter-spacing:-0.01em;}.cls-17{letter-spacing:-0.01em;}.cls-18{letter-spacing:0.01em;}.cls-19{letter-spacing:0.01em;}.cls-20{letter-spacing:0em;}.cls-21{letter-spacing:-0.01em;}.cls-22{letter-spacing:0.01em;}.cls-23{letter-spacing:-0.01em;}.cls-24{letter-spacing:0em;}.cls-25,.cls-30{letter-spacing:0.01em;}.cls-26{letter-spacing:-0.01em;}.cls-27{letter-spacing:0.02em;}.cls-28{letter-spacing:0em;}.cls-29{letter-spacing:0.02em;}.cls-31{letter-spacing:-0.01em;}.cls-32{letter-spacing:0.02em;}.cls-33{letter-spacing:-0.01em;}.cls-34{letter-spacing:0.01em;}</style></defs><line class="cls-1" y1="63.97" x2="376.8" y2="63.97"/><line class="cls-2" x1="0.63" y1="22.84" x2="377.43" y2="22.84"/><line class="cls-2" x1="0.63" y1="1" x2="377.43" y2="1"/><line class="cls-1" x1="0.63" y1="161.94" x2="377.43" y2="161.94"/><line class="cls-1" x1="0.63" y1="142.04" x2="377.43" y2="142.04"/><line class="cls-1" x1="0.63" y1="122.14" x2="377.43" y2="122.14"/><line class="cls-1" x1="7.52" y1="102.24" x2="384.32" y2="102.24"/><line class="cls-1" x1="0.63" y1="82.34" x2="377.43" y2="82.34"/><text class="cls-3" transform="translate(0.61 38.52)">1.<tspan class="cls-4" x="8.64" y="0"> </tspan><tspan class="cls-5" x="10.69" y="0">T</tspan><tspan class="cls-6" x="16.57" y="0">he fa</tspan><tspan class="cls-7" x="41.08" y="0">r</tspan><tspan class="cls-8" x="45.05" y="0">mer </tspan><tspan class="cls-9" x="67.54" y="0">c</tspan><tspan x="72.84" y="0">olle</tspan><tspan class="cls-10" x="91.1" y="0">c</tspan><tspan class="cls-9" x="96.63" y="0">t</tspan><tspan x="100.53" y="0">ed </tspan><tspan class="cls-11" x="115.86" y="0">w</tspan><tspan x="124.57" y="0">ood </tspan><tspan class="cls-12" x="147.06" y="0">t</tspan><tspan x="150.96" y="0">o build a new ba</tspan><tspan class="cls-7" x="233.47" y="0">r</tspan><tspan class="cls-6" x="237.44" y="0">n</tspan></text><line class="cls-1" x1="0.58" y1="45.6" x2="377.38" y2="45.6"/><text class="cls-3" transform="translate(0.63 15.22)"><tspan class="cls-13">S</tspan><tspan class="cls-14" x="5.99" y="0">e</tspan><tspan class="cls-15" x="12" y="0">n</tspan><tspan class="cls-16" x="18.61" y="0">t</tspan><tspan x="22.51" y="0">en</tspan><tspan class="cls-9" x="35.18" y="0">c</tspan><tspan class="cls-14" x="40.49" y="0">e</tspan></text><text class="cls-3" transform="translate(260.53 15.22)"><tspan class="cls-17">C</tspan><tspan x="6.83" y="0">o</tspan><tspan class="cls-18" x="13.42" y="0">R</tspan><tspan x="19.98" y="0">T </tspan><tspan class="cls-19" x="28.49" y="0">R</tspan><tspan class="cls-20" x="35.09" y="0">a</tspan><tspan x="40.82" y="0">ting</tspan></text><text class="cls-3" transform="translate(338.75 15.22)">Cl<tspan class="cls-21" x="9.79" y="0">oz</tspan><tspan x="21.35" y="0">e</tspan></text><text class="cls-22" transform="translate(263.57 38.51)">D<tspan class="cls-6" x="8.16" y="0">ynamic</tspan></text><text x="-7.52" y="-9.09"/><text class="cls-3" transform="translate(341.15 38.51)"><tspan class="cls-23">L</tspan><tspan class="cls-21" x="5.5" y="0">o</tspan><tspan x="12" y="0">w</tspan></text><text class="cls-3" transform="translate(263.57 97.62)"><tspan class="cls-24">S</tspan><tspan x="5.88" y="0">t</tspan><tspan class="cls-20" x="9.85" y="0">a</tspan><tspan x="15.59" y="0">tic</tspan></text><text class="cls-25" transform="translate(341.15 97.62)">H<tspan class="cls-8" x="7.94" y="0">igh</tspan></text><text class="cls-3" transform="translate(0.46 79.04)">3. D<tspan class="cls-26" x="19.18" y="0">r</tspan><tspan x="23.04" y="0">ake did</tspan><tspan class="cls-21" x="59.35" y="0">n</tspan><tspan class="cls-27" x="65.93" y="0">&apos;</tspan><tspan x="68.47" y="0">t like me</tspan><tspan class="cls-28" x="110.83" y="0">a</tspan><tspan class="cls-8" x="116.57" y="0">t because of the tas</tspan><tspan class="cls-12" x="213.33" y="0">t</tspan><tspan x="217.23" y="0">e</tspan></text><text class="cls-3" transform="translate(264 77.63)"><tspan class="cls-24">S</tspan><tspan x="5.88" y="0">t</tspan><tspan class="cls-20" x="9.85" y="0">a</tspan><tspan x="15.59" y="0">tic</tspan></text><text class="cls-3" transform="translate(341.58 77.63)"><tspan class="cls-23">L</tspan><tspan class="cls-21" x="5.5" y="0">o</tspan><tspan x="12" y="0">w</tspan></text><text class="cls-3" transform="translate(0.58 59.14)">2.<tspan class="cls-4" x="8.64" y="0"> </tspan><tspan class="cls-5" x="10.69" y="0">T</tspan><tspan class="cls-6" x="16.57" y="0">hey </tspan><tspan class="cls-11" x="37.44" y="0">w</tspan><tspan x="46.15" y="0">e</tspan><tspan class="cls-11" x="52.16" y="0">r</tspan><tspan class="cls-8" x="55.97" y="0">e sta</tspan><tspan class="cls-29" x="79.03" y="0">r</tspan><tspan class="cls-8" x="83.24" y="0">tled </tspan><tspan class="cls-21" x="105.37" y="0">b</tspan><tspan class="cls-6" x="112.11" y="0">y the sudden noise</tspan></text><text class="cls-22" transform="translate(263.57 59.14)">D<tspan class="cls-6" x="8.16" y="0">ynamic</tspan></text><text class="cls-25" transform="translate(341.15 59.14)">H<tspan class="cls-8" x="7.94" y="0">igh</tspan></text><text class="cls-3" transform="translate(0.63 97.62)">4. <tspan class="cls-30" x="11.18" y="0">H</tspan><tspan class="cls-8" x="19.13" y="0">is boss </tspan><tspan class="cls-31" x="54.69" y="0">r</tspan><tspan x="58.5" y="0">efused </tspan><tspan class="cls-12" x="94.7" y="0">t</tspan><tspan x="98.6" y="0">o </tspan><tspan class="cls-9" x="107.73" y="0">g</tspan><tspan x="114.37" y="0">i</tspan><tspan class="cls-31" x="117.18" y="0">v</tspan><tspan x="122.83" y="0">e him a </tspan><tspan class="cls-26" x="161.73" y="0">r</tspan><tspan x="165.6" y="0">aise</tspan></text><text class="cls-3" transform="translate(0.63 115.84)">5.<tspan class="cls-4" x="8.64" y="0"> </tspan><tspan class="cls-5" x="10.69" y="0">T</tspan><tspan class="cls-6" x="16.57" y="0">he d</tspan><tspan class="cls-7" x="38.56" y="0">r</tspan><tspan x="42.53" y="0">i</tspan><tspan class="cls-31" x="45.33" y="0">v</tspan><tspan x="50.99" y="0">er d</tspan><tspan class="cls-31" x="70.23" y="0">r</tspan><tspan class="cls-21" x="74.04" y="0">o</tspan><tspan class="cls-31" x="80.54" y="0">v</tspan><tspan x="86.2" y="0">e </tspan><tspan class="cls-9" x="94.75" y="0">t</tspan><tspan x="98.65" y="0">oo quic</tspan><tspan class="cls-32" x="135.92" y="0">k</tspan><tspan x="141.75" y="0">ly a</tspan><tspan class="cls-31" x="158.57" y="0">r</tspan><tspan x="162.37" y="0">ound the </tspan><tspan class="cls-12" x="210.73" y="0">c</tspan><tspan x="216.03" y="0">o</tspan><tspan class="cls-7" x="222.62" y="0">r</tspan><tspan x="226.59" y="0">ner</tspan></text><text class="cls-22" transform="translate(263.57 115.84)">D<tspan class="cls-6" x="8.16" y="0">ynamic</tspan></text><text class="cls-3" transform="translate(341.15 115.84)"><tspan class="cls-23">L</tspan><tspan class="cls-21" x="5.5" y="0">o</tspan><tspan x="12" y="0">w</tspan></text><text class="cls-3" transform="translate(0.63 136.05)">6. She <tspan class="cls-11" x="32.32" y="0">r</tspan><tspan x="36.12" y="0">oas</tspan><tspan class="cls-9" x="53.24" y="0">t</tspan><tspan class="cls-8" x="57.14" y="0">ed the marshmall</tspan><tspan class="cls-21" x="144.24" y="0">o</tspan><tspan x="150.74" y="0">w </tspan><tspan class="cls-21" x="162.12" y="0">o</tspan><tspan class="cls-11" x="168.62" y="0">v</tspan><tspan x="174.27" y="0">er the fi</tspan><tspan class="cls-31" x="212.22" y="0">r</tspan><tspan x="216.02" y="0">e</tspan></text><text class="cls-22" transform="translate(264 136.05)">D<tspan class="cls-6" x="8.16" y="0">ynamic</tspan></text><text class="cls-25" transform="translate(341.58 136.05)">H<tspan class="cls-8" x="7.94" y="0">igh</tspan></text><text class="cls-3" transform="translate(0.58 157.66)">7. <tspan class="cls-30" x="11.18" y="0">H</tspan><tspan class="cls-8" x="19.13" y="0">is </tspan><tspan class="cls-11" x="29.23" y="0">w</tspan><tspan x="37.94" y="0">orst </tspan><tspan class="cls-33" x="59.72" y="0">f</tspan><tspan x="63.07" y="0">ear </tspan><tspan class="cls-28" x="81.33" y="0">w</tspan><tspan x="90.12" y="0">as th</tspan><tspan class="cls-20" x="113.83" y="0">a</tspan><tspan x="119.57" y="0">t the spe</tspan><tspan class="cls-34" x="162.86" y="0">c</tspan><tspan class="cls-8" x="168.39" y="0">t</tspan><tspan class="cls-28" x="172.37" y="0">a</tspan><tspan class="cls-12" x="178.1" y="0">t</tspan><tspan x="182" y="0">ors </tspan><tspan class="cls-11" x="199.81" y="0">w</tspan><tspan x="208.52" y="0">ould boo</tspan></text><text class="cls-3" transform="translate(263.57 157.66)"><tspan class="cls-24">S</tspan><tspan x="5.88" y="0">t</tspan><tspan class="cls-20" x="9.85" y="0">a</tspan><tspan x="15.59" y="0">tic</tspan></text><text class="cls-3" transform="translate(341.15 157.66)"><tspan class="cls-23">L</tspan><tspan class="cls-21" x="5.5" y="0">o</tspan><tspan x="12" y="0">w</tspan></text><text class="cls-3" transform="translate(0 175.67)">8.<tspan class="cls-4" x="8.64" y="0"> </tspan><tspan class="cls-5" x="10.69" y="0">T</tspan><tspan class="cls-6" x="16.57" y="0">he p</tspan><tspan class="cls-20" x="38.62" y="0">a</tspan><tspan x="44.35" y="0">tie</tspan><tspan class="cls-20" x="57.14" y="0">n</tspan><tspan x="63.75" y="0">t&apos;s b</tspan><tspan class="cls-11" x="84.11" y="0">r</tspan><tspan x="87.91" y="0">oken a</tspan><tspan class="cls-7" x="121.13" y="0">r</tspan><tspan x="125.1" y="0">m </tspan><tspan class="cls-12" x="137.65" y="0">t</tspan><tspan x="141.55" y="0">ook a while </tspan><tspan class="cls-9" x="200.91" y="0">t</tspan><tspan x="204.81" y="0">o heal</tspan></text><text class="cls-3" transform="translate(264 175.67)"><tspan class="cls-24">S</tspan><tspan x="5.88" y="0">t</tspan><tspan class="cls-20" x="9.85" y="0">a</tspan><tspan x="15.59" y="0">tic</tspan></text><text class="cls-25" transform="translate(341.58 175.67)">H<tspan class="cls-8" x="7.94" y="0">igh</tspan></text></svg>